%TF.GenerationSoftware,KiCad,Pcbnew,(6.0.0)*%
%TF.CreationDate,2022-03-13T17:58:50-04:00*%
%TF.ProjectId,jaguar controller top pcb,6a616775-6172-4206-936f-6e74726f6c6c,rev?*%
%TF.SameCoordinates,Original*%
%TF.FileFunction,Soldermask,Top*%
%TF.FilePolarity,Negative*%
%FSLAX46Y46*%
G04 Gerber Fmt 4.6, Leading zero omitted, Abs format (unit mm)*
G04 Created by KiCad (PCBNEW (6.0.0)) date 2022-03-13 17:58:50*
%MOMM*%
%LPD*%
G01*
G04 APERTURE LIST*
G04 Aperture macros list*
%AMRoundRect*
0 Rectangle with rounded corners*
0 $1 Rounding radius*
0 $2 $3 $4 $5 $6 $7 $8 $9 X,Y pos of 4 corners*
0 Add a 4 corners polygon primitive as box body*
4,1,4,$2,$3,$4,$5,$6,$7,$8,$9,$2,$3,0*
0 Add four circle primitives for the rounded corners*
1,1,$1+$1,$2,$3*
1,1,$1+$1,$4,$5*
1,1,$1+$1,$6,$7*
1,1,$1+$1,$8,$9*
0 Add four rect primitives between the rounded corners*
20,1,$1+$1,$2,$3,$4,$5,0*
20,1,$1+$1,$4,$5,$6,$7,0*
20,1,$1+$1,$6,$7,$8,$9,0*
20,1,$1+$1,$8,$9,$2,$3,0*%
%AMRotRect*
0 Rectangle, with rotation*
0 The origin of the aperture is its center*
0 $1 length*
0 $2 width*
0 $3 Rotation angle, in degrees counterclockwise*
0 Add horizontal line*
21,1,$1,$2,0,0,$3*%
G04 Aperture macros list end*
%ADD10O,7.082827X0.900000*%
%ADD11RotRect,0.900000X0.900000X209.345165*%
%ADD12RotRect,0.900000X0.900000X190.121977*%
%ADD13O,8.123471X0.900000*%
%ADD14RoundRect,0.225000X0.313578X-0.054024X0.054024X0.313578X-0.313578X0.054024X-0.054024X-0.313578X0*%
%ADD15RotRect,0.900000X0.900000X228.568352*%
%ADD16RotRect,0.900000X0.900000X142.064007*%
%ADD17O,9.063382X0.900000*%
%ADD18RotRect,0.900000X0.900000X151.675601*%
%ADD19O,3.810000X0.900000*%
%ADD20RotRect,0.900000X0.900000X132.452413*%
%ADD21RotRect,0.900000X0.900000X218.956759*%
%ADD22RotRect,0.900000X0.900000X199.733571*%
%ADD23RotRect,0.900000X0.900000X170.898789*%
%ADD24RotRect,0.900000X0.900000X161.287195*%
%ADD25RotRect,0.900000X0.900000X180.510383*%
%ADD26RotRect,0.900000X0.900000X54.774382*%
%ADD27RotRect,0.900000X0.900000X357.104818*%
%ADD28RotRect,0.900000X0.900000X25.939600*%
%ADD29RotRect,0.900000X0.900000X35.551194*%
%ADD30RotRect,0.900000X0.900000X328.270036*%
%ADD31O,4.997485X0.888414*%
%ADD32RotRect,0.900000X0.900000X16.328006*%
%ADD33RotRect,0.900000X0.900000X347.493224*%
%ADD34O,8.438907X0.900000*%
%ADD35RoundRect,0.225000X-0.317581X0.019808X-0.019808X-0.317581X0.317581X-0.019808X0.019808X0.317581X0*%
%ADD36RotRect,0.900000X0.900000X318.658442*%
%ADD37RotRect,0.900000X0.900000X337.881630*%
%ADD38RotRect,0.900000X0.900000X45.162788*%
%ADD39O,8.938889X0.900000*%
%ADD40RotRect,0.900000X0.900000X6.716412*%
%ADD41O,6.457911X0.900000*%
%ADD42C,1.650000*%
%ADD43C,4.800000*%
%ADD44R,3.650000X7.410000*%
%ADD45RotRect,3.970000X0.720000X150.000000*%
%ADD46RotRect,0.720000X11.720000X150.000000*%
%ADD47R,7.410000X3.650000*%
%ADD48R,1.350000X1.350000*%
%ADD49O,1.350000X1.350000*%
G04 APERTURE END LIST*
D10*
%TO.C,SW7*%
X86321103Y-40115000D03*
D11*
X82675677Y-39938692D03*
D12*
X82121498Y-38393783D03*
D13*
X86454133Y-35715000D03*
D14*
X84125040Y-33515001D03*
D15*
X83707617Y-41215000D03*
D16*
X83083550Y-34508353D03*
D17*
X86591794Y-37915000D03*
D18*
X82633447Y-35198014D03*
D19*
X85542520Y-33515000D03*
D20*
X83642485Y-33903526D03*
D21*
X83137995Y-40620226D03*
D22*
X82333644Y-39189534D03*
D23*
X82106878Y-36752551D03*
D24*
X82304814Y-35953147D03*
D25*
X82045196Y-37573781D03*
D26*
X89794960Y-33515000D03*
D27*
X91868726Y-37778251D03*
D28*
X91379841Y-35380064D03*
D29*
X90958825Y-34672271D03*
D30*
X91140385Y-40114879D03*
D31*
X88294815Y-41215000D03*
D32*
X91676768Y-36148218D03*
D33*
X91758369Y-38594368D03*
D34*
X87425842Y-39015000D03*
D35*
X90212383Y-41215000D03*
D36*
X90650109Y-40776585D03*
D37*
X91513295Y-39380602D03*
D38*
X90425541Y-34044710D03*
D39*
X87353270Y-36815000D03*
D40*
X91841269Y-36955166D03*
D41*
X87688315Y-34615000D03*
%TD*%
D42*
%TO.C,VR1*%
X55488200Y-6487400D03*
X60488200Y-6487400D03*
X55488200Y-20987400D03*
X60488200Y-20987400D03*
X57988200Y-20987400D03*
D43*
X52288200Y-13487400D03*
X63688200Y-13487400D03*
%TD*%
D44*
%TO.C,SW3*%
X17370000Y-33400000D03*
X21130000Y-33400000D03*
%TD*%
D45*
%TO.C,SW5*%
X50181725Y-34328834D03*
D46*
X47864433Y-35092500D03*
D45*
X51401725Y-32215732D03*
X48961725Y-36441936D03*
X46521725Y-40668140D03*
X47741725Y-38555038D03*
X48188275Y-40221589D03*
X50628275Y-35995385D03*
X49408275Y-38108487D03*
D46*
X51735567Y-37327500D03*
D45*
X51848275Y-33882283D03*
X53068275Y-31769181D03*
%TD*%
D25*
%TO.C,SW9*%
X103725196Y-10113781D03*
D11*
X104355677Y-12478692D03*
D24*
X103984814Y-8493147D03*
D10*
X108001103Y-12655000D03*
D15*
X105387617Y-13755000D03*
D16*
X104763550Y-7048353D03*
D19*
X107222520Y-6055000D03*
D18*
X104313447Y-7738014D03*
D23*
X103786878Y-9292551D03*
D20*
X105322485Y-6443526D03*
D13*
X108134133Y-8255000D03*
D22*
X104013644Y-11729534D03*
D17*
X108271794Y-10455000D03*
D21*
X104817995Y-13160226D03*
D12*
X103801498Y-10933783D03*
D14*
X105805040Y-6055001D03*
D41*
X109368315Y-7155000D03*
D32*
X113356768Y-8688218D03*
D26*
X111474960Y-6055000D03*
D40*
X113521269Y-9495166D03*
D36*
X112330109Y-13316585D03*
D37*
X113193295Y-11920602D03*
D33*
X113438369Y-11134368D03*
D34*
X109105842Y-11555000D03*
D28*
X113059841Y-7920064D03*
D27*
X113548726Y-10318251D03*
D31*
X109974815Y-13755000D03*
D39*
X109033270Y-9355000D03*
D38*
X112105541Y-6584710D03*
D30*
X112820385Y-12654879D03*
D29*
X112638825Y-7212271D03*
D35*
X111892383Y-13755000D03*
%TD*%
D45*
%TO.C,SW6*%
X58731725Y-40668140D03*
D46*
X60074433Y-35092500D03*
D45*
X63611725Y-32215732D03*
X59951725Y-38555038D03*
X62391725Y-34328834D03*
X61171725Y-36441936D03*
X62838275Y-35995385D03*
X65278275Y-31769181D03*
X61618275Y-38108487D03*
X60398275Y-40221589D03*
X64058275Y-33882283D03*
D46*
X63945567Y-37327500D03*
%TD*%
D47*
%TO.C,SW1*%
X9280000Y-21550000D03*
X9280000Y-25310000D03*
%TD*%
D44*
%TO.C,SW2*%
X17370000Y-13460000D03*
X21130000Y-13460000D03*
%TD*%
D47*
%TO.C,SW4*%
X29220000Y-25310000D03*
X29220000Y-21550000D03*
%TD*%
D25*
%TO.C,SW8*%
X92095196Y-23183781D03*
D10*
X96371103Y-25725000D03*
D15*
X93757617Y-26825000D03*
D24*
X92354814Y-21563147D03*
D12*
X92171498Y-24003783D03*
D20*
X93692485Y-19513526D03*
D16*
X93133550Y-20118353D03*
D13*
X96504133Y-21325000D03*
D21*
X93187995Y-26230226D03*
D18*
X92683447Y-20808014D03*
D11*
X92725677Y-25548692D03*
D19*
X95592520Y-19125000D03*
D14*
X94175040Y-19125001D03*
D22*
X92383644Y-24799534D03*
D23*
X92156878Y-22362551D03*
D17*
X96641794Y-23525000D03*
D36*
X100700109Y-26386585D03*
D32*
X101726768Y-21758218D03*
D37*
X101563295Y-24990602D03*
D29*
X101008825Y-20282271D03*
D31*
X98344815Y-26825000D03*
D35*
X100262383Y-26825000D03*
D30*
X101190385Y-25724879D03*
D34*
X97475842Y-24625000D03*
D38*
X100475541Y-19654710D03*
D40*
X101891269Y-22565166D03*
D39*
X97403270Y-22425000D03*
D27*
X101918726Y-23388251D03*
D33*
X101808369Y-24204368D03*
D28*
X101429841Y-20990064D03*
D41*
X97738315Y-20225000D03*
D26*
X99844960Y-19125000D03*
%TD*%
D48*
%TO.C,J1*%
X43860000Y-9580000D03*
D49*
X45860000Y-9580000D03*
X47860000Y-9580000D03*
X49860000Y-9580000D03*
X51860000Y-9580000D03*
X53860000Y-9580000D03*
X55860000Y-9580000D03*
X57860000Y-9580000D03*
X59860000Y-9580000D03*
X61860000Y-9580000D03*
X63860000Y-9580000D03*
X65860000Y-9580000D03*
X67860000Y-9580000D03*
%TD*%
M02*
