%FSLAX45Y45*%
G04 Gerber Fmt 4.5, Leading zero omitted, Abs format (unit mm)*
G04 Created by KiCad (PCBNEW (6.0.0)) date 2022-03-13 17:58:52*
%MOMM*%
%LPD*%
G01*
G04 APERTURE LIST*
%TA.AperFunction,Profile*%
%ADD10C,0.100000*%
%TD*%
%ADD11C,0.200000*%
%ADD12C,0.040000*%
%ADD13C,0.080000*%
%ADD14C,0.110000*%
%ADD15C,0.320000*%
G04 APERTURE END LIST*
D10*
X8304000Y0D02*
X3801000Y0D01*
X2037006Y-2115729D02*
X2173548Y-1979186D01*
X1096000Y-1325000D02*
G75*
G03*
X1096000Y-1325000I-112000J0D01*
G01*
X1096000Y-3161000D02*
G75*
G03*
X1096000Y-3161000I-112000J0D01*
G01*
X8840000Y-311000D02*
X8304000Y-311000D01*
X8304000Y-311000D02*
X8304000Y0D01*
X3801000Y-311000D02*
X3801000Y0D01*
X7312000Y-3140000D02*
G75*
G03*
X7312000Y-3140000I-112000J0D01*
G01*
X1560486Y-2592248D02*
X1697029Y-2455706D01*
X2978000Y-3161000D02*
G75*
G03*
X2978000Y-3161000I-112000J0D01*
G01*
X8840000Y0D02*
X10987000Y0D01*
X2289514Y-2095152D02*
X2152971Y-2231694D01*
X3265000Y0D02*
X1118000Y0D01*
X3265000Y0D02*
X3265000Y-311000D01*
X1812994Y-2571671D02*
G75*
G03*
X2152971Y-2231694I111954J228023D01*
G01*
X2037006Y-2115729D02*
G75*
G03*
X1697029Y-2455706I-111954J-228023D01*
G01*
X10987000Y0D02*
X12105000Y-832000D01*
X1118000Y0D02*
X0Y-832000D01*
X2173548Y-1979186D02*
X2289514Y-2095152D01*
X3265000Y-311000D02*
X3801000Y-311000D01*
X1676452Y-2708214D02*
X1560486Y-2592248D01*
X2978000Y-1325000D02*
G75*
G03*
X2978000Y-1325000I-112000J0D01*
G01*
X4219000Y-3937000D02*
G75*
G03*
X4219000Y-3937000I-112000J0D01*
G01*
X8840000Y0D02*
X8840000Y-311000D01*
X1812994Y-2571671D02*
X1676452Y-2708214D01*
X0Y-4571000D02*
X12105000Y-4571000D01*
X0Y-832000D02*
X0Y-4571000D01*
X12105000Y-4571000D02*
X12105000Y-832000D01*
D11*
D12*
X6119180Y-2921320D02*
X6159180Y-2961320D01*
X6159180Y-2921320D02*
X6119180Y-2961320D01*
X7655880Y-3015300D02*
X7695880Y-3055300D01*
X7695880Y-3015300D02*
X7655880Y-3055300D01*
X7917500Y-2817180D02*
X7957500Y-2857180D01*
X7957500Y-2817180D02*
X7917500Y-2857180D01*
X8534252Y-2977668D02*
X8574252Y-3017668D01*
X8574252Y-2977668D02*
X8534252Y-3017668D01*
X8808085Y-829315D02*
X8848085Y-869315D01*
X8848085Y-829315D02*
X8808085Y-869315D01*
X8970330Y-1812610D02*
X9010330Y-1852610D01*
X9010330Y-1812610D02*
X8970330Y-1852610D01*
X8981760Y-1189040D02*
X9021760Y-1229040D01*
X9021760Y-1189040D02*
X8981760Y-1229040D01*
X9380540Y-2979740D02*
X9420540Y-3019740D01*
X9420540Y-2979740D02*
X9380540Y-3019740D01*
D13*
X4426000Y-958000D02*
G75*
G03*
X4426000Y-958000I-40000J0D01*
G01*
X4626000Y-958000D02*
G75*
G03*
X4626000Y-958000I-40000J0D01*
G01*
X4826000Y-958000D02*
G75*
G03*
X4826000Y-958000I-40000J0D01*
G01*
X5026000Y-958000D02*
G75*
G03*
X5026000Y-958000I-40000J0D01*
G01*
X5226000Y-958000D02*
G75*
G03*
X5226000Y-958000I-40000J0D01*
G01*
X5426000Y-958000D02*
G75*
G03*
X5426000Y-958000I-40000J0D01*
G01*
X5626000Y-958000D02*
G75*
G03*
X5626000Y-958000I-40000J0D01*
G01*
X5826000Y-958000D02*
G75*
G03*
X5826000Y-958000I-40000J0D01*
G01*
X6026000Y-958000D02*
G75*
G03*
X6026000Y-958000I-40000J0D01*
G01*
X6226000Y-958000D02*
G75*
G03*
X6226000Y-958000I-40000J0D01*
G01*
X6426000Y-958000D02*
G75*
G03*
X6426000Y-958000I-40000J0D01*
G01*
X6626000Y-958000D02*
G75*
G03*
X6626000Y-958000I-40000J0D01*
G01*
X6826000Y-958000D02*
G75*
G03*
X6826000Y-958000I-40000J0D01*
G01*
D14*
X5548820Y-593740D02*
X5548820Y-703740D01*
X5493820Y-648740D02*
X5603820Y-648740D01*
X5548820Y-2043740D02*
X5548820Y-2153740D01*
X5493820Y-2098740D02*
X5603820Y-2098740D01*
X5798820Y-2043740D02*
X5798820Y-2153740D01*
X5743820Y-2098740D02*
X5853820Y-2098740D01*
X6048820Y-593740D02*
X6048820Y-703740D01*
X5993820Y-648740D02*
X6103820Y-648740D01*
X6048820Y-2043740D02*
X6048820Y-2153740D01*
X5993820Y-2098740D02*
X6103820Y-2098740D01*
D15*
X5341958Y-1461878D02*
X5341958Y-1235602D01*
X5115682Y-1235602D01*
X5115682Y-1461878D01*
X5341958Y-1461878D01*
X6481958Y-1461878D02*
X6481958Y-1235602D01*
X6255682Y-1235602D01*
X6255682Y-1461878D01*
X6481958Y-1461878D01*
D11*
X252619Y-4886476D02*
X252619Y-4686476D01*
X300238Y-4686476D01*
X328810Y-4696000D01*
X347857Y-4715048D01*
X357381Y-4734095D01*
X366905Y-4772190D01*
X366905Y-4800762D01*
X357381Y-4838857D01*
X347857Y-4857905D01*
X328810Y-4876952D01*
X300238Y-4886476D01*
X252619Y-4886476D01*
X452619Y-4886476D02*
X452619Y-4753143D01*
X452619Y-4791238D02*
X462143Y-4772190D01*
X471667Y-4762667D01*
X490714Y-4753143D01*
X509762Y-4753143D01*
X576429Y-4886476D02*
X576429Y-4753143D01*
X576429Y-4686476D02*
X566905Y-4696000D01*
X576429Y-4705524D01*
X585952Y-4696000D01*
X576429Y-4686476D01*
X576429Y-4705524D01*
X700238Y-4886476D02*
X681190Y-4876952D01*
X671667Y-4857905D01*
X671667Y-4686476D01*
X805000Y-4886476D02*
X785952Y-4876952D01*
X776428Y-4857905D01*
X776428Y-4686476D01*
X1033571Y-4886476D02*
X1033571Y-4686476D01*
X1100238Y-4829333D01*
X1166905Y-4686476D01*
X1166905Y-4886476D01*
X1347857Y-4886476D02*
X1347857Y-4781714D01*
X1338333Y-4762667D01*
X1319286Y-4753143D01*
X1281190Y-4753143D01*
X1262143Y-4762667D01*
X1347857Y-4876952D02*
X1328810Y-4886476D01*
X1281190Y-4886476D01*
X1262143Y-4876952D01*
X1252619Y-4857905D01*
X1252619Y-4838857D01*
X1262143Y-4819810D01*
X1281190Y-4810286D01*
X1328810Y-4810286D01*
X1347857Y-4800762D01*
X1443095Y-4753143D02*
X1443095Y-4953143D01*
X1443095Y-4762667D02*
X1462143Y-4753143D01*
X1500238Y-4753143D01*
X1519286Y-4762667D01*
X1528809Y-4772190D01*
X1538333Y-4791238D01*
X1538333Y-4848381D01*
X1528809Y-4867429D01*
X1519286Y-4876952D01*
X1500238Y-4886476D01*
X1462143Y-4886476D01*
X1443095Y-4876952D01*
X1624048Y-4867429D02*
X1633571Y-4876952D01*
X1624048Y-4886476D01*
X1614524Y-4876952D01*
X1624048Y-4867429D01*
X1624048Y-4886476D01*
X1624048Y-4762667D02*
X1633571Y-4772190D01*
X1624048Y-4781714D01*
X1614524Y-4772190D01*
X1624048Y-4762667D01*
X1624048Y-4781714D01*
D12*
X-45000Y-5196000D02*
X-5000Y-5236000D01*
X-5000Y-5196000D02*
X-45000Y-5236000D01*
D11*
X290714Y-5106476D02*
X309762Y-5106476D01*
X328810Y-5116000D01*
X338333Y-5125524D01*
X347857Y-5144571D01*
X357381Y-5182667D01*
X357381Y-5230286D01*
X347857Y-5268381D01*
X338333Y-5287429D01*
X328810Y-5296952D01*
X309762Y-5306476D01*
X290714Y-5306476D01*
X271667Y-5296952D01*
X262143Y-5287429D01*
X252619Y-5268381D01*
X243095Y-5230286D01*
X243095Y-5182667D01*
X252619Y-5144571D01*
X262143Y-5125524D01*
X271667Y-5116000D01*
X290714Y-5106476D01*
X443095Y-5287429D02*
X452619Y-5296952D01*
X443095Y-5306476D01*
X433571Y-5296952D01*
X443095Y-5287429D01*
X443095Y-5306476D01*
X624048Y-5173143D02*
X624048Y-5306476D01*
X576429Y-5096952D02*
X528810Y-5239810D01*
X652619Y-5239810D01*
X766905Y-5106476D02*
X785952Y-5106476D01*
X805000Y-5116000D01*
X814524Y-5125524D01*
X824048Y-5144571D01*
X833571Y-5182667D01*
X833571Y-5230286D01*
X824048Y-5268381D01*
X814524Y-5287429D01*
X805000Y-5296952D01*
X785952Y-5306476D01*
X766905Y-5306476D01*
X747857Y-5296952D01*
X738333Y-5287429D01*
X728809Y-5268381D01*
X719286Y-5230286D01*
X719286Y-5182667D01*
X728809Y-5144571D01*
X738333Y-5125524D01*
X747857Y-5116000D01*
X766905Y-5106476D01*
X957381Y-5106476D02*
X976428Y-5106476D01*
X995476Y-5116000D01*
X1005000Y-5125524D01*
X1014524Y-5144571D01*
X1024048Y-5182667D01*
X1024048Y-5230286D01*
X1014524Y-5268381D01*
X1005000Y-5287429D01*
X995476Y-5296952D01*
X976428Y-5306476D01*
X957381Y-5306476D01*
X938333Y-5296952D01*
X928809Y-5287429D01*
X919286Y-5268381D01*
X909762Y-5230286D01*
X909762Y-5182667D01*
X919286Y-5144571D01*
X928809Y-5125524D01*
X938333Y-5116000D01*
X957381Y-5106476D01*
X1109762Y-5306476D02*
X1109762Y-5173143D01*
X1109762Y-5192190D02*
X1119286Y-5182667D01*
X1138333Y-5173143D01*
X1166905Y-5173143D01*
X1185952Y-5182667D01*
X1195476Y-5201714D01*
X1195476Y-5306476D01*
X1195476Y-5201714D02*
X1205000Y-5182667D01*
X1224048Y-5173143D01*
X1252619Y-5173143D01*
X1271667Y-5182667D01*
X1281190Y-5201714D01*
X1281190Y-5306476D01*
X1376429Y-5306476D02*
X1376429Y-5173143D01*
X1376429Y-5192190D02*
X1385952Y-5182667D01*
X1405000Y-5173143D01*
X1433571Y-5173143D01*
X1452619Y-5182667D01*
X1462143Y-5201714D01*
X1462143Y-5306476D01*
X1462143Y-5201714D02*
X1471667Y-5182667D01*
X1490714Y-5173143D01*
X1519286Y-5173143D01*
X1538333Y-5182667D01*
X1547857Y-5201714D01*
X1547857Y-5306476D01*
X1938333Y-5096952D02*
X1766905Y-5354095D01*
X2195476Y-5106476D02*
X2214524Y-5106476D01*
X2233571Y-5116000D01*
X2243095Y-5125524D01*
X2252619Y-5144571D01*
X2262143Y-5182667D01*
X2262143Y-5230286D01*
X2252619Y-5268381D01*
X2243095Y-5287429D01*
X2233571Y-5296952D01*
X2214524Y-5306476D01*
X2195476Y-5306476D01*
X2176429Y-5296952D01*
X2166905Y-5287429D01*
X2157381Y-5268381D01*
X2147857Y-5230286D01*
X2147857Y-5182667D01*
X2157381Y-5144571D01*
X2166905Y-5125524D01*
X2176429Y-5116000D01*
X2195476Y-5106476D01*
X2347857Y-5287429D02*
X2357381Y-5296952D01*
X2347857Y-5306476D01*
X2338333Y-5296952D01*
X2347857Y-5287429D01*
X2347857Y-5306476D01*
X2481190Y-5106476D02*
X2500238Y-5106476D01*
X2519286Y-5116000D01*
X2528810Y-5125524D01*
X2538333Y-5144571D01*
X2547857Y-5182667D01*
X2547857Y-5230286D01*
X2538333Y-5268381D01*
X2528810Y-5287429D01*
X2519286Y-5296952D01*
X2500238Y-5306476D01*
X2481190Y-5306476D01*
X2462143Y-5296952D01*
X2452619Y-5287429D01*
X2443095Y-5268381D01*
X2433571Y-5230286D01*
X2433571Y-5182667D01*
X2443095Y-5144571D01*
X2452619Y-5125524D01*
X2462143Y-5116000D01*
X2481190Y-5106476D01*
X2738333Y-5306476D02*
X2624048Y-5306476D01*
X2681190Y-5306476D02*
X2681190Y-5106476D01*
X2662143Y-5135048D01*
X2643095Y-5154095D01*
X2624048Y-5163619D01*
X2919286Y-5106476D02*
X2824048Y-5106476D01*
X2814524Y-5201714D01*
X2824048Y-5192190D01*
X2843095Y-5182667D01*
X2890714Y-5182667D01*
X2909762Y-5192190D01*
X2919286Y-5201714D01*
X2928809Y-5220762D01*
X2928809Y-5268381D01*
X2919286Y-5287429D01*
X2909762Y-5296952D01*
X2890714Y-5306476D01*
X2843095Y-5306476D01*
X2824048Y-5296952D01*
X2814524Y-5287429D01*
X2995476Y-5106476D02*
X3128809Y-5106476D01*
X3043095Y-5306476D01*
X3195476Y-5106476D02*
X3195476Y-5144571D01*
X3271667Y-5106476D02*
X3271667Y-5144571D01*
X3566905Y-5382667D02*
X3557381Y-5373143D01*
X3538333Y-5344571D01*
X3528809Y-5325524D01*
X3519286Y-5296952D01*
X3509762Y-5249333D01*
X3509762Y-5211238D01*
X3519286Y-5163619D01*
X3528809Y-5135048D01*
X3538333Y-5116000D01*
X3557381Y-5087429D01*
X3566905Y-5077905D01*
X3671667Y-5192190D02*
X3652619Y-5182667D01*
X3643095Y-5173143D01*
X3633571Y-5154095D01*
X3633571Y-5144571D01*
X3643095Y-5125524D01*
X3652619Y-5116000D01*
X3671667Y-5106476D01*
X3709762Y-5106476D01*
X3728809Y-5116000D01*
X3738333Y-5125524D01*
X3747857Y-5144571D01*
X3747857Y-5154095D01*
X3738333Y-5173143D01*
X3728809Y-5182667D01*
X3709762Y-5192190D01*
X3671667Y-5192190D01*
X3652619Y-5201714D01*
X3643095Y-5211238D01*
X3633571Y-5230286D01*
X3633571Y-5268381D01*
X3643095Y-5287429D01*
X3652619Y-5296952D01*
X3671667Y-5306476D01*
X3709762Y-5306476D01*
X3728809Y-5296952D01*
X3738333Y-5287429D01*
X3747857Y-5268381D01*
X3747857Y-5230286D01*
X3738333Y-5211238D01*
X3728809Y-5201714D01*
X3709762Y-5192190D01*
X3985952Y-5306476D02*
X3985952Y-5106476D01*
X4071667Y-5306476D02*
X4071667Y-5201714D01*
X4062143Y-5182667D01*
X4043095Y-5173143D01*
X4014524Y-5173143D01*
X3995476Y-5182667D01*
X3985952Y-5192190D01*
X4195476Y-5306476D02*
X4176428Y-5296952D01*
X4166905Y-5287429D01*
X4157381Y-5268381D01*
X4157381Y-5211238D01*
X4166905Y-5192190D01*
X4176428Y-5182667D01*
X4195476Y-5173143D01*
X4224048Y-5173143D01*
X4243095Y-5182667D01*
X4252619Y-5192190D01*
X4262143Y-5211238D01*
X4262143Y-5268381D01*
X4252619Y-5287429D01*
X4243095Y-5296952D01*
X4224048Y-5306476D01*
X4195476Y-5306476D01*
X4376429Y-5306476D02*
X4357381Y-5296952D01*
X4347857Y-5277905D01*
X4347857Y-5106476D01*
X4528810Y-5296952D02*
X4509762Y-5306476D01*
X4471667Y-5306476D01*
X4452619Y-5296952D01*
X4443095Y-5277905D01*
X4443095Y-5201714D01*
X4452619Y-5182667D01*
X4471667Y-5173143D01*
X4509762Y-5173143D01*
X4528810Y-5182667D01*
X4538333Y-5201714D01*
X4538333Y-5220762D01*
X4443095Y-5239810D01*
X4614524Y-5296952D02*
X4633571Y-5306476D01*
X4671667Y-5306476D01*
X4690714Y-5296952D01*
X4700238Y-5277905D01*
X4700238Y-5268381D01*
X4690714Y-5249333D01*
X4671667Y-5239810D01*
X4643095Y-5239810D01*
X4624048Y-5230286D01*
X4614524Y-5211238D01*
X4614524Y-5201714D01*
X4624048Y-5182667D01*
X4643095Y-5173143D01*
X4671667Y-5173143D01*
X4690714Y-5182667D01*
X4766905Y-5382667D02*
X4776429Y-5373143D01*
X4795476Y-5344571D01*
X4805000Y-5325524D01*
X4814524Y-5296952D01*
X4824048Y-5249333D01*
X4824048Y-5211238D01*
X4814524Y-5163619D01*
X4805000Y-5135048D01*
X4795476Y-5116000D01*
X4776429Y-5087429D01*
X4766905Y-5077905D01*
D13*
X-5000Y-5480000D02*
G75*
G03*
X-5000Y-5480000I-40000J0D01*
G01*
D11*
X290714Y-5370476D02*
X309762Y-5370476D01*
X328810Y-5380000D01*
X338333Y-5389524D01*
X347857Y-5408571D01*
X357381Y-5446667D01*
X357381Y-5494286D01*
X347857Y-5532381D01*
X338333Y-5551429D01*
X328810Y-5560952D01*
X309762Y-5570476D01*
X290714Y-5570476D01*
X271667Y-5560952D01*
X262143Y-5551429D01*
X252619Y-5532381D01*
X243095Y-5494286D01*
X243095Y-5446667D01*
X252619Y-5408571D01*
X262143Y-5389524D01*
X271667Y-5380000D01*
X290714Y-5370476D01*
X443095Y-5551429D02*
X452619Y-5560952D01*
X443095Y-5570476D01*
X433571Y-5560952D01*
X443095Y-5551429D01*
X443095Y-5570476D01*
X566905Y-5456190D02*
X547857Y-5446667D01*
X538333Y-5437143D01*
X528810Y-5418095D01*
X528810Y-5408571D01*
X538333Y-5389524D01*
X547857Y-5380000D01*
X566905Y-5370476D01*
X605000Y-5370476D01*
X624048Y-5380000D01*
X633571Y-5389524D01*
X643095Y-5408571D01*
X643095Y-5418095D01*
X633571Y-5437143D01*
X624048Y-5446667D01*
X605000Y-5456190D01*
X566905Y-5456190D01*
X547857Y-5465714D01*
X538333Y-5475238D01*
X528810Y-5494286D01*
X528810Y-5532381D01*
X538333Y-5551429D01*
X547857Y-5560952D01*
X566905Y-5570476D01*
X605000Y-5570476D01*
X624048Y-5560952D01*
X633571Y-5551429D01*
X643095Y-5532381D01*
X643095Y-5494286D01*
X633571Y-5475238D01*
X624048Y-5465714D01*
X605000Y-5456190D01*
X766905Y-5370476D02*
X785952Y-5370476D01*
X805000Y-5380000D01*
X814524Y-5389524D01*
X824048Y-5408571D01*
X833571Y-5446667D01*
X833571Y-5494286D01*
X824048Y-5532381D01*
X814524Y-5551429D01*
X805000Y-5560952D01*
X785952Y-5570476D01*
X766905Y-5570476D01*
X747857Y-5560952D01*
X738333Y-5551429D01*
X728809Y-5532381D01*
X719286Y-5494286D01*
X719286Y-5446667D01*
X728809Y-5408571D01*
X738333Y-5389524D01*
X747857Y-5380000D01*
X766905Y-5370476D01*
X957381Y-5370476D02*
X976428Y-5370476D01*
X995476Y-5380000D01*
X1005000Y-5389524D01*
X1014524Y-5408571D01*
X1024048Y-5446667D01*
X1024048Y-5494286D01*
X1014524Y-5532381D01*
X1005000Y-5551429D01*
X995476Y-5560952D01*
X976428Y-5570476D01*
X957381Y-5570476D01*
X938333Y-5560952D01*
X928809Y-5551429D01*
X919286Y-5532381D01*
X909762Y-5494286D01*
X909762Y-5446667D01*
X919286Y-5408571D01*
X928809Y-5389524D01*
X938333Y-5380000D01*
X957381Y-5370476D01*
X1109762Y-5570476D02*
X1109762Y-5437143D01*
X1109762Y-5456190D02*
X1119286Y-5446667D01*
X1138333Y-5437143D01*
X1166905Y-5437143D01*
X1185952Y-5446667D01*
X1195476Y-5465714D01*
X1195476Y-5570476D01*
X1195476Y-5465714D02*
X1205000Y-5446667D01*
X1224048Y-5437143D01*
X1252619Y-5437143D01*
X1271667Y-5446667D01*
X1281190Y-5465714D01*
X1281190Y-5570476D01*
X1376429Y-5570476D02*
X1376429Y-5437143D01*
X1376429Y-5456190D02*
X1385952Y-5446667D01*
X1405000Y-5437143D01*
X1433571Y-5437143D01*
X1452619Y-5446667D01*
X1462143Y-5465714D01*
X1462143Y-5570476D01*
X1462143Y-5465714D02*
X1471667Y-5446667D01*
X1490714Y-5437143D01*
X1519286Y-5437143D01*
X1538333Y-5446667D01*
X1547857Y-5465714D01*
X1547857Y-5570476D01*
X1938333Y-5360952D02*
X1766905Y-5618095D01*
X2195476Y-5370476D02*
X2214524Y-5370476D01*
X2233571Y-5380000D01*
X2243095Y-5389524D01*
X2252619Y-5408571D01*
X2262143Y-5446667D01*
X2262143Y-5494286D01*
X2252619Y-5532381D01*
X2243095Y-5551429D01*
X2233571Y-5560952D01*
X2214524Y-5570476D01*
X2195476Y-5570476D01*
X2176429Y-5560952D01*
X2166905Y-5551429D01*
X2157381Y-5532381D01*
X2147857Y-5494286D01*
X2147857Y-5446667D01*
X2157381Y-5408571D01*
X2166905Y-5389524D01*
X2176429Y-5380000D01*
X2195476Y-5370476D01*
X2347857Y-5551429D02*
X2357381Y-5560952D01*
X2347857Y-5570476D01*
X2338333Y-5560952D01*
X2347857Y-5551429D01*
X2347857Y-5570476D01*
X2481190Y-5370476D02*
X2500238Y-5370476D01*
X2519286Y-5380000D01*
X2528810Y-5389524D01*
X2538333Y-5408571D01*
X2547857Y-5446667D01*
X2547857Y-5494286D01*
X2538333Y-5532381D01*
X2528810Y-5551429D01*
X2519286Y-5560952D01*
X2500238Y-5570476D01*
X2481190Y-5570476D01*
X2462143Y-5560952D01*
X2452619Y-5551429D01*
X2443095Y-5532381D01*
X2433571Y-5494286D01*
X2433571Y-5446667D01*
X2443095Y-5408571D01*
X2452619Y-5389524D01*
X2462143Y-5380000D01*
X2481190Y-5370476D01*
X2614524Y-5370476D02*
X2738333Y-5370476D01*
X2671667Y-5446667D01*
X2700238Y-5446667D01*
X2719286Y-5456190D01*
X2728810Y-5465714D01*
X2738333Y-5484762D01*
X2738333Y-5532381D01*
X2728810Y-5551429D01*
X2719286Y-5560952D01*
X2700238Y-5570476D01*
X2643095Y-5570476D01*
X2624048Y-5560952D01*
X2614524Y-5551429D01*
X2928809Y-5570476D02*
X2814524Y-5570476D01*
X2871667Y-5570476D02*
X2871667Y-5370476D01*
X2852619Y-5399048D01*
X2833571Y-5418095D01*
X2814524Y-5427619D01*
X3109762Y-5370476D02*
X3014524Y-5370476D01*
X3005000Y-5465714D01*
X3014524Y-5456190D01*
X3033571Y-5446667D01*
X3081190Y-5446667D01*
X3100238Y-5456190D01*
X3109762Y-5465714D01*
X3119286Y-5484762D01*
X3119286Y-5532381D01*
X3109762Y-5551429D01*
X3100238Y-5560952D01*
X3081190Y-5570476D01*
X3033571Y-5570476D01*
X3014524Y-5560952D01*
X3005000Y-5551429D01*
X3195476Y-5370476D02*
X3195476Y-5408571D01*
X3271667Y-5370476D02*
X3271667Y-5408571D01*
X3566905Y-5646667D02*
X3557381Y-5637143D01*
X3538333Y-5608571D01*
X3528809Y-5589524D01*
X3519286Y-5560952D01*
X3509762Y-5513333D01*
X3509762Y-5475238D01*
X3519286Y-5427619D01*
X3528809Y-5399048D01*
X3538333Y-5380000D01*
X3557381Y-5351429D01*
X3566905Y-5341905D01*
X3747857Y-5570476D02*
X3633571Y-5570476D01*
X3690714Y-5570476D02*
X3690714Y-5370476D01*
X3671667Y-5399048D01*
X3652619Y-5418095D01*
X3633571Y-5427619D01*
X3814524Y-5370476D02*
X3938333Y-5370476D01*
X3871667Y-5446667D01*
X3900238Y-5446667D01*
X3919286Y-5456190D01*
X3928809Y-5465714D01*
X3938333Y-5484762D01*
X3938333Y-5532381D01*
X3928809Y-5551429D01*
X3919286Y-5560952D01*
X3900238Y-5570476D01*
X3843095Y-5570476D01*
X3824048Y-5560952D01*
X3814524Y-5551429D01*
X4176428Y-5570476D02*
X4176428Y-5370476D01*
X4262143Y-5570476D02*
X4262143Y-5465714D01*
X4252619Y-5446667D01*
X4233571Y-5437143D01*
X4205000Y-5437143D01*
X4185952Y-5446667D01*
X4176428Y-5456190D01*
X4385952Y-5570476D02*
X4366905Y-5560952D01*
X4357381Y-5551429D01*
X4347857Y-5532381D01*
X4347857Y-5475238D01*
X4357381Y-5456190D01*
X4366905Y-5446667D01*
X4385952Y-5437143D01*
X4414524Y-5437143D01*
X4433571Y-5446667D01*
X4443095Y-5456190D01*
X4452619Y-5475238D01*
X4452619Y-5532381D01*
X4443095Y-5551429D01*
X4433571Y-5560952D01*
X4414524Y-5570476D01*
X4385952Y-5570476D01*
X4566905Y-5570476D02*
X4547857Y-5560952D01*
X4538333Y-5541905D01*
X4538333Y-5370476D01*
X4719286Y-5560952D02*
X4700238Y-5570476D01*
X4662143Y-5570476D01*
X4643095Y-5560952D01*
X4633571Y-5541905D01*
X4633571Y-5465714D01*
X4643095Y-5446667D01*
X4662143Y-5437143D01*
X4700238Y-5437143D01*
X4719286Y-5446667D01*
X4728810Y-5465714D01*
X4728810Y-5484762D01*
X4633571Y-5503810D01*
X4805000Y-5560952D02*
X4824048Y-5570476D01*
X4862143Y-5570476D01*
X4881190Y-5560952D01*
X4890714Y-5541905D01*
X4890714Y-5532381D01*
X4881190Y-5513333D01*
X4862143Y-5503810D01*
X4833571Y-5503810D01*
X4814524Y-5494286D01*
X4805000Y-5475238D01*
X4805000Y-5465714D01*
X4814524Y-5446667D01*
X4833571Y-5437143D01*
X4862143Y-5437143D01*
X4881190Y-5446667D01*
X4957381Y-5646667D02*
X4966905Y-5637143D01*
X4985952Y-5608571D01*
X4995476Y-5589524D01*
X5005000Y-5560952D01*
X5014524Y-5513333D01*
X5014524Y-5475238D01*
X5005000Y-5427619D01*
X4995476Y-5399048D01*
X4985952Y-5380000D01*
X4966905Y-5351429D01*
X4957381Y-5341905D01*
D14*
X-60000Y-5689000D02*
X-60000Y-5799000D01*
X-115000Y-5744000D02*
X-5000Y-5744000D01*
D11*
X357381Y-5834476D02*
X243095Y-5834476D01*
X300238Y-5834476D02*
X300238Y-5634476D01*
X281190Y-5663048D01*
X262143Y-5682095D01*
X243095Y-5691619D01*
X443095Y-5815428D02*
X452619Y-5824952D01*
X443095Y-5834476D01*
X433571Y-5824952D01*
X443095Y-5815428D01*
X443095Y-5834476D01*
X643095Y-5834476D02*
X528810Y-5834476D01*
X585952Y-5834476D02*
X585952Y-5634476D01*
X566905Y-5663048D01*
X547857Y-5682095D01*
X528810Y-5691619D01*
X766905Y-5634476D02*
X785952Y-5634476D01*
X805000Y-5644000D01*
X814524Y-5653524D01*
X824048Y-5672571D01*
X833571Y-5710667D01*
X833571Y-5758286D01*
X824048Y-5796381D01*
X814524Y-5815428D01*
X805000Y-5824952D01*
X785952Y-5834476D01*
X766905Y-5834476D01*
X747857Y-5824952D01*
X738333Y-5815428D01*
X728809Y-5796381D01*
X719286Y-5758286D01*
X719286Y-5710667D01*
X728809Y-5672571D01*
X738333Y-5653524D01*
X747857Y-5644000D01*
X766905Y-5634476D01*
X957381Y-5634476D02*
X976428Y-5634476D01*
X995476Y-5644000D01*
X1005000Y-5653524D01*
X1014524Y-5672571D01*
X1024048Y-5710667D01*
X1024048Y-5758286D01*
X1014524Y-5796381D01*
X1005000Y-5815428D01*
X995476Y-5824952D01*
X976428Y-5834476D01*
X957381Y-5834476D01*
X938333Y-5824952D01*
X928809Y-5815428D01*
X919286Y-5796381D01*
X909762Y-5758286D01*
X909762Y-5710667D01*
X919286Y-5672571D01*
X928809Y-5653524D01*
X938333Y-5644000D01*
X957381Y-5634476D01*
X1109762Y-5834476D02*
X1109762Y-5701143D01*
X1109762Y-5720190D02*
X1119286Y-5710667D01*
X1138333Y-5701143D01*
X1166905Y-5701143D01*
X1185952Y-5710667D01*
X1195476Y-5729714D01*
X1195476Y-5834476D01*
X1195476Y-5729714D02*
X1205000Y-5710667D01*
X1224048Y-5701143D01*
X1252619Y-5701143D01*
X1271667Y-5710667D01*
X1281190Y-5729714D01*
X1281190Y-5834476D01*
X1376429Y-5834476D02*
X1376429Y-5701143D01*
X1376429Y-5720190D02*
X1385952Y-5710667D01*
X1405000Y-5701143D01*
X1433571Y-5701143D01*
X1452619Y-5710667D01*
X1462143Y-5729714D01*
X1462143Y-5834476D01*
X1462143Y-5729714D02*
X1471667Y-5710667D01*
X1490714Y-5701143D01*
X1519286Y-5701143D01*
X1538333Y-5710667D01*
X1547857Y-5729714D01*
X1547857Y-5834476D01*
X1938333Y-5624952D02*
X1766905Y-5882095D01*
X2195476Y-5634476D02*
X2214524Y-5634476D01*
X2233571Y-5644000D01*
X2243095Y-5653524D01*
X2252619Y-5672571D01*
X2262143Y-5710667D01*
X2262143Y-5758286D01*
X2252619Y-5796381D01*
X2243095Y-5815428D01*
X2233571Y-5824952D01*
X2214524Y-5834476D01*
X2195476Y-5834476D01*
X2176429Y-5824952D01*
X2166905Y-5815428D01*
X2157381Y-5796381D01*
X2147857Y-5758286D01*
X2147857Y-5710667D01*
X2157381Y-5672571D01*
X2166905Y-5653524D01*
X2176429Y-5644000D01*
X2195476Y-5634476D01*
X2347857Y-5815428D02*
X2357381Y-5824952D01*
X2347857Y-5834476D01*
X2338333Y-5824952D01*
X2347857Y-5815428D01*
X2347857Y-5834476D01*
X2481190Y-5634476D02*
X2500238Y-5634476D01*
X2519286Y-5644000D01*
X2528810Y-5653524D01*
X2538333Y-5672571D01*
X2547857Y-5710667D01*
X2547857Y-5758286D01*
X2538333Y-5796381D01*
X2528810Y-5815428D01*
X2519286Y-5824952D01*
X2500238Y-5834476D01*
X2481190Y-5834476D01*
X2462143Y-5824952D01*
X2452619Y-5815428D01*
X2443095Y-5796381D01*
X2433571Y-5758286D01*
X2433571Y-5710667D01*
X2443095Y-5672571D01*
X2452619Y-5653524D01*
X2462143Y-5644000D01*
X2481190Y-5634476D01*
X2719286Y-5701143D02*
X2719286Y-5834476D01*
X2671667Y-5624952D02*
X2624048Y-5767809D01*
X2747857Y-5767809D01*
X2805000Y-5634476D02*
X2928809Y-5634476D01*
X2862143Y-5710667D01*
X2890714Y-5710667D01*
X2909762Y-5720190D01*
X2919286Y-5729714D01*
X2928809Y-5748762D01*
X2928809Y-5796381D01*
X2919286Y-5815428D01*
X2909762Y-5824952D01*
X2890714Y-5834476D01*
X2833571Y-5834476D01*
X2814524Y-5824952D01*
X2805000Y-5815428D01*
X2995476Y-5634476D02*
X3119286Y-5634476D01*
X3052619Y-5710667D01*
X3081190Y-5710667D01*
X3100238Y-5720190D01*
X3109762Y-5729714D01*
X3119286Y-5748762D01*
X3119286Y-5796381D01*
X3109762Y-5815428D01*
X3100238Y-5824952D01*
X3081190Y-5834476D01*
X3024048Y-5834476D01*
X3005000Y-5824952D01*
X2995476Y-5815428D01*
X3195476Y-5634476D02*
X3195476Y-5672571D01*
X3271667Y-5634476D02*
X3271667Y-5672571D01*
X3566905Y-5910667D02*
X3557381Y-5901143D01*
X3538333Y-5872571D01*
X3528809Y-5853524D01*
X3519286Y-5824952D01*
X3509762Y-5777333D01*
X3509762Y-5739238D01*
X3519286Y-5691619D01*
X3528809Y-5663048D01*
X3538333Y-5644000D01*
X3557381Y-5615428D01*
X3566905Y-5605905D01*
X3738333Y-5634476D02*
X3643095Y-5634476D01*
X3633571Y-5729714D01*
X3643095Y-5720190D01*
X3662143Y-5710667D01*
X3709762Y-5710667D01*
X3728809Y-5720190D01*
X3738333Y-5729714D01*
X3747857Y-5748762D01*
X3747857Y-5796381D01*
X3738333Y-5815428D01*
X3728809Y-5824952D01*
X3709762Y-5834476D01*
X3662143Y-5834476D01*
X3643095Y-5824952D01*
X3633571Y-5815428D01*
X3985952Y-5834476D02*
X3985952Y-5634476D01*
X4071667Y-5834476D02*
X4071667Y-5729714D01*
X4062143Y-5710667D01*
X4043095Y-5701143D01*
X4014524Y-5701143D01*
X3995476Y-5710667D01*
X3985952Y-5720190D01*
X4195476Y-5834476D02*
X4176428Y-5824952D01*
X4166905Y-5815428D01*
X4157381Y-5796381D01*
X4157381Y-5739238D01*
X4166905Y-5720190D01*
X4176428Y-5710667D01*
X4195476Y-5701143D01*
X4224048Y-5701143D01*
X4243095Y-5710667D01*
X4252619Y-5720190D01*
X4262143Y-5739238D01*
X4262143Y-5796381D01*
X4252619Y-5815428D01*
X4243095Y-5824952D01*
X4224048Y-5834476D01*
X4195476Y-5834476D01*
X4376429Y-5834476D02*
X4357381Y-5824952D01*
X4347857Y-5805905D01*
X4347857Y-5634476D01*
X4528810Y-5824952D02*
X4509762Y-5834476D01*
X4471667Y-5834476D01*
X4452619Y-5824952D01*
X4443095Y-5805905D01*
X4443095Y-5729714D01*
X4452619Y-5710667D01*
X4471667Y-5701143D01*
X4509762Y-5701143D01*
X4528810Y-5710667D01*
X4538333Y-5729714D01*
X4538333Y-5748762D01*
X4443095Y-5767809D01*
X4614524Y-5824952D02*
X4633571Y-5834476D01*
X4671667Y-5834476D01*
X4690714Y-5824952D01*
X4700238Y-5805905D01*
X4700238Y-5796381D01*
X4690714Y-5777333D01*
X4671667Y-5767809D01*
X4643095Y-5767809D01*
X4624048Y-5758286D01*
X4614524Y-5739238D01*
X4614524Y-5729714D01*
X4624048Y-5710667D01*
X4643095Y-5701143D01*
X4671667Y-5701143D01*
X4690714Y-5710667D01*
X4766905Y-5910667D02*
X4776429Y-5901143D01*
X4795476Y-5872571D01*
X4805000Y-5853524D01*
X4814524Y-5824952D01*
X4824048Y-5777333D01*
X4824048Y-5739238D01*
X4814524Y-5691619D01*
X4805000Y-5663048D01*
X4795476Y-5644000D01*
X4776429Y-5615428D01*
X4766905Y-5605905D01*
X-34289Y-6078711D02*
X-34289Y-5937289D01*
X-175711Y-5937289D01*
X-175711Y-6078711D01*
X-34289Y-6078711D01*
X233571Y-5898476D02*
X357381Y-5898476D01*
X290714Y-5974667D01*
X319286Y-5974667D01*
X338333Y-5984190D01*
X347857Y-5993714D01*
X357381Y-6012762D01*
X357381Y-6060381D01*
X347857Y-6079428D01*
X338333Y-6088952D01*
X319286Y-6098476D01*
X262143Y-6098476D01*
X243095Y-6088952D01*
X233571Y-6079428D01*
X443095Y-6079428D02*
X452619Y-6088952D01*
X443095Y-6098476D01*
X433571Y-6088952D01*
X443095Y-6079428D01*
X443095Y-6098476D01*
X528810Y-5917524D02*
X538333Y-5908000D01*
X557381Y-5898476D01*
X605000Y-5898476D01*
X624048Y-5908000D01*
X633571Y-5917524D01*
X643095Y-5936571D01*
X643095Y-5955619D01*
X633571Y-5984190D01*
X519286Y-6098476D01*
X643095Y-6098476D01*
X766905Y-5898476D02*
X785952Y-5898476D01*
X805000Y-5908000D01*
X814524Y-5917524D01*
X824048Y-5936571D01*
X833571Y-5974667D01*
X833571Y-6022286D01*
X824048Y-6060381D01*
X814524Y-6079428D01*
X805000Y-6088952D01*
X785952Y-6098476D01*
X766905Y-6098476D01*
X747857Y-6088952D01*
X738333Y-6079428D01*
X728809Y-6060381D01*
X719286Y-6022286D01*
X719286Y-5974667D01*
X728809Y-5936571D01*
X738333Y-5917524D01*
X747857Y-5908000D01*
X766905Y-5898476D01*
X957381Y-5898476D02*
X976428Y-5898476D01*
X995476Y-5908000D01*
X1005000Y-5917524D01*
X1014524Y-5936571D01*
X1024048Y-5974667D01*
X1024048Y-6022286D01*
X1014524Y-6060381D01*
X1005000Y-6079428D01*
X995476Y-6088952D01*
X976428Y-6098476D01*
X957381Y-6098476D01*
X938333Y-6088952D01*
X928809Y-6079428D01*
X919286Y-6060381D01*
X909762Y-6022286D01*
X909762Y-5974667D01*
X919286Y-5936571D01*
X928809Y-5917524D01*
X938333Y-5908000D01*
X957381Y-5898476D01*
X1109762Y-6098476D02*
X1109762Y-5965143D01*
X1109762Y-5984190D02*
X1119286Y-5974667D01*
X1138333Y-5965143D01*
X1166905Y-5965143D01*
X1185952Y-5974667D01*
X1195476Y-5993714D01*
X1195476Y-6098476D01*
X1195476Y-5993714D02*
X1205000Y-5974667D01*
X1224048Y-5965143D01*
X1252619Y-5965143D01*
X1271667Y-5974667D01*
X1281190Y-5993714D01*
X1281190Y-6098476D01*
X1376429Y-6098476D02*
X1376429Y-5965143D01*
X1376429Y-5984190D02*
X1385952Y-5974667D01*
X1405000Y-5965143D01*
X1433571Y-5965143D01*
X1452619Y-5974667D01*
X1462143Y-5993714D01*
X1462143Y-6098476D01*
X1462143Y-5993714D02*
X1471667Y-5974667D01*
X1490714Y-5965143D01*
X1519286Y-5965143D01*
X1538333Y-5974667D01*
X1547857Y-5993714D01*
X1547857Y-6098476D01*
X1938333Y-5888952D02*
X1766905Y-6146095D01*
X2195476Y-5898476D02*
X2214524Y-5898476D01*
X2233571Y-5908000D01*
X2243095Y-5917524D01*
X2252619Y-5936571D01*
X2262143Y-5974667D01*
X2262143Y-6022286D01*
X2252619Y-6060381D01*
X2243095Y-6079428D01*
X2233571Y-6088952D01*
X2214524Y-6098476D01*
X2195476Y-6098476D01*
X2176429Y-6088952D01*
X2166905Y-6079428D01*
X2157381Y-6060381D01*
X2147857Y-6022286D01*
X2147857Y-5974667D01*
X2157381Y-5936571D01*
X2166905Y-5917524D01*
X2176429Y-5908000D01*
X2195476Y-5898476D01*
X2347857Y-6079428D02*
X2357381Y-6088952D01*
X2347857Y-6098476D01*
X2338333Y-6088952D01*
X2347857Y-6079428D01*
X2347857Y-6098476D01*
X2547857Y-6098476D02*
X2433571Y-6098476D01*
X2490714Y-6098476D02*
X2490714Y-5898476D01*
X2471667Y-5927048D01*
X2452619Y-5946095D01*
X2433571Y-5955619D01*
X2624048Y-5917524D02*
X2633571Y-5908000D01*
X2652619Y-5898476D01*
X2700238Y-5898476D01*
X2719286Y-5908000D01*
X2728810Y-5917524D01*
X2738333Y-5936571D01*
X2738333Y-5955619D01*
X2728810Y-5984190D01*
X2614524Y-6098476D01*
X2738333Y-6098476D01*
X2909762Y-5898476D02*
X2871667Y-5898476D01*
X2852619Y-5908000D01*
X2843095Y-5917524D01*
X2824048Y-5946095D01*
X2814524Y-5984190D01*
X2814524Y-6060381D01*
X2824048Y-6079428D01*
X2833571Y-6088952D01*
X2852619Y-6098476D01*
X2890714Y-6098476D01*
X2909762Y-6088952D01*
X2919286Y-6079428D01*
X2928809Y-6060381D01*
X2928809Y-6012762D01*
X2919286Y-5993714D01*
X2909762Y-5984190D01*
X2890714Y-5974667D01*
X2852619Y-5974667D01*
X2833571Y-5984190D01*
X2824048Y-5993714D01*
X2814524Y-6012762D01*
X3052619Y-5898476D02*
X3071667Y-5898476D01*
X3090714Y-5908000D01*
X3100238Y-5917524D01*
X3109762Y-5936571D01*
X3119286Y-5974667D01*
X3119286Y-6022286D01*
X3109762Y-6060381D01*
X3100238Y-6079428D01*
X3090714Y-6088952D01*
X3071667Y-6098476D01*
X3052619Y-6098476D01*
X3033571Y-6088952D01*
X3024048Y-6079428D01*
X3014524Y-6060381D01*
X3005000Y-6022286D01*
X3005000Y-5974667D01*
X3014524Y-5936571D01*
X3024048Y-5917524D01*
X3033571Y-5908000D01*
X3052619Y-5898476D01*
X3195476Y-5898476D02*
X3195476Y-5936571D01*
X3271667Y-5898476D02*
X3271667Y-5936571D01*
X3566905Y-6174667D02*
X3557381Y-6165143D01*
X3538333Y-6136571D01*
X3528809Y-6117524D01*
X3519286Y-6088952D01*
X3509762Y-6041333D01*
X3509762Y-6003238D01*
X3519286Y-5955619D01*
X3528809Y-5927048D01*
X3538333Y-5908000D01*
X3557381Y-5879428D01*
X3566905Y-5869905D01*
X3633571Y-5917524D02*
X3643095Y-5908000D01*
X3662143Y-5898476D01*
X3709762Y-5898476D01*
X3728809Y-5908000D01*
X3738333Y-5917524D01*
X3747857Y-5936571D01*
X3747857Y-5955619D01*
X3738333Y-5984190D01*
X3624048Y-6098476D01*
X3747857Y-6098476D01*
X3985952Y-6098476D02*
X3985952Y-5898476D01*
X4071667Y-6098476D02*
X4071667Y-5993714D01*
X4062143Y-5974667D01*
X4043095Y-5965143D01*
X4014524Y-5965143D01*
X3995476Y-5974667D01*
X3985952Y-5984190D01*
X4195476Y-6098476D02*
X4176428Y-6088952D01*
X4166905Y-6079428D01*
X4157381Y-6060381D01*
X4157381Y-6003238D01*
X4166905Y-5984190D01*
X4176428Y-5974667D01*
X4195476Y-5965143D01*
X4224048Y-5965143D01*
X4243095Y-5974667D01*
X4252619Y-5984190D01*
X4262143Y-6003238D01*
X4262143Y-6060381D01*
X4252619Y-6079428D01*
X4243095Y-6088952D01*
X4224048Y-6098476D01*
X4195476Y-6098476D01*
X4376429Y-6098476D02*
X4357381Y-6088952D01*
X4347857Y-6069905D01*
X4347857Y-5898476D01*
X4528810Y-6088952D02*
X4509762Y-6098476D01*
X4471667Y-6098476D01*
X4452619Y-6088952D01*
X4443095Y-6069905D01*
X4443095Y-5993714D01*
X4452619Y-5974667D01*
X4471667Y-5965143D01*
X4509762Y-5965143D01*
X4528810Y-5974667D01*
X4538333Y-5993714D01*
X4538333Y-6012762D01*
X4443095Y-6031809D01*
X4614524Y-6088952D02*
X4633571Y-6098476D01*
X4671667Y-6098476D01*
X4690714Y-6088952D01*
X4700238Y-6069905D01*
X4700238Y-6060381D01*
X4690714Y-6041333D01*
X4671667Y-6031809D01*
X4643095Y-6031809D01*
X4624048Y-6022286D01*
X4614524Y-6003238D01*
X4614524Y-5993714D01*
X4624048Y-5974667D01*
X4643095Y-5965143D01*
X4671667Y-5965143D01*
X4690714Y-5974667D01*
X4766905Y-6174667D02*
X4776429Y-6165143D01*
X4795476Y-6136571D01*
X4805000Y-6117524D01*
X4814524Y-6088952D01*
X4824048Y-6041333D01*
X4824048Y-6003238D01*
X4814524Y-5955619D01*
X4805000Y-5927048D01*
X4795476Y-5908000D01*
X4776429Y-5879428D01*
X4766905Y-5869905D01*
M02*
