%TF.GenerationSoftware,KiCad,Pcbnew,(6.0.0)*%
%TF.CreationDate,2022-03-13T17:58:50-04:00*%
%TF.ProjectId,jaguar controller top pcb,6a616775-6172-4206-936f-6e74726f6c6c,rev?*%
%TF.SameCoordinates,Original*%
%TF.FileFunction,Copper,L1,Top*%
%TF.FilePolarity,Positive*%
%FSLAX46Y46*%
G04 Gerber Fmt 4.6, Leading zero omitted, Abs format (unit mm)*
G04 Created by KiCad (PCBNEW (6.0.0)) date 2022-03-13 17:58:50*
%MOMM*%
%LPD*%
G01*
G04 APERTURE LIST*
G04 Aperture macros list*
%AMRoundRect*
0 Rectangle with rounded corners*
0 $1 Rounding radius*
0 $2 $3 $4 $5 $6 $7 $8 $9 X,Y pos of 4 corners*
0 Add a 4 corners polygon primitive as box body*
4,1,4,$2,$3,$4,$5,$6,$7,$8,$9,$2,$3,0*
0 Add four circle primitives for the rounded corners*
1,1,$1+$1,$2,$3*
1,1,$1+$1,$4,$5*
1,1,$1+$1,$6,$7*
1,1,$1+$1,$8,$9*
0 Add four rect primitives between the rounded corners*
20,1,$1+$1,$2,$3,$4,$5,0*
20,1,$1+$1,$4,$5,$6,$7,0*
20,1,$1+$1,$6,$7,$8,$9,0*
20,1,$1+$1,$8,$9,$2,$3,0*%
%AMRotRect*
0 Rectangle, with rotation*
0 The origin of the aperture is its center*
0 $1 length*
0 $2 width*
0 $3 Rotation angle, in degrees counterclockwise*
0 Add horizontal line*
21,1,$1,$2,0,0,$3*%
G04 Aperture macros list end*
%TA.AperFunction,SMDPad,CuDef*%
%ADD10O,7.082827X0.900000*%
%TD*%
%TA.AperFunction,SMDPad,CuDef*%
%ADD11RotRect,0.900000X0.900000X209.345165*%
%TD*%
%TA.AperFunction,SMDPad,CuDef*%
%ADD12RotRect,0.900000X0.900000X190.121977*%
%TD*%
%TA.AperFunction,SMDPad,CuDef*%
%ADD13O,8.123471X0.900000*%
%TD*%
%TA.AperFunction,SMDPad,CuDef*%
%ADD14RoundRect,0.225000X0.313578X-0.054024X0.054024X0.313578X-0.313578X0.054024X-0.054024X-0.313578X0*%
%TD*%
%TA.AperFunction,SMDPad,CuDef*%
%ADD15RotRect,0.900000X0.900000X228.568352*%
%TD*%
%TA.AperFunction,SMDPad,CuDef*%
%ADD16RotRect,0.900000X0.900000X142.064007*%
%TD*%
%TA.AperFunction,SMDPad,CuDef*%
%ADD17O,9.063382X0.900000*%
%TD*%
%TA.AperFunction,SMDPad,CuDef*%
%ADD18RotRect,0.900000X0.900000X151.675601*%
%TD*%
%TA.AperFunction,SMDPad,CuDef*%
%ADD19O,3.810000X0.900000*%
%TD*%
%TA.AperFunction,SMDPad,CuDef*%
%ADD20RotRect,0.900000X0.900000X132.452413*%
%TD*%
%TA.AperFunction,SMDPad,CuDef*%
%ADD21RotRect,0.900000X0.900000X218.956759*%
%TD*%
%TA.AperFunction,SMDPad,CuDef*%
%ADD22RotRect,0.900000X0.900000X199.733571*%
%TD*%
%TA.AperFunction,SMDPad,CuDef*%
%ADD23RotRect,0.900000X0.900000X170.898789*%
%TD*%
%TA.AperFunction,SMDPad,CuDef*%
%ADD24RotRect,0.900000X0.900000X161.287195*%
%TD*%
%TA.AperFunction,SMDPad,CuDef*%
%ADD25RotRect,0.900000X0.900000X180.510383*%
%TD*%
%TA.AperFunction,SMDPad,CuDef*%
%ADD26RotRect,0.900000X0.900000X54.774382*%
%TD*%
%TA.AperFunction,SMDPad,CuDef*%
%ADD27RotRect,0.900000X0.900000X357.104818*%
%TD*%
%TA.AperFunction,SMDPad,CuDef*%
%ADD28RotRect,0.900000X0.900000X25.939600*%
%TD*%
%TA.AperFunction,SMDPad,CuDef*%
%ADD29RotRect,0.900000X0.900000X35.551194*%
%TD*%
%TA.AperFunction,SMDPad,CuDef*%
%ADD30RotRect,0.900000X0.900000X328.270036*%
%TD*%
%TA.AperFunction,SMDPad,CuDef*%
%ADD31O,4.997485X0.888414*%
%TD*%
%TA.AperFunction,SMDPad,CuDef*%
%ADD32RotRect,0.900000X0.900000X16.328006*%
%TD*%
%TA.AperFunction,SMDPad,CuDef*%
%ADD33RotRect,0.900000X0.900000X347.493224*%
%TD*%
%TA.AperFunction,SMDPad,CuDef*%
%ADD34O,8.438907X0.900000*%
%TD*%
%TA.AperFunction,SMDPad,CuDef*%
%ADD35RoundRect,0.225000X-0.317581X0.019808X-0.019808X-0.317581X0.317581X-0.019808X0.019808X0.317581X0*%
%TD*%
%TA.AperFunction,SMDPad,CuDef*%
%ADD36RotRect,0.900000X0.900000X318.658442*%
%TD*%
%TA.AperFunction,SMDPad,CuDef*%
%ADD37RotRect,0.900000X0.900000X337.881630*%
%TD*%
%TA.AperFunction,SMDPad,CuDef*%
%ADD38RotRect,0.900000X0.900000X45.162788*%
%TD*%
%TA.AperFunction,SMDPad,CuDef*%
%ADD39O,8.938889X0.900000*%
%TD*%
%TA.AperFunction,SMDPad,CuDef*%
%ADD40RotRect,0.900000X0.900000X6.716412*%
%TD*%
%TA.AperFunction,SMDPad,CuDef*%
%ADD41O,6.457911X0.900000*%
%TD*%
%TA.AperFunction,ComponentPad*%
%ADD42C,1.650000*%
%TD*%
%TA.AperFunction,ComponentPad*%
%ADD43C,4.800000*%
%TD*%
%TA.AperFunction,SMDPad,CuDef*%
%ADD44R,3.650000X7.410000*%
%TD*%
%TA.AperFunction,SMDPad,CuDef*%
%ADD45RotRect,3.970000X0.720000X150.000000*%
%TD*%
%TA.AperFunction,SMDPad,CuDef*%
%ADD46RotRect,0.720000X11.720000X150.000000*%
%TD*%
%TA.AperFunction,SMDPad,CuDef*%
%ADD47R,7.410000X3.650000*%
%TD*%
%TA.AperFunction,ComponentPad*%
%ADD48R,1.350000X1.350000*%
%TD*%
%TA.AperFunction,ComponentPad*%
%ADD49O,1.350000X1.350000*%
%TD*%
%TA.AperFunction,ViaPad*%
%ADD50C,0.800000*%
%TD*%
%TA.AperFunction,Conductor*%
%ADD51C,0.700000*%
%TD*%
%TA.AperFunction,Conductor*%
%ADD52C,0.250000*%
%TD*%
G04 APERTURE END LIST*
D10*
%TO.P,SW7,1,1*%
%TO.N,Net-(J1-Pad5)*%
X86321103Y-40115000D03*
D11*
X82675677Y-39938692D03*
D12*
X82121498Y-38393783D03*
D13*
X86454133Y-35715000D03*
D14*
X84125040Y-33515001D03*
D15*
X83707617Y-41215000D03*
D16*
X83083550Y-34508353D03*
D17*
X86591794Y-37915000D03*
D18*
X82633447Y-35198014D03*
D19*
X85542520Y-33515000D03*
D20*
X83642485Y-33903526D03*
D21*
X83137995Y-40620226D03*
D22*
X82333644Y-39189534D03*
D23*
X82106878Y-36752551D03*
D24*
X82304814Y-35953147D03*
D25*
X82045196Y-37573781D03*
D26*
%TO.P,SW7,2,2*%
%TO.N,Net-(J1-Pad6)*%
X89794960Y-33515000D03*
D27*
X91868726Y-37778251D03*
D28*
X91379841Y-35380064D03*
D29*
X90958825Y-34672271D03*
D30*
X91140385Y-40114879D03*
D31*
X88294815Y-41215000D03*
D32*
X91676768Y-36148218D03*
D33*
X91758369Y-38594368D03*
D34*
X87425842Y-39015000D03*
D35*
X90212383Y-41215000D03*
D36*
X90650109Y-40776585D03*
D37*
X91513295Y-39380602D03*
D38*
X90425541Y-34044710D03*
D39*
X87353270Y-36815000D03*
D40*
X91841269Y-36955166D03*
D41*
X87688315Y-34615000D03*
%TD*%
D42*
%TO.P,VR1,1,1*%
%TO.N,unconnected-(VR1-Pad1)*%
X55488200Y-6487400D03*
%TO.P,VR1,2,2*%
%TO.N,unconnected-(VR1-Pad2)*%
X60488200Y-6487400D03*
%TO.P,VR1,3,A*%
%TO.N,/encoderA*%
X55488200Y-20987400D03*
%TO.P,VR1,4,B*%
%TO.N,/encoderB*%
X60488200Y-20987400D03*
%TO.P,VR1,5,C*%
%TO.N,/encoderC*%
X57988200Y-20987400D03*
D43*
%TO.P,VR1,6*%
%TO.N,N/C*%
X52288200Y-13487400D03*
%TO.P,VR1,7*%
X63688200Y-13487400D03*
%TD*%
D44*
%TO.P,SW3,1,1*%
%TO.N,/encoderC*%
X17370000Y-33400000D03*
%TO.P,SW3,2,2*%
%TO.N,Net-(J1-Pad1)*%
X21130000Y-33400000D03*
%TD*%
D45*
%TO.P,SW5,1,1*%
%TO.N,/encoderC*%
X50181725Y-34328834D03*
D46*
X47864433Y-35092500D03*
D45*
X51401725Y-32215732D03*
X48961725Y-36441936D03*
X46521725Y-40668140D03*
X47741725Y-38555038D03*
%TO.P,SW5,2,2*%
%TO.N,Net-(J1-Pad4)*%
X48188275Y-40221589D03*
X50628275Y-35995385D03*
X49408275Y-38108487D03*
D46*
X51735567Y-37327500D03*
D45*
X51848275Y-33882283D03*
X53068275Y-31769181D03*
%TD*%
D25*
%TO.P,SW9,1,1*%
%TO.N,Net-(J1-Pad9)*%
X103725196Y-10113781D03*
D11*
X104355677Y-12478692D03*
D24*
X103984814Y-8493147D03*
D10*
X108001103Y-12655000D03*
D15*
X105387617Y-13755000D03*
D16*
X104763550Y-7048353D03*
D19*
X107222520Y-6055000D03*
D18*
X104313447Y-7738014D03*
D23*
X103786878Y-9292551D03*
D20*
X105322485Y-6443526D03*
D13*
X108134133Y-8255000D03*
D22*
X104013644Y-11729534D03*
D17*
X108271794Y-10455000D03*
D21*
X104817995Y-13160226D03*
D12*
X103801498Y-10933783D03*
D14*
X105805040Y-6055001D03*
D41*
%TO.P,SW9,2,2*%
%TO.N,/encoderC*%
X109368315Y-7155000D03*
D32*
X113356768Y-8688218D03*
D26*
X111474960Y-6055000D03*
D40*
X113521269Y-9495166D03*
D36*
X112330109Y-13316585D03*
D37*
X113193295Y-11920602D03*
D33*
X113438369Y-11134368D03*
D34*
X109105842Y-11555000D03*
D28*
X113059841Y-7920064D03*
D27*
X113548726Y-10318251D03*
D31*
X109974815Y-13755000D03*
D39*
X109033270Y-9355000D03*
D38*
X112105541Y-6584710D03*
D30*
X112820385Y-12654879D03*
D29*
X112638825Y-7212271D03*
D35*
X111892383Y-13755000D03*
%TD*%
D45*
%TO.P,SW6,1,1*%
%TO.N,Net-(J1-Pad11)*%
X58731725Y-40668140D03*
D46*
X60074433Y-35092500D03*
D45*
X63611725Y-32215732D03*
X59951725Y-38555038D03*
X62391725Y-34328834D03*
X61171725Y-36441936D03*
%TO.P,SW6,2,2*%
%TO.N,Net-(J1-Pad10)*%
X62838275Y-35995385D03*
X65278275Y-31769181D03*
X61618275Y-38108487D03*
X60398275Y-40221589D03*
X64058275Y-33882283D03*
D46*
X63945567Y-37327500D03*
%TD*%
D47*
%TO.P,SW1,1,1*%
%TO.N,/encoderC*%
X9280000Y-21550000D03*
%TO.P,SW1,2,2*%
%TO.N,/encoderA*%
X9280000Y-25310000D03*
%TD*%
D44*
%TO.P,SW2,1,1*%
%TO.N,Net-(J1-Pad3)*%
X17370000Y-13460000D03*
%TO.P,SW2,2,2*%
%TO.N,/encoderC*%
X21130000Y-13460000D03*
%TD*%
D47*
%TO.P,SW4,1,1*%
%TO.N,/encoderC*%
X29220000Y-25310000D03*
%TO.P,SW4,2,2*%
%TO.N,/encoderB*%
X29220000Y-21550000D03*
%TD*%
D25*
%TO.P,SW8,1,1*%
%TO.N,Net-(J1-Pad7)*%
X92095196Y-23183781D03*
D10*
X96371103Y-25725000D03*
D15*
X93757617Y-26825000D03*
D24*
X92354814Y-21563147D03*
D12*
X92171498Y-24003783D03*
D20*
X93692485Y-19513526D03*
D16*
X93133550Y-20118353D03*
D13*
X96504133Y-21325000D03*
D21*
X93187995Y-26230226D03*
D18*
X92683447Y-20808014D03*
D11*
X92725677Y-25548692D03*
D19*
X95592520Y-19125000D03*
D14*
X94175040Y-19125001D03*
D22*
X92383644Y-24799534D03*
D23*
X92156878Y-22362551D03*
D17*
X96641794Y-23525000D03*
D36*
%TO.P,SW8,2,2*%
%TO.N,Net-(J1-Pad8)*%
X100700109Y-26386585D03*
D32*
X101726768Y-21758218D03*
D37*
X101563295Y-24990602D03*
D29*
X101008825Y-20282271D03*
D31*
X98344815Y-26825000D03*
D35*
X100262383Y-26825000D03*
D30*
X101190385Y-25724879D03*
D34*
X97475842Y-24625000D03*
D38*
X100475541Y-19654710D03*
D40*
X101891269Y-22565166D03*
D39*
X97403270Y-22425000D03*
D27*
X101918726Y-23388251D03*
D33*
X101808369Y-24204368D03*
D28*
X101429841Y-20990064D03*
D41*
X97738315Y-20225000D03*
D26*
X99844960Y-19125000D03*
%TD*%
D48*
%TO.P,J1,1,Pin_1*%
%TO.N,Net-(J1-Pad1)*%
X43860000Y-9580000D03*
D49*
%TO.P,J1,2,Pin_2*%
%TO.N,/encoderA*%
X45860000Y-9580000D03*
%TO.P,J1,3,Pin_3*%
%TO.N,Net-(J1-Pad3)*%
X47860000Y-9580000D03*
%TO.P,J1,4,Pin_4*%
%TO.N,Net-(J1-Pad4)*%
X49860000Y-9580000D03*
%TO.P,J1,5,Pin_5*%
%TO.N,Net-(J1-Pad5)*%
X51860000Y-9580000D03*
%TO.P,J1,6,Pin_6*%
%TO.N,Net-(J1-Pad6)*%
X53860000Y-9580000D03*
%TO.P,J1,7,Pin_7*%
%TO.N,Net-(J1-Pad7)*%
X55860000Y-9580000D03*
%TO.P,J1,8,Pin_8*%
%TO.N,Net-(J1-Pad8)*%
X57860000Y-9580000D03*
%TO.P,J1,9,Pin_9*%
%TO.N,Net-(J1-Pad9)*%
X59860000Y-9580000D03*
%TO.P,J1,10,Pin_10*%
%TO.N,Net-(J1-Pad10)*%
X61860000Y-9580000D03*
%TO.P,J1,11,Pin_11*%
%TO.N,Net-(J1-Pad11)*%
X63860000Y-9580000D03*
%TO.P,J1,12,Pin_12*%
%TO.N,/encoderB*%
X65860000Y-9580000D03*
%TO.P,J1,13,Pin_13*%
%TO.N,/encoderC*%
X67860000Y-9580000D03*
%TD*%
D50*
%TO.N,/encoderA*%
X61391800Y-29413200D03*
X76758800Y-30353000D03*
%TO.N,Net-(J1-Pad1)*%
X79375000Y-28371800D03*
%TO.N,Net-(J1-Pad5)*%
X85542520Y-29976680D03*
%TO.N,Net-(J1-Pad6)*%
X94005400Y-29997400D03*
%TO.N,Net-(J1-Pad7)*%
X89903300Y-18326100D03*
%TO.N,Net-(J1-Pad8)*%
X90017600Y-12090400D03*
%TO.N,Net-(J1-Pad9)*%
X88280853Y-8493147D03*
%TD*%
D51*
%TO.N,/encoderA*%
X55488200Y-20987400D02*
X61391800Y-26891000D01*
X23952200Y-28854400D02*
X24587200Y-29489400D01*
D52*
X32562800Y-42418000D02*
X34231520Y-44086720D01*
D51*
X74320400Y-41198800D02*
X76758800Y-38760400D01*
X76758800Y-38760400D02*
X76758800Y-30353000D01*
X9280000Y-25561400D02*
X12573000Y-28854400D01*
X42635489Y-10804511D02*
X42635489Y-8570911D01*
X9280000Y-25310000D02*
X9280000Y-25561400D01*
X45060222Y-8331200D02*
X45860000Y-9130978D01*
X24587200Y-29489400D02*
X30149800Y-29489400D01*
X71611006Y-16825320D02*
X48656298Y-16825320D01*
X12573000Y-28854400D02*
X23952200Y-28854400D01*
X30149800Y-29489400D02*
X32562800Y-31902400D01*
X42875200Y-8331200D02*
X45060222Y-8331200D01*
X61391800Y-26891000D02*
X61391800Y-29413200D01*
X45860000Y-9130978D02*
X45860000Y-9580000D01*
D52*
X71432480Y-44086720D02*
X74320400Y-41198800D01*
D51*
X76758800Y-21973114D02*
X71611006Y-16825320D01*
X76758800Y-30353000D02*
X76758800Y-21973114D01*
D52*
X34231520Y-44086720D02*
X71432480Y-44086720D01*
D51*
X48656298Y-16825320D02*
X42635489Y-10804511D01*
X42635489Y-8570911D02*
X42875200Y-8331200D01*
X32562800Y-31902400D02*
X32562800Y-42418000D01*
%TO.N,/encoderB*%
X31546800Y-6807200D02*
X31546800Y-17145000D01*
X29220000Y-19471800D02*
X29220000Y-21550000D01*
X34520400Y-3833600D02*
X31546800Y-6807200D01*
X65301600Y-3833600D02*
X34520400Y-3833600D01*
X65860000Y-9580000D02*
X65860000Y-4392000D01*
X65860000Y-4392000D02*
X65301600Y-3833600D01*
X31546800Y-17145000D02*
X29220000Y-19471800D01*
%TO.N,Net-(J1-Pad3)*%
X14605000Y-22504400D02*
X14605000Y-26517600D01*
X42453920Y-7431680D02*
X41735969Y-8149631D01*
X41735969Y-11177105D02*
X48313464Y-17754600D01*
X48313464Y-17754600D02*
X69342000Y-17754600D01*
X24536400Y-27838400D02*
X25019000Y-28321000D01*
X74053700Y-22466300D02*
X74053700Y-38798500D01*
X32054800Y-28321000D02*
X34925000Y-31191200D01*
X15925800Y-27838400D02*
X24536400Y-27838400D01*
X74053700Y-38798500D02*
X71272400Y-41579800D01*
X47860000Y-9580000D02*
X45711680Y-7431680D01*
D52*
X36169600Y-43637200D02*
X34925000Y-42392600D01*
X71272400Y-41579800D02*
X69215000Y-43637200D01*
D51*
X14605000Y-26517600D02*
X15925800Y-27838400D01*
X17370000Y-19739400D02*
X14605000Y-22504400D01*
X41735969Y-8149631D02*
X41735969Y-11177105D01*
X17370000Y-13460000D02*
X17370000Y-19739400D01*
X34925000Y-31191200D02*
X34925000Y-42392600D01*
X69342000Y-17754600D02*
X74053700Y-22466300D01*
D52*
X69215000Y-43637200D02*
X36169600Y-43637200D01*
D51*
X45711680Y-7431680D02*
X42453920Y-7431680D01*
X25019000Y-28321000D02*
X32054800Y-28321000D01*
%TO.N,Net-(J1-Pad1)*%
X21130000Y-33400000D02*
X21130000Y-34566600D01*
D52*
X74919960Y-44536240D02*
X31099640Y-44536240D01*
D51*
X79375000Y-28371800D02*
X79375000Y-40081200D01*
X21130000Y-34566600D02*
X30226000Y-43662600D01*
X79375000Y-40081200D02*
X77520800Y-41935400D01*
D52*
X77520800Y-41935400D02*
X74919960Y-44536240D01*
X31099640Y-44536240D02*
X30226000Y-43662600D01*
D51*
%TO.N,/encoderC*%
X29220000Y-25310000D02*
X38081933Y-25310000D01*
X95203800Y-6447000D02*
X99060000Y-2590800D01*
X7391400Y-5638800D02*
X1473200Y-11557000D01*
X117678200Y-13652097D02*
X114344354Y-10318251D01*
X21130000Y-13460000D02*
X21130000Y-7388600D01*
X38081933Y-25310000D02*
X47864433Y-35092500D01*
X17370000Y-42040600D02*
X15570200Y-43840400D01*
X112638825Y-4765025D02*
X112638825Y-7212271D01*
X114344354Y-10318251D02*
X113548726Y-10318251D01*
X19380200Y-5638800D02*
X7391400Y-5638800D01*
X67860000Y-9580000D02*
X70993000Y-6447000D01*
X24180800Y-23799800D02*
X24180800Y-16510800D01*
X1818000Y-21550000D02*
X1473200Y-21894800D01*
D52*
X111757640Y-44985760D02*
X117703600Y-39039800D01*
D51*
X110464600Y-2590800D02*
X112638825Y-4765025D01*
D52*
X15570200Y-43840400D02*
X16715560Y-44985760D01*
D51*
X117678200Y-39014400D02*
X117678200Y-13652097D01*
X1473200Y-11557000D02*
X1473200Y-21894800D01*
X29220000Y-25310000D02*
X25691000Y-25310000D01*
X70993000Y-6447000D02*
X95203800Y-6447000D01*
X9280000Y-21550000D02*
X1818000Y-21550000D01*
X99060000Y-2590800D02*
X110464600Y-2590800D01*
X17370000Y-33400000D02*
X17370000Y-42040600D01*
X117703600Y-39039800D02*
X117678200Y-39014400D01*
X1473200Y-21894800D02*
X1473200Y-29743400D01*
X24180800Y-16510800D02*
X21130000Y-13460000D01*
X25691000Y-25310000D02*
X24180800Y-23799800D01*
D52*
X16715560Y-44985760D02*
X111757640Y-44985760D01*
D51*
X1473200Y-29743400D02*
X15570200Y-43840400D01*
X21130000Y-7388600D02*
X19380200Y-5638800D01*
%TO.N,Net-(J1-Pad4)*%
X40836449Y-7777038D02*
X40836449Y-11549699D01*
D52*
X51735567Y-42210567D02*
X52501800Y-42976800D01*
D51*
X46812160Y-6532160D02*
X42081326Y-6532160D01*
D52*
X51735567Y-37327500D02*
X51735567Y-42210567D01*
D51*
X69240400Y-38836600D02*
X66700400Y-41376600D01*
D52*
X52501800Y-42976800D02*
X65100200Y-42976800D01*
D51*
X69240400Y-20736920D02*
X69240400Y-38836600D01*
X40836449Y-11549699D02*
X47940871Y-18654120D01*
D52*
X65100200Y-42976800D02*
X66700400Y-41376600D01*
D51*
X67157600Y-18654120D02*
X69240400Y-20736920D01*
X49860000Y-9580000D02*
X46812160Y-6532160D01*
X42081326Y-6532160D02*
X40836449Y-7777038D01*
X47940871Y-18654120D02*
X67157600Y-18654120D01*
%TO.N,Net-(J1-Pad11)*%
X47195685Y-20453160D02*
X50298160Y-20453160D01*
X39037410Y-7031849D02*
X39037410Y-12294886D01*
X50298160Y-20453160D02*
X60074433Y-30229433D01*
X60074433Y-30229433D02*
X60074433Y-35092500D01*
X39037410Y-12294886D02*
X47195685Y-20453160D01*
X63860000Y-5084400D02*
X63508720Y-4733120D01*
X41336139Y-4733120D02*
X39037410Y-7031849D01*
X63508720Y-4733120D02*
X41336139Y-4733120D01*
X63860000Y-9580000D02*
X63860000Y-5084400D01*
%TO.N,Net-(J1-Pad10)*%
X61860000Y-9580000D02*
X61636947Y-9580000D01*
X54641560Y-7969440D02*
X52304760Y-5632640D01*
X47568278Y-19553640D02*
X63597240Y-19553640D01*
X65278275Y-21234675D02*
X65278275Y-31769181D01*
X60026387Y-7969440D02*
X54641560Y-7969440D01*
X39936930Y-11922293D02*
X47568278Y-19553640D01*
X63597240Y-19553640D02*
X65278275Y-21234675D01*
X61636947Y-9580000D02*
X60026387Y-7969440D01*
X41708732Y-5632641D02*
X39936930Y-7404443D01*
X52304760Y-5632640D02*
X41708732Y-5632641D01*
X39936930Y-7404443D02*
X39936930Y-11922293D01*
%TO.N,Net-(J1-Pad5)*%
X85542520Y-33515000D02*
X85542520Y-29976680D01*
%TO.N,Net-(J1-Pad6)*%
X93766198Y-39380602D02*
X91513295Y-39380602D01*
X94005400Y-30022800D02*
X95326200Y-31343600D01*
X95326200Y-37820600D02*
X93766198Y-39380602D01*
X95326200Y-31343600D02*
X95326200Y-37820600D01*
X94005400Y-29997400D02*
X94005400Y-30022800D01*
%TO.N,Net-(J1-Pad7)*%
X92683447Y-20808014D02*
X92385214Y-20808014D01*
X92385214Y-20808014D02*
X89903300Y-18326100D01*
%TO.N,Net-(J1-Pad8)*%
X101008825Y-16884025D02*
X101008825Y-20282271D01*
X90017600Y-12090400D02*
X96215200Y-12090400D01*
X96215200Y-12090400D02*
X101008825Y-16884025D01*
%TO.N,Net-(J1-Pad9)*%
X88280853Y-8493147D02*
X103984814Y-8493147D01*
%TD*%
M02*
