%FSLAX45Y45*%
G04 Gerber Fmt 4.5, Leading zero omitted, Abs format (unit mm)*
G04 Created by KiCad (PCBNEW (6.0.0)) date 2022-03-13 17:56:58*
%MOMM*%
%LPD*%
G01*
G04 APERTURE LIST*
%TA.AperFunction,Profile*%
%ADD10C,0.100000*%
%TD*%
%ADD11C,0.200000*%
%ADD12C,0.080000*%
G04 APERTURE END LIST*
D10*
X8304000Y0D02*
X3801000Y0D01*
X2037006Y-2115729D02*
X2173548Y-1979186D01*
X1096000Y-1325000D02*
G75*
G03*
X1096000Y-1325000I-112000J0D01*
G01*
X1096000Y-3161000D02*
G75*
G03*
X1096000Y-3161000I-112000J0D01*
G01*
X8840000Y-311000D02*
X8304000Y-311000D01*
X8304000Y-311000D02*
X8304000Y0D01*
X3801000Y-311000D02*
X3801000Y0D01*
X7312000Y-3140000D02*
G75*
G03*
X7312000Y-3140000I-112000J0D01*
G01*
X1560486Y-2592248D02*
X1697029Y-2455706D01*
X2978000Y-3161000D02*
G75*
G03*
X2978000Y-3161000I-112000J0D01*
G01*
X8840000Y0D02*
X10987000Y0D01*
X2289514Y-2095152D02*
X2152971Y-2231694D01*
X3265000Y0D02*
X1118000Y0D01*
X3265000Y0D02*
X3265000Y-311000D01*
X1812994Y-2571671D02*
G75*
G03*
X2152971Y-2231694I111954J228023D01*
G01*
X2037006Y-2115729D02*
G75*
G03*
X1697029Y-2455706I-111954J-228023D01*
G01*
X10987000Y0D02*
X12105000Y-832000D01*
X1118000Y0D02*
X0Y-832000D01*
X2173548Y-1979186D02*
X2289514Y-2095152D01*
X3265000Y-311000D02*
X3801000Y-311000D01*
X1676452Y-2708214D02*
X1560486Y-2592248D01*
X2978000Y-1325000D02*
G75*
G03*
X2978000Y-1325000I-112000J0D01*
G01*
X4219000Y-3937000D02*
G75*
G03*
X4219000Y-3937000I-112000J0D01*
G01*
X8840000Y0D02*
X8840000Y-311000D01*
X1812994Y-2571671D02*
X1676452Y-2708214D01*
X0Y-4571000D02*
X12105000Y-4571000D01*
X0Y-832000D02*
X0Y-4571000D01*
X12105000Y-4571000D02*
X12105000Y-832000D01*
D11*
D12*
X4346000Y-918000D02*
X4426000Y-998000D01*
X4426000Y-918000D02*
X4346000Y-998000D01*
X4546000Y-918000D02*
X4626000Y-998000D01*
X4626000Y-918000D02*
X4546000Y-998000D01*
X4746000Y-918000D02*
X4826000Y-998000D01*
X4826000Y-918000D02*
X4746000Y-998000D01*
X4946000Y-918000D02*
X5026000Y-998000D01*
X5026000Y-918000D02*
X4946000Y-998000D01*
X5146000Y-918000D02*
X5226000Y-998000D01*
X5226000Y-918000D02*
X5146000Y-998000D01*
X5346000Y-918000D02*
X5426000Y-998000D01*
X5426000Y-918000D02*
X5346000Y-998000D01*
X5546000Y-918000D02*
X5626000Y-998000D01*
X5626000Y-918000D02*
X5546000Y-998000D01*
X5746000Y-918000D02*
X5826000Y-998000D01*
X5826000Y-918000D02*
X5746000Y-998000D01*
X5946000Y-918000D02*
X6026000Y-998000D01*
X6026000Y-918000D02*
X5946000Y-998000D01*
X6146000Y-918000D02*
X6226000Y-998000D01*
X6226000Y-918000D02*
X6146000Y-998000D01*
X6346000Y-918000D02*
X6426000Y-998000D01*
X6426000Y-918000D02*
X6346000Y-998000D01*
X6546000Y-918000D02*
X6626000Y-998000D01*
X6626000Y-918000D02*
X6546000Y-998000D01*
X6746000Y-918000D02*
X6826000Y-998000D01*
X6826000Y-918000D02*
X6746000Y-998000D01*
D11*
X252619Y-4886476D02*
X252619Y-4686476D01*
X300238Y-4686476D01*
X328810Y-4696000D01*
X347857Y-4715048D01*
X357381Y-4734095D01*
X366905Y-4772190D01*
X366905Y-4800762D01*
X357381Y-4838857D01*
X347857Y-4857905D01*
X328810Y-4876952D01*
X300238Y-4886476D01*
X252619Y-4886476D01*
X452619Y-4886476D02*
X452619Y-4753143D01*
X452619Y-4791238D02*
X462143Y-4772190D01*
X471667Y-4762667D01*
X490714Y-4753143D01*
X509762Y-4753143D01*
X576429Y-4886476D02*
X576429Y-4753143D01*
X576429Y-4686476D02*
X566905Y-4696000D01*
X576429Y-4705524D01*
X585952Y-4696000D01*
X576429Y-4686476D01*
X576429Y-4705524D01*
X700238Y-4886476D02*
X681190Y-4876952D01*
X671667Y-4857905D01*
X671667Y-4686476D01*
X805000Y-4886476D02*
X785952Y-4876952D01*
X776428Y-4857905D01*
X776428Y-4686476D01*
X1033571Y-4886476D02*
X1033571Y-4686476D01*
X1100238Y-4829333D01*
X1166905Y-4686476D01*
X1166905Y-4886476D01*
X1347857Y-4886476D02*
X1347857Y-4781714D01*
X1338333Y-4762667D01*
X1319286Y-4753143D01*
X1281190Y-4753143D01*
X1262143Y-4762667D01*
X1347857Y-4876952D02*
X1328810Y-4886476D01*
X1281190Y-4886476D01*
X1262143Y-4876952D01*
X1252619Y-4857905D01*
X1252619Y-4838857D01*
X1262143Y-4819810D01*
X1281190Y-4810286D01*
X1328810Y-4810286D01*
X1347857Y-4800762D01*
X1443095Y-4753143D02*
X1443095Y-4953143D01*
X1443095Y-4762667D02*
X1462143Y-4753143D01*
X1500238Y-4753143D01*
X1519286Y-4762667D01*
X1528809Y-4772190D01*
X1538333Y-4791238D01*
X1538333Y-4848381D01*
X1528809Y-4867429D01*
X1519286Y-4876952D01*
X1500238Y-4886476D01*
X1462143Y-4886476D01*
X1443095Y-4876952D01*
X1624048Y-4867429D02*
X1633571Y-4876952D01*
X1624048Y-4886476D01*
X1614524Y-4876952D01*
X1624048Y-4867429D01*
X1624048Y-4886476D01*
X1624048Y-4762667D02*
X1633571Y-4772190D01*
X1624048Y-4781714D01*
X1614524Y-4772190D01*
X1624048Y-4762667D01*
X1624048Y-4781714D01*
D12*
X-85000Y-5176000D02*
X-5000Y-5256000D01*
X-5000Y-5176000D02*
X-85000Y-5256000D01*
D11*
X290714Y-5106476D02*
X309762Y-5106476D01*
X328810Y-5116000D01*
X338333Y-5125524D01*
X347857Y-5144571D01*
X357381Y-5182667D01*
X357381Y-5230286D01*
X347857Y-5268381D01*
X338333Y-5287429D01*
X328810Y-5296952D01*
X309762Y-5306476D01*
X290714Y-5306476D01*
X271667Y-5296952D01*
X262143Y-5287429D01*
X252619Y-5268381D01*
X243095Y-5230286D01*
X243095Y-5182667D01*
X252619Y-5144571D01*
X262143Y-5125524D01*
X271667Y-5116000D01*
X290714Y-5106476D01*
X443095Y-5287429D02*
X452619Y-5296952D01*
X443095Y-5306476D01*
X433571Y-5296952D01*
X443095Y-5287429D01*
X443095Y-5306476D01*
X566905Y-5192190D02*
X547857Y-5182667D01*
X538333Y-5173143D01*
X528810Y-5154095D01*
X528810Y-5144571D01*
X538333Y-5125524D01*
X547857Y-5116000D01*
X566905Y-5106476D01*
X605000Y-5106476D01*
X624048Y-5116000D01*
X633571Y-5125524D01*
X643095Y-5144571D01*
X643095Y-5154095D01*
X633571Y-5173143D01*
X624048Y-5182667D01*
X605000Y-5192190D01*
X566905Y-5192190D01*
X547857Y-5201714D01*
X538333Y-5211238D01*
X528810Y-5230286D01*
X528810Y-5268381D01*
X538333Y-5287429D01*
X547857Y-5296952D01*
X566905Y-5306476D01*
X605000Y-5306476D01*
X624048Y-5296952D01*
X633571Y-5287429D01*
X643095Y-5268381D01*
X643095Y-5230286D01*
X633571Y-5211238D01*
X624048Y-5201714D01*
X605000Y-5192190D01*
X766905Y-5106476D02*
X785952Y-5106476D01*
X805000Y-5116000D01*
X814524Y-5125524D01*
X824048Y-5144571D01*
X833571Y-5182667D01*
X833571Y-5230286D01*
X824048Y-5268381D01*
X814524Y-5287429D01*
X805000Y-5296952D01*
X785952Y-5306476D01*
X766905Y-5306476D01*
X747857Y-5296952D01*
X738333Y-5287429D01*
X728809Y-5268381D01*
X719286Y-5230286D01*
X719286Y-5182667D01*
X728809Y-5144571D01*
X738333Y-5125524D01*
X747857Y-5116000D01*
X766905Y-5106476D01*
X957381Y-5106476D02*
X976428Y-5106476D01*
X995476Y-5116000D01*
X1005000Y-5125524D01*
X1014524Y-5144571D01*
X1024048Y-5182667D01*
X1024048Y-5230286D01*
X1014524Y-5268381D01*
X1005000Y-5287429D01*
X995476Y-5296952D01*
X976428Y-5306476D01*
X957381Y-5306476D01*
X938333Y-5296952D01*
X928809Y-5287429D01*
X919286Y-5268381D01*
X909762Y-5230286D01*
X909762Y-5182667D01*
X919286Y-5144571D01*
X928809Y-5125524D01*
X938333Y-5116000D01*
X957381Y-5106476D01*
X1109762Y-5306476D02*
X1109762Y-5173143D01*
X1109762Y-5192190D02*
X1119286Y-5182667D01*
X1138333Y-5173143D01*
X1166905Y-5173143D01*
X1185952Y-5182667D01*
X1195476Y-5201714D01*
X1195476Y-5306476D01*
X1195476Y-5201714D02*
X1205000Y-5182667D01*
X1224048Y-5173143D01*
X1252619Y-5173143D01*
X1271667Y-5182667D01*
X1281190Y-5201714D01*
X1281190Y-5306476D01*
X1376429Y-5306476D02*
X1376429Y-5173143D01*
X1376429Y-5192190D02*
X1385952Y-5182667D01*
X1405000Y-5173143D01*
X1433571Y-5173143D01*
X1452619Y-5182667D01*
X1462143Y-5201714D01*
X1462143Y-5306476D01*
X1462143Y-5201714D02*
X1471667Y-5182667D01*
X1490714Y-5173143D01*
X1519286Y-5173143D01*
X1538333Y-5182667D01*
X1547857Y-5201714D01*
X1547857Y-5306476D01*
X1938333Y-5096952D02*
X1766905Y-5354095D01*
X2195476Y-5106476D02*
X2214524Y-5106476D01*
X2233571Y-5116000D01*
X2243095Y-5125524D01*
X2252619Y-5144571D01*
X2262143Y-5182667D01*
X2262143Y-5230286D01*
X2252619Y-5268381D01*
X2243095Y-5287429D01*
X2233571Y-5296952D01*
X2214524Y-5306476D01*
X2195476Y-5306476D01*
X2176429Y-5296952D01*
X2166905Y-5287429D01*
X2157381Y-5268381D01*
X2147857Y-5230286D01*
X2147857Y-5182667D01*
X2157381Y-5144571D01*
X2166905Y-5125524D01*
X2176429Y-5116000D01*
X2195476Y-5106476D01*
X2347857Y-5287429D02*
X2357381Y-5296952D01*
X2347857Y-5306476D01*
X2338333Y-5296952D01*
X2347857Y-5287429D01*
X2347857Y-5306476D01*
X2481190Y-5106476D02*
X2500238Y-5106476D01*
X2519286Y-5116000D01*
X2528810Y-5125524D01*
X2538333Y-5144571D01*
X2547857Y-5182667D01*
X2547857Y-5230286D01*
X2538333Y-5268381D01*
X2528810Y-5287429D01*
X2519286Y-5296952D01*
X2500238Y-5306476D01*
X2481190Y-5306476D01*
X2462143Y-5296952D01*
X2452619Y-5287429D01*
X2443095Y-5268381D01*
X2433571Y-5230286D01*
X2433571Y-5182667D01*
X2443095Y-5144571D01*
X2452619Y-5125524D01*
X2462143Y-5116000D01*
X2481190Y-5106476D01*
X2614524Y-5106476D02*
X2738333Y-5106476D01*
X2671667Y-5182667D01*
X2700238Y-5182667D01*
X2719286Y-5192190D01*
X2728810Y-5201714D01*
X2738333Y-5220762D01*
X2738333Y-5268381D01*
X2728810Y-5287429D01*
X2719286Y-5296952D01*
X2700238Y-5306476D01*
X2643095Y-5306476D01*
X2624048Y-5296952D01*
X2614524Y-5287429D01*
X2928809Y-5306476D02*
X2814524Y-5306476D01*
X2871667Y-5306476D02*
X2871667Y-5106476D01*
X2852619Y-5135048D01*
X2833571Y-5154095D01*
X2814524Y-5163619D01*
X3109762Y-5106476D02*
X3014524Y-5106476D01*
X3005000Y-5201714D01*
X3014524Y-5192190D01*
X3033571Y-5182667D01*
X3081190Y-5182667D01*
X3100238Y-5192190D01*
X3109762Y-5201714D01*
X3119286Y-5220762D01*
X3119286Y-5268381D01*
X3109762Y-5287429D01*
X3100238Y-5296952D01*
X3081190Y-5306476D01*
X3033571Y-5306476D01*
X3014524Y-5296952D01*
X3005000Y-5287429D01*
X3195476Y-5106476D02*
X3195476Y-5144571D01*
X3271667Y-5106476D02*
X3271667Y-5144571D01*
X3566905Y-5382667D02*
X3557381Y-5373143D01*
X3538333Y-5344571D01*
X3528809Y-5325524D01*
X3519286Y-5296952D01*
X3509762Y-5249333D01*
X3509762Y-5211238D01*
X3519286Y-5163619D01*
X3528809Y-5135048D01*
X3538333Y-5116000D01*
X3557381Y-5087429D01*
X3566905Y-5077905D01*
X3747857Y-5306476D02*
X3633571Y-5306476D01*
X3690714Y-5306476D02*
X3690714Y-5106476D01*
X3671667Y-5135048D01*
X3652619Y-5154095D01*
X3633571Y-5163619D01*
X3814524Y-5106476D02*
X3938333Y-5106476D01*
X3871667Y-5182667D01*
X3900238Y-5182667D01*
X3919286Y-5192190D01*
X3928809Y-5201714D01*
X3938333Y-5220762D01*
X3938333Y-5268381D01*
X3928809Y-5287429D01*
X3919286Y-5296952D01*
X3900238Y-5306476D01*
X3843095Y-5306476D01*
X3824048Y-5296952D01*
X3814524Y-5287429D01*
X4176428Y-5306476D02*
X4176428Y-5106476D01*
X4262143Y-5306476D02*
X4262143Y-5201714D01*
X4252619Y-5182667D01*
X4233571Y-5173143D01*
X4205000Y-5173143D01*
X4185952Y-5182667D01*
X4176428Y-5192190D01*
X4385952Y-5306476D02*
X4366905Y-5296952D01*
X4357381Y-5287429D01*
X4347857Y-5268381D01*
X4347857Y-5211238D01*
X4357381Y-5192190D01*
X4366905Y-5182667D01*
X4385952Y-5173143D01*
X4414524Y-5173143D01*
X4433571Y-5182667D01*
X4443095Y-5192190D01*
X4452619Y-5211238D01*
X4452619Y-5268381D01*
X4443095Y-5287429D01*
X4433571Y-5296952D01*
X4414524Y-5306476D01*
X4385952Y-5306476D01*
X4566905Y-5306476D02*
X4547857Y-5296952D01*
X4538333Y-5277905D01*
X4538333Y-5106476D01*
X4719286Y-5296952D02*
X4700238Y-5306476D01*
X4662143Y-5306476D01*
X4643095Y-5296952D01*
X4633571Y-5277905D01*
X4633571Y-5201714D01*
X4643095Y-5182667D01*
X4662143Y-5173143D01*
X4700238Y-5173143D01*
X4719286Y-5182667D01*
X4728810Y-5201714D01*
X4728810Y-5220762D01*
X4633571Y-5239810D01*
X4805000Y-5296952D02*
X4824048Y-5306476D01*
X4862143Y-5306476D01*
X4881190Y-5296952D01*
X4890714Y-5277905D01*
X4890714Y-5268381D01*
X4881190Y-5249333D01*
X4862143Y-5239810D01*
X4833571Y-5239810D01*
X4814524Y-5230286D01*
X4805000Y-5211238D01*
X4805000Y-5201714D01*
X4814524Y-5182667D01*
X4833571Y-5173143D01*
X4862143Y-5173143D01*
X4881190Y-5182667D01*
X4957381Y-5382667D02*
X4966905Y-5373143D01*
X4985952Y-5344571D01*
X4995476Y-5325524D01*
X5005000Y-5296952D01*
X5014524Y-5249333D01*
X5014524Y-5211238D01*
X5005000Y-5163619D01*
X4995476Y-5135048D01*
X4985952Y-5116000D01*
X4966905Y-5087429D01*
X4957381Y-5077905D01*
M02*
