%TF.GenerationSoftware,KiCad,Pcbnew,(6.0.0)*%
%TF.CreationDate,2022-03-13T17:56:51-04:00*%
%TF.ProjectId,jaguar controller top pcb,6a616775-6172-4206-936f-6e74726f6c6c,rev?*%
%TF.SameCoordinates,Original*%
%TF.FileFunction,Legend,Top*%
%TF.FilePolarity,Positive*%
%FSLAX46Y46*%
G04 Gerber Fmt 4.6, Leading zero omitted, Abs format (unit mm)*
G04 Created by KiCad (PCBNEW (6.0.0)) date 2022-03-13 17:56:51*
%MOMM*%
%LPD*%
G01*
G04 APERTURE LIST*
G04 Aperture macros list*
%AMRoundRect*
0 Rectangle with rounded corners*
0 $1 Rounding radius*
0 $2 $3 $4 $5 $6 $7 $8 $9 X,Y pos of 4 corners*
0 Add a 4 corners polygon primitive as box body*
4,1,4,$2,$3,$4,$5,$6,$7,$8,$9,$2,$3,0*
0 Add four circle primitives for the rounded corners*
1,1,$1+$1,$2,$3*
1,1,$1+$1,$4,$5*
1,1,$1+$1,$6,$7*
1,1,$1+$1,$8,$9*
0 Add four rect primitives between the rounded corners*
20,1,$1+$1,$2,$3,$4,$5,0*
20,1,$1+$1,$4,$5,$6,$7,0*
20,1,$1+$1,$6,$7,$8,$9,0*
20,1,$1+$1,$8,$9,$2,$3,0*%
%AMRotRect*
0 Rectangle, with rotation*
0 The origin of the aperture is its center*
0 $1 length*
0 $2 width*
0 $3 Rotation angle, in degrees counterclockwise*
0 Add horizontal line*
21,1,$1,$2,0,0,$3*%
G04 Aperture macros list end*
%ADD10C,0.150000*%
%ADD11C,0.120000*%
%ADD12O,7.082827X0.900000*%
%ADD13RotRect,0.900000X0.900000X209.345165*%
%ADD14RotRect,0.900000X0.900000X190.121977*%
%ADD15O,8.123471X0.900000*%
%ADD16RoundRect,0.225000X0.313578X-0.054024X0.054024X0.313578X-0.313578X0.054024X-0.054024X-0.313578X0*%
%ADD17RotRect,0.900000X0.900000X228.568352*%
%ADD18RotRect,0.900000X0.900000X142.064007*%
%ADD19O,9.063382X0.900000*%
%ADD20RotRect,0.900000X0.900000X151.675601*%
%ADD21O,3.810000X0.900000*%
%ADD22RotRect,0.900000X0.900000X132.452413*%
%ADD23RotRect,0.900000X0.900000X218.956759*%
%ADD24RotRect,0.900000X0.900000X199.733571*%
%ADD25RotRect,0.900000X0.900000X170.898789*%
%ADD26RotRect,0.900000X0.900000X161.287195*%
%ADD27RotRect,0.900000X0.900000X180.510383*%
%ADD28RotRect,0.900000X0.900000X54.774382*%
%ADD29RotRect,0.900000X0.900000X357.104818*%
%ADD30RotRect,0.900000X0.900000X25.939600*%
%ADD31RotRect,0.900000X0.900000X35.551194*%
%ADD32RotRect,0.900000X0.900000X328.270036*%
%ADD33O,4.997485X0.888414*%
%ADD34RotRect,0.900000X0.900000X16.328006*%
%ADD35RotRect,0.900000X0.900000X347.493224*%
%ADD36O,8.438907X0.900000*%
%ADD37RoundRect,0.225000X-0.317581X0.019808X-0.019808X-0.317581X0.317581X-0.019808X0.019808X0.317581X0*%
%ADD38RotRect,0.900000X0.900000X318.658442*%
%ADD39RotRect,0.900000X0.900000X337.881630*%
%ADD40RotRect,0.900000X0.900000X45.162788*%
%ADD41O,8.938889X0.900000*%
%ADD42RotRect,0.900000X0.900000X6.716412*%
%ADD43O,6.457911X0.900000*%
%ADD44R,3.650000X7.410000*%
%ADD45RotRect,3.970000X0.720000X150.000000*%
%ADD46RotRect,0.720000X11.720000X150.000000*%
%ADD47R,7.410000X3.650000*%
%ADD48R,1.350000X1.350000*%
%ADD49O,1.350000X1.350000*%
G04 APERTURE END LIST*
D10*
X40715019Y-14641580D02*
X40715019Y-15355866D01*
X40667400Y-15498723D01*
X40572161Y-15593961D01*
X40429304Y-15641580D01*
X40334066Y-15641580D01*
X41619780Y-15641580D02*
X41619780Y-15117771D01*
X41572161Y-15022533D01*
X41476923Y-14974914D01*
X41286447Y-14974914D01*
X41191209Y-15022533D01*
X41619780Y-15593961D02*
X41524542Y-15641580D01*
X41286447Y-15641580D01*
X41191209Y-15593961D01*
X41143590Y-15498723D01*
X41143590Y-15403485D01*
X41191209Y-15308247D01*
X41286447Y-15260628D01*
X41524542Y-15260628D01*
X41619780Y-15213009D01*
X42524542Y-14974914D02*
X42524542Y-15784438D01*
X42476923Y-15879676D01*
X42429304Y-15927295D01*
X42334066Y-15974914D01*
X42191209Y-15974914D01*
X42095971Y-15927295D01*
X42524542Y-15593961D02*
X42429304Y-15641580D01*
X42238828Y-15641580D01*
X42143590Y-15593961D01*
X42095971Y-15546342D01*
X42048352Y-15451104D01*
X42048352Y-15165390D01*
X42095971Y-15070152D01*
X42143590Y-15022533D01*
X42238828Y-14974914D01*
X42429304Y-14974914D01*
X42524542Y-15022533D01*
X43429304Y-14974914D02*
X43429304Y-15641580D01*
X43000733Y-14974914D02*
X43000733Y-15498723D01*
X43048352Y-15593961D01*
X43143590Y-15641580D01*
X43286447Y-15641580D01*
X43381685Y-15593961D01*
X43429304Y-15546342D01*
X44334066Y-15641580D02*
X44334066Y-15117771D01*
X44286447Y-15022533D01*
X44191209Y-14974914D01*
X44000733Y-14974914D01*
X43905495Y-15022533D01*
X44334066Y-15593961D02*
X44238828Y-15641580D01*
X44000733Y-15641580D01*
X43905495Y-15593961D01*
X43857876Y-15498723D01*
X43857876Y-15403485D01*
X43905495Y-15308247D01*
X44000733Y-15260628D01*
X44238828Y-15260628D01*
X44334066Y-15213009D01*
X44810257Y-15641580D02*
X44810257Y-14974914D01*
X44810257Y-15165390D02*
X44857876Y-15070152D01*
X44905495Y-15022533D01*
X45000733Y-14974914D01*
X45095971Y-14974914D01*
X46619780Y-15593961D02*
X46524542Y-15641580D01*
X46334066Y-15641580D01*
X46238828Y-15593961D01*
X46191209Y-15546342D01*
X46143590Y-15451104D01*
X46143590Y-15165390D01*
X46191209Y-15070152D01*
X46238828Y-15022533D01*
X46334066Y-14974914D01*
X46524542Y-14974914D01*
X46619780Y-15022533D01*
X47191209Y-15641580D02*
X47095971Y-15593961D01*
X47048352Y-15546342D01*
X47000733Y-15451104D01*
X47000733Y-15165390D01*
X47048352Y-15070152D01*
X47095971Y-15022533D01*
X47191209Y-14974914D01*
X47334066Y-14974914D01*
X47429304Y-15022533D01*
X47476923Y-15070152D01*
X47524542Y-15165390D01*
X47524542Y-15451104D01*
X47476923Y-15546342D01*
X47429304Y-15593961D01*
X47334066Y-15641580D01*
X47191209Y-15641580D01*
X47953114Y-14974914D02*
X47953114Y-15641580D01*
X47953114Y-15070152D02*
X48000733Y-15022533D01*
X48095971Y-14974914D01*
X48238828Y-14974914D01*
X48334066Y-15022533D01*
X48381685Y-15117771D01*
X48381685Y-15641580D01*
X48715019Y-14974914D02*
X49095971Y-14974914D01*
X48857876Y-14641580D02*
X48857876Y-15498723D01*
X48905495Y-15593961D01*
X49000733Y-15641580D01*
X49095971Y-15641580D01*
X49429304Y-15641580D02*
X49429304Y-14974914D01*
X49429304Y-15165390D02*
X49476923Y-15070152D01*
X49524542Y-15022533D01*
X49619780Y-14974914D01*
X49715019Y-14974914D01*
X50191209Y-15641580D02*
X50095971Y-15593961D01*
X50048352Y-15546342D01*
X50000733Y-15451104D01*
X50000733Y-15165390D01*
X50048352Y-15070152D01*
X50095971Y-15022533D01*
X50191209Y-14974914D01*
X50334066Y-14974914D01*
X50429304Y-15022533D01*
X50476923Y-15070152D01*
X50524542Y-15165390D01*
X50524542Y-15451104D01*
X50476923Y-15546342D01*
X50429304Y-15593961D01*
X50334066Y-15641580D01*
X50191209Y-15641580D01*
X51095971Y-15641580D02*
X51000733Y-15593961D01*
X50953114Y-15498723D01*
X50953114Y-14641580D01*
X51619780Y-15641580D02*
X51524542Y-15593961D01*
X51476923Y-15498723D01*
X51476923Y-14641580D01*
X52381685Y-15593961D02*
X52286447Y-15641580D01*
X52095971Y-15641580D01*
X52000733Y-15593961D01*
X51953114Y-15498723D01*
X51953114Y-15117771D01*
X52000733Y-15022533D01*
X52095971Y-14974914D01*
X52286447Y-14974914D01*
X52381685Y-15022533D01*
X52429304Y-15117771D01*
X52429304Y-15213009D01*
X51953114Y-15308247D01*
X52857876Y-15641580D02*
X52857876Y-14974914D01*
X52857876Y-15165390D02*
X52905495Y-15070152D01*
X52953114Y-15022533D01*
X53048352Y-14974914D01*
X53143590Y-14974914D01*
X54238828Y-15641580D02*
X54238828Y-14974914D01*
X54238828Y-15165390D02*
X54286447Y-15070152D01*
X54334066Y-15022533D01*
X54429304Y-14974914D01*
X54524542Y-14974914D01*
X55238828Y-15593961D02*
X55143590Y-15641580D01*
X54953114Y-15641580D01*
X54857876Y-15593961D01*
X54810257Y-15498723D01*
X54810257Y-15117771D01*
X54857876Y-15022533D01*
X54953114Y-14974914D01*
X55143590Y-14974914D01*
X55238828Y-15022533D01*
X55286447Y-15117771D01*
X55286447Y-15213009D01*
X54810257Y-15308247D01*
X55715019Y-14974914D02*
X55715019Y-15974914D01*
X55715019Y-15022533D02*
X55810257Y-14974914D01*
X56000733Y-14974914D01*
X56095971Y-15022533D01*
X56143590Y-15070152D01*
X56191209Y-15165390D01*
X56191209Y-15451104D01*
X56143590Y-15546342D01*
X56095971Y-15593961D01*
X56000733Y-15641580D01*
X55810257Y-15641580D01*
X55715019Y-15593961D01*
X56619780Y-15641580D02*
X56619780Y-14974914D01*
X56619780Y-15165390D02*
X56667400Y-15070152D01*
X56715019Y-15022533D01*
X56810257Y-14974914D01*
X56905495Y-14974914D01*
X57381685Y-15641580D02*
X57286447Y-15593961D01*
X57238828Y-15546342D01*
X57191209Y-15451104D01*
X57191209Y-15165390D01*
X57238828Y-15070152D01*
X57286447Y-15022533D01*
X57381685Y-14974914D01*
X57524542Y-14974914D01*
X57619780Y-15022533D01*
X57667400Y-15070152D01*
X57715019Y-15165390D01*
X57715019Y-15451104D01*
X57667400Y-15546342D01*
X57619780Y-15593961D01*
X57524542Y-15641580D01*
X57381685Y-15641580D01*
X58572161Y-15641580D02*
X58572161Y-14641580D01*
X58572161Y-15593961D02*
X58476923Y-15641580D01*
X58286447Y-15641580D01*
X58191209Y-15593961D01*
X58143590Y-15546342D01*
X58095971Y-15451104D01*
X58095971Y-15165390D01*
X58143590Y-15070152D01*
X58191209Y-15022533D01*
X58286447Y-14974914D01*
X58476923Y-14974914D01*
X58572161Y-15022533D01*
X59476923Y-14974914D02*
X59476923Y-15641580D01*
X59048352Y-14974914D02*
X59048352Y-15498723D01*
X59095971Y-15593961D01*
X59191209Y-15641580D01*
X59334066Y-15641580D01*
X59429304Y-15593961D01*
X59476923Y-15546342D01*
X60381685Y-15593961D02*
X60286447Y-15641580D01*
X60095971Y-15641580D01*
X60000733Y-15593961D01*
X59953114Y-15546342D01*
X59905495Y-15451104D01*
X59905495Y-15165390D01*
X59953114Y-15070152D01*
X60000733Y-15022533D01*
X60095971Y-14974914D01*
X60286447Y-14974914D01*
X60381685Y-15022533D01*
X60667400Y-14974914D02*
X61048352Y-14974914D01*
X60810257Y-14641580D02*
X60810257Y-15498723D01*
X60857876Y-15593961D01*
X60953114Y-15641580D01*
X61048352Y-15641580D01*
X61381685Y-15641580D02*
X61381685Y-14974914D01*
X61381685Y-14641580D02*
X61334066Y-14689200D01*
X61381685Y-14736819D01*
X61429304Y-14689200D01*
X61381685Y-14641580D01*
X61381685Y-14736819D01*
X62000733Y-15641580D02*
X61905495Y-15593961D01*
X61857876Y-15546342D01*
X61810257Y-15451104D01*
X61810257Y-15165390D01*
X61857876Y-15070152D01*
X61905495Y-15022533D01*
X62000733Y-14974914D01*
X62143590Y-14974914D01*
X62238828Y-15022533D01*
X62286447Y-15070152D01*
X62334066Y-15165390D01*
X62334066Y-15451104D01*
X62286447Y-15546342D01*
X62238828Y-15593961D01*
X62143590Y-15641580D01*
X62000733Y-15641580D01*
X62762638Y-14974914D02*
X62762638Y-15641580D01*
X62762638Y-15070152D02*
X62810257Y-15022533D01*
X62905495Y-14974914D01*
X63048352Y-14974914D01*
X63143590Y-15022533D01*
X63191209Y-15117771D01*
X63191209Y-15641580D01*
X64429304Y-14974914D02*
X64429304Y-15974914D01*
X64429304Y-15022533D02*
X64524542Y-14974914D01*
X64715019Y-14974914D01*
X64810257Y-15022533D01*
X64857876Y-15070152D01*
X64905495Y-15165390D01*
X64905495Y-15451104D01*
X64857876Y-15546342D01*
X64810257Y-15593961D01*
X64715019Y-15641580D01*
X64524542Y-15641580D01*
X64429304Y-15593961D01*
X65762638Y-15593961D02*
X65667399Y-15641580D01*
X65476923Y-15641580D01*
X65381685Y-15593961D01*
X65334066Y-15546342D01*
X65286447Y-15451104D01*
X65286447Y-15165390D01*
X65334066Y-15070152D01*
X65381685Y-15022533D01*
X65476923Y-14974914D01*
X65667399Y-14974914D01*
X65762638Y-15022533D01*
X66191209Y-15641580D02*
X66191209Y-14641580D01*
X66191209Y-15022533D02*
X66286447Y-14974914D01*
X66476923Y-14974914D01*
X66572161Y-15022533D01*
X66619780Y-15070152D01*
X66667399Y-15165390D01*
X66667399Y-15451104D01*
X66619780Y-15546342D01*
X66572161Y-15593961D01*
X66476923Y-15641580D01*
X66286447Y-15641580D01*
X66191209Y-15593961D01*
X68143590Y-16022533D02*
X68095971Y-15974914D01*
X68000733Y-15832057D01*
X67953114Y-15736819D01*
X67905495Y-15593961D01*
X67857876Y-15355866D01*
X67857876Y-15165390D01*
X67905495Y-14927295D01*
X67953114Y-14784438D01*
X68000733Y-14689200D01*
X68095971Y-14546342D01*
X68143590Y-14498723D01*
X68953114Y-14974914D02*
X68953114Y-15641580D01*
X68524542Y-14974914D02*
X68524542Y-15498723D01*
X68572161Y-15593961D01*
X68667399Y-15641580D01*
X68810257Y-15641580D01*
X68905495Y-15593961D01*
X68953114Y-15546342D01*
X69429304Y-14974914D02*
X69429304Y-15974914D01*
X69429304Y-15022533D02*
X69524542Y-14974914D01*
X69715019Y-14974914D01*
X69810257Y-15022533D01*
X69857876Y-15070152D01*
X69905495Y-15165390D01*
X69905495Y-15451104D01*
X69857876Y-15546342D01*
X69810257Y-15593961D01*
X69715019Y-15641580D01*
X69524542Y-15641580D01*
X69429304Y-15593961D01*
X70334066Y-14974914D02*
X70334066Y-15974914D01*
X70334066Y-15022533D02*
X70429304Y-14974914D01*
X70619780Y-14974914D01*
X70715019Y-15022533D01*
X70762638Y-15070152D01*
X70810257Y-15165390D01*
X70810257Y-15451104D01*
X70762638Y-15546342D01*
X70715019Y-15593961D01*
X70619780Y-15641580D01*
X70429304Y-15641580D01*
X70334066Y-15593961D01*
X71619780Y-15593961D02*
X71524542Y-15641580D01*
X71334066Y-15641580D01*
X71238828Y-15593961D01*
X71191209Y-15498723D01*
X71191209Y-15117771D01*
X71238828Y-15022533D01*
X71334066Y-14974914D01*
X71524542Y-14974914D01*
X71619780Y-15022533D01*
X71667399Y-15117771D01*
X71667399Y-15213009D01*
X71191209Y-15308247D01*
X72095971Y-15641580D02*
X72095971Y-14974914D01*
X72095971Y-15165390D02*
X72143590Y-15070152D01*
X72191209Y-15022533D01*
X72286447Y-14974914D01*
X72381685Y-14974914D01*
X72619780Y-16022533D02*
X72667399Y-15974914D01*
X72762638Y-15832057D01*
X72810257Y-15736819D01*
X72857876Y-15593961D01*
X72905495Y-15355866D01*
X72905495Y-15165390D01*
X72857876Y-14927295D01*
X72810257Y-14784438D01*
X72762638Y-14689200D01*
X72667399Y-14546342D01*
X72619780Y-14498723D01*
X99782957Y-37991980D02*
X100402004Y-37991980D01*
X100068671Y-38372933D01*
X100211528Y-38372933D01*
X100306766Y-38420552D01*
X100354385Y-38468171D01*
X100402004Y-38563409D01*
X100402004Y-38801504D01*
X100354385Y-38896742D01*
X100306766Y-38944361D01*
X100211528Y-38991980D01*
X99925814Y-38991980D01*
X99830576Y-38944361D01*
X99782957Y-38896742D01*
X101021052Y-37991980D02*
X101116290Y-37991980D01*
X101211528Y-38039600D01*
X101259147Y-38087219D01*
X101306766Y-38182457D01*
X101354385Y-38372933D01*
X101354385Y-38611028D01*
X101306766Y-38801504D01*
X101259147Y-38896742D01*
X101211528Y-38944361D01*
X101116290Y-38991980D01*
X101021052Y-38991980D01*
X100925814Y-38944361D01*
X100878195Y-38896742D01*
X100830576Y-38801504D01*
X100782957Y-38611028D01*
X100782957Y-38372933D01*
X100830576Y-38182457D01*
X100878195Y-38087219D01*
X100925814Y-38039600D01*
X101021052Y-37991980D01*
X101687719Y-37991980D02*
X102306766Y-37991980D01*
X101973433Y-38372933D01*
X102116290Y-38372933D01*
X102211528Y-38420552D01*
X102259147Y-38468171D01*
X102306766Y-38563409D01*
X102306766Y-38801504D01*
X102259147Y-38896742D01*
X102211528Y-38944361D01*
X102116290Y-38991980D01*
X101830576Y-38991980D01*
X101735338Y-38944361D01*
X101687719Y-38896742D01*
X102640100Y-37991980D02*
X103259147Y-37991980D01*
X102925814Y-38372933D01*
X103068671Y-38372933D01*
X103163909Y-38420552D01*
X103211528Y-38468171D01*
X103259147Y-38563409D01*
X103259147Y-38801504D01*
X103211528Y-38896742D01*
X103163909Y-38944361D01*
X103068671Y-38991980D01*
X102782957Y-38991980D01*
X102687719Y-38944361D01*
X102640100Y-38896742D01*
X104306766Y-37991980D02*
X104640100Y-38991980D01*
X104973433Y-37991980D01*
X105259147Y-38087219D02*
X105306766Y-38039600D01*
X105402004Y-37991980D01*
X105640100Y-37991980D01*
X105735338Y-38039600D01*
X105782957Y-38087219D01*
X105830576Y-38182457D01*
X105830576Y-38277695D01*
X105782957Y-38420552D01*
X105211528Y-38991980D01*
X105830576Y-38991980D01*
X106259147Y-38896742D02*
X106306766Y-38944361D01*
X106259147Y-38991980D01*
X106211528Y-38944361D01*
X106259147Y-38896742D01*
X106259147Y-38991980D01*
X106925814Y-37991980D02*
X107021052Y-37991980D01*
X107116290Y-38039600D01*
X107163909Y-38087219D01*
X107211528Y-38182457D01*
X107259147Y-38372933D01*
X107259147Y-38611028D01*
X107211528Y-38801504D01*
X107163909Y-38896742D01*
X107116290Y-38944361D01*
X107021052Y-38991980D01*
X106925814Y-38991980D01*
X106830576Y-38944361D01*
X106782957Y-38896742D01*
X106735338Y-38801504D01*
X106687719Y-38611028D01*
X106687719Y-38372933D01*
X106735338Y-38182457D01*
X106782957Y-38087219D01*
X106830576Y-38039600D01*
X106925814Y-37991980D01*
X99878195Y-40601980D02*
X99878195Y-39601980D01*
X100259147Y-39601980D01*
X100354385Y-39649600D01*
X100402004Y-39697219D01*
X100449623Y-39792457D01*
X100449623Y-39935314D01*
X100402004Y-40030552D01*
X100354385Y-40078171D01*
X100259147Y-40125790D01*
X99878195Y-40125790D01*
X101592480Y-39554361D02*
X100735338Y-40840076D01*
X101925814Y-40601980D02*
X101925814Y-39601980D01*
X102497242Y-40601980D01*
X102497242Y-39601980D01*
X102973433Y-40506742D02*
X103021052Y-40554361D01*
X102973433Y-40601980D01*
X102925814Y-40554361D01*
X102973433Y-40506742D01*
X102973433Y-40601980D01*
X102973433Y-39982933D02*
X103021052Y-40030552D01*
X102973433Y-40078171D01*
X102925814Y-40030552D01*
X102973433Y-39982933D01*
X102973433Y-40078171D01*
X103402004Y-39697219D02*
X103449623Y-39649600D01*
X103544861Y-39601980D01*
X103782957Y-39601980D01*
X103878195Y-39649600D01*
X103925814Y-39697219D01*
X103973433Y-39792457D01*
X103973433Y-39887695D01*
X103925814Y-40030552D01*
X103354385Y-40601980D01*
X103973433Y-40601980D01*
X104592480Y-39601980D02*
X104687719Y-39601980D01*
X104782957Y-39649600D01*
X104830576Y-39697219D01*
X104878195Y-39792457D01*
X104925814Y-39982933D01*
X104925814Y-40221028D01*
X104878195Y-40411504D01*
X104830576Y-40506742D01*
X104782957Y-40554361D01*
X104687719Y-40601980D01*
X104592480Y-40601980D01*
X104497242Y-40554361D01*
X104449623Y-40506742D01*
X104402004Y-40411504D01*
X104354385Y-40221028D01*
X104354385Y-39982933D01*
X104402004Y-39792457D01*
X104449623Y-39697219D01*
X104497242Y-39649600D01*
X104592480Y-39601980D01*
X105259147Y-39601980D02*
X105878195Y-39601980D01*
X105544861Y-39982933D01*
X105687719Y-39982933D01*
X105782957Y-40030552D01*
X105830576Y-40078171D01*
X105878195Y-40173409D01*
X105878195Y-40411504D01*
X105830576Y-40506742D01*
X105782957Y-40554361D01*
X105687719Y-40601980D01*
X105402004Y-40601980D01*
X105306766Y-40554361D01*
X105259147Y-40506742D01*
X106497242Y-39601980D02*
X106592480Y-39601980D01*
X106687719Y-39649600D01*
X106735338Y-39697219D01*
X106782957Y-39792457D01*
X106830576Y-39982933D01*
X106830576Y-40221028D01*
X106782957Y-40411504D01*
X106735338Y-40506742D01*
X106687719Y-40554361D01*
X106592480Y-40601980D01*
X106497242Y-40601980D01*
X106402004Y-40554361D01*
X106354385Y-40506742D01*
X106306766Y-40411504D01*
X106259147Y-40221028D01*
X106259147Y-39982933D01*
X106306766Y-39792457D01*
X106354385Y-39697219D01*
X106402004Y-39649600D01*
X106497242Y-39601980D01*
X107163909Y-39601980D02*
X107782957Y-39601980D01*
X107449623Y-39982933D01*
X107592480Y-39982933D01*
X107687719Y-40030552D01*
X107735338Y-40078171D01*
X107782957Y-40173409D01*
X107782957Y-40411504D01*
X107735338Y-40506742D01*
X107687719Y-40554361D01*
X107592480Y-40601980D01*
X107306766Y-40601980D01*
X107211528Y-40554361D01*
X107163909Y-40506742D01*
X108116290Y-39601980D02*
X108735338Y-39601980D01*
X108402004Y-39982933D01*
X108544861Y-39982933D01*
X108640100Y-40030552D01*
X108687719Y-40078171D01*
X108735338Y-40173409D01*
X108735338Y-40411504D01*
X108687719Y-40506742D01*
X108640100Y-40554361D01*
X108544861Y-40601980D01*
X108259147Y-40601980D01*
X108163909Y-40554361D01*
X108116290Y-40506742D01*
X109354385Y-39601980D02*
X109449623Y-39601980D01*
X109544861Y-39649600D01*
X109592480Y-39697219D01*
X109640100Y-39792457D01*
X109687719Y-39982933D01*
X109687719Y-40221028D01*
X109640100Y-40411504D01*
X109592480Y-40506742D01*
X109544861Y-40554361D01*
X109449623Y-40601980D01*
X109354385Y-40601980D01*
X109259147Y-40554361D01*
X109211528Y-40506742D01*
X109163909Y-40411504D01*
X109116290Y-40221028D01*
X109116290Y-39982933D01*
X109163909Y-39792457D01*
X109211528Y-39697219D01*
X109259147Y-39649600D01*
X109354385Y-39601980D01*
X110640100Y-40601980D02*
X110068671Y-40601980D01*
X110354385Y-40601980D02*
X110354385Y-39601980D01*
X110259147Y-39744838D01*
X110163909Y-39840076D01*
X110068671Y-39887695D01*
X111259147Y-39601980D02*
X111354385Y-39601980D01*
X111449623Y-39649600D01*
X111497242Y-39697219D01*
X111544861Y-39792457D01*
X111592480Y-39982933D01*
X111592480Y-40221028D01*
X111544861Y-40411504D01*
X111497242Y-40506742D01*
X111449623Y-40554361D01*
X111354385Y-40601980D01*
X111259147Y-40601980D01*
X111163909Y-40554361D01*
X111116290Y-40506742D01*
X111068671Y-40411504D01*
X111021052Y-40221028D01*
X111021052Y-39982933D01*
X111068671Y-39792457D01*
X111116290Y-39697219D01*
X111163909Y-39649600D01*
X111259147Y-39601980D01*
X48877057Y-4160780D02*
X48877057Y-3636971D01*
X48829438Y-3541733D01*
X48734200Y-3494114D01*
X48543723Y-3494114D01*
X48448485Y-3541733D01*
X48877057Y-4113161D02*
X48781819Y-4160780D01*
X48543723Y-4160780D01*
X48448485Y-4113161D01*
X48400866Y-4017923D01*
X48400866Y-3922685D01*
X48448485Y-3827447D01*
X48543723Y-3779828D01*
X48781819Y-3779828D01*
X48877057Y-3732209D01*
X49353247Y-4160780D02*
X49353247Y-3160780D01*
X49353247Y-3541733D02*
X49448485Y-3494114D01*
X49638961Y-3494114D01*
X49734200Y-3541733D01*
X49781819Y-3589352D01*
X49829438Y-3684590D01*
X49829438Y-3970304D01*
X49781819Y-4065542D01*
X49734200Y-4113161D01*
X49638961Y-4160780D01*
X49448485Y-4160780D01*
X49353247Y-4113161D01*
X50162771Y-3494114D02*
X50686580Y-3494114D01*
X50162771Y-4160780D01*
X50686580Y-4160780D01*
X51067533Y-4160780D02*
X51067533Y-3494114D01*
X51067533Y-3589352D02*
X51115152Y-3541733D01*
X51210390Y-3494114D01*
X51353247Y-3494114D01*
X51448485Y-3541733D01*
X51496104Y-3636971D01*
X51496104Y-4160780D01*
X51496104Y-3636971D02*
X51543723Y-3541733D01*
X51638961Y-3494114D01*
X51781819Y-3494114D01*
X51877057Y-3541733D01*
X51924676Y-3636971D01*
X51924676Y-4160780D01*
X52829438Y-4160780D02*
X52829438Y-3636971D01*
X52781819Y-3541733D01*
X52686580Y-3494114D01*
X52496104Y-3494114D01*
X52400866Y-3541733D01*
X52829438Y-4113161D02*
X52734200Y-4160780D01*
X52496104Y-4160780D01*
X52400866Y-4113161D01*
X52353247Y-4017923D01*
X52353247Y-3922685D01*
X52400866Y-3827447D01*
X52496104Y-3779828D01*
X52734200Y-3779828D01*
X52829438Y-3732209D01*
X53305628Y-3494114D02*
X53305628Y-4160780D01*
X53305628Y-3589352D02*
X53353247Y-3541733D01*
X53448485Y-3494114D01*
X53591342Y-3494114D01*
X53686580Y-3541733D01*
X53734200Y-3636971D01*
X53734200Y-4160780D01*
X54162771Y-3256019D02*
X54210390Y-3208400D01*
X54305628Y-3160780D01*
X54543723Y-3160780D01*
X54638961Y-3208400D01*
X54686580Y-3256019D01*
X54734200Y-3351257D01*
X54734200Y-3446495D01*
X54686580Y-3589352D01*
X54115152Y-4160780D01*
X54734200Y-4160780D01*
X55162771Y-4160780D02*
X55162771Y-3160780D01*
X55258009Y-3779828D02*
X55543723Y-4160780D01*
X55543723Y-3494114D02*
X55162771Y-3875066D01*
X55972295Y-4065542D02*
X56019914Y-4113161D01*
X55972295Y-4160780D01*
X55924676Y-4113161D01*
X55972295Y-4065542D01*
X55972295Y-4160780D01*
X56353247Y-3494114D02*
X56543723Y-4160780D01*
X56734200Y-3684590D01*
X56924676Y-4160780D01*
X57115152Y-3494114D01*
X57638961Y-4160780D02*
X57543723Y-4113161D01*
X57496104Y-4065542D01*
X57448485Y-3970304D01*
X57448485Y-3684590D01*
X57496104Y-3589352D01*
X57543723Y-3541733D01*
X57638961Y-3494114D01*
X57781819Y-3494114D01*
X57877057Y-3541733D01*
X57924676Y-3589352D01*
X57972295Y-3684590D01*
X57972295Y-3970304D01*
X57924676Y-4065542D01*
X57877057Y-4113161D01*
X57781819Y-4160780D01*
X57638961Y-4160780D01*
X58400866Y-4160780D02*
X58400866Y-3494114D01*
X58400866Y-3684590D02*
X58448485Y-3589352D01*
X58496104Y-3541733D01*
X58591342Y-3494114D01*
X58686580Y-3494114D01*
X59448485Y-4160780D02*
X59448485Y-3160780D01*
X59448485Y-4113161D02*
X59353247Y-4160780D01*
X59162771Y-4160780D01*
X59067533Y-4113161D01*
X59019914Y-4065542D01*
X58972295Y-3970304D01*
X58972295Y-3684590D01*
X59019914Y-3589352D01*
X59067533Y-3541733D01*
X59162771Y-3494114D01*
X59353247Y-3494114D01*
X59448485Y-3541733D01*
X59924676Y-3494114D02*
X59924676Y-4494114D01*
X59924676Y-3541733D02*
X60019914Y-3494114D01*
X60210390Y-3494114D01*
X60305628Y-3541733D01*
X60353247Y-3589352D01*
X60400866Y-3684590D01*
X60400866Y-3970304D01*
X60353247Y-4065542D01*
X60305628Y-4113161D01*
X60210390Y-4160780D01*
X60019914Y-4160780D01*
X59924676Y-4113161D01*
X60829438Y-4160780D02*
X60829438Y-3494114D01*
X60829438Y-3684590D02*
X60877057Y-3589352D01*
X60924676Y-3541733D01*
X61019914Y-3494114D01*
X61115152Y-3494114D01*
X61829438Y-4113161D02*
X61734200Y-4160780D01*
X61543723Y-4160780D01*
X61448485Y-4113161D01*
X61400866Y-4017923D01*
X61400866Y-3636971D01*
X61448485Y-3541733D01*
X61543723Y-3494114D01*
X61734200Y-3494114D01*
X61829438Y-3541733D01*
X61877057Y-3636971D01*
X61877057Y-3732209D01*
X61400866Y-3827447D01*
X62258009Y-4113161D02*
X62353247Y-4160780D01*
X62543723Y-4160780D01*
X62638961Y-4113161D01*
X62686580Y-4017923D01*
X62686580Y-3970304D01*
X62638961Y-3875066D01*
X62543723Y-3827447D01*
X62400866Y-3827447D01*
X62305628Y-3779828D01*
X62258009Y-3684590D01*
X62258009Y-3636971D01*
X62305628Y-3541733D01*
X62400866Y-3494114D01*
X62543723Y-3494114D01*
X62638961Y-3541733D01*
X63067533Y-4113161D02*
X63162771Y-4160780D01*
X63353247Y-4160780D01*
X63448485Y-4113161D01*
X63496104Y-4017923D01*
X63496104Y-3970304D01*
X63448485Y-3875066D01*
X63353247Y-3827447D01*
X63210390Y-3827447D01*
X63115152Y-3779828D01*
X63067533Y-3684590D01*
X63067533Y-3636971D01*
X63115152Y-3541733D01*
X63210390Y-3494114D01*
X63353247Y-3494114D01*
X63448485Y-3541733D01*
X63924676Y-4065542D02*
X63972295Y-4113161D01*
X63924676Y-4160780D01*
X63877057Y-4113161D01*
X63924676Y-4065542D01*
X63924676Y-4160780D01*
X64829438Y-4113161D02*
X64734200Y-4160780D01*
X64543723Y-4160780D01*
X64448485Y-4113161D01*
X64400866Y-4065542D01*
X64353247Y-3970304D01*
X64353247Y-3684590D01*
X64400866Y-3589352D01*
X64448485Y-3541733D01*
X64543723Y-3494114D01*
X64734200Y-3494114D01*
X64829438Y-3541733D01*
X65400866Y-4160780D02*
X65305628Y-4113161D01*
X65258009Y-4065542D01*
X65210390Y-3970304D01*
X65210390Y-3684590D01*
X65258009Y-3589352D01*
X65305628Y-3541733D01*
X65400866Y-3494114D01*
X65543723Y-3494114D01*
X65638961Y-3541733D01*
X65686580Y-3589352D01*
X65734200Y-3684590D01*
X65734200Y-3970304D01*
X65686580Y-4065542D01*
X65638961Y-4113161D01*
X65543723Y-4160780D01*
X65400866Y-4160780D01*
X66162771Y-4160780D02*
X66162771Y-3494114D01*
X66162771Y-3589352D02*
X66210390Y-3541733D01*
X66305628Y-3494114D01*
X66448485Y-3494114D01*
X66543723Y-3541733D01*
X66591342Y-3636971D01*
X66591342Y-4160780D01*
X66591342Y-3636971D02*
X66638961Y-3541733D01*
X66734200Y-3494114D01*
X66877057Y-3494114D01*
X66972295Y-3541733D01*
X67019914Y-3636971D01*
X67019914Y-4160780D01*
%TO.C,SW7*%
X81081523Y-42521142D02*
X81033904Y-42568761D01*
X80891047Y-42616380D01*
X80795809Y-42616380D01*
X80652952Y-42568761D01*
X80557714Y-42473523D01*
X80510095Y-42378285D01*
X80462476Y-42187809D01*
X80462476Y-42044952D01*
X80510095Y-41854476D01*
X80557714Y-41759238D01*
X80652952Y-41664000D01*
X80795809Y-41616380D01*
X80891047Y-41616380D01*
X81033904Y-41664000D01*
X81081523Y-41711619D01*
%TO.C,SW3*%
X23938123Y-38247580D02*
X23938123Y-37247580D01*
X24176219Y-37247580D01*
X24319076Y-37295200D01*
X24414314Y-37390438D01*
X24461933Y-37485676D01*
X24509552Y-37676152D01*
X24509552Y-37819009D01*
X24461933Y-38009485D01*
X24414314Y-38104723D01*
X24319076Y-38199961D01*
X24176219Y-38247580D01*
X23938123Y-38247580D01*
X25080980Y-38247580D02*
X24985742Y-38199961D01*
X24938123Y-38152342D01*
X24890504Y-38057104D01*
X24890504Y-37771390D01*
X24938123Y-37676152D01*
X24985742Y-37628533D01*
X25080980Y-37580914D01*
X25223838Y-37580914D01*
X25319076Y-37628533D01*
X25366695Y-37676152D01*
X25414314Y-37771390D01*
X25414314Y-38057104D01*
X25366695Y-38152342D01*
X25319076Y-38199961D01*
X25223838Y-38247580D01*
X25080980Y-38247580D01*
X25747647Y-37580914D02*
X25938123Y-38247580D01*
X26128600Y-37771390D01*
X26319076Y-38247580D01*
X26509552Y-37580914D01*
X26890504Y-37580914D02*
X26890504Y-38247580D01*
X26890504Y-37676152D02*
X26938123Y-37628533D01*
X27033361Y-37580914D01*
X27176219Y-37580914D01*
X27271457Y-37628533D01*
X27319076Y-37723771D01*
X27319076Y-38247580D01*
%TO.C,SW5*%
X45670572Y-35867241D02*
X44804546Y-35367241D01*
X44995023Y-35037326D01*
X45083881Y-34978657D01*
X45148930Y-34961227D01*
X45255218Y-34967607D01*
X45378936Y-35039036D01*
X45437605Y-35127894D01*
X45455035Y-35192943D01*
X45448655Y-35299231D01*
X45258179Y-35629146D01*
X46384858Y-34630062D02*
X45931225Y-34368157D01*
X45824937Y-34361777D01*
X45736079Y-34420446D01*
X45640841Y-34585403D01*
X45634461Y-34691692D01*
X46343618Y-34606252D02*
X46337239Y-34712540D01*
X46218191Y-34918737D01*
X46129333Y-34977406D01*
X46023044Y-34971026D01*
X45940566Y-34923407D01*
X45881897Y-34834549D01*
X45888277Y-34728261D01*
X46007324Y-34522064D01*
X46013704Y-34415776D01*
X46259888Y-33513182D02*
X46837239Y-33846515D01*
X46045603Y-33884335D02*
X46499235Y-34146240D01*
X46605523Y-34152620D01*
X46694381Y-34093951D01*
X46765810Y-33970233D01*
X46772190Y-33863945D01*
X46754760Y-33798896D01*
X47010285Y-33451552D02*
X47099143Y-33392882D01*
X47194381Y-33227925D01*
X47200761Y-33121637D01*
X47142092Y-33032779D01*
X47100853Y-33008969D01*
X46994565Y-33002590D01*
X46905706Y-33061259D01*
X46834278Y-33184977D01*
X46745419Y-33243646D01*
X46639131Y-33237266D01*
X46597892Y-33213456D01*
X46539223Y-33124598D01*
X46545603Y-33018310D01*
X46617031Y-32894592D01*
X46705890Y-32835923D01*
X47629333Y-32379330D02*
X47622953Y-32485618D01*
X47527715Y-32650575D01*
X47438856Y-32709244D01*
X47332568Y-32702864D01*
X47002654Y-32512388D01*
X46943985Y-32423530D01*
X46950364Y-32317242D01*
X47045603Y-32152284D01*
X47134461Y-32093615D01*
X47240749Y-32099995D01*
X47323228Y-32147614D01*
X47167611Y-32607626D01*
%TO.C,SW9*%
X100015704Y-5957866D02*
X100491895Y-5957866D01*
X99920466Y-6243580D02*
X100253800Y-5243580D01*
X100587133Y-6243580D01*
%TO.C,SW6*%
X56483652Y-35539421D02*
X56578890Y-35374464D01*
X56667749Y-35315795D01*
X56797846Y-35280935D01*
X56986613Y-35334934D01*
X57275288Y-35501601D01*
X57416436Y-35638078D01*
X57451295Y-35768176D01*
X57444916Y-35874464D01*
X57349678Y-36039421D01*
X57260819Y-36098090D01*
X57130722Y-36132950D01*
X56941955Y-36078951D01*
X56653280Y-35912284D01*
X56512132Y-35775807D01*
X56477273Y-35645709D01*
X56483652Y-35539421D01*
X57200899Y-34963780D02*
X58066924Y-35463780D01*
X57242138Y-34987590D02*
X57248518Y-34881302D01*
X57343756Y-34716344D01*
X57432614Y-34657675D01*
X57497663Y-34640246D01*
X57603951Y-34646625D01*
X57851387Y-34789482D01*
X57910056Y-34878341D01*
X57927486Y-34943390D01*
X57921106Y-35049678D01*
X57825868Y-35214635D01*
X57737010Y-35273304D01*
X57581851Y-34303951D02*
X57772327Y-33974037D01*
X57364605Y-34013567D02*
X58106912Y-34442138D01*
X58213200Y-34448518D01*
X58302059Y-34389849D01*
X58349678Y-34307370D01*
X58516344Y-34018695D02*
X57938994Y-33685362D01*
X57650319Y-33518695D02*
X57667749Y-33583744D01*
X57732798Y-33566314D01*
X57715368Y-33501265D01*
X57650319Y-33518695D01*
X57732798Y-33566314D01*
X58825868Y-33482584D02*
X58737010Y-33541253D01*
X58671961Y-33558683D01*
X58565673Y-33552303D01*
X58318237Y-33409446D01*
X58259568Y-33320588D01*
X58242138Y-33255539D01*
X58248518Y-33149251D01*
X58319946Y-33025533D01*
X58408805Y-32966864D01*
X58473854Y-32949434D01*
X58580142Y-32955814D01*
X58827578Y-33098671D01*
X58886247Y-33187529D01*
X58903676Y-33252578D01*
X58897297Y-33358866D01*
X58825868Y-33482584D01*
X58629470Y-32489422D02*
X59206821Y-32822755D01*
X58711949Y-32537041D02*
X58694519Y-32471992D01*
X58700899Y-32365704D01*
X58772327Y-32241986D01*
X58861186Y-32183317D01*
X58967474Y-32189697D01*
X59421106Y-32451602D01*
%TO.C,SW1*%
X4211723Y-17419580D02*
X3735533Y-17419580D01*
X3735533Y-16419580D01*
X4926009Y-17371961D02*
X4830771Y-17419580D01*
X4640295Y-17419580D01*
X4545057Y-17371961D01*
X4497438Y-17276723D01*
X4497438Y-16895771D01*
X4545057Y-16800533D01*
X4640295Y-16752914D01*
X4830771Y-16752914D01*
X4926009Y-16800533D01*
X4973628Y-16895771D01*
X4973628Y-16991009D01*
X4497438Y-17086247D01*
X5259342Y-16752914D02*
X5640295Y-16752914D01*
X5402200Y-17419580D02*
X5402200Y-16562438D01*
X5449819Y-16467200D01*
X5545057Y-16419580D01*
X5640295Y-16419580D01*
X5830771Y-16752914D02*
X6211723Y-16752914D01*
X5973628Y-16419580D02*
X5973628Y-17276723D01*
X6021247Y-17371961D01*
X6116485Y-17419580D01*
X6211723Y-17419580D01*
%TO.C,SW2*%
X24484104Y-7402580D02*
X24484104Y-8212104D01*
X24531723Y-8307342D01*
X24579342Y-8354961D01*
X24674580Y-8402580D01*
X24865057Y-8402580D01*
X24960295Y-8354961D01*
X25007914Y-8307342D01*
X25055533Y-8212104D01*
X25055533Y-7402580D01*
X25531723Y-7735914D02*
X25531723Y-8735914D01*
X25531723Y-7783533D02*
X25626961Y-7735914D01*
X25817438Y-7735914D01*
X25912676Y-7783533D01*
X25960295Y-7831152D01*
X26007914Y-7926390D01*
X26007914Y-8212104D01*
X25960295Y-8307342D01*
X25912676Y-8354961D01*
X25817438Y-8402580D01*
X25626961Y-8402580D01*
X25531723Y-8354961D01*
%TO.C,SW4*%
X34440952Y-28189180D02*
X34107619Y-27712990D01*
X33869523Y-28189180D02*
X33869523Y-27189180D01*
X34250476Y-27189180D01*
X34345714Y-27236800D01*
X34393333Y-27284419D01*
X34440952Y-27379657D01*
X34440952Y-27522514D01*
X34393333Y-27617752D01*
X34345714Y-27665371D01*
X34250476Y-27712990D01*
X33869523Y-27712990D01*
X34869523Y-28189180D02*
X34869523Y-27522514D01*
X34869523Y-27189180D02*
X34821904Y-27236800D01*
X34869523Y-27284419D01*
X34917142Y-27236800D01*
X34869523Y-27189180D01*
X34869523Y-27284419D01*
X35774285Y-27522514D02*
X35774285Y-28332038D01*
X35726666Y-28427276D01*
X35679047Y-28474895D01*
X35583809Y-28522514D01*
X35440952Y-28522514D01*
X35345714Y-28474895D01*
X35774285Y-28141561D02*
X35679047Y-28189180D01*
X35488571Y-28189180D01*
X35393333Y-28141561D01*
X35345714Y-28093942D01*
X35298095Y-27998704D01*
X35298095Y-27712990D01*
X35345714Y-27617752D01*
X35393333Y-27570133D01*
X35488571Y-27522514D01*
X35679047Y-27522514D01*
X35774285Y-27570133D01*
X36250476Y-28189180D02*
X36250476Y-27189180D01*
X36679047Y-28189180D02*
X36679047Y-27665371D01*
X36631428Y-27570133D01*
X36536190Y-27522514D01*
X36393333Y-27522514D01*
X36298095Y-27570133D01*
X36250476Y-27617752D01*
X37012380Y-27522514D02*
X37393333Y-27522514D01*
X37155238Y-27189180D02*
X37155238Y-28046323D01*
X37202857Y-28141561D01*
X37298095Y-28189180D01*
X37393333Y-28189180D01*
%TO.C,SW8*%
X104236828Y-22940971D02*
X104379685Y-22988590D01*
X104427304Y-23036209D01*
X104474923Y-23131447D01*
X104474923Y-23274304D01*
X104427304Y-23369542D01*
X104379685Y-23417161D01*
X104284447Y-23464780D01*
X103903495Y-23464780D01*
X103903495Y-22464780D01*
X104236828Y-22464780D01*
X104332066Y-22512400D01*
X104379685Y-22560019D01*
X104427304Y-22655257D01*
X104427304Y-22750495D01*
X104379685Y-22845733D01*
X104332066Y-22893352D01*
X104236828Y-22940971D01*
X103903495Y-22940971D01*
%TO.C,SW7*%
X87797649Y-32078985D02*
X88696037Y-32295366D01*
X87296265Y-43034738D02*
X86372429Y-43013610D01*
X90322739Y-33158821D02*
X91005382Y-33781653D01*
X81840957Y-35478022D02*
X82255432Y-34652109D01*
X85956205Y-32107121D02*
X86875745Y-32015644D01*
X88210661Y-42901319D02*
X87296265Y-43034738D01*
X82488453Y-40758078D02*
X82012237Y-39966156D01*
X81674931Y-39105839D02*
X81486007Y-38201279D01*
X92475000Y-37530000D02*
X92397581Y-38450829D01*
X92311585Y-36197425D02*
X92458959Y-37109676D01*
X86372429Y-43013610D02*
X85465088Y-42838527D01*
X86875745Y-32015644D02*
X87797649Y-32078985D01*
X85064848Y-32350848D02*
X85956205Y-32107121D01*
X82801990Y-33906995D02*
X83465286Y-33263598D01*
X91791217Y-40189804D02*
X91279295Y-40959127D01*
X91005382Y-33781653D02*
X91574449Y-34509722D01*
X84226697Y-32739982D02*
X85064848Y-32350848D01*
X91279295Y-40959127D02*
X90646106Y-41632175D01*
X89545685Y-32658712D02*
X90322739Y-33158821D01*
X83800613Y-42050342D02*
X83090210Y-41459369D01*
X82255432Y-34652109D02*
X82801990Y-33906995D01*
X83090210Y-41459369D02*
X82488453Y-40758078D01*
X82012237Y-39966156D02*
X81674931Y-39105839D01*
X89089944Y-42617097D02*
X88210661Y-42901319D01*
X85465088Y-42838527D02*
X84599717Y-42514404D01*
X89909429Y-42190052D02*
X89089944Y-42617097D01*
X92013963Y-35322586D02*
X92311585Y-36197425D01*
X91574449Y-34509722D02*
X92013963Y-35322586D01*
X90646106Y-41632175D02*
X89909429Y-42190052D01*
X92458959Y-37109676D02*
X92451947Y-38033727D01*
X83465286Y-33263598D02*
X84226697Y-32739982D01*
X92397581Y-38450829D02*
X92167501Y-39345807D01*
X81570201Y-36361545D02*
X81840957Y-35478022D01*
X88696037Y-32295366D02*
X89545685Y-32658712D01*
X92167501Y-39345807D02*
X91791217Y-40189804D01*
X92475000Y-37530000D02*
X92475000Y-37530000D01*
X81450767Y-37277873D02*
X81570201Y-36361545D01*
X81486007Y-38201279D02*
X81450767Y-37277873D01*
X84599717Y-42514404D02*
X83800613Y-42050342D01*
%TO.C,SW3*%
X15470000Y-37180000D02*
X15470000Y-29620000D01*
X23030000Y-29620000D02*
X23030000Y-37180000D01*
X15470000Y-29620000D02*
X23030000Y-29620000D01*
X23030000Y-37180000D02*
X15470000Y-37180000D01*
%TO.C,SW5*%
X49144788Y-42684861D02*
X55079788Y-32405139D01*
X55079788Y-32405139D02*
X50455212Y-29735139D01*
X44520212Y-40014861D02*
X49144788Y-42684861D01*
X50455212Y-29735139D02*
X44520212Y-40014861D01*
%TO.C,SW9*%
X114155000Y-10070000D02*
X114155000Y-10070000D01*
X113693963Y-7862586D02*
X113991585Y-8737425D01*
X114155000Y-10070000D02*
X114077581Y-10990829D01*
X110376037Y-4835366D02*
X111225685Y-5198712D01*
X105145286Y-5803598D02*
X105906697Y-5279982D01*
X103166007Y-10741279D02*
X103130767Y-9817873D01*
X106744848Y-4890848D02*
X107636205Y-4647121D01*
X108555745Y-4555644D02*
X109477649Y-4618985D01*
X103354931Y-11645839D02*
X103166007Y-10741279D01*
X109477649Y-4618985D02*
X110376037Y-4835366D01*
X112685382Y-6321653D02*
X113254449Y-7049722D01*
X103130767Y-9817873D02*
X103250201Y-8901545D01*
X113471217Y-12729804D02*
X112959295Y-13499127D01*
X103520957Y-8018022D02*
X103935432Y-7192109D01*
X104770210Y-13999369D02*
X104168453Y-13298078D01*
X114077581Y-10990829D02*
X113847501Y-11885807D01*
X113847501Y-11885807D02*
X113471217Y-12729804D01*
X114138959Y-9649676D02*
X114131947Y-10573727D01*
X112002739Y-5698821D02*
X112685382Y-6321653D01*
X108052429Y-15553610D02*
X107145088Y-15378527D01*
X106279717Y-15054404D02*
X105480613Y-14590342D01*
X108976265Y-15574738D02*
X108052429Y-15553610D01*
X104481990Y-6446995D02*
X105145286Y-5803598D01*
X109890661Y-15441319D02*
X108976265Y-15574738D01*
X103692237Y-12506156D02*
X103354931Y-11645839D01*
X104168453Y-13298078D02*
X103692237Y-12506156D01*
X111225685Y-5198712D02*
X112002739Y-5698821D01*
X113254449Y-7049722D02*
X113693963Y-7862586D01*
X112326106Y-14172175D02*
X111589429Y-14730052D01*
X107145088Y-15378527D02*
X106279717Y-15054404D01*
X107636205Y-4647121D02*
X108555745Y-4555644D01*
X105480613Y-14590342D02*
X104770210Y-13999369D01*
X112959295Y-13499127D02*
X112326106Y-14172175D01*
X110769944Y-15157097D02*
X109890661Y-15441319D01*
X103935432Y-7192109D02*
X104481990Y-6446995D01*
X103250201Y-8901545D02*
X103520957Y-8018022D01*
X105906697Y-5279982D02*
X106744848Y-4890848D01*
X113991585Y-8737425D02*
X114138959Y-9649676D01*
X111589429Y-14730052D02*
X110769944Y-15157097D01*
%TO.C,SW6*%
X62665212Y-29735139D02*
X56730212Y-40014861D01*
X61354788Y-42684861D02*
X67289788Y-32405139D01*
X56730212Y-40014861D02*
X61354788Y-42684861D01*
X67289788Y-32405139D02*
X62665212Y-29735139D01*
%TO.C,SW1*%
X13060000Y-19650000D02*
X13060000Y-27210000D01*
X5500000Y-19650000D02*
X13060000Y-19650000D01*
X13060000Y-27210000D02*
X5500000Y-27210000D01*
X5500000Y-27210000D02*
X5500000Y-19650000D01*
%TO.C,SW2*%
X15470000Y-9680000D02*
X23030000Y-9680000D01*
X23030000Y-9680000D02*
X23030000Y-17240000D01*
X15470000Y-17240000D02*
X15470000Y-9680000D01*
X23030000Y-17240000D02*
X15470000Y-17240000D01*
%TO.C,SW4*%
X33000000Y-19650000D02*
X33000000Y-27210000D01*
X25440000Y-27210000D02*
X25440000Y-19650000D01*
X25440000Y-19650000D02*
X33000000Y-19650000D01*
X33000000Y-27210000D02*
X25440000Y-27210000D01*
%TO.C,SW8*%
X102525000Y-23140000D02*
X102525000Y-23140000D01*
X91536007Y-23811279D02*
X91500767Y-22887873D01*
X102361585Y-21807425D02*
X102508959Y-22719676D01*
X92062237Y-25576156D02*
X91724931Y-24715839D01*
X98260661Y-28511319D02*
X97346265Y-28644738D01*
X93515286Y-18873598D02*
X94276697Y-18349982D01*
X102525000Y-23140000D02*
X102447581Y-24060829D01*
X91620201Y-21971545D02*
X91890957Y-21088022D01*
X96422429Y-28623610D02*
X95515088Y-28448527D01*
X95515088Y-28448527D02*
X94649717Y-28124404D01*
X92305432Y-20262109D02*
X92851990Y-19516995D01*
X102447581Y-24060829D02*
X102217501Y-24955807D01*
X100372739Y-18768821D02*
X101055382Y-19391653D01*
X92538453Y-26368078D02*
X92062237Y-25576156D01*
X91500767Y-22887873D02*
X91620201Y-21971545D01*
X102217501Y-24955807D02*
X101841217Y-25799804D01*
X98746037Y-17905366D02*
X99595685Y-18268712D01*
X93850613Y-27660342D02*
X93140210Y-27069369D01*
X94649717Y-28124404D02*
X93850613Y-27660342D01*
X101329295Y-26569127D02*
X100696106Y-27242175D01*
X101841217Y-25799804D02*
X101329295Y-26569127D01*
X91724931Y-24715839D02*
X91536007Y-23811279D01*
X97847649Y-17688985D02*
X98746037Y-17905366D01*
X96925745Y-17625644D02*
X97847649Y-17688985D01*
X96006205Y-17717121D02*
X96925745Y-17625644D01*
X92851990Y-19516995D02*
X93515286Y-18873598D01*
X102063963Y-20932586D02*
X102361585Y-21807425D01*
X93140210Y-27069369D02*
X92538453Y-26368078D01*
X101624449Y-20119722D02*
X102063963Y-20932586D01*
X95114848Y-17960848D02*
X96006205Y-17717121D01*
X94276697Y-18349982D02*
X95114848Y-17960848D01*
X100696106Y-27242175D02*
X99959429Y-27800052D01*
X102508959Y-22719676D02*
X102501947Y-23643727D01*
X99959429Y-27800052D02*
X99139944Y-28227097D01*
X97346265Y-28644738D02*
X96422429Y-28623610D01*
X99139944Y-28227097D02*
X98260661Y-28511319D01*
X91890957Y-21088022D02*
X92305432Y-20262109D01*
X101055382Y-19391653D02*
X101624449Y-20119722D01*
X99595685Y-18268712D02*
X100372739Y-18768821D01*
%TO.C,G\u002A\u002A\u002A*%
G36*
X46968986Y-2060744D02*
G01*
X47035012Y-2127091D01*
X47093250Y-2186314D01*
X47142959Y-2237628D01*
X47183398Y-2280250D01*
X47213826Y-2313393D01*
X47233501Y-2336275D01*
X47241681Y-2348109D01*
X47241757Y-2349426D01*
X47234159Y-2359055D01*
X47217629Y-2379771D01*
X47194123Y-2409135D01*
X47165599Y-2444713D01*
X47134013Y-2484068D01*
X47101323Y-2524763D01*
X47069485Y-2564362D01*
X47040457Y-2600429D01*
X47016195Y-2630528D01*
X46998656Y-2652221D01*
X46990363Y-2662395D01*
X46978805Y-2676579D01*
X46959596Y-2700374D01*
X46935922Y-2729826D01*
X46921903Y-2747317D01*
X46867834Y-2814847D01*
X46914328Y-2907881D01*
X46933911Y-2947876D01*
X46951617Y-2985503D01*
X46965341Y-3016204D01*
X46972410Y-3033741D01*
X46983997Y-3066566D01*
X46732638Y-3318037D01*
X46678243Y-3372323D01*
X46627623Y-3422585D01*
X46582096Y-3467533D01*
X46542981Y-3505878D01*
X46511593Y-3536331D01*
X46489252Y-3557602D01*
X46477274Y-3568403D01*
X46475641Y-3569508D01*
X46468118Y-3562624D01*
X46464734Y-3555776D01*
X46460358Y-3535765D01*
X46459465Y-3522688D01*
X46456787Y-3500538D01*
X46449534Y-3466375D01*
X46438875Y-3424570D01*
X46425981Y-3379492D01*
X46412020Y-3335513D01*
X46401129Y-3304743D01*
X46370699Y-3230607D01*
X46337124Y-3163971D01*
X46297588Y-3098304D01*
X46259807Y-3039438D01*
X46259807Y-2130295D01*
X46288447Y-2105523D01*
X46313712Y-2084179D01*
X46342446Y-2060597D01*
X46351383Y-2053418D01*
X46368258Y-2039904D01*
X46396117Y-2017519D01*
X46432434Y-1988296D01*
X46474681Y-1954270D01*
X46520333Y-1917473D01*
X46537498Y-1903630D01*
X46689317Y-1781174D01*
X46968986Y-2060744D01*
G37*
G36*
X46451651Y-4646337D02*
G01*
X46897845Y-4646747D01*
X46936909Y-4696043D01*
X46958561Y-4723286D01*
X46977767Y-4747310D01*
X46990363Y-4762908D01*
X47001477Y-4776610D01*
X47020748Y-4800500D01*
X47046240Y-4832169D01*
X47076018Y-4869206D01*
X47108147Y-4909201D01*
X47140693Y-4949744D01*
X47171721Y-4988425D01*
X47199296Y-5022834D01*
X47221483Y-5050560D01*
X47236346Y-5069194D01*
X47241757Y-5076056D01*
X47237364Y-5084235D01*
X47221243Y-5103709D01*
X47194134Y-5133694D01*
X47156779Y-5173404D01*
X47109920Y-5222055D01*
X47054297Y-5278863D01*
X46990653Y-5343043D01*
X46968986Y-5364737D01*
X46689317Y-5644308D01*
X46537498Y-5521999D01*
X46492522Y-5485747D01*
X46451253Y-5452446D01*
X46415906Y-5423886D01*
X46388694Y-5401856D01*
X46371831Y-5388145D01*
X46368286Y-5385232D01*
X46354108Y-5373649D01*
X46330312Y-5354416D01*
X46300848Y-5330718D01*
X46283247Y-5316608D01*
X46215600Y-5262445D01*
X46140044Y-5300726D01*
X46100114Y-5320584D01*
X46059180Y-5340328D01*
X46024201Y-5356620D01*
X46014420Y-5360991D01*
X45964351Y-5382975D01*
X45707607Y-5126669D01*
X45652877Y-5071848D01*
X45602322Y-5020851D01*
X45557195Y-4974968D01*
X45518746Y-4935490D01*
X45488230Y-4903704D01*
X45466897Y-4880903D01*
X45456002Y-4868376D01*
X45454869Y-4866357D01*
X45464887Y-4863024D01*
X45487111Y-4858260D01*
X45514279Y-4853502D01*
X45643593Y-4824151D01*
X45770778Y-4777930D01*
X45894633Y-4715305D01*
X45939485Y-4688001D01*
X46005458Y-4645926D01*
X46451651Y-4646337D01*
G37*
G36*
X44165935Y-3854927D02*
G01*
X44171014Y-3873866D01*
X44172058Y-3879846D01*
X44200190Y-4011815D01*
X44241831Y-4138060D01*
X44295855Y-4255538D01*
X44337790Y-4326862D01*
X44376075Y-4386044D01*
X44376075Y-5295187D01*
X44347434Y-5319958D01*
X44322152Y-5341302D01*
X44293404Y-5364859D01*
X44284498Y-5371995D01*
X44267301Y-5385731D01*
X44239225Y-5408227D01*
X44202917Y-5437361D01*
X44161024Y-5471007D01*
X44116193Y-5507043D01*
X44106970Y-5514460D01*
X44063903Y-5549079D01*
X44025148Y-5580193D01*
X43992845Y-5606090D01*
X43969129Y-5625057D01*
X43956139Y-5635381D01*
X43954626Y-5636557D01*
X43946447Y-5632164D01*
X43926972Y-5616043D01*
X43896988Y-5588934D01*
X43857278Y-5551579D01*
X43808626Y-5504720D01*
X43751818Y-5449097D01*
X43687638Y-5385453D01*
X43665944Y-5363786D01*
X43386374Y-5084117D01*
X43508682Y-4932298D01*
X43544935Y-4887322D01*
X43578236Y-4846053D01*
X43606796Y-4810706D01*
X43628826Y-4783494D01*
X43642536Y-4766631D01*
X43645450Y-4763086D01*
X43657033Y-4748908D01*
X43676266Y-4725112D01*
X43699963Y-4695648D01*
X43714073Y-4678047D01*
X43768237Y-4610400D01*
X43729955Y-4534844D01*
X43709961Y-4494617D01*
X43689956Y-4453096D01*
X43673346Y-4417389D01*
X43668964Y-4407576D01*
X43646253Y-4355863D01*
X43900429Y-4101578D01*
X43955154Y-4046973D01*
X44006131Y-3996387D01*
X44052045Y-3951102D01*
X44091585Y-3912399D01*
X44123436Y-3881563D01*
X44146287Y-3859874D01*
X44158824Y-3848616D01*
X44160777Y-3847293D01*
X44165935Y-3854927D01*
G37*
G36*
X47141743Y-3260976D02*
G01*
X47171568Y-3264282D01*
X47212741Y-3268942D01*
X47259370Y-3274285D01*
X47297162Y-3278661D01*
X47350868Y-3284758D01*
X47410655Y-3291302D01*
X47467569Y-3297322D01*
X47496820Y-3300300D01*
X47539485Y-3304687D01*
X47579118Y-3309003D01*
X47610467Y-3312665D01*
X47624861Y-3314552D01*
X47657414Y-3319291D01*
X47657414Y-4106191D01*
X47624861Y-4110929D01*
X47602630Y-4113764D01*
X47568368Y-4117666D01*
X47527327Y-4122054D01*
X47496820Y-4125157D01*
X47444912Y-4130549D01*
X47385264Y-4137105D01*
X47327353Y-4143769D01*
X47301502Y-4146875D01*
X47251443Y-4152673D01*
X47197969Y-4158328D01*
X47149004Y-4163022D01*
X47124962Y-4165048D01*
X47089011Y-4168836D01*
X47061859Y-4173662D01*
X47047136Y-4178813D01*
X47045583Y-4180588D01*
X47035836Y-4213043D01*
X47022143Y-4255366D01*
X47006654Y-4301170D01*
X46991517Y-4344066D01*
X46981756Y-4370311D01*
X46959203Y-4428906D01*
X46596484Y-4428906D01*
X46519027Y-4428815D01*
X46447225Y-4428556D01*
X46382878Y-4428148D01*
X46327783Y-4427611D01*
X46283737Y-4426963D01*
X46252540Y-4426225D01*
X46235987Y-4425416D01*
X46233764Y-4424982D01*
X46238386Y-4416513D01*
X46250632Y-4397612D01*
X46268074Y-4372002D01*
X46272342Y-4365871D01*
X46318505Y-4293005D01*
X46361466Y-4212500D01*
X46396620Y-4133111D01*
X46401345Y-4120738D01*
X46414914Y-4081543D01*
X46428479Y-4037689D01*
X46440874Y-3993514D01*
X46450937Y-3953355D01*
X46457503Y-3921549D01*
X46459465Y-3904209D01*
X46465601Y-3893383D01*
X46484043Y-3870969D01*
X46514842Y-3836913D01*
X46558050Y-3791161D01*
X46613718Y-3733658D01*
X46681898Y-3664350D01*
X46762641Y-3583183D01*
X46774979Y-3570842D01*
X47090494Y-3255416D01*
X47141743Y-3260976D01*
G37*
G36*
X43999639Y-1822836D02*
G01*
X44021345Y-1839780D01*
X44053524Y-1865252D01*
X44093237Y-1896893D01*
X44137547Y-1932343D01*
X44183515Y-1969245D01*
X44228203Y-2005237D01*
X44268674Y-2037961D01*
X44301989Y-2065057D01*
X44325209Y-2084166D01*
X44328260Y-2086718D01*
X44344977Y-2100392D01*
X44368850Y-2119499D01*
X44384481Y-2131854D01*
X44423270Y-2162342D01*
X44484310Y-2129360D01*
X44524163Y-2108844D01*
X44570224Y-2086624D01*
X44612594Y-2067475D01*
X44613006Y-2067298D01*
X44680662Y-2038217D01*
X44936365Y-2293811D01*
X44991125Y-2348687D01*
X45041871Y-2399811D01*
X45087323Y-2445874D01*
X45126203Y-2485568D01*
X45157232Y-2517585D01*
X45179133Y-2540616D01*
X45190625Y-2553353D01*
X45192069Y-2555438D01*
X45184316Y-2560001D01*
X45164583Y-2564853D01*
X45150835Y-2567064D01*
X45114907Y-2573541D01*
X45068334Y-2584172D01*
X45016879Y-2597430D01*
X44966302Y-2611787D01*
X44922365Y-2625716D01*
X44902240Y-2632978D01*
X44850497Y-2655223D01*
X44792751Y-2683598D01*
X44736639Y-2714161D01*
X44692025Y-2741483D01*
X44647723Y-2770875D01*
X43727012Y-2770875D01*
X43713590Y-2750391D01*
X43699197Y-2730440D01*
X43688557Y-2717838D01*
X43679249Y-2707065D01*
X43661324Y-2685406D01*
X43636983Y-2655555D01*
X43608428Y-2620203D01*
X43593495Y-2601599D01*
X43560181Y-2560057D01*
X43526664Y-2518337D01*
X43496302Y-2480614D01*
X43472453Y-2451062D01*
X43467227Y-2444608D01*
X43443744Y-2415227D01*
X43422127Y-2387478D01*
X43406785Y-2367027D01*
X43405974Y-2365894D01*
X43387537Y-2340002D01*
X43946375Y-1781940D01*
X43999639Y-1822836D01*
G37*
G36*
X44799079Y-3385570D02*
G01*
X44844515Y-3307027D01*
X44904303Y-3232749D01*
X44922965Y-3213142D01*
X44996227Y-3148193D01*
X45074591Y-3098372D01*
X45161682Y-3061508D01*
X45191993Y-3052091D01*
X45230488Y-3041676D01*
X45261879Y-3035319D01*
X45292498Y-3032361D01*
X45328680Y-3032136D01*
X45368694Y-3033609D01*
X45444680Y-3040402D01*
X45509780Y-3054262D01*
X45569605Y-3076849D01*
X45629767Y-3109819D01*
X45632636Y-3111614D01*
X45698065Y-3162727D01*
X45753904Y-3226867D01*
X45798566Y-3301653D01*
X45830460Y-3384704D01*
X45839762Y-3421934D01*
X45846273Y-3464489D01*
X45849766Y-3513030D01*
X45850375Y-3563399D01*
X45848233Y-3611438D01*
X45843476Y-3652990D01*
X45836236Y-3683897D01*
X45830955Y-3695305D01*
X45816686Y-3717081D01*
X45018453Y-3717081D01*
X45018758Y-3753975D01*
X45027273Y-3836733D01*
X45050601Y-3914112D01*
X45087517Y-3984060D01*
X45136797Y-4044523D01*
X45197217Y-4093449D01*
X45233520Y-4114090D01*
X45261996Y-4127878D01*
X45284378Y-4137115D01*
X45305426Y-4142712D01*
X45329902Y-4145581D01*
X45362566Y-4146633D01*
X45404285Y-4146780D01*
X45450102Y-4146456D01*
X45483114Y-4145020D01*
X45507874Y-4141775D01*
X45528932Y-4136026D01*
X45550842Y-4127076D01*
X45559623Y-4123026D01*
X45595629Y-4103171D01*
X45637347Y-4075665D01*
X45679052Y-4044690D01*
X45715018Y-4014427D01*
X45733794Y-3995817D01*
X45751453Y-3981528D01*
X45769974Y-3979619D01*
X45792619Y-3990677D01*
X45817809Y-4010942D01*
X45855488Y-4044379D01*
X45825436Y-4094056D01*
X45767096Y-4174646D01*
X45697621Y-4242689D01*
X45618335Y-4297102D01*
X45530565Y-4336805D01*
X45525949Y-4338394D01*
X45489936Y-4349509D01*
X45456276Y-4356880D01*
X45419096Y-4361392D01*
X45372525Y-4363933D01*
X45352664Y-4364526D01*
X45306701Y-4364919D01*
X45262301Y-4363920D01*
X45225041Y-4361731D01*
X45203548Y-4359155D01*
X45132583Y-4340488D01*
X45059002Y-4310587D01*
X44990105Y-4272474D01*
X44983332Y-4268047D01*
X44914431Y-4212028D01*
X44855671Y-4143162D01*
X44807609Y-4063083D01*
X44770804Y-3973420D01*
X44745815Y-3875808D01*
X44733201Y-3771877D01*
X44733520Y-3663259D01*
X44744205Y-3569508D01*
X44746164Y-3560827D01*
X45018123Y-3560827D01*
X45254840Y-3560778D01*
X45321061Y-3560444D01*
X45382083Y-3559522D01*
X45435409Y-3558095D01*
X45478543Y-3556246D01*
X45508987Y-3554056D01*
X45523217Y-3551936D01*
X45554790Y-3536791D01*
X45574998Y-3511102D01*
X45584829Y-3473168D01*
X45586157Y-3443636D01*
X45577183Y-3381917D01*
X45552521Y-3324558D01*
X45513732Y-3273975D01*
X45462382Y-3232584D01*
X45442002Y-3220858D01*
X45396730Y-3205332D01*
X45343364Y-3199705D01*
X45287986Y-3203851D01*
X45236678Y-3217645D01*
X45219364Y-3225467D01*
X45162167Y-3264370D01*
X45112313Y-3316730D01*
X45072078Y-3379399D01*
X45043741Y-3449227D01*
X45036211Y-3478633D01*
X45029880Y-3508036D01*
X45024373Y-3533202D01*
X45022562Y-3541295D01*
X45018123Y-3560827D01*
X44746164Y-3560827D01*
X44766230Y-3471891D01*
X44799079Y-3385570D01*
G37*
G36*
X45716129Y-1405820D02*
G01*
X45718964Y-1428051D01*
X45722866Y-1462314D01*
X45727254Y-1503354D01*
X45730357Y-1533862D01*
X45735749Y-1585769D01*
X45742305Y-1645418D01*
X45748969Y-1703329D01*
X45752075Y-1729180D01*
X45757873Y-1779238D01*
X45763528Y-1832712D01*
X45768222Y-1881677D01*
X45770248Y-1905720D01*
X45774038Y-1941689D01*
X45778864Y-1968835D01*
X45784018Y-1983536D01*
X45785788Y-1985077D01*
X45811513Y-1992828D01*
X45847308Y-2004449D01*
X45888394Y-2018295D01*
X45929997Y-2032718D01*
X45967339Y-2046074D01*
X45995644Y-2056715D01*
X46005894Y-2060931D01*
X46042787Y-2077224D01*
X46042787Y-2441411D01*
X46042737Y-2519022D01*
X46042594Y-2590974D01*
X46042370Y-2655474D01*
X46042073Y-2710729D01*
X46041717Y-2754946D01*
X46041310Y-2786330D01*
X46040864Y-2803090D01*
X46040617Y-2805430D01*
X46033035Y-2800747D01*
X46014392Y-2788281D01*
X45987870Y-2770176D01*
X45969000Y-2757155D01*
X45852910Y-2687075D01*
X45727306Y-2630675D01*
X45594593Y-2589008D01*
X45574024Y-2584048D01*
X45508918Y-2568963D01*
X45185544Y-2246759D01*
X44862169Y-1924554D01*
X44867019Y-1881122D01*
X44869997Y-1854777D01*
X44874354Y-1816632D01*
X44879468Y-1772132D01*
X44883927Y-1733520D01*
X44889996Y-1679811D01*
X44896518Y-1620021D01*
X44902525Y-1563105D01*
X44905500Y-1533862D01*
X44909887Y-1491196D01*
X44914203Y-1451563D01*
X44917865Y-1420215D01*
X44919752Y-1405820D01*
X44924491Y-1373267D01*
X45711391Y-1373267D01*
X45716129Y-1405820D01*
G37*
G36*
X44139245Y-2987991D02*
G01*
X44215280Y-2988306D01*
X44276501Y-2988878D01*
X44324182Y-2989746D01*
X44359596Y-2990948D01*
X44384016Y-2992523D01*
X44398717Y-2994510D01*
X44404971Y-2996946D01*
X44405138Y-2998746D01*
X44397093Y-3010892D01*
X44382163Y-3032721D01*
X44363443Y-3059711D01*
X44361708Y-3062196D01*
X44317958Y-3131343D01*
X44276461Y-3208839D01*
X44241855Y-3285836D01*
X44234536Y-3304743D01*
X44222163Y-3340461D01*
X44209292Y-3381703D01*
X44197104Y-3424159D01*
X44186780Y-3463519D01*
X44179500Y-3495473D01*
X44176444Y-3515711D01*
X44176416Y-3516932D01*
X44170396Y-3526452D01*
X44153274Y-3546554D01*
X44126462Y-3575839D01*
X44091372Y-3612905D01*
X44049413Y-3656354D01*
X44001996Y-3704785D01*
X43950534Y-3756800D01*
X43896436Y-3810997D01*
X43841113Y-3865978D01*
X43785977Y-3920343D01*
X43732438Y-3972692D01*
X43681907Y-4021625D01*
X43635796Y-4065743D01*
X43595514Y-4103646D01*
X43562474Y-4133934D01*
X43538085Y-4155207D01*
X43523759Y-4166066D01*
X43520973Y-4167182D01*
X43499374Y-4165205D01*
X43477613Y-4162864D01*
X43399679Y-4153858D01*
X43336092Y-4146564D01*
X43283957Y-4140661D01*
X43240379Y-4135827D01*
X43202464Y-4131740D01*
X43167316Y-4128078D01*
X43139062Y-4125220D01*
X43096397Y-4120817D01*
X43056765Y-4116488D01*
X43025416Y-4112819D01*
X43011020Y-4110929D01*
X42978467Y-4106191D01*
X42978467Y-3319291D01*
X43011020Y-3314552D01*
X43033251Y-3311718D01*
X43067514Y-3307815D01*
X43108554Y-3303427D01*
X43139062Y-3300325D01*
X43190969Y-3294932D01*
X43250618Y-3288377D01*
X43308529Y-3281713D01*
X43334380Y-3278607D01*
X43384438Y-3272808D01*
X43437912Y-3267154D01*
X43486877Y-3262460D01*
X43510920Y-3260434D01*
X43546889Y-3256644D01*
X43574035Y-3251817D01*
X43588736Y-3246664D01*
X43590277Y-3244893D01*
X43598028Y-3219168D01*
X43609649Y-3183374D01*
X43623495Y-3142287D01*
X43637918Y-3100684D01*
X43651274Y-3063342D01*
X43661915Y-3035037D01*
X43666131Y-3024788D01*
X43682424Y-2987895D01*
X44047123Y-2987895D01*
X44139245Y-2987991D01*
G37*
G36*
X44616092Y-4633589D02*
G01*
X44637921Y-4648519D01*
X44664911Y-4667238D01*
X44667396Y-4668974D01*
X44736543Y-4712723D01*
X44814039Y-4754221D01*
X44891036Y-4788826D01*
X44909943Y-4796145D01*
X44945661Y-4808519D01*
X44986903Y-4821390D01*
X45029359Y-4833577D01*
X45068719Y-4843902D01*
X45100673Y-4851182D01*
X45120911Y-4854237D01*
X45122132Y-4854265D01*
X45130724Y-4860242D01*
X45150336Y-4877408D01*
X45179774Y-4904616D01*
X45217840Y-4940718D01*
X45263340Y-4984568D01*
X45315077Y-5035018D01*
X45371855Y-5090920D01*
X45432480Y-5151128D01*
X45455220Y-5173841D01*
X45774708Y-5493416D01*
X45769361Y-5540604D01*
X45766165Y-5568614D01*
X45761618Y-5608212D01*
X45756372Y-5653738D01*
X45751954Y-5691962D01*
X45745885Y-5745671D01*
X45739364Y-5805460D01*
X45733356Y-5862377D01*
X45730382Y-5891620D01*
X45725994Y-5934285D01*
X45721678Y-5973918D01*
X45718017Y-6005267D01*
X45716129Y-6019661D01*
X45711391Y-6052214D01*
X44924491Y-6052214D01*
X44919752Y-6019661D01*
X44916918Y-5997430D01*
X44913015Y-5963168D01*
X44908627Y-5922127D01*
X44905525Y-5891620D01*
X44900132Y-5839712D01*
X44893577Y-5780064D01*
X44886913Y-5722153D01*
X44883807Y-5696302D01*
X44878008Y-5646243D01*
X44872354Y-5592769D01*
X44867660Y-5543804D01*
X44865634Y-5519762D01*
X44861844Y-5483793D01*
X44857017Y-5456647D01*
X44851864Y-5441945D01*
X44850093Y-5440404D01*
X44824368Y-5432654D01*
X44788574Y-5421032D01*
X44747487Y-5407187D01*
X44705884Y-5392763D01*
X44668542Y-5379408D01*
X44640237Y-5368767D01*
X44629988Y-5364551D01*
X44593095Y-5348258D01*
X44593095Y-4983558D01*
X44593191Y-4891436D01*
X44593506Y-4815402D01*
X44594078Y-4754181D01*
X44594946Y-4706500D01*
X44596148Y-4671086D01*
X44597723Y-4646665D01*
X44599710Y-4631965D01*
X44602146Y-4625710D01*
X44603946Y-4625543D01*
X44616092Y-4633589D01*
G37*
D11*
%TO.C,J1*%
X44860000Y-10640000D02*
X68920000Y-10640000D01*
X43860000Y-10640000D02*
X42800000Y-10640000D01*
X44860000Y-10640000D02*
X44860000Y-8520000D01*
X68920000Y-10640000D02*
X68920000Y-8520000D01*
X44860000Y-8520000D02*
X68920000Y-8520000D01*
X42800000Y-10640000D02*
X42800000Y-9580000D01*
%TD*%
%LPC*%
D12*
%TO.C,SW7*%
X86321103Y-40115000D03*
D13*
X82675677Y-39938692D03*
D14*
X82121498Y-38393783D03*
D15*
X86454133Y-35715000D03*
D16*
X84125040Y-33515001D03*
D17*
X83707617Y-41215000D03*
D18*
X83083550Y-34508353D03*
D19*
X86591794Y-37915000D03*
D20*
X82633447Y-35198014D03*
D21*
X85542520Y-33515000D03*
D22*
X83642485Y-33903526D03*
D23*
X83137995Y-40620226D03*
D24*
X82333644Y-39189534D03*
D25*
X82106878Y-36752551D03*
D26*
X82304814Y-35953147D03*
D27*
X82045196Y-37573781D03*
D28*
X89794960Y-33515000D03*
D29*
X91868726Y-37778251D03*
D30*
X91379841Y-35380064D03*
D31*
X90958825Y-34672271D03*
D32*
X91140385Y-40114879D03*
D33*
X88294815Y-41215000D03*
D34*
X91676768Y-36148218D03*
D35*
X91758369Y-38594368D03*
D36*
X87425842Y-39015000D03*
D37*
X90212383Y-41215000D03*
D38*
X90650109Y-40776585D03*
D39*
X91513295Y-39380602D03*
D40*
X90425541Y-34044710D03*
D41*
X87353270Y-36815000D03*
D42*
X91841269Y-36955166D03*
D43*
X87688315Y-34615000D03*
%TD*%
D44*
%TO.C,SW3*%
X17370000Y-33400000D03*
X21130000Y-33400000D03*
%TD*%
D45*
%TO.C,SW5*%
X50181725Y-34328834D03*
D46*
X47864433Y-35092500D03*
D45*
X51401725Y-32215732D03*
X48961725Y-36441936D03*
X46521725Y-40668140D03*
X47741725Y-38555038D03*
X48188275Y-40221589D03*
X50628275Y-35995385D03*
X49408275Y-38108487D03*
D46*
X51735567Y-37327500D03*
D45*
X51848275Y-33882283D03*
X53068275Y-31769181D03*
%TD*%
D27*
%TO.C,SW9*%
X103725196Y-10113781D03*
D13*
X104355677Y-12478692D03*
D26*
X103984814Y-8493147D03*
D12*
X108001103Y-12655000D03*
D17*
X105387617Y-13755000D03*
D18*
X104763550Y-7048353D03*
D21*
X107222520Y-6055000D03*
D20*
X104313447Y-7738014D03*
D25*
X103786878Y-9292551D03*
D22*
X105322485Y-6443526D03*
D15*
X108134133Y-8255000D03*
D24*
X104013644Y-11729534D03*
D19*
X108271794Y-10455000D03*
D23*
X104817995Y-13160226D03*
D14*
X103801498Y-10933783D03*
D16*
X105805040Y-6055001D03*
D43*
X109368315Y-7155000D03*
D34*
X113356768Y-8688218D03*
D28*
X111474960Y-6055000D03*
D42*
X113521269Y-9495166D03*
D38*
X112330109Y-13316585D03*
D39*
X113193295Y-11920602D03*
D35*
X113438369Y-11134368D03*
D36*
X109105842Y-11555000D03*
D30*
X113059841Y-7920064D03*
D29*
X113548726Y-10318251D03*
D33*
X109974815Y-13755000D03*
D41*
X109033270Y-9355000D03*
D40*
X112105541Y-6584710D03*
D32*
X112820385Y-12654879D03*
D31*
X112638825Y-7212271D03*
D37*
X111892383Y-13755000D03*
%TD*%
D45*
%TO.C,SW6*%
X58731725Y-40668140D03*
D46*
X60074433Y-35092500D03*
D45*
X63611725Y-32215732D03*
X59951725Y-38555038D03*
X62391725Y-34328834D03*
X61171725Y-36441936D03*
X62838275Y-35995385D03*
X65278275Y-31769181D03*
X61618275Y-38108487D03*
X60398275Y-40221589D03*
X64058275Y-33882283D03*
D46*
X63945567Y-37327500D03*
%TD*%
D47*
%TO.C,SW1*%
X9280000Y-21550000D03*
X9280000Y-25310000D03*
%TD*%
D44*
%TO.C,SW2*%
X17370000Y-13460000D03*
X21130000Y-13460000D03*
%TD*%
D47*
%TO.C,SW4*%
X29220000Y-25310000D03*
X29220000Y-21550000D03*
%TD*%
D27*
%TO.C,SW8*%
X92095196Y-23183781D03*
D12*
X96371103Y-25725000D03*
D17*
X93757617Y-26825000D03*
D26*
X92354814Y-21563147D03*
D14*
X92171498Y-24003783D03*
D22*
X93692485Y-19513526D03*
D18*
X93133550Y-20118353D03*
D15*
X96504133Y-21325000D03*
D23*
X93187995Y-26230226D03*
D20*
X92683447Y-20808014D03*
D13*
X92725677Y-25548692D03*
D21*
X95592520Y-19125000D03*
D16*
X94175040Y-19125001D03*
D24*
X92383644Y-24799534D03*
D25*
X92156878Y-22362551D03*
D19*
X96641794Y-23525000D03*
D38*
X100700109Y-26386585D03*
D34*
X101726768Y-21758218D03*
D39*
X101563295Y-24990602D03*
D31*
X101008825Y-20282271D03*
D33*
X98344815Y-26825000D03*
D37*
X100262383Y-26825000D03*
D32*
X101190385Y-25724879D03*
D36*
X97475842Y-24625000D03*
D40*
X100475541Y-19654710D03*
D42*
X101891269Y-22565166D03*
D41*
X97403270Y-22425000D03*
D29*
X101918726Y-23388251D03*
D35*
X101808369Y-24204368D03*
D30*
X101429841Y-20990064D03*
D43*
X97738315Y-20225000D03*
D28*
X99844960Y-19125000D03*
%TD*%
D48*
%TO.C,J1*%
X43860000Y-9580000D03*
D49*
X45860000Y-9580000D03*
X47860000Y-9580000D03*
X49860000Y-9580000D03*
X51860000Y-9580000D03*
X53860000Y-9580000D03*
X55860000Y-9580000D03*
X57860000Y-9580000D03*
X59860000Y-9580000D03*
X61860000Y-9580000D03*
X63860000Y-9580000D03*
X65860000Y-9580000D03*
X67860000Y-9580000D03*
%TD*%
M02*
