%TF.GenerationSoftware,KiCad,Pcbnew,(6.0.0)*%
%TF.CreationDate,2022-03-13T17:59:30-04:00*%
%TF.ProjectId,team tap,7465616d-2074-4617-902e-6b696361645f,rev?*%
%TF.SameCoordinates,Original*%
%TF.FileFunction,Soldermask,Top*%
%TF.FilePolarity,Negative*%
%FSLAX46Y46*%
G04 Gerber Fmt 4.6, Leading zero omitted, Abs format (unit mm)*
G04 Created by KiCad (PCBNEW (6.0.0)) date 2022-03-13 17:59:30*
%MOMM*%
%LPD*%
G01*
G04 APERTURE LIST*
%ADD10C,1.400000*%
%ADD11O,1.400000X1.400000*%
%ADD12R,1.600000X1.600000*%
%ADD13O,1.600000X1.600000*%
%ADD14C,1.600000*%
%ADD15R,1.700000X1.700000*%
%ADD16O,1.700000X1.700000*%
%ADD17C,4.000000*%
G04 APERTURE END LIST*
D10*
%TO.C,R5*%
X137160000Y-147320000D03*
D11*
X137160000Y-144780000D03*
%TD*%
D12*
%TO.C,D22*%
X129540000Y-158750000D03*
D13*
X129540000Y-151130000D03*
%TD*%
D12*
%TO.C,D16*%
X134620000Y-142240000D03*
D13*
X142240000Y-142240000D03*
%TD*%
D12*
%TO.C,D20*%
X124460000Y-158750000D03*
D13*
X124460000Y-151130000D03*
%TD*%
D12*
%TO.C,D11*%
X68580000Y-158750000D03*
D13*
X68580000Y-151130000D03*
%TD*%
D12*
%TO.C,D3*%
X35560000Y-158750000D03*
D13*
X35560000Y-151130000D03*
%TD*%
D12*
%TO.C,C3*%
X26670000Y-127000000D03*
D14*
X26670000Y-129500000D03*
%TD*%
D12*
%TO.C,D12*%
X73660000Y-158750000D03*
D13*
X73660000Y-151130000D03*
%TD*%
D12*
%TO.C,D2*%
X38100000Y-158750000D03*
D13*
X38100000Y-151130000D03*
%TD*%
D10*
%TO.C,R4*%
X147320000Y-147320000D03*
D11*
X147320000Y-144780000D03*
%TD*%
D10*
%TO.C,R7*%
X116840000Y-128270000D03*
D11*
X119380000Y-128270000D03*
%TD*%
D14*
%TO.C,C2*%
X31750000Y-125730000D03*
X31750000Y-130730000D03*
%TD*%
D15*
%TO.C,P1*%
X67290000Y-127010000D03*
D16*
X64750000Y-127010000D03*
X62210000Y-127010000D03*
X59670000Y-127010000D03*
X57130000Y-127010000D03*
X54590000Y-127010000D03*
X52050000Y-127010000D03*
X49510000Y-127010000D03*
X46970000Y-127010000D03*
X44430000Y-127010000D03*
X41890000Y-127010000D03*
X39350000Y-127010000D03*
X36810000Y-127010000D03*
%TD*%
D12*
%TO.C,U2*%
X58415000Y-130820000D03*
D13*
X55875000Y-130820000D03*
X53335000Y-130820000D03*
X50795000Y-130820000D03*
X48255000Y-130820000D03*
X45715000Y-130820000D03*
X43175000Y-130820000D03*
X40635000Y-130820000D03*
X38095000Y-130820000D03*
X35555000Y-130820000D03*
X35555000Y-138440000D03*
X38095000Y-138440000D03*
X40635000Y-138440000D03*
X43175000Y-138440000D03*
X45715000Y-138440000D03*
X48255000Y-138440000D03*
X50795000Y-138440000D03*
X53335000Y-138440000D03*
X55875000Y-138440000D03*
X58415000Y-138440000D03*
%TD*%
D12*
%TO.C,D9*%
X63500000Y-158750000D03*
D13*
X63500000Y-151130000D03*
%TD*%
D12*
%TO.C,D15*%
X99060000Y-158750000D03*
D13*
X99060000Y-151130000D03*
%TD*%
D17*
%TO.C,SCK2*%
X56065000Y-170879669D03*
X81065000Y-170879669D03*
D12*
X72880000Y-169459669D03*
D14*
X70590000Y-169459669D03*
X68300000Y-169459669D03*
X66010000Y-169459669D03*
X63720000Y-169459669D03*
X74025000Y-171439669D03*
X71735000Y-171439669D03*
X69445000Y-171439669D03*
X67155000Y-171439669D03*
X64865000Y-171439669D03*
X72880000Y-173419669D03*
X70590000Y-173419669D03*
X68300000Y-173419669D03*
X66010000Y-173419669D03*
X63720000Y-173419669D03*
%TD*%
D12*
%TO.C,D10*%
X66040000Y-158750000D03*
D13*
X66040000Y-151130000D03*
%TD*%
D12*
%TO.C,D19*%
X109220000Y-158750000D03*
D13*
X109220000Y-151130000D03*
%TD*%
D17*
%TO.C,SCK3*%
X89085000Y-170879669D03*
X114085000Y-170879669D03*
D12*
X105900000Y-169459669D03*
D14*
X103610000Y-169459669D03*
X101320000Y-169459669D03*
X99030000Y-169459669D03*
X96740000Y-169459669D03*
X107045000Y-171439669D03*
X104755000Y-171439669D03*
X102465000Y-171439669D03*
X100175000Y-171439669D03*
X97885000Y-171439669D03*
X105900000Y-173419669D03*
X103610000Y-173419669D03*
X101320000Y-173419669D03*
X99030000Y-173419669D03*
X96740000Y-173419669D03*
%TD*%
D12*
%TO.C,D21*%
X127000000Y-158750000D03*
D13*
X127000000Y-151130000D03*
%TD*%
D10*
%TO.C,R2*%
X142240000Y-147320000D03*
D11*
X142240000Y-144780000D03*
%TD*%
D12*
%TO.C,D4*%
X33020000Y-158750000D03*
D13*
X33020000Y-151130000D03*
%TD*%
D12*
%TO.C,D8*%
X60960000Y-158750000D03*
D13*
X60960000Y-151130000D03*
%TD*%
D12*
%TO.C,D17*%
X101600000Y-158750000D03*
D13*
X101600000Y-151130000D03*
%TD*%
D12*
%TO.C,D24*%
X134620000Y-158750000D03*
D13*
X134620000Y-151130000D03*
%TD*%
D12*
%TO.C,D14*%
X96520000Y-158750000D03*
D13*
X96520000Y-151130000D03*
%TD*%
D14*
%TO.C,C1*%
X139700000Y-138390000D03*
X139700000Y-133390000D03*
%TD*%
D10*
%TO.C,R3*%
X144780000Y-147320000D03*
D11*
X144780000Y-144780000D03*
%TD*%
D12*
%TO.C,U1*%
X104135000Y-146055000D03*
D13*
X106675000Y-146055000D03*
X109215000Y-146055000D03*
X111755000Y-146055000D03*
X114295000Y-146055000D03*
X116835000Y-146055000D03*
X119375000Y-146055000D03*
X121915000Y-146055000D03*
X124455000Y-146055000D03*
X126995000Y-146055000D03*
X129535000Y-146055000D03*
X132075000Y-146055000D03*
X132075000Y-130815000D03*
X129535000Y-130815000D03*
X126995000Y-130815000D03*
X124455000Y-130815000D03*
X121915000Y-130815000D03*
X119375000Y-130815000D03*
X116835000Y-130815000D03*
X114295000Y-130815000D03*
X111755000Y-130815000D03*
X109215000Y-130815000D03*
X106675000Y-130815000D03*
X104135000Y-130815000D03*
%TD*%
D12*
%TO.C,D1*%
X43180000Y-158750000D03*
D13*
X43180000Y-151130000D03*
%TD*%
D12*
%TO.C,D23*%
X132080000Y-158750000D03*
D13*
X132080000Y-151130000D03*
%TD*%
D17*
%TO.C,SCK4*%
X147105000Y-170879669D03*
X122105000Y-170879669D03*
D12*
X138920000Y-169459669D03*
D14*
X136630000Y-169459669D03*
X134340000Y-169459669D03*
X132050000Y-169459669D03*
X129760000Y-169459669D03*
X140065000Y-171439669D03*
X137775000Y-171439669D03*
X135485000Y-171439669D03*
X133195000Y-171439669D03*
X130905000Y-171439669D03*
X138920000Y-173419669D03*
X136630000Y-173419669D03*
X134340000Y-173419669D03*
X132050000Y-173419669D03*
X129760000Y-173419669D03*
%TD*%
D12*
%TO.C,D25*%
X139140000Y-158750000D03*
D13*
X139140000Y-151130000D03*
%TD*%
D12*
%TO.C,D18*%
X104140000Y-158750000D03*
D13*
X104140000Y-151130000D03*
%TD*%
D12*
%TO.C,D7*%
X58420000Y-158750000D03*
D13*
X58420000Y-151130000D03*
%TD*%
D10*
%TO.C,R6*%
X148590000Y-142240000D03*
D11*
X146050000Y-142240000D03*
%TD*%
D12*
%TO.C,D5*%
X30480000Y-158750000D03*
D13*
X30480000Y-151130000D03*
%TD*%
D12*
%TO.C,D6*%
X27940000Y-158750000D03*
D13*
X27940000Y-151130000D03*
%TD*%
D12*
%TO.C,D13*%
X93980000Y-158750000D03*
D13*
X93980000Y-151130000D03*
%TD*%
D17*
%TO.C,SCK1*%
X48045000Y-170879669D03*
X23045000Y-170879669D03*
D12*
X39860000Y-169459669D03*
D14*
X37570000Y-169459669D03*
X35280000Y-169459669D03*
X32990000Y-169459669D03*
X30700000Y-169459669D03*
X41005000Y-171439669D03*
X38715000Y-171439669D03*
X36425000Y-171439669D03*
X34135000Y-171439669D03*
X31845000Y-171439669D03*
X39860000Y-173419669D03*
X37570000Y-173419669D03*
X35280000Y-173419669D03*
X32990000Y-173419669D03*
X30700000Y-173419669D03*
%TD*%
D10*
%TO.C,R1*%
X139700000Y-147320000D03*
D11*
X139700000Y-144780000D03*
%TD*%
M02*
