%FSLAX45Y45*%
G04 Gerber Fmt 4.5, Leading zero omitted, Abs format (unit mm)*
G04 Created by KiCad (PCBNEW (6.0.0)) date 2022-03-13 17:59:33*
%MOMM*%
%LPD*%
G01*
G04 APERTURE LIST*
%TA.AperFunction,Profile*%
%ADD10C,0.100000*%
%TD*%
%ADD11C,0.200000*%
G04 APERTURE END LIST*
D10*
X15240000Y-13208000D02*
X15240000Y-12700000D01*
X9906000Y-12319000D02*
X9906000Y-12573000D01*
X15240000Y-12319000D02*
X15240000Y-12573000D01*
X6985000Y-13716000D02*
X6985000Y-12573000D01*
X9906000Y-12573000D02*
X9906000Y-13716000D01*
X1778000Y-12319000D02*
X1778000Y-18161000D01*
X2159000Y-12319000D02*
X1778000Y-12319000D01*
X9906000Y-12319000D02*
X15240000Y-12319000D01*
X2540000Y-12319000D02*
X2159000Y-12319000D01*
X15240000Y-18161000D02*
X15240000Y-13208000D01*
X1778000Y-18161000D02*
X15240000Y-18161000D01*
X15240000Y-12700000D02*
X15240000Y-12573000D01*
X9906000Y-13716000D02*
X6985000Y-13716000D01*
X6985000Y-12573000D02*
X6985000Y-12319000D01*
X6985000Y-12319000D02*
X2540000Y-12319000D01*
D11*
X2030619Y-18476476D02*
X2030619Y-18276476D01*
X2078238Y-18276476D01*
X2106810Y-18286000D01*
X2125857Y-18305048D01*
X2135381Y-18324095D01*
X2144905Y-18362190D01*
X2144905Y-18390762D01*
X2135381Y-18428857D01*
X2125857Y-18447905D01*
X2106810Y-18466952D01*
X2078238Y-18476476D01*
X2030619Y-18476476D01*
X2230619Y-18476476D02*
X2230619Y-18343143D01*
X2230619Y-18381238D02*
X2240143Y-18362190D01*
X2249667Y-18352667D01*
X2268714Y-18343143D01*
X2287762Y-18343143D01*
X2354429Y-18476476D02*
X2354429Y-18343143D01*
X2354429Y-18276476D02*
X2344905Y-18286000D01*
X2354429Y-18295524D01*
X2363952Y-18286000D01*
X2354429Y-18276476D01*
X2354429Y-18295524D01*
X2478238Y-18476476D02*
X2459190Y-18466952D01*
X2449667Y-18447905D01*
X2449667Y-18276476D01*
X2583000Y-18476476D02*
X2563952Y-18466952D01*
X2554429Y-18447905D01*
X2554429Y-18276476D01*
X2811571Y-18476476D02*
X2811571Y-18276476D01*
X2878238Y-18419333D01*
X2944905Y-18276476D01*
X2944905Y-18476476D01*
X3125857Y-18476476D02*
X3125857Y-18371714D01*
X3116333Y-18352667D01*
X3097286Y-18343143D01*
X3059190Y-18343143D01*
X3040143Y-18352667D01*
X3125857Y-18466952D02*
X3106809Y-18476476D01*
X3059190Y-18476476D01*
X3040143Y-18466952D01*
X3030619Y-18447905D01*
X3030619Y-18428857D01*
X3040143Y-18409810D01*
X3059190Y-18400286D01*
X3106809Y-18400286D01*
X3125857Y-18390762D01*
X3221095Y-18343143D02*
X3221095Y-18543143D01*
X3221095Y-18352667D02*
X3240143Y-18343143D01*
X3278238Y-18343143D01*
X3297286Y-18352667D01*
X3306809Y-18362190D01*
X3316333Y-18381238D01*
X3316333Y-18438381D01*
X3306809Y-18457429D01*
X3297286Y-18466952D01*
X3278238Y-18476476D01*
X3240143Y-18476476D01*
X3221095Y-18466952D01*
X3402048Y-18457429D02*
X3411571Y-18466952D01*
X3402048Y-18476476D01*
X3392524Y-18466952D01*
X3402048Y-18457429D01*
X3402048Y-18476476D01*
X3402048Y-18352667D02*
X3411571Y-18362190D01*
X3402048Y-18371714D01*
X3392524Y-18362190D01*
X3402048Y-18352667D01*
X3402048Y-18371714D01*
M02*
