M48
; DRILL file {KiCad (6.0.0)} date Sun Mar 13 17:59:32 2022
; FORMAT={-:-/ absolute / metric / decimal}
; #@! TF.CreationDate,2022-03-13T17:59:32-04:00
; #@! TF.GenerationSoftware,Kicad,Pcbnew,(6.0.0)
; #@! TF.FileFunction,Plated,1,2,PTH
FMAT,2
METRIC
; #@! TA.AperFunction,Plated,PTH,ViaDrill
T1C0.400
; #@! TA.AperFunction,Plated,PTH,ComponentDrill
T2C0.700
; #@! TA.AperFunction,Plated,PTH,ComponentDrill
T3C0.800
; #@! TA.AperFunction,Plated,PTH,ComponentDrill
T4C1.000
; #@! TA.AperFunction,Plated,PTH,ComponentDrill
T5C3.200
%
G90
G05
T1
X25.4Y-135.89
X25.4Y-138.43
X25.4Y-140.97
X29.413Y-171.653
X30.48Y-135.89
X30.48Y-138.43
X42.405Y-169.481
X45.771Y-149.911
X45.771Y-158.801
X46.99Y-149.86
X46.99Y-158.75
X48.26Y-149.86
X48.26Y-158.75
X49.53Y-149.86
X49.53Y-158.75
X57.15Y-142.24
X62.865Y-172.085
X75.438Y-169.774
X76.2Y-149.86
X76.276Y-158.674
X78.435Y-158.547
X78.74Y-149.86
X81.051Y-158.648
X81.28Y-149.86
X82.55Y-149.86
X83.033Y-158.547
X95.885Y-172.085
X108.179Y-169.672
X111.76Y-149.86
X111.76Y-158.75
X113.03Y-149.86
X113.03Y-158.75
X114.3Y-149.86
X114.3Y-158.75
X115.57Y-149.86
X115.57Y-158.75
X128.905Y-172.085
X135.89Y-129.54
X138.43Y-129.54
X141.097Y-169.494
T2
X116.84Y-128.27
X119.38Y-128.27
X137.16Y-144.78
X137.16Y-147.32
X139.7Y-144.78
X139.7Y-147.32
X142.24Y-144.78
X142.24Y-147.32
X144.78Y-144.78
X144.78Y-147.32
X146.05Y-142.24
X147.32Y-144.78
X147.32Y-147.32
X148.59Y-142.24
T3
X26.67Y-127.0
X26.67Y-129.5
X27.94Y-151.13
X27.94Y-158.75
X30.48Y-151.13
X30.48Y-158.75
X31.75Y-125.73
X31.75Y-130.73
X33.02Y-151.13
X33.02Y-158.75
X35.555Y-130.82
X35.555Y-138.44
X35.56Y-151.13
X35.56Y-158.75
X38.095Y-130.82
X38.095Y-138.44
X38.1Y-151.13
X38.1Y-158.75
X40.635Y-130.82
X40.635Y-138.44
X43.175Y-130.82
X43.175Y-138.44
X43.18Y-151.13
X43.18Y-158.75
X45.715Y-130.82
X45.715Y-138.44
X48.255Y-130.82
X48.255Y-138.44
X50.795Y-130.82
X50.795Y-138.44
X53.335Y-130.82
X53.335Y-138.44
X55.875Y-130.82
X55.875Y-138.44
X58.415Y-130.82
X58.415Y-138.44
X58.42Y-151.13
X58.42Y-158.75
X60.96Y-151.13
X60.96Y-158.75
X63.5Y-151.13
X63.5Y-158.75
X66.04Y-151.13
X66.04Y-158.75
X68.58Y-151.13
X68.58Y-158.75
X73.66Y-151.13
X73.66Y-158.75
X93.98Y-151.13
X93.98Y-158.75
X96.52Y-151.13
X96.52Y-158.75
X99.06Y-151.13
X99.06Y-158.75
X101.6Y-151.13
X101.6Y-158.75
X104.135Y-130.815
X104.135Y-146.055
X104.14Y-151.13
X104.14Y-158.75
X106.675Y-130.815
X106.675Y-146.055
X109.215Y-130.815
X109.215Y-146.055
X109.22Y-151.13
X109.22Y-158.75
X111.755Y-130.815
X111.755Y-146.055
X114.295Y-130.815
X114.295Y-146.055
X116.835Y-130.815
X116.835Y-146.055
X119.375Y-130.815
X119.375Y-146.055
X121.915Y-130.815
X121.915Y-146.055
X124.455Y-130.815
X124.455Y-146.055
X124.46Y-151.13
X124.46Y-158.75
X126.995Y-130.815
X126.995Y-146.055
X127.0Y-151.13
X127.0Y-158.75
X129.535Y-130.815
X129.535Y-146.055
X129.54Y-151.13
X129.54Y-158.75
X132.075Y-130.815
X132.075Y-146.055
X132.08Y-151.13
X132.08Y-158.75
X134.62Y-142.24
X134.62Y-151.13
X134.62Y-158.75
X139.14Y-151.13
X139.14Y-158.75
X139.7Y-133.39
X139.7Y-138.39
X142.24Y-142.24
T4
X30.7Y-169.46
X30.7Y-173.42
X31.845Y-171.44
X32.99Y-169.46
X32.99Y-173.42
X34.135Y-171.44
X35.28Y-169.46
X35.28Y-173.42
X36.425Y-171.44
X36.81Y-127.01
X37.57Y-169.46
X37.57Y-173.42
X38.715Y-171.44
X39.35Y-127.01
X39.86Y-169.46
X39.86Y-173.42
X41.005Y-171.44
X41.89Y-127.01
X44.43Y-127.01
X46.97Y-127.01
X49.51Y-127.01
X52.05Y-127.01
X54.59Y-127.01
X57.13Y-127.01
X59.67Y-127.01
X62.21Y-127.01
X63.72Y-169.46
X63.72Y-173.42
X64.75Y-127.01
X64.865Y-171.44
X66.01Y-169.46
X66.01Y-173.42
X67.155Y-171.44
X67.29Y-127.01
X68.3Y-169.46
X68.3Y-173.42
X69.445Y-171.44
X70.59Y-169.46
X70.59Y-173.42
X71.735Y-171.44
X72.88Y-169.46
X72.88Y-173.42
X74.025Y-171.44
X96.74Y-169.46
X96.74Y-173.42
X97.885Y-171.44
X99.03Y-169.46
X99.03Y-173.42
X100.175Y-171.44
X101.32Y-169.46
X101.32Y-173.42
X102.465Y-171.44
X103.61Y-169.46
X103.61Y-173.42
X104.755Y-171.44
X105.9Y-169.46
X105.9Y-173.42
X107.045Y-171.44
X129.76Y-169.46
X129.76Y-173.42
X130.905Y-171.44
X132.05Y-169.46
X132.05Y-173.42
X133.195Y-171.44
X134.34Y-169.46
X134.34Y-173.42
X135.485Y-171.44
X136.63Y-169.46
X136.63Y-173.42
X137.775Y-171.44
X138.92Y-169.46
X138.92Y-173.42
X140.065Y-171.44
T5
X23.045Y-170.88
X48.045Y-170.88
X56.065Y-170.88
X81.065Y-170.88
X89.085Y-170.88
X114.085Y-170.88
X122.105Y-170.88
X147.105Y-170.88
T0
M30
