%TF.GenerationSoftware,KiCad,Pcbnew,(6.0.0)*%
%TF.CreationDate,2022-03-13T17:59:30-04:00*%
%TF.ProjectId,team tap,7465616d-2074-4617-902e-6b696361645f,rev?*%
%TF.SameCoordinates,Original*%
%TF.FileFunction,Copper,L2,Bot*%
%TF.FilePolarity,Positive*%
%FSLAX46Y46*%
G04 Gerber Fmt 4.6, Leading zero omitted, Abs format (unit mm)*
G04 Created by KiCad (PCBNEW (6.0.0)) date 2022-03-13 17:59:30*
%MOMM*%
%LPD*%
G01*
G04 APERTURE LIST*
%TA.AperFunction,ComponentPad*%
%ADD10C,1.400000*%
%TD*%
%TA.AperFunction,ComponentPad*%
%ADD11O,1.400000X1.400000*%
%TD*%
%TA.AperFunction,ComponentPad*%
%ADD12R,1.600000X1.600000*%
%TD*%
%TA.AperFunction,ComponentPad*%
%ADD13O,1.600000X1.600000*%
%TD*%
%TA.AperFunction,ComponentPad*%
%ADD14C,1.600000*%
%TD*%
%TA.AperFunction,ComponentPad*%
%ADD15R,1.700000X1.700000*%
%TD*%
%TA.AperFunction,ComponentPad*%
%ADD16O,1.700000X1.700000*%
%TD*%
%TA.AperFunction,ComponentPad*%
%ADD17C,4.000000*%
%TD*%
%TA.AperFunction,ViaPad*%
%ADD18C,0.800000*%
%TD*%
%TA.AperFunction,Conductor*%
%ADD19C,0.250000*%
%TD*%
%TA.AperFunction,Conductor*%
%ADD20C,0.700000*%
%TD*%
G04 APERTURE END LIST*
D10*
%TO.P,R5,1*%
%TO.N,/int8*%
X137160000Y-147320000D03*
D11*
%TO.P,R5,2*%
%TO.N,+5V*%
X137160000Y-144780000D03*
%TD*%
D12*
%TO.P,D22,1,K*%
%TO.N,Net-(D22-Pad1)*%
X129540000Y-158750000D03*
D13*
%TO.P,D22,2,A*%
%TO.N,/int12*%
X129540000Y-151130000D03*
%TD*%
D12*
%TO.P,D16,1,K*%
%TO.N,/s10*%
X134620000Y-142240000D03*
D13*
%TO.P,D16,2,A*%
%TO.N,/int6*%
X142240000Y-142240000D03*
%TD*%
D12*
%TO.P,D20,1,K*%
%TO.N,Net-(SCK4-Pad6)*%
X124460000Y-158750000D03*
D13*
%TO.P,D20,2,A*%
%TO.N,/int6*%
X124460000Y-151130000D03*
%TD*%
D12*
%TO.P,D11,1,K*%
%TO.N,Net-(D11-Pad1)*%
X68580000Y-158750000D03*
D13*
%TO.P,D11,2,A*%
%TO.N,/int10*%
X68580000Y-151130000D03*
%TD*%
D12*
%TO.P,D3,1,K*%
%TO.N,Net-(D3-Pad1)*%
X35560000Y-158750000D03*
D13*
%TO.P,D3,2,A*%
%TO.N,/int 11*%
X35560000Y-151130000D03*
%TD*%
D12*
%TO.P,C3,1*%
%TO.N,+5V*%
X26670000Y-127000000D03*
D14*
%TO.P,C3,2*%
%TO.N,GND*%
X26670000Y-129500000D03*
%TD*%
D12*
%TO.P,D12,1,K*%
%TO.N,Net-(D12-Pad1)*%
X73660000Y-158750000D03*
D13*
%TO.P,D12,2,A*%
%TO.N,/int8*%
X73660000Y-151130000D03*
%TD*%
D12*
%TO.P,D2,1,K*%
%TO.N,Net-(D2-Pad1)*%
X38100000Y-158750000D03*
D13*
%TO.P,D2,2,A*%
%TO.N,/int10*%
X38100000Y-151130000D03*
%TD*%
D10*
%TO.P,R4,1*%
%TO.N,/int9*%
X147320000Y-147320000D03*
D11*
%TO.P,R4,2*%
%TO.N,+5V*%
X147320000Y-144780000D03*
%TD*%
D10*
%TO.P,R7,1*%
%TO.N,/JC13*%
X116840000Y-128270000D03*
D11*
%TO.P,R7,2*%
%TO.N,GND*%
X119380000Y-128270000D03*
%TD*%
D14*
%TO.P,C2,1*%
%TO.N,+5V*%
X31750000Y-125730000D03*
%TO.P,C2,2*%
%TO.N,GND*%
X31750000Y-130730000D03*
%TD*%
D15*
%TO.P,P1,1,Pin_1*%
%TO.N,/JC1*%
X67290000Y-127010000D03*
D16*
%TO.P,P1,2,Pin_2*%
%TO.N,/JC2*%
X64750000Y-127010000D03*
%TO.P,P1,3,Pin_3*%
%TO.N,/JC3*%
X62210000Y-127010000D03*
%TO.P,P1,4,Pin_4*%
%TO.N,/JC4*%
X59670000Y-127010000D03*
%TO.P,P1,5,Pin_5*%
%TO.N,+5V*%
X57130000Y-127010000D03*
%TO.P,P1,6,Pin_6*%
%TO.N,/JC6*%
X54590000Y-127010000D03*
%TO.P,P1,7,Pin_7*%
%TO.N,GND*%
X52050000Y-127010000D03*
%TO.P,P1,8,Pin_8*%
%TO.N,/JC8*%
X49510000Y-127010000D03*
%TO.P,P1,9,Pin_9*%
%TO.N,/JC9*%
X46970000Y-127010000D03*
%TO.P,P1,10,Pin_10*%
%TO.N,/JC10*%
X44430000Y-127010000D03*
%TO.P,P1,11,Pin_11*%
%TO.N,/JC11*%
X41890000Y-127010000D03*
%TO.P,P1,12,Pin_12*%
%TO.N,/JC12*%
X39350000Y-127010000D03*
%TO.P,P1,13,Pin_13*%
%TO.N,/JC13*%
X36810000Y-127010000D03*
%TD*%
D12*
%TO.P,U2,1,1OE*%
%TO.N,GND*%
X58415000Y-130820000D03*
D13*
%TO.P,U2,2,1A0*%
%TO.N,/int6*%
X55875000Y-130820000D03*
%TO.P,U2,3,2Y0*%
%TO.N,unconnected-(U2-Pad3)*%
X53335000Y-130820000D03*
%TO.P,U2,4,1A1*%
%TO.N,/int8*%
X50795000Y-130820000D03*
%TO.P,U2,5,2Y1*%
%TO.N,unconnected-(U2-Pad5)*%
X48255000Y-130820000D03*
%TO.P,U2,6,1A2*%
%TO.N,/int9*%
X45715000Y-130820000D03*
%TO.P,U2,7,2Y2*%
%TO.N,/JC10*%
X43175000Y-130820000D03*
%TO.P,U2,8,1A3*%
%TO.N,/int12*%
X40635000Y-130820000D03*
%TO.P,U2,9,2Y3*%
%TO.N,/JC11*%
X38095000Y-130820000D03*
%TO.P,U2,10,GND*%
%TO.N,GND*%
X35555000Y-130820000D03*
%TO.P,U2,11,2A3*%
%TO.N,/int 11*%
X35555000Y-138440000D03*
%TO.P,U2,12,1Y3*%
%TO.N,/JC12*%
X38095000Y-138440000D03*
%TO.P,U2,13,2A2*%
%TO.N,/int10*%
X40635000Y-138440000D03*
%TO.P,U2,14,1Y2*%
%TO.N,/JC9*%
X43175000Y-138440000D03*
%TO.P,U2,15,2A1*%
%TO.N,GND*%
X45715000Y-138440000D03*
%TO.P,U2,16,1Y1*%
%TO.N,/JC8*%
X48255000Y-138440000D03*
%TO.P,U2,17,2A0*%
%TO.N,GND*%
X50795000Y-138440000D03*
%TO.P,U2,18,1Y0*%
%TO.N,/JC6*%
X53335000Y-138440000D03*
%TO.P,U2,19,2OE*%
%TO.N,GND*%
X55875000Y-138440000D03*
%TO.P,U2,20,VCC*%
%TO.N,+5V*%
X58415000Y-138440000D03*
%TD*%
D12*
%TO.P,D9,1,K*%
%TO.N,Net-(D9-Pad1)*%
X63500000Y-158750000D03*
D13*
%TO.P,D9,2,A*%
%TO.N,/int12*%
X63500000Y-151130000D03*
%TD*%
D12*
%TO.P,D15,1,K*%
%TO.N,Net-(SCK3-Pad12)*%
X99060000Y-158750000D03*
D13*
%TO.P,D15,2,A*%
%TO.N,/int12*%
X99060000Y-151130000D03*
%TD*%
D17*
%TO.P,SCK2,0*%
%TO.N,GND*%
X56065000Y-170879669D03*
X81065000Y-170879669D03*
D12*
%TO.P,SCK2,1*%
%TO.N,/s3*%
X72880000Y-169459669D03*
D14*
%TO.P,SCK2,2*%
%TO.N,/s2*%
X70590000Y-169459669D03*
%TO.P,SCK2,3*%
%TO.N,/s1*%
X68300000Y-169459669D03*
%TO.P,SCK2,4*%
%TO.N,/s0*%
X66010000Y-169459669D03*
%TO.P,SCK2,5*%
%TO.N,unconnected-(SCK2-Pad5)*%
X63720000Y-169459669D03*
%TO.P,SCK2,6*%
%TO.N,Net-(SCK2-Pad6)*%
X74025000Y-171439669D03*
%TO.P,SCK2,7*%
%TO.N,Net-(SCK4-Pad7)*%
X71735000Y-171439669D03*
%TO.P,SCK2,8*%
X69445000Y-171439669D03*
%TO.P,SCK2,9*%
%TO.N,GND*%
X67155000Y-171439669D03*
%TO.P,SCK2,10*%
%TO.N,Net-(D12-Pad1)*%
X64865000Y-171439669D03*
%TO.P,SCK2,11*%
%TO.N,Net-(D8-Pad1)*%
X72880000Y-173419669D03*
%TO.P,SCK2,12*%
%TO.N,Net-(D9-Pad1)*%
X70590000Y-173419669D03*
%TO.P,SCK2,13*%
%TO.N,Net-(D10-Pad1)*%
X68300000Y-173419669D03*
%TO.P,SCK2,14*%
%TO.N,Net-(D11-Pad1)*%
X66010000Y-173419669D03*
%TO.P,SCK2,15*%
%TO.N,unconnected-(SCK2-Pad15)*%
X63720000Y-173419669D03*
%TD*%
D12*
%TO.P,D10,1,K*%
%TO.N,Net-(D10-Pad1)*%
X66040000Y-158750000D03*
D13*
%TO.P,D10,2,A*%
%TO.N,/int 11*%
X66040000Y-151130000D03*
%TD*%
D12*
%TO.P,D19,1,K*%
%TO.N,Net-(SCK3-Pad10)*%
X109220000Y-158750000D03*
D13*
%TO.P,D19,2,A*%
%TO.N,/int8*%
X109220000Y-151130000D03*
%TD*%
D17*
%TO.P,SCK3,0*%
%TO.N,GND*%
X89085000Y-170879669D03*
X114085000Y-170879669D03*
D12*
%TO.P,SCK3,1*%
%TO.N,/s8*%
X105900000Y-169459669D03*
D14*
%TO.P,SCK3,2*%
%TO.N,/s6*%
X103610000Y-169459669D03*
%TO.P,SCK3,3*%
%TO.N,/s5*%
X101320000Y-169459669D03*
%TO.P,SCK3,4*%
%TO.N,/s4*%
X99030000Y-169459669D03*
%TO.P,SCK3,5*%
%TO.N,unconnected-(SCK3-Pad5)*%
X96740000Y-169459669D03*
%TO.P,SCK3,6*%
%TO.N,Net-(SCK3-Pad6)*%
X107045000Y-171439669D03*
%TO.P,SCK3,7*%
%TO.N,Net-(SCK4-Pad7)*%
X104755000Y-171439669D03*
%TO.P,SCK3,8*%
X102465000Y-171439669D03*
%TO.P,SCK3,9*%
%TO.N,GND*%
X100175000Y-171439669D03*
%TO.P,SCK3,10*%
%TO.N,Net-(SCK3-Pad10)*%
X97885000Y-171439669D03*
%TO.P,SCK3,11*%
%TO.N,Net-(SCK3-Pad11)*%
X105900000Y-173419669D03*
%TO.P,SCK3,12*%
%TO.N,Net-(SCK3-Pad12)*%
X103610000Y-173419669D03*
%TO.P,SCK3,13*%
%TO.N,Net-(SCK3-Pad13)*%
X101320000Y-173419669D03*
%TO.P,SCK3,14*%
%TO.N,Net-(SCK3-Pad14)*%
X99030000Y-173419669D03*
%TO.P,SCK3,15*%
%TO.N,unconnected-(SCK3-Pad15)*%
X96740000Y-173419669D03*
%TD*%
D12*
%TO.P,D21,1,K*%
%TO.N,Net-(D21-Pad1)*%
X127000000Y-158750000D03*
D13*
%TO.P,D21,2,A*%
%TO.N,/int9*%
X127000000Y-151130000D03*
%TD*%
D10*
%TO.P,R2,1*%
%TO.N,/int 11*%
X142240000Y-147320000D03*
D11*
%TO.P,R2,2*%
%TO.N,+5V*%
X142240000Y-144780000D03*
%TD*%
D12*
%TO.P,D4,1,K*%
%TO.N,Net-(D4-Pad1)*%
X33020000Y-158750000D03*
D13*
%TO.P,D4,2,A*%
%TO.N,/int12*%
X33020000Y-151130000D03*
%TD*%
D12*
%TO.P,D8,1,K*%
%TO.N,Net-(D8-Pad1)*%
X60960000Y-158750000D03*
D13*
%TO.P,D8,2,A*%
%TO.N,/int9*%
X60960000Y-151130000D03*
%TD*%
D12*
%TO.P,D17,1,K*%
%TO.N,Net-(SCK3-Pad13)*%
X101600000Y-158750000D03*
D13*
%TO.P,D17,2,A*%
%TO.N,/int 11*%
X101600000Y-151130000D03*
%TD*%
D12*
%TO.P,D24,1,K*%
%TO.N,Net-(D24-Pad1)*%
X134620000Y-158750000D03*
D13*
%TO.P,D24,2,A*%
%TO.N,/int10*%
X134620000Y-151130000D03*
%TD*%
D12*
%TO.P,D14,1,K*%
%TO.N,Net-(SCK3-Pad11)*%
X96520000Y-158750000D03*
D13*
%TO.P,D14,2,A*%
%TO.N,/int9*%
X96520000Y-151130000D03*
%TD*%
D14*
%TO.P,C1,1*%
%TO.N,+5V*%
X139700000Y-138390000D03*
%TO.P,C1,2*%
%TO.N,GND*%
X139700000Y-133390000D03*
%TD*%
D10*
%TO.P,R3,1*%
%TO.N,/int12*%
X144780000Y-147320000D03*
D11*
%TO.P,R3,2*%
%TO.N,+5V*%
X144780000Y-144780000D03*
%TD*%
D12*
%TO.P,U1,1,S0*%
%TO.N,/s0*%
X104135000Y-146055000D03*
D13*
%TO.P,U1,2,S1*%
%TO.N,/s1*%
X106675000Y-146055000D03*
%TO.P,U1,3,S2*%
%TO.N,/s2*%
X109215000Y-146055000D03*
%TO.P,U1,4,S3*%
%TO.N,/s3*%
X111755000Y-146055000D03*
%TO.P,U1,5,S4*%
%TO.N,/s4*%
X114295000Y-146055000D03*
%TO.P,U1,6,S5*%
%TO.N,/s5*%
X116835000Y-146055000D03*
%TO.P,U1,7,S6*%
%TO.N,/s6*%
X119375000Y-146055000D03*
%TO.P,U1,8,S7*%
%TO.N,/s7*%
X121915000Y-146055000D03*
%TO.P,U1,9,S8*%
%TO.N,/s8*%
X124455000Y-146055000D03*
%TO.P,U1,10,S9*%
%TO.N,/s9*%
X126995000Y-146055000D03*
%TO.P,U1,11,S10*%
%TO.N,/s10*%
X129535000Y-146055000D03*
%TO.P,U1,12,GND*%
%TO.N,GND*%
X132075000Y-146055000D03*
%TO.P,U1,13,S11*%
%TO.N,/s11*%
X132075000Y-130815000D03*
%TO.P,U1,14,S12*%
%TO.N,/s12*%
X129535000Y-130815000D03*
%TO.P,U1,15,S13*%
%TO.N,/s13*%
X126995000Y-130815000D03*
%TO.P,U1,16,S14*%
%TO.N,/s14*%
X124455000Y-130815000D03*
%TO.P,U1,17,S15*%
%TO.N,/s15*%
X121915000Y-130815000D03*
%TO.P,U1,18,E0*%
%TO.N,/JC13*%
X119375000Y-130815000D03*
%TO.P,U1,19,E1*%
X116835000Y-130815000D03*
%TO.P,U1,20,A3*%
%TO.N,/JC1*%
X114295000Y-130815000D03*
%TO.P,U1,21,A2*%
%TO.N,/JC2*%
X111755000Y-130815000D03*
%TO.P,U1,22,A1*%
%TO.N,/JC3*%
X109215000Y-130815000D03*
%TO.P,U1,23,A0*%
%TO.N,/JC4*%
X106675000Y-130815000D03*
%TO.P,U1,24,VCC*%
%TO.N,+5V*%
X104135000Y-130815000D03*
%TD*%
D12*
%TO.P,D1,1,K*%
%TO.N,Net-(D1-Pad1)*%
X43180000Y-158750000D03*
D13*
%TO.P,D1,2,A*%
%TO.N,/int8*%
X43180000Y-151130000D03*
%TD*%
D12*
%TO.P,D23,1,K*%
%TO.N,Net-(D23-Pad1)*%
X132080000Y-158750000D03*
D13*
%TO.P,D23,2,A*%
%TO.N,/int 11*%
X132080000Y-151130000D03*
%TD*%
D17*
%TO.P,SCK4,0*%
%TO.N,GND*%
X147105000Y-170879669D03*
X122105000Y-170879669D03*
D12*
%TO.P,SCK4,1*%
%TO.N,/s15*%
X138920000Y-169459669D03*
D14*
%TO.P,SCK4,2*%
%TO.N,/s12*%
X136630000Y-169459669D03*
%TO.P,SCK4,3*%
%TO.N,/s10*%
X134340000Y-169459669D03*
%TO.P,SCK4,4*%
%TO.N,/s9*%
X132050000Y-169459669D03*
%TO.P,SCK4,5*%
%TO.N,unconnected-(SCK4-Pad5)*%
X129760000Y-169459669D03*
%TO.P,SCK4,6*%
%TO.N,Net-(SCK4-Pad6)*%
X140065000Y-171439669D03*
%TO.P,SCK4,7*%
%TO.N,Net-(SCK4-Pad7)*%
X137775000Y-171439669D03*
%TO.P,SCK4,8*%
X135485000Y-171439669D03*
%TO.P,SCK4,9*%
%TO.N,GND*%
X133195000Y-171439669D03*
%TO.P,SCK4,10*%
%TO.N,Net-(SCK4-Pad10)*%
X130905000Y-171439669D03*
%TO.P,SCK4,11*%
%TO.N,Net-(D21-Pad1)*%
X138920000Y-173419669D03*
%TO.P,SCK4,12*%
%TO.N,Net-(D22-Pad1)*%
X136630000Y-173419669D03*
%TO.P,SCK4,13*%
%TO.N,Net-(D23-Pad1)*%
X134340000Y-173419669D03*
%TO.P,SCK4,14*%
%TO.N,Net-(D24-Pad1)*%
X132050000Y-173419669D03*
%TO.P,SCK4,15*%
%TO.N,unconnected-(SCK4-Pad15)*%
X129760000Y-173419669D03*
%TD*%
D12*
%TO.P,D25,1,K*%
%TO.N,Net-(SCK4-Pad10)*%
X139140000Y-158750000D03*
D13*
%TO.P,D25,2,A*%
%TO.N,/int8*%
X139140000Y-151130000D03*
%TD*%
D12*
%TO.P,D18,1,K*%
%TO.N,Net-(SCK3-Pad14)*%
X104140000Y-158750000D03*
D13*
%TO.P,D18,2,A*%
%TO.N,/int10*%
X104140000Y-151130000D03*
%TD*%
D12*
%TO.P,D7,1,K*%
%TO.N,Net-(SCK2-Pad6)*%
X58420000Y-158750000D03*
D13*
%TO.P,D7,2,A*%
%TO.N,/int6*%
X58420000Y-151130000D03*
%TD*%
D10*
%TO.P,R6,1*%
%TO.N,/int6*%
X148590000Y-142240000D03*
D11*
%TO.P,R6,2*%
%TO.N,+5V*%
X146050000Y-142240000D03*
%TD*%
D12*
%TO.P,D5,1,K*%
%TO.N,Net-(D5-Pad1)*%
X30480000Y-158750000D03*
D13*
%TO.P,D5,2,A*%
%TO.N,/int9*%
X30480000Y-151130000D03*
%TD*%
D12*
%TO.P,D6,1,K*%
%TO.N,Net-(D6-Pad1)*%
X27940000Y-158750000D03*
D13*
%TO.P,D6,2,A*%
%TO.N,/int6*%
X27940000Y-151130000D03*
%TD*%
D12*
%TO.P,D13,1,K*%
%TO.N,Net-(SCK3-Pad6)*%
X93980000Y-158750000D03*
D13*
%TO.P,D13,2,A*%
%TO.N,/int6*%
X93980000Y-151130000D03*
%TD*%
D17*
%TO.P,SCK1,0*%
%TO.N,GND*%
X48045000Y-170879669D03*
X23045000Y-170879669D03*
D12*
%TO.P,SCK1,1*%
%TO.N,/s7*%
X39860000Y-169459669D03*
D14*
%TO.P,SCK1,2*%
%TO.N,/s11*%
X37570000Y-169459669D03*
%TO.P,SCK1,3*%
%TO.N,/s13*%
X35280000Y-169459669D03*
%TO.P,SCK1,4*%
%TO.N,/s14*%
X32990000Y-169459669D03*
%TO.P,SCK1,5*%
%TO.N,unconnected-(SCK1-Pad5)*%
X30700000Y-169459669D03*
%TO.P,SCK1,6*%
%TO.N,Net-(D6-Pad1)*%
X41005000Y-171439669D03*
%TO.P,SCK1,7*%
%TO.N,Net-(SCK4-Pad7)*%
X38715000Y-171439669D03*
%TO.P,SCK1,8*%
X36425000Y-171439669D03*
%TO.P,SCK1,9*%
%TO.N,GND*%
X34135000Y-171439669D03*
%TO.P,SCK1,10*%
%TO.N,Net-(D1-Pad1)*%
X31845000Y-171439669D03*
%TO.P,SCK1,11*%
%TO.N,Net-(D5-Pad1)*%
X39860000Y-173419669D03*
%TO.P,SCK1,12*%
%TO.N,Net-(D4-Pad1)*%
X37570000Y-173419669D03*
%TO.P,SCK1,13*%
%TO.N,Net-(D3-Pad1)*%
X35280000Y-173419669D03*
%TO.P,SCK1,14*%
%TO.N,Net-(D2-Pad1)*%
X32990000Y-173419669D03*
%TO.P,SCK1,15*%
%TO.N,unconnected-(SCK1-Pad15)*%
X30700000Y-173419669D03*
%TD*%
D10*
%TO.P,R1,1*%
%TO.N,/int10*%
X139700000Y-147320000D03*
D11*
%TO.P,R1,2*%
%TO.N,+5V*%
X139700000Y-144780000D03*
%TD*%
D18*
%TO.N,+5V*%
X135890000Y-129540000D03*
%TO.N,GND*%
X138430000Y-129540000D03*
X29413200Y-171653200D03*
X128905000Y-172085000D03*
X95885000Y-172085000D03*
X25400000Y-140970000D03*
X62865000Y-172085000D03*
%TO.N,/int12*%
X25400000Y-135890000D03*
X30480000Y-135890000D03*
%TO.N,/int9*%
X30480000Y-138430000D03*
X25400000Y-138430000D03*
%TO.N,/int6*%
X57150000Y-142240000D03*
%TO.N,Net-(SCK4-Pad7)*%
X42405300Y-169481500D03*
X75438000Y-169773600D03*
X141097000Y-169494200D03*
X108178600Y-169672000D03*
%TO.N,/s7*%
X49530000Y-158750000D03*
X49530000Y-149860000D03*
%TO.N,/s11*%
X48260000Y-149860000D03*
X48260000Y-158750000D03*
%TO.N,/s13*%
X46990000Y-149860000D03*
X46990000Y-158750000D03*
%TO.N,/s14*%
X45770800Y-158800800D03*
X45770800Y-149910800D03*
%TO.N,/s3*%
X82550000Y-149860000D03*
X83032600Y-158546800D03*
%TO.N,/s2*%
X81051400Y-158648400D03*
X81280000Y-149860000D03*
%TO.N,/s1*%
X78740000Y-149860000D03*
X78435200Y-158546800D03*
%TO.N,/s0*%
X76200000Y-149860000D03*
X76276200Y-158673800D03*
%TO.N,/s8*%
X115570000Y-158750000D03*
X115570000Y-149860000D03*
%TO.N,/s6*%
X114300000Y-149860000D03*
X114300000Y-158750000D03*
%TO.N,/s5*%
X113030000Y-158750000D03*
X113030000Y-149860000D03*
%TO.N,/s4*%
X111760000Y-149860000D03*
X111760000Y-158750000D03*
%TD*%
D19*
%TO.N,+5V*%
X39313021Y-125385969D02*
X38100000Y-126598990D01*
X58415000Y-138440000D02*
X59539511Y-137315489D01*
X119380000Y-140970000D02*
X120650000Y-139700000D01*
X37211010Y-128270000D02*
X34290000Y-128270000D01*
D20*
X146050000Y-144780000D02*
X147320000Y-144780000D01*
D19*
X55505969Y-125385969D02*
X39313021Y-125385969D01*
D20*
X139700000Y-144780000D02*
X142240000Y-144780000D01*
D19*
X38100000Y-127381010D02*
X37211010Y-128270000D01*
X104135000Y-130815000D02*
X104135000Y-139705000D01*
D20*
X146050000Y-142240000D02*
X146050000Y-144780000D01*
X137160000Y-144780000D02*
X139700000Y-144780000D01*
D19*
X121920000Y-128270000D02*
X133350000Y-128270000D01*
D20*
X142240000Y-144780000D02*
X144780000Y-144780000D01*
D19*
X59539511Y-137315489D02*
X59539511Y-129419511D01*
X102870000Y-140970000D02*
X62230000Y-140970000D01*
X62230000Y-140970000D02*
X59700000Y-138440000D01*
X133350000Y-128270000D02*
X134620000Y-129540000D01*
X59700000Y-138440000D02*
X58415000Y-138440000D01*
X120650000Y-139700000D02*
X120650000Y-129540000D01*
X57130000Y-127010000D02*
X55505969Y-125385969D01*
X34290000Y-128270000D02*
X31750000Y-125730000D01*
X104135000Y-139705000D02*
X102870000Y-140970000D01*
D20*
X139700000Y-138390000D02*
X139700000Y-144780000D01*
X144780000Y-144780000D02*
X146050000Y-144780000D01*
D19*
X38100000Y-126598990D02*
X38100000Y-127381010D01*
X134620000Y-129540000D02*
X135890000Y-129540000D01*
X102870000Y-140970000D02*
X119380000Y-140970000D01*
X120650000Y-129540000D02*
X121920000Y-128270000D01*
X59539511Y-129419511D02*
X57130000Y-127010000D01*
D20*
X27940000Y-125730000D02*
X26670000Y-127000000D01*
X31750000Y-125730000D02*
X27940000Y-125730000D01*
D19*
%TO.N,GND*%
X119829520Y-127820480D02*
X132900480Y-127820480D01*
X135850000Y-133390000D02*
X139700000Y-133390000D01*
X52050000Y-131958400D02*
X52050000Y-127010000D01*
X128185969Y-171365969D02*
X128185969Y-168807683D01*
D20*
X24450489Y-140020489D02*
X25400000Y-140970000D01*
D19*
X100622400Y-132080000D02*
X100622400Y-129244732D01*
X50795000Y-133213400D02*
X52050000Y-131958400D01*
X29125969Y-171365969D02*
X29125969Y-168232031D01*
D20*
X51499669Y-170879669D02*
X52070000Y-170309338D01*
D19*
X78740000Y-138272880D02*
X96520000Y-138272880D01*
X55875000Y-138440000D02*
X58415000Y-135900000D01*
X69029520Y-125226701D02*
X69029520Y-132080000D01*
D20*
X117539669Y-158179669D02*
X116840000Y-157480000D01*
D19*
X106680000Y-157480000D02*
X116840000Y-157480000D01*
X62865000Y-172085000D02*
X62077600Y-171297600D01*
D20*
X48045000Y-170879669D02*
X51499669Y-170879669D01*
D19*
X62077600Y-171297600D02*
X62077600Y-167792400D01*
X128905000Y-172085000D02*
X128185969Y-171365969D01*
X50795000Y-138440000D02*
X50795000Y-133213400D01*
D20*
X24450489Y-155260489D02*
X25400000Y-156210000D01*
D19*
X55955489Y-126694489D02*
X55955489Y-128360489D01*
X52050000Y-127010000D02*
X50875489Y-125835489D01*
X100622400Y-129244732D02*
X102424243Y-127442889D01*
X52070000Y-157530800D02*
X52070000Y-158750000D01*
X40513000Y-157505400D02*
X26695400Y-157505400D01*
X100622400Y-137499010D02*
X100622400Y-132080000D01*
X136710480Y-127820480D02*
X138430000Y-129540000D01*
X52050000Y-127010000D02*
X53224511Y-125835489D01*
X132524520Y-145605480D02*
X132524520Y-136715480D01*
X128185969Y-168807683D02*
X136525000Y-160468652D01*
X132900480Y-127820480D02*
X136710480Y-127820480D01*
X67283071Y-124486929D02*
X26643071Y-124486929D01*
D20*
X24450489Y-140020489D02*
X24450489Y-155260489D01*
D19*
X36652200Y-160705800D02*
X39065200Y-160705800D01*
X132524520Y-136715480D02*
X135850000Y-133390000D01*
X53224511Y-125835489D02*
X55096489Y-125835489D01*
X40513000Y-159258000D02*
X40513000Y-157505400D01*
X29125969Y-168232031D02*
X36652200Y-160705800D01*
X46839511Y-137315489D02*
X45715000Y-138440000D01*
X58415000Y-135900000D02*
X58415000Y-130820000D01*
X48158400Y-129260600D02*
X46839511Y-130579489D01*
X68289748Y-124486929D02*
X69029520Y-125226701D01*
X62077600Y-167792400D02*
X71120000Y-158750000D01*
X118110000Y-127000000D02*
X114300000Y-127000000D01*
D20*
X31840000Y-130820000D02*
X31750000Y-130730000D01*
D19*
X48158400Y-126700590D02*
X48158400Y-129260600D01*
X95165969Y-171365969D02*
X95165969Y-168807683D01*
X55955489Y-128360489D02*
X58415000Y-130820000D01*
D20*
X26670000Y-129500000D02*
X26670000Y-132080000D01*
X25320489Y-125809511D02*
X25400000Y-125730000D01*
D19*
X52070000Y-157530800D02*
X71069200Y-157530800D01*
X103318652Y-160655000D02*
X105410000Y-160655000D01*
X95885000Y-172085000D02*
X95165969Y-171365969D01*
D20*
X52070000Y-170309338D02*
X52070000Y-158750000D01*
D19*
X69029520Y-137609520D02*
X69692880Y-138272880D01*
D20*
X25320489Y-128150489D02*
X25320489Y-125809511D01*
X26670000Y-132080000D02*
X24450489Y-134299511D01*
D19*
X26695400Y-157505400D02*
X25400000Y-156210000D01*
X67283071Y-124486929D02*
X68289748Y-124486929D01*
X95165969Y-168807683D02*
X103318652Y-160655000D01*
D20*
X117539669Y-170879669D02*
X117539669Y-158179669D01*
D19*
X69029520Y-137160000D02*
X69029520Y-137609520D01*
X69029520Y-132080000D02*
X69029520Y-137160000D01*
X114300000Y-127000000D02*
X113857111Y-127442889D01*
D20*
X26670000Y-129500000D02*
X25320489Y-128150489D01*
X84519669Y-158179669D02*
X83820000Y-157480000D01*
D19*
X119380000Y-128270000D02*
X119829520Y-127820480D01*
X49023501Y-125835489D02*
X48158400Y-126700590D01*
X71120000Y-158750000D02*
X71120000Y-157480000D01*
X39065200Y-160705800D02*
X40513000Y-159258000D01*
D20*
X84519669Y-170879669D02*
X84519669Y-158179669D01*
D19*
X106680000Y-159385000D02*
X106680000Y-157480000D01*
X119380000Y-128270000D02*
X118110000Y-127000000D01*
X40513000Y-157505400D02*
X52044600Y-157505400D01*
X52044600Y-157505400D02*
X52070000Y-157530800D01*
X69692880Y-138272880D02*
X78740000Y-138272880D01*
X26643071Y-124486929D02*
X25400000Y-125730000D01*
X50875489Y-125835489D02*
X49023501Y-125835489D01*
X116840000Y-157480000D02*
X136525000Y-157480000D01*
X55096489Y-125835489D02*
X55955489Y-126694489D01*
X132075000Y-146055000D02*
X132524520Y-145605480D01*
D20*
X51499669Y-170879669D02*
X56065000Y-170879669D01*
D19*
X102424243Y-127442889D02*
X113857111Y-127442889D01*
D20*
X84519669Y-170879669D02*
X89085000Y-170879669D01*
D19*
X83820000Y-157480000D02*
X106680000Y-157480000D01*
X46839511Y-130579489D02*
X46839511Y-137315489D01*
X71120000Y-157480000D02*
X83820000Y-157480000D01*
D20*
X24450489Y-134299511D02*
X24450489Y-140020489D01*
X81065000Y-170879669D02*
X84519669Y-170879669D01*
D19*
X99848530Y-138272880D02*
X100622400Y-137499010D01*
X105410000Y-160655000D02*
X106680000Y-159385000D01*
D20*
X114085000Y-170879669D02*
X117539669Y-170879669D01*
D19*
X136525000Y-160468652D02*
X136525000Y-157480000D01*
X29413200Y-171653200D02*
X29125969Y-171365969D01*
D20*
X117539669Y-170879669D02*
X122105000Y-170879669D01*
D19*
X96520000Y-138272880D02*
X99848530Y-138272880D01*
X71069200Y-157530800D02*
X71120000Y-157480000D01*
%TO.N,Net-(D1-Pad1)*%
X42120880Y-161155320D02*
X43180000Y-160096200D01*
X29575489Y-168519111D02*
X31737300Y-166357300D01*
X38234680Y-161155320D02*
X42120880Y-161155320D01*
X31845000Y-171439669D02*
X30713630Y-171439669D01*
X29575489Y-170301528D02*
X29575489Y-168519111D01*
X43180000Y-160096200D02*
X43180000Y-158750000D01*
X38234680Y-161155320D02*
X33032700Y-166357300D01*
X30713630Y-171439669D02*
X29575489Y-170301528D01*
X33032700Y-166357300D02*
X31737300Y-166357300D01*
%TO.N,/int8*%
X100700961Y-148960961D02*
X107050961Y-148960961D01*
X123394911Y-148061920D02*
X126550480Y-148061920D01*
X134170480Y-149410480D02*
X134620000Y-149860000D01*
X109220000Y-151130000D02*
X121231770Y-151130000D01*
X121231770Y-151130000D02*
X121231770Y-150225061D01*
X73660000Y-151130000D02*
X83820000Y-151130000D01*
X43180000Y-151130000D02*
X43180000Y-146050000D01*
X134620000Y-149860000D02*
X137870000Y-149860000D01*
X50795000Y-132075000D02*
X50795000Y-130820000D01*
X127000000Y-148511440D02*
X130732874Y-148511440D01*
X130732874Y-148511440D02*
X131631914Y-149410480D01*
X137870000Y-149860000D02*
X139140000Y-151130000D01*
X98347158Y-148061920D02*
X99246198Y-148960960D01*
X43180000Y-146050000D02*
X49530000Y-139700000D01*
X83820000Y-151130000D02*
X86888079Y-148061921D01*
X57354911Y-148061920D02*
X70591920Y-148061920D01*
X49530000Y-139700000D02*
X49530000Y-133350000D01*
X131631914Y-149410480D02*
X134170480Y-149410480D01*
X121231770Y-150225061D02*
X123394911Y-148061920D01*
X107050961Y-148960961D02*
X109220000Y-151130000D01*
X137160000Y-149150000D02*
X137160000Y-147320000D01*
X70591920Y-148061920D02*
X73660000Y-151130000D01*
X86888079Y-148061921D02*
X98347158Y-148061920D01*
X54286831Y-151130000D02*
X57354911Y-148061920D01*
X49530000Y-133350000D02*
X50800000Y-132080000D01*
X99246198Y-148960960D02*
X100700961Y-148960961D01*
X126550480Y-148061920D02*
X127000000Y-148511440D01*
X50800000Y-132080000D02*
X50795000Y-132075000D01*
X137870000Y-149860000D02*
X137160000Y-149150000D01*
X43180000Y-151130000D02*
X54286831Y-151130000D01*
%TO.N,Net-(D2-Pad1)*%
X31865489Y-174544180D02*
X30234211Y-174544180D01*
X30234211Y-174544180D02*
X28270559Y-172580529D01*
X28270559Y-166675159D02*
X34722518Y-160223200D01*
X28270559Y-172580529D02*
X28270559Y-166675159D01*
X34722518Y-160223200D02*
X36626800Y-160223200D01*
X36626800Y-160223200D02*
X38100000Y-158750000D01*
X32990000Y-173419669D02*
X31865489Y-174544180D01*
%TO.N,/int10*%
X130546677Y-148960960D02*
X131445717Y-149860000D01*
X133350000Y-149860000D02*
X134620000Y-151130000D01*
X31115717Y-134620000D02*
X30480000Y-134620000D01*
X121681290Y-150411258D02*
X123581108Y-148511440D01*
X140264511Y-147884511D02*
X140264511Y-151835489D01*
X139700000Y-152400000D02*
X135890000Y-152400000D01*
X126288594Y-148511440D02*
X126738114Y-148960960D01*
X91361440Y-153748560D02*
X91361440Y-150251107D01*
X34290000Y-138765300D02*
X34290000Y-137794283D01*
X135890000Y-152400000D02*
X134620000Y-151130000D01*
X38417800Y-155257800D02*
X54292200Y-155257800D01*
X104140000Y-151130000D02*
X104140000Y-154861440D01*
X54292200Y-155257800D02*
X55801440Y-153748560D01*
X40635000Y-138440000D02*
X39375000Y-139700000D01*
X121681290Y-153907274D02*
X121681290Y-150411258D01*
X68580000Y-151130000D02*
X68580000Y-154861440D01*
X139700000Y-147320000D02*
X140264511Y-147884511D01*
X35224700Y-139700000D02*
X34290000Y-138765300D01*
X123581108Y-148511440D02*
X126288594Y-148511440D01*
X65961440Y-148511440D02*
X68580000Y-151130000D01*
X102420480Y-149410480D02*
X104140000Y-151130000D01*
X39375000Y-139700000D02*
X35224700Y-139700000D01*
X29210000Y-140970000D02*
X38100000Y-149860000D01*
X34290000Y-137794283D02*
X31115717Y-134620000D01*
X30480000Y-134620000D02*
X29210000Y-135890000D01*
X38100000Y-154940000D02*
X38417800Y-155257800D01*
X98160960Y-148511440D02*
X99060000Y-149410480D01*
X29210000Y-135890000D02*
X29210000Y-140970000D01*
X68580000Y-154861440D02*
X90248560Y-154861440D01*
X57541108Y-148511440D02*
X65961440Y-148511440D01*
X120727124Y-154861440D02*
X121681290Y-153907274D01*
X140264511Y-151835489D02*
X139700000Y-152400000D01*
X55801440Y-150251108D02*
X57541108Y-148511440D01*
X99060000Y-149410480D02*
X102420480Y-149410480D01*
X131445717Y-149860000D02*
X133350000Y-149860000D01*
X38100000Y-149860000D02*
X38100000Y-151130000D01*
X93101108Y-148511440D02*
X98160960Y-148511440D01*
X91361440Y-150251107D02*
X93101108Y-148511440D01*
X38100000Y-151130000D02*
X38100000Y-154940000D01*
X126738114Y-148960960D02*
X130546677Y-148960960D01*
X55801440Y-153748560D02*
X55801440Y-150251108D01*
X104140000Y-154861440D02*
X120727124Y-154861440D01*
X90248560Y-154861440D02*
X91361440Y-153748560D01*
%TO.N,Net-(D3-Pad1)*%
X27821039Y-166488961D02*
X35560000Y-158750000D01*
X30048013Y-174993700D02*
X27821039Y-172766726D01*
X27821039Y-172766726D02*
X27821039Y-166488961D01*
X33705969Y-174993700D02*
X30048013Y-174993700D01*
X35280000Y-173419669D02*
X33705969Y-174993700D01*
%TO.N,/int 11*%
X63870960Y-148960960D02*
X66040000Y-151130000D01*
X139886197Y-152849520D02*
X133799520Y-152849520D01*
X35560000Y-154940000D02*
X36327320Y-155707320D01*
X126102396Y-148960960D02*
X126551916Y-149410480D01*
X91810960Y-154567604D02*
X91810960Y-150437304D01*
X122130810Y-154093472D02*
X122130810Y-150597455D01*
X98425718Y-149860000D02*
X100330000Y-149860000D01*
X57727305Y-148960960D02*
X63870960Y-148960960D01*
X35560000Y-151130000D02*
X35560000Y-154940000D01*
X97526678Y-148960960D02*
X98425718Y-149860000D01*
X55112680Y-155707320D02*
X56250960Y-154569040D01*
X129090480Y-149410480D02*
X129540000Y-149860000D01*
X126551916Y-149410480D02*
X129090480Y-149410480D01*
X66410960Y-155310960D02*
X91067604Y-155310960D01*
X123767305Y-148960960D02*
X126102396Y-148960960D01*
X31301915Y-134170480D02*
X30293803Y-134170480D01*
X122130810Y-150597455D02*
X123767305Y-148960960D01*
X101970960Y-155310960D02*
X120913322Y-155310960D01*
X101600000Y-154940000D02*
X101970960Y-155310960D01*
X28760480Y-135703803D02*
X28760480Y-141790480D01*
X30293803Y-134170480D02*
X28760480Y-135703803D01*
X91810960Y-150437304D02*
X93287304Y-148960960D01*
X142240000Y-150495717D02*
X139886197Y-152849520D01*
X130810000Y-149860000D02*
X132080000Y-151130000D01*
X100330000Y-149860000D02*
X101600000Y-151130000D01*
X35555000Y-138440000D02*
X35555000Y-138423565D01*
X133799520Y-152849520D02*
X132080000Y-151130000D01*
X56250960Y-154569040D02*
X56250960Y-150437305D01*
X56250960Y-150437305D02*
X57727305Y-148960960D01*
X66040000Y-154940000D02*
X66410960Y-155310960D01*
X120913322Y-155310960D02*
X122130810Y-154093472D01*
X35560000Y-148590000D02*
X35560000Y-151130000D01*
X66040000Y-151130000D02*
X66040000Y-154940000D01*
X28760480Y-141790480D02*
X35560000Y-148590000D01*
X91067604Y-155310960D02*
X91810960Y-154567604D01*
X142240000Y-147320000D02*
X142240000Y-150495717D01*
X36327320Y-155707320D02*
X55112680Y-155707320D01*
X93287304Y-148960960D02*
X97526678Y-148960960D01*
X101600000Y-151130000D02*
X101600000Y-154940000D01*
X35555000Y-138423565D02*
X31301915Y-134170480D01*
X129540000Y-149860000D02*
X130810000Y-149860000D01*
%TO.N,/int12*%
X33840480Y-138951497D02*
X33840480Y-137980480D01*
X144780000Y-148591434D02*
X140072394Y-153299040D01*
X40635000Y-135885000D02*
X41910000Y-137160000D01*
X126365718Y-149860000D02*
X128270000Y-149860000D01*
X140072394Y-153299040D02*
X131709040Y-153299040D01*
X41910000Y-139700000D02*
X41460480Y-140149520D01*
X28310960Y-136260960D02*
X28310960Y-141976678D01*
X56700480Y-155389520D02*
X56700480Y-150623502D01*
X34236840Y-156156840D02*
X55933160Y-156156840D01*
X31750000Y-135890000D02*
X30480000Y-135890000D01*
X61780480Y-149410480D02*
X63500000Y-151130000D01*
X92260480Y-150623502D02*
X93473502Y-149410480D01*
X128270000Y-149860000D02*
X129540000Y-151130000D01*
X125916198Y-149410480D02*
X126365718Y-149860000D01*
X33020000Y-151130000D02*
X33020000Y-154940000D01*
X99060000Y-154940000D02*
X99880480Y-155760480D01*
X27940000Y-135890000D02*
X28310960Y-136260960D01*
X99060000Y-151130000D02*
X99060000Y-154940000D01*
X41460480Y-140149520D02*
X35038503Y-140149520D01*
X131709040Y-153299040D02*
X129540000Y-151130000D01*
X28310960Y-141976678D02*
X33020000Y-146685718D01*
X63500000Y-154940000D02*
X64320480Y-155760480D01*
X121099520Y-155760480D02*
X122580330Y-154279670D01*
X92260480Y-154753802D02*
X92260480Y-150623502D01*
X57913502Y-149410480D02*
X61780480Y-149410480D01*
X99880480Y-155760480D02*
X121099520Y-155760480D01*
X41910000Y-137160000D02*
X41910000Y-139700000D01*
X91253802Y-155760480D02*
X92260480Y-154753802D01*
X93473502Y-149410480D02*
X97340480Y-149410480D01*
X63500000Y-151130000D02*
X63500000Y-154940000D01*
X33840480Y-137980480D02*
X31750000Y-135890000D01*
X33020000Y-146685718D02*
X33020000Y-151130000D01*
X64320480Y-155760480D02*
X91253802Y-155760480D01*
X35038503Y-140149520D02*
X33840480Y-138951497D01*
X122580330Y-154279670D02*
X122580330Y-150783652D01*
X122580330Y-150783652D02*
X123953502Y-149410480D01*
X40635000Y-130820000D02*
X40635000Y-135885000D01*
X56700480Y-150623502D02*
X57913502Y-149410480D01*
X123953502Y-149410480D02*
X125916198Y-149410480D01*
X25400000Y-135890000D02*
X27940000Y-135890000D01*
X55933160Y-156156840D02*
X56700480Y-155389520D01*
X97340480Y-149410480D02*
X99060000Y-151130000D01*
X33020000Y-154940000D02*
X34236840Y-156156840D01*
X144780000Y-147320000D02*
X144780000Y-148591434D01*
%TO.N,/int9*%
X97790000Y-156210000D02*
X121920000Y-156210000D01*
X30480000Y-151130000D02*
X30480000Y-154940000D01*
X93659700Y-149860000D02*
X95250000Y-149860000D01*
X56753640Y-156606360D02*
X57150000Y-156210000D01*
X25400000Y-138430000D02*
X26670000Y-138430000D01*
X62230000Y-156210000D02*
X91440000Y-156210000D01*
X44450000Y-134620000D02*
X44450000Y-139700000D01*
X96520000Y-151130000D02*
X96520000Y-154940000D01*
X30480000Y-144781436D02*
X30480000Y-151130000D01*
X60960000Y-151130000D02*
X60960000Y-154940000D01*
X123029850Y-150969850D02*
X123029850Y-155100150D01*
X45715000Y-130820000D02*
X45715000Y-133355000D01*
X57150000Y-150809700D02*
X58099700Y-149860000D01*
X27861440Y-142162876D02*
X30480000Y-144781436D01*
X123029850Y-155100150D02*
X121920000Y-156210000D01*
X147320000Y-147320000D02*
X140891440Y-153748560D01*
X58099700Y-149860000D02*
X59690000Y-149860000D01*
X124139700Y-149860000D02*
X125730000Y-149860000D01*
X123029850Y-150969850D02*
X124139700Y-149860000D01*
X92710000Y-154940000D02*
X92710000Y-150809700D01*
X96520000Y-154940000D02*
X97790000Y-156210000D01*
X91440000Y-156210000D02*
X92710000Y-154940000D01*
X95250000Y-149860000D02*
X96520000Y-151130000D01*
X43550960Y-140599040D02*
X34852305Y-140599040D01*
X34852305Y-140599040D02*
X32683265Y-138430000D01*
X60960000Y-154940000D02*
X62230000Y-156210000D01*
X32683265Y-138430000D02*
X30480000Y-138430000D01*
X125730000Y-149860000D02*
X127000000Y-151130000D01*
X129618560Y-153748560D02*
X127000000Y-151130000D01*
X44450000Y-139700000D02*
X43550960Y-140599040D01*
X140891440Y-153748560D02*
X129618560Y-153748560D01*
X45715000Y-133355000D02*
X44450000Y-134620000D01*
X59690000Y-149860000D02*
X60960000Y-151130000D01*
X27861440Y-139621440D02*
X27861440Y-142162876D01*
X57150000Y-156210000D02*
X57150000Y-150809700D01*
X92710000Y-150809700D02*
X93659700Y-149860000D01*
X32146360Y-156606360D02*
X56753640Y-156606360D01*
X26670000Y-138430000D02*
X27861440Y-139621440D01*
X30480000Y-154940000D02*
X32146360Y-156606360D01*
%TO.N,Net-(D6-Pad1)*%
X38527709Y-176342260D02*
X41005000Y-173864969D01*
X27940000Y-158750000D02*
X27940000Y-164450958D01*
X26472479Y-173325316D02*
X29489423Y-176342260D01*
X26472479Y-165918479D02*
X26472479Y-173325316D01*
X27940000Y-164450958D02*
X26472479Y-165918479D01*
X29489423Y-176342260D02*
X38527709Y-176342260D01*
X41005000Y-173864969D02*
X41005000Y-171439669D01*
%TO.N,/int6*%
X92935000Y-156805480D02*
X93120240Y-156620240D01*
X147565489Y-141215489D02*
X143264511Y-141215489D01*
X28785880Y-157055880D02*
X57574120Y-157055880D01*
X93980000Y-155760480D02*
X93980000Y-151130000D01*
X57574120Y-157055880D02*
X57824520Y-156805480D01*
X124460000Y-155760480D02*
X124460000Y-154940000D01*
X123415000Y-156805480D02*
X124460000Y-155760480D01*
X93120240Y-156620240D02*
X93305480Y-156805480D01*
X142240000Y-154940000D02*
X143510000Y-153670000D01*
X148590000Y-148590000D02*
X143510000Y-153670000D01*
X58420000Y-156210000D02*
X58420000Y-151130000D01*
X55875000Y-130820000D02*
X55875000Y-135895000D01*
X124460000Y-154940000D02*
X142240000Y-154940000D01*
X143264511Y-141215489D02*
X142240000Y-142240000D01*
X93305480Y-156805480D02*
X123415000Y-156805480D01*
X148590000Y-142240000D02*
X148590000Y-148590000D01*
X124460000Y-153670000D02*
X124460000Y-151130000D01*
X54610000Y-137160000D02*
X54610000Y-139700000D01*
X54610000Y-139700000D02*
X57150000Y-142240000D01*
X148590000Y-142240000D02*
X147565489Y-141215489D01*
X57785000Y-156845000D02*
X58420000Y-156210000D01*
X124460000Y-154940000D02*
X124460000Y-153670000D01*
X55875000Y-135895000D02*
X54610000Y-137160000D01*
X27940000Y-156210000D02*
X28785880Y-157055880D01*
X27940000Y-151130000D02*
X27940000Y-156210000D01*
X57574120Y-157055880D02*
X57785000Y-156845000D01*
X93120240Y-156620240D02*
X93980000Y-155760480D01*
X57824520Y-156805480D02*
X92935000Y-156805480D01*
%TO.N,Net-(SCK2-Pad6)*%
X59830000Y-161963400D02*
X58420000Y-160553400D01*
X62501211Y-176346880D02*
X71543089Y-176346880D01*
X59830000Y-161963400D02*
X59830000Y-173675669D01*
X58420000Y-160553400D02*
X58420000Y-158750000D01*
X74025000Y-173864969D02*
X74025000Y-171439669D01*
X59830000Y-173675669D02*
X62501211Y-176346880D01*
X71543089Y-176346880D02*
X74025000Y-173864969D01*
%TO.N,Net-(D12-Pad1)*%
X62595489Y-170301528D02*
X62595489Y-168950911D01*
X71043800Y-160502600D02*
X72593200Y-160502600D01*
X72593200Y-160502600D02*
X73660000Y-159435800D01*
X63733630Y-171439669D02*
X62595489Y-170301528D01*
X73660000Y-159435800D02*
X73660000Y-158750000D01*
X62595489Y-168950911D02*
X71043800Y-160502600D01*
X64865000Y-171439669D02*
X63733630Y-171439669D01*
%TO.N,Net-(SCK3-Pad6)*%
X95529423Y-176342260D02*
X92913200Y-173726037D01*
X107045000Y-171439669D02*
X107045000Y-173864969D01*
X92913200Y-163982400D02*
X93980000Y-162915600D01*
X104567709Y-176342260D02*
X95529423Y-176342260D01*
X92913200Y-173726037D02*
X92913200Y-163982400D01*
X107045000Y-173864969D02*
X104567709Y-176342260D01*
X93980000Y-162915600D02*
X93980000Y-158750000D01*
%TO.N,/s10*%
X137609520Y-136710480D02*
X134620000Y-139700000D01*
X133350000Y-147320000D02*
X133350000Y-144780000D01*
X150309520Y-153490150D02*
X150309520Y-140783803D01*
X129535000Y-146055000D02*
X130800000Y-147320000D01*
X134340000Y-169459669D02*
X150309520Y-153490150D01*
X134620000Y-143510000D02*
X133350000Y-144780000D01*
X150309520Y-140783803D02*
X146236198Y-136710480D01*
X146236198Y-136710480D02*
X137609520Y-136710480D01*
X130800000Y-147320000D02*
X133350000Y-147320000D01*
X134620000Y-139700000D02*
X134620000Y-142240000D01*
X134620000Y-142240000D02*
X134620000Y-143510000D01*
%TO.N,Net-(SCK3-Pad10)*%
X95615489Y-168993880D02*
X103386298Y-161223071D01*
X97129700Y-171439669D02*
X95615489Y-169925459D01*
X97885000Y-171439669D02*
X97129700Y-171439669D01*
X103386298Y-161223071D02*
X107095671Y-161223071D01*
X109220000Y-159098742D02*
X109220000Y-158750000D01*
X95615489Y-169925459D02*
X95615489Y-168993880D01*
X107095671Y-161223071D02*
X109220000Y-159098742D01*
%TO.N,Net-(SCK4-Pad6)*%
X140065000Y-171439669D02*
X140065000Y-173864969D01*
X124460000Y-172252839D02*
X124460000Y-158750000D01*
X128619021Y-176411860D02*
X124460000Y-172252839D01*
X140065000Y-173864969D02*
X137518109Y-176411860D01*
X137518109Y-176411860D02*
X128619021Y-176411860D01*
%TO.N,Net-(SCK4-Pad10)*%
X128635489Y-168993881D02*
X138879369Y-158750000D01*
X130905000Y-171439669D02*
X129773630Y-171439669D01*
X129773630Y-171439669D02*
X128635489Y-170301529D01*
X138879369Y-158750000D02*
X139140000Y-158750000D01*
X128635489Y-170301529D02*
X128635489Y-168993881D01*
%TO.N,/JC1*%
X101521440Y-137871406D02*
X101521440Y-129617126D01*
X102796637Y-128341929D02*
X111821929Y-128341929D01*
X101521440Y-129617126D02*
X102796637Y-128341929D01*
X67290000Y-129520000D02*
X67310000Y-129540000D01*
X68051920Y-139171920D02*
X100220926Y-139171920D01*
X100220926Y-139171920D02*
X101521440Y-137871406D01*
X111821929Y-128341929D02*
X114295000Y-130815000D01*
X67310000Y-129540000D02*
X67310000Y-138430000D01*
X67310000Y-138430000D02*
X68051920Y-139171920D01*
X67290000Y-127010000D02*
X67290000Y-129520000D01*
%TO.N,/JC2*%
X64750000Y-127010000D02*
X64750000Y-130790000D01*
X102982834Y-128791449D02*
X109731449Y-128791449D01*
X109731449Y-128791449D02*
X111755000Y-130815000D01*
X64750000Y-137140000D02*
X67231440Y-139621440D01*
X101970960Y-138057604D02*
X101970960Y-129803323D01*
X64750000Y-130790000D02*
X64750000Y-137140000D01*
X100407124Y-139621440D02*
X101970960Y-138057604D01*
X101970960Y-129803323D02*
X102982834Y-128791449D01*
X67231440Y-139621440D02*
X100407124Y-139621440D01*
%TO.N,/JC3*%
X102420480Y-138243802D02*
X102420480Y-129989520D01*
X102420480Y-129989520D02*
X103169031Y-129240969D01*
X103169031Y-129240969D02*
X105759691Y-129240969D01*
X62210000Y-137140000D02*
X65140960Y-140070960D01*
X100593322Y-140070960D02*
X102420480Y-138243802D01*
X108090489Y-129690489D02*
X109215000Y-130815000D01*
X105759691Y-129240969D02*
X106209211Y-129690489D01*
X65140960Y-140070960D02*
X100593322Y-140070960D01*
X106209211Y-129690489D02*
X108090489Y-129690489D01*
X62210000Y-127010000D02*
X62210000Y-137140000D01*
%TO.N,/JC4*%
X102870000Y-138430000D02*
X100779520Y-140520480D01*
X64320480Y-140520480D02*
X60960000Y-137160000D01*
X60960000Y-129540000D02*
X60960000Y-130810000D01*
X106675000Y-130815000D02*
X105550489Y-129690489D01*
X60960000Y-137160000D02*
X60960000Y-130810000D01*
X103669211Y-129690489D02*
X102870000Y-130489700D01*
X102870000Y-130489700D02*
X102870000Y-138430000D01*
X59670000Y-127010000D02*
X59670000Y-128250000D01*
X59670000Y-128250000D02*
X60960000Y-129540000D01*
X100779520Y-140520480D02*
X64320480Y-140520480D01*
X105550489Y-129690489D02*
X103669211Y-129690489D01*
%TO.N,/JC6*%
X53335000Y-132872400D02*
X53335000Y-138440000D01*
X54590000Y-127010000D02*
X54590000Y-131617400D01*
X54590000Y-131617400D02*
X53335000Y-132872400D01*
%TO.N,/JC8*%
X49510000Y-131744400D02*
X49510000Y-127010000D01*
X48255000Y-132999400D02*
X49510000Y-131744400D01*
X48255000Y-138440000D02*
X48255000Y-132999400D01*
%TO.N,/JC9*%
X44424600Y-131876800D02*
X44424600Y-129555400D01*
X44424600Y-129555400D02*
X46970000Y-127010000D01*
X43175000Y-133126400D02*
X44424600Y-131876800D01*
X43175000Y-138440000D02*
X43175000Y-133126400D01*
%TO.N,/JC10*%
X43175000Y-130820000D02*
X43175000Y-128265000D01*
X43175000Y-128265000D02*
X44430000Y-127010000D01*
%TO.N,/JC11*%
X41890000Y-127010000D02*
X41890000Y-128906278D01*
X39219511Y-129695489D02*
X38095000Y-130820000D01*
X41100789Y-129695489D02*
X39219511Y-129695489D01*
X41890000Y-128906278D02*
X41100789Y-129695489D01*
%TO.N,/JC12*%
X39350000Y-127974700D02*
X39350000Y-127010000D01*
X36880800Y-131196100D02*
X36880800Y-130443900D01*
X36880800Y-130443900D02*
X39350000Y-127974700D01*
X38095000Y-132410300D02*
X36880800Y-131196100D01*
X38095000Y-138440000D02*
X38095000Y-132410300D01*
%TO.N,/JC13*%
X116840000Y-128270000D02*
X116840000Y-130810000D01*
X100034728Y-138722400D02*
X101071920Y-137685208D01*
X101071920Y-129430929D02*
X102610440Y-127892409D01*
X68580000Y-138430000D02*
X68872400Y-138722400D01*
X101071920Y-137685208D02*
X101071920Y-129430929D01*
X36810000Y-127010000D02*
X38883551Y-124936449D01*
X116835000Y-130815000D02*
X119375000Y-130815000D01*
X68580000Y-125412898D02*
X68580000Y-138430000D01*
X68103551Y-124936449D02*
X68580000Y-125412898D01*
X116840000Y-130810000D02*
X116835000Y-130815000D01*
X68872400Y-138722400D02*
X100034728Y-138722400D01*
X38883551Y-124936449D02*
X68103551Y-124936449D01*
X102610440Y-127892409D02*
X113912409Y-127892409D01*
X113912409Y-127892409D02*
X116835000Y-130815000D01*
%TO.N,Net-(SCK4-Pad7)*%
X75425600Y-176796400D02*
X45402200Y-176796400D01*
X36425000Y-171439669D02*
X38715000Y-171439669D01*
X75438000Y-176784000D02*
X75425600Y-176796400D01*
X108051600Y-176809400D02*
X108051600Y-176885600D01*
X137680086Y-176885600D02*
X108051600Y-176885600D01*
X135485000Y-171439669D02*
X137775000Y-171439669D01*
X141189511Y-173376175D02*
X137680086Y-176885600D01*
X108051600Y-176885600D02*
X107962400Y-176796400D01*
X108178600Y-169672000D02*
X108178600Y-176682400D01*
X75438000Y-169773600D02*
X75438000Y-176784000D01*
X141097000Y-169494200D02*
X141189511Y-169586711D01*
X108178600Y-176682400D02*
X108051600Y-176809400D01*
X69445000Y-171439669D02*
X71735000Y-171439669D01*
X42392600Y-169494200D02*
X42392600Y-173786800D01*
X141189511Y-169586711D02*
X141189511Y-173376175D01*
X107962400Y-176796400D02*
X75425600Y-176796400D01*
X45402200Y-176796400D02*
X42392600Y-173786800D01*
X102465000Y-171439669D02*
X104755000Y-171439669D01*
%TO.N,/s7*%
X39860000Y-169459669D02*
X40090331Y-169459669D01*
X120790489Y-144930489D02*
X59539511Y-144930489D01*
X49530000Y-160020000D02*
X49530000Y-158750000D01*
X54610000Y-149860000D02*
X49530000Y-149860000D01*
X40090331Y-169459669D02*
X49530000Y-160020000D01*
X59539511Y-144930489D02*
X54610000Y-149860000D01*
X121915000Y-146055000D02*
X120790489Y-144930489D01*
%TO.N,/s11*%
X45776120Y-162503880D02*
X48260000Y-160020000D01*
X131099031Y-144480969D02*
X59353313Y-144480969D01*
X37570000Y-169459669D02*
X44525789Y-162503880D01*
X49530000Y-148590000D02*
X48260000Y-149860000D01*
X132075000Y-143505000D02*
X131099031Y-144480969D01*
X132075000Y-130815000D02*
X132075000Y-143505000D01*
X55244282Y-148590000D02*
X49530000Y-148590000D01*
X48260000Y-160020000D02*
X48260000Y-158750000D01*
X44525789Y-162503880D02*
X45776120Y-162503880D01*
X59353313Y-144480969D02*
X55244282Y-148590000D01*
%TO.N,/s13*%
X44955640Y-162054360D02*
X46990000Y-160020000D01*
X35280000Y-169459669D02*
X42674360Y-162065309D01*
X126995000Y-142766449D02*
X125730000Y-144031449D01*
X42674360Y-162054360D02*
X44955640Y-162054360D01*
X48709520Y-148140480D02*
X46990000Y-149860000D01*
X42674360Y-162065309D02*
X42674360Y-162054360D01*
X125730000Y-144031449D02*
X59167116Y-144031449D01*
X59167116Y-144031449D02*
X55058085Y-148140480D01*
X126995000Y-130815000D02*
X126995000Y-142766449D01*
X55058085Y-148140480D02*
X48709520Y-148140480D01*
X46990000Y-160020000D02*
X46990000Y-158750000D01*
%TO.N,/s14*%
X32990000Y-169459669D02*
X40844829Y-161604840D01*
X124460000Y-142240000D02*
X123118071Y-143581929D01*
X58719031Y-143581929D02*
X54610000Y-147690960D01*
X124460000Y-139710000D02*
X124460000Y-142240000D01*
X45770800Y-160070800D02*
X45770800Y-158800800D01*
X54610000Y-147690960D02*
X47990640Y-147690960D01*
X124455000Y-130815000D02*
X124455000Y-139705000D01*
X44236760Y-161604840D02*
X45770800Y-160070800D01*
X40844829Y-161604840D02*
X44236760Y-161604840D01*
X124455000Y-139705000D02*
X124460000Y-139710000D01*
X47990640Y-147690960D02*
X45770800Y-149910800D01*
X123118071Y-143581929D02*
X58719031Y-143581929D01*
%TO.N,/s3*%
X72907131Y-169459669D02*
X83032600Y-159334200D01*
X84797600Y-147612400D02*
X98533355Y-147612401D01*
X83032600Y-159334200D02*
X83032600Y-158546800D01*
X109298559Y-148511441D02*
X111755000Y-146055000D01*
X98533355Y-147612401D02*
X99432396Y-148511441D01*
X99432396Y-148511441D02*
X109298559Y-148511441D01*
X72880000Y-169459669D02*
X72907131Y-169459669D01*
X82550000Y-149860000D02*
X84797600Y-147612400D01*
%TO.N,/s2*%
X99618593Y-148061921D02*
X98719553Y-147162881D01*
X70590000Y-169459669D02*
X81051400Y-158998269D01*
X83977120Y-147162880D02*
X81280000Y-149860000D01*
X81051400Y-158998269D02*
X81051400Y-158648400D01*
X107208078Y-148061922D02*
X99618593Y-148061921D01*
X109215000Y-146055000D02*
X107208078Y-148061922D01*
X98719553Y-147162881D02*
X83977120Y-147162880D01*
%TO.N,/s1*%
X99804791Y-147612401D02*
X98905751Y-146713361D01*
X68300000Y-169459669D02*
X78435200Y-159324469D01*
X106675000Y-146055000D02*
X105117598Y-147612402D01*
X93373360Y-146713360D02*
X81886640Y-146713360D01*
X81886640Y-146713360D02*
X78740000Y-149860000D01*
X98905751Y-146713361D02*
X93373360Y-146713360D01*
X78435200Y-159324469D02*
X78435200Y-158546800D01*
X105117598Y-147612402D02*
X99804791Y-147612401D01*
%TO.N,/s0*%
X104135000Y-146055000D02*
X80005000Y-146055000D01*
X80005000Y-146055000D02*
X76200000Y-149860000D01*
X76276200Y-159193469D02*
X76276200Y-158673800D01*
X66010000Y-169459669D02*
X76276200Y-159193469D01*
%TO.N,/s8*%
X115570000Y-149860000D02*
X116840000Y-149860000D01*
X123190000Y-147320000D02*
X124455000Y-146055000D01*
X108813600Y-166243000D02*
X108813600Y-165506400D01*
X119380000Y-147320000D02*
X123190000Y-147320000D01*
X105900000Y-169459669D02*
X105900000Y-169156600D01*
X116840000Y-149860000D02*
X119380000Y-147320000D01*
X108813600Y-165506400D02*
X115570000Y-158750000D01*
X105900000Y-169156600D02*
X108813600Y-166243000D01*
%TO.N,/s6*%
X114300000Y-149860000D02*
X115570000Y-148590000D01*
X107791869Y-165277800D02*
X114300000Y-158769669D01*
X116840000Y-148590000D02*
X119375000Y-146055000D01*
X115570000Y-148590000D02*
X116840000Y-148590000D01*
X103610000Y-169459669D02*
X107791869Y-165277800D01*
X114300000Y-158769669D02*
X114300000Y-158750000D01*
%TO.N,/s5*%
X101734835Y-168952965D02*
X101734835Y-169044835D01*
X115570000Y-147320000D02*
X116835000Y-146055000D01*
X113030000Y-148590000D02*
X114300000Y-147320000D01*
X106578400Y-164109400D02*
X107670600Y-164109400D01*
X114300000Y-147320000D02*
X115570000Y-147320000D01*
X106578400Y-164109400D02*
X101734835Y-168952965D01*
X113030000Y-149860000D02*
X113030000Y-148590000D01*
X107670600Y-164109400D02*
X113030000Y-158750000D01*
X101734835Y-169044835D02*
X101320000Y-169459669D01*
%TO.N,/s4*%
X111760000Y-148590000D02*
X114295000Y-146055000D01*
X108319331Y-162190669D02*
X111760000Y-158750000D01*
X99030000Y-169459669D02*
X106299000Y-162190669D01*
X111760000Y-149860000D02*
X111760000Y-148590000D01*
X106299000Y-162190669D02*
X108319331Y-162190669D01*
%TO.N,/s15*%
X135440480Y-131630480D02*
X133050969Y-129240969D01*
X133050969Y-129240969D02*
X123489031Y-129240969D01*
X142427633Y-131630480D02*
X135440480Y-131630480D01*
X151208560Y-140411409D02*
X142427633Y-131630480D01*
X151208560Y-157350640D02*
X151208560Y-140411409D01*
X138920000Y-169459669D02*
X139099531Y-169459669D01*
X123489031Y-129240969D02*
X121915000Y-130815000D01*
X139099531Y-169459669D02*
X151208560Y-157350640D01*
%TO.N,/s12*%
X132540789Y-129690489D02*
X130659511Y-129690489D01*
X150759040Y-140597606D02*
X142241435Y-132080000D01*
X134930300Y-132080000D02*
X132540789Y-129690489D01*
X142241435Y-132080000D02*
X134930300Y-132080000D01*
X140979835Y-165109835D02*
X150759040Y-155330630D01*
X136630000Y-169459669D02*
X140979835Y-165109835D01*
X150759040Y-155330630D02*
X150759040Y-140597606D01*
X130659511Y-129690489D02*
X129535000Y-130815000D01*
%TO.N,/s9*%
X138430000Y-137160000D02*
X135890000Y-139700000D01*
X134620000Y-147320000D02*
X134170480Y-147769520D01*
X134620000Y-144780000D02*
X134620000Y-147320000D01*
X134170480Y-147769520D02*
X128709520Y-147769520D01*
X132050000Y-169459669D02*
X149860000Y-151649670D01*
X128709520Y-147769520D02*
X126995000Y-146055000D01*
X149860000Y-140970000D02*
X146050000Y-137160000D01*
X135890000Y-143510000D02*
X134620000Y-144780000D01*
X146050000Y-137160000D02*
X138430000Y-137160000D01*
X135890000Y-139700000D02*
X135890000Y-143510000D01*
X149860000Y-151649670D02*
X149860000Y-140970000D01*
%TO.N,Net-(D4-Pad1)*%
X37570000Y-173419669D02*
X35546449Y-175443220D01*
X35546449Y-175443220D02*
X29861816Y-175443220D01*
X33020000Y-160654282D02*
X33020000Y-158750000D01*
X27371519Y-166302763D02*
X33020000Y-160654282D01*
X29861816Y-175443220D02*
X27371519Y-172952923D01*
X27371519Y-172952923D02*
X27371519Y-166302763D01*
%TO.N,Net-(D5-Pad1)*%
X26921999Y-173139119D02*
X26921999Y-166116565D01*
X37386929Y-175892740D02*
X29675619Y-175892740D01*
X30480000Y-162558564D02*
X30480000Y-158750000D01*
X39860000Y-173419669D02*
X37386929Y-175892740D01*
X26921999Y-166116565D02*
X30480000Y-162558564D01*
X29675619Y-175892740D02*
X26921999Y-173139119D01*
%TO.N,Net-(D8-Pad1)*%
X70402309Y-175897360D02*
X72880000Y-173419669D01*
X60279520Y-159430480D02*
X60279520Y-173489472D01*
X60960000Y-158750000D02*
X60279520Y-159430480D01*
X60279520Y-173489472D02*
X62687408Y-175897360D01*
X62687408Y-175897360D02*
X70402309Y-175897360D01*
%TO.N,Net-(D9-Pad1)*%
X60729040Y-173303275D02*
X62873605Y-175447840D01*
X62873605Y-175447840D02*
X68561829Y-175447840D01*
X63500000Y-158750000D02*
X60729040Y-161520960D01*
X68561829Y-175447840D02*
X70590000Y-173419669D01*
X60729040Y-161520960D02*
X60729040Y-173303275D01*
%TO.N,Net-(D10-Pad1)*%
X66721349Y-174998320D02*
X68300000Y-173419669D01*
X61178560Y-163611440D02*
X61178560Y-173117078D01*
X63059802Y-174998320D02*
X66721349Y-174998320D01*
X66040000Y-158750000D02*
X61178560Y-163611440D01*
X61178560Y-173117078D02*
X63059802Y-174998320D01*
%TO.N,Net-(D11-Pad1)*%
X64922400Y-174548800D02*
X64922400Y-174507269D01*
X63246000Y-174548800D02*
X64922400Y-174548800D01*
X68580000Y-158750000D02*
X61628080Y-165701920D01*
X64922400Y-174507269D02*
X66010000Y-173419669D01*
X61628080Y-172930880D02*
X63246000Y-174548800D01*
X61628080Y-165701920D02*
X61628080Y-172930880D01*
%TO.N,Net-(SCK3-Pad11)*%
X96520000Y-164462847D02*
X96520000Y-158750000D01*
X93367889Y-167614958D02*
X96520000Y-164462847D01*
X105900000Y-173419669D02*
X103426929Y-175892740D01*
X103426929Y-175892740D02*
X95715620Y-175892740D01*
X93367889Y-173545009D02*
X93367889Y-167614958D01*
X95715620Y-175892740D02*
X93367889Y-173545009D01*
%TO.N,Net-(SCK3-Pad12)*%
X103610000Y-173419669D02*
X101586449Y-175443220D01*
X101586449Y-175443220D02*
X95901817Y-175443220D01*
X93817409Y-167801156D02*
X99060000Y-162558565D01*
X95901817Y-175443220D02*
X93817409Y-173358812D01*
X99060000Y-162558565D02*
X99060000Y-158750000D01*
X93817409Y-173358812D02*
X93817409Y-167801156D01*
%TO.N,Net-(SCK3-Pad13)*%
X101320000Y-173419669D02*
X99745969Y-174993700D01*
X94266929Y-173172615D02*
X94266929Y-167987353D01*
X101600000Y-160654282D02*
X101600000Y-158750000D01*
X99745969Y-174993700D02*
X96088014Y-174993700D01*
X94266929Y-167987353D02*
X101600000Y-160654282D01*
X96088014Y-174993700D02*
X94266929Y-173172615D01*
%TO.N,Net-(SCK3-Pad14)*%
X94716449Y-172986418D02*
X94716449Y-168173551D01*
X96274211Y-174544180D02*
X94716449Y-172986418D01*
X99030000Y-173419669D02*
X97905489Y-174544180D01*
X97905489Y-174544180D02*
X96274211Y-174544180D01*
X94716449Y-168173551D02*
X104140000Y-158750000D01*
%TO.N,Net-(D21-Pad1)*%
X138920000Y-173419669D02*
X136377329Y-175962340D01*
X127000000Y-166243000D02*
X127000000Y-158750000D01*
X126387889Y-166855111D02*
X127000000Y-166243000D01*
X126387889Y-173545011D02*
X126387889Y-166855111D01*
X128805217Y-175962340D02*
X126387889Y-173545011D01*
X136377329Y-175962340D02*
X128805217Y-175962340D01*
%TO.N,Net-(D22-Pad1)*%
X134536849Y-175512820D02*
X128991415Y-175512820D01*
X136630000Y-173419669D02*
X134536849Y-175512820D01*
X126837409Y-168105956D02*
X129540000Y-165403365D01*
X126837409Y-173358814D02*
X126837409Y-168105956D01*
X128991415Y-175512820D02*
X126837409Y-173358814D01*
X129540000Y-165403365D02*
X129540000Y-158750000D01*
%TO.N,Net-(D23-Pad1)*%
X132080000Y-163499083D02*
X132080000Y-158750000D01*
X132753669Y-175006000D02*
X129120313Y-175006000D01*
X127286929Y-173172616D02*
X127286929Y-168292154D01*
X134340000Y-173419669D02*
X132753669Y-175006000D01*
X129120313Y-175006000D02*
X127286929Y-173172616D01*
X127286929Y-168292154D02*
X132080000Y-163499083D01*
%TO.N,Net-(D24-Pad1)*%
X127736449Y-172986418D02*
X127736449Y-168478351D01*
X132050000Y-173419669D02*
X130925489Y-174544180D01*
X129294211Y-174544180D02*
X127736449Y-172986418D01*
X134620000Y-161594800D02*
X134620000Y-158750000D01*
X127736449Y-168478351D02*
X134620000Y-161594800D01*
X130925489Y-174544180D02*
X129294211Y-174544180D01*
%TD*%
M02*
