%TF.GenerationSoftware,KiCad,Pcbnew,(6.0.0)*%
%TF.CreationDate,2022-03-13T17:59:30-04:00*%
%TF.ProjectId,team tap,7465616d-2074-4617-902e-6b696361645f,rev?*%
%TF.SameCoordinates,Original*%
%TF.FileFunction,Legend,Top*%
%TF.FilePolarity,Positive*%
%FSLAX46Y46*%
G04 Gerber Fmt 4.6, Leading zero omitted, Abs format (unit mm)*
G04 Created by KiCad (PCBNEW (6.0.0)) date 2022-03-13 17:59:30*
%MOMM*%
%LPD*%
G01*
G04 APERTURE LIST*
%ADD10C,0.150000*%
%ADD11C,0.120000*%
%ADD12C,1.400000*%
%ADD13O,1.400000X1.400000*%
%ADD14R,1.600000X1.600000*%
%ADD15O,1.600000X1.600000*%
%ADD16C,1.600000*%
%ADD17R,1.700000X1.700000*%
%ADD18O,1.700000X1.700000*%
%ADD19C,4.000000*%
G04 APERTURE END LIST*
D10*
X74954857Y-147788380D02*
X74954857Y-148502666D01*
X74907238Y-148645523D01*
X74812000Y-148740761D01*
X74669142Y-148788380D01*
X74573904Y-148788380D01*
X75859619Y-148788380D02*
X75859619Y-148264571D01*
X75812000Y-148169333D01*
X75716761Y-148121714D01*
X75526285Y-148121714D01*
X75431047Y-148169333D01*
X75859619Y-148740761D02*
X75764380Y-148788380D01*
X75526285Y-148788380D01*
X75431047Y-148740761D01*
X75383428Y-148645523D01*
X75383428Y-148550285D01*
X75431047Y-148455047D01*
X75526285Y-148407428D01*
X75764380Y-148407428D01*
X75859619Y-148359809D01*
X76764380Y-148121714D02*
X76764380Y-148931238D01*
X76716761Y-149026476D01*
X76669142Y-149074095D01*
X76573904Y-149121714D01*
X76431047Y-149121714D01*
X76335809Y-149074095D01*
X76764380Y-148740761D02*
X76669142Y-148788380D01*
X76478666Y-148788380D01*
X76383428Y-148740761D01*
X76335809Y-148693142D01*
X76288190Y-148597904D01*
X76288190Y-148312190D01*
X76335809Y-148216952D01*
X76383428Y-148169333D01*
X76478666Y-148121714D01*
X76669142Y-148121714D01*
X76764380Y-148169333D01*
X77669142Y-148121714D02*
X77669142Y-148788380D01*
X77240571Y-148121714D02*
X77240571Y-148645523D01*
X77288190Y-148740761D01*
X77383428Y-148788380D01*
X77526285Y-148788380D01*
X77621523Y-148740761D01*
X77669142Y-148693142D01*
X78573904Y-148788380D02*
X78573904Y-148264571D01*
X78526285Y-148169333D01*
X78431047Y-148121714D01*
X78240571Y-148121714D01*
X78145333Y-148169333D01*
X78573904Y-148740761D02*
X78478666Y-148788380D01*
X78240571Y-148788380D01*
X78145333Y-148740761D01*
X78097714Y-148645523D01*
X78097714Y-148550285D01*
X78145333Y-148455047D01*
X78240571Y-148407428D01*
X78478666Y-148407428D01*
X78573904Y-148359809D01*
X79050095Y-148788380D02*
X79050095Y-148121714D01*
X79050095Y-148312190D02*
X79097714Y-148216952D01*
X79145333Y-148169333D01*
X79240571Y-148121714D01*
X79335809Y-148121714D01*
X80288190Y-147788380D02*
X80859619Y-147788380D01*
X80573904Y-148788380D02*
X80573904Y-147788380D01*
X81573904Y-148740761D02*
X81478666Y-148788380D01*
X81288190Y-148788380D01*
X81192952Y-148740761D01*
X81145333Y-148645523D01*
X81145333Y-148264571D01*
X81192952Y-148169333D01*
X81288190Y-148121714D01*
X81478666Y-148121714D01*
X81573904Y-148169333D01*
X81621523Y-148264571D01*
X81621523Y-148359809D01*
X81145333Y-148455047D01*
X82478666Y-148788380D02*
X82478666Y-148264571D01*
X82431047Y-148169333D01*
X82335809Y-148121714D01*
X82145333Y-148121714D01*
X82050095Y-148169333D01*
X82478666Y-148740761D02*
X82383428Y-148788380D01*
X82145333Y-148788380D01*
X82050095Y-148740761D01*
X82002476Y-148645523D01*
X82002476Y-148550285D01*
X82050095Y-148455047D01*
X82145333Y-148407428D01*
X82383428Y-148407428D01*
X82478666Y-148359809D01*
X82954857Y-148788380D02*
X82954857Y-148121714D01*
X82954857Y-148216952D02*
X83002476Y-148169333D01*
X83097714Y-148121714D01*
X83240571Y-148121714D01*
X83335809Y-148169333D01*
X83383428Y-148264571D01*
X83383428Y-148788380D01*
X83383428Y-148264571D02*
X83431047Y-148169333D01*
X83526285Y-148121714D01*
X83669142Y-148121714D01*
X83764380Y-148169333D01*
X83812000Y-148264571D01*
X83812000Y-148788380D01*
X84907238Y-147788380D02*
X85478666Y-147788380D01*
X85192952Y-148788380D02*
X85192952Y-147788380D01*
X86240571Y-148788380D02*
X86240571Y-148264571D01*
X86192952Y-148169333D01*
X86097714Y-148121714D01*
X85907238Y-148121714D01*
X85812000Y-148169333D01*
X86240571Y-148740761D02*
X86145333Y-148788380D01*
X85907238Y-148788380D01*
X85812000Y-148740761D01*
X85764380Y-148645523D01*
X85764380Y-148550285D01*
X85812000Y-148455047D01*
X85907238Y-148407428D01*
X86145333Y-148407428D01*
X86240571Y-148359809D01*
X86716761Y-148121714D02*
X86716761Y-149121714D01*
X86716761Y-148169333D02*
X86812000Y-148121714D01*
X87002476Y-148121714D01*
X87097714Y-148169333D01*
X87145333Y-148216952D01*
X87192952Y-148312190D01*
X87192952Y-148597904D01*
X87145333Y-148693142D01*
X87097714Y-148740761D01*
X87002476Y-148788380D01*
X86812000Y-148788380D01*
X86716761Y-148740761D01*
X88811999Y-148740761D02*
X88716761Y-148788380D01*
X88526285Y-148788380D01*
X88431047Y-148740761D01*
X88383428Y-148693142D01*
X88335809Y-148597904D01*
X88335809Y-148312190D01*
X88383428Y-148216952D01*
X88431047Y-148169333D01*
X88526285Y-148121714D01*
X88716761Y-148121714D01*
X88811999Y-148169333D01*
X89383428Y-148788380D02*
X89288190Y-148740761D01*
X89240571Y-148645523D01*
X89240571Y-147788380D01*
X89907238Y-148788380D02*
X89811999Y-148740761D01*
X89764380Y-148693142D01*
X89716761Y-148597904D01*
X89716761Y-148312190D01*
X89764380Y-148216952D01*
X89811999Y-148169333D01*
X89907238Y-148121714D01*
X90050095Y-148121714D01*
X90145333Y-148169333D01*
X90192952Y-148216952D01*
X90240571Y-148312190D01*
X90240571Y-148597904D01*
X90192952Y-148693142D01*
X90145333Y-148740761D01*
X90050095Y-148788380D01*
X89907238Y-148788380D01*
X90669142Y-148121714D02*
X90669142Y-148788380D01*
X90669142Y-148216952D02*
X90716761Y-148169333D01*
X90811999Y-148121714D01*
X90954857Y-148121714D01*
X91050095Y-148169333D01*
X91097714Y-148264571D01*
X91097714Y-148788380D01*
X91954857Y-148740761D02*
X91859619Y-148788380D01*
X91669142Y-148788380D01*
X91573904Y-148740761D01*
X91526285Y-148645523D01*
X91526285Y-148264571D01*
X91573904Y-148169333D01*
X91669142Y-148121714D01*
X91859619Y-148121714D01*
X91954857Y-148169333D01*
X92002476Y-148264571D01*
X92002476Y-148359809D01*
X91526285Y-148455047D01*
X64484285Y-124261619D02*
X64531904Y-124214000D01*
X64627142Y-124166380D01*
X64865238Y-124166380D01*
X64960476Y-124214000D01*
X65008095Y-124261619D01*
X65055714Y-124356857D01*
X65055714Y-124452095D01*
X65008095Y-124594952D01*
X64436666Y-125166380D01*
X65055714Y-125166380D01*
X59880476Y-124499714D02*
X59880476Y-125166380D01*
X59642380Y-124118761D02*
X59404285Y-124833047D01*
X60023333Y-124833047D01*
X67595714Y-125166380D02*
X67024285Y-125166380D01*
X67310000Y-125166380D02*
X67310000Y-124166380D01*
X67214761Y-124309238D01*
X67119523Y-124404476D01*
X67024285Y-124452095D01*
X44259523Y-125166380D02*
X43688095Y-125166380D01*
X43973809Y-125166380D02*
X43973809Y-124166380D01*
X43878571Y-124309238D01*
X43783333Y-124404476D01*
X43688095Y-124452095D01*
X45211904Y-125166380D02*
X44640476Y-125166380D01*
X44926190Y-125166380D02*
X44926190Y-124166380D01*
X44830952Y-124309238D01*
X44735714Y-124404476D01*
X44640476Y-124452095D01*
X49339523Y-125166380D02*
X49530000Y-125166380D01*
X49625238Y-125118761D01*
X49672857Y-125071142D01*
X49768095Y-124928285D01*
X49815714Y-124737809D01*
X49815714Y-124356857D01*
X49768095Y-124261619D01*
X49720476Y-124214000D01*
X49625238Y-124166380D01*
X49434761Y-124166380D01*
X49339523Y-124214000D01*
X49291904Y-124261619D01*
X49244285Y-124356857D01*
X49244285Y-124594952D01*
X49291904Y-124690190D01*
X49339523Y-124737809D01*
X49434761Y-124785428D01*
X49625238Y-124785428D01*
X49720476Y-124737809D01*
X49768095Y-124690190D01*
X49815714Y-124594952D01*
X39179523Y-125166380D02*
X38608095Y-125166380D01*
X38893809Y-125166380D02*
X38893809Y-124166380D01*
X38798571Y-124309238D01*
X38703333Y-124404476D01*
X38608095Y-124452095D01*
X39512857Y-124166380D02*
X40131904Y-124166380D01*
X39798571Y-124547333D01*
X39941428Y-124547333D01*
X40036666Y-124594952D01*
X40084285Y-124642571D01*
X40131904Y-124737809D01*
X40131904Y-124975904D01*
X40084285Y-125071142D01*
X40036666Y-125118761D01*
X39941428Y-125166380D01*
X39655714Y-125166380D01*
X39560476Y-125118761D01*
X39512857Y-125071142D01*
X36639523Y-125166380D02*
X36068095Y-125166380D01*
X36353809Y-125166380D02*
X36353809Y-124166380D01*
X36258571Y-124309238D01*
X36163333Y-124404476D01*
X36068095Y-124452095D01*
X37496666Y-124499714D02*
X37496666Y-125166380D01*
X37258571Y-124118761D02*
X37020476Y-124833047D01*
X37639523Y-124833047D01*
X41719523Y-125166380D02*
X41148095Y-125166380D01*
X41433809Y-125166380D02*
X41433809Y-124166380D01*
X41338571Y-124309238D01*
X41243333Y-124404476D01*
X41148095Y-124452095D01*
X42100476Y-124261619D02*
X42148095Y-124214000D01*
X42243333Y-124166380D01*
X42481428Y-124166380D01*
X42576666Y-124214000D01*
X42624285Y-124261619D01*
X42671904Y-124356857D01*
X42671904Y-124452095D01*
X42624285Y-124594952D01*
X42052857Y-125166380D01*
X42671904Y-125166380D01*
X46799523Y-125166380D02*
X46228095Y-125166380D01*
X46513809Y-125166380D02*
X46513809Y-124166380D01*
X46418571Y-124309238D01*
X46323333Y-124404476D01*
X46228095Y-124452095D01*
X47418571Y-124166380D02*
X47513809Y-124166380D01*
X47609047Y-124214000D01*
X47656666Y-124261619D01*
X47704285Y-124356857D01*
X47751904Y-124547333D01*
X47751904Y-124785428D01*
X47704285Y-124975904D01*
X47656666Y-125071142D01*
X47609047Y-125118761D01*
X47513809Y-125166380D01*
X47418571Y-125166380D01*
X47323333Y-125118761D01*
X47275714Y-125071142D01*
X47228095Y-124975904D01*
X47180476Y-124785428D01*
X47180476Y-124547333D01*
X47228095Y-124356857D01*
X47275714Y-124261619D01*
X47323333Y-124214000D01*
X47418571Y-124166380D01*
X61896666Y-124166380D02*
X62515714Y-124166380D01*
X62182380Y-124547333D01*
X62325238Y-124547333D01*
X62420476Y-124594952D01*
X62468095Y-124642571D01*
X62515714Y-124737809D01*
X62515714Y-124975904D01*
X62468095Y-125071142D01*
X62420476Y-125118761D01*
X62325238Y-125166380D01*
X62039523Y-125166380D01*
X61944285Y-125118761D01*
X61896666Y-125071142D01*
X51974761Y-124594952D02*
X51879523Y-124547333D01*
X51831904Y-124499714D01*
X51784285Y-124404476D01*
X51784285Y-124356857D01*
X51831904Y-124261619D01*
X51879523Y-124214000D01*
X51974761Y-124166380D01*
X52165238Y-124166380D01*
X52260476Y-124214000D01*
X52308095Y-124261619D01*
X52355714Y-124356857D01*
X52355714Y-124404476D01*
X52308095Y-124499714D01*
X52260476Y-124547333D01*
X52165238Y-124594952D01*
X51974761Y-124594952D01*
X51879523Y-124642571D01*
X51831904Y-124690190D01*
X51784285Y-124785428D01*
X51784285Y-124975904D01*
X51831904Y-125071142D01*
X51879523Y-125118761D01*
X51974761Y-125166380D01*
X52165238Y-125166380D01*
X52260476Y-125118761D01*
X52308095Y-125071142D01*
X52355714Y-124975904D01*
X52355714Y-124785428D01*
X52308095Y-124690190D01*
X52260476Y-124642571D01*
X52165238Y-124594952D01*
X54276666Y-124166380D02*
X54943333Y-124166380D01*
X54514761Y-125166380D01*
X57340476Y-124166380D02*
X57150000Y-124166380D01*
X57054761Y-124214000D01*
X57007142Y-124261619D01*
X56911904Y-124404476D01*
X56864285Y-124594952D01*
X56864285Y-124975904D01*
X56911904Y-125071142D01*
X56959523Y-125118761D01*
X57054761Y-125166380D01*
X57245238Y-125166380D01*
X57340476Y-125118761D01*
X57388095Y-125071142D01*
X57435714Y-124975904D01*
X57435714Y-124737809D01*
X57388095Y-124642571D01*
X57340476Y-124594952D01*
X57245238Y-124547333D01*
X57054761Y-124547333D01*
X56959523Y-124594952D01*
X56911904Y-124642571D01*
X56864285Y-124737809D01*
X70136857Y-142946380D02*
X70136857Y-142422571D01*
X70089238Y-142327333D01*
X69994000Y-142279714D01*
X69803523Y-142279714D01*
X69708285Y-142327333D01*
X70136857Y-142898761D02*
X70041619Y-142946380D01*
X69803523Y-142946380D01*
X69708285Y-142898761D01*
X69660666Y-142803523D01*
X69660666Y-142708285D01*
X69708285Y-142613047D01*
X69803523Y-142565428D01*
X70041619Y-142565428D01*
X70136857Y-142517809D01*
X70613047Y-142946380D02*
X70613047Y-141946380D01*
X70613047Y-142327333D02*
X70708285Y-142279714D01*
X70898761Y-142279714D01*
X70994000Y-142327333D01*
X71041619Y-142374952D01*
X71089238Y-142470190D01*
X71089238Y-142755904D01*
X71041619Y-142851142D01*
X70994000Y-142898761D01*
X70898761Y-142946380D01*
X70708285Y-142946380D01*
X70613047Y-142898761D01*
X71422571Y-142279714D02*
X71946380Y-142279714D01*
X71422571Y-142946380D01*
X71946380Y-142946380D01*
X72327333Y-142946380D02*
X72327333Y-142279714D01*
X72327333Y-142374952D02*
X72374952Y-142327333D01*
X72470190Y-142279714D01*
X72613047Y-142279714D01*
X72708285Y-142327333D01*
X72755904Y-142422571D01*
X72755904Y-142946380D01*
X72755904Y-142422571D02*
X72803523Y-142327333D01*
X72898761Y-142279714D01*
X73041619Y-142279714D01*
X73136857Y-142327333D01*
X73184476Y-142422571D01*
X73184476Y-142946380D01*
X74089238Y-142946380D02*
X74089238Y-142422571D01*
X74041619Y-142327333D01*
X73946380Y-142279714D01*
X73755904Y-142279714D01*
X73660666Y-142327333D01*
X74089238Y-142898761D02*
X73994000Y-142946380D01*
X73755904Y-142946380D01*
X73660666Y-142898761D01*
X73613047Y-142803523D01*
X73613047Y-142708285D01*
X73660666Y-142613047D01*
X73755904Y-142565428D01*
X73994000Y-142565428D01*
X74089238Y-142517809D01*
X74565428Y-142279714D02*
X74565428Y-142946380D01*
X74565428Y-142374952D02*
X74613047Y-142327333D01*
X74708285Y-142279714D01*
X74851142Y-142279714D01*
X74946380Y-142327333D01*
X74994000Y-142422571D01*
X74994000Y-142946380D01*
X75422571Y-142041619D02*
X75470190Y-141994000D01*
X75565428Y-141946380D01*
X75803523Y-141946380D01*
X75898761Y-141994000D01*
X75946380Y-142041619D01*
X75994000Y-142136857D01*
X75994000Y-142232095D01*
X75946380Y-142374952D01*
X75374952Y-142946380D01*
X75994000Y-142946380D01*
X76422571Y-142946380D02*
X76422571Y-141946380D01*
X76517809Y-142565428D02*
X76803523Y-142946380D01*
X76803523Y-142279714D02*
X76422571Y-142660666D01*
X77232095Y-142851142D02*
X77279714Y-142898761D01*
X77232095Y-142946380D01*
X77184476Y-142898761D01*
X77232095Y-142851142D01*
X77232095Y-142946380D01*
X77613047Y-142279714D02*
X77803523Y-142946380D01*
X77994000Y-142470190D01*
X78184476Y-142946380D01*
X78374952Y-142279714D01*
X78898761Y-142946380D02*
X78803523Y-142898761D01*
X78755904Y-142851142D01*
X78708285Y-142755904D01*
X78708285Y-142470190D01*
X78755904Y-142374952D01*
X78803523Y-142327333D01*
X78898761Y-142279714D01*
X79041619Y-142279714D01*
X79136857Y-142327333D01*
X79184476Y-142374952D01*
X79232095Y-142470190D01*
X79232095Y-142755904D01*
X79184476Y-142851142D01*
X79136857Y-142898761D01*
X79041619Y-142946380D01*
X78898761Y-142946380D01*
X79660666Y-142946380D02*
X79660666Y-142279714D01*
X79660666Y-142470190D02*
X79708285Y-142374952D01*
X79755904Y-142327333D01*
X79851142Y-142279714D01*
X79946380Y-142279714D01*
X80708285Y-142946380D02*
X80708285Y-141946380D01*
X80708285Y-142898761D02*
X80613047Y-142946380D01*
X80422571Y-142946380D01*
X80327333Y-142898761D01*
X80279714Y-142851142D01*
X80232095Y-142755904D01*
X80232095Y-142470190D01*
X80279714Y-142374952D01*
X80327333Y-142327333D01*
X80422571Y-142279714D01*
X80613047Y-142279714D01*
X80708285Y-142327333D01*
X81184476Y-142279714D02*
X81184476Y-143279714D01*
X81184476Y-142327333D02*
X81279714Y-142279714D01*
X81470190Y-142279714D01*
X81565428Y-142327333D01*
X81613047Y-142374952D01*
X81660666Y-142470190D01*
X81660666Y-142755904D01*
X81613047Y-142851142D01*
X81565428Y-142898761D01*
X81470190Y-142946380D01*
X81279714Y-142946380D01*
X81184476Y-142898761D01*
X82089238Y-142946380D02*
X82089238Y-142279714D01*
X82089238Y-142470190D02*
X82136857Y-142374952D01*
X82184476Y-142327333D01*
X82279714Y-142279714D01*
X82374952Y-142279714D01*
X83089238Y-142898761D02*
X82994000Y-142946380D01*
X82803523Y-142946380D01*
X82708285Y-142898761D01*
X82660666Y-142803523D01*
X82660666Y-142422571D01*
X82708285Y-142327333D01*
X82803523Y-142279714D01*
X82994000Y-142279714D01*
X83089238Y-142327333D01*
X83136857Y-142422571D01*
X83136857Y-142517809D01*
X82660666Y-142613047D01*
X83517809Y-142898761D02*
X83613047Y-142946380D01*
X83803523Y-142946380D01*
X83898761Y-142898761D01*
X83946380Y-142803523D01*
X83946380Y-142755904D01*
X83898761Y-142660666D01*
X83803523Y-142613047D01*
X83660666Y-142613047D01*
X83565428Y-142565428D01*
X83517809Y-142470190D01*
X83517809Y-142422571D01*
X83565428Y-142327333D01*
X83660666Y-142279714D01*
X83803523Y-142279714D01*
X83898761Y-142327333D01*
X84327333Y-142898761D02*
X84422571Y-142946380D01*
X84613047Y-142946380D01*
X84708285Y-142898761D01*
X84755904Y-142803523D01*
X84755904Y-142755904D01*
X84708285Y-142660666D01*
X84613047Y-142613047D01*
X84470190Y-142613047D01*
X84374952Y-142565428D01*
X84327333Y-142470190D01*
X84327333Y-142422571D01*
X84374952Y-142327333D01*
X84470190Y-142279714D01*
X84613047Y-142279714D01*
X84708285Y-142327333D01*
X85184476Y-142851142D02*
X85232095Y-142898761D01*
X85184476Y-142946380D01*
X85136857Y-142898761D01*
X85184476Y-142851142D01*
X85184476Y-142946380D01*
X86089238Y-142898761D02*
X85994000Y-142946380D01*
X85803523Y-142946380D01*
X85708285Y-142898761D01*
X85660666Y-142851142D01*
X85613047Y-142755904D01*
X85613047Y-142470190D01*
X85660666Y-142374952D01*
X85708285Y-142327333D01*
X85803523Y-142279714D01*
X85994000Y-142279714D01*
X86089238Y-142327333D01*
X86660666Y-142946380D02*
X86565428Y-142898761D01*
X86517809Y-142851142D01*
X86470190Y-142755904D01*
X86470190Y-142470190D01*
X86517809Y-142374952D01*
X86565428Y-142327333D01*
X86660666Y-142279714D01*
X86803523Y-142279714D01*
X86898761Y-142327333D01*
X86946380Y-142374952D01*
X86994000Y-142470190D01*
X86994000Y-142755904D01*
X86946380Y-142851142D01*
X86898761Y-142898761D01*
X86803523Y-142946380D01*
X86660666Y-142946380D01*
X87422571Y-142946380D02*
X87422571Y-142279714D01*
X87422571Y-142374952D02*
X87470190Y-142327333D01*
X87565428Y-142279714D01*
X87708285Y-142279714D01*
X87803523Y-142327333D01*
X87851142Y-142422571D01*
X87851142Y-142946380D01*
X87851142Y-142422571D02*
X87898761Y-142327333D01*
X87994000Y-142279714D01*
X88136857Y-142279714D01*
X88232095Y-142327333D01*
X88279714Y-142422571D01*
X88279714Y-142946380D01*
%TO.C,R5*%
X136993333Y-149550380D02*
X136660000Y-149074190D01*
X136421904Y-149550380D02*
X136421904Y-148550380D01*
X136802857Y-148550380D01*
X136898095Y-148598000D01*
X136945714Y-148645619D01*
X136993333Y-148740857D01*
X136993333Y-148883714D01*
X136945714Y-148978952D01*
X136898095Y-149026571D01*
X136802857Y-149074190D01*
X136421904Y-149074190D01*
X137898095Y-148550380D02*
X137421904Y-148550380D01*
X137374285Y-149026571D01*
X137421904Y-148978952D01*
X137517142Y-148931333D01*
X137755238Y-148931333D01*
X137850476Y-148978952D01*
X137898095Y-149026571D01*
X137945714Y-149121809D01*
X137945714Y-149359904D01*
X137898095Y-149455142D01*
X137850476Y-149502761D01*
X137755238Y-149550380D01*
X137517142Y-149550380D01*
X137421904Y-149502761D01*
X137374285Y-149455142D01*
%TO.C,D22*%
X129992380Y-155874885D02*
X128992380Y-155874885D01*
X128992380Y-155636790D01*
X129040000Y-155493933D01*
X129135238Y-155398695D01*
X129230476Y-155351076D01*
X129420952Y-155303457D01*
X129563809Y-155303457D01*
X129754285Y-155351076D01*
X129849523Y-155398695D01*
X129944761Y-155493933D01*
X129992380Y-155636790D01*
X129992380Y-155874885D01*
X129087619Y-154922504D02*
X129040000Y-154874885D01*
X128992380Y-154779647D01*
X128992380Y-154541552D01*
X129040000Y-154446314D01*
X129087619Y-154398695D01*
X129182857Y-154351076D01*
X129278095Y-154351076D01*
X129420952Y-154398695D01*
X129992380Y-154970123D01*
X129992380Y-154351076D01*
X129087619Y-153970123D02*
X129040000Y-153922504D01*
X128992380Y-153827266D01*
X128992380Y-153589171D01*
X129040000Y-153493933D01*
X129087619Y-153446314D01*
X129182857Y-153398695D01*
X129278095Y-153398695D01*
X129420952Y-153446314D01*
X129992380Y-154017742D01*
X129992380Y-153398695D01*
%TO.C,D16*%
X137495114Y-142692380D02*
X137495114Y-141692380D01*
X137733209Y-141692380D01*
X137876066Y-141740000D01*
X137971304Y-141835238D01*
X138018923Y-141930476D01*
X138066542Y-142120952D01*
X138066542Y-142263809D01*
X138018923Y-142454285D01*
X137971304Y-142549523D01*
X137876066Y-142644761D01*
X137733209Y-142692380D01*
X137495114Y-142692380D01*
X139018923Y-142692380D02*
X138447495Y-142692380D01*
X138733209Y-142692380D02*
X138733209Y-141692380D01*
X138637971Y-141835238D01*
X138542733Y-141930476D01*
X138447495Y-141978095D01*
X139876066Y-141692380D02*
X139685590Y-141692380D01*
X139590352Y-141740000D01*
X139542733Y-141787619D01*
X139447495Y-141930476D01*
X139399876Y-142120952D01*
X139399876Y-142501904D01*
X139447495Y-142597142D01*
X139495114Y-142644761D01*
X139590352Y-142692380D01*
X139780828Y-142692380D01*
X139876066Y-142644761D01*
X139923685Y-142597142D01*
X139971304Y-142501904D01*
X139971304Y-142263809D01*
X139923685Y-142168571D01*
X139876066Y-142120952D01*
X139780828Y-142073333D01*
X139590352Y-142073333D01*
X139495114Y-142120952D01*
X139447495Y-142168571D01*
X139399876Y-142263809D01*
%TO.C,D20*%
X124937780Y-155900285D02*
X123937780Y-155900285D01*
X123937780Y-155662190D01*
X123985400Y-155519333D01*
X124080638Y-155424095D01*
X124175876Y-155376476D01*
X124366352Y-155328857D01*
X124509209Y-155328857D01*
X124699685Y-155376476D01*
X124794923Y-155424095D01*
X124890161Y-155519333D01*
X124937780Y-155662190D01*
X124937780Y-155900285D01*
X124033019Y-154947904D02*
X123985400Y-154900285D01*
X123937780Y-154805047D01*
X123937780Y-154566952D01*
X123985400Y-154471714D01*
X124033019Y-154424095D01*
X124128257Y-154376476D01*
X124223495Y-154376476D01*
X124366352Y-154424095D01*
X124937780Y-154995523D01*
X124937780Y-154376476D01*
X123937780Y-153757428D02*
X123937780Y-153662190D01*
X123985400Y-153566952D01*
X124033019Y-153519333D01*
X124128257Y-153471714D01*
X124318733Y-153424095D01*
X124556828Y-153424095D01*
X124747304Y-153471714D01*
X124842542Y-153519333D01*
X124890161Y-153566952D01*
X124937780Y-153662190D01*
X124937780Y-153757428D01*
X124890161Y-153852666D01*
X124842542Y-153900285D01*
X124747304Y-153947904D01*
X124556828Y-153995523D01*
X124318733Y-153995523D01*
X124128257Y-153947904D01*
X124033019Y-153900285D01*
X123985400Y-153852666D01*
X123937780Y-153757428D01*
%TO.C,D11*%
X69032380Y-155874885D02*
X68032380Y-155874885D01*
X68032380Y-155636790D01*
X68080000Y-155493933D01*
X68175238Y-155398695D01*
X68270476Y-155351076D01*
X68460952Y-155303457D01*
X68603809Y-155303457D01*
X68794285Y-155351076D01*
X68889523Y-155398695D01*
X68984761Y-155493933D01*
X69032380Y-155636790D01*
X69032380Y-155874885D01*
X69032380Y-154351076D02*
X69032380Y-154922504D01*
X69032380Y-154636790D02*
X68032380Y-154636790D01*
X68175238Y-154732028D01*
X68270476Y-154827266D01*
X68318095Y-154922504D01*
X69032380Y-153398695D02*
X69032380Y-153970123D01*
X69032380Y-153684409D02*
X68032380Y-153684409D01*
X68175238Y-153779647D01*
X68270476Y-153874885D01*
X68318095Y-153970123D01*
%TO.C,D3*%
X36012380Y-155678095D02*
X35012380Y-155678095D01*
X35012380Y-155440000D01*
X35060000Y-155297142D01*
X35155238Y-155201904D01*
X35250476Y-155154285D01*
X35440952Y-155106666D01*
X35583809Y-155106666D01*
X35774285Y-155154285D01*
X35869523Y-155201904D01*
X35964761Y-155297142D01*
X36012380Y-155440000D01*
X36012380Y-155678095D01*
X35012380Y-154773333D02*
X35012380Y-154154285D01*
X35393333Y-154487619D01*
X35393333Y-154344761D01*
X35440952Y-154249523D01*
X35488571Y-154201904D01*
X35583809Y-154154285D01*
X35821904Y-154154285D01*
X35917142Y-154201904D01*
X35964761Y-154249523D01*
X36012380Y-154344761D01*
X36012380Y-154630476D01*
X35964761Y-154725714D01*
X35917142Y-154773333D01*
%TO.C,C3*%
X22693333Y-125987142D02*
X22645714Y-126034761D01*
X22502857Y-126082380D01*
X22407619Y-126082380D01*
X22264761Y-126034761D01*
X22169523Y-125939523D01*
X22121904Y-125844285D01*
X22074285Y-125653809D01*
X22074285Y-125510952D01*
X22121904Y-125320476D01*
X22169523Y-125225238D01*
X22264761Y-125130000D01*
X22407619Y-125082380D01*
X22502857Y-125082380D01*
X22645714Y-125130000D01*
X22693333Y-125177619D01*
X23026666Y-125082380D02*
X23645714Y-125082380D01*
X23312380Y-125463333D01*
X23455238Y-125463333D01*
X23550476Y-125510952D01*
X23598095Y-125558571D01*
X23645714Y-125653809D01*
X23645714Y-125891904D01*
X23598095Y-125987142D01*
X23550476Y-126034761D01*
X23455238Y-126082380D01*
X23169523Y-126082380D01*
X23074285Y-126034761D01*
X23026666Y-125987142D01*
X22705714Y-129416666D02*
X23372380Y-129416666D01*
X22324761Y-129654761D02*
X23039047Y-129892857D01*
X23039047Y-129273809D01*
X22372380Y-128988095D02*
X22372380Y-128321428D01*
X23372380Y-128750000D01*
X22705714Y-127511904D02*
X23372380Y-127511904D01*
X22705714Y-127940476D02*
X23229523Y-127940476D01*
X23324761Y-127892857D01*
X23372380Y-127797619D01*
X23372380Y-127654761D01*
X23324761Y-127559523D01*
X23277142Y-127511904D01*
X22848571Y-126702380D02*
X22848571Y-127035714D01*
X23372380Y-127035714D02*
X22372380Y-127035714D01*
X22372380Y-126559523D01*
%TO.C,D12*%
X74163180Y-155824085D02*
X73163180Y-155824085D01*
X73163180Y-155585990D01*
X73210800Y-155443133D01*
X73306038Y-155347895D01*
X73401276Y-155300276D01*
X73591752Y-155252657D01*
X73734609Y-155252657D01*
X73925085Y-155300276D01*
X74020323Y-155347895D01*
X74115561Y-155443133D01*
X74163180Y-155585990D01*
X74163180Y-155824085D01*
X74163180Y-154300276D02*
X74163180Y-154871704D01*
X74163180Y-154585990D02*
X73163180Y-154585990D01*
X73306038Y-154681228D01*
X73401276Y-154776466D01*
X73448895Y-154871704D01*
X73258419Y-153919323D02*
X73210800Y-153871704D01*
X73163180Y-153776466D01*
X73163180Y-153538371D01*
X73210800Y-153443133D01*
X73258419Y-153395514D01*
X73353657Y-153347895D01*
X73448895Y-153347895D01*
X73591752Y-153395514D01*
X74163180Y-153966942D01*
X74163180Y-153347895D01*
%TO.C,D2*%
X38552380Y-155678095D02*
X37552380Y-155678095D01*
X37552380Y-155440000D01*
X37600000Y-155297142D01*
X37695238Y-155201904D01*
X37790476Y-155154285D01*
X37980952Y-155106666D01*
X38123809Y-155106666D01*
X38314285Y-155154285D01*
X38409523Y-155201904D01*
X38504761Y-155297142D01*
X38552380Y-155440000D01*
X38552380Y-155678095D01*
X37647619Y-154725714D02*
X37600000Y-154678095D01*
X37552380Y-154582857D01*
X37552380Y-154344761D01*
X37600000Y-154249523D01*
X37647619Y-154201904D01*
X37742857Y-154154285D01*
X37838095Y-154154285D01*
X37980952Y-154201904D01*
X38552380Y-154773333D01*
X38552380Y-154154285D01*
%TO.C,R4*%
X147153333Y-149550380D02*
X146820000Y-149074190D01*
X146581904Y-149550380D02*
X146581904Y-148550380D01*
X146962857Y-148550380D01*
X147058095Y-148598000D01*
X147105714Y-148645619D01*
X147153333Y-148740857D01*
X147153333Y-148883714D01*
X147105714Y-148978952D01*
X147058095Y-149026571D01*
X146962857Y-149074190D01*
X146581904Y-149074190D01*
X148010476Y-148883714D02*
X148010476Y-149550380D01*
X147772380Y-148502761D02*
X147534285Y-149217047D01*
X148153333Y-149217047D01*
%TO.C,R7*%
X117943333Y-126802380D02*
X117610000Y-126326190D01*
X117371904Y-126802380D02*
X117371904Y-125802380D01*
X117752857Y-125802380D01*
X117848095Y-125850000D01*
X117895714Y-125897619D01*
X117943333Y-125992857D01*
X117943333Y-126135714D01*
X117895714Y-126230952D01*
X117848095Y-126278571D01*
X117752857Y-126326190D01*
X117371904Y-126326190D01*
X118276666Y-125802380D02*
X118943333Y-125802380D01*
X118514761Y-126802380D01*
X121800952Y-128722380D02*
X121229523Y-128722380D01*
X121515238Y-128722380D02*
X121515238Y-127722380D01*
X121420000Y-127865238D01*
X121324761Y-127960476D01*
X121229523Y-128008095D01*
X122229523Y-128722380D02*
X122229523Y-127722380D01*
X122324761Y-128341428D02*
X122610476Y-128722380D01*
X122610476Y-128055714D02*
X122229523Y-128436666D01*
%TO.C,C2*%
X29297333Y-125071142D02*
X29249714Y-125118761D01*
X29106857Y-125166380D01*
X29011619Y-125166380D01*
X28868761Y-125118761D01*
X28773523Y-125023523D01*
X28725904Y-124928285D01*
X28678285Y-124737809D01*
X28678285Y-124594952D01*
X28725904Y-124404476D01*
X28773523Y-124309238D01*
X28868761Y-124214000D01*
X29011619Y-124166380D01*
X29106857Y-124166380D01*
X29249714Y-124214000D01*
X29297333Y-124261619D01*
X29678285Y-124261619D02*
X29725904Y-124214000D01*
X29821142Y-124166380D01*
X30059238Y-124166380D01*
X30154476Y-124214000D01*
X30202095Y-124261619D01*
X30249714Y-124356857D01*
X30249714Y-124452095D01*
X30202095Y-124594952D01*
X29630666Y-125166380D01*
X30249714Y-125166380D01*
X32202380Y-136167619D02*
X32202380Y-136739047D01*
X32202380Y-136453333D02*
X31202380Y-136453333D01*
X31345238Y-136548571D01*
X31440476Y-136643809D01*
X31488095Y-136739047D01*
X31202380Y-135548571D02*
X31202380Y-135453333D01*
X31250000Y-135358095D01*
X31297619Y-135310476D01*
X31392857Y-135262857D01*
X31583333Y-135215238D01*
X31821428Y-135215238D01*
X32011904Y-135262857D01*
X32107142Y-135310476D01*
X32154761Y-135358095D01*
X32202380Y-135453333D01*
X32202380Y-135548571D01*
X32154761Y-135643809D01*
X32107142Y-135691428D01*
X32011904Y-135739047D01*
X31821428Y-135786666D01*
X31583333Y-135786666D01*
X31392857Y-135739047D01*
X31297619Y-135691428D01*
X31250000Y-135643809D01*
X31202380Y-135548571D01*
X31202380Y-134596190D02*
X31202380Y-134500952D01*
X31250000Y-134405714D01*
X31297619Y-134358095D01*
X31392857Y-134310476D01*
X31583333Y-134262857D01*
X31821428Y-134262857D01*
X32011904Y-134310476D01*
X32107142Y-134358095D01*
X32154761Y-134405714D01*
X32202380Y-134500952D01*
X32202380Y-134596190D01*
X32154761Y-134691428D01*
X32107142Y-134739047D01*
X32011904Y-134786666D01*
X31821428Y-134834285D01*
X31583333Y-134834285D01*
X31392857Y-134786666D01*
X31297619Y-134739047D01*
X31250000Y-134691428D01*
X31202380Y-134596190D01*
X31535714Y-133834285D02*
X32202380Y-133834285D01*
X31630952Y-133834285D02*
X31583333Y-133786666D01*
X31535714Y-133691428D01*
X31535714Y-133548571D01*
X31583333Y-133453333D01*
X31678571Y-133405714D01*
X32202380Y-133405714D01*
X31678571Y-132596190D02*
X31678571Y-132929523D01*
X32202380Y-132929523D02*
X31202380Y-132929523D01*
X31202380Y-132453333D01*
%TO.C,P1*%
X66571904Y-129738380D02*
X66571904Y-128738380D01*
X66952857Y-128738380D01*
X67048095Y-128786000D01*
X67095714Y-128833619D01*
X67143333Y-128928857D01*
X67143333Y-129071714D01*
X67095714Y-129166952D01*
X67048095Y-129214571D01*
X66952857Y-129262190D01*
X66571904Y-129262190D01*
X68095714Y-129738380D02*
X67524285Y-129738380D01*
X67810000Y-129738380D02*
X67810000Y-128738380D01*
X67714761Y-128881238D01*
X67619523Y-128976476D01*
X67524285Y-129024095D01*
%TO.C,U2*%
X59983095Y-134082380D02*
X59983095Y-134891904D01*
X60030714Y-134987142D01*
X60078333Y-135034761D01*
X60173571Y-135082380D01*
X60364047Y-135082380D01*
X60459285Y-135034761D01*
X60506904Y-134987142D01*
X60554523Y-134891904D01*
X60554523Y-134082380D01*
X60983095Y-134177619D02*
X61030714Y-134130000D01*
X61125952Y-134082380D01*
X61364047Y-134082380D01*
X61459285Y-134130000D01*
X61506904Y-134177619D01*
X61554523Y-134272857D01*
X61554523Y-134368095D01*
X61506904Y-134510952D01*
X60935476Y-135082380D01*
X61554523Y-135082380D01*
X43728095Y-134082380D02*
X44394761Y-134082380D01*
X43966190Y-135082380D01*
X45204285Y-134415714D02*
X45204285Y-135082380D01*
X44966190Y-134034761D02*
X44728095Y-134749047D01*
X45347142Y-134749047D01*
X45728095Y-135082380D02*
X45728095Y-134082380D01*
X45728095Y-134558571D02*
X46299523Y-134558571D01*
X46299523Y-135082380D02*
X46299523Y-134082380D01*
X47347142Y-134987142D02*
X47299523Y-135034761D01*
X47156666Y-135082380D01*
X47061428Y-135082380D01*
X46918571Y-135034761D01*
X46823333Y-134939523D01*
X46775714Y-134844285D01*
X46728095Y-134653809D01*
X46728095Y-134510952D01*
X46775714Y-134320476D01*
X46823333Y-134225238D01*
X46918571Y-134130000D01*
X47061428Y-134082380D01*
X47156666Y-134082380D01*
X47299523Y-134130000D01*
X47347142Y-134177619D01*
X47728095Y-134177619D02*
X47775714Y-134130000D01*
X47870952Y-134082380D01*
X48109047Y-134082380D01*
X48204285Y-134130000D01*
X48251904Y-134177619D01*
X48299523Y-134272857D01*
X48299523Y-134368095D01*
X48251904Y-134510952D01*
X47680476Y-135082380D01*
X48299523Y-135082380D01*
X49156666Y-134415714D02*
X49156666Y-135082380D01*
X48918571Y-134034761D02*
X48680476Y-134749047D01*
X49299523Y-134749047D01*
X50109047Y-134415714D02*
X50109047Y-135082380D01*
X49870952Y-134034761D02*
X49632857Y-134749047D01*
X50251904Y-134749047D01*
%TO.C,D9*%
X63952380Y-155678095D02*
X62952380Y-155678095D01*
X62952380Y-155440000D01*
X63000000Y-155297142D01*
X63095238Y-155201904D01*
X63190476Y-155154285D01*
X63380952Y-155106666D01*
X63523809Y-155106666D01*
X63714285Y-155154285D01*
X63809523Y-155201904D01*
X63904761Y-155297142D01*
X63952380Y-155440000D01*
X63952380Y-155678095D01*
X63952380Y-154630476D02*
X63952380Y-154440000D01*
X63904761Y-154344761D01*
X63857142Y-154297142D01*
X63714285Y-154201904D01*
X63523809Y-154154285D01*
X63142857Y-154154285D01*
X63047619Y-154201904D01*
X63000000Y-154249523D01*
X62952380Y-154344761D01*
X62952380Y-154535238D01*
X63000000Y-154630476D01*
X63047619Y-154678095D01*
X63142857Y-154725714D01*
X63380952Y-154725714D01*
X63476190Y-154678095D01*
X63523809Y-154630476D01*
X63571428Y-154535238D01*
X63571428Y-154344761D01*
X63523809Y-154249523D01*
X63476190Y-154201904D01*
X63380952Y-154154285D01*
%TO.C,D15*%
X99461580Y-155849485D02*
X98461580Y-155849485D01*
X98461580Y-155611390D01*
X98509200Y-155468533D01*
X98604438Y-155373295D01*
X98699676Y-155325676D01*
X98890152Y-155278057D01*
X99033009Y-155278057D01*
X99223485Y-155325676D01*
X99318723Y-155373295D01*
X99413961Y-155468533D01*
X99461580Y-155611390D01*
X99461580Y-155849485D01*
X99461580Y-154325676D02*
X99461580Y-154897104D01*
X99461580Y-154611390D02*
X98461580Y-154611390D01*
X98604438Y-154706628D01*
X98699676Y-154801866D01*
X98747295Y-154897104D01*
X98461580Y-153420914D02*
X98461580Y-153897104D01*
X98937771Y-153944723D01*
X98890152Y-153897104D01*
X98842533Y-153801866D01*
X98842533Y-153563771D01*
X98890152Y-153468533D01*
X98937771Y-153420914D01*
X99033009Y-153373295D01*
X99271104Y-153373295D01*
X99366342Y-153420914D01*
X99413961Y-153468533D01*
X99461580Y-153563771D01*
X99461580Y-153801866D01*
X99413961Y-153897104D01*
X99366342Y-153944723D01*
%TO.C,SCK2*%
X66803095Y-167284430D02*
X66945952Y-167332049D01*
X67184047Y-167332049D01*
X67279285Y-167284430D01*
X67326904Y-167236811D01*
X67374523Y-167141573D01*
X67374523Y-167046335D01*
X67326904Y-166951097D01*
X67279285Y-166903478D01*
X67184047Y-166855859D01*
X66993571Y-166808240D01*
X66898333Y-166760621D01*
X66850714Y-166713002D01*
X66803095Y-166617764D01*
X66803095Y-166522526D01*
X66850714Y-166427288D01*
X66898333Y-166379669D01*
X66993571Y-166332049D01*
X67231666Y-166332049D01*
X67374523Y-166379669D01*
X68374523Y-167236811D02*
X68326904Y-167284430D01*
X68184047Y-167332049D01*
X68088809Y-167332049D01*
X67945952Y-167284430D01*
X67850714Y-167189192D01*
X67803095Y-167093954D01*
X67755476Y-166903478D01*
X67755476Y-166760621D01*
X67803095Y-166570145D01*
X67850714Y-166474907D01*
X67945952Y-166379669D01*
X68088809Y-166332049D01*
X68184047Y-166332049D01*
X68326904Y-166379669D01*
X68374523Y-166427288D01*
X68803095Y-167332049D02*
X68803095Y-166332049D01*
X69374523Y-167332049D02*
X68945952Y-166760621D01*
X69374523Y-166332049D02*
X68803095Y-166903478D01*
X69755476Y-166427288D02*
X69803095Y-166379669D01*
X69898333Y-166332049D01*
X70136428Y-166332049D01*
X70231666Y-166379669D01*
X70279285Y-166427288D01*
X70326904Y-166522526D01*
X70326904Y-166617764D01*
X70279285Y-166760621D01*
X69707857Y-167332049D01*
X70326904Y-167332049D01*
%TO.C,D10*%
X66466980Y-155747885D02*
X65466980Y-155747885D01*
X65466980Y-155509790D01*
X65514600Y-155366933D01*
X65609838Y-155271695D01*
X65705076Y-155224076D01*
X65895552Y-155176457D01*
X66038409Y-155176457D01*
X66228885Y-155224076D01*
X66324123Y-155271695D01*
X66419361Y-155366933D01*
X66466980Y-155509790D01*
X66466980Y-155747885D01*
X66466980Y-154224076D02*
X66466980Y-154795504D01*
X66466980Y-154509790D02*
X65466980Y-154509790D01*
X65609838Y-154605028D01*
X65705076Y-154700266D01*
X65752695Y-154795504D01*
X65466980Y-153605028D02*
X65466980Y-153509790D01*
X65514600Y-153414552D01*
X65562219Y-153366933D01*
X65657457Y-153319314D01*
X65847933Y-153271695D01*
X66086028Y-153271695D01*
X66276504Y-153319314D01*
X66371742Y-153366933D01*
X66419361Y-153414552D01*
X66466980Y-153509790D01*
X66466980Y-153605028D01*
X66419361Y-153700266D01*
X66371742Y-153747885D01*
X66276504Y-153795504D01*
X66086028Y-153843123D01*
X65847933Y-153843123D01*
X65657457Y-153795504D01*
X65562219Y-153747885D01*
X65514600Y-153700266D01*
X65466980Y-153605028D01*
%TO.C,D19*%
X109723180Y-155874885D02*
X108723180Y-155874885D01*
X108723180Y-155636790D01*
X108770800Y-155493933D01*
X108866038Y-155398695D01*
X108961276Y-155351076D01*
X109151752Y-155303457D01*
X109294609Y-155303457D01*
X109485085Y-155351076D01*
X109580323Y-155398695D01*
X109675561Y-155493933D01*
X109723180Y-155636790D01*
X109723180Y-155874885D01*
X109723180Y-154351076D02*
X109723180Y-154922504D01*
X109723180Y-154636790D02*
X108723180Y-154636790D01*
X108866038Y-154732028D01*
X108961276Y-154827266D01*
X109008895Y-154922504D01*
X109723180Y-153874885D02*
X109723180Y-153684409D01*
X109675561Y-153589171D01*
X109627942Y-153541552D01*
X109485085Y-153446314D01*
X109294609Y-153398695D01*
X108913657Y-153398695D01*
X108818419Y-153446314D01*
X108770800Y-153493933D01*
X108723180Y-153589171D01*
X108723180Y-153779647D01*
X108770800Y-153874885D01*
X108818419Y-153922504D01*
X108913657Y-153970123D01*
X109151752Y-153970123D01*
X109246990Y-153922504D01*
X109294609Y-153874885D01*
X109342228Y-153779647D01*
X109342228Y-153589171D01*
X109294609Y-153493933D01*
X109246990Y-153446314D01*
X109151752Y-153398695D01*
%TO.C,SCK3*%
X99823095Y-167284430D02*
X99965952Y-167332049D01*
X100204047Y-167332049D01*
X100299285Y-167284430D01*
X100346904Y-167236811D01*
X100394523Y-167141573D01*
X100394523Y-167046335D01*
X100346904Y-166951097D01*
X100299285Y-166903478D01*
X100204047Y-166855859D01*
X100013571Y-166808240D01*
X99918333Y-166760621D01*
X99870714Y-166713002D01*
X99823095Y-166617764D01*
X99823095Y-166522526D01*
X99870714Y-166427288D01*
X99918333Y-166379669D01*
X100013571Y-166332049D01*
X100251666Y-166332049D01*
X100394523Y-166379669D01*
X101394523Y-167236811D02*
X101346904Y-167284430D01*
X101204047Y-167332049D01*
X101108809Y-167332049D01*
X100965952Y-167284430D01*
X100870714Y-167189192D01*
X100823095Y-167093954D01*
X100775476Y-166903478D01*
X100775476Y-166760621D01*
X100823095Y-166570145D01*
X100870714Y-166474907D01*
X100965952Y-166379669D01*
X101108809Y-166332049D01*
X101204047Y-166332049D01*
X101346904Y-166379669D01*
X101394523Y-166427288D01*
X101823095Y-167332049D02*
X101823095Y-166332049D01*
X102394523Y-167332049D02*
X101965952Y-166760621D01*
X102394523Y-166332049D02*
X101823095Y-166903478D01*
X102727857Y-166332049D02*
X103346904Y-166332049D01*
X103013571Y-166713002D01*
X103156428Y-166713002D01*
X103251666Y-166760621D01*
X103299285Y-166808240D01*
X103346904Y-166903478D01*
X103346904Y-167141573D01*
X103299285Y-167236811D01*
X103251666Y-167284430D01*
X103156428Y-167332049D01*
X102870714Y-167332049D01*
X102775476Y-167284430D01*
X102727857Y-167236811D01*
%TO.C,D21*%
X127426980Y-155849485D02*
X126426980Y-155849485D01*
X126426980Y-155611390D01*
X126474600Y-155468533D01*
X126569838Y-155373295D01*
X126665076Y-155325676D01*
X126855552Y-155278057D01*
X126998409Y-155278057D01*
X127188885Y-155325676D01*
X127284123Y-155373295D01*
X127379361Y-155468533D01*
X127426980Y-155611390D01*
X127426980Y-155849485D01*
X126522219Y-154897104D02*
X126474600Y-154849485D01*
X126426980Y-154754247D01*
X126426980Y-154516152D01*
X126474600Y-154420914D01*
X126522219Y-154373295D01*
X126617457Y-154325676D01*
X126712695Y-154325676D01*
X126855552Y-154373295D01*
X127426980Y-154944723D01*
X127426980Y-154325676D01*
X127426980Y-153373295D02*
X127426980Y-153944723D01*
X127426980Y-153659009D02*
X126426980Y-153659009D01*
X126569838Y-153754247D01*
X126665076Y-153849485D01*
X126712695Y-153944723D01*
%TO.C,R2*%
X142073333Y-149550380D02*
X141740000Y-149074190D01*
X141501904Y-149550380D02*
X141501904Y-148550380D01*
X141882857Y-148550380D01*
X141978095Y-148598000D01*
X142025714Y-148645619D01*
X142073333Y-148740857D01*
X142073333Y-148883714D01*
X142025714Y-148978952D01*
X141978095Y-149026571D01*
X141882857Y-149074190D01*
X141501904Y-149074190D01*
X142454285Y-148645619D02*
X142501904Y-148598000D01*
X142597142Y-148550380D01*
X142835238Y-148550380D01*
X142930476Y-148598000D01*
X142978095Y-148645619D01*
X143025714Y-148740857D01*
X143025714Y-148836095D01*
X142978095Y-148978952D01*
X142406666Y-149550380D01*
X143025714Y-149550380D01*
%TO.C,D4*%
X33472380Y-155678095D02*
X32472380Y-155678095D01*
X32472380Y-155440000D01*
X32520000Y-155297142D01*
X32615238Y-155201904D01*
X32710476Y-155154285D01*
X32900952Y-155106666D01*
X33043809Y-155106666D01*
X33234285Y-155154285D01*
X33329523Y-155201904D01*
X33424761Y-155297142D01*
X33472380Y-155440000D01*
X33472380Y-155678095D01*
X32805714Y-154249523D02*
X33472380Y-154249523D01*
X32424761Y-154487619D02*
X33139047Y-154725714D01*
X33139047Y-154106666D01*
%TO.C,D8*%
X61412380Y-155678095D02*
X60412380Y-155678095D01*
X60412380Y-155440000D01*
X60460000Y-155297142D01*
X60555238Y-155201904D01*
X60650476Y-155154285D01*
X60840952Y-155106666D01*
X60983809Y-155106666D01*
X61174285Y-155154285D01*
X61269523Y-155201904D01*
X61364761Y-155297142D01*
X61412380Y-155440000D01*
X61412380Y-155678095D01*
X60840952Y-154535238D02*
X60793333Y-154630476D01*
X60745714Y-154678095D01*
X60650476Y-154725714D01*
X60602857Y-154725714D01*
X60507619Y-154678095D01*
X60460000Y-154630476D01*
X60412380Y-154535238D01*
X60412380Y-154344761D01*
X60460000Y-154249523D01*
X60507619Y-154201904D01*
X60602857Y-154154285D01*
X60650476Y-154154285D01*
X60745714Y-154201904D01*
X60793333Y-154249523D01*
X60840952Y-154344761D01*
X60840952Y-154535238D01*
X60888571Y-154630476D01*
X60936190Y-154678095D01*
X61031428Y-154725714D01*
X61221904Y-154725714D01*
X61317142Y-154678095D01*
X61364761Y-154630476D01*
X61412380Y-154535238D01*
X61412380Y-154344761D01*
X61364761Y-154249523D01*
X61317142Y-154201904D01*
X61221904Y-154154285D01*
X61031428Y-154154285D01*
X60936190Y-154201904D01*
X60888571Y-154249523D01*
X60840952Y-154344761D01*
%TO.C,D17*%
X102052380Y-155798685D02*
X101052380Y-155798685D01*
X101052380Y-155560590D01*
X101100000Y-155417733D01*
X101195238Y-155322495D01*
X101290476Y-155274876D01*
X101480952Y-155227257D01*
X101623809Y-155227257D01*
X101814285Y-155274876D01*
X101909523Y-155322495D01*
X102004761Y-155417733D01*
X102052380Y-155560590D01*
X102052380Y-155798685D01*
X102052380Y-154274876D02*
X102052380Y-154846304D01*
X102052380Y-154560590D02*
X101052380Y-154560590D01*
X101195238Y-154655828D01*
X101290476Y-154751066D01*
X101338095Y-154846304D01*
X101052380Y-153941542D02*
X101052380Y-153274876D01*
X102052380Y-153703447D01*
%TO.C,D24*%
X135097780Y-155951085D02*
X134097780Y-155951085D01*
X134097780Y-155712990D01*
X134145400Y-155570133D01*
X134240638Y-155474895D01*
X134335876Y-155427276D01*
X134526352Y-155379657D01*
X134669209Y-155379657D01*
X134859685Y-155427276D01*
X134954923Y-155474895D01*
X135050161Y-155570133D01*
X135097780Y-155712990D01*
X135097780Y-155951085D01*
X134193019Y-154998704D02*
X134145400Y-154951085D01*
X134097780Y-154855847D01*
X134097780Y-154617752D01*
X134145400Y-154522514D01*
X134193019Y-154474895D01*
X134288257Y-154427276D01*
X134383495Y-154427276D01*
X134526352Y-154474895D01*
X135097780Y-155046323D01*
X135097780Y-154427276D01*
X134431114Y-153570133D02*
X135097780Y-153570133D01*
X134050161Y-153808228D02*
X134764447Y-154046323D01*
X134764447Y-153427276D01*
%TO.C,D14*%
X97048580Y-155874885D02*
X96048580Y-155874885D01*
X96048580Y-155636790D01*
X96096200Y-155493933D01*
X96191438Y-155398695D01*
X96286676Y-155351076D01*
X96477152Y-155303457D01*
X96620009Y-155303457D01*
X96810485Y-155351076D01*
X96905723Y-155398695D01*
X97000961Y-155493933D01*
X97048580Y-155636790D01*
X97048580Y-155874885D01*
X97048580Y-154351076D02*
X97048580Y-154922504D01*
X97048580Y-154636790D02*
X96048580Y-154636790D01*
X96191438Y-154732028D01*
X96286676Y-154827266D01*
X96334295Y-154922504D01*
X96381914Y-153493933D02*
X97048580Y-153493933D01*
X96000961Y-153732028D02*
X96715247Y-153970123D01*
X96715247Y-153351076D01*
%TO.C,C1*%
X137857142Y-136056666D02*
X137904761Y-136104285D01*
X137952380Y-136247142D01*
X137952380Y-136342380D01*
X137904761Y-136485238D01*
X137809523Y-136580476D01*
X137714285Y-136628095D01*
X137523809Y-136675714D01*
X137380952Y-136675714D01*
X137190476Y-136628095D01*
X137095238Y-136580476D01*
X137000000Y-136485238D01*
X136952380Y-136342380D01*
X136952380Y-136247142D01*
X137000000Y-136104285D01*
X137047619Y-136056666D01*
X137952380Y-135104285D02*
X137952380Y-135675714D01*
X137952380Y-135390000D02*
X136952380Y-135390000D01*
X137095238Y-135485238D01*
X137190476Y-135580476D01*
X137238095Y-135675714D01*
X142352380Y-137437619D02*
X142352380Y-138009047D01*
X142352380Y-137723333D02*
X141352380Y-137723333D01*
X141495238Y-137818571D01*
X141590476Y-137913809D01*
X141638095Y-138009047D01*
X141352380Y-136818571D02*
X141352380Y-136723333D01*
X141400000Y-136628095D01*
X141447619Y-136580476D01*
X141542857Y-136532857D01*
X141733333Y-136485238D01*
X141971428Y-136485238D01*
X142161904Y-136532857D01*
X142257142Y-136580476D01*
X142304761Y-136628095D01*
X142352380Y-136723333D01*
X142352380Y-136818571D01*
X142304761Y-136913809D01*
X142257142Y-136961428D01*
X142161904Y-137009047D01*
X141971428Y-137056666D01*
X141733333Y-137056666D01*
X141542857Y-137009047D01*
X141447619Y-136961428D01*
X141400000Y-136913809D01*
X141352380Y-136818571D01*
X141352380Y-135866190D02*
X141352380Y-135770952D01*
X141400000Y-135675714D01*
X141447619Y-135628095D01*
X141542857Y-135580476D01*
X141733333Y-135532857D01*
X141971428Y-135532857D01*
X142161904Y-135580476D01*
X142257142Y-135628095D01*
X142304761Y-135675714D01*
X142352380Y-135770952D01*
X142352380Y-135866190D01*
X142304761Y-135961428D01*
X142257142Y-136009047D01*
X142161904Y-136056666D01*
X141971428Y-136104285D01*
X141733333Y-136104285D01*
X141542857Y-136056666D01*
X141447619Y-136009047D01*
X141400000Y-135961428D01*
X141352380Y-135866190D01*
X141685714Y-135104285D02*
X142352380Y-135104285D01*
X141780952Y-135104285D02*
X141733333Y-135056666D01*
X141685714Y-134961428D01*
X141685714Y-134818571D01*
X141733333Y-134723333D01*
X141828571Y-134675714D01*
X142352380Y-134675714D01*
X141828571Y-133866190D02*
X141828571Y-134199523D01*
X142352380Y-134199523D02*
X141352380Y-134199523D01*
X141352380Y-133723333D01*
%TO.C,R3*%
X144613333Y-149550380D02*
X144280000Y-149074190D01*
X144041904Y-149550380D02*
X144041904Y-148550380D01*
X144422857Y-148550380D01*
X144518095Y-148598000D01*
X144565714Y-148645619D01*
X144613333Y-148740857D01*
X144613333Y-148883714D01*
X144565714Y-148978952D01*
X144518095Y-149026571D01*
X144422857Y-149074190D01*
X144041904Y-149074190D01*
X144946666Y-148550380D02*
X145565714Y-148550380D01*
X145232380Y-148931333D01*
X145375238Y-148931333D01*
X145470476Y-148978952D01*
X145518095Y-149026571D01*
X145565714Y-149121809D01*
X145565714Y-149359904D01*
X145518095Y-149455142D01*
X145470476Y-149502761D01*
X145375238Y-149550380D01*
X145089523Y-149550380D01*
X144994285Y-149502761D01*
X144946666Y-149455142D01*
%TO.C,U1*%
X101043095Y-137887380D02*
X101043095Y-138696904D01*
X101090714Y-138792142D01*
X101138333Y-138839761D01*
X101233571Y-138887380D01*
X101424047Y-138887380D01*
X101519285Y-138839761D01*
X101566904Y-138792142D01*
X101614523Y-138696904D01*
X101614523Y-137887380D01*
X102614523Y-138887380D02*
X102043095Y-138887380D01*
X102328809Y-138887380D02*
X102328809Y-137887380D01*
X102233571Y-138030238D01*
X102138333Y-138125476D01*
X102043095Y-138173095D01*
X114848095Y-134072380D02*
X115514761Y-134072380D01*
X115086190Y-135072380D01*
X116324285Y-134405714D02*
X116324285Y-135072380D01*
X116086190Y-134024761D02*
X115848095Y-134739047D01*
X116467142Y-134739047D01*
X116848095Y-135072380D02*
X116848095Y-134072380D01*
X116848095Y-134548571D02*
X117419523Y-134548571D01*
X117419523Y-135072380D02*
X117419523Y-134072380D01*
X118467142Y-134977142D02*
X118419523Y-135024761D01*
X118276666Y-135072380D01*
X118181428Y-135072380D01*
X118038571Y-135024761D01*
X117943333Y-134929523D01*
X117895714Y-134834285D01*
X117848095Y-134643809D01*
X117848095Y-134500952D01*
X117895714Y-134310476D01*
X117943333Y-134215238D01*
X118038571Y-134120000D01*
X118181428Y-134072380D01*
X118276666Y-134072380D01*
X118419523Y-134120000D01*
X118467142Y-134167619D01*
X119419523Y-135072380D02*
X118848095Y-135072380D01*
X119133809Y-135072380D02*
X119133809Y-134072380D01*
X119038571Y-134215238D01*
X118943333Y-134310476D01*
X118848095Y-134358095D01*
X120324285Y-134072380D02*
X119848095Y-134072380D01*
X119800476Y-134548571D01*
X119848095Y-134500952D01*
X119943333Y-134453333D01*
X120181428Y-134453333D01*
X120276666Y-134500952D01*
X120324285Y-134548571D01*
X120371904Y-134643809D01*
X120371904Y-134881904D01*
X120324285Y-134977142D01*
X120276666Y-135024761D01*
X120181428Y-135072380D01*
X119943333Y-135072380D01*
X119848095Y-135024761D01*
X119800476Y-134977142D01*
X121229047Y-134405714D02*
X121229047Y-135072380D01*
X120990952Y-134024761D02*
X120752857Y-134739047D01*
X121371904Y-134739047D01*
%TO.C,D1*%
X43632380Y-155678095D02*
X42632380Y-155678095D01*
X42632380Y-155440000D01*
X42680000Y-155297142D01*
X42775238Y-155201904D01*
X42870476Y-155154285D01*
X43060952Y-155106666D01*
X43203809Y-155106666D01*
X43394285Y-155154285D01*
X43489523Y-155201904D01*
X43584761Y-155297142D01*
X43632380Y-155440000D01*
X43632380Y-155678095D01*
X43632380Y-154154285D02*
X43632380Y-154725714D01*
X43632380Y-154440000D02*
X42632380Y-154440000D01*
X42775238Y-154535238D01*
X42870476Y-154630476D01*
X42918095Y-154725714D01*
%TO.C,D23*%
X132532380Y-155925685D02*
X131532380Y-155925685D01*
X131532380Y-155687590D01*
X131580000Y-155544733D01*
X131675238Y-155449495D01*
X131770476Y-155401876D01*
X131960952Y-155354257D01*
X132103809Y-155354257D01*
X132294285Y-155401876D01*
X132389523Y-155449495D01*
X132484761Y-155544733D01*
X132532380Y-155687590D01*
X132532380Y-155925685D01*
X131627619Y-154973304D02*
X131580000Y-154925685D01*
X131532380Y-154830447D01*
X131532380Y-154592352D01*
X131580000Y-154497114D01*
X131627619Y-154449495D01*
X131722857Y-154401876D01*
X131818095Y-154401876D01*
X131960952Y-154449495D01*
X132532380Y-155020923D01*
X132532380Y-154401876D01*
X131532380Y-154068542D02*
X131532380Y-153449495D01*
X131913333Y-153782828D01*
X131913333Y-153639971D01*
X131960952Y-153544733D01*
X132008571Y-153497114D01*
X132103809Y-153449495D01*
X132341904Y-153449495D01*
X132437142Y-153497114D01*
X132484761Y-153544733D01*
X132532380Y-153639971D01*
X132532380Y-153925685D01*
X132484761Y-154020923D01*
X132437142Y-154068542D01*
%TO.C,SCK4*%
X132843095Y-167284430D02*
X132985952Y-167332049D01*
X133224047Y-167332049D01*
X133319285Y-167284430D01*
X133366904Y-167236811D01*
X133414523Y-167141573D01*
X133414523Y-167046335D01*
X133366904Y-166951097D01*
X133319285Y-166903478D01*
X133224047Y-166855859D01*
X133033571Y-166808240D01*
X132938333Y-166760621D01*
X132890714Y-166713002D01*
X132843095Y-166617764D01*
X132843095Y-166522526D01*
X132890714Y-166427288D01*
X132938333Y-166379669D01*
X133033571Y-166332049D01*
X133271666Y-166332049D01*
X133414523Y-166379669D01*
X134414523Y-167236811D02*
X134366904Y-167284430D01*
X134224047Y-167332049D01*
X134128809Y-167332049D01*
X133985952Y-167284430D01*
X133890714Y-167189192D01*
X133843095Y-167093954D01*
X133795476Y-166903478D01*
X133795476Y-166760621D01*
X133843095Y-166570145D01*
X133890714Y-166474907D01*
X133985952Y-166379669D01*
X134128809Y-166332049D01*
X134224047Y-166332049D01*
X134366904Y-166379669D01*
X134414523Y-166427288D01*
X134843095Y-167332049D02*
X134843095Y-166332049D01*
X135414523Y-167332049D02*
X134985952Y-166760621D01*
X135414523Y-166332049D02*
X134843095Y-166903478D01*
X136271666Y-166665383D02*
X136271666Y-167332049D01*
X136033571Y-166284430D02*
X135795476Y-166998716D01*
X136414523Y-166998716D01*
%TO.C,D25*%
X139618980Y-155849485D02*
X138618980Y-155849485D01*
X138618980Y-155611390D01*
X138666600Y-155468533D01*
X138761838Y-155373295D01*
X138857076Y-155325676D01*
X139047552Y-155278057D01*
X139190409Y-155278057D01*
X139380885Y-155325676D01*
X139476123Y-155373295D01*
X139571361Y-155468533D01*
X139618980Y-155611390D01*
X139618980Y-155849485D01*
X138714219Y-154897104D02*
X138666600Y-154849485D01*
X138618980Y-154754247D01*
X138618980Y-154516152D01*
X138666600Y-154420914D01*
X138714219Y-154373295D01*
X138809457Y-154325676D01*
X138904695Y-154325676D01*
X139047552Y-154373295D01*
X139618980Y-154944723D01*
X139618980Y-154325676D01*
X138618980Y-153420914D02*
X138618980Y-153897104D01*
X139095171Y-153944723D01*
X139047552Y-153897104D01*
X138999933Y-153801866D01*
X138999933Y-153563771D01*
X139047552Y-153468533D01*
X139095171Y-153420914D01*
X139190409Y-153373295D01*
X139428504Y-153373295D01*
X139523742Y-153420914D01*
X139571361Y-153468533D01*
X139618980Y-153563771D01*
X139618980Y-153801866D01*
X139571361Y-153897104D01*
X139523742Y-153944723D01*
%TO.C,D18*%
X104566980Y-155747885D02*
X103566980Y-155747885D01*
X103566980Y-155509790D01*
X103614600Y-155366933D01*
X103709838Y-155271695D01*
X103805076Y-155224076D01*
X103995552Y-155176457D01*
X104138409Y-155176457D01*
X104328885Y-155224076D01*
X104424123Y-155271695D01*
X104519361Y-155366933D01*
X104566980Y-155509790D01*
X104566980Y-155747885D01*
X104566980Y-154224076D02*
X104566980Y-154795504D01*
X104566980Y-154509790D02*
X103566980Y-154509790D01*
X103709838Y-154605028D01*
X103805076Y-154700266D01*
X103852695Y-154795504D01*
X103995552Y-153652647D02*
X103947933Y-153747885D01*
X103900314Y-153795504D01*
X103805076Y-153843123D01*
X103757457Y-153843123D01*
X103662219Y-153795504D01*
X103614600Y-153747885D01*
X103566980Y-153652647D01*
X103566980Y-153462171D01*
X103614600Y-153366933D01*
X103662219Y-153319314D01*
X103757457Y-153271695D01*
X103805076Y-153271695D01*
X103900314Y-153319314D01*
X103947933Y-153366933D01*
X103995552Y-153462171D01*
X103995552Y-153652647D01*
X104043171Y-153747885D01*
X104090790Y-153795504D01*
X104186028Y-153843123D01*
X104376504Y-153843123D01*
X104471742Y-153795504D01*
X104519361Y-153747885D01*
X104566980Y-153652647D01*
X104566980Y-153462171D01*
X104519361Y-153366933D01*
X104471742Y-153319314D01*
X104376504Y-153271695D01*
X104186028Y-153271695D01*
X104090790Y-153319314D01*
X104043171Y-153366933D01*
X103995552Y-153462171D01*
%TO.C,D7*%
X58872380Y-155678095D02*
X57872380Y-155678095D01*
X57872380Y-155440000D01*
X57920000Y-155297142D01*
X58015238Y-155201904D01*
X58110476Y-155154285D01*
X58300952Y-155106666D01*
X58443809Y-155106666D01*
X58634285Y-155154285D01*
X58729523Y-155201904D01*
X58824761Y-155297142D01*
X58872380Y-155440000D01*
X58872380Y-155678095D01*
X57872380Y-154773333D02*
X57872380Y-154106666D01*
X58872380Y-154535238D01*
%TO.C,R6*%
X147153333Y-140914380D02*
X146820000Y-140438190D01*
X146581904Y-140914380D02*
X146581904Y-139914380D01*
X146962857Y-139914380D01*
X147058095Y-139962000D01*
X147105714Y-140009619D01*
X147153333Y-140104857D01*
X147153333Y-140247714D01*
X147105714Y-140342952D01*
X147058095Y-140390571D01*
X146962857Y-140438190D01*
X146581904Y-140438190D01*
X148010476Y-139914380D02*
X147820000Y-139914380D01*
X147724761Y-139962000D01*
X147677142Y-140009619D01*
X147581904Y-140152476D01*
X147534285Y-140342952D01*
X147534285Y-140723904D01*
X147581904Y-140819142D01*
X147629523Y-140866761D01*
X147724761Y-140914380D01*
X147915238Y-140914380D01*
X148010476Y-140866761D01*
X148058095Y-140819142D01*
X148105714Y-140723904D01*
X148105714Y-140485809D01*
X148058095Y-140390571D01*
X148010476Y-140342952D01*
X147915238Y-140295333D01*
X147724761Y-140295333D01*
X147629523Y-140342952D01*
X147581904Y-140390571D01*
X147534285Y-140485809D01*
X144130828Y-150509314D02*
X144130828Y-151175980D01*
X143892733Y-150128361D02*
X143654638Y-150842647D01*
X144273685Y-150842647D01*
X144654638Y-151080742D02*
X144702257Y-151128361D01*
X144654638Y-151175980D01*
X144607019Y-151128361D01*
X144654638Y-151080742D01*
X144654638Y-151175980D01*
X145035590Y-150175980D02*
X145702257Y-150175980D01*
X145273685Y-151175980D01*
X146083209Y-151175980D02*
X146083209Y-150175980D01*
X146178447Y-150795028D02*
X146464161Y-151175980D01*
X146464161Y-150509314D02*
X146083209Y-150890266D01*
%TO.C,D5*%
X30932380Y-155678095D02*
X29932380Y-155678095D01*
X29932380Y-155440000D01*
X29980000Y-155297142D01*
X30075238Y-155201904D01*
X30170476Y-155154285D01*
X30360952Y-155106666D01*
X30503809Y-155106666D01*
X30694285Y-155154285D01*
X30789523Y-155201904D01*
X30884761Y-155297142D01*
X30932380Y-155440000D01*
X30932380Y-155678095D01*
X29932380Y-154201904D02*
X29932380Y-154678095D01*
X30408571Y-154725714D01*
X30360952Y-154678095D01*
X30313333Y-154582857D01*
X30313333Y-154344761D01*
X30360952Y-154249523D01*
X30408571Y-154201904D01*
X30503809Y-154154285D01*
X30741904Y-154154285D01*
X30837142Y-154201904D01*
X30884761Y-154249523D01*
X30932380Y-154344761D01*
X30932380Y-154582857D01*
X30884761Y-154678095D01*
X30837142Y-154725714D01*
%TO.C,D6*%
X28392380Y-155678095D02*
X27392380Y-155678095D01*
X27392380Y-155440000D01*
X27440000Y-155297142D01*
X27535238Y-155201904D01*
X27630476Y-155154285D01*
X27820952Y-155106666D01*
X27963809Y-155106666D01*
X28154285Y-155154285D01*
X28249523Y-155201904D01*
X28344761Y-155297142D01*
X28392380Y-155440000D01*
X28392380Y-155678095D01*
X27392380Y-154249523D02*
X27392380Y-154440000D01*
X27440000Y-154535238D01*
X27487619Y-154582857D01*
X27630476Y-154678095D01*
X27820952Y-154725714D01*
X28201904Y-154725714D01*
X28297142Y-154678095D01*
X28344761Y-154630476D01*
X28392380Y-154535238D01*
X28392380Y-154344761D01*
X28344761Y-154249523D01*
X28297142Y-154201904D01*
X28201904Y-154154285D01*
X27963809Y-154154285D01*
X27868571Y-154201904D01*
X27820952Y-154249523D01*
X27773333Y-154344761D01*
X27773333Y-154535238D01*
X27820952Y-154630476D01*
X27868571Y-154678095D01*
X27963809Y-154725714D01*
%TO.C,D13*%
X94432380Y-155874885D02*
X93432380Y-155874885D01*
X93432380Y-155636790D01*
X93480000Y-155493933D01*
X93575238Y-155398695D01*
X93670476Y-155351076D01*
X93860952Y-155303457D01*
X94003809Y-155303457D01*
X94194285Y-155351076D01*
X94289523Y-155398695D01*
X94384761Y-155493933D01*
X94432380Y-155636790D01*
X94432380Y-155874885D01*
X94432380Y-154351076D02*
X94432380Y-154922504D01*
X94432380Y-154636790D02*
X93432380Y-154636790D01*
X93575238Y-154732028D01*
X93670476Y-154827266D01*
X93718095Y-154922504D01*
X93432380Y-154017742D02*
X93432380Y-153398695D01*
X93813333Y-153732028D01*
X93813333Y-153589171D01*
X93860952Y-153493933D01*
X93908571Y-153446314D01*
X94003809Y-153398695D01*
X94241904Y-153398695D01*
X94337142Y-153446314D01*
X94384761Y-153493933D01*
X94432380Y-153589171D01*
X94432380Y-153874885D01*
X94384761Y-153970123D01*
X94337142Y-154017742D01*
%TO.C,SCK1*%
X33783095Y-167284430D02*
X33925952Y-167332049D01*
X34164047Y-167332049D01*
X34259285Y-167284430D01*
X34306904Y-167236811D01*
X34354523Y-167141573D01*
X34354523Y-167046335D01*
X34306904Y-166951097D01*
X34259285Y-166903478D01*
X34164047Y-166855859D01*
X33973571Y-166808240D01*
X33878333Y-166760621D01*
X33830714Y-166713002D01*
X33783095Y-166617764D01*
X33783095Y-166522526D01*
X33830714Y-166427288D01*
X33878333Y-166379669D01*
X33973571Y-166332049D01*
X34211666Y-166332049D01*
X34354523Y-166379669D01*
X35354523Y-167236811D02*
X35306904Y-167284430D01*
X35164047Y-167332049D01*
X35068809Y-167332049D01*
X34925952Y-167284430D01*
X34830714Y-167189192D01*
X34783095Y-167093954D01*
X34735476Y-166903478D01*
X34735476Y-166760621D01*
X34783095Y-166570145D01*
X34830714Y-166474907D01*
X34925952Y-166379669D01*
X35068809Y-166332049D01*
X35164047Y-166332049D01*
X35306904Y-166379669D01*
X35354523Y-166427288D01*
X35783095Y-167332049D02*
X35783095Y-166332049D01*
X36354523Y-167332049D02*
X35925952Y-166760621D01*
X36354523Y-166332049D02*
X35783095Y-166903478D01*
X37306904Y-167332049D02*
X36735476Y-167332049D01*
X37021190Y-167332049D02*
X37021190Y-166332049D01*
X36925952Y-166474907D01*
X36830714Y-166570145D01*
X36735476Y-166617764D01*
%TO.C,R1*%
X139533333Y-149550380D02*
X139200000Y-149074190D01*
X138961904Y-149550380D02*
X138961904Y-148550380D01*
X139342857Y-148550380D01*
X139438095Y-148598000D01*
X139485714Y-148645619D01*
X139533333Y-148740857D01*
X139533333Y-148883714D01*
X139485714Y-148978952D01*
X139438095Y-149026571D01*
X139342857Y-149074190D01*
X138961904Y-149074190D01*
X140485714Y-149550380D02*
X139914285Y-149550380D01*
X140200000Y-149550380D02*
X140200000Y-148550380D01*
X140104761Y-148693238D01*
X140009523Y-148788476D01*
X139914285Y-148836095D01*
D11*
%TO.C,R5*%
X137160000Y-146400000D02*
X137160000Y-145780000D01*
X138080000Y-147320000D02*
G75*
G03*
X138080000Y-147320000I-920000J0D01*
G01*
%TO.C,D22*%
X130660000Y-152820000D02*
X128420000Y-152820000D01*
X128420000Y-157060000D02*
X130660000Y-157060000D01*
X128420000Y-156340000D02*
X130660000Y-156340000D01*
X128420000Y-156460000D02*
X130660000Y-156460000D01*
X128420000Y-156220000D02*
X130660000Y-156220000D01*
X128420000Y-152820000D02*
X128420000Y-157060000D01*
X129540000Y-157710000D02*
X129540000Y-157060000D01*
X130660000Y-157060000D02*
X130660000Y-152820000D01*
X129540000Y-152170000D02*
X129540000Y-152820000D01*
%TO.C,D16*%
X141200000Y-142240000D02*
X140550000Y-142240000D01*
X136910000Y-141120000D02*
X136910000Y-143360000D01*
X136310000Y-143360000D02*
X140550000Y-143360000D01*
X140550000Y-143360000D02*
X140550000Y-141120000D01*
X137030000Y-141120000D02*
X137030000Y-143360000D01*
X137150000Y-141120000D02*
X137150000Y-143360000D01*
X140550000Y-141120000D02*
X136310000Y-141120000D01*
X136310000Y-141120000D02*
X136310000Y-143360000D01*
X135660000Y-142240000D02*
X136310000Y-142240000D01*
%TO.C,D20*%
X125580000Y-157060000D02*
X125580000Y-152820000D01*
X124460000Y-157710000D02*
X124460000Y-157060000D01*
X125580000Y-152820000D02*
X123340000Y-152820000D01*
X124460000Y-152170000D02*
X124460000Y-152820000D01*
X123340000Y-156460000D02*
X125580000Y-156460000D01*
X123340000Y-152820000D02*
X123340000Y-157060000D01*
X123340000Y-157060000D02*
X125580000Y-157060000D01*
X123340000Y-156220000D02*
X125580000Y-156220000D01*
X123340000Y-156340000D02*
X125580000Y-156340000D01*
%TO.C,D11*%
X67460000Y-152820000D02*
X67460000Y-157060000D01*
X69700000Y-152820000D02*
X67460000Y-152820000D01*
X67460000Y-157060000D02*
X69700000Y-157060000D01*
X67460000Y-156340000D02*
X69700000Y-156340000D01*
X68580000Y-152170000D02*
X68580000Y-152820000D01*
X67460000Y-156220000D02*
X69700000Y-156220000D01*
X67460000Y-156460000D02*
X69700000Y-156460000D01*
X68580000Y-157710000D02*
X68580000Y-157060000D01*
X69700000Y-157060000D02*
X69700000Y-152820000D01*
%TO.C,D3*%
X35560000Y-152170000D02*
X35560000Y-152820000D01*
X34440000Y-157060000D02*
X36680000Y-157060000D01*
X35560000Y-157710000D02*
X35560000Y-157060000D01*
X34440000Y-156220000D02*
X36680000Y-156220000D01*
X34440000Y-156340000D02*
X36680000Y-156340000D01*
X34440000Y-156460000D02*
X36680000Y-156460000D01*
X36680000Y-157060000D02*
X36680000Y-152820000D01*
X36680000Y-152820000D02*
X34440000Y-152820000D01*
X34440000Y-152820000D02*
X34440000Y-157060000D01*
%TO.C,C3*%
X25630000Y-128730000D02*
X24134000Y-128730000D01*
X25630000Y-130251000D02*
X25017000Y-130251000D01*
X25630000Y-128530000D02*
X24105000Y-128530000D01*
X29068000Y-129211000D02*
X27710000Y-129211000D01*
X25630000Y-129491000D02*
X24402000Y-129491000D01*
X25630000Y-129451000D02*
X24380000Y-129451000D01*
X29171000Y-128890000D02*
X27710000Y-128890000D01*
X25630000Y-128650000D02*
X24120000Y-128650000D01*
X28819000Y-129691000D02*
X27710000Y-129691000D01*
X25630000Y-129131000D02*
X24242000Y-129131000D01*
X28894000Y-129571000D02*
X27710000Y-129571000D01*
X28870000Y-129611000D02*
X27710000Y-129611000D01*
X29138000Y-129011000D02*
X27710000Y-129011000D01*
X25630000Y-128490000D02*
X24101000Y-128490000D01*
X25630000Y-129211000D02*
X24272000Y-129211000D01*
X25630000Y-129291000D02*
X24305000Y-129291000D01*
X25630000Y-129611000D02*
X24470000Y-129611000D01*
X29213000Y-128690000D02*
X27710000Y-128690000D01*
X29018000Y-129331000D02*
X27710000Y-129331000D01*
X27921000Y-130531000D02*
X27710000Y-130531000D01*
X28455000Y-130131000D02*
X27710000Y-130131000D01*
X27585000Y-130691000D02*
X25755000Y-130691000D01*
X29198000Y-128770000D02*
X27710000Y-128770000D01*
X28980000Y-129411000D02*
X27710000Y-129411000D01*
X25630000Y-128971000D02*
X24190000Y-128971000D01*
X27681000Y-130651000D02*
X25659000Y-130651000D01*
X25630000Y-130451000D02*
X25287000Y-130451000D01*
X28960000Y-129451000D02*
X27710000Y-129451000D01*
X25630000Y-129971000D02*
X24733000Y-129971000D01*
X25630000Y-129011000D02*
X24202000Y-129011000D01*
X25630000Y-129811000D02*
X24605000Y-129811000D01*
X29125000Y-129051000D02*
X27710000Y-129051000D01*
X25630000Y-129091000D02*
X24228000Y-129091000D01*
X25630000Y-129851000D02*
X24635000Y-129851000D01*
X29220000Y-128650000D02*
X27710000Y-128650000D01*
X29226000Y-128610000D02*
X27710000Y-128610000D01*
X29250000Y-128290000D02*
X24090000Y-128290000D01*
X27768000Y-130611000D02*
X25572000Y-130611000D01*
X25630000Y-130531000D02*
X25419000Y-130531000D01*
X25630000Y-130171000D02*
X24927000Y-130171000D01*
X25630000Y-128570000D02*
X24109000Y-128570000D01*
X25630000Y-129371000D02*
X24341000Y-129371000D01*
X28170000Y-130371000D02*
X27710000Y-130371000D01*
X25630000Y-129251000D02*
X24288000Y-129251000D01*
X28917000Y-129531000D02*
X27710000Y-129531000D01*
X28113000Y-130411000D02*
X27710000Y-130411000D01*
X29206000Y-128730000D02*
X27710000Y-128730000D01*
X25630000Y-128770000D02*
X24142000Y-128770000D01*
X25630000Y-130091000D02*
X24844000Y-130091000D01*
X25630000Y-130051000D02*
X24806000Y-130051000D01*
X25630000Y-128690000D02*
X24127000Y-128690000D01*
X28413000Y-130171000D02*
X27710000Y-130171000D01*
X28323000Y-130251000D02*
X27710000Y-130251000D01*
X27347000Y-130771000D02*
X25993000Y-130771000D01*
X25630000Y-128610000D02*
X24114000Y-128610000D01*
X28053000Y-130451000D02*
X27710000Y-130451000D01*
X25630000Y-130291000D02*
X25065000Y-130291000D01*
X28275000Y-130291000D02*
X27710000Y-130291000D01*
X25630000Y-129891000D02*
X24666000Y-129891000D01*
X28845000Y-129651000D02*
X27710000Y-129651000D01*
X25630000Y-129411000D02*
X24360000Y-129411000D01*
X27848000Y-130571000D02*
X25492000Y-130571000D01*
X29098000Y-129131000D02*
X27710000Y-129131000D01*
X28765000Y-129771000D02*
X27710000Y-129771000D01*
X29246000Y-128410000D02*
X24094000Y-128410000D01*
X28145000Y-125445225D02*
X28145000Y-125945225D01*
X29052000Y-129251000D02*
X27710000Y-129251000D01*
X28369000Y-130211000D02*
X27710000Y-130211000D01*
X29231000Y-128570000D02*
X27710000Y-128570000D01*
X29181000Y-128850000D02*
X27710000Y-128850000D01*
X28999000Y-129371000D02*
X27710000Y-129371000D01*
X28705000Y-129851000D02*
X27710000Y-129851000D01*
X28496000Y-130091000D02*
X27710000Y-130091000D01*
X27188000Y-130811000D02*
X26152000Y-130811000D01*
X28571000Y-130011000D02*
X27710000Y-130011000D01*
X25630000Y-128890000D02*
X24169000Y-128890000D01*
X25630000Y-129531000D02*
X24423000Y-129531000D01*
X29235000Y-128530000D02*
X27710000Y-128530000D01*
X25630000Y-128930000D02*
X24179000Y-128930000D01*
X29190000Y-128810000D02*
X27710000Y-128810000D01*
X29112000Y-129091000D02*
X27710000Y-129091000D01*
X29161000Y-128930000D02*
X27710000Y-128930000D01*
X29250000Y-128250000D02*
X24090000Y-128250000D01*
X28735000Y-129811000D02*
X27710000Y-129811000D01*
X25630000Y-129771000D02*
X24575000Y-129771000D01*
X28674000Y-129891000D02*
X27710000Y-129891000D01*
X25630000Y-130331000D02*
X25116000Y-130331000D01*
X28395000Y-125695225D02*
X27895000Y-125695225D01*
X29249000Y-128330000D02*
X24091000Y-128330000D01*
X25630000Y-130131000D02*
X24885000Y-130131000D01*
X28641000Y-129931000D02*
X27710000Y-129931000D01*
X29248000Y-128370000D02*
X24092000Y-128370000D01*
X25630000Y-128810000D02*
X24150000Y-128810000D01*
X28534000Y-130051000D02*
X27710000Y-130051000D01*
X25630000Y-129931000D02*
X24699000Y-129931000D01*
X28224000Y-130331000D02*
X27710000Y-130331000D01*
X25630000Y-129651000D02*
X24495000Y-129651000D01*
X29035000Y-129291000D02*
X27710000Y-129291000D01*
X25630000Y-129051000D02*
X24215000Y-129051000D01*
X27475000Y-130731000D02*
X25865000Y-130731000D01*
X29243000Y-128450000D02*
X24097000Y-128450000D01*
X25630000Y-129171000D02*
X24256000Y-129171000D01*
X25630000Y-130211000D02*
X24971000Y-130211000D01*
X25630000Y-130411000D02*
X25227000Y-130411000D01*
X25630000Y-129691000D02*
X24521000Y-129691000D01*
X29239000Y-128490000D02*
X27710000Y-128490000D01*
X25630000Y-130371000D02*
X25170000Y-130371000D01*
X25630000Y-129731000D02*
X24548000Y-129731000D01*
X25630000Y-128850000D02*
X24159000Y-128850000D01*
X25630000Y-129571000D02*
X24446000Y-129571000D01*
X28938000Y-129491000D02*
X27710000Y-129491000D01*
X29084000Y-129171000D02*
X27710000Y-129171000D01*
X29150000Y-128971000D02*
X27710000Y-128971000D01*
X28792000Y-129731000D02*
X27710000Y-129731000D01*
X25630000Y-129331000D02*
X24322000Y-129331000D01*
X25630000Y-130011000D02*
X24769000Y-130011000D01*
X25630000Y-130491000D02*
X25351000Y-130491000D01*
X26954000Y-130851000D02*
X26386000Y-130851000D01*
X28607000Y-129971000D02*
X27710000Y-129971000D01*
X27989000Y-130491000D02*
X27710000Y-130491000D01*
X29290000Y-128250000D02*
G75*
G03*
X29290000Y-128250000I-2620000J0D01*
G01*
%TO.C,D12*%
X72540000Y-156460000D02*
X74780000Y-156460000D01*
X74780000Y-157060000D02*
X74780000Y-152820000D01*
X73660000Y-157710000D02*
X73660000Y-157060000D01*
X72540000Y-152820000D02*
X72540000Y-157060000D01*
X72540000Y-156220000D02*
X74780000Y-156220000D01*
X74780000Y-152820000D02*
X72540000Y-152820000D01*
X73660000Y-152170000D02*
X73660000Y-152820000D01*
X72540000Y-156340000D02*
X74780000Y-156340000D01*
X72540000Y-157060000D02*
X74780000Y-157060000D01*
%TO.C,D2*%
X38100000Y-157710000D02*
X38100000Y-157060000D01*
X36980000Y-156460000D02*
X39220000Y-156460000D01*
X39220000Y-157060000D02*
X39220000Y-152820000D01*
X39220000Y-152820000D02*
X36980000Y-152820000D01*
X36980000Y-156220000D02*
X39220000Y-156220000D01*
X36980000Y-152820000D02*
X36980000Y-157060000D01*
X38100000Y-152170000D02*
X38100000Y-152820000D01*
X36980000Y-156340000D02*
X39220000Y-156340000D01*
X36980000Y-157060000D02*
X39220000Y-157060000D01*
%TO.C,R4*%
X147320000Y-146400000D02*
X147320000Y-145780000D01*
X148240000Y-147320000D02*
G75*
G03*
X148240000Y-147320000I-920000J0D01*
G01*
%TO.C,R7*%
X117760000Y-128270000D02*
X118380000Y-128270000D01*
X117760000Y-128270000D02*
G75*
G03*
X117760000Y-128270000I-920000J0D01*
G01*
%TO.C,C2*%
X32820000Y-125960000D02*
X32820000Y-130500000D01*
X30680000Y-125960000D02*
X30680000Y-130500000D01*
X30695000Y-125960000D02*
X30680000Y-125960000D01*
X32820000Y-130500000D02*
X32805000Y-130500000D01*
X32820000Y-125960000D02*
X32805000Y-125960000D01*
X30695000Y-130500000D02*
X30680000Y-130500000D01*
%TO.C,P1*%
X35480000Y-125680000D02*
X35480000Y-128340000D01*
X66020000Y-125680000D02*
X66020000Y-128340000D01*
X66020000Y-128340000D02*
X35480000Y-128340000D01*
X67290000Y-125680000D02*
X68620000Y-125680000D01*
X68620000Y-125680000D02*
X68620000Y-127010000D01*
X66020000Y-125680000D02*
X35480000Y-125680000D01*
%TO.C,U2*%
X59745000Y-133630000D02*
X59745000Y-131980000D01*
X59745000Y-137280000D02*
X59745000Y-135630000D01*
X34225000Y-137280000D02*
X59745000Y-137280000D01*
X34225000Y-131980000D02*
X34225000Y-137280000D01*
X59745000Y-131980000D02*
X34225000Y-131980000D01*
X59745000Y-133630000D02*
G75*
G03*
X59745000Y-135630000I0J-1000000D01*
G01*
%TO.C,D9*%
X62380000Y-157060000D02*
X64620000Y-157060000D01*
X62380000Y-152820000D02*
X62380000Y-157060000D01*
X62380000Y-156340000D02*
X64620000Y-156340000D01*
X63500000Y-152170000D02*
X63500000Y-152820000D01*
X63500000Y-157710000D02*
X63500000Y-157060000D01*
X62380000Y-156460000D02*
X64620000Y-156460000D01*
X64620000Y-152820000D02*
X62380000Y-152820000D01*
X64620000Y-157060000D02*
X64620000Y-152820000D01*
X62380000Y-156220000D02*
X64620000Y-156220000D01*
%TO.C,D15*%
X97940000Y-156220000D02*
X100180000Y-156220000D01*
X97940000Y-152820000D02*
X97940000Y-157060000D01*
X99060000Y-157710000D02*
X99060000Y-157060000D01*
X100180000Y-157060000D02*
X100180000Y-152820000D01*
X97940000Y-156460000D02*
X100180000Y-156460000D01*
X97940000Y-157060000D02*
X100180000Y-157060000D01*
X99060000Y-152170000D02*
X99060000Y-152820000D01*
X97940000Y-156340000D02*
X100180000Y-156340000D01*
X100180000Y-152820000D02*
X97940000Y-152820000D01*
%TO.C,SCK2*%
X72880000Y-167358344D02*
X72630000Y-166925331D01*
X53080000Y-167819669D02*
X84050000Y-167819669D01*
X73130000Y-166925331D02*
X72880000Y-167358344D01*
X53080000Y-181709669D02*
X53080000Y-167819669D01*
X72630000Y-166925331D02*
X73130000Y-166925331D01*
X84050000Y-167819669D02*
X84050000Y-181709669D01*
%TO.C,D10*%
X64920000Y-156340000D02*
X67160000Y-156340000D01*
X64920000Y-156220000D02*
X67160000Y-156220000D01*
X64920000Y-157060000D02*
X67160000Y-157060000D01*
X64920000Y-152820000D02*
X64920000Y-157060000D01*
X66040000Y-152170000D02*
X66040000Y-152820000D01*
X64920000Y-156460000D02*
X67160000Y-156460000D01*
X67160000Y-157060000D02*
X67160000Y-152820000D01*
X67160000Y-152820000D02*
X64920000Y-152820000D01*
X66040000Y-157710000D02*
X66040000Y-157060000D01*
%TO.C,D19*%
X110340000Y-157060000D02*
X110340000Y-152820000D01*
X108100000Y-156460000D02*
X110340000Y-156460000D01*
X109220000Y-157710000D02*
X109220000Y-157060000D01*
X108100000Y-157060000D02*
X110340000Y-157060000D01*
X108100000Y-156220000D02*
X110340000Y-156220000D01*
X108100000Y-156340000D02*
X110340000Y-156340000D01*
X109220000Y-152170000D02*
X109220000Y-152820000D01*
X108100000Y-152820000D02*
X108100000Y-157060000D01*
X110340000Y-152820000D02*
X108100000Y-152820000D01*
%TO.C,SCK3*%
X105650000Y-166925331D02*
X106150000Y-166925331D01*
X86100000Y-181709669D02*
X86100000Y-167819669D01*
X86100000Y-167819669D02*
X117070000Y-167819669D01*
X106150000Y-166925331D02*
X105900000Y-167358344D01*
X117070000Y-167819669D02*
X117070000Y-181709669D01*
X105900000Y-167358344D02*
X105650000Y-166925331D01*
%TO.C,D21*%
X125880000Y-156220000D02*
X128120000Y-156220000D01*
X125880000Y-156340000D02*
X128120000Y-156340000D01*
X127000000Y-152170000D02*
X127000000Y-152820000D01*
X125880000Y-157060000D02*
X128120000Y-157060000D01*
X125880000Y-152820000D02*
X125880000Y-157060000D01*
X128120000Y-152820000D02*
X125880000Y-152820000D01*
X128120000Y-157060000D02*
X128120000Y-152820000D01*
X127000000Y-157710000D02*
X127000000Y-157060000D01*
X125880000Y-156460000D02*
X128120000Y-156460000D01*
%TO.C,R2*%
X142240000Y-146400000D02*
X142240000Y-145780000D01*
X143160000Y-147320000D02*
G75*
G03*
X143160000Y-147320000I-920000J0D01*
G01*
%TO.C,D4*%
X33020000Y-152170000D02*
X33020000Y-152820000D01*
X31900000Y-152820000D02*
X31900000Y-157060000D01*
X31900000Y-156340000D02*
X34140000Y-156340000D01*
X34140000Y-152820000D02*
X31900000Y-152820000D01*
X31900000Y-157060000D02*
X34140000Y-157060000D01*
X31900000Y-156460000D02*
X34140000Y-156460000D01*
X31900000Y-156220000D02*
X34140000Y-156220000D01*
X33020000Y-157710000D02*
X33020000Y-157060000D01*
X34140000Y-157060000D02*
X34140000Y-152820000D01*
%TO.C,D8*%
X59840000Y-156220000D02*
X62080000Y-156220000D01*
X60960000Y-157710000D02*
X60960000Y-157060000D01*
X59840000Y-156340000D02*
X62080000Y-156340000D01*
X62080000Y-157060000D02*
X62080000Y-152820000D01*
X59840000Y-152820000D02*
X59840000Y-157060000D01*
X59840000Y-157060000D02*
X62080000Y-157060000D01*
X60960000Y-152170000D02*
X60960000Y-152820000D01*
X62080000Y-152820000D02*
X59840000Y-152820000D01*
X59840000Y-156460000D02*
X62080000Y-156460000D01*
%TO.C,D17*%
X100480000Y-156340000D02*
X102720000Y-156340000D01*
X101600000Y-152170000D02*
X101600000Y-152820000D01*
X100480000Y-157060000D02*
X102720000Y-157060000D01*
X100480000Y-156460000D02*
X102720000Y-156460000D01*
X102720000Y-152820000D02*
X100480000Y-152820000D01*
X101600000Y-157710000D02*
X101600000Y-157060000D01*
X102720000Y-157060000D02*
X102720000Y-152820000D01*
X100480000Y-156220000D02*
X102720000Y-156220000D01*
X100480000Y-152820000D02*
X100480000Y-157060000D01*
%TO.C,D24*%
X133500000Y-156340000D02*
X135740000Y-156340000D01*
X134620000Y-157710000D02*
X134620000Y-157060000D01*
X134620000Y-152170000D02*
X134620000Y-152820000D01*
X133500000Y-152820000D02*
X133500000Y-157060000D01*
X133500000Y-156220000D02*
X135740000Y-156220000D01*
X133500000Y-157060000D02*
X135740000Y-157060000D01*
X135740000Y-157060000D02*
X135740000Y-152820000D01*
X133500000Y-156460000D02*
X135740000Y-156460000D01*
X135740000Y-152820000D02*
X133500000Y-152820000D01*
%TO.C,D14*%
X95400000Y-156220000D02*
X97640000Y-156220000D01*
X96520000Y-157710000D02*
X96520000Y-157060000D01*
X97640000Y-157060000D02*
X97640000Y-152820000D01*
X95400000Y-157060000D02*
X97640000Y-157060000D01*
X95400000Y-156460000D02*
X97640000Y-156460000D01*
X95400000Y-156340000D02*
X97640000Y-156340000D01*
X97640000Y-152820000D02*
X95400000Y-152820000D01*
X96520000Y-152170000D02*
X96520000Y-152820000D01*
X95400000Y-152820000D02*
X95400000Y-157060000D01*
%TO.C,C1*%
X138630000Y-138160000D02*
X138645000Y-138160000D01*
X138630000Y-133620000D02*
X138645000Y-133620000D01*
X140770000Y-138160000D02*
X140770000Y-133620000D01*
X140755000Y-133620000D02*
X140770000Y-133620000D01*
X140755000Y-138160000D02*
X140770000Y-138160000D01*
X138630000Y-138160000D02*
X138630000Y-133620000D01*
%TO.C,R3*%
X144780000Y-146400000D02*
X144780000Y-145780000D01*
X145700000Y-147320000D02*
G75*
G03*
X145700000Y-147320000I-920000J0D01*
G01*
%TO.C,U1*%
X102805000Y-144895000D02*
X133405000Y-144895000D01*
X102805000Y-139435000D02*
X102805000Y-144895000D01*
X133405000Y-144895000D02*
X133405000Y-131975000D01*
X102805000Y-131975000D02*
X102805000Y-137435000D01*
X133405000Y-131975000D02*
X102805000Y-131975000D01*
X102805000Y-139435000D02*
G75*
G03*
X102805000Y-137435000I0J1000000D01*
G01*
%TO.C,G\u002A\u002A\u002A*%
G36*
X65146335Y-142640527D02*
G01*
X65151414Y-142659466D01*
X65152458Y-142665446D01*
X65180590Y-142797415D01*
X65222231Y-142923660D01*
X65276255Y-143041138D01*
X65318190Y-143112462D01*
X65356475Y-143171644D01*
X65356475Y-144080787D01*
X65327834Y-144105558D01*
X65302552Y-144126902D01*
X65273804Y-144150459D01*
X65264898Y-144157595D01*
X65247701Y-144171331D01*
X65219625Y-144193827D01*
X65183317Y-144222961D01*
X65141424Y-144256607D01*
X65096593Y-144292643D01*
X65087370Y-144300060D01*
X65044303Y-144334679D01*
X65005548Y-144365793D01*
X64973245Y-144391690D01*
X64949529Y-144410657D01*
X64936539Y-144420981D01*
X64935026Y-144422157D01*
X64926847Y-144417764D01*
X64907372Y-144401643D01*
X64877388Y-144374534D01*
X64837678Y-144337179D01*
X64789026Y-144290320D01*
X64732218Y-144234697D01*
X64668038Y-144171053D01*
X64646344Y-144149386D01*
X64366774Y-143869717D01*
X64489082Y-143717898D01*
X64525335Y-143672922D01*
X64558636Y-143631653D01*
X64587196Y-143596306D01*
X64609226Y-143569094D01*
X64622936Y-143552231D01*
X64625850Y-143548686D01*
X64637433Y-143534508D01*
X64656666Y-143510712D01*
X64680363Y-143481248D01*
X64694473Y-143463647D01*
X64748637Y-143396000D01*
X64710355Y-143320444D01*
X64690361Y-143280217D01*
X64670356Y-143238696D01*
X64653746Y-143202989D01*
X64649364Y-143193176D01*
X64626653Y-143141463D01*
X64880829Y-142887178D01*
X64935554Y-142832573D01*
X64986531Y-142781987D01*
X65032445Y-142736702D01*
X65071985Y-142697999D01*
X65103836Y-142667163D01*
X65126687Y-142645474D01*
X65139224Y-142634216D01*
X65141177Y-142632893D01*
X65146335Y-142640527D01*
G37*
G36*
X66696529Y-140191420D02*
G01*
X66699364Y-140213651D01*
X66703266Y-140247914D01*
X66707654Y-140288954D01*
X66710757Y-140319462D01*
X66716149Y-140371369D01*
X66722705Y-140431018D01*
X66729369Y-140488929D01*
X66732475Y-140514780D01*
X66738273Y-140564838D01*
X66743928Y-140618312D01*
X66748622Y-140667277D01*
X66750648Y-140691320D01*
X66754438Y-140727289D01*
X66759264Y-140754435D01*
X66764418Y-140769136D01*
X66766188Y-140770677D01*
X66791913Y-140778428D01*
X66827708Y-140790049D01*
X66868794Y-140803895D01*
X66910397Y-140818318D01*
X66947739Y-140831674D01*
X66976044Y-140842315D01*
X66986294Y-140846531D01*
X67023187Y-140862824D01*
X67023187Y-141227011D01*
X67023137Y-141304622D01*
X67022994Y-141376574D01*
X67022770Y-141441074D01*
X67022473Y-141496329D01*
X67022117Y-141540546D01*
X67021710Y-141571930D01*
X67021264Y-141588690D01*
X67021017Y-141591030D01*
X67013435Y-141586347D01*
X66994792Y-141573881D01*
X66968270Y-141555776D01*
X66949400Y-141542755D01*
X66833310Y-141472675D01*
X66707706Y-141416275D01*
X66574993Y-141374608D01*
X66554424Y-141369648D01*
X66489318Y-141354563D01*
X66165944Y-141032359D01*
X65842569Y-140710154D01*
X65847419Y-140666722D01*
X65850397Y-140640377D01*
X65854754Y-140602232D01*
X65859868Y-140557732D01*
X65864327Y-140519120D01*
X65870396Y-140465411D01*
X65876918Y-140405621D01*
X65882925Y-140348705D01*
X65885900Y-140319462D01*
X65890287Y-140276796D01*
X65894603Y-140237163D01*
X65898265Y-140205815D01*
X65900152Y-140191420D01*
X65904891Y-140158867D01*
X66691791Y-140158867D01*
X66696529Y-140191420D01*
G37*
G36*
X68122143Y-142046576D02*
G01*
X68151968Y-142049882D01*
X68193141Y-142054542D01*
X68239770Y-142059885D01*
X68277562Y-142064261D01*
X68331268Y-142070358D01*
X68391055Y-142076902D01*
X68447969Y-142082922D01*
X68477220Y-142085900D01*
X68519885Y-142090287D01*
X68559518Y-142094603D01*
X68590867Y-142098265D01*
X68605261Y-142100152D01*
X68637814Y-142104891D01*
X68637814Y-142891791D01*
X68605261Y-142896529D01*
X68583030Y-142899364D01*
X68548768Y-142903266D01*
X68507727Y-142907654D01*
X68477220Y-142910757D01*
X68425312Y-142916149D01*
X68365664Y-142922705D01*
X68307753Y-142929369D01*
X68281902Y-142932475D01*
X68231843Y-142938273D01*
X68178369Y-142943928D01*
X68129404Y-142948622D01*
X68105362Y-142950648D01*
X68069411Y-142954436D01*
X68042259Y-142959262D01*
X68027536Y-142964413D01*
X68025983Y-142966188D01*
X68016236Y-142998643D01*
X68002543Y-143040966D01*
X67987054Y-143086770D01*
X67971917Y-143129666D01*
X67962156Y-143155911D01*
X67939603Y-143214506D01*
X67576884Y-143214506D01*
X67499427Y-143214415D01*
X67427625Y-143214156D01*
X67363278Y-143213748D01*
X67308183Y-143213211D01*
X67264137Y-143212563D01*
X67232940Y-143211825D01*
X67216387Y-143211016D01*
X67214164Y-143210582D01*
X67218786Y-143202113D01*
X67231032Y-143183212D01*
X67248474Y-143157602D01*
X67252742Y-143151471D01*
X67298905Y-143078605D01*
X67341866Y-142998100D01*
X67377020Y-142918711D01*
X67381745Y-142906338D01*
X67395314Y-142867143D01*
X67408879Y-142823289D01*
X67421274Y-142779114D01*
X67431337Y-142738955D01*
X67437903Y-142707149D01*
X67439865Y-142689809D01*
X67446001Y-142678983D01*
X67464443Y-142656569D01*
X67495242Y-142622513D01*
X67538450Y-142576761D01*
X67594118Y-142519258D01*
X67662298Y-142449950D01*
X67743041Y-142368783D01*
X67755379Y-142356442D01*
X68070894Y-142041016D01*
X68122143Y-142046576D01*
G37*
G36*
X67949386Y-140846344D02*
G01*
X68015412Y-140912691D01*
X68073650Y-140971914D01*
X68123359Y-141023228D01*
X68163798Y-141065850D01*
X68194226Y-141098993D01*
X68213901Y-141121875D01*
X68222081Y-141133709D01*
X68222157Y-141135026D01*
X68214559Y-141144655D01*
X68198029Y-141165371D01*
X68174523Y-141194735D01*
X68145999Y-141230313D01*
X68114413Y-141269668D01*
X68081723Y-141310363D01*
X68049885Y-141349962D01*
X68020857Y-141386029D01*
X67996595Y-141416128D01*
X67979056Y-141437821D01*
X67970763Y-141447995D01*
X67959205Y-141462179D01*
X67939996Y-141485974D01*
X67916322Y-141515426D01*
X67902303Y-141532917D01*
X67848234Y-141600447D01*
X67894728Y-141693481D01*
X67914311Y-141733476D01*
X67932017Y-141771103D01*
X67945741Y-141801804D01*
X67952810Y-141819341D01*
X67964397Y-141852166D01*
X67713038Y-142103637D01*
X67658643Y-142157923D01*
X67608023Y-142208185D01*
X67562496Y-142253133D01*
X67523381Y-142291478D01*
X67491993Y-142321931D01*
X67469652Y-142343202D01*
X67457674Y-142354003D01*
X67456041Y-142355108D01*
X67448518Y-142348224D01*
X67445134Y-142341376D01*
X67440758Y-142321365D01*
X67439865Y-142308288D01*
X67437187Y-142286138D01*
X67429934Y-142251975D01*
X67419275Y-142210170D01*
X67406381Y-142165092D01*
X67392420Y-142121113D01*
X67381529Y-142090343D01*
X67351099Y-142016207D01*
X67317524Y-141949571D01*
X67277988Y-141883904D01*
X67240207Y-141825038D01*
X67240207Y-140915895D01*
X67268847Y-140891123D01*
X67294112Y-140869779D01*
X67322846Y-140846197D01*
X67331783Y-140839018D01*
X67348658Y-140825504D01*
X67376517Y-140803119D01*
X67412834Y-140773896D01*
X67455081Y-140739870D01*
X67500733Y-140703073D01*
X67517898Y-140689230D01*
X67669717Y-140566774D01*
X67949386Y-140846344D01*
G37*
G36*
X65779479Y-142171170D02*
G01*
X65824915Y-142092627D01*
X65884703Y-142018349D01*
X65903365Y-141998742D01*
X65976627Y-141933793D01*
X66054991Y-141883972D01*
X66142082Y-141847108D01*
X66172393Y-141837691D01*
X66210888Y-141827276D01*
X66242279Y-141820919D01*
X66272898Y-141817961D01*
X66309080Y-141817736D01*
X66349094Y-141819209D01*
X66425080Y-141826002D01*
X66490180Y-141839862D01*
X66550005Y-141862449D01*
X66610167Y-141895419D01*
X66613036Y-141897214D01*
X66678465Y-141948327D01*
X66734304Y-142012467D01*
X66778966Y-142087253D01*
X66810860Y-142170304D01*
X66820162Y-142207534D01*
X66826673Y-142250089D01*
X66830166Y-142298630D01*
X66830775Y-142348999D01*
X66828633Y-142397038D01*
X66823876Y-142438590D01*
X66816636Y-142469497D01*
X66811355Y-142480905D01*
X66797086Y-142502681D01*
X65998853Y-142502681D01*
X65999158Y-142539575D01*
X66007673Y-142622333D01*
X66031001Y-142699712D01*
X66067917Y-142769660D01*
X66117197Y-142830123D01*
X66177617Y-142879049D01*
X66213920Y-142899690D01*
X66242396Y-142913478D01*
X66264778Y-142922715D01*
X66285826Y-142928312D01*
X66310302Y-142931181D01*
X66342966Y-142932233D01*
X66384685Y-142932380D01*
X66430502Y-142932056D01*
X66463514Y-142930620D01*
X66488274Y-142927375D01*
X66509332Y-142921626D01*
X66531242Y-142912676D01*
X66540023Y-142908626D01*
X66576029Y-142888771D01*
X66617747Y-142861265D01*
X66659452Y-142830290D01*
X66695418Y-142800027D01*
X66714194Y-142781417D01*
X66731853Y-142767128D01*
X66750374Y-142765219D01*
X66773019Y-142776277D01*
X66798209Y-142796542D01*
X66835888Y-142829979D01*
X66805836Y-142879656D01*
X66747496Y-142960246D01*
X66678021Y-143028289D01*
X66598735Y-143082702D01*
X66510965Y-143122405D01*
X66506349Y-143123994D01*
X66470336Y-143135109D01*
X66436676Y-143142480D01*
X66399496Y-143146992D01*
X66352925Y-143149533D01*
X66333064Y-143150126D01*
X66287101Y-143150519D01*
X66242701Y-143149520D01*
X66205441Y-143147331D01*
X66183948Y-143144755D01*
X66112983Y-143126088D01*
X66039402Y-143096187D01*
X65970505Y-143058074D01*
X65963732Y-143053647D01*
X65894831Y-142997628D01*
X65836071Y-142928762D01*
X65788009Y-142848683D01*
X65751204Y-142759020D01*
X65726215Y-142661408D01*
X65713601Y-142557477D01*
X65713920Y-142448859D01*
X65724605Y-142355108D01*
X65726564Y-142346427D01*
X65998523Y-142346427D01*
X66235240Y-142346378D01*
X66301461Y-142346044D01*
X66362483Y-142345122D01*
X66415809Y-142343695D01*
X66458943Y-142341846D01*
X66489387Y-142339656D01*
X66503617Y-142337536D01*
X66535190Y-142322391D01*
X66555398Y-142296702D01*
X66565229Y-142258768D01*
X66566557Y-142229236D01*
X66557583Y-142167517D01*
X66532921Y-142110158D01*
X66494132Y-142059575D01*
X66442782Y-142018184D01*
X66422402Y-142006458D01*
X66377130Y-141990932D01*
X66323764Y-141985305D01*
X66268386Y-141989451D01*
X66217078Y-142003245D01*
X66199764Y-142011067D01*
X66142567Y-142049970D01*
X66092713Y-142102330D01*
X66052478Y-142164999D01*
X66024141Y-142234827D01*
X66016611Y-142264233D01*
X66010280Y-142293636D01*
X66004773Y-142318802D01*
X66002962Y-142326895D01*
X65998523Y-142346427D01*
X65726564Y-142346427D01*
X65746630Y-142257491D01*
X65779479Y-142171170D01*
G37*
G36*
X67432051Y-143431937D02*
G01*
X67878245Y-143432347D01*
X67917309Y-143481643D01*
X67938961Y-143508886D01*
X67958167Y-143532910D01*
X67970763Y-143548508D01*
X67981877Y-143562210D01*
X68001148Y-143586100D01*
X68026640Y-143617769D01*
X68056418Y-143654806D01*
X68088547Y-143694801D01*
X68121093Y-143735344D01*
X68152121Y-143774025D01*
X68179696Y-143808434D01*
X68201883Y-143836160D01*
X68216746Y-143854794D01*
X68222157Y-143861656D01*
X68217764Y-143869835D01*
X68201643Y-143889309D01*
X68174534Y-143919294D01*
X68137179Y-143959004D01*
X68090320Y-144007655D01*
X68034697Y-144064463D01*
X67971053Y-144128643D01*
X67949386Y-144150337D01*
X67669717Y-144429908D01*
X67517898Y-144307599D01*
X67472922Y-144271347D01*
X67431653Y-144238046D01*
X67396306Y-144209486D01*
X67369094Y-144187456D01*
X67352231Y-144173745D01*
X67348686Y-144170832D01*
X67334508Y-144159249D01*
X67310712Y-144140016D01*
X67281248Y-144116318D01*
X67263647Y-144102208D01*
X67196000Y-144048045D01*
X67120444Y-144086326D01*
X67080514Y-144106184D01*
X67039580Y-144125928D01*
X67004601Y-144142220D01*
X66994820Y-144146591D01*
X66944751Y-144168575D01*
X66688007Y-143912269D01*
X66633277Y-143857448D01*
X66582722Y-143806451D01*
X66537595Y-143760568D01*
X66499146Y-143721090D01*
X66468630Y-143689304D01*
X66447297Y-143666503D01*
X66436402Y-143653976D01*
X66435269Y-143651957D01*
X66445287Y-143648624D01*
X66467511Y-143643860D01*
X66494679Y-143639102D01*
X66623993Y-143609751D01*
X66751178Y-143563530D01*
X66875033Y-143500905D01*
X66919885Y-143473601D01*
X66985858Y-143431526D01*
X67432051Y-143431937D01*
G37*
G36*
X65596492Y-143419189D02*
G01*
X65618321Y-143434119D01*
X65645311Y-143452838D01*
X65647796Y-143454574D01*
X65716943Y-143498323D01*
X65794439Y-143539821D01*
X65871436Y-143574426D01*
X65890343Y-143581745D01*
X65926061Y-143594119D01*
X65967303Y-143606990D01*
X66009759Y-143619177D01*
X66049119Y-143629502D01*
X66081073Y-143636782D01*
X66101311Y-143639837D01*
X66102532Y-143639865D01*
X66111124Y-143645842D01*
X66130736Y-143663008D01*
X66160174Y-143690216D01*
X66198240Y-143726318D01*
X66243740Y-143770168D01*
X66295477Y-143820618D01*
X66352255Y-143876520D01*
X66412880Y-143936728D01*
X66435620Y-143959441D01*
X66755108Y-144279016D01*
X66749761Y-144326204D01*
X66746565Y-144354214D01*
X66742018Y-144393812D01*
X66736772Y-144439338D01*
X66732354Y-144477562D01*
X66726285Y-144531271D01*
X66719764Y-144591060D01*
X66713756Y-144647977D01*
X66710782Y-144677220D01*
X66706394Y-144719885D01*
X66702078Y-144759518D01*
X66698417Y-144790867D01*
X66696529Y-144805261D01*
X66691791Y-144837814D01*
X65904891Y-144837814D01*
X65900152Y-144805261D01*
X65897318Y-144783030D01*
X65893415Y-144748768D01*
X65889027Y-144707727D01*
X65885925Y-144677220D01*
X65880532Y-144625312D01*
X65873977Y-144565664D01*
X65867313Y-144507753D01*
X65864207Y-144481902D01*
X65858408Y-144431843D01*
X65852754Y-144378369D01*
X65848060Y-144329404D01*
X65846034Y-144305362D01*
X65842244Y-144269393D01*
X65837417Y-144242247D01*
X65832264Y-144227545D01*
X65830493Y-144226004D01*
X65804768Y-144218254D01*
X65768974Y-144206632D01*
X65727887Y-144192787D01*
X65686284Y-144178363D01*
X65648942Y-144165008D01*
X65620637Y-144154367D01*
X65610388Y-144150151D01*
X65573495Y-144133858D01*
X65573495Y-143769158D01*
X65573591Y-143677036D01*
X65573906Y-143601002D01*
X65574478Y-143539781D01*
X65575346Y-143492100D01*
X65576548Y-143456686D01*
X65578123Y-143432265D01*
X65580110Y-143417565D01*
X65582546Y-143411310D01*
X65584346Y-143411143D01*
X65596492Y-143419189D01*
G37*
G36*
X65119645Y-141773591D02*
G01*
X65195680Y-141773906D01*
X65256901Y-141774478D01*
X65304582Y-141775346D01*
X65339996Y-141776548D01*
X65364416Y-141778123D01*
X65379117Y-141780110D01*
X65385371Y-141782546D01*
X65385538Y-141784346D01*
X65377493Y-141796492D01*
X65362563Y-141818321D01*
X65343843Y-141845311D01*
X65342108Y-141847796D01*
X65298358Y-141916943D01*
X65256861Y-141994439D01*
X65222255Y-142071436D01*
X65214936Y-142090343D01*
X65202563Y-142126061D01*
X65189692Y-142167303D01*
X65177504Y-142209759D01*
X65167180Y-142249119D01*
X65159900Y-142281073D01*
X65156844Y-142301311D01*
X65156816Y-142302532D01*
X65150796Y-142312052D01*
X65133674Y-142332154D01*
X65106862Y-142361439D01*
X65071772Y-142398505D01*
X65029813Y-142441954D01*
X64982396Y-142490385D01*
X64930934Y-142542400D01*
X64876836Y-142596597D01*
X64821513Y-142651578D01*
X64766377Y-142705943D01*
X64712838Y-142758292D01*
X64662307Y-142807225D01*
X64616196Y-142851343D01*
X64575914Y-142889246D01*
X64542874Y-142919534D01*
X64518485Y-142940807D01*
X64504159Y-142951666D01*
X64501373Y-142952782D01*
X64479774Y-142950805D01*
X64458013Y-142948464D01*
X64380079Y-142939458D01*
X64316492Y-142932164D01*
X64264357Y-142926261D01*
X64220779Y-142921427D01*
X64182864Y-142917340D01*
X64147716Y-142913678D01*
X64119462Y-142910820D01*
X64076797Y-142906417D01*
X64037165Y-142902088D01*
X64005816Y-142898419D01*
X63991420Y-142896529D01*
X63958867Y-142891791D01*
X63958867Y-142104891D01*
X63991420Y-142100152D01*
X64013651Y-142097318D01*
X64047914Y-142093415D01*
X64088954Y-142089027D01*
X64119462Y-142085925D01*
X64171369Y-142080532D01*
X64231018Y-142073977D01*
X64288929Y-142067313D01*
X64314780Y-142064207D01*
X64364838Y-142058408D01*
X64418312Y-142052754D01*
X64467277Y-142048060D01*
X64491320Y-142046034D01*
X64527289Y-142042244D01*
X64554435Y-142037417D01*
X64569136Y-142032264D01*
X64570677Y-142030493D01*
X64578428Y-142004768D01*
X64590049Y-141968974D01*
X64603895Y-141927887D01*
X64618318Y-141886284D01*
X64631674Y-141848942D01*
X64642315Y-141820637D01*
X64646531Y-141810388D01*
X64662824Y-141773495D01*
X65027523Y-141773495D01*
X65119645Y-141773591D01*
G37*
G36*
X64980039Y-140608436D02*
G01*
X65001745Y-140625380D01*
X65033924Y-140650852D01*
X65073637Y-140682493D01*
X65117947Y-140717943D01*
X65163915Y-140754845D01*
X65208603Y-140790837D01*
X65249074Y-140823561D01*
X65282389Y-140850657D01*
X65305609Y-140869766D01*
X65308660Y-140872318D01*
X65325377Y-140885992D01*
X65349250Y-140905099D01*
X65364881Y-140917454D01*
X65403670Y-140947942D01*
X65464710Y-140914960D01*
X65504563Y-140894444D01*
X65550624Y-140872224D01*
X65592994Y-140853075D01*
X65593406Y-140852898D01*
X65661062Y-140823817D01*
X65916765Y-141079411D01*
X65971525Y-141134287D01*
X66022271Y-141185411D01*
X66067723Y-141231474D01*
X66106603Y-141271168D01*
X66137632Y-141303185D01*
X66159533Y-141326216D01*
X66171025Y-141338953D01*
X66172469Y-141341038D01*
X66164716Y-141345601D01*
X66144983Y-141350453D01*
X66131235Y-141352664D01*
X66095307Y-141359141D01*
X66048734Y-141369772D01*
X65997279Y-141383030D01*
X65946702Y-141397387D01*
X65902765Y-141411316D01*
X65882640Y-141418578D01*
X65830897Y-141440823D01*
X65773151Y-141469198D01*
X65717039Y-141499761D01*
X65672425Y-141527083D01*
X65628123Y-141556475D01*
X64707412Y-141556475D01*
X64693990Y-141535991D01*
X64679597Y-141516040D01*
X64668957Y-141503438D01*
X64659649Y-141492665D01*
X64641724Y-141471006D01*
X64617383Y-141441155D01*
X64588828Y-141405803D01*
X64573895Y-141387199D01*
X64540581Y-141345657D01*
X64507064Y-141303937D01*
X64476702Y-141266214D01*
X64452853Y-141236662D01*
X64447627Y-141230208D01*
X64424144Y-141200827D01*
X64402527Y-141173078D01*
X64387185Y-141152627D01*
X64386374Y-141151494D01*
X64367937Y-141125602D01*
X64926775Y-140567540D01*
X64980039Y-140608436D01*
G37*
%TO.C,D1*%
X42060000Y-156460000D02*
X44300000Y-156460000D01*
X44300000Y-152820000D02*
X42060000Y-152820000D01*
X43180000Y-157710000D02*
X43180000Y-157060000D01*
X42060000Y-156340000D02*
X44300000Y-156340000D01*
X42060000Y-152820000D02*
X42060000Y-157060000D01*
X43180000Y-152170000D02*
X43180000Y-152820000D01*
X42060000Y-157060000D02*
X44300000Y-157060000D01*
X44300000Y-157060000D02*
X44300000Y-152820000D01*
X42060000Y-156220000D02*
X44300000Y-156220000D01*
%TO.C,D23*%
X130960000Y-157060000D02*
X133200000Y-157060000D01*
X130960000Y-156460000D02*
X133200000Y-156460000D01*
X132080000Y-157710000D02*
X132080000Y-157060000D01*
X130960000Y-156340000D02*
X133200000Y-156340000D01*
X132080000Y-152170000D02*
X132080000Y-152820000D01*
X133200000Y-157060000D02*
X133200000Y-152820000D01*
X130960000Y-152820000D02*
X130960000Y-157060000D01*
X130960000Y-156220000D02*
X133200000Y-156220000D01*
X133200000Y-152820000D02*
X130960000Y-152820000D01*
%TO.C,SCK4*%
X119120000Y-167819669D02*
X150090000Y-167819669D01*
X119120000Y-181709669D02*
X119120000Y-167819669D01*
X138670000Y-166925331D02*
X139170000Y-166925331D01*
X150090000Y-167819669D02*
X150090000Y-181709669D01*
X139170000Y-166925331D02*
X138920000Y-167358344D01*
X138920000Y-167358344D02*
X138670000Y-166925331D01*
%TO.C,D25*%
X140260000Y-152820000D02*
X138020000Y-152820000D01*
X138020000Y-152820000D02*
X138020000Y-157060000D01*
X140260000Y-157060000D02*
X140260000Y-152820000D01*
X138020000Y-157060000D02*
X140260000Y-157060000D01*
X138020000Y-156340000D02*
X140260000Y-156340000D01*
X139140000Y-152170000D02*
X139140000Y-152820000D01*
X139140000Y-157710000D02*
X139140000Y-157060000D01*
X138020000Y-156220000D02*
X140260000Y-156220000D01*
X138020000Y-156460000D02*
X140260000Y-156460000D01*
%TO.C,D18*%
X103020000Y-156340000D02*
X105260000Y-156340000D01*
X103020000Y-152820000D02*
X103020000Y-157060000D01*
X104140000Y-157710000D02*
X104140000Y-157060000D01*
X104140000Y-152170000D02*
X104140000Y-152820000D01*
X105260000Y-152820000D02*
X103020000Y-152820000D01*
X105260000Y-157060000D02*
X105260000Y-152820000D01*
X103020000Y-157060000D02*
X105260000Y-157060000D01*
X103020000Y-156460000D02*
X105260000Y-156460000D01*
X103020000Y-156220000D02*
X105260000Y-156220000D01*
%TO.C,D7*%
X57300000Y-156460000D02*
X59540000Y-156460000D01*
X59540000Y-152820000D02*
X57300000Y-152820000D01*
X57300000Y-156220000D02*
X59540000Y-156220000D01*
X57300000Y-152820000D02*
X57300000Y-157060000D01*
X58420000Y-152170000D02*
X58420000Y-152820000D01*
X58420000Y-157710000D02*
X58420000Y-157060000D01*
X59540000Y-157060000D02*
X59540000Y-152820000D01*
X57300000Y-157060000D02*
X59540000Y-157060000D01*
X57300000Y-156340000D02*
X59540000Y-156340000D01*
%TO.C,R6*%
X147670000Y-142240000D02*
X147050000Y-142240000D01*
X149510000Y-142240000D02*
G75*
G03*
X149510000Y-142240000I-920000J0D01*
G01*
%TO.C,D5*%
X29360000Y-152820000D02*
X29360000Y-157060000D01*
X29360000Y-157060000D02*
X31600000Y-157060000D01*
X29360000Y-156340000D02*
X31600000Y-156340000D01*
X30480000Y-152170000D02*
X30480000Y-152820000D01*
X29360000Y-156460000D02*
X31600000Y-156460000D01*
X30480000Y-157710000D02*
X30480000Y-157060000D01*
X31600000Y-152820000D02*
X29360000Y-152820000D01*
X29360000Y-156220000D02*
X31600000Y-156220000D01*
X31600000Y-157060000D02*
X31600000Y-152820000D01*
%TO.C,D6*%
X29060000Y-152820000D02*
X26820000Y-152820000D01*
X27940000Y-157710000D02*
X27940000Y-157060000D01*
X29060000Y-157060000D02*
X29060000Y-152820000D01*
X26820000Y-157060000D02*
X29060000Y-157060000D01*
X27940000Y-152170000D02*
X27940000Y-152820000D01*
X26820000Y-156220000D02*
X29060000Y-156220000D01*
X26820000Y-156340000D02*
X29060000Y-156340000D01*
X26820000Y-152820000D02*
X26820000Y-157060000D01*
X26820000Y-156460000D02*
X29060000Y-156460000D01*
%TO.C,G\u002A\u002A\u002A*%
G36*
X85158897Y-165745002D02*
G01*
X85173066Y-165788228D01*
X85186158Y-165827047D01*
X85197658Y-165860018D01*
X85207048Y-165885696D01*
X85213813Y-165902638D01*
X85217434Y-165909400D01*
X85217744Y-165909395D01*
X85220441Y-165902314D01*
X85225879Y-165884806D01*
X85233581Y-165858524D01*
X85243070Y-165825124D01*
X85253867Y-165786260D01*
X85264192Y-165748409D01*
X85275730Y-165705880D01*
X85286300Y-165667149D01*
X85295434Y-165633913D01*
X85302664Y-165607867D01*
X85307522Y-165590707D01*
X85309463Y-165584306D01*
X85316500Y-165579953D01*
X85334142Y-165577390D01*
X85363263Y-165576495D01*
X85365593Y-165576492D01*
X85392597Y-165576977D01*
X85408722Y-165578595D01*
X85415557Y-165581595D01*
X85415810Y-165584306D01*
X85413068Y-165592505D01*
X85407194Y-165610612D01*
X85398836Y-165636618D01*
X85388638Y-165668513D01*
X85377248Y-165704288D01*
X85377133Y-165704649D01*
X85363173Y-165748526D01*
X85346840Y-165799767D01*
X85329585Y-165853832D01*
X85312855Y-165906180D01*
X85300824Y-165943770D01*
X85260272Y-166070364D01*
X85170124Y-166070364D01*
X85120625Y-165904315D01*
X85107580Y-165860932D01*
X85095537Y-165821601D01*
X85084992Y-165787880D01*
X85076436Y-165761325D01*
X85070366Y-165743492D01*
X85067274Y-165735938D01*
X85067145Y-165735806D01*
X85064412Y-165740899D01*
X85058679Y-165756504D01*
X85050431Y-165781128D01*
X85040155Y-165813276D01*
X85028337Y-165851454D01*
X85015463Y-165894166D01*
X85013643Y-165900291D01*
X84964123Y-166067238D01*
X84918726Y-166069076D01*
X84892579Y-166069366D01*
X84877095Y-166067492D01*
X84870583Y-166063237D01*
X84870413Y-166062825D01*
X84867099Y-166052944D01*
X84860681Y-166033200D01*
X84851648Y-166005135D01*
X84840488Y-165970289D01*
X84827692Y-165930204D01*
X84813747Y-165886421D01*
X84799143Y-165840480D01*
X84784369Y-165793923D01*
X84769913Y-165748290D01*
X84756265Y-165705123D01*
X84743914Y-165665962D01*
X84733348Y-165632349D01*
X84725056Y-165605824D01*
X84719528Y-165587929D01*
X84717252Y-165580205D01*
X84717221Y-165580029D01*
X84722992Y-165578426D01*
X84738387Y-165577203D01*
X84760526Y-165576550D01*
X84770065Y-165576492D01*
X84822909Y-165576492D01*
X84828448Y-165596810D01*
X84831600Y-165608430D01*
X84837486Y-165630182D01*
X84845582Y-165660124D01*
X84855362Y-165696316D01*
X84866303Y-165736819D01*
X84874065Y-165765565D01*
X84885233Y-165806475D01*
X84895456Y-165843062D01*
X84904258Y-165873694D01*
X84911165Y-165896741D01*
X84915701Y-165910573D01*
X84917270Y-165913917D01*
X84919908Y-165908185D01*
X84925805Y-165892040D01*
X84934449Y-165866989D01*
X84945330Y-165834542D01*
X84957936Y-165796207D01*
X84971757Y-165753491D01*
X84973927Y-165746724D01*
X85027459Y-165579618D01*
X85065839Y-165577764D01*
X85104219Y-165575911D01*
X85158897Y-165745002D01*
G37*
G36*
X84170442Y-164788882D02*
G01*
X84206102Y-164799112D01*
X84213972Y-164802819D01*
X84248855Y-164825184D01*
X84274806Y-164853025D01*
X84293344Y-164885697D01*
X84297470Y-164895130D01*
X84300745Y-164904541D01*
X84303289Y-164915486D01*
X84305218Y-164929524D01*
X84306651Y-164948211D01*
X84307704Y-164973104D01*
X84308497Y-165005759D01*
X84309146Y-165047735D01*
X84309770Y-165100587D01*
X84309799Y-165103199D01*
X84311853Y-165289443D01*
X84259787Y-165287619D01*
X84207720Y-165285796D01*
X84204595Y-165117004D01*
X84203575Y-165065895D01*
X84202549Y-165025741D01*
X84201394Y-164994997D01*
X84199989Y-164972116D01*
X84198209Y-164955551D01*
X84195933Y-164943755D01*
X84193038Y-164935182D01*
X84189681Y-164928742D01*
X84169871Y-164905841D01*
X84143501Y-164892765D01*
X84111109Y-164888823D01*
X84077441Y-164892614D01*
X84051657Y-164904786D01*
X84031404Y-164926537D01*
X84028592Y-164930869D01*
X84024193Y-164938343D01*
X84020752Y-164945994D01*
X84018127Y-164955420D01*
X84016179Y-164968222D01*
X84014768Y-164986000D01*
X84013755Y-165010355D01*
X84012999Y-165042886D01*
X84012361Y-165085193D01*
X84011906Y-165121693D01*
X84009890Y-165288921D01*
X83910772Y-165288921D01*
X83910772Y-164788798D01*
X84010797Y-164788798D01*
X84010797Y-164813804D01*
X84012096Y-164831629D01*
X84016851Y-164837696D01*
X84026349Y-164832500D01*
X84035655Y-164823339D01*
X84061534Y-164804183D01*
X84094838Y-164791800D01*
X84132247Y-164786572D01*
X84170442Y-164788882D01*
G37*
G36*
X86307295Y-164787486D02*
G01*
X86344683Y-164795594D01*
X86372158Y-164808421D01*
X86392720Y-164821129D01*
X86380520Y-164837784D01*
X86369374Y-164852055D01*
X86354083Y-164870505D01*
X86344309Y-164881863D01*
X86320297Y-164909286D01*
X86300512Y-164899054D01*
X86275575Y-164891096D01*
X86246885Y-164889181D01*
X86219775Y-164893232D01*
X86203180Y-164900468D01*
X86192270Y-164907898D01*
X86183622Y-164915178D01*
X86176943Y-164923801D01*
X86171940Y-164935263D01*
X86168320Y-164951055D01*
X86165791Y-164972674D01*
X86164058Y-165001612D01*
X86162830Y-165039364D01*
X86161813Y-165087424D01*
X86161326Y-165113878D01*
X86158200Y-165285796D01*
X86106625Y-165287611D01*
X86055050Y-165289427D01*
X86055050Y-164788293D01*
X86106625Y-164790108D01*
X86158200Y-164791924D01*
X86161326Y-164816400D01*
X86163804Y-164831413D01*
X86166912Y-164835819D01*
X86172185Y-164831481D01*
X86172969Y-164830542D01*
X86198175Y-164809131D01*
X86230995Y-164794593D01*
X86268384Y-164787265D01*
X86307295Y-164787486D01*
G37*
G36*
X84214604Y-165580084D02*
G01*
X84228038Y-165585643D01*
X84245721Y-165594697D01*
X84257637Y-165602371D01*
X84260859Y-165606103D01*
X84257110Y-165612956D01*
X84247104Y-165626800D01*
X84232699Y-165645116D01*
X84226211Y-165653025D01*
X84191564Y-165694766D01*
X84171510Y-165682539D01*
X84142073Y-165671323D01*
X84111339Y-165671030D01*
X84082211Y-165680808D01*
X84057596Y-165699807D01*
X84043618Y-165720039D01*
X84039326Y-165729062D01*
X84036009Y-165738136D01*
X84033541Y-165748943D01*
X84031797Y-165763165D01*
X84030651Y-165782483D01*
X84029980Y-165808579D01*
X84029657Y-165843135D01*
X84029557Y-165887833D01*
X84029552Y-165909148D01*
X84029552Y-166070364D01*
X83929527Y-166070364D01*
X83929527Y-165576492D01*
X84029552Y-165576492D01*
X84029552Y-165627479D01*
X84054510Y-165606115D01*
X84089677Y-165583909D01*
X84129812Y-165571965D01*
X84172320Y-165570588D01*
X84214604Y-165580084D01*
G37*
G36*
X86816994Y-164957537D02*
G01*
X86834106Y-164904495D01*
X86859239Y-164860780D01*
X86892169Y-164826633D01*
X86932671Y-164802291D01*
X86975267Y-164788995D01*
X87024392Y-164785200D01*
X87072096Y-164793477D01*
X87116916Y-164813394D01*
X87154516Y-164841789D01*
X87178249Y-164867071D01*
X87195270Y-164893451D01*
X87206639Y-164923731D01*
X87213417Y-164960718D01*
X87216622Y-165006039D01*
X87219186Y-165076369D01*
X86911511Y-165076369D01*
X86911511Y-165093799D01*
X86915703Y-165115144D01*
X86926490Y-165139823D01*
X86941184Y-165162790D01*
X86956750Y-165178748D01*
X86976254Y-165187555D01*
X87003149Y-165192956D01*
X87032681Y-165194513D01*
X87060095Y-165191786D01*
X87069955Y-165189217D01*
X87090103Y-165180624D01*
X87111265Y-165168850D01*
X87114816Y-165166524D01*
X87137443Y-165151169D01*
X87171388Y-165180170D01*
X87188093Y-165195098D01*
X87200211Y-165207179D01*
X87205302Y-165213966D01*
X87205333Y-165214207D01*
X87200910Y-165220868D01*
X87189731Y-165231882D01*
X87183250Y-165237447D01*
X87137918Y-165266941D01*
X87087452Y-165285787D01*
X87034105Y-165293426D01*
X86980130Y-165289295D01*
X86977152Y-165288708D01*
X86928788Y-165273074D01*
X86888048Y-165247624D01*
X86855298Y-165212724D01*
X86830903Y-165168741D01*
X86818300Y-165129969D01*
X86814012Y-165103379D01*
X86811549Y-165069025D01*
X86810946Y-165031519D01*
X86812238Y-164995472D01*
X86812278Y-164995099D01*
X86911511Y-164995099D01*
X87119203Y-164995099D01*
X87114909Y-164971656D01*
X87103114Y-164935713D01*
X87083028Y-164908311D01*
X87055667Y-164890359D01*
X87022051Y-164882768D01*
X87015202Y-164882571D01*
X86986697Y-164885620D01*
X86962480Y-164893698D01*
X86961581Y-164894170D01*
X86942437Y-164909933D01*
X86925765Y-164933124D01*
X86914550Y-164958786D01*
X86911511Y-164977328D01*
X86911511Y-164995099D01*
X86812278Y-164995099D01*
X86815460Y-164965494D01*
X86816994Y-164957537D01*
G37*
G36*
X85656230Y-164960023D02*
G01*
X85656826Y-165011054D01*
X85657463Y-165051104D01*
X85658263Y-165081694D01*
X85659342Y-165104346D01*
X85660819Y-165120580D01*
X85662814Y-165131918D01*
X85665445Y-165139882D01*
X85668831Y-165145993D01*
X85670967Y-165148994D01*
X85692121Y-165172186D01*
X85714753Y-165185097D01*
X85742631Y-165189738D01*
X85747515Y-165189845D01*
X85782195Y-165185554D01*
X85809314Y-165171627D01*
X85830032Y-165147387D01*
X85834683Y-165138980D01*
X85838974Y-165130003D01*
X85842291Y-165120969D01*
X85844759Y-165110197D01*
X85846504Y-165096008D01*
X85847649Y-165076721D01*
X85848321Y-165050655D01*
X85848644Y-165016131D01*
X85848744Y-164971468D01*
X85848749Y-164950014D01*
X85848749Y-164788798D01*
X85948774Y-164788798D01*
X85948774Y-165288921D01*
X85848749Y-165288921D01*
X85848749Y-165239754D01*
X85817699Y-165260650D01*
X85776748Y-165281917D01*
X85734322Y-165292291D01*
X85692687Y-165291289D01*
X85683083Y-165289307D01*
X85639802Y-165272638D01*
X85603647Y-165245845D01*
X85575395Y-165209573D01*
X85566235Y-165192022D01*
X85562111Y-165182638D01*
X85558862Y-165173436D01*
X85556383Y-165162855D01*
X85554569Y-165149328D01*
X85553318Y-165131292D01*
X85552523Y-165107183D01*
X85552080Y-165075436D01*
X85551886Y-165034487D01*
X85551835Y-164982771D01*
X85551833Y-164976344D01*
X85551801Y-164791924D01*
X85603092Y-164790113D01*
X85654384Y-164788302D01*
X85656230Y-164960023D01*
G37*
G36*
X83443894Y-164905101D02*
G01*
X83465798Y-164864073D01*
X83486152Y-164839288D01*
X83522052Y-164811782D01*
X83563372Y-164794143D01*
X83607907Y-164786332D01*
X83653448Y-164788312D01*
X83697787Y-164800044D01*
X83738717Y-164821489D01*
X83766090Y-164844165D01*
X83792648Y-164876759D01*
X83811600Y-164914594D01*
X83823514Y-164959407D01*
X83828960Y-165012930D01*
X83829455Y-165037297D01*
X83829502Y-165076369D01*
X83516359Y-165076369D01*
X83520532Y-165099812D01*
X83531862Y-165135670D01*
X83551116Y-165164031D01*
X83576314Y-165182645D01*
X83612809Y-165193639D01*
X83652307Y-165193834D01*
X83692179Y-165183592D01*
X83729796Y-165163275D01*
X83732864Y-165161052D01*
X83740121Y-165156788D01*
X83747438Y-165156842D01*
X83757584Y-165162362D01*
X83773330Y-165174494D01*
X83781488Y-165181185D01*
X83817349Y-165210777D01*
X83788857Y-165236966D01*
X83766872Y-165254007D01*
X83741673Y-165269062D01*
X83727701Y-165275376D01*
X83692580Y-165285114D01*
X83652941Y-165290766D01*
X83614307Y-165291811D01*
X83586516Y-165288715D01*
X83543452Y-165274874D01*
X83504373Y-165252949D01*
X83481209Y-165233443D01*
X83455244Y-165198730D01*
X83436207Y-165156000D01*
X83424068Y-165107625D01*
X83418797Y-165055975D01*
X83420364Y-165003424D01*
X83421729Y-164995099D01*
X83517238Y-164995099D01*
X83723226Y-164995099D01*
X83723226Y-164977328D01*
X83718339Y-164953179D01*
X83705667Y-164927635D01*
X83688195Y-164905653D01*
X83673156Y-164894170D01*
X83644414Y-164884494D01*
X83612499Y-164882741D01*
X83582371Y-164888794D01*
X83566299Y-164896720D01*
X83544016Y-164918597D01*
X83527796Y-164949361D01*
X83520906Y-164974781D01*
X83517238Y-164995099D01*
X83421729Y-164995099D01*
X83428740Y-164952342D01*
X83443894Y-164905101D01*
G37*
G36*
X86621509Y-164784847D02*
G01*
X86645168Y-164788973D01*
X86655236Y-164791443D01*
X86695930Y-164805886D01*
X86734014Y-164826751D01*
X86764813Y-164851425D01*
X86767551Y-164854254D01*
X86777071Y-164865261D01*
X86778440Y-164872479D01*
X86772160Y-164881144D01*
X86770316Y-164883195D01*
X86757847Y-164895426D01*
X86741083Y-164910039D01*
X86735342Y-164914697D01*
X86712336Y-164932942D01*
X86683527Y-164912636D01*
X86664529Y-164900754D01*
X86646578Y-164894086D01*
X86624017Y-164890829D01*
X86612761Y-164890096D01*
X86572789Y-164891986D01*
X86540968Y-164902800D01*
X86516104Y-164923155D01*
X86499468Y-164948574D01*
X86491785Y-164965631D01*
X86487075Y-164982228D01*
X86484651Y-165002334D01*
X86483823Y-165029915D01*
X86483784Y-165038860D01*
X86484284Y-165069618D01*
X86486301Y-165091822D01*
X86490469Y-165109391D01*
X86497424Y-165126244D01*
X86498192Y-165127825D01*
X86518541Y-165156264D01*
X86546235Y-165176349D01*
X86578967Y-165187672D01*
X86614431Y-165189831D01*
X86650322Y-165182417D01*
X86684332Y-165165027D01*
X86689273Y-165161423D01*
X86711728Y-165144296D01*
X86735038Y-165162782D01*
X86752005Y-165177044D01*
X86766622Y-165190658D01*
X86770257Y-165194459D01*
X86778232Y-165204513D01*
X86777684Y-165211808D01*
X86770257Y-165220882D01*
X86745455Y-165242747D01*
X86713092Y-165263273D01*
X86678013Y-165279538D01*
X86666201Y-165283619D01*
X86637901Y-165291074D01*
X86612670Y-165293908D01*
X86584978Y-165292394D01*
X86560997Y-165288867D01*
X86523084Y-165277771D01*
X86484798Y-165258577D01*
X86451687Y-165234200D01*
X86445283Y-165228062D01*
X86418355Y-165192354D01*
X86398320Y-165148106D01*
X86385743Y-165097558D01*
X86381187Y-165042952D01*
X86384978Y-164988132D01*
X86398010Y-164931468D01*
X86419298Y-164884168D01*
X86448973Y-164846091D01*
X86487166Y-164817097D01*
X86534008Y-164797047D01*
X86572129Y-164788238D01*
X86599430Y-164784690D01*
X86621509Y-164784847D01*
G37*
G36*
X86224657Y-165581579D02*
G01*
X86260685Y-165600426D01*
X86263377Y-165605283D01*
X86260490Y-165613879D01*
X86251049Y-165627992D01*
X86234080Y-165649397D01*
X86233301Y-165650346D01*
X86197206Y-165694221D01*
X86172728Y-165681462D01*
X86141401Y-165671525D01*
X86109879Y-165672753D01*
X86080887Y-165684292D01*
X86057153Y-165705290D01*
X86047245Y-165720722D01*
X86043882Y-165728595D01*
X86041277Y-165738474D01*
X86039335Y-165751944D01*
X86037964Y-165770591D01*
X86037070Y-165796000D01*
X86036559Y-165829757D01*
X86036338Y-165873446D01*
X86036305Y-165906261D01*
X86036295Y-166070364D01*
X85936271Y-166070364D01*
X85936271Y-165576492D01*
X86036295Y-165576492D01*
X86036295Y-165620889D01*
X86058163Y-165604210D01*
X86096140Y-165582756D01*
X86138323Y-165571800D01*
X86182050Y-165571391D01*
X86224657Y-165581579D01*
G37*
G36*
X83054312Y-164788798D02*
G01*
X83054312Y-164837965D01*
X83085362Y-164817070D01*
X83125543Y-164796547D01*
X83167145Y-164786892D01*
X83208346Y-164787514D01*
X83247328Y-164797821D01*
X83282270Y-164817222D01*
X83311352Y-164845125D01*
X83332756Y-164880939D01*
X83339452Y-164899668D01*
X83343827Y-164922517D01*
X83346986Y-164954754D01*
X83348928Y-164993334D01*
X83349651Y-165035209D01*
X83349156Y-165077333D01*
X83347441Y-165116661D01*
X83344505Y-165150146D01*
X83340348Y-165174742D01*
X83339536Y-165177763D01*
X83322086Y-165216746D01*
X83295496Y-165248870D01*
X83261758Y-165272972D01*
X83222864Y-165287887D01*
X83180806Y-165292451D01*
X83149771Y-165288693D01*
X83127560Y-165281327D01*
X83102338Y-165269433D01*
X83087132Y-165260443D01*
X83054312Y-165238781D01*
X83054312Y-165429886D01*
X83054410Y-165485612D01*
X83054734Y-165529893D01*
X83055329Y-165563785D01*
X83056239Y-165588346D01*
X83057508Y-165604631D01*
X83059180Y-165613698D01*
X83061299Y-165616602D01*
X83062126Y-165616376D01*
X83072225Y-165609746D01*
X83086666Y-165599586D01*
X83088695Y-165598116D01*
X83124462Y-165579430D01*
X83164609Y-165570657D01*
X83206208Y-165571566D01*
X83246329Y-165581927D01*
X83282044Y-165601508D01*
X83297206Y-165614557D01*
X83309897Y-165627460D01*
X83320116Y-165639126D01*
X83328145Y-165651054D01*
X83334265Y-165664744D01*
X83338760Y-165681694D01*
X83341912Y-165703404D01*
X83344002Y-165731373D01*
X83345314Y-165767100D01*
X83346129Y-165812085D01*
X83346729Y-165867827D01*
X83346827Y-165878129D01*
X83348646Y-166070364D01*
X83248109Y-166070364D01*
X83248100Y-165906261D01*
X83247966Y-165851995D01*
X83247397Y-165808721D01*
X83246127Y-165774927D01*
X83243893Y-165749103D01*
X83240429Y-165729738D01*
X83235472Y-165715322D01*
X83228756Y-165704344D01*
X83220018Y-165695294D01*
X83209751Y-165687214D01*
X83182380Y-165674325D01*
X83151479Y-165671062D01*
X83120488Y-165676771D01*
X83092851Y-165690799D01*
X83072008Y-165712494D01*
X83071397Y-165713461D01*
X83067203Y-165720706D01*
X83063920Y-165728412D01*
X83061413Y-165738172D01*
X83059549Y-165751577D01*
X83058195Y-165770222D01*
X83057217Y-165795697D01*
X83056481Y-165829597D01*
X83055855Y-165873512D01*
X83055502Y-165903135D01*
X83053566Y-166070364D01*
X82954287Y-166070364D01*
X82954287Y-165051623D01*
X83053912Y-165051623D01*
X83057243Y-165091414D01*
X83065033Y-165127046D01*
X83077301Y-165155379D01*
X83083296Y-165163764D01*
X83103881Y-165179372D01*
X83131349Y-165188293D01*
X83161777Y-165190127D01*
X83191244Y-165184480D01*
X83208309Y-165176429D01*
X83221924Y-165166073D01*
X83231790Y-165153347D01*
X83238468Y-165136193D01*
X83242518Y-165112556D01*
X83244502Y-165080380D01*
X83244984Y-165041986D01*
X83244699Y-165004724D01*
X83243677Y-164977514D01*
X83241669Y-164957916D01*
X83238425Y-164943489D01*
X83233714Y-164931828D01*
X83217298Y-164908914D01*
X83194605Y-164895064D01*
X83164142Y-164889596D01*
X83141847Y-164890032D01*
X83119125Y-164892336D01*
X83104522Y-164896372D01*
X83093655Y-164903959D01*
X83084800Y-164913694D01*
X83070484Y-164938709D01*
X83060551Y-164972130D01*
X83055021Y-165010815D01*
X83053912Y-165051623D01*
X82954287Y-165051623D01*
X82954287Y-164788798D01*
X83054312Y-164788798D01*
G37*
G36*
X82467924Y-164941908D02*
G01*
X82478378Y-164906103D01*
X82494249Y-164875849D01*
X82516248Y-164848975D01*
X82525719Y-164839789D01*
X82565089Y-164811134D01*
X82608116Y-164793034D01*
X82653003Y-164785129D01*
X82697955Y-164787056D01*
X82741176Y-164798456D01*
X82780871Y-164818967D01*
X82815243Y-164848228D01*
X82842497Y-164885878D01*
X82851926Y-164905377D01*
X82859106Y-164930811D01*
X82864084Y-164965300D01*
X82866863Y-165005595D01*
X82867445Y-165048443D01*
X82865834Y-165090595D01*
X82862031Y-165128798D01*
X82856041Y-165159802D01*
X82851695Y-165172896D01*
X82829178Y-165212289D01*
X82798097Y-165245732D01*
X82761070Y-165270783D01*
X82735483Y-165281277D01*
X82698255Y-165289121D01*
X82657686Y-165291788D01*
X82622458Y-165289036D01*
X82577470Y-165274863D01*
X82536457Y-165249032D01*
X82520899Y-165235091D01*
X82497617Y-165207840D01*
X82480568Y-165177065D01*
X82469113Y-165140692D01*
X82462611Y-165096644D01*
X82460424Y-165042846D01*
X82460416Y-165038860D01*
X82563566Y-165038860D01*
X82564347Y-165079214D01*
X82567187Y-165109524D01*
X82572830Y-165132180D01*
X82582023Y-165149574D01*
X82595509Y-165164094D01*
X82604969Y-165171678D01*
X82632617Y-165185083D01*
X82665090Y-165189697D01*
X82698301Y-165185496D01*
X82728158Y-165172454D01*
X82728193Y-165172431D01*
X82743929Y-165157791D01*
X82755182Y-165136494D01*
X82762390Y-165107015D01*
X82765991Y-165067827D01*
X82766604Y-165038622D01*
X82766359Y-165005832D01*
X82765189Y-164982421D01*
X82762657Y-164965273D01*
X82758328Y-164951271D01*
X82752675Y-164939059D01*
X82733162Y-164913171D01*
X82707431Y-164896271D01*
X82677961Y-164888361D01*
X82647228Y-164889446D01*
X82617709Y-164899528D01*
X82591882Y-164918609D01*
X82576407Y-164938856D01*
X82570893Y-164949818D01*
X82567198Y-164962236D01*
X82564976Y-164978807D01*
X82563882Y-165002228D01*
X82563568Y-165035198D01*
X82563566Y-165038860D01*
X82460416Y-165038860D01*
X82462174Y-164985437D01*
X82467924Y-164941908D01*
G37*
G36*
X84824993Y-164786866D02*
G01*
X84860637Y-164792275D01*
X84893668Y-164799958D01*
X84916464Y-164807902D01*
X84940117Y-164819462D01*
X84961322Y-164831807D01*
X84977357Y-164843151D01*
X84985498Y-164851712D01*
X84985994Y-164853442D01*
X84982224Y-164860483D01*
X84972270Y-164874032D01*
X84958238Y-164891233D01*
X84957362Y-164892261D01*
X84928687Y-164925826D01*
X84893984Y-164906241D01*
X84863154Y-164893083D01*
X84828288Y-164884912D01*
X84793299Y-164882109D01*
X84762099Y-164885058D01*
X84743074Y-164891511D01*
X84723593Y-164906755D01*
X84713470Y-164925678D01*
X84712969Y-164945409D01*
X84722354Y-164963077D01*
X84735585Y-164973017D01*
X84750993Y-164978231D01*
X84773941Y-164982876D01*
X84799470Y-164985950D01*
X84799572Y-164985958D01*
X84851511Y-164991225D01*
X84892705Y-164998565D01*
X84924838Y-165008699D01*
X84949596Y-165022351D01*
X84968663Y-165040241D01*
X84983725Y-165063092D01*
X84984924Y-165065383D01*
X84996066Y-165097406D01*
X85000401Y-165133819D01*
X84997763Y-165169604D01*
X84989302Y-165197098D01*
X84967979Y-165228060D01*
X84936943Y-165253812D01*
X84898152Y-165273634D01*
X84853563Y-165286800D01*
X84805133Y-165292589D01*
X84754821Y-165290276D01*
X84742227Y-165288356D01*
X84717655Y-165282252D01*
X84689134Y-165272572D01*
X84668164Y-165263800D01*
X84645295Y-165251956D01*
X84622422Y-165238200D01*
X84602168Y-165224355D01*
X84587159Y-165212242D01*
X84580020Y-165203685D01*
X84579766Y-165202437D01*
X84584172Y-165196578D01*
X84595719Y-165184995D01*
X84612020Y-165170063D01*
X84614092Y-165168239D01*
X84648338Y-165138204D01*
X84676459Y-165157552D01*
X84714532Y-165179264D01*
X84753364Y-165191304D01*
X84797777Y-165195144D01*
X84799478Y-165195148D01*
X84840015Y-165192206D01*
X84869687Y-165183297D01*
X84888679Y-165168300D01*
X84897179Y-165147094D01*
X84897327Y-165131399D01*
X84893565Y-165116105D01*
X84884649Y-165104542D01*
X84868918Y-165095940D01*
X84844711Y-165089525D01*
X84810366Y-165084527D01*
X84792439Y-165082656D01*
X84741491Y-165075892D01*
X84701236Y-165066022D01*
X84670083Y-165052253D01*
X84646437Y-165033793D01*
X84628707Y-165009849D01*
X84622760Y-164998225D01*
X84615509Y-164975819D01*
X84611411Y-164950215D01*
X84611082Y-164942686D01*
X84616006Y-164898007D01*
X84631189Y-164860461D01*
X84656596Y-164830083D01*
X84692194Y-164806908D01*
X84737948Y-164790969D01*
X84764966Y-164785672D01*
X84791511Y-164784432D01*
X84824993Y-164786866D01*
G37*
G36*
X85432160Y-165881731D02*
G01*
X85449204Y-165844661D01*
X85476470Y-165814461D01*
X85511166Y-165792873D01*
X85524641Y-165787518D01*
X85539849Y-165783665D01*
X85559330Y-165780992D01*
X85585625Y-165779178D01*
X85621272Y-165777901D01*
X85631508Y-165777639D01*
X85723718Y-165775395D01*
X85723718Y-165739151D01*
X85721906Y-165712354D01*
X85716080Y-165694986D01*
X85712778Y-165690416D01*
X85693483Y-165676661D01*
X85666317Y-165667843D01*
X85634722Y-165663950D01*
X85602142Y-165664970D01*
X85572017Y-165670890D01*
X85547791Y-165681698D01*
X85537083Y-165691041D01*
X85531803Y-165695568D01*
X85525094Y-165695431D01*
X85514425Y-165689615D01*
X85497263Y-165677106D01*
X85491759Y-165672889D01*
X85473957Y-165658545D01*
X85460878Y-165646775D01*
X85455007Y-165639840D01*
X85454902Y-165639369D01*
X85460034Y-165629735D01*
X85473395Y-165616921D01*
X85491931Y-165603137D01*
X85512592Y-165590593D01*
X85532323Y-165581500D01*
X85536934Y-165579971D01*
X85570419Y-165573434D01*
X85610894Y-165570642D01*
X85653431Y-165571574D01*
X85693099Y-165576206D01*
X85713603Y-165580788D01*
X85746910Y-165594802D01*
X85776988Y-165616037D01*
X85800895Y-165641853D01*
X85815686Y-165669610D01*
X85816832Y-165673391D01*
X85818948Y-165687792D01*
X85820719Y-165713654D01*
X85822110Y-165749939D01*
X85823087Y-165795609D01*
X85823618Y-165849627D01*
X85823708Y-165884380D01*
X85823743Y-166070364D01*
X85723718Y-166070364D01*
X85723718Y-166031743D01*
X85704770Y-166047687D01*
X85685426Y-166060380D01*
X85664052Y-166069657D01*
X85662572Y-166070088D01*
X85631789Y-166075122D01*
X85595335Y-166075914D01*
X85559050Y-166072670D01*
X85528775Y-166065592D01*
X85528277Y-166065415D01*
X85488546Y-166045309D01*
X85457830Y-166017522D01*
X85436896Y-165983519D01*
X85426511Y-165944767D01*
X85427018Y-165921890D01*
X85523868Y-165921890D01*
X85528943Y-165946406D01*
X85543430Y-165964436D01*
X85562582Y-165973062D01*
X85580019Y-165976948D01*
X85589310Y-165979129D01*
X85607551Y-165980973D01*
X85631875Y-165980227D01*
X85657737Y-165977400D01*
X85680592Y-165973004D01*
X85695897Y-165967552D01*
X85696727Y-165967041D01*
X85712007Y-165951765D01*
X85720746Y-165929220D01*
X85723708Y-165897370D01*
X85723718Y-165894914D01*
X85723718Y-165864063D01*
X85645163Y-165864063D01*
X85602674Y-165864933D01*
X85571100Y-165868020D01*
X85548942Y-165874037D01*
X85534704Y-165883699D01*
X85526887Y-165897719D01*
X85523994Y-165916813D01*
X85523868Y-165921890D01*
X85427018Y-165921890D01*
X85427442Y-165902733D01*
X85432160Y-165881731D01*
G37*
G36*
X83435497Y-165863197D02*
G01*
X83453051Y-165831966D01*
X83464538Y-165819071D01*
X83481312Y-165805137D01*
X83499137Y-165794814D01*
X83520320Y-165787508D01*
X83547170Y-165782623D01*
X83581996Y-165779565D01*
X83624765Y-165777805D01*
X83716975Y-165775179D01*
X83716975Y-165741065D01*
X83715762Y-165719354D01*
X83712660Y-165701205D01*
X83710220Y-165694331D01*
X83696268Y-165680349D01*
X83672852Y-165670125D01*
X83642706Y-165664657D01*
X83627310Y-165664014D01*
X83592413Y-165665474D01*
X83566847Y-165670342D01*
X83547730Y-165679351D01*
X83538723Y-165686518D01*
X83522834Y-165701244D01*
X83485496Y-165672248D01*
X83467604Y-165657767D01*
X83454389Y-165645955D01*
X83448307Y-165639031D01*
X83448159Y-165638491D01*
X83452539Y-165632123D01*
X83463830Y-165620729D01*
X83474560Y-165611132D01*
X83500909Y-165592543D01*
X83530575Y-165580034D01*
X83565985Y-165573008D01*
X83609568Y-165570870D01*
X83635980Y-165571479D01*
X83668514Y-165573268D01*
X83692330Y-165575986D01*
X83711213Y-165580373D01*
X83728947Y-165587171D01*
X83738099Y-165591477D01*
X83772718Y-165613763D01*
X83797557Y-165642681D01*
X83811002Y-165670265D01*
X83813708Y-165681811D01*
X83815988Y-165701444D01*
X83817887Y-165730040D01*
X83819452Y-165768473D01*
X83820725Y-165817620D01*
X83821753Y-165878355D01*
X83821792Y-165881255D01*
X83824349Y-166070364D01*
X83716975Y-166070364D01*
X83716975Y-166031743D01*
X83698026Y-166047687D01*
X83678683Y-166060380D01*
X83657309Y-166069657D01*
X83655828Y-166070088D01*
X83626599Y-166074875D01*
X83591582Y-166075812D01*
X83556842Y-166073020D01*
X83531455Y-166067616D01*
X83491089Y-166049586D01*
X83458420Y-166023802D01*
X83435078Y-165991757D01*
X83426723Y-165971740D01*
X83421322Y-165937167D01*
X83422501Y-165923599D01*
X83517257Y-165923599D01*
X83524156Y-165944733D01*
X83539535Y-165962711D01*
X83562359Y-165974911D01*
X83570418Y-165977036D01*
X83589672Y-165979214D01*
X83615293Y-165979796D01*
X83642829Y-165978946D01*
X83667831Y-165976827D01*
X83685845Y-165973600D01*
X83688549Y-165972712D01*
X83701665Y-165961439D01*
X83711275Y-165940494D01*
X83716396Y-165912452D01*
X83716975Y-165898272D01*
X83716975Y-165863094D01*
X83633063Y-165865141D01*
X83598897Y-165866111D01*
X83574852Y-165867340D01*
X83558551Y-165869238D01*
X83547613Y-165872213D01*
X83539659Y-165876676D01*
X83533039Y-165882344D01*
X83519873Y-165901929D01*
X83517257Y-165923599D01*
X83422501Y-165923599D01*
X83424583Y-165899625D01*
X83435497Y-165863197D01*
G37*
G36*
X84901147Y-161075406D02*
G01*
X84951844Y-161075508D01*
X84992396Y-161075748D01*
X85023982Y-161076181D01*
X85047781Y-161076864D01*
X85064972Y-161077854D01*
X85076734Y-161079207D01*
X85084246Y-161080980D01*
X85088686Y-161083228D01*
X85091235Y-161086010D01*
X85092108Y-161087505D01*
X85094678Y-161096210D01*
X85099204Y-161115795D01*
X85105398Y-161144839D01*
X85112971Y-161181921D01*
X85121633Y-161225621D01*
X85131095Y-161274520D01*
X85141068Y-161327196D01*
X85142715Y-161336004D01*
X85152763Y-161388967D01*
X85162416Y-161438209D01*
X85171379Y-161482339D01*
X85179355Y-161519968D01*
X85186050Y-161549705D01*
X85191165Y-161570161D01*
X85194407Y-161579946D01*
X85194759Y-161580457D01*
X85203050Y-161585406D01*
X85221149Y-161594103D01*
X85247202Y-161605788D01*
X85279352Y-161619700D01*
X85315746Y-161635079D01*
X85354530Y-161651166D01*
X85393848Y-161667200D01*
X85431846Y-161682422D01*
X85466669Y-161696071D01*
X85496463Y-161707387D01*
X85519374Y-161715611D01*
X85533546Y-161719981D01*
X85536449Y-161720485D01*
X85545327Y-161717783D01*
X85562018Y-161709093D01*
X85586931Y-161694158D01*
X85620477Y-161672719D01*
X85663064Y-161644517D01*
X85715103Y-161609294D01*
X85745329Y-161588601D01*
X85797697Y-161552641D01*
X85840738Y-161523134D01*
X85875437Y-161499465D01*
X85902782Y-161481019D01*
X85923759Y-161467181D01*
X85939353Y-161457336D01*
X85950552Y-161450870D01*
X85958342Y-161447169D01*
X85963709Y-161445616D01*
X85967639Y-161445597D01*
X85971120Y-161446499D01*
X85972570Y-161446967D01*
X85980560Y-161452500D01*
X85995784Y-161465775D01*
X86017068Y-161485596D01*
X86043237Y-161510767D01*
X86073115Y-161540092D01*
X86105527Y-161572373D01*
X86139298Y-161606415D01*
X86173254Y-161641023D01*
X86206218Y-161674999D01*
X86237015Y-161707147D01*
X86264472Y-161736271D01*
X86287411Y-161761176D01*
X86304659Y-161780664D01*
X86315040Y-161793539D01*
X86317615Y-161798199D01*
X86314175Y-161806076D01*
X86304375Y-161823008D01*
X86288993Y-161847784D01*
X86268809Y-161879195D01*
X86244600Y-161916031D01*
X86217147Y-161957082D01*
X86187227Y-162001138D01*
X86183207Y-162007009D01*
X86142854Y-162066317D01*
X86109586Y-162116165D01*
X86083476Y-162156440D01*
X86064595Y-162187026D01*
X86053018Y-162207809D01*
X86048815Y-162218674D01*
X86048798Y-162219039D01*
X86051265Y-162230109D01*
X86058147Y-162250451D01*
X86068667Y-162278271D01*
X86082049Y-162311776D01*
X86097517Y-162349174D01*
X86114294Y-162388672D01*
X86131604Y-162428476D01*
X86148669Y-162466794D01*
X86164714Y-162501833D01*
X86178962Y-162531799D01*
X86190636Y-162554900D01*
X86198960Y-162569343D01*
X86202200Y-162573235D01*
X86211142Y-162576301D01*
X86230912Y-162581253D01*
X86260031Y-162587780D01*
X86297017Y-162595570D01*
X86340392Y-162604311D01*
X86388676Y-162613689D01*
X86436633Y-162622699D01*
X86488208Y-162632325D01*
X86536311Y-162641474D01*
X86579453Y-162649851D01*
X86616144Y-162657158D01*
X86644892Y-162663099D01*
X86664209Y-162667378D01*
X86672389Y-162669600D01*
X86686455Y-162675510D01*
X86686455Y-162925037D01*
X86686424Y-162987644D01*
X86686298Y-163038903D01*
X86686026Y-163079969D01*
X86685559Y-163111997D01*
X86684848Y-163136144D01*
X86683842Y-163153563D01*
X86682492Y-163165409D01*
X86680748Y-163172839D01*
X86678561Y-163177007D01*
X86675881Y-163179069D01*
X86675515Y-163179233D01*
X86667027Y-163181428D01*
X86647696Y-163185615D01*
X86618973Y-163191504D01*
X86582310Y-163198806D01*
X86539156Y-163207233D01*
X86490964Y-163216496D01*
X86439886Y-163226173D01*
X86377302Y-163238073D01*
X86326124Y-163248106D01*
X86285429Y-163256480D01*
X86254294Y-163263406D01*
X86231796Y-163269095D01*
X86217011Y-163273757D01*
X86209017Y-163277601D01*
X86207399Y-163279108D01*
X86203171Y-163287448D01*
X86194987Y-163305875D01*
X86183493Y-163332850D01*
X86169333Y-163366836D01*
X86153154Y-163406294D01*
X86135600Y-163449684D01*
X86129757Y-163464250D01*
X86106766Y-163522390D01*
X86088743Y-163569565D01*
X86075535Y-163606215D01*
X86066988Y-163632780D01*
X86062947Y-163649701D01*
X86062675Y-163655813D01*
X86066784Y-163664820D01*
X86077228Y-163682777D01*
X86093175Y-163708391D01*
X86113791Y-163740366D01*
X86138245Y-163777409D01*
X86165704Y-163818226D01*
X86191526Y-163856001D01*
X86220757Y-163898746D01*
X86247592Y-163938557D01*
X86271223Y-163974192D01*
X86290844Y-164004411D01*
X86305648Y-164027972D01*
X86314828Y-164043635D01*
X86317615Y-164049948D01*
X86313317Y-164056628D01*
X86301062Y-164071065D01*
X86281804Y-164092246D01*
X86256498Y-164119158D01*
X86226098Y-164150790D01*
X86191561Y-164186130D01*
X86153840Y-164224165D01*
X86143656Y-164234343D01*
X86098398Y-164279362D01*
X86061083Y-164316140D01*
X86030928Y-164345390D01*
X86007149Y-164367827D01*
X85988962Y-164384161D01*
X85975583Y-164395106D01*
X85966229Y-164401376D01*
X85960115Y-164403681D01*
X85957673Y-164403458D01*
X85949838Y-164398975D01*
X85932983Y-164388229D01*
X85908375Y-164372066D01*
X85877281Y-164351330D01*
X85840970Y-164326865D01*
X85800708Y-164299514D01*
X85764985Y-164275082D01*
X85722442Y-164246128D01*
X85682776Y-164219574D01*
X85647250Y-164196232D01*
X85617128Y-164176915D01*
X85593673Y-164162434D01*
X85578149Y-164153601D01*
X85572152Y-164151141D01*
X85562529Y-164153990D01*
X85544245Y-164161827D01*
X85519579Y-164173591D01*
X85490814Y-164188219D01*
X85477747Y-164195128D01*
X85448011Y-164210520D01*
X85421454Y-164223313D01*
X85400329Y-164232494D01*
X85386887Y-164237047D01*
X85383996Y-164237325D01*
X85380606Y-164234452D01*
X85375281Y-164226185D01*
X85367738Y-164211879D01*
X85357691Y-164190888D01*
X85344857Y-164162569D01*
X85328951Y-164126276D01*
X85309691Y-164081365D01*
X85286790Y-164027190D01*
X85259967Y-163963107D01*
X85228935Y-163888472D01*
X85207390Y-163836449D01*
X85179701Y-163769343D01*
X85153469Y-163705434D01*
X85129081Y-163645689D01*
X85106927Y-163591076D01*
X85087393Y-163542561D01*
X85070869Y-163501111D01*
X85057743Y-163467694D01*
X85048403Y-163443276D01*
X85043237Y-163428824D01*
X85042301Y-163425273D01*
X85047759Y-163413847D01*
X85062657Y-163400321D01*
X85068870Y-163396067D01*
X85086656Y-163384132D01*
X85110060Y-163367793D01*
X85134684Y-163350131D01*
X85140392Y-163345960D01*
X85201133Y-163293961D01*
X85252184Y-163234842D01*
X85293213Y-163169777D01*
X85323886Y-163099939D01*
X85343874Y-163026501D01*
X85352842Y-162950636D01*
X85350458Y-162873516D01*
X85336391Y-162796314D01*
X85314669Y-162730684D01*
X85295103Y-162687811D01*
X85272112Y-162649186D01*
X85243393Y-162611485D01*
X85206644Y-162571386D01*
X85198589Y-162563248D01*
X85143189Y-162513993D01*
X85085487Y-162475533D01*
X85022639Y-162446173D01*
X84976660Y-162430870D01*
X84931965Y-162421565D01*
X84879790Y-162416421D01*
X84824444Y-162415439D01*
X84770236Y-162418619D01*
X84721475Y-162425961D01*
X84701592Y-162430870D01*
X84627943Y-162458327D01*
X84559930Y-162496104D01*
X84498567Y-162543119D01*
X84444869Y-162598286D01*
X84399850Y-162660523D01*
X84364525Y-162728745D01*
X84339907Y-162801870D01*
X84335233Y-162822288D01*
X84325205Y-162900841D01*
X84327194Y-162978763D01*
X84340726Y-163054831D01*
X84365328Y-163127825D01*
X84400528Y-163196520D01*
X84445853Y-163259696D01*
X84500829Y-163316131D01*
X84537860Y-163345960D01*
X84562114Y-163363478D01*
X84586222Y-163380425D01*
X84605788Y-163393721D01*
X84609382Y-163396067D01*
X84626766Y-163409750D01*
X84635398Y-163422090D01*
X84635951Y-163425273D01*
X84633612Y-163432954D01*
X84626855Y-163451210D01*
X84616067Y-163479075D01*
X84601637Y-163515580D01*
X84583953Y-163559760D01*
X84563403Y-163610647D01*
X84540376Y-163667273D01*
X84515260Y-163728673D01*
X84488443Y-163793880D01*
X84470862Y-163836449D01*
X84437071Y-163917973D01*
X84407664Y-163988543D01*
X84382357Y-164048804D01*
X84360866Y-164099400D01*
X84342907Y-164140977D01*
X84328197Y-164174179D01*
X84316450Y-164199651D01*
X84307383Y-164218039D01*
X84300712Y-164229986D01*
X84296152Y-164236138D01*
X84294256Y-164237325D01*
X84284888Y-164235117D01*
X84266850Y-164227838D01*
X84242394Y-164216502D01*
X84213773Y-164202123D01*
X84200504Y-164195128D01*
X84170676Y-164179594D01*
X84143967Y-164166468D01*
X84122659Y-164156812D01*
X84109031Y-164151687D01*
X84106100Y-164151141D01*
X84098246Y-164154579D01*
X84081396Y-164164350D01*
X84056813Y-164179642D01*
X84025761Y-164199644D01*
X83989503Y-164223542D01*
X83949302Y-164250526D01*
X83913267Y-164275082D01*
X83870677Y-164304193D01*
X83830980Y-164331125D01*
X83795443Y-164355033D01*
X83765333Y-164375073D01*
X83741918Y-164390400D01*
X83726464Y-164400169D01*
X83720578Y-164403458D01*
X83716034Y-164403190D01*
X83708720Y-164399387D01*
X83697852Y-164391336D01*
X83682647Y-164378324D01*
X83662321Y-164359638D01*
X83636090Y-164334566D01*
X83603169Y-164302395D01*
X83562776Y-164262412D01*
X83534595Y-164234343D01*
X83496205Y-164195775D01*
X83460750Y-164159639D01*
X83429186Y-164126948D01*
X83402468Y-164098715D01*
X83381549Y-164075950D01*
X83367386Y-164059668D01*
X83360934Y-164050879D01*
X83360637Y-164049948D01*
X83364080Y-164042434D01*
X83373871Y-164025907D01*
X83389204Y-164001609D01*
X83409271Y-163970781D01*
X83433266Y-163934662D01*
X83460383Y-163894495D01*
X83486726Y-163856001D01*
X83516129Y-163812944D01*
X83543256Y-163772529D01*
X83567274Y-163736050D01*
X83587351Y-163704802D01*
X83602653Y-163680078D01*
X83612348Y-163663173D01*
X83615576Y-163655813D01*
X83614435Y-163645039D01*
X83608889Y-163624911D01*
X83598786Y-163594990D01*
X83583969Y-163554836D01*
X83564286Y-163504008D01*
X83548495Y-163464250D01*
X83530635Y-163419920D01*
X83513942Y-163379027D01*
X83499062Y-163343110D01*
X83486638Y-163313708D01*
X83477317Y-163292358D01*
X83471744Y-163280600D01*
X83470853Y-163279108D01*
X83465591Y-163275560D01*
X83453950Y-163271289D01*
X83435007Y-163266085D01*
X83407839Y-163259736D01*
X83371523Y-163252034D01*
X83325136Y-163242767D01*
X83267755Y-163231726D01*
X83238366Y-163226173D01*
X83186623Y-163216369D01*
X83138488Y-163207116D01*
X83095411Y-163198702D01*
X83058843Y-163191416D01*
X83030235Y-163185547D01*
X83011039Y-163181385D01*
X83002736Y-163179233D01*
X82999992Y-163177351D01*
X82997747Y-163173504D01*
X82995952Y-163166537D01*
X82994556Y-163155295D01*
X82993511Y-163138623D01*
X82992766Y-163115366D01*
X82992272Y-163084368D01*
X82991979Y-163044474D01*
X82991837Y-162994530D01*
X82991797Y-162933380D01*
X82991796Y-162925037D01*
X82991796Y-162675510D01*
X83005862Y-162669600D01*
X83015116Y-162667125D01*
X83035181Y-162662713D01*
X83064568Y-162656660D01*
X83101787Y-162649264D01*
X83145347Y-162640820D01*
X83193759Y-162631626D01*
X83241618Y-162622699D01*
X83293136Y-162613008D01*
X83341120Y-162603665D01*
X83384090Y-162594982D01*
X83420567Y-162587271D01*
X83449070Y-162580846D01*
X83468119Y-162576017D01*
X83476051Y-162573235D01*
X83481787Y-162565366D01*
X83491377Y-162547676D01*
X83504044Y-162521958D01*
X83519012Y-162490004D01*
X83535504Y-162453609D01*
X83552744Y-162414564D01*
X83569955Y-162374663D01*
X83586360Y-162335699D01*
X83601183Y-162299465D01*
X83613648Y-162267753D01*
X83622978Y-162242357D01*
X83628397Y-162225070D01*
X83629453Y-162219039D01*
X83625739Y-162208831D01*
X83614645Y-162188699D01*
X83596244Y-162158756D01*
X83570608Y-162119116D01*
X83537810Y-162069896D01*
X83497922Y-162011208D01*
X83495045Y-162007009D01*
X83464863Y-161962652D01*
X83437045Y-161921143D01*
X83412372Y-161883693D01*
X83391622Y-161851510D01*
X83375573Y-161825805D01*
X83365005Y-161807787D01*
X83360697Y-161798667D01*
X83360637Y-161798199D01*
X83364916Y-161791244D01*
X83376968Y-161776754D01*
X83395619Y-161755924D01*
X83419693Y-161729950D01*
X83448016Y-161700030D01*
X83479412Y-161667359D01*
X83512706Y-161633134D01*
X83546722Y-161598550D01*
X83580287Y-161564804D01*
X83612224Y-161533093D01*
X83641359Y-161504611D01*
X83666516Y-161480557D01*
X83686520Y-161462125D01*
X83700196Y-161450512D01*
X83705682Y-161446967D01*
X83709344Y-161445885D01*
X83713143Y-161445541D01*
X83718065Y-161446549D01*
X83725096Y-161449523D01*
X83735224Y-161455079D01*
X83749434Y-161463831D01*
X83768712Y-161476393D01*
X83794047Y-161493381D01*
X83826424Y-161515409D01*
X83866830Y-161543091D01*
X83916252Y-161577042D01*
X83933606Y-161588970D01*
X83990558Y-161627858D01*
X84037848Y-161659582D01*
X84075878Y-161684396D01*
X84105052Y-161702554D01*
X84125772Y-161714311D01*
X84138440Y-161719922D01*
X84141797Y-161720505D01*
X84151764Y-161717986D01*
X84171254Y-161711293D01*
X84198412Y-161701186D01*
X84231379Y-161688425D01*
X84268298Y-161673772D01*
X84307311Y-161657987D01*
X84346561Y-161641832D01*
X84384190Y-161626066D01*
X84418340Y-161611451D01*
X84447153Y-161598748D01*
X84468773Y-161588716D01*
X84481342Y-161582118D01*
X84483437Y-161580591D01*
X84486367Y-161572782D01*
X84491213Y-161554058D01*
X84497680Y-161525812D01*
X84505470Y-161489436D01*
X84514288Y-161446320D01*
X84523836Y-161397856D01*
X84533818Y-161345436D01*
X84535559Y-161336108D01*
X84545562Y-161282957D01*
X84555106Y-161233349D01*
X84563901Y-161188706D01*
X84571659Y-161150450D01*
X84578091Y-161120002D01*
X84582906Y-161098783D01*
X84585818Y-161088217D01*
X84586087Y-161087610D01*
X84588149Y-161084535D01*
X84591509Y-161082024D01*
X84597345Y-161080019D01*
X84606837Y-161078464D01*
X84621166Y-161077302D01*
X84641510Y-161076476D01*
X84669048Y-161075928D01*
X84704962Y-161075603D01*
X84750430Y-161075442D01*
X84806631Y-161075388D01*
X84839126Y-161075385D01*
X84901147Y-161075406D01*
G37*
G36*
X86304023Y-165671243D02*
G01*
X86331117Y-165631736D01*
X86365701Y-165601773D01*
X86407421Y-165581742D01*
X86455924Y-165572027D01*
X86462192Y-165571572D01*
X86514552Y-165573762D01*
X86560924Y-165586766D01*
X86600865Y-165610336D01*
X86633934Y-165644225D01*
X86655860Y-165680040D01*
X86664994Y-165699609D01*
X86671105Y-165716495D01*
X86674949Y-165734369D01*
X86677280Y-165756901D01*
X86678853Y-165787763D01*
X86679051Y-165792836D01*
X86681777Y-165864063D01*
X86372232Y-165864063D01*
X86375723Y-165890091D01*
X86385956Y-165921845D01*
X86406246Y-165948784D01*
X86434449Y-165968814D01*
X86467567Y-165979702D01*
X86495311Y-165979929D01*
X86527054Y-165973553D01*
X86557300Y-165962108D01*
X86578837Y-165948629D01*
X86597080Y-165933278D01*
X86630828Y-165961952D01*
X86647777Y-165976762D01*
X86660471Y-165988625D01*
X86666301Y-165995097D01*
X86666374Y-165995256D01*
X86663209Y-166002774D01*
X86651698Y-166014394D01*
X86634413Y-166028124D01*
X86613925Y-166041974D01*
X86592807Y-166053955D01*
X86586716Y-166056895D01*
X86555620Y-166067135D01*
X86518094Y-166073480D01*
X86478902Y-166075604D01*
X86442808Y-166073181D01*
X86420765Y-166068229D01*
X86380568Y-166051912D01*
X86349273Y-166031475D01*
X86323364Y-166004242D01*
X86308506Y-165982842D01*
X86289988Y-165943828D01*
X86277521Y-165896463D01*
X86271588Y-165843588D01*
X86272669Y-165788044D01*
X86273715Y-165777349D01*
X86273871Y-165776541D01*
X86372232Y-165776541D01*
X86579867Y-165776541D01*
X86575995Y-165756224D01*
X86563943Y-165719287D01*
X86544100Y-165691292D01*
X86517408Y-165673018D01*
X86484808Y-165665240D01*
X86466083Y-165665577D01*
X86431879Y-165674467D01*
X86404280Y-165693012D01*
X86384919Y-165719679D01*
X86375723Y-165750513D01*
X86372232Y-165776541D01*
X86273871Y-165776541D01*
X86284771Y-165719909D01*
X86304023Y-165671243D01*
G37*
G36*
X84270236Y-165826554D02*
G01*
X84270534Y-165775432D01*
X84271735Y-165734955D01*
X84274295Y-165703270D01*
X84278671Y-165678528D01*
X84285322Y-165658877D01*
X84294704Y-165642465D01*
X84307274Y-165627443D01*
X84323188Y-165612230D01*
X84354730Y-165588925D01*
X84388105Y-165575481D01*
X84427283Y-165570433D01*
X84436627Y-165570302D01*
X84464083Y-165573443D01*
X84493133Y-165581674D01*
X84519405Y-165593342D01*
X84538526Y-165606796D01*
X84541380Y-165609881D01*
X84550540Y-165618273D01*
X84555314Y-165620253D01*
X84557033Y-165614315D01*
X84558695Y-165597758D01*
X84560193Y-165572464D01*
X84561420Y-165540317D01*
X84562268Y-165503201D01*
X84562363Y-165496785D01*
X84564058Y-165373317D01*
X84612508Y-165371491D01*
X84660957Y-165369665D01*
X84660957Y-166070364D01*
X84560932Y-166070364D01*
X84560932Y-166048483D01*
X84559274Y-166032086D01*
X84553775Y-166027470D01*
X84543648Y-166034290D01*
X84539171Y-166038975D01*
X84522795Y-166051019D01*
X84498305Y-166062148D01*
X84470078Y-166070859D01*
X84442487Y-166075651D01*
X84430978Y-166076122D01*
X84406154Y-166073683D01*
X84381202Y-166068243D01*
X84375795Y-166066505D01*
X84342657Y-166049135D01*
X84312302Y-166023005D01*
X84288805Y-165991791D01*
X84284851Y-165984388D01*
X84279907Y-165973724D01*
X84276223Y-165963291D01*
X84273615Y-165951095D01*
X84271897Y-165935143D01*
X84270886Y-165913442D01*
X84270396Y-165883999D01*
X84270278Y-165853486D01*
X84368056Y-165853486D01*
X84372603Y-165895552D01*
X84382300Y-165927685D01*
X84397431Y-165950740D01*
X84418281Y-165965566D01*
X84424451Y-165968097D01*
X84457227Y-165975449D01*
X84488004Y-165971832D01*
X84508365Y-165963811D01*
X84526363Y-165953296D01*
X84539519Y-165940413D01*
X84548537Y-165923164D01*
X84554121Y-165899550D01*
X84556976Y-165867573D01*
X84557804Y-165825233D01*
X84557805Y-165823428D01*
X84557546Y-165788439D01*
X84556547Y-165763222D01*
X84554476Y-165745052D01*
X84551003Y-165731206D01*
X84545794Y-165718958D01*
X84544875Y-165717152D01*
X84526249Y-165693231D01*
X84501259Y-165677665D01*
X84472662Y-165670486D01*
X84443212Y-165671724D01*
X84415665Y-165681411D01*
X84392776Y-165699578D01*
X84382028Y-165715312D01*
X84375445Y-165734902D01*
X84370862Y-165765000D01*
X84368372Y-165800638D01*
X84368056Y-165853486D01*
X84270278Y-165853486D01*
X84270244Y-165844820D01*
X84270236Y-165826554D01*
G37*
G36*
X85061506Y-164980460D02*
G01*
X85066502Y-164941000D01*
X85074405Y-164909404D01*
X85076555Y-164903796D01*
X85099754Y-164863152D01*
X85130843Y-164830667D01*
X85168002Y-164806621D01*
X85209414Y-164791294D01*
X85253257Y-164784968D01*
X85297715Y-164787922D01*
X85340966Y-164800438D01*
X85381192Y-164822796D01*
X85413529Y-164851813D01*
X85431421Y-164873655D01*
X85444676Y-164895350D01*
X85453932Y-164919289D01*
X85459824Y-164947867D01*
X85462988Y-164983476D01*
X85464061Y-165028509D01*
X85464076Y-165041986D01*
X85463784Y-165079881D01*
X85462898Y-165107993D01*
X85461118Y-165129039D01*
X85458143Y-165145735D01*
X85453674Y-165160799D01*
X85449811Y-165171035D01*
X85431370Y-165204013D01*
X85404392Y-165235539D01*
X85372615Y-165261797D01*
X85346858Y-165276182D01*
X85312214Y-165286546D01*
X85271970Y-165291441D01*
X85232045Y-165290265D01*
X85222256Y-165288858D01*
X85176169Y-165274832D01*
X85135489Y-165250331D01*
X85102048Y-165216762D01*
X85079063Y-165178669D01*
X85069981Y-165150055D01*
X85063654Y-165112582D01*
X85060112Y-165069596D01*
X85059614Y-165038622D01*
X85161217Y-165038622D01*
X85162648Y-165084243D01*
X85167290Y-165119237D01*
X85175962Y-165145248D01*
X85189484Y-165163919D01*
X85208675Y-165176895D01*
X85234355Y-165185820D01*
X85234593Y-165185881D01*
X85271133Y-165189735D01*
X85304176Y-165182316D01*
X85323136Y-165171466D01*
X85339187Y-165157558D01*
X85350564Y-165142017D01*
X85358008Y-165122462D01*
X85362256Y-165096510D01*
X85364048Y-165061778D01*
X85364255Y-165038860D01*
X85363996Y-165004861D01*
X85362989Y-164980662D01*
X85360888Y-164963566D01*
X85357345Y-164950874D01*
X85352015Y-164939891D01*
X85351414Y-164938856D01*
X85328888Y-164911289D01*
X85300170Y-164894568D01*
X85265487Y-164888825D01*
X85264771Y-164888823D01*
X85228643Y-164893473D01*
X85200344Y-164907670D01*
X85179209Y-164931788D01*
X85175146Y-164939059D01*
X85168871Y-164952870D01*
X85164778Y-164967081D01*
X85162430Y-164984809D01*
X85161393Y-165009170D01*
X85161217Y-165038622D01*
X85059614Y-165038622D01*
X85059386Y-165024440D01*
X85061506Y-164980460D01*
G37*
%TO.C,D13*%
X93980000Y-157710000D02*
X93980000Y-157060000D01*
X92860000Y-157060000D02*
X95100000Y-157060000D01*
X92860000Y-156460000D02*
X95100000Y-156460000D01*
X92860000Y-152820000D02*
X92860000Y-157060000D01*
X92860000Y-156340000D02*
X95100000Y-156340000D01*
X95100000Y-157060000D02*
X95100000Y-152820000D01*
X92860000Y-156220000D02*
X95100000Y-156220000D01*
X95100000Y-152820000D02*
X92860000Y-152820000D01*
X93980000Y-152170000D02*
X93980000Y-152820000D01*
%TO.C,SCK1*%
X39860000Y-167358344D02*
X39610000Y-166925331D01*
X40110000Y-166925331D02*
X39860000Y-167358344D01*
X20060000Y-167819669D02*
X51030000Y-167819669D01*
X39610000Y-166925331D02*
X40110000Y-166925331D01*
X20060000Y-181709669D02*
X20060000Y-167819669D01*
X51030000Y-167819669D02*
X51030000Y-181709669D01*
%TO.C,R1*%
X139700000Y-146400000D02*
X139700000Y-145780000D01*
X140620000Y-147320000D02*
G75*
G03*
X140620000Y-147320000I-920000J0D01*
G01*
%TD*%
%LPC*%
D12*
%TO.C,R5*%
X137160000Y-147320000D03*
D13*
X137160000Y-144780000D03*
%TD*%
D14*
%TO.C,D22*%
X129540000Y-158750000D03*
D15*
X129540000Y-151130000D03*
%TD*%
D14*
%TO.C,D16*%
X134620000Y-142240000D03*
D15*
X142240000Y-142240000D03*
%TD*%
D14*
%TO.C,D20*%
X124460000Y-158750000D03*
D15*
X124460000Y-151130000D03*
%TD*%
D14*
%TO.C,D11*%
X68580000Y-158750000D03*
D15*
X68580000Y-151130000D03*
%TD*%
D14*
%TO.C,D3*%
X35560000Y-158750000D03*
D15*
X35560000Y-151130000D03*
%TD*%
D14*
%TO.C,C3*%
X26670000Y-127000000D03*
D16*
X26670000Y-129500000D03*
%TD*%
D14*
%TO.C,D12*%
X73660000Y-158750000D03*
D15*
X73660000Y-151130000D03*
%TD*%
D14*
%TO.C,D2*%
X38100000Y-158750000D03*
D15*
X38100000Y-151130000D03*
%TD*%
D12*
%TO.C,R4*%
X147320000Y-147320000D03*
D13*
X147320000Y-144780000D03*
%TD*%
D12*
%TO.C,R7*%
X116840000Y-128270000D03*
D13*
X119380000Y-128270000D03*
%TD*%
D16*
%TO.C,C2*%
X31750000Y-125730000D03*
X31750000Y-130730000D03*
%TD*%
D17*
%TO.C,P1*%
X67290000Y-127010000D03*
D18*
X64750000Y-127010000D03*
X62210000Y-127010000D03*
X59670000Y-127010000D03*
X57130000Y-127010000D03*
X54590000Y-127010000D03*
X52050000Y-127010000D03*
X49510000Y-127010000D03*
X46970000Y-127010000D03*
X44430000Y-127010000D03*
X41890000Y-127010000D03*
X39350000Y-127010000D03*
X36810000Y-127010000D03*
%TD*%
D14*
%TO.C,U2*%
X58415000Y-130820000D03*
D15*
X55875000Y-130820000D03*
X53335000Y-130820000D03*
X50795000Y-130820000D03*
X48255000Y-130820000D03*
X45715000Y-130820000D03*
X43175000Y-130820000D03*
X40635000Y-130820000D03*
X38095000Y-130820000D03*
X35555000Y-130820000D03*
X35555000Y-138440000D03*
X38095000Y-138440000D03*
X40635000Y-138440000D03*
X43175000Y-138440000D03*
X45715000Y-138440000D03*
X48255000Y-138440000D03*
X50795000Y-138440000D03*
X53335000Y-138440000D03*
X55875000Y-138440000D03*
X58415000Y-138440000D03*
%TD*%
D14*
%TO.C,D9*%
X63500000Y-158750000D03*
D15*
X63500000Y-151130000D03*
%TD*%
D14*
%TO.C,D15*%
X99060000Y-158750000D03*
D15*
X99060000Y-151130000D03*
%TD*%
D19*
%TO.C,SCK2*%
X56065000Y-170879669D03*
X81065000Y-170879669D03*
D14*
X72880000Y-169459669D03*
D16*
X70590000Y-169459669D03*
X68300000Y-169459669D03*
X66010000Y-169459669D03*
X63720000Y-169459669D03*
X74025000Y-171439669D03*
X71735000Y-171439669D03*
X69445000Y-171439669D03*
X67155000Y-171439669D03*
X64865000Y-171439669D03*
X72880000Y-173419669D03*
X70590000Y-173419669D03*
X68300000Y-173419669D03*
X66010000Y-173419669D03*
X63720000Y-173419669D03*
%TD*%
D14*
%TO.C,D10*%
X66040000Y-158750000D03*
D15*
X66040000Y-151130000D03*
%TD*%
D14*
%TO.C,D19*%
X109220000Y-158750000D03*
D15*
X109220000Y-151130000D03*
%TD*%
D19*
%TO.C,SCK3*%
X89085000Y-170879669D03*
X114085000Y-170879669D03*
D14*
X105900000Y-169459669D03*
D16*
X103610000Y-169459669D03*
X101320000Y-169459669D03*
X99030000Y-169459669D03*
X96740000Y-169459669D03*
X107045000Y-171439669D03*
X104755000Y-171439669D03*
X102465000Y-171439669D03*
X100175000Y-171439669D03*
X97885000Y-171439669D03*
X105900000Y-173419669D03*
X103610000Y-173419669D03*
X101320000Y-173419669D03*
X99030000Y-173419669D03*
X96740000Y-173419669D03*
%TD*%
D14*
%TO.C,D21*%
X127000000Y-158750000D03*
D15*
X127000000Y-151130000D03*
%TD*%
D12*
%TO.C,R2*%
X142240000Y-147320000D03*
D13*
X142240000Y-144780000D03*
%TD*%
D14*
%TO.C,D4*%
X33020000Y-158750000D03*
D15*
X33020000Y-151130000D03*
%TD*%
D14*
%TO.C,D8*%
X60960000Y-158750000D03*
D15*
X60960000Y-151130000D03*
%TD*%
D14*
%TO.C,D17*%
X101600000Y-158750000D03*
D15*
X101600000Y-151130000D03*
%TD*%
D14*
%TO.C,D24*%
X134620000Y-158750000D03*
D15*
X134620000Y-151130000D03*
%TD*%
D14*
%TO.C,D14*%
X96520000Y-158750000D03*
D15*
X96520000Y-151130000D03*
%TD*%
D16*
%TO.C,C1*%
X139700000Y-138390000D03*
X139700000Y-133390000D03*
%TD*%
D12*
%TO.C,R3*%
X144780000Y-147320000D03*
D13*
X144780000Y-144780000D03*
%TD*%
D14*
%TO.C,U1*%
X104135000Y-146055000D03*
D15*
X106675000Y-146055000D03*
X109215000Y-146055000D03*
X111755000Y-146055000D03*
X114295000Y-146055000D03*
X116835000Y-146055000D03*
X119375000Y-146055000D03*
X121915000Y-146055000D03*
X124455000Y-146055000D03*
X126995000Y-146055000D03*
X129535000Y-146055000D03*
X132075000Y-146055000D03*
X132075000Y-130815000D03*
X129535000Y-130815000D03*
X126995000Y-130815000D03*
X124455000Y-130815000D03*
X121915000Y-130815000D03*
X119375000Y-130815000D03*
X116835000Y-130815000D03*
X114295000Y-130815000D03*
X111755000Y-130815000D03*
X109215000Y-130815000D03*
X106675000Y-130815000D03*
X104135000Y-130815000D03*
%TD*%
D14*
%TO.C,D1*%
X43180000Y-158750000D03*
D15*
X43180000Y-151130000D03*
%TD*%
D14*
%TO.C,D23*%
X132080000Y-158750000D03*
D15*
X132080000Y-151130000D03*
%TD*%
D19*
%TO.C,SCK4*%
X147105000Y-170879669D03*
X122105000Y-170879669D03*
D14*
X138920000Y-169459669D03*
D16*
X136630000Y-169459669D03*
X134340000Y-169459669D03*
X132050000Y-169459669D03*
X129760000Y-169459669D03*
X140065000Y-171439669D03*
X137775000Y-171439669D03*
X135485000Y-171439669D03*
X133195000Y-171439669D03*
X130905000Y-171439669D03*
X138920000Y-173419669D03*
X136630000Y-173419669D03*
X134340000Y-173419669D03*
X132050000Y-173419669D03*
X129760000Y-173419669D03*
%TD*%
D14*
%TO.C,D25*%
X139140000Y-158750000D03*
D15*
X139140000Y-151130000D03*
%TD*%
D14*
%TO.C,D18*%
X104140000Y-158750000D03*
D15*
X104140000Y-151130000D03*
%TD*%
D14*
%TO.C,D7*%
X58420000Y-158750000D03*
D15*
X58420000Y-151130000D03*
%TD*%
D12*
%TO.C,R6*%
X148590000Y-142240000D03*
D13*
X146050000Y-142240000D03*
%TD*%
D14*
%TO.C,D5*%
X30480000Y-158750000D03*
D15*
X30480000Y-151130000D03*
%TD*%
D14*
%TO.C,D6*%
X27940000Y-158750000D03*
D15*
X27940000Y-151130000D03*
%TD*%
D14*
%TO.C,D13*%
X93980000Y-158750000D03*
D15*
X93980000Y-151130000D03*
%TD*%
D19*
%TO.C,SCK1*%
X48045000Y-170879669D03*
X23045000Y-170879669D03*
D14*
X39860000Y-169459669D03*
D16*
X37570000Y-169459669D03*
X35280000Y-169459669D03*
X32990000Y-169459669D03*
X30700000Y-169459669D03*
X41005000Y-171439669D03*
X38715000Y-171439669D03*
X36425000Y-171439669D03*
X34135000Y-171439669D03*
X31845000Y-171439669D03*
X39860000Y-173419669D03*
X37570000Y-173419669D03*
X35280000Y-173419669D03*
X32990000Y-173419669D03*
X30700000Y-173419669D03*
%TD*%
D12*
%TO.C,R1*%
X139700000Y-147320000D03*
D13*
X139700000Y-144780000D03*
%TD*%
M02*
