%TF.GenerationSoftware,KiCad,Pcbnew,(6.0.0)*%
%TF.CreationDate,2022-03-13T17:54:28-04:00*%
%TF.ProjectId,jaguar controller lower pcb,6a616775-6172-4206-936f-6e74726f6c6c,rev?*%
%TF.SameCoordinates,Original*%
%TF.FileFunction,Legend,Bot*%
%TF.FilePolarity,Positive*%
%FSLAX46Y46*%
G04 Gerber Fmt 4.6, Leading zero omitted, Abs format (unit mm)*
G04 Created by KiCad (PCBNEW (6.0.0)) date 2022-03-13 17:54:28*
%MOMM*%
%LPD*%
G01*
G04 APERTURE LIST*
%ADD10C,0.150000*%
%ADD11C,0.120000*%
%ADD12C,1.600000*%
%ADD13O,1.600000X1.600000*%
%ADD14R,1.600000X1.600000*%
%ADD15R,1.700000X1.700000*%
%ADD16O,1.700000X1.700000*%
%ADD17R,1.350000X1.350000*%
%ADD18O,1.350000X1.350000*%
G04 APERTURE END LIST*
D10*
X115371000Y-70378580D02*
X115371000Y-69378580D01*
X115037666Y-70092866D01*
X114704333Y-69378580D01*
X114704333Y-70378580D01*
X114037666Y-69378580D02*
X113847190Y-69378580D01*
X113751952Y-69426200D01*
X113656714Y-69521438D01*
X113609095Y-69711914D01*
X113609095Y-70045247D01*
X113656714Y-70235723D01*
X113751952Y-70330961D01*
X113847190Y-70378580D01*
X114037666Y-70378580D01*
X114132904Y-70330961D01*
X114228142Y-70235723D01*
X114275761Y-70045247D01*
X114275761Y-69711914D01*
X114228142Y-69521438D01*
X114132904Y-69426200D01*
X114037666Y-69378580D01*
X113180523Y-70378580D02*
X113180523Y-69378580D01*
X112942428Y-69378580D01*
X112799571Y-69426200D01*
X112704333Y-69521438D01*
X112656714Y-69616676D01*
X112609095Y-69807152D01*
X112609095Y-69950009D01*
X112656714Y-70140485D01*
X112704333Y-70235723D01*
X112799571Y-70330961D01*
X112942428Y-70378580D01*
X113180523Y-70378580D01*
X112180523Y-69854771D02*
X111847190Y-69854771D01*
X111704333Y-70378580D02*
X112180523Y-70378580D01*
X112180523Y-69378580D01*
X111704333Y-69378580D01*
X110799571Y-70378580D02*
X111275761Y-70378580D01*
X111275761Y-69378580D01*
X109799571Y-69378580D02*
X109180523Y-69378580D01*
X109513857Y-69759533D01*
X109371000Y-69759533D01*
X109275761Y-69807152D01*
X109228142Y-69854771D01*
X109180523Y-69950009D01*
X109180523Y-70188104D01*
X109228142Y-70283342D01*
X109275761Y-70330961D01*
X109371000Y-70378580D01*
X109656714Y-70378580D01*
X109751952Y-70330961D01*
X109799571Y-70283342D01*
X108847190Y-69378580D02*
X108228142Y-69378580D01*
X108561476Y-69759533D01*
X108418619Y-69759533D01*
X108323380Y-69807152D01*
X108275761Y-69854771D01*
X108228142Y-69950009D01*
X108228142Y-70188104D01*
X108275761Y-70283342D01*
X108323380Y-70330961D01*
X108418619Y-70378580D01*
X108704333Y-70378580D01*
X108799571Y-70330961D01*
X108847190Y-70283342D01*
X107609095Y-69378580D02*
X107513857Y-69378580D01*
X107418619Y-69426200D01*
X107371000Y-69473819D01*
X107323380Y-69569057D01*
X107275761Y-69759533D01*
X107275761Y-69997628D01*
X107323380Y-70188104D01*
X107371000Y-70283342D01*
X107418619Y-70330961D01*
X107513857Y-70378580D01*
X107609095Y-70378580D01*
X107704333Y-70330961D01*
X107751952Y-70283342D01*
X107799571Y-70188104D01*
X107847190Y-69997628D01*
X107847190Y-69759533D01*
X107799571Y-69569057D01*
X107751952Y-69473819D01*
X107704333Y-69426200D01*
X107609095Y-69378580D01*
X106942428Y-69378580D02*
X106323380Y-69378580D01*
X106656714Y-69759533D01*
X106513857Y-69759533D01*
X106418619Y-69807152D01*
X106371000Y-69854771D01*
X106323380Y-69950009D01*
X106323380Y-70188104D01*
X106371000Y-70283342D01*
X106418619Y-70330961D01*
X106513857Y-70378580D01*
X106799571Y-70378580D01*
X106894809Y-70330961D01*
X106942428Y-70283342D01*
X102139238Y-69473819D02*
X102091619Y-69426200D01*
X101996380Y-69378580D01*
X101758285Y-69378580D01*
X101663047Y-69426200D01*
X101615428Y-69473819D01*
X101567809Y-69569057D01*
X101567809Y-69664295D01*
X101615428Y-69807152D01*
X102186857Y-70378580D01*
X101567809Y-70378580D01*
X100948761Y-69378580D02*
X100853523Y-69378580D01*
X100758285Y-69426200D01*
X100710666Y-69473819D01*
X100663047Y-69569057D01*
X100615428Y-69759533D01*
X100615428Y-69997628D01*
X100663047Y-70188104D01*
X100710666Y-70283342D01*
X100758285Y-70330961D01*
X100853523Y-70378580D01*
X100948761Y-70378580D01*
X101044000Y-70330961D01*
X101091619Y-70283342D01*
X101139238Y-70188104D01*
X101186857Y-69997628D01*
X101186857Y-69759533D01*
X101139238Y-69569057D01*
X101091619Y-69473819D01*
X101044000Y-69426200D01*
X100948761Y-69378580D01*
X100282095Y-69378580D02*
X99663047Y-69378580D01*
X99996380Y-69759533D01*
X99853523Y-69759533D01*
X99758285Y-69807152D01*
X99710666Y-69854771D01*
X99663047Y-69950009D01*
X99663047Y-70188104D01*
X99710666Y-70283342D01*
X99758285Y-70330961D01*
X99853523Y-70378580D01*
X100139238Y-70378580D01*
X100234476Y-70330961D01*
X100282095Y-70283342D01*
X99044000Y-69378580D02*
X98948761Y-69378580D01*
X98853523Y-69426200D01*
X98805904Y-69473819D01*
X98758285Y-69569057D01*
X98710666Y-69759533D01*
X98710666Y-69997628D01*
X98758285Y-70188104D01*
X98805904Y-70283342D01*
X98853523Y-70330961D01*
X98948761Y-70378580D01*
X99044000Y-70378580D01*
X99139238Y-70330961D01*
X99186857Y-70283342D01*
X99234476Y-70188104D01*
X99282095Y-69997628D01*
X99282095Y-69759533D01*
X99234476Y-69569057D01*
X99186857Y-69473819D01*
X99139238Y-69426200D01*
X99044000Y-69378580D01*
X98377333Y-69378580D02*
X97758285Y-69378580D01*
X98091619Y-69759533D01*
X97948761Y-69759533D01*
X97853523Y-69807152D01*
X97805904Y-69854771D01*
X97758285Y-69950009D01*
X97758285Y-70188104D01*
X97805904Y-70283342D01*
X97853523Y-70330961D01*
X97948761Y-70378580D01*
X98234476Y-70378580D01*
X98329714Y-70330961D01*
X98377333Y-70283342D01*
X97424952Y-69378580D02*
X96805904Y-69378580D01*
X97139238Y-69759533D01*
X96996380Y-69759533D01*
X96901142Y-69807152D01*
X96853523Y-69854771D01*
X96805904Y-69950009D01*
X96805904Y-70188104D01*
X96853523Y-70283342D01*
X96901142Y-70330961D01*
X96996380Y-70378580D01*
X97282095Y-70378580D01*
X97377333Y-70330961D01*
X97424952Y-70283342D01*
X95853523Y-70378580D02*
X96424952Y-70378580D01*
X96139238Y-70378580D02*
X96139238Y-69378580D01*
X96234476Y-69521438D01*
X96329714Y-69616676D01*
X96424952Y-69664295D01*
X94901142Y-70378580D02*
X95472571Y-70378580D01*
X95186857Y-70378580D02*
X95186857Y-69378580D01*
X95282095Y-69521438D01*
X95377333Y-69616676D01*
X95472571Y-69664295D01*
X94282095Y-69378580D02*
X94186857Y-69378580D01*
X94091619Y-69426200D01*
X94044000Y-69473819D01*
X93996380Y-69569057D01*
X93948761Y-69759533D01*
X93948761Y-69997628D01*
X93996380Y-70188104D01*
X94044000Y-70283342D01*
X94091619Y-70330961D01*
X94186857Y-70378580D01*
X94282095Y-70378580D01*
X94377333Y-70330961D01*
X94424952Y-70283342D01*
X94472571Y-70188104D01*
X94520190Y-69997628D01*
X94520190Y-69759533D01*
X94472571Y-69569057D01*
X94424952Y-69473819D01*
X94377333Y-69426200D01*
X94282095Y-69378580D01*
%TO.C,SW10*%
X173578333Y-82352380D02*
X172959285Y-82352380D01*
X173292619Y-82733333D01*
X173149761Y-82733333D01*
X173054523Y-82780952D01*
X173006904Y-82828571D01*
X172959285Y-82923809D01*
X172959285Y-83161904D01*
X173006904Y-83257142D01*
X173054523Y-83304761D01*
X173149761Y-83352380D01*
X173435476Y-83352380D01*
X173530714Y-83304761D01*
X173578333Y-83257142D01*
%TO.C,SW12*%
X173554523Y-121290714D02*
X172840238Y-121290714D01*
X173268809Y-120862142D02*
X173554523Y-122147857D01*
X172935476Y-121719285D02*
X173649761Y-121719285D01*
X173221190Y-122147857D02*
X172935476Y-120862142D01*
%TO.C,SW5*%
X153321904Y-95687380D02*
X153798095Y-95687380D01*
X153845714Y-96163571D01*
X153798095Y-96115952D01*
X153702857Y-96068333D01*
X153464761Y-96068333D01*
X153369523Y-96115952D01*
X153321904Y-96163571D01*
X153274285Y-96258809D01*
X153274285Y-96496904D01*
X153321904Y-96592142D01*
X153369523Y-96639761D01*
X153464761Y-96687380D01*
X153702857Y-96687380D01*
X153798095Y-96639761D01*
X153845714Y-96592142D01*
%TO.C,SW2*%
X133049523Y-96020714D02*
X133049523Y-96687380D01*
X133287619Y-95639761D02*
X133525714Y-96354047D01*
X132906666Y-96354047D01*
%TO.C,SW1*%
X132954285Y-83352380D02*
X133525714Y-83352380D01*
X133240000Y-83352380D02*
X133240000Y-82352380D01*
X133335238Y-82495238D01*
X133430476Y-82590476D01*
X133525714Y-82638095D01*
%TO.C,SW9*%
X173054523Y-95337380D02*
X173245000Y-95337380D01*
X173340238Y-95385000D01*
X173387857Y-95432619D01*
X173483095Y-95575476D01*
X173530714Y-95765952D01*
X173530714Y-96146904D01*
X173483095Y-96242142D01*
X173435476Y-96289761D01*
X173340238Y-96337380D01*
X173149761Y-96337380D01*
X173054523Y-96289761D01*
X173006904Y-96242142D01*
X172959285Y-96146904D01*
X172959285Y-95908809D01*
X173006904Y-95813571D01*
X173054523Y-95765952D01*
X173149761Y-95718333D01*
X173340238Y-95718333D01*
X173435476Y-95765952D01*
X173483095Y-95813571D01*
X173530714Y-95908809D01*
%TO.C,SW6*%
X153210714Y-82447619D02*
X153163095Y-82400000D01*
X153067857Y-82352380D01*
X152829761Y-82352380D01*
X152734523Y-82400000D01*
X152686904Y-82447619D01*
X152639285Y-82542857D01*
X152639285Y-82638095D01*
X152686904Y-82780952D01*
X153258333Y-83352380D01*
X152639285Y-83352380D01*
%TO.C,SW3*%
X133573333Y-108387380D02*
X132906666Y-108387380D01*
X133335238Y-109387380D01*
%TO.C,SW8*%
X153607619Y-121087380D02*
X153512380Y-121087380D01*
X153417142Y-121135000D01*
X153369523Y-121182619D01*
X153321904Y-121277857D01*
X153274285Y-121468333D01*
X153274285Y-121706428D01*
X153321904Y-121896904D01*
X153369523Y-121992142D01*
X153417142Y-122039761D01*
X153512380Y-122087380D01*
X153607619Y-122087380D01*
X153702857Y-122039761D01*
X153750476Y-121992142D01*
X153798095Y-121896904D01*
X153845714Y-121706428D01*
X153845714Y-121468333D01*
X153798095Y-121277857D01*
X153750476Y-121182619D01*
X153702857Y-121135000D01*
X153607619Y-121087380D01*
%TO.C,SW4*%
X133240000Y-121087380D02*
X133240000Y-121325476D01*
X133478095Y-121230238D02*
X133240000Y-121325476D01*
X133001904Y-121230238D01*
X133382857Y-121515952D02*
X133240000Y-121325476D01*
X133097142Y-121515952D01*
%TO.C,SW7*%
X153655238Y-108465952D02*
X153750476Y-108418333D01*
X153798095Y-108370714D01*
X153845714Y-108275476D01*
X153845714Y-108227857D01*
X153798095Y-108132619D01*
X153750476Y-108085000D01*
X153655238Y-108037380D01*
X153464761Y-108037380D01*
X153369523Y-108085000D01*
X153321904Y-108132619D01*
X153274285Y-108227857D01*
X153274285Y-108275476D01*
X153321904Y-108370714D01*
X153369523Y-108418333D01*
X153464761Y-108465952D01*
X153655238Y-108465952D01*
X153750476Y-108513571D01*
X153798095Y-108561190D01*
X153845714Y-108656428D01*
X153845714Y-108846904D01*
X153798095Y-108942142D01*
X153750476Y-108989761D01*
X153655238Y-109037380D01*
X153464761Y-109037380D01*
X153369523Y-108989761D01*
X153321904Y-108942142D01*
X153274285Y-108846904D01*
X153274285Y-108656428D01*
X153321904Y-108561190D01*
X153369523Y-108513571D01*
X153464761Y-108465952D01*
%TO.C,SW11*%
X173435476Y-109037380D02*
X173245000Y-109037380D01*
X173149761Y-108989761D01*
X173102142Y-108942142D01*
X173006904Y-108799285D01*
X172959285Y-108608809D01*
X172959285Y-108227857D01*
X173006904Y-108132619D01*
X173054523Y-108085000D01*
X173149761Y-108037380D01*
X173340238Y-108037380D01*
X173435476Y-108085000D01*
X173483095Y-108132619D01*
X173530714Y-108227857D01*
X173530714Y-108465952D01*
X173483095Y-108561190D01*
X173435476Y-108608809D01*
X173340238Y-108656428D01*
X173149761Y-108656428D01*
X173054523Y-108608809D01*
X173006904Y-108561190D01*
X172959285Y-108465952D01*
%TO.C,R5*%
X91147380Y-116388333D02*
X90671190Y-116055000D01*
X91147380Y-115816904D02*
X90147380Y-115816904D01*
X90147380Y-116197857D01*
X90195000Y-116293095D01*
X90242619Y-116340714D01*
X90337857Y-116388333D01*
X90480714Y-116388333D01*
X90575952Y-116340714D01*
X90623571Y-116293095D01*
X90671190Y-116197857D01*
X90671190Y-115816904D01*
X90147380Y-117293095D02*
X90147380Y-116816904D01*
X90623571Y-116769285D01*
X90575952Y-116816904D01*
X90528333Y-116912142D01*
X90528333Y-117150238D01*
X90575952Y-117245476D01*
X90623571Y-117293095D01*
X90718809Y-117340714D01*
X90956904Y-117340714D01*
X91052142Y-117293095D01*
X91099761Y-117245476D01*
X91147380Y-117150238D01*
X91147380Y-116912142D01*
X91099761Y-116816904D01*
X91052142Y-116769285D01*
%TO.C,D11*%
X213829285Y-103037380D02*
X213829285Y-102037380D01*
X213591190Y-102037380D01*
X213448333Y-102085000D01*
X213353095Y-102180238D01*
X213305476Y-102275476D01*
X213257857Y-102465952D01*
X213257857Y-102608809D01*
X213305476Y-102799285D01*
X213353095Y-102894523D01*
X213448333Y-102989761D01*
X213591190Y-103037380D01*
X213829285Y-103037380D01*
X212305476Y-103037380D02*
X212876904Y-103037380D01*
X212591190Y-103037380D02*
X212591190Y-102037380D01*
X212686428Y-102180238D01*
X212781666Y-102275476D01*
X212876904Y-102323095D01*
X211353095Y-103037380D02*
X211924523Y-103037380D01*
X211638809Y-103037380D02*
X211638809Y-102037380D01*
X211734047Y-102180238D01*
X211829285Y-102275476D01*
X211924523Y-102323095D01*
%TO.C,R3*%
X101417380Y-104608333D02*
X100941190Y-104275000D01*
X101417380Y-104036904D02*
X100417380Y-104036904D01*
X100417380Y-104417857D01*
X100465000Y-104513095D01*
X100512619Y-104560714D01*
X100607857Y-104608333D01*
X100750714Y-104608333D01*
X100845952Y-104560714D01*
X100893571Y-104513095D01*
X100941190Y-104417857D01*
X100941190Y-104036904D01*
X100417380Y-104941666D02*
X100417380Y-105560714D01*
X100798333Y-105227380D01*
X100798333Y-105370238D01*
X100845952Y-105465476D01*
X100893571Y-105513095D01*
X100988809Y-105560714D01*
X101226904Y-105560714D01*
X101322142Y-105513095D01*
X101369761Y-105465476D01*
X101417380Y-105370238D01*
X101417380Y-105084523D01*
X101369761Y-104989285D01*
X101322142Y-104941666D01*
%TO.C,D15*%
X202907380Y-73430714D02*
X201907380Y-73430714D01*
X201907380Y-73668809D01*
X201955000Y-73811666D01*
X202050238Y-73906904D01*
X202145476Y-73954523D01*
X202335952Y-74002142D01*
X202478809Y-74002142D01*
X202669285Y-73954523D01*
X202764523Y-73906904D01*
X202859761Y-73811666D01*
X202907380Y-73668809D01*
X202907380Y-73430714D01*
X202907380Y-74954523D02*
X202907380Y-74383095D01*
X202907380Y-74668809D02*
X201907380Y-74668809D01*
X202050238Y-74573571D01*
X202145476Y-74478333D01*
X202193095Y-74383095D01*
X201907380Y-75859285D02*
X201907380Y-75383095D01*
X202383571Y-75335476D01*
X202335952Y-75383095D01*
X202288333Y-75478333D01*
X202288333Y-75716428D01*
X202335952Y-75811666D01*
X202383571Y-75859285D01*
X202478809Y-75906904D01*
X202716904Y-75906904D01*
X202812142Y-75859285D01*
X202859761Y-75811666D01*
X202907380Y-75716428D01*
X202907380Y-75478333D01*
X202859761Y-75383095D01*
X202812142Y-75335476D01*
%TO.C,D2*%
X124453095Y-82717380D02*
X124453095Y-81717380D01*
X124215000Y-81717380D01*
X124072142Y-81765000D01*
X123976904Y-81860238D01*
X123929285Y-81955476D01*
X123881666Y-82145952D01*
X123881666Y-82288809D01*
X123929285Y-82479285D01*
X123976904Y-82574523D01*
X124072142Y-82669761D01*
X124215000Y-82717380D01*
X124453095Y-82717380D01*
X123500714Y-81812619D02*
X123453095Y-81765000D01*
X123357857Y-81717380D01*
X123119761Y-81717380D01*
X123024523Y-81765000D01*
X122976904Y-81812619D01*
X122929285Y-81907857D01*
X122929285Y-82003095D01*
X122976904Y-82145952D01*
X123548333Y-82717380D01*
X122929285Y-82717380D01*
%TO.C,R4*%
X109562380Y-86543333D02*
X109086190Y-86210000D01*
X109562380Y-85971904D02*
X108562380Y-85971904D01*
X108562380Y-86352857D01*
X108610000Y-86448095D01*
X108657619Y-86495714D01*
X108752857Y-86543333D01*
X108895714Y-86543333D01*
X108990952Y-86495714D01*
X109038571Y-86448095D01*
X109086190Y-86352857D01*
X109086190Y-85971904D01*
X108895714Y-87400476D02*
X109562380Y-87400476D01*
X108514761Y-87162380D02*
X109229047Y-86924285D01*
X109229047Y-87543333D01*
%TO.C,J2*%
X86108333Y-76637380D02*
X86108333Y-77351666D01*
X86155952Y-77494523D01*
X86251190Y-77589761D01*
X86394047Y-77637380D01*
X86489285Y-77637380D01*
X85679761Y-76732619D02*
X85632142Y-76685000D01*
X85536904Y-76637380D01*
X85298809Y-76637380D01*
X85203571Y-76685000D01*
X85155952Y-76732619D01*
X85108333Y-76827857D01*
X85108333Y-76923095D01*
X85155952Y-77065952D01*
X85727380Y-77637380D01*
X85108333Y-77637380D01*
%TO.C,D9*%
X124453095Y-110657380D02*
X124453095Y-109657380D01*
X124215000Y-109657380D01*
X124072142Y-109705000D01*
X123976904Y-109800238D01*
X123929285Y-109895476D01*
X123881666Y-110085952D01*
X123881666Y-110228809D01*
X123929285Y-110419285D01*
X123976904Y-110514523D01*
X124072142Y-110609761D01*
X124215000Y-110657380D01*
X124453095Y-110657380D01*
X123405476Y-110657380D02*
X123215000Y-110657380D01*
X123119761Y-110609761D01*
X123072142Y-110562142D01*
X122976904Y-110419285D01*
X122929285Y-110228809D01*
X122929285Y-109847857D01*
X122976904Y-109752619D01*
X123024523Y-109705000D01*
X123119761Y-109657380D01*
X123310238Y-109657380D01*
X123405476Y-109705000D01*
X123453095Y-109752619D01*
X123500714Y-109847857D01*
X123500714Y-110085952D01*
X123453095Y-110181190D01*
X123405476Y-110228809D01*
X123310238Y-110276428D01*
X123119761Y-110276428D01*
X123024523Y-110228809D01*
X122976904Y-110181190D01*
X122929285Y-110085952D01*
%TO.C,R1*%
X101307380Y-85908333D02*
X100831190Y-85575000D01*
X101307380Y-85336904D02*
X100307380Y-85336904D01*
X100307380Y-85717857D01*
X100355000Y-85813095D01*
X100402619Y-85860714D01*
X100497857Y-85908333D01*
X100640714Y-85908333D01*
X100735952Y-85860714D01*
X100783571Y-85813095D01*
X100831190Y-85717857D01*
X100831190Y-85336904D01*
X101307380Y-86860714D02*
X101307380Y-86289285D01*
X101307380Y-86575000D02*
X100307380Y-86575000D01*
X100450238Y-86479761D01*
X100545476Y-86384523D01*
X100593095Y-86289285D01*
%TO.C,D1*%
X124453095Y-80177380D02*
X124453095Y-79177380D01*
X124215000Y-79177380D01*
X124072142Y-79225000D01*
X123976904Y-79320238D01*
X123929285Y-79415476D01*
X123881666Y-79605952D01*
X123881666Y-79748809D01*
X123929285Y-79939285D01*
X123976904Y-80034523D01*
X124072142Y-80129761D01*
X124215000Y-80177380D01*
X124453095Y-80177380D01*
X122929285Y-80177380D02*
X123500714Y-80177380D01*
X123215000Y-80177380D02*
X123215000Y-79177380D01*
X123310238Y-79320238D01*
X123405476Y-79415476D01*
X123500714Y-79463095D01*
%TO.C,D14*%
X192747380Y-69620714D02*
X191747380Y-69620714D01*
X191747380Y-69858809D01*
X191795000Y-70001666D01*
X191890238Y-70096904D01*
X191985476Y-70144523D01*
X192175952Y-70192142D01*
X192318809Y-70192142D01*
X192509285Y-70144523D01*
X192604523Y-70096904D01*
X192699761Y-70001666D01*
X192747380Y-69858809D01*
X192747380Y-69620714D01*
X192747380Y-71144523D02*
X192747380Y-70573095D01*
X192747380Y-70858809D02*
X191747380Y-70858809D01*
X191890238Y-70763571D01*
X191985476Y-70668333D01*
X192033095Y-70573095D01*
X192080714Y-72001666D02*
X192747380Y-72001666D01*
X191699761Y-71763571D02*
X192414047Y-71525476D01*
X192414047Y-72144523D01*
%TO.C,D12*%
X216369285Y-105577380D02*
X216369285Y-104577380D01*
X216131190Y-104577380D01*
X215988333Y-104625000D01*
X215893095Y-104720238D01*
X215845476Y-104815476D01*
X215797857Y-105005952D01*
X215797857Y-105148809D01*
X215845476Y-105339285D01*
X215893095Y-105434523D01*
X215988333Y-105529761D01*
X216131190Y-105577380D01*
X216369285Y-105577380D01*
X214845476Y-105577380D02*
X215416904Y-105577380D01*
X215131190Y-105577380D02*
X215131190Y-104577380D01*
X215226428Y-104720238D01*
X215321666Y-104815476D01*
X215416904Y-104863095D01*
X214464523Y-104672619D02*
X214416904Y-104625000D01*
X214321666Y-104577380D01*
X214083571Y-104577380D01*
X213988333Y-104625000D01*
X213940714Y-104672619D01*
X213893095Y-104767857D01*
X213893095Y-104863095D01*
X213940714Y-105005952D01*
X214512142Y-105577380D01*
X213893095Y-105577380D01*
%TO.C,D10*%
X124929285Y-123357380D02*
X124929285Y-122357380D01*
X124691190Y-122357380D01*
X124548333Y-122405000D01*
X124453095Y-122500238D01*
X124405476Y-122595476D01*
X124357857Y-122785952D01*
X124357857Y-122928809D01*
X124405476Y-123119285D01*
X124453095Y-123214523D01*
X124548333Y-123309761D01*
X124691190Y-123357380D01*
X124929285Y-123357380D01*
X123405476Y-123357380D02*
X123976904Y-123357380D01*
X123691190Y-123357380D02*
X123691190Y-122357380D01*
X123786428Y-122500238D01*
X123881666Y-122595476D01*
X123976904Y-122643095D01*
X122786428Y-122357380D02*
X122691190Y-122357380D01*
X122595952Y-122405000D01*
X122548333Y-122452619D01*
X122500714Y-122547857D01*
X122453095Y-122738333D01*
X122453095Y-122976428D01*
X122500714Y-123166904D01*
X122548333Y-123262142D01*
X122595952Y-123309761D01*
X122691190Y-123357380D01*
X122786428Y-123357380D01*
X122881666Y-123309761D01*
X122929285Y-123262142D01*
X122976904Y-123166904D01*
X123024523Y-122976428D01*
X123024523Y-122738333D01*
X122976904Y-122547857D01*
X122929285Y-122452619D01*
X122881666Y-122405000D01*
X122786428Y-122357380D01*
%TO.C,D17*%
X213067380Y-73430714D02*
X212067380Y-73430714D01*
X212067380Y-73668809D01*
X212115000Y-73811666D01*
X212210238Y-73906904D01*
X212305476Y-73954523D01*
X212495952Y-74002142D01*
X212638809Y-74002142D01*
X212829285Y-73954523D01*
X212924523Y-73906904D01*
X213019761Y-73811666D01*
X213067380Y-73668809D01*
X213067380Y-73430714D01*
X213067380Y-74954523D02*
X213067380Y-74383095D01*
X213067380Y-74668809D02*
X212067380Y-74668809D01*
X212210238Y-74573571D01*
X212305476Y-74478333D01*
X212353095Y-74383095D01*
X212067380Y-75287857D02*
X212067380Y-75954523D01*
X213067380Y-75525952D01*
%TO.C,D13*%
X216369285Y-100497380D02*
X216369285Y-99497380D01*
X216131190Y-99497380D01*
X215988333Y-99545000D01*
X215893095Y-99640238D01*
X215845476Y-99735476D01*
X215797857Y-99925952D01*
X215797857Y-100068809D01*
X215845476Y-100259285D01*
X215893095Y-100354523D01*
X215988333Y-100449761D01*
X216131190Y-100497380D01*
X216369285Y-100497380D01*
X214845476Y-100497380D02*
X215416904Y-100497380D01*
X215131190Y-100497380D02*
X215131190Y-99497380D01*
X215226428Y-99640238D01*
X215321666Y-99735476D01*
X215416904Y-99783095D01*
X214512142Y-99497380D02*
X213893095Y-99497380D01*
X214226428Y-99878333D01*
X214083571Y-99878333D01*
X213988333Y-99925952D01*
X213940714Y-99973571D01*
X213893095Y-100068809D01*
X213893095Y-100306904D01*
X213940714Y-100402142D01*
X213988333Y-100449761D01*
X214083571Y-100497380D01*
X214369285Y-100497380D01*
X214464523Y-100449761D01*
X214512142Y-100402142D01*
%TO.C,D5*%
X124453095Y-95417380D02*
X124453095Y-94417380D01*
X124215000Y-94417380D01*
X124072142Y-94465000D01*
X123976904Y-94560238D01*
X123929285Y-94655476D01*
X123881666Y-94845952D01*
X123881666Y-94988809D01*
X123929285Y-95179285D01*
X123976904Y-95274523D01*
X124072142Y-95369761D01*
X124215000Y-95417380D01*
X124453095Y-95417380D01*
X122976904Y-94417380D02*
X123453095Y-94417380D01*
X123500714Y-94893571D01*
X123453095Y-94845952D01*
X123357857Y-94798333D01*
X123119761Y-94798333D01*
X123024523Y-94845952D01*
X122976904Y-94893571D01*
X122929285Y-94988809D01*
X122929285Y-95226904D01*
X122976904Y-95322142D01*
X123024523Y-95369761D01*
X123119761Y-95417380D01*
X123357857Y-95417380D01*
X123453095Y-95369761D01*
X123500714Y-95322142D01*
%TO.C,D6*%
X124453095Y-92877380D02*
X124453095Y-91877380D01*
X124215000Y-91877380D01*
X124072142Y-91925000D01*
X123976904Y-92020238D01*
X123929285Y-92115476D01*
X123881666Y-92305952D01*
X123881666Y-92448809D01*
X123929285Y-92639285D01*
X123976904Y-92734523D01*
X124072142Y-92829761D01*
X124215000Y-92877380D01*
X124453095Y-92877380D01*
X123024523Y-91877380D02*
X123215000Y-91877380D01*
X123310238Y-91925000D01*
X123357857Y-91972619D01*
X123453095Y-92115476D01*
X123500714Y-92305952D01*
X123500714Y-92686904D01*
X123453095Y-92782142D01*
X123405476Y-92829761D01*
X123310238Y-92877380D01*
X123119761Y-92877380D01*
X123024523Y-92829761D01*
X122976904Y-92782142D01*
X122929285Y-92686904D01*
X122929285Y-92448809D01*
X122976904Y-92353571D01*
X123024523Y-92305952D01*
X123119761Y-92258333D01*
X123310238Y-92258333D01*
X123405476Y-92305952D01*
X123453095Y-92353571D01*
X123500714Y-92448809D01*
%TO.C,D4*%
X124453095Y-105577380D02*
X124453095Y-104577380D01*
X124215000Y-104577380D01*
X124072142Y-104625000D01*
X123976904Y-104720238D01*
X123929285Y-104815476D01*
X123881666Y-105005952D01*
X123881666Y-105148809D01*
X123929285Y-105339285D01*
X123976904Y-105434523D01*
X124072142Y-105529761D01*
X124215000Y-105577380D01*
X124453095Y-105577380D01*
X123024523Y-104910714D02*
X123024523Y-105577380D01*
X123262619Y-104529761D02*
X123500714Y-105244047D01*
X122881666Y-105244047D01*
%TO.C,D3*%
X124453095Y-85257380D02*
X124453095Y-84257380D01*
X124215000Y-84257380D01*
X124072142Y-84305000D01*
X123976904Y-84400238D01*
X123929285Y-84495476D01*
X123881666Y-84685952D01*
X123881666Y-84828809D01*
X123929285Y-85019285D01*
X123976904Y-85114523D01*
X124072142Y-85209761D01*
X124215000Y-85257380D01*
X124453095Y-85257380D01*
X123548333Y-84257380D02*
X122929285Y-84257380D01*
X123262619Y-84638333D01*
X123119761Y-84638333D01*
X123024523Y-84685952D01*
X122976904Y-84733571D01*
X122929285Y-84828809D01*
X122929285Y-85066904D01*
X122976904Y-85162142D01*
X123024523Y-85209761D01*
X123119761Y-85257380D01*
X123405476Y-85257380D01*
X123500714Y-85209761D01*
X123548333Y-85162142D01*
%TO.C,R2*%
X106333580Y-86543333D02*
X105857390Y-86210000D01*
X106333580Y-85971904D02*
X105333580Y-85971904D01*
X105333580Y-86352857D01*
X105381200Y-86448095D01*
X105428819Y-86495714D01*
X105524057Y-86543333D01*
X105666914Y-86543333D01*
X105762152Y-86495714D01*
X105809771Y-86448095D01*
X105857390Y-86352857D01*
X105857390Y-85971904D01*
X105428819Y-86924285D02*
X105381200Y-86971904D01*
X105333580Y-87067142D01*
X105333580Y-87305238D01*
X105381200Y-87400476D01*
X105428819Y-87448095D01*
X105524057Y-87495714D01*
X105619295Y-87495714D01*
X105762152Y-87448095D01*
X106333580Y-86876666D01*
X106333580Y-87495714D01*
%TO.C,D18*%
X124929285Y-120817380D02*
X124929285Y-119817380D01*
X124691190Y-119817380D01*
X124548333Y-119865000D01*
X124453095Y-119960238D01*
X124405476Y-120055476D01*
X124357857Y-120245952D01*
X124357857Y-120388809D01*
X124405476Y-120579285D01*
X124453095Y-120674523D01*
X124548333Y-120769761D01*
X124691190Y-120817380D01*
X124929285Y-120817380D01*
X123405476Y-120817380D02*
X123976904Y-120817380D01*
X123691190Y-120817380D02*
X123691190Y-119817380D01*
X123786428Y-119960238D01*
X123881666Y-120055476D01*
X123976904Y-120103095D01*
X122834047Y-120245952D02*
X122929285Y-120198333D01*
X122976904Y-120150714D01*
X123024523Y-120055476D01*
X123024523Y-120007857D01*
X122976904Y-119912619D01*
X122929285Y-119865000D01*
X122834047Y-119817380D01*
X122643571Y-119817380D01*
X122548333Y-119865000D01*
X122500714Y-119912619D01*
X122453095Y-120007857D01*
X122453095Y-120055476D01*
X122500714Y-120150714D01*
X122548333Y-120198333D01*
X122643571Y-120245952D01*
X122834047Y-120245952D01*
X122929285Y-120293571D01*
X122976904Y-120341190D01*
X123024523Y-120436428D01*
X123024523Y-120626904D01*
X122976904Y-120722142D01*
X122929285Y-120769761D01*
X122834047Y-120817380D01*
X122643571Y-120817380D01*
X122548333Y-120769761D01*
X122500714Y-120722142D01*
X122453095Y-120626904D01*
X122453095Y-120436428D01*
X122500714Y-120341190D01*
X122548333Y-120293571D01*
X122643571Y-120245952D01*
%TO.C,U1*%
X93971504Y-82841780D02*
X93971504Y-83651304D01*
X93923885Y-83746542D01*
X93876266Y-83794161D01*
X93781028Y-83841780D01*
X93590552Y-83841780D01*
X93495314Y-83794161D01*
X93447695Y-83746542D01*
X93400076Y-83651304D01*
X93400076Y-82841780D01*
X92400076Y-83841780D02*
X92971504Y-83841780D01*
X92685790Y-83841780D02*
X92685790Y-82841780D01*
X92781028Y-82984638D01*
X92876266Y-83079876D01*
X92971504Y-83127495D01*
%TO.C,D19*%
X124929285Y-125897380D02*
X124929285Y-124897380D01*
X124691190Y-124897380D01*
X124548333Y-124945000D01*
X124453095Y-125040238D01*
X124405476Y-125135476D01*
X124357857Y-125325952D01*
X124357857Y-125468809D01*
X124405476Y-125659285D01*
X124453095Y-125754523D01*
X124548333Y-125849761D01*
X124691190Y-125897380D01*
X124929285Y-125897380D01*
X123405476Y-125897380D02*
X123976904Y-125897380D01*
X123691190Y-125897380D02*
X123691190Y-124897380D01*
X123786428Y-125040238D01*
X123881666Y-125135476D01*
X123976904Y-125183095D01*
X122929285Y-125897380D02*
X122738809Y-125897380D01*
X122643571Y-125849761D01*
X122595952Y-125802142D01*
X122500714Y-125659285D01*
X122453095Y-125468809D01*
X122453095Y-125087857D01*
X122500714Y-124992619D01*
X122548333Y-124945000D01*
X122643571Y-124897380D01*
X122834047Y-124897380D01*
X122929285Y-124945000D01*
X122976904Y-124992619D01*
X123024523Y-125087857D01*
X123024523Y-125325952D01*
X122976904Y-125421190D01*
X122929285Y-125468809D01*
X122834047Y-125516428D01*
X122643571Y-125516428D01*
X122548333Y-125468809D01*
X122500714Y-125421190D01*
X122453095Y-125325952D01*
%TO.C,D8*%
X124453095Y-113197380D02*
X124453095Y-112197380D01*
X124215000Y-112197380D01*
X124072142Y-112245000D01*
X123976904Y-112340238D01*
X123929285Y-112435476D01*
X123881666Y-112625952D01*
X123881666Y-112768809D01*
X123929285Y-112959285D01*
X123976904Y-113054523D01*
X124072142Y-113149761D01*
X124215000Y-113197380D01*
X124453095Y-113197380D01*
X123310238Y-112625952D02*
X123405476Y-112578333D01*
X123453095Y-112530714D01*
X123500714Y-112435476D01*
X123500714Y-112387857D01*
X123453095Y-112292619D01*
X123405476Y-112245000D01*
X123310238Y-112197380D01*
X123119761Y-112197380D01*
X123024523Y-112245000D01*
X122976904Y-112292619D01*
X122929285Y-112387857D01*
X122929285Y-112435476D01*
X122976904Y-112530714D01*
X123024523Y-112578333D01*
X123119761Y-112625952D01*
X123310238Y-112625952D01*
X123405476Y-112673571D01*
X123453095Y-112721190D01*
X123500714Y-112816428D01*
X123500714Y-113006904D01*
X123453095Y-113102142D01*
X123405476Y-113149761D01*
X123310238Y-113197380D01*
X123119761Y-113197380D01*
X123024523Y-113149761D01*
X122976904Y-113102142D01*
X122929285Y-113006904D01*
X122929285Y-112816428D01*
X122976904Y-112721190D01*
X123024523Y-112673571D01*
X123119761Y-112625952D01*
%TO.C,D7*%
X124453095Y-115737380D02*
X124453095Y-114737380D01*
X124215000Y-114737380D01*
X124072142Y-114785000D01*
X123976904Y-114880238D01*
X123929285Y-114975476D01*
X123881666Y-115165952D01*
X123881666Y-115308809D01*
X123929285Y-115499285D01*
X123976904Y-115594523D01*
X124072142Y-115689761D01*
X124215000Y-115737380D01*
X124453095Y-115737380D01*
X123548333Y-114737380D02*
X122881666Y-114737380D01*
X123310238Y-115737380D01*
%TO.C,R6*%
X108292380Y-109984533D02*
X107816190Y-109651200D01*
X108292380Y-109413104D02*
X107292380Y-109413104D01*
X107292380Y-109794057D01*
X107340000Y-109889295D01*
X107387619Y-109936914D01*
X107482857Y-109984533D01*
X107625714Y-109984533D01*
X107720952Y-109936914D01*
X107768571Y-109889295D01*
X107816190Y-109794057D01*
X107816190Y-109413104D01*
X107292380Y-110841676D02*
X107292380Y-110651200D01*
X107340000Y-110555961D01*
X107387619Y-110508342D01*
X107530476Y-110413104D01*
X107720952Y-110365485D01*
X108101904Y-110365485D01*
X108197142Y-110413104D01*
X108244761Y-110460723D01*
X108292380Y-110555961D01*
X108292380Y-110746438D01*
X108244761Y-110841676D01*
X108197142Y-110889295D01*
X108101904Y-110936914D01*
X107863809Y-110936914D01*
X107768571Y-110889295D01*
X107720952Y-110841676D01*
X107673333Y-110746438D01*
X107673333Y-110555961D01*
X107720952Y-110460723D01*
X107768571Y-110413104D01*
X107863809Y-110365485D01*
%TO.C,J1*%
X134417380Y-73401666D02*
X135131666Y-73401666D01*
X135274523Y-73354047D01*
X135369761Y-73258809D01*
X135417380Y-73115952D01*
X135417380Y-73020714D01*
X135417380Y-74401666D02*
X135417380Y-73830238D01*
X135417380Y-74115952D02*
X134417380Y-74115952D01*
X134560238Y-74020714D01*
X134655476Y-73925476D01*
X134703095Y-73830238D01*
%TO.C,D16*%
X197827380Y-73430714D02*
X196827380Y-73430714D01*
X196827380Y-73668809D01*
X196875000Y-73811666D01*
X196970238Y-73906904D01*
X197065476Y-73954523D01*
X197255952Y-74002142D01*
X197398809Y-74002142D01*
X197589285Y-73954523D01*
X197684523Y-73906904D01*
X197779761Y-73811666D01*
X197827380Y-73668809D01*
X197827380Y-73430714D01*
X197827380Y-74954523D02*
X197827380Y-74383095D01*
X197827380Y-74668809D02*
X196827380Y-74668809D01*
X196970238Y-74573571D01*
X197065476Y-74478333D01*
X197113095Y-74383095D01*
X196827380Y-75811666D02*
X196827380Y-75621190D01*
X196875000Y-75525952D01*
X196922619Y-75478333D01*
X197065476Y-75383095D01*
X197255952Y-75335476D01*
X197636904Y-75335476D01*
X197732142Y-75383095D01*
X197779761Y-75430714D01*
X197827380Y-75525952D01*
X197827380Y-75716428D01*
X197779761Y-75811666D01*
X197732142Y-75859285D01*
X197636904Y-75906904D01*
X197398809Y-75906904D01*
X197303571Y-75859285D01*
X197255952Y-75811666D01*
X197208333Y-75716428D01*
X197208333Y-75525952D01*
X197255952Y-75430714D01*
X197303571Y-75383095D01*
X197398809Y-75335476D01*
%TO.C,D20*%
X207987380Y-73430714D02*
X206987380Y-73430714D01*
X206987380Y-73668809D01*
X207035000Y-73811666D01*
X207130238Y-73906904D01*
X207225476Y-73954523D01*
X207415952Y-74002142D01*
X207558809Y-74002142D01*
X207749285Y-73954523D01*
X207844523Y-73906904D01*
X207939761Y-73811666D01*
X207987380Y-73668809D01*
X207987380Y-73430714D01*
X207082619Y-74383095D02*
X207035000Y-74430714D01*
X206987380Y-74525952D01*
X206987380Y-74764047D01*
X207035000Y-74859285D01*
X207082619Y-74906904D01*
X207177857Y-74954523D01*
X207273095Y-74954523D01*
X207415952Y-74906904D01*
X207987380Y-74335476D01*
X207987380Y-74954523D01*
X206987380Y-75573571D02*
X206987380Y-75668809D01*
X207035000Y-75764047D01*
X207082619Y-75811666D01*
X207177857Y-75859285D01*
X207368333Y-75906904D01*
X207606428Y-75906904D01*
X207796904Y-75859285D01*
X207892142Y-75811666D01*
X207939761Y-75764047D01*
X207987380Y-75668809D01*
X207987380Y-75573571D01*
X207939761Y-75478333D01*
X207892142Y-75430714D01*
X207796904Y-75383095D01*
X207606428Y-75335476D01*
X207368333Y-75335476D01*
X207177857Y-75383095D01*
X207082619Y-75430714D01*
X207035000Y-75478333D01*
X206987380Y-75573571D01*
D11*
%TO.C,R5*%
X90695000Y-112515000D02*
X90695000Y-113285000D01*
X90695000Y-120595000D02*
X90695000Y-119825000D01*
X89325000Y-119825000D02*
X89325000Y-113285000D01*
X92065000Y-119825000D02*
X89325000Y-119825000D01*
X92065000Y-113285000D02*
X92065000Y-119825000D01*
X89325000Y-113285000D02*
X92065000Y-113285000D01*
%TO.C,D11*%
X208385000Y-103705000D02*
X204145000Y-103705000D01*
X207545000Y-101465000D02*
X207545000Y-103705000D01*
X208385000Y-101465000D02*
X208385000Y-103705000D01*
X207785000Y-101465000D02*
X207785000Y-103705000D01*
X209035000Y-102585000D02*
X208385000Y-102585000D01*
X203495000Y-102585000D02*
X204145000Y-102585000D01*
X204145000Y-101465000D02*
X208385000Y-101465000D01*
X204145000Y-103705000D02*
X204145000Y-101465000D01*
X207665000Y-101465000D02*
X207665000Y-103705000D01*
%TO.C,R3*%
X99595000Y-101505000D02*
X102335000Y-101505000D01*
X100965000Y-108815000D02*
X100965000Y-108045000D01*
X99595000Y-108045000D02*
X99595000Y-101505000D01*
X100965000Y-100735000D02*
X100965000Y-101505000D01*
X102335000Y-108045000D02*
X99595000Y-108045000D01*
X102335000Y-101505000D02*
X102335000Y-108045000D01*
%TO.C,D15*%
X202455000Y-83765000D02*
X202455000Y-83115000D01*
X203575000Y-83115000D02*
X201335000Y-83115000D01*
X203575000Y-78875000D02*
X203575000Y-83115000D01*
X201335000Y-79715000D02*
X203575000Y-79715000D01*
X201335000Y-79595000D02*
X203575000Y-79595000D01*
X201335000Y-78875000D02*
X203575000Y-78875000D01*
X202455000Y-78225000D02*
X202455000Y-78875000D01*
X201335000Y-79475000D02*
X203575000Y-79475000D01*
X201335000Y-83115000D02*
X201335000Y-78875000D01*
%TO.C,D2*%
X119485000Y-83385000D02*
X115245000Y-83385000D01*
X118885000Y-81145000D02*
X118885000Y-83385000D01*
X114595000Y-82265000D02*
X115245000Y-82265000D01*
X119485000Y-81145000D02*
X119485000Y-83385000D01*
X120135000Y-82265000D02*
X119485000Y-82265000D01*
X118645000Y-81145000D02*
X118645000Y-83385000D01*
X115245000Y-83385000D02*
X115245000Y-81145000D01*
X118765000Y-81145000D02*
X118765000Y-83385000D01*
X115245000Y-81145000D02*
X119485000Y-81145000D01*
%TO.C,R4*%
X109110000Y-90750000D02*
X109110000Y-89980000D01*
X107740000Y-83440000D02*
X110480000Y-83440000D01*
X110480000Y-83440000D02*
X110480000Y-89980000D01*
X110480000Y-89980000D02*
X107740000Y-89980000D01*
X107740000Y-89980000D02*
X107740000Y-83440000D01*
X109110000Y-82670000D02*
X109110000Y-83440000D01*
%TO.C,J2*%
X84445000Y-80785000D02*
X84445000Y-108785000D01*
X87105000Y-80785000D02*
X87105000Y-108785000D01*
X87105000Y-79515000D02*
X87105000Y-78185000D01*
X87105000Y-80785000D02*
X84445000Y-80785000D01*
X87105000Y-78185000D02*
X85775000Y-78185000D01*
X87105000Y-108785000D02*
X84445000Y-108785000D01*
%TO.C,D9*%
X115245000Y-111325000D02*
X115245000Y-109085000D01*
X114595000Y-110205000D02*
X115245000Y-110205000D01*
X119485000Y-109085000D02*
X119485000Y-111325000D01*
X119485000Y-111325000D02*
X115245000Y-111325000D01*
X118765000Y-109085000D02*
X118765000Y-111325000D01*
X118645000Y-109085000D02*
X118645000Y-111325000D01*
X115245000Y-109085000D02*
X119485000Y-109085000D01*
X118885000Y-109085000D02*
X118885000Y-111325000D01*
X120135000Y-110205000D02*
X119485000Y-110205000D01*
%TO.C,R1*%
X100855000Y-90115000D02*
X100855000Y-89345000D01*
X99485000Y-89345000D02*
X99485000Y-82805000D01*
X102225000Y-89345000D02*
X99485000Y-89345000D01*
X99485000Y-82805000D02*
X102225000Y-82805000D01*
X100855000Y-82035000D02*
X100855000Y-82805000D01*
X102225000Y-82805000D02*
X102225000Y-89345000D01*
%TO.C,D1*%
X114595000Y-79725000D02*
X115245000Y-79725000D01*
X118765000Y-78605000D02*
X118765000Y-80845000D01*
X115245000Y-78605000D02*
X119485000Y-78605000D01*
X118885000Y-78605000D02*
X118885000Y-80845000D01*
X118645000Y-78605000D02*
X118645000Y-80845000D01*
X120135000Y-79725000D02*
X119485000Y-79725000D01*
X119485000Y-80845000D02*
X115245000Y-80845000D01*
X115245000Y-80845000D02*
X115245000Y-78605000D01*
X119485000Y-78605000D02*
X119485000Y-80845000D01*
%TO.C,D14*%
X193415000Y-75065000D02*
X193415000Y-79305000D01*
X191175000Y-75065000D02*
X193415000Y-75065000D01*
X192295000Y-74415000D02*
X192295000Y-75065000D01*
X192295000Y-79955000D02*
X192295000Y-79305000D01*
X193415000Y-79305000D02*
X191175000Y-79305000D01*
X191175000Y-75665000D02*
X193415000Y-75665000D01*
X191175000Y-79305000D02*
X191175000Y-75065000D01*
X191175000Y-75785000D02*
X193415000Y-75785000D01*
X191175000Y-75905000D02*
X193415000Y-75905000D01*
%TO.C,D12*%
X210325000Y-104005000D02*
X210325000Y-106245000D01*
X210925000Y-104005000D02*
X210925000Y-106245000D01*
X210205000Y-104005000D02*
X210205000Y-106245000D01*
X210925000Y-106245000D02*
X206685000Y-106245000D01*
X206685000Y-106245000D02*
X206685000Y-104005000D01*
X206035000Y-105125000D02*
X206685000Y-105125000D01*
X211575000Y-105125000D02*
X210925000Y-105125000D01*
X206685000Y-104005000D02*
X210925000Y-104005000D01*
X210085000Y-104005000D02*
X210085000Y-106245000D01*
%TO.C,D10*%
X118645000Y-121785000D02*
X118645000Y-124025000D01*
X120135000Y-122905000D02*
X119485000Y-122905000D01*
X118765000Y-121785000D02*
X118765000Y-124025000D01*
X119485000Y-121785000D02*
X119485000Y-124025000D01*
X115245000Y-121785000D02*
X119485000Y-121785000D01*
X115245000Y-124025000D02*
X115245000Y-121785000D01*
X114595000Y-122905000D02*
X115245000Y-122905000D01*
X119485000Y-124025000D02*
X115245000Y-124025000D01*
X118885000Y-121785000D02*
X118885000Y-124025000D01*
%TO.C,D17*%
X211495000Y-79595000D02*
X213735000Y-79595000D01*
X212615000Y-83765000D02*
X212615000Y-83115000D01*
X211495000Y-78875000D02*
X213735000Y-78875000D01*
X212615000Y-78225000D02*
X212615000Y-78875000D01*
X213735000Y-78875000D02*
X213735000Y-83115000D01*
X211495000Y-79715000D02*
X213735000Y-79715000D01*
X213735000Y-83115000D02*
X211495000Y-83115000D01*
X211495000Y-83115000D02*
X211495000Y-78875000D01*
X211495000Y-79475000D02*
X213735000Y-79475000D01*
%TO.C,D13*%
X210925000Y-98925000D02*
X210925000Y-101165000D01*
X206685000Y-98925000D02*
X210925000Y-98925000D01*
X210325000Y-98925000D02*
X210325000Y-101165000D01*
X206035000Y-100045000D02*
X206685000Y-100045000D01*
X210925000Y-101165000D02*
X206685000Y-101165000D01*
X210085000Y-98925000D02*
X210085000Y-101165000D01*
X206685000Y-101165000D02*
X206685000Y-98925000D01*
X211575000Y-100045000D02*
X210925000Y-100045000D01*
X210205000Y-98925000D02*
X210205000Y-101165000D01*
%TO.C,D5*%
X114595000Y-94965000D02*
X115245000Y-94965000D01*
X119485000Y-96085000D02*
X115245000Y-96085000D01*
X115245000Y-96085000D02*
X115245000Y-93845000D01*
X118885000Y-93845000D02*
X118885000Y-96085000D01*
X118645000Y-93845000D02*
X118645000Y-96085000D01*
X119485000Y-93845000D02*
X119485000Y-96085000D01*
X120135000Y-94965000D02*
X119485000Y-94965000D01*
X118765000Y-93845000D02*
X118765000Y-96085000D01*
X115245000Y-93845000D02*
X119485000Y-93845000D01*
%TO.C,D6*%
X118885000Y-91305000D02*
X118885000Y-93545000D01*
X118765000Y-91305000D02*
X118765000Y-93545000D01*
X115245000Y-91305000D02*
X119485000Y-91305000D01*
X115245000Y-93545000D02*
X115245000Y-91305000D01*
X114595000Y-92425000D02*
X115245000Y-92425000D01*
X120135000Y-92425000D02*
X119485000Y-92425000D01*
X119485000Y-93545000D02*
X115245000Y-93545000D01*
X118645000Y-91305000D02*
X118645000Y-93545000D01*
X119485000Y-91305000D02*
X119485000Y-93545000D01*
%TO.C,D4*%
X118765000Y-104005000D02*
X118765000Y-106245000D01*
X119485000Y-106245000D02*
X115245000Y-106245000D01*
X120135000Y-105125000D02*
X119485000Y-105125000D01*
X118645000Y-104005000D02*
X118645000Y-106245000D01*
X115245000Y-104005000D02*
X119485000Y-104005000D01*
X114595000Y-105125000D02*
X115245000Y-105125000D01*
X115245000Y-106245000D02*
X115245000Y-104005000D01*
X119485000Y-104005000D02*
X119485000Y-106245000D01*
X118885000Y-104005000D02*
X118885000Y-106245000D01*
%TO.C,D3*%
X119485000Y-85925000D02*
X115245000Y-85925000D01*
X118765000Y-83685000D02*
X118765000Y-85925000D01*
X118885000Y-83685000D02*
X118885000Y-85925000D01*
X115245000Y-83685000D02*
X119485000Y-83685000D01*
X115245000Y-85925000D02*
X115245000Y-83685000D01*
X118645000Y-83685000D02*
X118645000Y-85925000D01*
X120135000Y-84805000D02*
X119485000Y-84805000D01*
X114595000Y-84805000D02*
X115245000Y-84805000D01*
X119485000Y-83685000D02*
X119485000Y-85925000D01*
%TO.C,R2*%
X104565000Y-89980000D02*
X104565000Y-83440000D01*
X105935000Y-82670000D02*
X105935000Y-83440000D01*
X107305000Y-83440000D02*
X107305000Y-89980000D01*
X105935000Y-90750000D02*
X105935000Y-89980000D01*
X104565000Y-83440000D02*
X107305000Y-83440000D01*
X107305000Y-89980000D02*
X104565000Y-89980000D01*
%TO.C,D18*%
X120135000Y-120365000D02*
X119485000Y-120365000D01*
X118645000Y-119245000D02*
X118645000Y-121485000D01*
X118885000Y-119245000D02*
X118885000Y-121485000D01*
X119485000Y-121485000D02*
X115245000Y-121485000D01*
X115245000Y-121485000D02*
X115245000Y-119245000D01*
X119485000Y-119245000D02*
X119485000Y-121485000D01*
X118765000Y-119245000D02*
X118765000Y-121485000D01*
X115245000Y-119245000D02*
X119485000Y-119245000D01*
X114595000Y-120365000D02*
X115245000Y-120365000D01*
%TO.C,U1*%
X95859600Y-109909400D02*
X90559600Y-109909400D01*
X90559600Y-84389400D02*
X92209600Y-84389400D01*
X94209600Y-84389400D02*
X95859600Y-84389400D01*
X95859600Y-84389400D02*
X95859600Y-109909400D01*
X90559600Y-109909400D02*
X90559600Y-84389400D01*
X92209600Y-84389400D02*
G75*
G03*
X94209600Y-84389400I1000000J0D01*
G01*
%TO.C,D19*%
X118765000Y-124325000D02*
X118765000Y-126565000D01*
X120135000Y-125445000D02*
X119485000Y-125445000D01*
X118645000Y-124325000D02*
X118645000Y-126565000D01*
X119485000Y-126565000D02*
X115245000Y-126565000D01*
X118885000Y-124325000D02*
X118885000Y-126565000D01*
X114595000Y-125445000D02*
X115245000Y-125445000D01*
X115245000Y-124325000D02*
X119485000Y-124325000D01*
X119485000Y-124325000D02*
X119485000Y-126565000D01*
X115245000Y-126565000D02*
X115245000Y-124325000D01*
%TO.C,D8*%
X114595000Y-112745000D02*
X115245000Y-112745000D01*
X119485000Y-113865000D02*
X115245000Y-113865000D01*
X119485000Y-111625000D02*
X119485000Y-113865000D01*
X115245000Y-113865000D02*
X115245000Y-111625000D01*
X118885000Y-111625000D02*
X118885000Y-113865000D01*
X120135000Y-112745000D02*
X119485000Y-112745000D01*
X118645000Y-111625000D02*
X118645000Y-113865000D01*
X115245000Y-111625000D02*
X119485000Y-111625000D01*
X118765000Y-111625000D02*
X118765000Y-113865000D01*
%TO.C,D7*%
X115245000Y-114165000D02*
X119485000Y-114165000D01*
X119485000Y-116405000D02*
X115245000Y-116405000D01*
X120135000Y-115285000D02*
X119485000Y-115285000D01*
X119485000Y-114165000D02*
X119485000Y-116405000D01*
X118645000Y-114165000D02*
X118645000Y-116405000D01*
X114595000Y-115285000D02*
X115245000Y-115285000D01*
X115245000Y-116405000D02*
X115245000Y-114165000D01*
X118765000Y-114165000D02*
X118765000Y-116405000D01*
X118885000Y-114165000D02*
X118885000Y-116405000D01*
%TO.C,R6*%
X109210000Y-113421200D02*
X106470000Y-113421200D01*
X107840000Y-114191200D02*
X107840000Y-113421200D01*
X109210000Y-106881200D02*
X109210000Y-113421200D01*
X106470000Y-106881200D02*
X109210000Y-106881200D01*
X106470000Y-113421200D02*
X106470000Y-106881200D01*
X107840000Y-106111200D02*
X107840000Y-106881200D01*
%TO.C,J1*%
X138025000Y-72675000D02*
X138025000Y-74795000D01*
X135965000Y-72675000D02*
X135965000Y-73735000D01*
X138025000Y-74795000D02*
X162085000Y-74795000D01*
X137025000Y-72675000D02*
X135965000Y-72675000D01*
X138025000Y-72675000D02*
X162085000Y-72675000D01*
X162085000Y-72675000D02*
X162085000Y-74795000D01*
%TO.C,D16*%
X196255000Y-78875000D02*
X198495000Y-78875000D01*
X198495000Y-83115000D02*
X196255000Y-83115000D01*
X196255000Y-79475000D02*
X198495000Y-79475000D01*
X198495000Y-78875000D02*
X198495000Y-83115000D01*
X197375000Y-78225000D02*
X197375000Y-78875000D01*
X196255000Y-79715000D02*
X198495000Y-79715000D01*
X197375000Y-83765000D02*
X197375000Y-83115000D01*
X196255000Y-79595000D02*
X198495000Y-79595000D01*
X196255000Y-83115000D02*
X196255000Y-78875000D01*
%TO.C,D20*%
X206415000Y-83115000D02*
X206415000Y-78875000D01*
X206415000Y-79595000D02*
X208655000Y-79595000D01*
X208655000Y-83115000D02*
X206415000Y-83115000D01*
X207535000Y-78225000D02*
X207535000Y-78875000D01*
X207535000Y-83765000D02*
X207535000Y-83115000D01*
X206415000Y-78875000D02*
X208655000Y-78875000D01*
X206415000Y-79715000D02*
X208655000Y-79715000D01*
X206415000Y-79475000D02*
X208655000Y-79475000D01*
X208655000Y-78875000D02*
X208655000Y-83115000D01*
%TD*%
%LPC*%
D12*
%TO.C,R5*%
X90695000Y-121635000D03*
D13*
X90695000Y-111475000D03*
%TD*%
D14*
%TO.C,D11*%
X210075000Y-102585000D03*
D13*
X202455000Y-102585000D03*
%TD*%
D12*
%TO.C,R3*%
X100965000Y-109855000D03*
D13*
X100965000Y-99695000D03*
%TD*%
D14*
%TO.C,D15*%
X202455000Y-77185000D03*
D13*
X202455000Y-84805000D03*
%TD*%
D14*
%TO.C,D2*%
X121175000Y-82265000D03*
D13*
X113555000Y-82265000D03*
%TD*%
D12*
%TO.C,R4*%
X109110000Y-81630000D03*
D13*
X109110000Y-91790000D03*
%TD*%
D15*
%TO.C,J2*%
X85775000Y-79515000D03*
D16*
X85775000Y-82055000D03*
X85775000Y-84595000D03*
X85775000Y-87135000D03*
X85775000Y-89675000D03*
X85775000Y-92215000D03*
X85775000Y-94755000D03*
X85775000Y-97295000D03*
X85775000Y-99835000D03*
X85775000Y-102375000D03*
X85775000Y-104915000D03*
X85775000Y-107455000D03*
%TD*%
D14*
%TO.C,D9*%
X121175000Y-110205000D03*
D13*
X113555000Y-110205000D03*
%TD*%
D12*
%TO.C,R1*%
X100855000Y-80995000D03*
D13*
X100855000Y-91155000D03*
%TD*%
D14*
%TO.C,D1*%
X121175000Y-79725000D03*
D13*
X113555000Y-79725000D03*
%TD*%
D14*
%TO.C,D14*%
X192295000Y-73375000D03*
D13*
X192295000Y-80995000D03*
%TD*%
D14*
%TO.C,D12*%
X212615000Y-105125000D03*
D13*
X204995000Y-105125000D03*
%TD*%
D14*
%TO.C,D10*%
X121175000Y-122905000D03*
D13*
X113555000Y-122905000D03*
%TD*%
D14*
%TO.C,D17*%
X212615000Y-77185000D03*
D13*
X212615000Y-84805000D03*
%TD*%
D14*
%TO.C,D13*%
X212615000Y-100045000D03*
D13*
X204995000Y-100045000D03*
%TD*%
D14*
%TO.C,D5*%
X121175000Y-94965000D03*
D13*
X113555000Y-94965000D03*
%TD*%
D14*
%TO.C,D6*%
X121175000Y-92425000D03*
D13*
X113555000Y-92425000D03*
%TD*%
D14*
%TO.C,D4*%
X121175000Y-105125000D03*
D13*
X113555000Y-105125000D03*
%TD*%
D14*
%TO.C,D3*%
X121175000Y-84805000D03*
D13*
X113555000Y-84805000D03*
%TD*%
D12*
%TO.C,R2*%
X105935000Y-81630000D03*
D13*
X105935000Y-91790000D03*
%TD*%
D14*
%TO.C,D18*%
X121175000Y-120365000D03*
D13*
X113555000Y-120365000D03*
%TD*%
D14*
%TO.C,U1*%
X97019600Y-85719400D03*
D13*
X97019600Y-88259400D03*
X97019600Y-90799400D03*
X97019600Y-93339400D03*
X97019600Y-95879400D03*
X97019600Y-98419400D03*
X97019600Y-100959400D03*
X97019600Y-103499400D03*
X97019600Y-106039400D03*
X97019600Y-108579400D03*
X89399600Y-108579400D03*
X89399600Y-106039400D03*
X89399600Y-103499400D03*
X89399600Y-100959400D03*
X89399600Y-98419400D03*
X89399600Y-95879400D03*
X89399600Y-93339400D03*
X89399600Y-90799400D03*
X89399600Y-88259400D03*
X89399600Y-85719400D03*
%TD*%
D14*
%TO.C,D19*%
X121175000Y-125445000D03*
D13*
X113555000Y-125445000D03*
%TD*%
D14*
%TO.C,D8*%
X121175000Y-112745000D03*
D13*
X113555000Y-112745000D03*
%TD*%
D14*
%TO.C,D7*%
X121175000Y-115285000D03*
D13*
X113555000Y-115285000D03*
%TD*%
D12*
%TO.C,R6*%
X107840000Y-115231200D03*
D13*
X107840000Y-105071200D03*
%TD*%
D17*
%TO.C,J1*%
X137025000Y-73735000D03*
D18*
X139025000Y-73735000D03*
X141025000Y-73735000D03*
X143025000Y-73735000D03*
X145025000Y-73735000D03*
X147025000Y-73735000D03*
X149025000Y-73735000D03*
X151025000Y-73735000D03*
X153025000Y-73735000D03*
X155025000Y-73735000D03*
X157025000Y-73735000D03*
X159025000Y-73735000D03*
X161025000Y-73735000D03*
%TD*%
D14*
%TO.C,D16*%
X197375000Y-77185000D03*
D13*
X197375000Y-84805000D03*
%TD*%
D14*
%TO.C,D20*%
X207535000Y-77185000D03*
D13*
X207535000Y-84805000D03*
%TD*%
M02*
