M48
; DRILL file {KiCad (6.0.0)} date Sun Mar 13 17:55:10 2022
; FORMAT={-:-/ absolute / metric / decimal}
; #@! TF.CreationDate,2022-03-13T17:55:10-04:00
; #@! TF.GenerationSoftware,Kicad,Pcbnew,(6.0.0)
; #@! TF.FileFunction,Plated,1,2,PTH
FMAT,2
METRIC
; #@! TA.AperFunction,Plated,PTH,ViaDrill
T1C0.400
; #@! TA.AperFunction,Plated,PTH,ComponentDrill
T2C0.800
; #@! TA.AperFunction,Plated,PTH,ComponentDrill
T3C1.000
%
G90
G05
T1
X103.499Y-108.579
X103.505Y-100.965
X163.83Y-73.025
X164.465Y-74.93
X167.64Y-69.85
X170.18Y-69.85
X184.785Y-98.425
X184.785Y-102.87
X184.785Y-112.395
X185.42Y-85.09
X187.325Y-98.425
X187.325Y-102.87
X187.96Y-88.265
X187.96Y-111.76
X189.23Y-72.39
X189.23Y-80.645
X189.23Y-89.535
X189.23Y-98.425
T2
X89.4Y-85.719
X89.4Y-88.259
X89.4Y-90.799
X89.4Y-93.339
X89.4Y-95.879
X89.4Y-98.419
X89.4Y-100.959
X89.4Y-103.499
X89.4Y-106.039
X89.4Y-108.579
X90.695Y-111.475
X90.695Y-121.635
X97.02Y-85.719
X97.02Y-88.259
X97.02Y-90.799
X97.02Y-93.339
X97.02Y-95.879
X97.02Y-98.419
X97.02Y-100.959
X97.02Y-103.499
X97.02Y-106.039
X97.02Y-108.579
X100.855Y-80.995
X100.855Y-91.155
X100.965Y-99.695
X100.965Y-109.855
X105.935Y-81.63
X105.935Y-91.79
X107.84Y-105.071
X107.84Y-115.231
X109.11Y-81.63
X109.11Y-91.79
X113.555Y-79.725
X113.555Y-82.265
X113.555Y-84.805
X113.555Y-92.425
X113.555Y-94.965
X113.555Y-105.125
X113.555Y-110.205
X113.555Y-112.745
X113.555Y-115.285
X113.555Y-120.365
X113.555Y-122.905
X113.555Y-125.445
X121.175Y-79.725
X121.175Y-82.265
X121.175Y-84.805
X121.175Y-92.425
X121.175Y-94.965
X121.175Y-105.125
X121.175Y-110.205
X121.175Y-112.745
X121.175Y-115.285
X121.175Y-120.365
X121.175Y-122.905
X121.175Y-125.445
X137.025Y-73.735
X139.025Y-73.735
X141.025Y-73.735
X143.025Y-73.735
X145.025Y-73.735
X147.025Y-73.735
X149.025Y-73.735
X151.025Y-73.735
X153.025Y-73.735
X155.025Y-73.735
X157.025Y-73.735
X159.025Y-73.735
X161.025Y-73.735
X192.295Y-73.375
X192.295Y-80.995
X197.375Y-77.185
X197.375Y-84.805
X202.455Y-77.185
X202.455Y-84.805
X202.455Y-102.585
X204.995Y-100.045
X204.995Y-105.125
X207.535Y-77.185
X207.535Y-84.805
X210.075Y-102.585
X212.615Y-77.185
X212.615Y-84.805
X212.615Y-100.045
X212.615Y-105.125
T3
X85.775Y-79.515
X85.775Y-82.055
X85.775Y-84.595
X85.775Y-87.135
X85.775Y-89.675
X85.775Y-92.215
X85.775Y-94.755
X85.775Y-97.295
X85.775Y-99.835
X85.775Y-102.375
X85.775Y-104.915
X85.775Y-107.455
T0
M30
