%FSLAX45Y45*%
G04 Gerber Fmt 4.5, Leading zero omitted, Abs format (unit mm)*
G04 Created by KiCad (PCBNEW (6.0.0)) date 2022-03-13 17:55:17*
%MOMM*%
%LPD*%
G01*
G04 APERTURE LIST*
%TA.AperFunction,Profile*%
%ADD10C,0.100000*%
%TD*%
%ADD11C,0.200000*%
%ADD12C,0.040000*%
%ADD13C,0.080000*%
%ADD14C,0.100000*%
G04 APERTURE END LIST*
D10*
X22294500Y-6702500D02*
X22294500Y-11823500D01*
X8307500Y-6702500D02*
X22294500Y-6702500D01*
X11356500Y-10197000D02*
G75*
G03*
X11356500Y-10197000I-140500J0D01*
G01*
X21117500Y-11458000D02*
G75*
G03*
X21117500Y-11458000I-313500J0D01*
G01*
X21294500Y-12812500D02*
X22294500Y-11823500D01*
X21294500Y-12812500D02*
X9305720Y-12812500D01*
X8307500Y-11823500D02*
X9305720Y-12812500D01*
X19526500Y-10197000D02*
G75*
G03*
X19526500Y-10197000I-140500J0D01*
G01*
X10111500Y-11458000D02*
G75*
G03*
X10111500Y-11458000I-313500J0D01*
G01*
X8307500Y-11823500D02*
X8307500Y-6702500D01*
D11*
D12*
X10329940Y-10837940D02*
X10369940Y-10877940D01*
X10369940Y-10837940D02*
X10329940Y-10877940D01*
X10330500Y-10076500D02*
X10370500Y-10116500D01*
X10370500Y-10076500D02*
X10330500Y-10116500D01*
X16363000Y-7282500D02*
X16403000Y-7322500D01*
X16403000Y-7282500D02*
X16363000Y-7322500D01*
X16426500Y-7473000D02*
X16466500Y-7513000D01*
X16466500Y-7473000D02*
X16426500Y-7513000D01*
X16744000Y-6965000D02*
X16784000Y-7005000D01*
X16784000Y-6965000D02*
X16744000Y-7005000D01*
X16998000Y-6965000D02*
X17038000Y-7005000D01*
X17038000Y-6965000D02*
X16998000Y-7005000D01*
X18458500Y-9822500D02*
X18498500Y-9862500D01*
X18498500Y-9822500D02*
X18458500Y-9862500D01*
X18458500Y-10267000D02*
X18498500Y-10307000D01*
X18498500Y-10267000D02*
X18458500Y-10307000D01*
X18458500Y-11219500D02*
X18498500Y-11259500D01*
X18498500Y-11219500D02*
X18458500Y-11259500D01*
X18522000Y-8489000D02*
X18562000Y-8529000D01*
X18562000Y-8489000D02*
X18522000Y-8529000D01*
X18712500Y-9822500D02*
X18752500Y-9862500D01*
X18752500Y-9822500D02*
X18712500Y-9862500D01*
X18712500Y-10267000D02*
X18752500Y-10307000D01*
X18752500Y-10267000D02*
X18712500Y-10307000D01*
X18776000Y-8806500D02*
X18816000Y-8846500D01*
X18816000Y-8806500D02*
X18776000Y-8846500D01*
X18776000Y-11156000D02*
X18816000Y-11196000D01*
X18816000Y-11156000D02*
X18776000Y-11196000D01*
X18903000Y-7219000D02*
X18943000Y-7259000D01*
X18943000Y-7219000D02*
X18903000Y-7259000D01*
X18903000Y-8044500D02*
X18943000Y-8084500D01*
X18943000Y-8044500D02*
X18903000Y-8084500D01*
X18903000Y-8933500D02*
X18943000Y-8973500D01*
X18943000Y-8933500D02*
X18903000Y-8973500D01*
X18903000Y-9822500D02*
X18943000Y-9862500D01*
X18943000Y-9822500D02*
X18903000Y-9862500D01*
D13*
X8979960Y-8571940D02*
G75*
G03*
X8979960Y-8571940I-40000J0D01*
G01*
X8979960Y-8825940D02*
G75*
G03*
X8979960Y-8825940I-40000J0D01*
G01*
X8979960Y-9079940D02*
G75*
G03*
X8979960Y-9079940I-40000J0D01*
G01*
X8979960Y-9333940D02*
G75*
G03*
X8979960Y-9333940I-40000J0D01*
G01*
X8979960Y-9587940D02*
G75*
G03*
X8979960Y-9587940I-40000J0D01*
G01*
X8979960Y-9841940D02*
G75*
G03*
X8979960Y-9841940I-40000J0D01*
G01*
X8979960Y-10095940D02*
G75*
G03*
X8979960Y-10095940I-40000J0D01*
G01*
X8979960Y-10349940D02*
G75*
G03*
X8979960Y-10349940I-40000J0D01*
G01*
X8979960Y-10603940D02*
G75*
G03*
X8979960Y-10603940I-40000J0D01*
G01*
X8979960Y-10857940D02*
G75*
G03*
X8979960Y-10857940I-40000J0D01*
G01*
X9109500Y-11147500D02*
G75*
G03*
X9109500Y-11147500I-40000J0D01*
G01*
X9109500Y-12163500D02*
G75*
G03*
X9109500Y-12163500I-40000J0D01*
G01*
X9741960Y-8571940D02*
G75*
G03*
X9741960Y-8571940I-40000J0D01*
G01*
X9741960Y-8825940D02*
G75*
G03*
X9741960Y-8825940I-40000J0D01*
G01*
X9741960Y-9079940D02*
G75*
G03*
X9741960Y-9079940I-40000J0D01*
G01*
X9741960Y-9333940D02*
G75*
G03*
X9741960Y-9333940I-40000J0D01*
G01*
X9741960Y-9587940D02*
G75*
G03*
X9741960Y-9587940I-40000J0D01*
G01*
X9741960Y-9841940D02*
G75*
G03*
X9741960Y-9841940I-40000J0D01*
G01*
X9741960Y-10095940D02*
G75*
G03*
X9741960Y-10095940I-40000J0D01*
G01*
X9741960Y-10349940D02*
G75*
G03*
X9741960Y-10349940I-40000J0D01*
G01*
X9741960Y-10603940D02*
G75*
G03*
X9741960Y-10603940I-40000J0D01*
G01*
X9741960Y-10857940D02*
G75*
G03*
X9741960Y-10857940I-40000J0D01*
G01*
X10125500Y-8099500D02*
G75*
G03*
X10125500Y-8099500I-40000J0D01*
G01*
X10125500Y-9115500D02*
G75*
G03*
X10125500Y-9115500I-40000J0D01*
G01*
X10136500Y-9969500D02*
G75*
G03*
X10136500Y-9969500I-40000J0D01*
G01*
X10136500Y-10985500D02*
G75*
G03*
X10136500Y-10985500I-40000J0D01*
G01*
X10633500Y-8163000D02*
G75*
G03*
X10633500Y-8163000I-40000J0D01*
G01*
X10633500Y-9179000D02*
G75*
G03*
X10633500Y-9179000I-40000J0D01*
G01*
X10824000Y-10507120D02*
G75*
G03*
X10824000Y-10507120I-40000J0D01*
G01*
X10824000Y-11523120D02*
G75*
G03*
X10824000Y-11523120I-40000J0D01*
G01*
X10951000Y-8163000D02*
G75*
G03*
X10951000Y-8163000I-40000J0D01*
G01*
X10951000Y-9179000D02*
G75*
G03*
X10951000Y-9179000I-40000J0D01*
G01*
X11395500Y-7972500D02*
G75*
G03*
X11395500Y-7972500I-40000J0D01*
G01*
X11395500Y-8226500D02*
G75*
G03*
X11395500Y-8226500I-40000J0D01*
G01*
X11395500Y-8480500D02*
G75*
G03*
X11395500Y-8480500I-40000J0D01*
G01*
X11395500Y-9242500D02*
G75*
G03*
X11395500Y-9242500I-40000J0D01*
G01*
X11395500Y-9496500D02*
G75*
G03*
X11395500Y-9496500I-40000J0D01*
G01*
X11395500Y-10512500D02*
G75*
G03*
X11395500Y-10512500I-40000J0D01*
G01*
X11395500Y-11020500D02*
G75*
G03*
X11395500Y-11020500I-40000J0D01*
G01*
X11395500Y-11274500D02*
G75*
G03*
X11395500Y-11274500I-40000J0D01*
G01*
X11395500Y-11528500D02*
G75*
G03*
X11395500Y-11528500I-40000J0D01*
G01*
X11395500Y-12036500D02*
G75*
G03*
X11395500Y-12036500I-40000J0D01*
G01*
X11395500Y-12290500D02*
G75*
G03*
X11395500Y-12290500I-40000J0D01*
G01*
X11395500Y-12544500D02*
G75*
G03*
X11395500Y-12544500I-40000J0D01*
G01*
X12157500Y-7972500D02*
G75*
G03*
X12157500Y-7972500I-40000J0D01*
G01*
X12157500Y-8226500D02*
G75*
G03*
X12157500Y-8226500I-40000J0D01*
G01*
X12157500Y-8480500D02*
G75*
G03*
X12157500Y-8480500I-40000J0D01*
G01*
X12157500Y-9242500D02*
G75*
G03*
X12157500Y-9242500I-40000J0D01*
G01*
X12157500Y-9496500D02*
G75*
G03*
X12157500Y-9496500I-40000J0D01*
G01*
X12157500Y-10512500D02*
G75*
G03*
X12157500Y-10512500I-40000J0D01*
G01*
X12157500Y-11020500D02*
G75*
G03*
X12157500Y-11020500I-40000J0D01*
G01*
X12157500Y-11274500D02*
G75*
G03*
X12157500Y-11274500I-40000J0D01*
G01*
X12157500Y-11528500D02*
G75*
G03*
X12157500Y-11528500I-40000J0D01*
G01*
X12157500Y-12036500D02*
G75*
G03*
X12157500Y-12036500I-40000J0D01*
G01*
X12157500Y-12290500D02*
G75*
G03*
X12157500Y-12290500I-40000J0D01*
G01*
X12157500Y-12544500D02*
G75*
G03*
X12157500Y-12544500I-40000J0D01*
G01*
X13742500Y-7373500D02*
G75*
G03*
X13742500Y-7373500I-40000J0D01*
G01*
X13942500Y-7373500D02*
G75*
G03*
X13942500Y-7373500I-40000J0D01*
G01*
X14142500Y-7373500D02*
G75*
G03*
X14142500Y-7373500I-40000J0D01*
G01*
X14342500Y-7373500D02*
G75*
G03*
X14342500Y-7373500I-40000J0D01*
G01*
X14542500Y-7373500D02*
G75*
G03*
X14542500Y-7373500I-40000J0D01*
G01*
X14742500Y-7373500D02*
G75*
G03*
X14742500Y-7373500I-40000J0D01*
G01*
X14942500Y-7373500D02*
G75*
G03*
X14942500Y-7373500I-40000J0D01*
G01*
X15142500Y-7373500D02*
G75*
G03*
X15142500Y-7373500I-40000J0D01*
G01*
X15342500Y-7373500D02*
G75*
G03*
X15342500Y-7373500I-40000J0D01*
G01*
X15542500Y-7373500D02*
G75*
G03*
X15542500Y-7373500I-40000J0D01*
G01*
X15742500Y-7373500D02*
G75*
G03*
X15742500Y-7373500I-40000J0D01*
G01*
X15942500Y-7373500D02*
G75*
G03*
X15942500Y-7373500I-40000J0D01*
G01*
X16142500Y-7373500D02*
G75*
G03*
X16142500Y-7373500I-40000J0D01*
G01*
X19269500Y-7337500D02*
G75*
G03*
X19269500Y-7337500I-40000J0D01*
G01*
X19269500Y-8099500D02*
G75*
G03*
X19269500Y-8099500I-40000J0D01*
G01*
X19777500Y-7718500D02*
G75*
G03*
X19777500Y-7718500I-40000J0D01*
G01*
X19777500Y-8480500D02*
G75*
G03*
X19777500Y-8480500I-40000J0D01*
G01*
X20285500Y-7718500D02*
G75*
G03*
X20285500Y-7718500I-40000J0D01*
G01*
X20285500Y-8480500D02*
G75*
G03*
X20285500Y-8480500I-40000J0D01*
G01*
X20285500Y-10258500D02*
G75*
G03*
X20285500Y-10258500I-40000J0D01*
G01*
X20539500Y-10004500D02*
G75*
G03*
X20539500Y-10004500I-40000J0D01*
G01*
X20539500Y-10512500D02*
G75*
G03*
X20539500Y-10512500I-40000J0D01*
G01*
X20793500Y-7718500D02*
G75*
G03*
X20793500Y-7718500I-40000J0D01*
G01*
X20793500Y-8480500D02*
G75*
G03*
X20793500Y-8480500I-40000J0D01*
G01*
X21047500Y-10258500D02*
G75*
G03*
X21047500Y-10258500I-40000J0D01*
G01*
X21301500Y-7718500D02*
G75*
G03*
X21301500Y-7718500I-40000J0D01*
G01*
X21301500Y-8480500D02*
G75*
G03*
X21301500Y-8480500I-40000J0D01*
G01*
X21301500Y-10004500D02*
G75*
G03*
X21301500Y-10004500I-40000J0D01*
G01*
X21301500Y-10512500D02*
G75*
G03*
X21301500Y-10512500I-40000J0D01*
G01*
D14*
X8577500Y-7901500D02*
X8577500Y-8001500D01*
X8527500Y-7951500D02*
X8627500Y-7951500D01*
X8577500Y-8155500D02*
X8577500Y-8255500D01*
X8527500Y-8205500D02*
X8627500Y-8205500D01*
X8577500Y-8409500D02*
X8577500Y-8509500D01*
X8527500Y-8459500D02*
X8627500Y-8459500D01*
X8577500Y-8663500D02*
X8577500Y-8763500D01*
X8527500Y-8713500D02*
X8627500Y-8713500D01*
X8577500Y-8917500D02*
X8577500Y-9017500D01*
X8527500Y-8967500D02*
X8627500Y-8967500D01*
X8577500Y-9171500D02*
X8577500Y-9271500D01*
X8527500Y-9221500D02*
X8627500Y-9221500D01*
X8577500Y-9425500D02*
X8577500Y-9525500D01*
X8527500Y-9475500D02*
X8627500Y-9475500D01*
X8577500Y-9679500D02*
X8577500Y-9779500D01*
X8527500Y-9729500D02*
X8627500Y-9729500D01*
X8577500Y-9933500D02*
X8577500Y-10033500D01*
X8527500Y-9983500D02*
X8627500Y-9983500D01*
X8577500Y-10187500D02*
X8577500Y-10287500D01*
X8527500Y-10237500D02*
X8627500Y-10237500D01*
X8577500Y-10441500D02*
X8577500Y-10541500D01*
X8527500Y-10491500D02*
X8627500Y-10491500D01*
X8577500Y-10695500D02*
X8577500Y-10795500D01*
X8527500Y-10745500D02*
X8627500Y-10745500D01*
D11*
X8560119Y-13127976D02*
X8560119Y-12927976D01*
X8607738Y-12927976D01*
X8636310Y-12937500D01*
X8655357Y-12956548D01*
X8664881Y-12975595D01*
X8674405Y-13013690D01*
X8674405Y-13042262D01*
X8664881Y-13080357D01*
X8655357Y-13099405D01*
X8636310Y-13118452D01*
X8607738Y-13127976D01*
X8560119Y-13127976D01*
X8760119Y-13127976D02*
X8760119Y-12994643D01*
X8760119Y-13032738D02*
X8769643Y-13013690D01*
X8779167Y-13004167D01*
X8798214Y-12994643D01*
X8817262Y-12994643D01*
X8883929Y-13127976D02*
X8883929Y-12994643D01*
X8883929Y-12927976D02*
X8874405Y-12937500D01*
X8883929Y-12947024D01*
X8893452Y-12937500D01*
X8883929Y-12927976D01*
X8883929Y-12947024D01*
X9007738Y-13127976D02*
X8988690Y-13118452D01*
X8979167Y-13099405D01*
X8979167Y-12927976D01*
X9112500Y-13127976D02*
X9093452Y-13118452D01*
X9083929Y-13099405D01*
X9083929Y-12927976D01*
X9341071Y-13127976D02*
X9341071Y-12927976D01*
X9407738Y-13070833D01*
X9474405Y-12927976D01*
X9474405Y-13127976D01*
X9655357Y-13127976D02*
X9655357Y-13023214D01*
X9645833Y-13004167D01*
X9626786Y-12994643D01*
X9588690Y-12994643D01*
X9569643Y-13004167D01*
X9655357Y-13118452D02*
X9636310Y-13127976D01*
X9588690Y-13127976D01*
X9569643Y-13118452D01*
X9560119Y-13099405D01*
X9560119Y-13080357D01*
X9569643Y-13061309D01*
X9588690Y-13051786D01*
X9636310Y-13051786D01*
X9655357Y-13042262D01*
X9750595Y-12994643D02*
X9750595Y-13194643D01*
X9750595Y-13004167D02*
X9769643Y-12994643D01*
X9807738Y-12994643D01*
X9826786Y-13004167D01*
X9836310Y-13013690D01*
X9845833Y-13032738D01*
X9845833Y-13089881D01*
X9836310Y-13108928D01*
X9826786Y-13118452D01*
X9807738Y-13127976D01*
X9769643Y-13127976D01*
X9750595Y-13118452D01*
X9931548Y-13108928D02*
X9941071Y-13118452D01*
X9931548Y-13127976D01*
X9922024Y-13118452D01*
X9931548Y-13108928D01*
X9931548Y-13127976D01*
X9931548Y-13004167D02*
X9941071Y-13013690D01*
X9931548Y-13023214D01*
X9922024Y-13013690D01*
X9931548Y-13004167D01*
X9931548Y-13023214D01*
D12*
X8262500Y-13437500D02*
X8302500Y-13477500D01*
X8302500Y-13437500D02*
X8262500Y-13477500D01*
D11*
X8598214Y-13347976D02*
X8617262Y-13347976D01*
X8636310Y-13357500D01*
X8645833Y-13367024D01*
X8655357Y-13386071D01*
X8664881Y-13424167D01*
X8664881Y-13471786D01*
X8655357Y-13509881D01*
X8645833Y-13528928D01*
X8636310Y-13538452D01*
X8617262Y-13547976D01*
X8598214Y-13547976D01*
X8579167Y-13538452D01*
X8569643Y-13528928D01*
X8560119Y-13509881D01*
X8550595Y-13471786D01*
X8550595Y-13424167D01*
X8560119Y-13386071D01*
X8569643Y-13367024D01*
X8579167Y-13357500D01*
X8598214Y-13347976D01*
X8750595Y-13528928D02*
X8760119Y-13538452D01*
X8750595Y-13547976D01*
X8741071Y-13538452D01*
X8750595Y-13528928D01*
X8750595Y-13547976D01*
X8931548Y-13414643D02*
X8931548Y-13547976D01*
X8883929Y-13338452D02*
X8836310Y-13481309D01*
X8960119Y-13481309D01*
X9074405Y-13347976D02*
X9093452Y-13347976D01*
X9112500Y-13357500D01*
X9122024Y-13367024D01*
X9131548Y-13386071D01*
X9141071Y-13424167D01*
X9141071Y-13471786D01*
X9131548Y-13509881D01*
X9122024Y-13528928D01*
X9112500Y-13538452D01*
X9093452Y-13547976D01*
X9074405Y-13547976D01*
X9055357Y-13538452D01*
X9045833Y-13528928D01*
X9036310Y-13509881D01*
X9026786Y-13471786D01*
X9026786Y-13424167D01*
X9036310Y-13386071D01*
X9045833Y-13367024D01*
X9055357Y-13357500D01*
X9074405Y-13347976D01*
X9264881Y-13347976D02*
X9283929Y-13347976D01*
X9302976Y-13357500D01*
X9312500Y-13367024D01*
X9322024Y-13386071D01*
X9331548Y-13424167D01*
X9331548Y-13471786D01*
X9322024Y-13509881D01*
X9312500Y-13528928D01*
X9302976Y-13538452D01*
X9283929Y-13547976D01*
X9264881Y-13547976D01*
X9245833Y-13538452D01*
X9236310Y-13528928D01*
X9226786Y-13509881D01*
X9217262Y-13471786D01*
X9217262Y-13424167D01*
X9226786Y-13386071D01*
X9236310Y-13367024D01*
X9245833Y-13357500D01*
X9264881Y-13347976D01*
X9417262Y-13547976D02*
X9417262Y-13414643D01*
X9417262Y-13433690D02*
X9426786Y-13424167D01*
X9445833Y-13414643D01*
X9474405Y-13414643D01*
X9493452Y-13424167D01*
X9502976Y-13443214D01*
X9502976Y-13547976D01*
X9502976Y-13443214D02*
X9512500Y-13424167D01*
X9531548Y-13414643D01*
X9560119Y-13414643D01*
X9579167Y-13424167D01*
X9588690Y-13443214D01*
X9588690Y-13547976D01*
X9683929Y-13547976D02*
X9683929Y-13414643D01*
X9683929Y-13433690D02*
X9693452Y-13424167D01*
X9712500Y-13414643D01*
X9741071Y-13414643D01*
X9760119Y-13424167D01*
X9769643Y-13443214D01*
X9769643Y-13547976D01*
X9769643Y-13443214D02*
X9779167Y-13424167D01*
X9798214Y-13414643D01*
X9826786Y-13414643D01*
X9845833Y-13424167D01*
X9855357Y-13443214D01*
X9855357Y-13547976D01*
X10245833Y-13338452D02*
X10074405Y-13595595D01*
X10502976Y-13347976D02*
X10522024Y-13347976D01*
X10541071Y-13357500D01*
X10550595Y-13367024D01*
X10560119Y-13386071D01*
X10569643Y-13424167D01*
X10569643Y-13471786D01*
X10560119Y-13509881D01*
X10550595Y-13528928D01*
X10541071Y-13538452D01*
X10522024Y-13547976D01*
X10502976Y-13547976D01*
X10483929Y-13538452D01*
X10474405Y-13528928D01*
X10464881Y-13509881D01*
X10455357Y-13471786D01*
X10455357Y-13424167D01*
X10464881Y-13386071D01*
X10474405Y-13367024D01*
X10483929Y-13357500D01*
X10502976Y-13347976D01*
X10655357Y-13528928D02*
X10664881Y-13538452D01*
X10655357Y-13547976D01*
X10645833Y-13538452D01*
X10655357Y-13528928D01*
X10655357Y-13547976D01*
X10788690Y-13347976D02*
X10807738Y-13347976D01*
X10826786Y-13357500D01*
X10836310Y-13367024D01*
X10845833Y-13386071D01*
X10855357Y-13424167D01*
X10855357Y-13471786D01*
X10845833Y-13509881D01*
X10836310Y-13528928D01*
X10826786Y-13538452D01*
X10807738Y-13547976D01*
X10788690Y-13547976D01*
X10769643Y-13538452D01*
X10760119Y-13528928D01*
X10750595Y-13509881D01*
X10741071Y-13471786D01*
X10741071Y-13424167D01*
X10750595Y-13386071D01*
X10760119Y-13367024D01*
X10769643Y-13357500D01*
X10788690Y-13347976D01*
X11045833Y-13547976D02*
X10931548Y-13547976D01*
X10988690Y-13547976D02*
X10988690Y-13347976D01*
X10969643Y-13376548D01*
X10950595Y-13395595D01*
X10931548Y-13405119D01*
X11226786Y-13347976D02*
X11131548Y-13347976D01*
X11122024Y-13443214D01*
X11131548Y-13433690D01*
X11150595Y-13424167D01*
X11198214Y-13424167D01*
X11217262Y-13433690D01*
X11226786Y-13443214D01*
X11236309Y-13462262D01*
X11236309Y-13509881D01*
X11226786Y-13528928D01*
X11217262Y-13538452D01*
X11198214Y-13547976D01*
X11150595Y-13547976D01*
X11131548Y-13538452D01*
X11122024Y-13528928D01*
X11302976Y-13347976D02*
X11436309Y-13347976D01*
X11350595Y-13547976D01*
X11502976Y-13347976D02*
X11502976Y-13386071D01*
X11579167Y-13347976D02*
X11579167Y-13386071D01*
X11874405Y-13624167D02*
X11864881Y-13614643D01*
X11845833Y-13586071D01*
X11836309Y-13567024D01*
X11826786Y-13538452D01*
X11817262Y-13490833D01*
X11817262Y-13452738D01*
X11826786Y-13405119D01*
X11836309Y-13376548D01*
X11845833Y-13357500D01*
X11864881Y-13328928D01*
X11874405Y-13319405D01*
X12055357Y-13547976D02*
X11941071Y-13547976D01*
X11998214Y-13547976D02*
X11998214Y-13347976D01*
X11979167Y-13376548D01*
X11960119Y-13395595D01*
X11941071Y-13405119D01*
X12169643Y-13433690D02*
X12150595Y-13424167D01*
X12141071Y-13414643D01*
X12131548Y-13395595D01*
X12131548Y-13386071D01*
X12141071Y-13367024D01*
X12150595Y-13357500D01*
X12169643Y-13347976D01*
X12207738Y-13347976D01*
X12226786Y-13357500D01*
X12236309Y-13367024D01*
X12245833Y-13386071D01*
X12245833Y-13395595D01*
X12236309Y-13414643D01*
X12226786Y-13424167D01*
X12207738Y-13433690D01*
X12169643Y-13433690D01*
X12150595Y-13443214D01*
X12141071Y-13452738D01*
X12131548Y-13471786D01*
X12131548Y-13509881D01*
X12141071Y-13528928D01*
X12150595Y-13538452D01*
X12169643Y-13547976D01*
X12207738Y-13547976D01*
X12226786Y-13538452D01*
X12236309Y-13528928D01*
X12245833Y-13509881D01*
X12245833Y-13471786D01*
X12236309Y-13452738D01*
X12226786Y-13443214D01*
X12207738Y-13433690D01*
X12483928Y-13547976D02*
X12483928Y-13347976D01*
X12569643Y-13547976D02*
X12569643Y-13443214D01*
X12560119Y-13424167D01*
X12541071Y-13414643D01*
X12512500Y-13414643D01*
X12493452Y-13424167D01*
X12483928Y-13433690D01*
X12693452Y-13547976D02*
X12674405Y-13538452D01*
X12664881Y-13528928D01*
X12655357Y-13509881D01*
X12655357Y-13452738D01*
X12664881Y-13433690D01*
X12674405Y-13424167D01*
X12693452Y-13414643D01*
X12722024Y-13414643D01*
X12741071Y-13424167D01*
X12750595Y-13433690D01*
X12760119Y-13452738D01*
X12760119Y-13509881D01*
X12750595Y-13528928D01*
X12741071Y-13538452D01*
X12722024Y-13547976D01*
X12693452Y-13547976D01*
X12874405Y-13547976D02*
X12855357Y-13538452D01*
X12845833Y-13519405D01*
X12845833Y-13347976D01*
X13026786Y-13538452D02*
X13007738Y-13547976D01*
X12969643Y-13547976D01*
X12950595Y-13538452D01*
X12941071Y-13519405D01*
X12941071Y-13443214D01*
X12950595Y-13424167D01*
X12969643Y-13414643D01*
X13007738Y-13414643D01*
X13026786Y-13424167D01*
X13036309Y-13443214D01*
X13036309Y-13462262D01*
X12941071Y-13481309D01*
X13112500Y-13538452D02*
X13131548Y-13547976D01*
X13169643Y-13547976D01*
X13188690Y-13538452D01*
X13198214Y-13519405D01*
X13198214Y-13509881D01*
X13188690Y-13490833D01*
X13169643Y-13481309D01*
X13141071Y-13481309D01*
X13122024Y-13471786D01*
X13112500Y-13452738D01*
X13112500Y-13443214D01*
X13122024Y-13424167D01*
X13141071Y-13414643D01*
X13169643Y-13414643D01*
X13188690Y-13424167D01*
X13264881Y-13624167D02*
X13274405Y-13614643D01*
X13293452Y-13586071D01*
X13302976Y-13567024D01*
X13312500Y-13538452D01*
X13322024Y-13490833D01*
X13322024Y-13452738D01*
X13312500Y-13405119D01*
X13302976Y-13376548D01*
X13293452Y-13357500D01*
X13274405Y-13328928D01*
X13264881Y-13319405D01*
D13*
X8302500Y-13721500D02*
G75*
G03*
X8302500Y-13721500I-40000J0D01*
G01*
D11*
X8598214Y-13611976D02*
X8617262Y-13611976D01*
X8636310Y-13621500D01*
X8645833Y-13631024D01*
X8655357Y-13650071D01*
X8664881Y-13688167D01*
X8664881Y-13735786D01*
X8655357Y-13773881D01*
X8645833Y-13792928D01*
X8636310Y-13802452D01*
X8617262Y-13811976D01*
X8598214Y-13811976D01*
X8579167Y-13802452D01*
X8569643Y-13792928D01*
X8560119Y-13773881D01*
X8550595Y-13735786D01*
X8550595Y-13688167D01*
X8560119Y-13650071D01*
X8569643Y-13631024D01*
X8579167Y-13621500D01*
X8598214Y-13611976D01*
X8750595Y-13792928D02*
X8760119Y-13802452D01*
X8750595Y-13811976D01*
X8741071Y-13802452D01*
X8750595Y-13792928D01*
X8750595Y-13811976D01*
X8874405Y-13697690D02*
X8855357Y-13688167D01*
X8845833Y-13678643D01*
X8836310Y-13659595D01*
X8836310Y-13650071D01*
X8845833Y-13631024D01*
X8855357Y-13621500D01*
X8874405Y-13611976D01*
X8912500Y-13611976D01*
X8931548Y-13621500D01*
X8941071Y-13631024D01*
X8950595Y-13650071D01*
X8950595Y-13659595D01*
X8941071Y-13678643D01*
X8931548Y-13688167D01*
X8912500Y-13697690D01*
X8874405Y-13697690D01*
X8855357Y-13707214D01*
X8845833Y-13716738D01*
X8836310Y-13735786D01*
X8836310Y-13773881D01*
X8845833Y-13792928D01*
X8855357Y-13802452D01*
X8874405Y-13811976D01*
X8912500Y-13811976D01*
X8931548Y-13802452D01*
X8941071Y-13792928D01*
X8950595Y-13773881D01*
X8950595Y-13735786D01*
X8941071Y-13716738D01*
X8931548Y-13707214D01*
X8912500Y-13697690D01*
X9074405Y-13611976D02*
X9093452Y-13611976D01*
X9112500Y-13621500D01*
X9122024Y-13631024D01*
X9131548Y-13650071D01*
X9141071Y-13688167D01*
X9141071Y-13735786D01*
X9131548Y-13773881D01*
X9122024Y-13792928D01*
X9112500Y-13802452D01*
X9093452Y-13811976D01*
X9074405Y-13811976D01*
X9055357Y-13802452D01*
X9045833Y-13792928D01*
X9036310Y-13773881D01*
X9026786Y-13735786D01*
X9026786Y-13688167D01*
X9036310Y-13650071D01*
X9045833Y-13631024D01*
X9055357Y-13621500D01*
X9074405Y-13611976D01*
X9264881Y-13611976D02*
X9283929Y-13611976D01*
X9302976Y-13621500D01*
X9312500Y-13631024D01*
X9322024Y-13650071D01*
X9331548Y-13688167D01*
X9331548Y-13735786D01*
X9322024Y-13773881D01*
X9312500Y-13792928D01*
X9302976Y-13802452D01*
X9283929Y-13811976D01*
X9264881Y-13811976D01*
X9245833Y-13802452D01*
X9236310Y-13792928D01*
X9226786Y-13773881D01*
X9217262Y-13735786D01*
X9217262Y-13688167D01*
X9226786Y-13650071D01*
X9236310Y-13631024D01*
X9245833Y-13621500D01*
X9264881Y-13611976D01*
X9417262Y-13811976D02*
X9417262Y-13678643D01*
X9417262Y-13697690D02*
X9426786Y-13688167D01*
X9445833Y-13678643D01*
X9474405Y-13678643D01*
X9493452Y-13688167D01*
X9502976Y-13707214D01*
X9502976Y-13811976D01*
X9502976Y-13707214D02*
X9512500Y-13688167D01*
X9531548Y-13678643D01*
X9560119Y-13678643D01*
X9579167Y-13688167D01*
X9588690Y-13707214D01*
X9588690Y-13811976D01*
X9683929Y-13811976D02*
X9683929Y-13678643D01*
X9683929Y-13697690D02*
X9693452Y-13688167D01*
X9712500Y-13678643D01*
X9741071Y-13678643D01*
X9760119Y-13688167D01*
X9769643Y-13707214D01*
X9769643Y-13811976D01*
X9769643Y-13707214D02*
X9779167Y-13688167D01*
X9798214Y-13678643D01*
X9826786Y-13678643D01*
X9845833Y-13688167D01*
X9855357Y-13707214D01*
X9855357Y-13811976D01*
X10245833Y-13602452D02*
X10074405Y-13859595D01*
X10502976Y-13611976D02*
X10522024Y-13611976D01*
X10541071Y-13621500D01*
X10550595Y-13631024D01*
X10560119Y-13650071D01*
X10569643Y-13688167D01*
X10569643Y-13735786D01*
X10560119Y-13773881D01*
X10550595Y-13792928D01*
X10541071Y-13802452D01*
X10522024Y-13811976D01*
X10502976Y-13811976D01*
X10483929Y-13802452D01*
X10474405Y-13792928D01*
X10464881Y-13773881D01*
X10455357Y-13735786D01*
X10455357Y-13688167D01*
X10464881Y-13650071D01*
X10474405Y-13631024D01*
X10483929Y-13621500D01*
X10502976Y-13611976D01*
X10655357Y-13792928D02*
X10664881Y-13802452D01*
X10655357Y-13811976D01*
X10645833Y-13802452D01*
X10655357Y-13792928D01*
X10655357Y-13811976D01*
X10788690Y-13611976D02*
X10807738Y-13611976D01*
X10826786Y-13621500D01*
X10836310Y-13631024D01*
X10845833Y-13650071D01*
X10855357Y-13688167D01*
X10855357Y-13735786D01*
X10845833Y-13773881D01*
X10836310Y-13792928D01*
X10826786Y-13802452D01*
X10807738Y-13811976D01*
X10788690Y-13811976D01*
X10769643Y-13802452D01*
X10760119Y-13792928D01*
X10750595Y-13773881D01*
X10741071Y-13735786D01*
X10741071Y-13688167D01*
X10750595Y-13650071D01*
X10760119Y-13631024D01*
X10769643Y-13621500D01*
X10788690Y-13611976D01*
X10922024Y-13611976D02*
X11045833Y-13611976D01*
X10979167Y-13688167D01*
X11007738Y-13688167D01*
X11026786Y-13697690D01*
X11036310Y-13707214D01*
X11045833Y-13726262D01*
X11045833Y-13773881D01*
X11036310Y-13792928D01*
X11026786Y-13802452D01*
X11007738Y-13811976D01*
X10950595Y-13811976D01*
X10931548Y-13802452D01*
X10922024Y-13792928D01*
X11236309Y-13811976D02*
X11122024Y-13811976D01*
X11179167Y-13811976D02*
X11179167Y-13611976D01*
X11160119Y-13640548D01*
X11141071Y-13659595D01*
X11122024Y-13669119D01*
X11417262Y-13611976D02*
X11322024Y-13611976D01*
X11312500Y-13707214D01*
X11322024Y-13697690D01*
X11341071Y-13688167D01*
X11388690Y-13688167D01*
X11407738Y-13697690D01*
X11417262Y-13707214D01*
X11426786Y-13726262D01*
X11426786Y-13773881D01*
X11417262Y-13792928D01*
X11407738Y-13802452D01*
X11388690Y-13811976D01*
X11341071Y-13811976D01*
X11322024Y-13802452D01*
X11312500Y-13792928D01*
X11502976Y-13611976D02*
X11502976Y-13650071D01*
X11579167Y-13611976D02*
X11579167Y-13650071D01*
X11874405Y-13888167D02*
X11864881Y-13878643D01*
X11845833Y-13850071D01*
X11836309Y-13831024D01*
X11826786Y-13802452D01*
X11817262Y-13754833D01*
X11817262Y-13716738D01*
X11826786Y-13669119D01*
X11836309Y-13640548D01*
X11845833Y-13621500D01*
X11864881Y-13592928D01*
X11874405Y-13583405D01*
X11979167Y-13697690D02*
X11960119Y-13688167D01*
X11950595Y-13678643D01*
X11941071Y-13659595D01*
X11941071Y-13650071D01*
X11950595Y-13631024D01*
X11960119Y-13621500D01*
X11979167Y-13611976D01*
X12017262Y-13611976D01*
X12036309Y-13621500D01*
X12045833Y-13631024D01*
X12055357Y-13650071D01*
X12055357Y-13659595D01*
X12045833Y-13678643D01*
X12036309Y-13688167D01*
X12017262Y-13697690D01*
X11979167Y-13697690D01*
X11960119Y-13707214D01*
X11950595Y-13716738D01*
X11941071Y-13735786D01*
X11941071Y-13773881D01*
X11950595Y-13792928D01*
X11960119Y-13802452D01*
X11979167Y-13811976D01*
X12017262Y-13811976D01*
X12036309Y-13802452D01*
X12045833Y-13792928D01*
X12055357Y-13773881D01*
X12055357Y-13735786D01*
X12045833Y-13716738D01*
X12036309Y-13707214D01*
X12017262Y-13697690D01*
X12236309Y-13611976D02*
X12141071Y-13611976D01*
X12131548Y-13707214D01*
X12141071Y-13697690D01*
X12160119Y-13688167D01*
X12207738Y-13688167D01*
X12226786Y-13697690D01*
X12236309Y-13707214D01*
X12245833Y-13726262D01*
X12245833Y-13773881D01*
X12236309Y-13792928D01*
X12226786Y-13802452D01*
X12207738Y-13811976D01*
X12160119Y-13811976D01*
X12141071Y-13802452D01*
X12131548Y-13792928D01*
X12483928Y-13811976D02*
X12483928Y-13611976D01*
X12569643Y-13811976D02*
X12569643Y-13707214D01*
X12560119Y-13688167D01*
X12541071Y-13678643D01*
X12512500Y-13678643D01*
X12493452Y-13688167D01*
X12483928Y-13697690D01*
X12693452Y-13811976D02*
X12674405Y-13802452D01*
X12664881Y-13792928D01*
X12655357Y-13773881D01*
X12655357Y-13716738D01*
X12664881Y-13697690D01*
X12674405Y-13688167D01*
X12693452Y-13678643D01*
X12722024Y-13678643D01*
X12741071Y-13688167D01*
X12750595Y-13697690D01*
X12760119Y-13716738D01*
X12760119Y-13773881D01*
X12750595Y-13792928D01*
X12741071Y-13802452D01*
X12722024Y-13811976D01*
X12693452Y-13811976D01*
X12874405Y-13811976D02*
X12855357Y-13802452D01*
X12845833Y-13783405D01*
X12845833Y-13611976D01*
X13026786Y-13802452D02*
X13007738Y-13811976D01*
X12969643Y-13811976D01*
X12950595Y-13802452D01*
X12941071Y-13783405D01*
X12941071Y-13707214D01*
X12950595Y-13688167D01*
X12969643Y-13678643D01*
X13007738Y-13678643D01*
X13026786Y-13688167D01*
X13036309Y-13707214D01*
X13036309Y-13726262D01*
X12941071Y-13745309D01*
X13112500Y-13802452D02*
X13131548Y-13811976D01*
X13169643Y-13811976D01*
X13188690Y-13802452D01*
X13198214Y-13783405D01*
X13198214Y-13773881D01*
X13188690Y-13754833D01*
X13169643Y-13745309D01*
X13141071Y-13745309D01*
X13122024Y-13735786D01*
X13112500Y-13716738D01*
X13112500Y-13707214D01*
X13122024Y-13688167D01*
X13141071Y-13678643D01*
X13169643Y-13678643D01*
X13188690Y-13688167D01*
X13264881Y-13888167D02*
X13274405Y-13878643D01*
X13293452Y-13850071D01*
X13302976Y-13831024D01*
X13312500Y-13802452D01*
X13322024Y-13754833D01*
X13322024Y-13716738D01*
X13312500Y-13669119D01*
X13302976Y-13640548D01*
X13293452Y-13621500D01*
X13274405Y-13592928D01*
X13264881Y-13583405D01*
D14*
X8252500Y-13935500D02*
X8252500Y-14035500D01*
X8202500Y-13985500D02*
X8302500Y-13985500D01*
D11*
X8664881Y-14075976D02*
X8550595Y-14075976D01*
X8607738Y-14075976D02*
X8607738Y-13875976D01*
X8588690Y-13904548D01*
X8569643Y-13923595D01*
X8550595Y-13933119D01*
X8750595Y-14056928D02*
X8760119Y-14066452D01*
X8750595Y-14075976D01*
X8741071Y-14066452D01*
X8750595Y-14056928D01*
X8750595Y-14075976D01*
X8883929Y-13875976D02*
X8902976Y-13875976D01*
X8922024Y-13885500D01*
X8931548Y-13895024D01*
X8941071Y-13914071D01*
X8950595Y-13952167D01*
X8950595Y-13999786D01*
X8941071Y-14037881D01*
X8931548Y-14056928D01*
X8922024Y-14066452D01*
X8902976Y-14075976D01*
X8883929Y-14075976D01*
X8864881Y-14066452D01*
X8855357Y-14056928D01*
X8845833Y-14037881D01*
X8836310Y-13999786D01*
X8836310Y-13952167D01*
X8845833Y-13914071D01*
X8855357Y-13895024D01*
X8864881Y-13885500D01*
X8883929Y-13875976D01*
X9074405Y-13875976D02*
X9093452Y-13875976D01*
X9112500Y-13885500D01*
X9122024Y-13895024D01*
X9131548Y-13914071D01*
X9141071Y-13952167D01*
X9141071Y-13999786D01*
X9131548Y-14037881D01*
X9122024Y-14056928D01*
X9112500Y-14066452D01*
X9093452Y-14075976D01*
X9074405Y-14075976D01*
X9055357Y-14066452D01*
X9045833Y-14056928D01*
X9036310Y-14037881D01*
X9026786Y-13999786D01*
X9026786Y-13952167D01*
X9036310Y-13914071D01*
X9045833Y-13895024D01*
X9055357Y-13885500D01*
X9074405Y-13875976D01*
X9264881Y-13875976D02*
X9283929Y-13875976D01*
X9302976Y-13885500D01*
X9312500Y-13895024D01*
X9322024Y-13914071D01*
X9331548Y-13952167D01*
X9331548Y-13999786D01*
X9322024Y-14037881D01*
X9312500Y-14056928D01*
X9302976Y-14066452D01*
X9283929Y-14075976D01*
X9264881Y-14075976D01*
X9245833Y-14066452D01*
X9236310Y-14056928D01*
X9226786Y-14037881D01*
X9217262Y-13999786D01*
X9217262Y-13952167D01*
X9226786Y-13914071D01*
X9236310Y-13895024D01*
X9245833Y-13885500D01*
X9264881Y-13875976D01*
X9417262Y-14075976D02*
X9417262Y-13942643D01*
X9417262Y-13961690D02*
X9426786Y-13952167D01*
X9445833Y-13942643D01*
X9474405Y-13942643D01*
X9493452Y-13952167D01*
X9502976Y-13971214D01*
X9502976Y-14075976D01*
X9502976Y-13971214D02*
X9512500Y-13952167D01*
X9531548Y-13942643D01*
X9560119Y-13942643D01*
X9579167Y-13952167D01*
X9588690Y-13971214D01*
X9588690Y-14075976D01*
X9683929Y-14075976D02*
X9683929Y-13942643D01*
X9683929Y-13961690D02*
X9693452Y-13952167D01*
X9712500Y-13942643D01*
X9741071Y-13942643D01*
X9760119Y-13952167D01*
X9769643Y-13971214D01*
X9769643Y-14075976D01*
X9769643Y-13971214D02*
X9779167Y-13952167D01*
X9798214Y-13942643D01*
X9826786Y-13942643D01*
X9845833Y-13952167D01*
X9855357Y-13971214D01*
X9855357Y-14075976D01*
X10245833Y-13866452D02*
X10074405Y-14123595D01*
X10502976Y-13875976D02*
X10522024Y-13875976D01*
X10541071Y-13885500D01*
X10550595Y-13895024D01*
X10560119Y-13914071D01*
X10569643Y-13952167D01*
X10569643Y-13999786D01*
X10560119Y-14037881D01*
X10550595Y-14056928D01*
X10541071Y-14066452D01*
X10522024Y-14075976D01*
X10502976Y-14075976D01*
X10483929Y-14066452D01*
X10474405Y-14056928D01*
X10464881Y-14037881D01*
X10455357Y-13999786D01*
X10455357Y-13952167D01*
X10464881Y-13914071D01*
X10474405Y-13895024D01*
X10483929Y-13885500D01*
X10502976Y-13875976D01*
X10655357Y-14056928D02*
X10664881Y-14066452D01*
X10655357Y-14075976D01*
X10645833Y-14066452D01*
X10655357Y-14056928D01*
X10655357Y-14075976D01*
X10788690Y-13875976D02*
X10807738Y-13875976D01*
X10826786Y-13885500D01*
X10836310Y-13895024D01*
X10845833Y-13914071D01*
X10855357Y-13952167D01*
X10855357Y-13999786D01*
X10845833Y-14037881D01*
X10836310Y-14056928D01*
X10826786Y-14066452D01*
X10807738Y-14075976D01*
X10788690Y-14075976D01*
X10769643Y-14066452D01*
X10760119Y-14056928D01*
X10750595Y-14037881D01*
X10741071Y-13999786D01*
X10741071Y-13952167D01*
X10750595Y-13914071D01*
X10760119Y-13895024D01*
X10769643Y-13885500D01*
X10788690Y-13875976D01*
X10922024Y-13875976D02*
X11045833Y-13875976D01*
X10979167Y-13952167D01*
X11007738Y-13952167D01*
X11026786Y-13961690D01*
X11036310Y-13971214D01*
X11045833Y-13990262D01*
X11045833Y-14037881D01*
X11036310Y-14056928D01*
X11026786Y-14066452D01*
X11007738Y-14075976D01*
X10950595Y-14075976D01*
X10931548Y-14066452D01*
X10922024Y-14056928D01*
X11141071Y-14075976D02*
X11179167Y-14075976D01*
X11198214Y-14066452D01*
X11207738Y-14056928D01*
X11226786Y-14028357D01*
X11236309Y-13990262D01*
X11236309Y-13914071D01*
X11226786Y-13895024D01*
X11217262Y-13885500D01*
X11198214Y-13875976D01*
X11160119Y-13875976D01*
X11141071Y-13885500D01*
X11131548Y-13895024D01*
X11122024Y-13914071D01*
X11122024Y-13961690D01*
X11131548Y-13980738D01*
X11141071Y-13990262D01*
X11160119Y-13999786D01*
X11198214Y-13999786D01*
X11217262Y-13990262D01*
X11226786Y-13980738D01*
X11236309Y-13961690D01*
X11407738Y-13942643D02*
X11407738Y-14075976D01*
X11360119Y-13866452D02*
X11312500Y-14009309D01*
X11436309Y-14009309D01*
X11502976Y-13875976D02*
X11502976Y-13914071D01*
X11579167Y-13875976D02*
X11579167Y-13914071D01*
X11874405Y-14152167D02*
X11864881Y-14142643D01*
X11845833Y-14114071D01*
X11836309Y-14095024D01*
X11826786Y-14066452D01*
X11817262Y-14018833D01*
X11817262Y-13980738D01*
X11826786Y-13933119D01*
X11836309Y-13904548D01*
X11845833Y-13885500D01*
X11864881Y-13856928D01*
X11874405Y-13847405D01*
X12055357Y-14075976D02*
X11941071Y-14075976D01*
X11998214Y-14075976D02*
X11998214Y-13875976D01*
X11979167Y-13904548D01*
X11960119Y-13923595D01*
X11941071Y-13933119D01*
X12131548Y-13895024D02*
X12141071Y-13885500D01*
X12160119Y-13875976D01*
X12207738Y-13875976D01*
X12226786Y-13885500D01*
X12236309Y-13895024D01*
X12245833Y-13914071D01*
X12245833Y-13933119D01*
X12236309Y-13961690D01*
X12122024Y-14075976D01*
X12245833Y-14075976D01*
X12483928Y-14075976D02*
X12483928Y-13875976D01*
X12569643Y-14075976D02*
X12569643Y-13971214D01*
X12560119Y-13952167D01*
X12541071Y-13942643D01*
X12512500Y-13942643D01*
X12493452Y-13952167D01*
X12483928Y-13961690D01*
X12693452Y-14075976D02*
X12674405Y-14066452D01*
X12664881Y-14056928D01*
X12655357Y-14037881D01*
X12655357Y-13980738D01*
X12664881Y-13961690D01*
X12674405Y-13952167D01*
X12693452Y-13942643D01*
X12722024Y-13942643D01*
X12741071Y-13952167D01*
X12750595Y-13961690D01*
X12760119Y-13980738D01*
X12760119Y-14037881D01*
X12750595Y-14056928D01*
X12741071Y-14066452D01*
X12722024Y-14075976D01*
X12693452Y-14075976D01*
X12874405Y-14075976D02*
X12855357Y-14066452D01*
X12845833Y-14047405D01*
X12845833Y-13875976D01*
X13026786Y-14066452D02*
X13007738Y-14075976D01*
X12969643Y-14075976D01*
X12950595Y-14066452D01*
X12941071Y-14047405D01*
X12941071Y-13971214D01*
X12950595Y-13952167D01*
X12969643Y-13942643D01*
X13007738Y-13942643D01*
X13026786Y-13952167D01*
X13036309Y-13971214D01*
X13036309Y-13990262D01*
X12941071Y-14009309D01*
X13112500Y-14066452D02*
X13131548Y-14075976D01*
X13169643Y-14075976D01*
X13188690Y-14066452D01*
X13198214Y-14047405D01*
X13198214Y-14037881D01*
X13188690Y-14018833D01*
X13169643Y-14009309D01*
X13141071Y-14009309D01*
X13122024Y-13999786D01*
X13112500Y-13980738D01*
X13112500Y-13971214D01*
X13122024Y-13952167D01*
X13141071Y-13942643D01*
X13169643Y-13942643D01*
X13188690Y-13952167D01*
X13264881Y-14152167D02*
X13274405Y-14142643D01*
X13293452Y-14114071D01*
X13302976Y-14095024D01*
X13312500Y-14066452D01*
X13322024Y-14018833D01*
X13322024Y-13980738D01*
X13312500Y-13933119D01*
X13302976Y-13904548D01*
X13293452Y-13885500D01*
X13274405Y-13856928D01*
X13264881Y-13847405D01*
M02*
