%TF.GenerationSoftware,KiCad,Pcbnew,(6.0.0)*%
%TF.CreationDate,2022-03-13T17:54:28-04:00*%
%TF.ProjectId,jaguar controller lower pcb,6a616775-6172-4206-936f-6e74726f6c6c,rev?*%
%TF.SameCoordinates,Original*%
%TF.FileFunction,Copper,L1,Top*%
%TF.FilePolarity,Positive*%
%FSLAX46Y46*%
G04 Gerber Fmt 4.6, Leading zero omitted, Abs format (unit mm)*
G04 Created by KiCad (PCBNEW (6.0.0)) date 2022-03-13 17:54:28*
%MOMM*%
%LPD*%
G01*
G04 APERTURE LIST*
%TA.AperFunction,SMDPad,CuDef*%
%ADD10R,0.720000X3.970000*%
%TD*%
%TA.AperFunction,SMDPad,CuDef*%
%ADD11R,11.720000X0.720000*%
%TD*%
%TA.AperFunction,ComponentPad*%
%ADD12C,1.600000*%
%TD*%
%TA.AperFunction,ComponentPad*%
%ADD13O,1.600000X1.600000*%
%TD*%
%TA.AperFunction,ComponentPad*%
%ADD14R,1.600000X1.600000*%
%TD*%
%TA.AperFunction,ComponentPad*%
%ADD15R,1.700000X1.700000*%
%TD*%
%TA.AperFunction,ComponentPad*%
%ADD16O,1.700000X1.700000*%
%TD*%
%TA.AperFunction,ComponentPad*%
%ADD17R,1.350000X1.350000*%
%TD*%
%TA.AperFunction,ComponentPad*%
%ADD18O,1.350000X1.350000*%
%TD*%
%TA.AperFunction,ViaPad*%
%ADD19C,0.800000*%
%TD*%
%TA.AperFunction,Conductor*%
%ADD20C,0.250000*%
%TD*%
G04 APERTURE END LIST*
D10*
%TO.P,SW10,1,1*%
%TO.N,Net-(D3-Pad1)*%
X172345000Y-81965000D03*
X177225000Y-81965000D03*
X167465000Y-81965000D03*
D11*
X172965000Y-80340000D03*
D10*
X174785000Y-81965000D03*
X169905000Y-81965000D03*
%TO.P,SW10,2,2*%
%TO.N,/Opt com*%
X178445000Y-83185000D03*
X176005000Y-83185000D03*
X171125000Y-83185000D03*
X168685000Y-83185000D03*
X173565000Y-83185000D03*
D11*
X172965000Y-84810000D03*
%TD*%
D10*
%TO.P,SW12,1,1*%
%TO.N,Net-(D19-Pad1)*%
X169905000Y-120895000D03*
D11*
X172965000Y-119270000D03*
D10*
X172345000Y-120895000D03*
X177225000Y-120895000D03*
X174785000Y-120895000D03*
X167465000Y-120895000D03*
%TO.P,SW12,2,2*%
%TO.N,/Opt com*%
X171125000Y-122115000D03*
X178445000Y-122115000D03*
D11*
X172965000Y-123740000D03*
D10*
X168685000Y-122115000D03*
X173565000Y-122115000D03*
X176005000Y-122115000D03*
%TD*%
%TO.P,SW5,1,1*%
%TO.N,Net-(D5-Pad1)*%
X154855000Y-95275000D03*
X157295000Y-95275000D03*
X149975000Y-95275000D03*
X152415000Y-95275000D03*
X147535000Y-95275000D03*
D11*
X153035000Y-93650000D03*
D10*
%TO.P,SW5,2,2*%
%TO.N,/Ccom*%
X153635000Y-96495000D03*
X158515000Y-96495000D03*
X151195000Y-96495000D03*
D11*
X153035000Y-98120000D03*
D10*
X156075000Y-96495000D03*
X148755000Y-96495000D03*
%TD*%
%TO.P,SW2,1,1*%
%TO.N,Net-(D4-Pad1)*%
X127545000Y-95275000D03*
D11*
X133045000Y-93650000D03*
D10*
X137305000Y-95275000D03*
X132425000Y-95275000D03*
X129985000Y-95275000D03*
X134865000Y-95275000D03*
%TO.P,SW2,2,2*%
%TO.N,/Bcom*%
X136085000Y-96495000D03*
X128765000Y-96495000D03*
D11*
X133045000Y-98120000D03*
D10*
X133645000Y-96495000D03*
X131205000Y-96495000D03*
X138525000Y-96495000D03*
%TD*%
%TO.P,SW1,1,1*%
%TO.N,Net-(D1-Pad1)*%
X127545000Y-81965000D03*
X129985000Y-81965000D03*
D11*
X133045000Y-80340000D03*
D10*
X134865000Y-81965000D03*
X137305000Y-81965000D03*
X132425000Y-81965000D03*
%TO.P,SW1,2,2*%
%TO.N,/Bcom*%
X136085000Y-83185000D03*
D11*
X133045000Y-84810000D03*
D10*
X133645000Y-83185000D03*
X138525000Y-83185000D03*
X128765000Y-83185000D03*
X131205000Y-83185000D03*
%TD*%
D11*
%TO.P,SW9,1,1*%
%TO.N,Net-(D6-Pad1)*%
X172965000Y-93650000D03*
D10*
X167465000Y-95275000D03*
X172345000Y-95275000D03*
X169905000Y-95275000D03*
X174785000Y-95275000D03*
X177225000Y-95275000D03*
D11*
%TO.P,SW9,2,2*%
%TO.N,/Opt com*%
X172965000Y-98120000D03*
D10*
X168685000Y-96495000D03*
X176005000Y-96495000D03*
X173565000Y-96495000D03*
X171125000Y-96495000D03*
X178445000Y-96495000D03*
%TD*%
%TO.P,SW6,1,1*%
%TO.N,Net-(D2-Pad1)*%
X154855000Y-81965000D03*
X152415000Y-81965000D03*
X147535000Y-81965000D03*
D11*
X153035000Y-80340000D03*
D10*
X149975000Y-81965000D03*
X157295000Y-81965000D03*
%TO.P,SW6,2,2*%
%TO.N,/Ccom*%
X148755000Y-83185000D03*
D11*
X153035000Y-84810000D03*
D10*
X158515000Y-83185000D03*
X156075000Y-83185000D03*
X153635000Y-83185000D03*
X151195000Y-83185000D03*
%TD*%
%TO.P,SW3,1,1*%
%TO.N,Net-(D7-Pad1)*%
X129985000Y-107975000D03*
X134865000Y-107975000D03*
D11*
X133045000Y-106350000D03*
D10*
X127545000Y-107975000D03*
X137305000Y-107975000D03*
X132425000Y-107975000D03*
%TO.P,SW3,2,2*%
%TO.N,/Bcom*%
X138525000Y-109195000D03*
X131205000Y-109195000D03*
X133645000Y-109195000D03*
X128765000Y-109195000D03*
X136085000Y-109195000D03*
D11*
X133045000Y-110820000D03*
%TD*%
D10*
%TO.P,SW8,1,1*%
%TO.N,Net-(D10-Pad1)*%
X152415000Y-120895000D03*
X157295000Y-120895000D03*
X149975000Y-120895000D03*
X147535000Y-120895000D03*
D11*
X153035000Y-119270000D03*
D10*
X154855000Y-120895000D03*
%TO.P,SW8,2,2*%
%TO.N,/Ccom*%
X156075000Y-122115000D03*
D11*
X153035000Y-123740000D03*
D10*
X148755000Y-122115000D03*
X158515000Y-122115000D03*
X151195000Y-122115000D03*
X153635000Y-122115000D03*
%TD*%
%TO.P,SW4,1,1*%
%TO.N,Net-(D18-Pad1)*%
X132425000Y-120895000D03*
X137305000Y-120895000D03*
X129985000Y-120895000D03*
X134865000Y-120895000D03*
X127545000Y-120895000D03*
D11*
X133045000Y-119270000D03*
D10*
%TO.P,SW4,2,2*%
%TO.N,/Bcom*%
X138525000Y-122115000D03*
X133645000Y-122115000D03*
X131205000Y-122115000D03*
X136085000Y-122115000D03*
D11*
X133045000Y-123740000D03*
D10*
X128765000Y-122115000D03*
%TD*%
D11*
%TO.P,SW7,1,1*%
%TO.N,Net-(D8-Pad1)*%
X153035000Y-106350000D03*
D10*
X152415000Y-107975000D03*
X149975000Y-107975000D03*
X147535000Y-107975000D03*
X154855000Y-107975000D03*
X157295000Y-107975000D03*
%TO.P,SW7,2,2*%
%TO.N,/Ccom*%
X151195000Y-109195000D03*
D11*
X153035000Y-110820000D03*
D10*
X156075000Y-109195000D03*
X148755000Y-109195000D03*
X158515000Y-109195000D03*
X153635000Y-109195000D03*
%TD*%
%TO.P,SW11,1,1*%
%TO.N,Net-(D9-Pad1)*%
X169905000Y-107975000D03*
X174785000Y-107975000D03*
D11*
X172965000Y-106350000D03*
D10*
X167465000Y-107975000D03*
X177225000Y-107975000D03*
X172345000Y-107975000D03*
%TO.P,SW11,2,2*%
%TO.N,/Opt com*%
X176005000Y-109195000D03*
D11*
X172965000Y-110820000D03*
D10*
X168685000Y-109195000D03*
X171125000Y-109195000D03*
X178445000Y-109195000D03*
X173565000Y-109195000D03*
%TD*%
D12*
%TO.P,R5,1*%
%TO.N,+5V*%
X90695000Y-121635000D03*
D13*
%TO.P,R5,2*%
%TO.N,/row5*%
X90695000Y-111475000D03*
%TD*%
D14*
%TO.P,D11,1,K*%
%TO.N,/up*%
X210075000Y-102585000D03*
D13*
%TO.P,D11,2,A*%
%TO.N,/row6*%
X202455000Y-102585000D03*
%TD*%
D12*
%TO.P,R3,1*%
%TO.N,+5V*%
X100965000Y-109855000D03*
D13*
%TO.P,R3,2*%
%TO.N,/row3*%
X100965000Y-99695000D03*
%TD*%
D14*
%TO.P,D15,1,K*%
%TO.N,/A*%
X202455000Y-77185000D03*
D13*
%TO.P,D15,2,A*%
%TO.N,/row2*%
X202455000Y-84805000D03*
%TD*%
D14*
%TO.P,D2,1,K*%
%TO.N,Net-(D2-Pad1)*%
X121175000Y-82265000D03*
D13*
%TO.P,D2,2,A*%
%TO.N,/row3*%
X113555000Y-82265000D03*
%TD*%
D12*
%TO.P,R4,1*%
%TO.N,+5V*%
X109110000Y-81630000D03*
D13*
%TO.P,R4,2*%
%TO.N,/row4*%
X109110000Y-91790000D03*
%TD*%
D15*
%TO.P,J2,1,Pin_1*%
%TO.N,/Opt com*%
X85775000Y-79515000D03*
D16*
%TO.P,J2,2,Pin_2*%
%TO.N,/Ccom*%
X85775000Y-82055000D03*
%TO.P,J2,3,Pin_3*%
%TO.N,/Bcom*%
X85775000Y-84595000D03*
%TO.P,J2,4,Pin_4*%
%TO.N,/Acom*%
X85775000Y-87135000D03*
%TO.P,J2,5,Pin_5*%
%TO.N,+5V*%
X85775000Y-89675000D03*
%TO.P,J2,6,Pin_6*%
%TO.N,Net-(J2-Pad6)*%
X85775000Y-92215000D03*
%TO.P,J2,7,Pin_7*%
%TO.N,GND*%
X85775000Y-94755000D03*
%TO.P,J2,8,Pin_8*%
%TO.N,Net-(J2-Pad8)*%
X85775000Y-97295000D03*
%TO.P,J2,9,Pin_9*%
%TO.N,Net-(J2-Pad9)*%
X85775000Y-99835000D03*
%TO.P,J2,10,Pin_10*%
%TO.N,Net-(J2-Pad10)*%
X85775000Y-102375000D03*
%TO.P,J2,11,Pin_11*%
%TO.N,Net-(J2-Pad11)*%
X85775000Y-104915000D03*
%TO.P,J2,12,Pin_12*%
%TO.N,Net-(J2-Pad12)*%
X85775000Y-107455000D03*
%TD*%
D14*
%TO.P,D9,1,K*%
%TO.N,Net-(D9-Pad1)*%
X121175000Y-110205000D03*
D13*
%TO.P,D9,2,A*%
%TO.N,/row5*%
X113555000Y-110205000D03*
%TD*%
D12*
%TO.P,R1,1*%
%TO.N,+5V*%
X100855000Y-80995000D03*
D13*
%TO.P,R1,2*%
%TO.N,/Pause*%
X100855000Y-91155000D03*
%TD*%
D14*
%TO.P,D1,1,K*%
%TO.N,Net-(D1-Pad1)*%
X121175000Y-79725000D03*
D13*
%TO.P,D1,2,A*%
%TO.N,/row3*%
X113555000Y-79725000D03*
%TD*%
D14*
%TO.P,D14,1,K*%
%TO.N,/right*%
X192295000Y-73375000D03*
D13*
%TO.P,D14,2,A*%
%TO.N,/row3*%
X192295000Y-80995000D03*
%TD*%
D14*
%TO.P,D12,1,K*%
%TO.N,/down*%
X212615000Y-105125000D03*
D13*
%TO.P,D12,2,A*%
%TO.N,/row5*%
X204995000Y-105125000D03*
%TD*%
D14*
%TO.P,D10,1,K*%
%TO.N,Net-(D10-Pad1)*%
X121175000Y-122905000D03*
D13*
%TO.P,D10,2,A*%
%TO.N,/row6*%
X113555000Y-122905000D03*
%TD*%
D14*
%TO.P,D17,1,K*%
%TO.N,/C*%
X212615000Y-77185000D03*
D13*
%TO.P,D17,2,A*%
%TO.N,/row2*%
X212615000Y-84805000D03*
%TD*%
D14*
%TO.P,D13,1,K*%
%TO.N,/left*%
X212615000Y-100045000D03*
D13*
%TO.P,D13,2,A*%
%TO.N,/row4*%
X204995000Y-100045000D03*
%TD*%
D14*
%TO.P,D5,1,K*%
%TO.N,Net-(D5-Pad1)*%
X121175000Y-94965000D03*
D13*
%TO.P,D5,2,A*%
%TO.N,/row4*%
X113555000Y-94965000D03*
%TD*%
D14*
%TO.P,D6,1,K*%
%TO.N,Net-(D6-Pad1)*%
X121175000Y-92425000D03*
D13*
%TO.P,D6,2,A*%
%TO.N,/row4*%
X113555000Y-92425000D03*
%TD*%
D14*
%TO.P,D4,1,K*%
%TO.N,Net-(D4-Pad1)*%
X121175000Y-105125000D03*
D13*
%TO.P,D4,2,A*%
%TO.N,/row4*%
X113555000Y-105125000D03*
%TD*%
D14*
%TO.P,D3,1,K*%
%TO.N,Net-(D3-Pad1)*%
X121175000Y-84805000D03*
D13*
%TO.P,D3,2,A*%
%TO.N,/row3*%
X113555000Y-84805000D03*
%TD*%
D12*
%TO.P,R2,1*%
%TO.N,+5V*%
X105935000Y-81630000D03*
D13*
%TO.P,R2,2*%
%TO.N,/row2*%
X105935000Y-91790000D03*
%TD*%
D14*
%TO.P,D18,1,K*%
%TO.N,Net-(D18-Pad1)*%
X121175000Y-120365000D03*
D13*
%TO.P,D18,2,A*%
%TO.N,/row6*%
X113555000Y-120365000D03*
%TD*%
D14*
%TO.P,U1,1,1OE*%
%TO.N,GND*%
X97019600Y-85719400D03*
D13*
%TO.P,U1,2,1A0*%
%TO.N,/Pause*%
X97019600Y-88259400D03*
%TO.P,U1,3,2Y0*%
%TO.N,unconnected-(U1-Pad3)*%
X97019600Y-90799400D03*
%TO.P,U1,4,1A1*%
%TO.N,/row2*%
X97019600Y-93339400D03*
%TO.P,U1,5,2Y1*%
%TO.N,unconnected-(U1-Pad5)*%
X97019600Y-95879400D03*
%TO.P,U1,6,1A2*%
%TO.N,/row3*%
X97019600Y-98419400D03*
%TO.P,U1,7,2Y2*%
%TO.N,Net-(J2-Pad10)*%
X97019600Y-100959400D03*
%TO.P,U1,8,1A3*%
%TO.N,/row4*%
X97019600Y-103499400D03*
%TO.P,U1,9,2Y3*%
%TO.N,Net-(J2-Pad11)*%
X97019600Y-106039400D03*
%TO.P,U1,10,GND*%
%TO.N,GND*%
X97019600Y-108579400D03*
%TO.P,U1,11,2A3*%
%TO.N,/row5*%
X89399600Y-108579400D03*
%TO.P,U1,12,1Y3*%
%TO.N,Net-(J2-Pad12)*%
X89399600Y-106039400D03*
%TO.P,U1,13,2A2*%
%TO.N,/row6*%
X89399600Y-103499400D03*
%TO.P,U1,14,1Y2*%
%TO.N,Net-(J2-Pad9)*%
X89399600Y-100959400D03*
%TO.P,U1,15,2A1*%
%TO.N,GND*%
X89399600Y-98419400D03*
%TO.P,U1,16,1Y1*%
%TO.N,Net-(J2-Pad8)*%
X89399600Y-95879400D03*
%TO.P,U1,17,2A0*%
%TO.N,GND*%
X89399600Y-93339400D03*
%TO.P,U1,18,1Y0*%
%TO.N,Net-(J2-Pad6)*%
X89399600Y-90799400D03*
%TO.P,U1,19,2OE*%
%TO.N,GND*%
X89399600Y-88259400D03*
%TO.P,U1,20,VCC*%
%TO.N,+5V*%
X89399600Y-85719400D03*
%TD*%
D14*
%TO.P,D19,1,K*%
%TO.N,Net-(D19-Pad1)*%
X121175000Y-125445000D03*
D13*
%TO.P,D19,2,A*%
%TO.N,/row6*%
X113555000Y-125445000D03*
%TD*%
D14*
%TO.P,D8,1,K*%
%TO.N,Net-(D8-Pad1)*%
X121175000Y-112745000D03*
D13*
%TO.P,D8,2,A*%
%TO.N,/row5*%
X113555000Y-112745000D03*
%TD*%
D14*
%TO.P,D7,1,K*%
%TO.N,Net-(D7-Pad1)*%
X121175000Y-115285000D03*
D13*
%TO.P,D7,2,A*%
%TO.N,/row5*%
X113555000Y-115285000D03*
%TD*%
D12*
%TO.P,R6,1*%
%TO.N,+5V*%
X107840000Y-115231200D03*
D13*
%TO.P,R6,2*%
%TO.N,/row6*%
X107840000Y-105071200D03*
%TD*%
D17*
%TO.P,J1,1,Pin_1*%
%TO.N,/down*%
X137025000Y-73735000D03*
D18*
%TO.P,J1,2,Pin_2*%
%TO.N,/left*%
X139025000Y-73735000D03*
%TO.P,J1,3,Pin_3*%
%TO.N,/up*%
X141025000Y-73735000D03*
%TO.P,J1,4,Pin_4*%
%TO.N,/Pause*%
X143025000Y-73735000D03*
%TO.P,J1,5,Pin_5*%
%TO.N,/Ccom*%
X145025000Y-73735000D03*
%TO.P,J1,6,Pin_6*%
%TO.N,/C*%
X147025000Y-73735000D03*
%TO.P,J1,7,Pin_7*%
%TO.N,/Bcom*%
X149025000Y-73735000D03*
%TO.P,J1,8,Pin_8*%
%TO.N,/B*%
X151025000Y-73735000D03*
%TO.P,J1,9,Pin_9*%
%TO.N,/A*%
X153025000Y-73735000D03*
%TO.P,J1,10,Pin_10*%
%TO.N,/Opt*%
X155025000Y-73735000D03*
%TO.P,J1,11,Pin_11*%
%TO.N,/Opt com*%
X157025000Y-73735000D03*
%TO.P,J1,12,Pin_12*%
%TO.N,/right*%
X159025000Y-73735000D03*
%TO.P,J1,13,Pin_13*%
%TO.N,/Acom*%
X161025000Y-73735000D03*
%TD*%
D14*
%TO.P,D16,1,K*%
%TO.N,/B*%
X197375000Y-77185000D03*
D13*
%TO.P,D16,2,A*%
%TO.N,/row2*%
X197375000Y-84805000D03*
%TD*%
D14*
%TO.P,D20,1,K*%
%TO.N,/Opt*%
X207535000Y-77185000D03*
D13*
%TO.P,D20,2,A*%
%TO.N,/row2*%
X207535000Y-84805000D03*
%TD*%
D19*
%TO.N,/Ccom*%
X187325000Y-98425000D03*
X187960000Y-111760000D03*
X187960000Y-88265000D03*
X187325000Y-102870000D03*
%TO.N,/Bcom*%
X185420000Y-85090000D03*
X184785000Y-98425000D03*
X184785000Y-102870000D03*
X184785000Y-112395000D03*
%TO.N,/Opt com*%
X163830000Y-73025000D03*
X189230000Y-89535000D03*
X189230000Y-72390000D03*
X189230000Y-98425000D03*
X189230000Y-80645000D03*
X167640000Y-69850000D03*
%TO.N,/Acom*%
X170180000Y-69850000D03*
X164465000Y-74930000D03*
%TO.N,GND*%
X103505000Y-100965000D03*
X103499400Y-108579400D03*
%TD*%
D20*
%TO.N,Net-(D1-Pad1)*%
X121175000Y-79725000D02*
X125305000Y-79725000D01*
X125305000Y-79725000D02*
X127545000Y-81965000D01*
%TO.N,/row3*%
X111365000Y-86995000D02*
X113555000Y-84805000D01*
X97019600Y-98419400D02*
X94615000Y-96014800D01*
X97019600Y-98419400D02*
X99689400Y-98419400D01*
X96693700Y-86995000D02*
X111365000Y-86995000D01*
X99689400Y-98419400D02*
X100965000Y-99695000D01*
X113555000Y-84805000D02*
X113555000Y-79725000D01*
X167561440Y-91361440D02*
X190578560Y-91361440D01*
X94615000Y-89073700D02*
X96693700Y-86995000D01*
X94615000Y-96014800D02*
X94615000Y-89073700D01*
X111365000Y-86995000D02*
X163273560Y-86995000D01*
X163273560Y-86995000D02*
X163273560Y-87073560D01*
X192295000Y-89645000D02*
X192295000Y-80995000D01*
X163273560Y-87073560D02*
X167561440Y-91361440D01*
X190578560Y-91361440D02*
X192295000Y-89645000D01*
%TO.N,Net-(D2-Pad1)*%
X147535000Y-81965000D02*
X144005489Y-85494511D01*
X122840000Y-82265000D02*
X121175000Y-82265000D01*
X144005489Y-85494511D02*
X126069511Y-85494511D01*
X126069511Y-85494511D02*
X122840000Y-82265000D01*
%TO.N,Net-(D3-Pad1)*%
X121175000Y-84805000D02*
X122314031Y-85944031D01*
X163485969Y-85944031D02*
X167465000Y-81965000D01*
X122314031Y-85944031D02*
X163485969Y-85944031D01*
%TO.N,Net-(D4-Pad1)*%
X121175000Y-104885000D02*
X126365000Y-99695000D01*
X126365000Y-99695000D02*
X126365000Y-96455000D01*
X126365000Y-96455000D02*
X127545000Y-95275000D01*
X121175000Y-105125000D02*
X121175000Y-104885000D01*
%TO.N,/row4*%
X112110000Y-105125000D02*
X109855000Y-102870000D01*
X109855000Y-102870000D02*
X109855000Y-98665000D01*
X114935000Y-91045000D02*
X164705000Y-91045000D01*
X113555000Y-94965000D02*
X113555000Y-92425000D01*
X164705000Y-91045000D02*
X166370000Y-92710000D01*
X109225600Y-103499400D02*
X109855000Y-102870000D01*
X97019600Y-103499400D02*
X109225600Y-103499400D01*
X109110000Y-91790000D02*
X112920000Y-91790000D01*
X113555000Y-92425000D02*
X114935000Y-91045000D01*
X112920000Y-91790000D02*
X113555000Y-92425000D01*
X166370000Y-92710000D02*
X197660000Y-92710000D01*
X197660000Y-92710000D02*
X204995000Y-100045000D01*
X113555000Y-105125000D02*
X112110000Y-105125000D01*
X109855000Y-98665000D02*
X113555000Y-94965000D01*
%TO.N,Net-(D5-Pad1)*%
X124745000Y-94965000D02*
X127000000Y-92710000D01*
X121175000Y-94965000D02*
X124745000Y-94965000D01*
X127000000Y-92710000D02*
X144970000Y-92710000D01*
X144970000Y-92710000D02*
X147535000Y-95275000D01*
%TO.N,Net-(D6-Pad1)*%
X164465000Y-92075000D02*
X121525000Y-92075000D01*
X121525000Y-92075000D02*
X121175000Y-92425000D01*
X167465000Y-95075000D02*
X164465000Y-92075000D01*
X167465000Y-95275000D02*
X167465000Y-95075000D01*
%TO.N,Net-(D7-Pad1)*%
X126860489Y-108659511D02*
X126860489Y-112890489D01*
X127545000Y-107975000D02*
X126860489Y-108659511D01*
X124465978Y-115285000D02*
X121175000Y-115285000D01*
X126860489Y-112890489D02*
X124465978Y-115285000D01*
%TO.N,/row5*%
X113555000Y-110205000D02*
X110804889Y-107454889D01*
X89399600Y-108579400D02*
X89399600Y-110179600D01*
X204995000Y-108275862D02*
X186251831Y-127019031D01*
X204995000Y-105125000D02*
X204995000Y-108275862D01*
X113049031Y-127019031D02*
X111125000Y-125095000D01*
X89399600Y-110179600D02*
X90695000Y-111475000D01*
X186251831Y-127019031D02*
X113049031Y-127019031D01*
X113555000Y-115285000D02*
X113555000Y-110205000D01*
X110804889Y-107454889D02*
X90524111Y-107454889D01*
X111125000Y-125095000D02*
X111125000Y-117715000D01*
X90524111Y-107454889D02*
X89399600Y-108579400D01*
X111125000Y-117715000D02*
X113555000Y-115285000D01*
%TO.N,Net-(D8-Pad1)*%
X125730000Y-110490000D02*
X123475000Y-112745000D01*
X143700000Y-104140000D02*
X128270000Y-104140000D01*
X123475000Y-112745000D02*
X121175000Y-112745000D01*
X125730000Y-106680000D02*
X125730000Y-110490000D01*
X128270000Y-104140000D02*
X125730000Y-106680000D01*
X147535000Y-107975000D02*
X143700000Y-104140000D01*
%TO.N,Net-(D9-Pad1)*%
X124460000Y-105410000D02*
X126365000Y-103505000D01*
X121175000Y-110205000D02*
X121570000Y-110205000D01*
X121570000Y-110205000D02*
X124460000Y-107315000D01*
X162995000Y-103505000D02*
X167465000Y-107975000D01*
X126365000Y-103505000D02*
X162995000Y-103505000D01*
X124460000Y-107315000D02*
X124460000Y-105410000D01*
%TO.N,Net-(D10-Pad1)*%
X146685000Y-121920000D02*
X147535000Y-121070000D01*
X125694511Y-124424511D02*
X141005489Y-124424511D01*
X121175000Y-122905000D02*
X124175000Y-122905000D01*
X143510000Y-121920000D02*
X146685000Y-121920000D01*
X147535000Y-121070000D02*
X147535000Y-120895000D01*
X124175000Y-122905000D02*
X125694511Y-124424511D01*
X141005489Y-124424511D02*
X143510000Y-121920000D01*
%TO.N,/row6*%
X110011500Y-105071200D02*
X114679511Y-109739211D01*
X107840000Y-105071200D02*
X107683689Y-104914889D01*
X95389889Y-104914889D02*
X93974400Y-103499400D01*
X125055009Y-126569511D02*
X125095000Y-126529520D01*
X93974400Y-103499400D02*
X89399600Y-103499400D01*
X202455000Y-109176440D02*
X185101920Y-126529520D01*
X114679511Y-126569511D02*
X125055009Y-126569511D01*
X114679511Y-109739211D02*
X114679511Y-119240489D01*
X107683689Y-104914889D02*
X95389889Y-104914889D01*
X113555000Y-125445000D02*
X113555000Y-120365000D01*
X202455000Y-102585000D02*
X202455000Y-109176440D01*
X114679511Y-119240489D02*
X113555000Y-120365000D01*
X125095000Y-126529520D02*
X185101920Y-126529520D01*
X107840000Y-105071200D02*
X110011500Y-105071200D01*
X113555000Y-125445000D02*
X114679511Y-126569511D01*
%TO.N,/up*%
X166632605Y-72019040D02*
X175632395Y-72019040D01*
X165205484Y-70591920D02*
X166632605Y-72019040D01*
X175632395Y-72019040D02*
X177334506Y-70316929D01*
X144168080Y-70591920D02*
X165205484Y-70591920D01*
X210075000Y-100335978D02*
X210075000Y-102585000D01*
X141025000Y-73735000D02*
X144168080Y-70591920D01*
X212772922Y-70316929D02*
X216197120Y-73741127D01*
X177334506Y-70316929D02*
X212772922Y-70316929D01*
X216197120Y-94213858D02*
X210075000Y-100335978D01*
X216197120Y-73741127D02*
X216197120Y-94213858D01*
%TO.N,/down*%
X165577880Y-69692880D02*
X167005000Y-71120000D01*
X217263920Y-73536492D02*
X217263920Y-100476080D01*
X141067120Y-69692880D02*
X165577880Y-69692880D01*
X217263920Y-100476080D02*
X212615000Y-105125000D01*
X213145317Y-69417889D02*
X217263920Y-73536492D01*
X137025000Y-73735000D02*
X141067120Y-69692880D01*
X176962112Y-69417889D02*
X213145317Y-69417889D01*
X175260000Y-71120000D02*
X176962112Y-69417889D01*
X167005000Y-71120000D02*
X175260000Y-71120000D01*
%TO.N,/left*%
X177148309Y-69867409D02*
X212959119Y-69867409D01*
X166818802Y-71569520D02*
X175446198Y-71569520D01*
X212959119Y-69867409D02*
X216814400Y-73722690D01*
X165391682Y-70142400D02*
X166818802Y-71569520D01*
X142617600Y-70142400D02*
X165391682Y-70142400D01*
X139025000Y-73735000D02*
X142617600Y-70142400D01*
X175446198Y-71569520D02*
X177148309Y-69867409D01*
X216814400Y-95845600D02*
X212615000Y-100045000D01*
X216814400Y-73722690D02*
X216814400Y-95845600D01*
%TO.N,/right*%
X176595000Y-74295000D02*
X167005000Y-74295000D01*
X160944511Y-75654511D02*
X159025000Y-73735000D01*
X177515000Y-73375000D02*
X176595000Y-74295000D01*
X192295000Y-73375000D02*
X177515000Y-73375000D01*
X165645489Y-75654511D02*
X160944511Y-75654511D01*
X167005000Y-74295000D02*
X165645489Y-75654511D01*
%TO.N,/A*%
X201109520Y-73474520D02*
X202455000Y-74820000D01*
X195080219Y-73474520D02*
X201109520Y-73474520D01*
X155843551Y-76553551D02*
X166017883Y-76553551D01*
X166017883Y-76553551D02*
X167377394Y-75194040D01*
X153025000Y-73735000D02*
X155843551Y-76553551D01*
X193360699Y-75194040D02*
X195080219Y-73474520D01*
X202455000Y-74820000D02*
X202455000Y-77185000D01*
X167377394Y-75194040D02*
X193360699Y-75194040D01*
%TO.N,/row2*%
X104385600Y-93339400D02*
X105935000Y-91790000D01*
X107129520Y-90595480D02*
X105935000Y-91790000D01*
X164891198Y-90595480D02*
X107129520Y-90595480D01*
X196029520Y-92260480D02*
X166556198Y-92260480D01*
X212615000Y-84805000D02*
X197375000Y-84805000D01*
X197375000Y-84805000D02*
X197375000Y-90915000D01*
X197375000Y-90915000D02*
X196029520Y-92260480D01*
X166556198Y-92260480D02*
X164891198Y-90595480D01*
X97019600Y-93339400D02*
X104385600Y-93339400D01*
%TO.N,/B*%
X194581440Y-77185000D02*
X194581440Y-77106440D01*
X194581440Y-77106440D02*
X193118560Y-75643560D01*
X197375000Y-77185000D02*
X194581440Y-77185000D01*
X167563592Y-75643560D02*
X166204080Y-77003071D01*
X166204080Y-77003071D02*
X154293071Y-77003071D01*
X154293071Y-77003071D02*
X151025000Y-73735000D01*
X193118560Y-75643560D02*
X167563592Y-75643560D01*
%TO.N,/C*%
X212615000Y-73668400D02*
X212615000Y-77185000D01*
X148819520Y-71940480D02*
X164646892Y-71940480D01*
X166074012Y-73367600D02*
X176190989Y-73367600D01*
X164646892Y-71940480D02*
X166074012Y-73367600D01*
X210612089Y-71665489D02*
X212615000Y-73668400D01*
X177893099Y-71665489D02*
X210612089Y-71665489D01*
X147025000Y-73735000D02*
X148819520Y-71940480D01*
X176190989Y-73367600D02*
X177893099Y-71665489D01*
%TO.N,Net-(D18-Pad1)*%
X127015000Y-120365000D02*
X127545000Y-120895000D01*
X121175000Y-120365000D02*
X127015000Y-120365000D01*
%TO.N,Net-(D19-Pad1)*%
X121175000Y-125445000D02*
X162915000Y-125445000D01*
X162915000Y-125445000D02*
X167465000Y-120895000D01*
%TO.N,/Opt*%
X194894022Y-73025000D02*
X205740000Y-73025000D01*
X157394031Y-76104031D02*
X165831686Y-76104031D01*
X193174502Y-74744520D02*
X194894022Y-73025000D01*
X207535000Y-74820000D02*
X207535000Y-77185000D01*
X167191197Y-74744520D02*
X193174502Y-74744520D01*
X205740000Y-73025000D02*
X207535000Y-74820000D01*
X155025000Y-73735000D02*
X157394031Y-76104031D01*
X165831686Y-76104031D02*
X167191197Y-74744520D01*
%TO.N,/Pause*%
X99689400Y-88259400D02*
X100855000Y-89425000D01*
X215747600Y-78409800D02*
X212877400Y-81280000D01*
X215747600Y-73927324D02*
X215747600Y-78409800D01*
X195580000Y-83820000D02*
X195580000Y-90170000D01*
X100855000Y-89425000D02*
X100855000Y-91155000D01*
X143025000Y-73735000D02*
X145718560Y-71041440D01*
X165077395Y-90145960D02*
X101575960Y-90145960D01*
X97019600Y-88259400D02*
X99689400Y-88259400D01*
X166742395Y-91810960D02*
X165077395Y-90145960D01*
X195580000Y-90170000D02*
X193939040Y-91810960D01*
X145718560Y-71041440D02*
X165019288Y-71041440D01*
X165019288Y-71041440D02*
X166446408Y-72468560D01*
X166446408Y-72468560D02*
X175818592Y-72468560D01*
X212586725Y-70766449D02*
X215747600Y-73927324D01*
X177520703Y-70766449D02*
X212586725Y-70766449D01*
X175818592Y-72468560D02*
X177520703Y-70766449D01*
X101575960Y-90145960D02*
X100855000Y-89425000D01*
X193939040Y-91810960D02*
X166742395Y-91810960D01*
X198120000Y-81280000D02*
X195580000Y-83820000D01*
X212877400Y-81280000D02*
X198120000Y-81280000D01*
%TO.N,/Ccom*%
X166260210Y-72918080D02*
X176004789Y-72918080D01*
X212400527Y-71215969D02*
X215290400Y-74105842D01*
X189475386Y-79375000D02*
X187960000Y-80890386D01*
X158515000Y-97049022D02*
X163700978Y-102235000D01*
X163155000Y-117475000D02*
X182245000Y-117475000D01*
X187325000Y-98425000D02*
X187325000Y-102870000D01*
X158515000Y-96495000D02*
X158515000Y-97049022D01*
X161715000Y-112395000D02*
X158515000Y-109195000D01*
X162044511Y-79655489D02*
X179149511Y-79655489D01*
X179070000Y-102235000D02*
X184150000Y-97155000D01*
X179070000Y-112395000D02*
X161715000Y-112395000D01*
X179705000Y-88900000D02*
X187325000Y-88900000D01*
X215290400Y-78181200D02*
X214096600Y-79375000D01*
X214096600Y-79375000D02*
X189475386Y-79375000D01*
X187960000Y-80890386D02*
X187960000Y-88265000D01*
X215290400Y-74105842D02*
X215290400Y-78181200D01*
X184150000Y-97155000D02*
X186690000Y-97155000D01*
X187960000Y-111760000D02*
X187325000Y-111125000D01*
X187325000Y-111125000D02*
X180340000Y-111125000D01*
X90174520Y-77655480D02*
X143959520Y-77655480D01*
X163700978Y-102235000D02*
X179070000Y-102235000D01*
X186690000Y-97155000D02*
X187325000Y-97790000D01*
X145025000Y-73735000D02*
X147269040Y-71490960D01*
X158515000Y-122115000D02*
X163155000Y-117475000D01*
X143959520Y-77655480D02*
X145025000Y-76590000D01*
X158515000Y-83185000D02*
X162044511Y-79655489D01*
X147269040Y-71490960D02*
X164833090Y-71490960D01*
X177706902Y-71215969D02*
X212400527Y-71215969D01*
X187325000Y-88900000D02*
X187960000Y-88265000D01*
X164833090Y-71490960D02*
X166260210Y-72918080D01*
X145025000Y-76590000D02*
X145025000Y-73735000D01*
X182245000Y-117475000D02*
X187960000Y-111760000D01*
X180340000Y-111125000D02*
X179070000Y-112395000D01*
X176004789Y-72918080D02*
X177706902Y-71215969D01*
X187325000Y-97790000D02*
X187325000Y-98425000D01*
X85775000Y-82055000D02*
X90174520Y-77655480D01*
X179149511Y-79655489D02*
X179705000Y-80210978D01*
X179705000Y-80210978D02*
X179705000Y-88900000D01*
%TO.N,/Bcom*%
X144145000Y-78105000D02*
X149225000Y-78105000D01*
X143605000Y-78105000D02*
X144145000Y-78105000D01*
X149225000Y-78105000D02*
X178435000Y-78105000D01*
X138525000Y-97049022D02*
X144345978Y-102870000D01*
X144145000Y-78105000D02*
X92265000Y-78105000D01*
X178435000Y-78105000D02*
X185420000Y-85090000D01*
X184785000Y-102870000D02*
X184785000Y-98425000D01*
X149025000Y-73735000D02*
X149025000Y-77905000D01*
X144345978Y-102870000D02*
X184785000Y-102870000D01*
X138525000Y-83185000D02*
X143605000Y-78105000D01*
X139229511Y-116675489D02*
X180504511Y-116675489D01*
X139229511Y-121410489D02*
X138525000Y-122115000D01*
X138525000Y-96495000D02*
X138525000Y-97049022D01*
X149025000Y-77905000D02*
X149225000Y-78105000D01*
X180504511Y-116675489D02*
X184785000Y-112395000D01*
X138525000Y-109195000D02*
X139229511Y-109899511D01*
X139229511Y-109899511D02*
X139229511Y-116675489D01*
X92265000Y-78105000D02*
X85775000Y-84595000D01*
X139229511Y-116675489D02*
X139229511Y-121410489D01*
%TO.N,/Opt com*%
X178445000Y-122115000D02*
X186495000Y-122115000D01*
X189230000Y-89535000D02*
X189230000Y-80645000D01*
X189205000Y-109195000D02*
X189230000Y-109170000D01*
X158370000Y-72390000D02*
X157025000Y-73735000D01*
X179070000Y-89535000D02*
X189230000Y-89535000D01*
X178445000Y-83185000D02*
X178445000Y-88910000D01*
X189205000Y-109195000D02*
X178445000Y-109195000D01*
X176377187Y-73817120D02*
X177804307Y-72390000D01*
X189865000Y-118745000D02*
X189865000Y-109855000D01*
X186495000Y-122115000D02*
X189865000Y-118745000D01*
X87388400Y-79515000D02*
X90703400Y-76200000D01*
X163830000Y-73025000D02*
X163195000Y-72390000D01*
X163195000Y-72390000D02*
X158370000Y-72390000D01*
X178445000Y-88910000D02*
X179070000Y-89535000D01*
X131445000Y-76200000D02*
X138401640Y-69243360D01*
X90703400Y-76200000D02*
X131445000Y-76200000D01*
X177804307Y-72390000D02*
X189230000Y-72390000D01*
X188570000Y-96495000D02*
X178445000Y-96495000D01*
X167033360Y-69243360D02*
X167640000Y-69850000D01*
X138401640Y-69243360D02*
X167033360Y-69243360D01*
X165887814Y-73817120D02*
X176377187Y-73817120D01*
X163195000Y-72390000D02*
X164460694Y-72390000D01*
X189230000Y-97155000D02*
X188570000Y-96495000D01*
X164460694Y-72390000D02*
X165887814Y-73817120D01*
X189230000Y-98425000D02*
X189230000Y-97155000D01*
X85775000Y-79515000D02*
X87388400Y-79515000D01*
X189865000Y-109855000D02*
X189205000Y-109195000D01*
X189230000Y-109170000D02*
X189230000Y-98425000D01*
%TO.N,/Acom*%
X88010978Y-74930000D02*
X84455000Y-78485978D01*
X169123840Y-68793840D02*
X136819160Y-68793840D01*
X84455000Y-85815000D02*
X85775000Y-87135000D01*
X170180000Y-69850000D02*
X169123840Y-68793840D01*
X136819160Y-68793840D02*
X130683000Y-74930000D01*
X162220000Y-74930000D02*
X161025000Y-73735000D01*
X84455000Y-78485978D02*
X84455000Y-85815000D01*
X164465000Y-74930000D02*
X162220000Y-74930000D01*
X130683000Y-74930000D02*
X88010978Y-74930000D01*
%TO.N,+5V*%
X84600489Y-115715489D02*
X84775489Y-115715489D01*
X90695000Y-115680000D02*
X96520000Y-109855000D01*
X101490000Y-81630000D02*
X100855000Y-80995000D01*
X86995000Y-86995000D02*
X86995000Y-88455000D01*
X86995000Y-88455000D02*
X85775000Y-89675000D01*
X85775000Y-89675000D02*
X84600489Y-90849511D01*
X96520000Y-109855000D02*
X100965000Y-109855000D01*
X100855000Y-80995000D02*
X94124000Y-80995000D01*
X84775489Y-115715489D02*
X90695000Y-121635000D01*
X105935000Y-81630000D02*
X101490000Y-81630000D01*
X94124000Y-80995000D02*
X89399600Y-85719400D01*
X87630000Y-86360000D02*
X86995000Y-86995000D01*
X88759000Y-86360000D02*
X87630000Y-86360000D01*
X89399600Y-85719400D02*
X88759000Y-86360000D01*
X109110000Y-81630000D02*
X105935000Y-81630000D01*
X100965000Y-109855000D02*
X102463800Y-109855000D01*
X90695000Y-121635000D02*
X90695000Y-115680000D01*
X84600489Y-90849511D02*
X84600489Y-115715489D01*
X102463800Y-109855000D02*
X107840000Y-115231200D01*
%TO.N,Net-(J2-Pad6)*%
X87190600Y-90799400D02*
X85775000Y-92215000D01*
X89399600Y-90799400D02*
X87190600Y-90799400D01*
%TO.N,GND*%
X90810600Y-88259400D02*
X91757500Y-87312500D01*
X89399600Y-93339400D02*
X87190600Y-93339400D01*
X100330000Y-100965000D02*
X103505000Y-100965000D01*
X92570111Y-99543911D02*
X98908911Y-99543911D01*
X97019600Y-108579400D02*
X103499400Y-108579400D01*
X98908911Y-99543911D02*
X100330000Y-100965000D01*
X91445600Y-98419400D02*
X92570111Y-99543911D01*
X91757500Y-87312500D02*
X93350600Y-85719400D01*
X92080600Y-97784400D02*
X92080600Y-92069400D01*
X89399600Y-88259400D02*
X90810600Y-88259400D01*
X97019600Y-85719400D02*
X94609400Y-85719400D01*
X91434400Y-93339400D02*
X92080600Y-92693200D01*
X91445600Y-98419400D02*
X92080600Y-97784400D01*
X89399600Y-98419400D02*
X91445600Y-98419400D01*
X91757500Y-87312500D02*
X92080600Y-86989400D01*
X92080600Y-92069400D02*
X92080600Y-86989400D01*
X87190600Y-93339400D02*
X85775000Y-94755000D01*
X93350600Y-85719400D02*
X94609400Y-85719400D01*
X89399600Y-93339400D02*
X91434400Y-93339400D01*
X92080600Y-92693200D02*
X92080600Y-92069400D01*
%TO.N,Net-(J2-Pad8)*%
X89399600Y-95879400D02*
X87190600Y-95879400D01*
X87190600Y-95879400D02*
X85775000Y-97295000D01*
%TO.N,Net-(J2-Pad9)*%
X88275200Y-99835000D02*
X89399600Y-100959400D01*
X85775000Y-99835000D02*
X88275200Y-99835000D01*
%TO.N,Net-(J2-Pad10)*%
X85775111Y-102374889D02*
X95604111Y-102374889D01*
X95604111Y-102374889D02*
X97019600Y-100959400D01*
X85775000Y-102375000D02*
X85775111Y-102374889D01*
%TO.N,Net-(J2-Pad11)*%
X97019600Y-106039400D02*
X94329622Y-106039400D01*
X85775000Y-104915000D02*
X85775111Y-104914889D01*
X85775111Y-104914889D02*
X93205111Y-104914889D01*
X94329622Y-106039400D02*
X93205111Y-104914889D01*
%TO.N,Net-(J2-Pad12)*%
X87984000Y-107455000D02*
X89399600Y-106039400D01*
X85775000Y-107455000D02*
X87984000Y-107455000D01*
%TD*%
M02*
