%FSLAX45Y45*%
G04 Gerber Fmt 4.5, Leading zero omitted, Abs format (unit mm)*
G04 Created by KiCad (PCBNEW (6.0.0)) date 2022-03-13 17:58:02*
%MOMM*%
%LPD*%
G01*
G04 APERTURE LIST*
%TA.AperFunction,Profile*%
%ADD10C,0.100000*%
%TD*%
%ADD11C,0.200000*%
%ADD12C,0.040000*%
%ADD13C,0.080000*%
%ADD14C,0.100000*%
%ADD15C,0.110000*%
%ADD16C,0.150000*%
%ADD17C,0.320000*%
G04 APERTURE END LIST*
D10*
X11185360Y-10526760D02*
X9038360Y-10526760D01*
X18907360Y-10526760D02*
X20025360Y-11358760D01*
X11185360Y-10837760D02*
X11721360Y-10837760D01*
X7920360Y-11358760D02*
X7920360Y-15097760D01*
X16224360Y-10526760D02*
X11721360Y-10526760D01*
X7920360Y-15097760D02*
X20025360Y-15097760D01*
X16760360Y-10837760D02*
X16224360Y-10837760D01*
X20025360Y-15097760D02*
X20025360Y-11358760D01*
X16760360Y-10526760D02*
X18907360Y-10526760D01*
X16224360Y-10837760D02*
X16224360Y-10526760D01*
X9038360Y-10526760D02*
X7920360Y-11358760D01*
X11721360Y-10837760D02*
X11721360Y-10526760D01*
X16760360Y-10526760D02*
X16760360Y-10837760D01*
X11185360Y-10526760D02*
X11185360Y-10837760D01*
D11*
D12*
X10300020Y-13307380D02*
X10340020Y-13347380D01*
X10340020Y-13307380D02*
X10300020Y-13347380D01*
X10681020Y-11620820D02*
X10721020Y-11660820D01*
X10721020Y-11620820D02*
X10681020Y-11660820D01*
X10691180Y-13622340D02*
X10731180Y-13662340D01*
X10731180Y-13622340D02*
X10691180Y-13662340D01*
X11407443Y-12819683D02*
X11447443Y-12859683D01*
X11447443Y-12819683D02*
X11407443Y-12859683D01*
X11565889Y-12915271D02*
X11605889Y-12955271D01*
X11605889Y-12915271D02*
X11565889Y-12955271D01*
X11718240Y-14352960D02*
X11758240Y-14392960D01*
X11758240Y-14352960D02*
X11718240Y-14392960D01*
X11857040Y-14732320D02*
X11897040Y-14772320D01*
X11897040Y-14732320D02*
X11857040Y-14772320D01*
X11892600Y-12512360D02*
X11932600Y-12552360D01*
X11932600Y-12512360D02*
X11892600Y-12552360D01*
X11892600Y-13215940D02*
X11932600Y-13255940D01*
X11932600Y-13215940D02*
X11892600Y-13255940D01*
X12215180Y-14470700D02*
X12255180Y-14510700D01*
X12255180Y-14470700D02*
X12215180Y-14510700D01*
X12692700Y-13627420D02*
X12732700Y-13667420D01*
X12732700Y-13627420D02*
X12692700Y-13667420D01*
X12713020Y-14612940D02*
X12753020Y-14652940D01*
X12753020Y-14612940D02*
X12713020Y-14652940D01*
X12797971Y-14731189D02*
X12837971Y-14771189D01*
X12837971Y-14731189D02*
X12797971Y-14771189D01*
X13215940Y-13462320D02*
X13255940Y-13502320D01*
X13255940Y-13462320D02*
X13215940Y-13502320D01*
X13889040Y-11049320D02*
X13929040Y-11089320D01*
X13929040Y-11049320D02*
X13889040Y-11089320D01*
X14333531Y-12794309D02*
X14373531Y-12834309D01*
X14373531Y-12794309D02*
X14333531Y-12834309D01*
X14572300Y-12641900D02*
X14612300Y-12681900D01*
X14612300Y-12641900D02*
X14572300Y-12681900D01*
X14825800Y-13173260D02*
X14865800Y-13213260D01*
X14865800Y-13173260D02*
X14825800Y-13213260D01*
X15081291Y-13298211D02*
X15121291Y-13338211D01*
X15121291Y-13298211D02*
X15081291Y-13338211D01*
X15275880Y-13424220D02*
X15315880Y-13464220D01*
X15315880Y-13424220D02*
X15275880Y-13464220D01*
X15359700Y-11359200D02*
X15399700Y-11399200D01*
X15399700Y-11359200D02*
X15359700Y-11399200D01*
X15359700Y-12230420D02*
X15399700Y-12270420D01*
X15399700Y-12230420D02*
X15359700Y-12270420D01*
X16741451Y-11270309D02*
X16781451Y-11310309D01*
X16781451Y-11270309D02*
X16741451Y-11310309D01*
X17300260Y-14732320D02*
X17340260Y-14772320D01*
X17340260Y-14732320D02*
X17300260Y-14772320D01*
X17696500Y-13675680D02*
X17736500Y-13715680D01*
X17736500Y-13675680D02*
X17696500Y-13715680D01*
X18242600Y-11089960D02*
X18282600Y-11129960D01*
X18282600Y-11089960D02*
X18242600Y-11129960D01*
X18437960Y-13627640D02*
X18477960Y-13667640D01*
X18477960Y-13627640D02*
X18437960Y-13667640D01*
X18842531Y-11433351D02*
X18882531Y-11473351D01*
X18882531Y-11433351D02*
X18842531Y-11473351D01*
D13*
X11323340Y-11544240D02*
G75*
G03*
X11323340Y-11544240I-40000J0D01*
G01*
X11323340Y-11794240D02*
G75*
G03*
X11323340Y-11794240I-40000J0D01*
G01*
X11523340Y-11544240D02*
G75*
G03*
X11523340Y-11544240I-40000J0D01*
G01*
X11523340Y-11794240D02*
G75*
G03*
X11523340Y-11794240I-40000J0D01*
G01*
X11723340Y-11544240D02*
G75*
G03*
X11723340Y-11544240I-40000J0D01*
G01*
X11723340Y-11794240D02*
G75*
G03*
X11723340Y-11794240I-40000J0D01*
G01*
X14769460Y-13942060D02*
G75*
G03*
X14769460Y-13942060I-40000J0D01*
G01*
X15531460Y-13942060D02*
G75*
G03*
X15531460Y-13942060I-40000J0D01*
G01*
X15814400Y-11161260D02*
G75*
G03*
X15814400Y-11161260I-40000J0D01*
G01*
X15814400Y-11415260D02*
G75*
G03*
X15814400Y-11415260I-40000J0D01*
G01*
X15814400Y-11669260D02*
G75*
G03*
X15814400Y-11669260I-40000J0D01*
G01*
X15814400Y-11923260D02*
G75*
G03*
X15814400Y-11923260I-40000J0D01*
G01*
X15814400Y-12177260D02*
G75*
G03*
X15814400Y-12177260I-40000J0D01*
G01*
X15814400Y-12431260D02*
G75*
G03*
X15814400Y-12431260I-40000J0D01*
G01*
X15814400Y-12685260D02*
G75*
G03*
X15814400Y-12685260I-40000J0D01*
G01*
X15814400Y-12939260D02*
G75*
G03*
X15814400Y-12939260I-40000J0D01*
G01*
X15814400Y-13193260D02*
G75*
G03*
X15814400Y-13193260I-40000J0D01*
G01*
X15814400Y-13447260D02*
G75*
G03*
X15814400Y-13447260I-40000J0D01*
G01*
X16576400Y-11161260D02*
G75*
G03*
X16576400Y-11161260I-40000J0D01*
G01*
X16576400Y-11415260D02*
G75*
G03*
X16576400Y-11415260I-40000J0D01*
G01*
X16576400Y-11669260D02*
G75*
G03*
X16576400Y-11669260I-40000J0D01*
G01*
X16576400Y-11923260D02*
G75*
G03*
X16576400Y-11923260I-40000J0D01*
G01*
X16576400Y-12177260D02*
G75*
G03*
X16576400Y-12177260I-40000J0D01*
G01*
X16576400Y-12431260D02*
G75*
G03*
X16576400Y-12431260I-40000J0D01*
G01*
X16576400Y-12685260D02*
G75*
G03*
X16576400Y-12685260I-40000J0D01*
G01*
X16576400Y-12939260D02*
G75*
G03*
X16576400Y-12939260I-40000J0D01*
G01*
X16576400Y-13193260D02*
G75*
G03*
X16576400Y-13193260I-40000J0D01*
G01*
X16576400Y-13447260D02*
G75*
G03*
X16576400Y-13447260I-40000J0D01*
G01*
X17286600Y-14053820D02*
G75*
G03*
X17286600Y-14053820I-40000J0D01*
G01*
X17365340Y-11328400D02*
G75*
G03*
X17365340Y-11328400I-40000J0D01*
G01*
X18048600Y-14053820D02*
G75*
G03*
X18048600Y-14053820I-40000J0D01*
G01*
X18127340Y-11328400D02*
G75*
G03*
X18127340Y-11328400I-40000J0D01*
G01*
X18256880Y-12966700D02*
G75*
G03*
X18256880Y-12966700I-40000J0D01*
G01*
X19018880Y-12966700D02*
G75*
G03*
X19018880Y-12966700I-40000J0D01*
G01*
D14*
X8521960Y-12594960D02*
X8521960Y-12694960D01*
X8471960Y-12644960D02*
X8571960Y-12644960D01*
X8521960Y-13044960D02*
X8521960Y-13144960D01*
X8471960Y-13094960D02*
X8571960Y-13094960D01*
X9171960Y-12594960D02*
X9171960Y-12694960D01*
X9121960Y-12644960D02*
X9221960Y-12644960D01*
X9171960Y-13044960D02*
X9171960Y-13144960D01*
X9121960Y-13094960D02*
X9221960Y-13094960D01*
X9518960Y-11597960D02*
X9518960Y-11697960D01*
X9468960Y-11647960D02*
X9568960Y-11647960D01*
X9518960Y-12047960D02*
X9518960Y-12147960D01*
X9468960Y-12097960D02*
X9568960Y-12097960D01*
X9518960Y-13591960D02*
X9518960Y-13691960D01*
X9468960Y-13641960D02*
X9568960Y-13641960D01*
X9518960Y-14041960D02*
X9518960Y-14141960D01*
X9468960Y-14091960D02*
X9568960Y-14091960D01*
X10168960Y-11597960D02*
X10168960Y-11697960D01*
X10118960Y-11647960D02*
X10218960Y-11647960D01*
X10168960Y-12047960D02*
X10168960Y-12147960D01*
X10118960Y-12097960D02*
X10218960Y-12097960D01*
X10168960Y-13591960D02*
X10168960Y-13691960D01*
X10118960Y-13641960D02*
X10218960Y-13641960D01*
X10168960Y-14041960D02*
X10168960Y-14141960D01*
X10118960Y-14091960D02*
X10218960Y-14091960D01*
X10515960Y-12594960D02*
X10515960Y-12694960D01*
X10465960Y-12644960D02*
X10565960Y-12644960D01*
X10515960Y-13044960D02*
X10515960Y-13144960D01*
X10465960Y-13094960D02*
X10565960Y-13094960D01*
X11165960Y-12594960D02*
X11165960Y-12694960D01*
X11115960Y-12644960D02*
X11215960Y-12644960D01*
X11165960Y-13044960D02*
X11165960Y-13144960D01*
X11115960Y-13094960D02*
X11215960Y-13094960D01*
X12306300Y-11352060D02*
X12306300Y-11452060D01*
X12256300Y-11402060D02*
X12356300Y-11402060D01*
X12560300Y-11352060D02*
X12560300Y-11452060D01*
X12510300Y-11402060D02*
X12610300Y-11402060D01*
X12573960Y-13872960D02*
X12573960Y-13972960D01*
X12523960Y-13922960D02*
X12623960Y-13922960D01*
X12573960Y-14322960D02*
X12573960Y-14422960D01*
X12523960Y-14372960D02*
X12623960Y-14372960D01*
X12814300Y-11352060D02*
X12814300Y-11452060D01*
X12764300Y-11402060D02*
X12864300Y-11402060D01*
X13068300Y-11352060D02*
X13068300Y-11452060D01*
X13018300Y-11402060D02*
X13118300Y-11402060D01*
X13223960Y-13872960D02*
X13223960Y-13972960D01*
X13173960Y-13922960D02*
X13273960Y-13922960D01*
X13223960Y-14322960D02*
X13223960Y-14422960D01*
X13173960Y-14372960D02*
X13273960Y-14372960D01*
X13322300Y-11352060D02*
X13322300Y-11452060D01*
X13272300Y-11402060D02*
X13372300Y-11402060D01*
X13576300Y-11352060D02*
X13576300Y-11452060D01*
X13526300Y-11402060D02*
X13626300Y-11402060D01*
X13794960Y-13872960D02*
X13794960Y-13972960D01*
X13744960Y-13922960D02*
X13844960Y-13922960D01*
X13794960Y-14322960D02*
X13794960Y-14422960D01*
X13744960Y-14372960D02*
X13844960Y-14372960D01*
X13830300Y-11352060D02*
X13830300Y-11452060D01*
X13780300Y-11402060D02*
X13880300Y-11402060D01*
X14084300Y-11352060D02*
X14084300Y-11452060D01*
X14034300Y-11402060D02*
X14134300Y-11402060D01*
X14338300Y-11352060D02*
X14338300Y-11452060D01*
X14288300Y-11402060D02*
X14388300Y-11402060D01*
X14444960Y-13872960D02*
X14444960Y-13972960D01*
X14394960Y-13922960D02*
X14494960Y-13922960D01*
X14444960Y-14322960D02*
X14444960Y-14422960D01*
X14394960Y-14372960D02*
X14494960Y-14372960D01*
X14592300Y-11352060D02*
X14592300Y-11452060D01*
X14542300Y-11402060D02*
X14642300Y-11402060D01*
X14846300Y-11352060D02*
X14846300Y-11452060D01*
X14796300Y-11402060D02*
X14896300Y-11402060D01*
X15100300Y-11352060D02*
X15100300Y-11452060D01*
X15050300Y-11402060D02*
X15150300Y-11402060D01*
X16289960Y-14004960D02*
X16289960Y-14104960D01*
X16239960Y-14054960D02*
X16339960Y-14054960D01*
X16289960Y-14454960D02*
X16289960Y-14554960D01*
X16239960Y-14504960D02*
X16339960Y-14504960D01*
X16939960Y-14004960D02*
X16939960Y-14104960D01*
X16889960Y-14054960D02*
X16989960Y-14054960D01*
X16939960Y-14454960D02*
X16939960Y-14554960D01*
X16889960Y-14504960D02*
X16989960Y-14504960D01*
X17294960Y-12565960D02*
X17294960Y-12665960D01*
X17244960Y-12615960D02*
X17344960Y-12615960D01*
X17294960Y-13015960D02*
X17294960Y-13115960D01*
X17244960Y-13065960D02*
X17344960Y-13065960D01*
X17944960Y-12565960D02*
X17944960Y-12665960D01*
X17894960Y-12615960D02*
X17994960Y-12615960D01*
X17944960Y-13015960D02*
X17944960Y-13115960D01*
X17894960Y-13065960D02*
X17994960Y-13065960D01*
X18457960Y-11258960D02*
X18457960Y-11358960D01*
X18407960Y-11308960D02*
X18507960Y-11308960D01*
X18457960Y-11708960D02*
X18457960Y-11808960D01*
X18407960Y-11758960D02*
X18507960Y-11758960D01*
X19107960Y-11258960D02*
X19107960Y-11358960D01*
X19057960Y-11308960D02*
X19157960Y-11308960D01*
X19107960Y-11708960D02*
X19107960Y-11808960D01*
X19057960Y-11758960D02*
X19157960Y-11758960D01*
D15*
X13314391Y-11231171D02*
X13314391Y-11153389D01*
X13236609Y-11153389D01*
X13236609Y-11231171D01*
X13314391Y-11231171D01*
X13314391Y-12681171D02*
X13314391Y-12603389D01*
X13236609Y-12603389D01*
X13236609Y-12681171D01*
X13314391Y-12681171D01*
X13564391Y-12681171D02*
X13564391Y-12603389D01*
X13486609Y-12603389D01*
X13486609Y-12681171D01*
X13564391Y-12681171D01*
X13814391Y-11231171D02*
X13814391Y-11153389D01*
X13736609Y-11153389D01*
X13736609Y-11231171D01*
X13814391Y-11231171D01*
X13814391Y-12681171D02*
X13814391Y-12603389D01*
X13736609Y-12603389D01*
X13736609Y-12681171D01*
X13814391Y-12681171D01*
D16*
X11073340Y-11744240D02*
X11148340Y-11669240D01*
X11073340Y-11594240D01*
X10998340Y-11669240D01*
X11073340Y-11744240D01*
X11893340Y-11744240D02*
X11968340Y-11669240D01*
X11893340Y-11594240D01*
X11818340Y-11669240D01*
X11893340Y-11744240D01*
D17*
X12795500Y-11732280D02*
X13115500Y-12052280D01*
X13115500Y-11732280D02*
X12795500Y-12052280D01*
X13115500Y-11892280D02*
G75*
G03*
X13115500Y-11892280I-160000J0D01*
G01*
X13935500Y-11732280D02*
X14255500Y-12052280D01*
X14255500Y-11732280D02*
X13935500Y-12052280D01*
X14255500Y-11892280D02*
G75*
G03*
X14255500Y-11892280I-160000J0D01*
G01*
D11*
X8172979Y-15413236D02*
X8172979Y-15213236D01*
X8220598Y-15213236D01*
X8249169Y-15222760D01*
X8268217Y-15241808D01*
X8277741Y-15260855D01*
X8287265Y-15298950D01*
X8287265Y-15327522D01*
X8277741Y-15365617D01*
X8268217Y-15384665D01*
X8249169Y-15403712D01*
X8220598Y-15413236D01*
X8172979Y-15413236D01*
X8372979Y-15413236D02*
X8372979Y-15279903D01*
X8372979Y-15317998D02*
X8382503Y-15298950D01*
X8392027Y-15289427D01*
X8411074Y-15279903D01*
X8430122Y-15279903D01*
X8496789Y-15413236D02*
X8496789Y-15279903D01*
X8496789Y-15213236D02*
X8487265Y-15222760D01*
X8496789Y-15232284D01*
X8506312Y-15222760D01*
X8496789Y-15213236D01*
X8496789Y-15232284D01*
X8620598Y-15413236D02*
X8601550Y-15403712D01*
X8592027Y-15384665D01*
X8592027Y-15213236D01*
X8725360Y-15413236D02*
X8706312Y-15403712D01*
X8696789Y-15384665D01*
X8696789Y-15213236D01*
X8953931Y-15413236D02*
X8953931Y-15213236D01*
X9020598Y-15356093D01*
X9087265Y-15213236D01*
X9087265Y-15413236D01*
X9268217Y-15413236D02*
X9268217Y-15308474D01*
X9258693Y-15289427D01*
X9239646Y-15279903D01*
X9201550Y-15279903D01*
X9182503Y-15289427D01*
X9268217Y-15403712D02*
X9249170Y-15413236D01*
X9201550Y-15413236D01*
X9182503Y-15403712D01*
X9172979Y-15384665D01*
X9172979Y-15365617D01*
X9182503Y-15346569D01*
X9201550Y-15337046D01*
X9249170Y-15337046D01*
X9268217Y-15327522D01*
X9363455Y-15279903D02*
X9363455Y-15479903D01*
X9363455Y-15289427D02*
X9382503Y-15279903D01*
X9420598Y-15279903D01*
X9439646Y-15289427D01*
X9449170Y-15298950D01*
X9458693Y-15317998D01*
X9458693Y-15375141D01*
X9449170Y-15394188D01*
X9439646Y-15403712D01*
X9420598Y-15413236D01*
X9382503Y-15413236D01*
X9363455Y-15403712D01*
X9544408Y-15394188D02*
X9553931Y-15403712D01*
X9544408Y-15413236D01*
X9534884Y-15403712D01*
X9544408Y-15394188D01*
X9544408Y-15413236D01*
X9544408Y-15289427D02*
X9553931Y-15298950D01*
X9544408Y-15308474D01*
X9534884Y-15298950D01*
X9544408Y-15289427D01*
X9544408Y-15308474D01*
D12*
X7875360Y-15722760D02*
X7915360Y-15762760D01*
X7915360Y-15722760D02*
X7875360Y-15762760D01*
D11*
X8211074Y-15633236D02*
X8230122Y-15633236D01*
X8249169Y-15642760D01*
X8258693Y-15652284D01*
X8268217Y-15671331D01*
X8277741Y-15709427D01*
X8277741Y-15757046D01*
X8268217Y-15795141D01*
X8258693Y-15814188D01*
X8249169Y-15823712D01*
X8230122Y-15833236D01*
X8211074Y-15833236D01*
X8192027Y-15823712D01*
X8182503Y-15814188D01*
X8172979Y-15795141D01*
X8163455Y-15757046D01*
X8163455Y-15709427D01*
X8172979Y-15671331D01*
X8182503Y-15652284D01*
X8192027Y-15642760D01*
X8211074Y-15633236D01*
X8363455Y-15814188D02*
X8372979Y-15823712D01*
X8363455Y-15833236D01*
X8353931Y-15823712D01*
X8363455Y-15814188D01*
X8363455Y-15833236D01*
X8544408Y-15699903D02*
X8544408Y-15833236D01*
X8496789Y-15623712D02*
X8449170Y-15766569D01*
X8572979Y-15766569D01*
X8687265Y-15633236D02*
X8706312Y-15633236D01*
X8725360Y-15642760D01*
X8734884Y-15652284D01*
X8744408Y-15671331D01*
X8753931Y-15709427D01*
X8753931Y-15757046D01*
X8744408Y-15795141D01*
X8734884Y-15814188D01*
X8725360Y-15823712D01*
X8706312Y-15833236D01*
X8687265Y-15833236D01*
X8668217Y-15823712D01*
X8658693Y-15814188D01*
X8649170Y-15795141D01*
X8639646Y-15757046D01*
X8639646Y-15709427D01*
X8649170Y-15671331D01*
X8658693Y-15652284D01*
X8668217Y-15642760D01*
X8687265Y-15633236D01*
X8877741Y-15633236D02*
X8896789Y-15633236D01*
X8915836Y-15642760D01*
X8925360Y-15652284D01*
X8934884Y-15671331D01*
X8944408Y-15709427D01*
X8944408Y-15757046D01*
X8934884Y-15795141D01*
X8925360Y-15814188D01*
X8915836Y-15823712D01*
X8896789Y-15833236D01*
X8877741Y-15833236D01*
X8858693Y-15823712D01*
X8849170Y-15814188D01*
X8839646Y-15795141D01*
X8830122Y-15757046D01*
X8830122Y-15709427D01*
X8839646Y-15671331D01*
X8849170Y-15652284D01*
X8858693Y-15642760D01*
X8877741Y-15633236D01*
X9030122Y-15833236D02*
X9030122Y-15699903D01*
X9030122Y-15718950D02*
X9039646Y-15709427D01*
X9058693Y-15699903D01*
X9087265Y-15699903D01*
X9106312Y-15709427D01*
X9115836Y-15728474D01*
X9115836Y-15833236D01*
X9115836Y-15728474D02*
X9125360Y-15709427D01*
X9144408Y-15699903D01*
X9172979Y-15699903D01*
X9192027Y-15709427D01*
X9201550Y-15728474D01*
X9201550Y-15833236D01*
X9296789Y-15833236D02*
X9296789Y-15699903D01*
X9296789Y-15718950D02*
X9306312Y-15709427D01*
X9325360Y-15699903D01*
X9353931Y-15699903D01*
X9372979Y-15709427D01*
X9382503Y-15728474D01*
X9382503Y-15833236D01*
X9382503Y-15728474D02*
X9392027Y-15709427D01*
X9411074Y-15699903D01*
X9439646Y-15699903D01*
X9458693Y-15709427D01*
X9468217Y-15728474D01*
X9468217Y-15833236D01*
X9858693Y-15623712D02*
X9687265Y-15880855D01*
X10115836Y-15633236D02*
X10134884Y-15633236D01*
X10153931Y-15642760D01*
X10163455Y-15652284D01*
X10172979Y-15671331D01*
X10182503Y-15709427D01*
X10182503Y-15757046D01*
X10172979Y-15795141D01*
X10163455Y-15814188D01*
X10153931Y-15823712D01*
X10134884Y-15833236D01*
X10115836Y-15833236D01*
X10096789Y-15823712D01*
X10087265Y-15814188D01*
X10077741Y-15795141D01*
X10068217Y-15757046D01*
X10068217Y-15709427D01*
X10077741Y-15671331D01*
X10087265Y-15652284D01*
X10096789Y-15642760D01*
X10115836Y-15633236D01*
X10268217Y-15814188D02*
X10277741Y-15823712D01*
X10268217Y-15833236D01*
X10258693Y-15823712D01*
X10268217Y-15814188D01*
X10268217Y-15833236D01*
X10401550Y-15633236D02*
X10420598Y-15633236D01*
X10439646Y-15642760D01*
X10449170Y-15652284D01*
X10458693Y-15671331D01*
X10468217Y-15709427D01*
X10468217Y-15757046D01*
X10458693Y-15795141D01*
X10449170Y-15814188D01*
X10439646Y-15823712D01*
X10420598Y-15833236D01*
X10401550Y-15833236D01*
X10382503Y-15823712D01*
X10372979Y-15814188D01*
X10363455Y-15795141D01*
X10353931Y-15757046D01*
X10353931Y-15709427D01*
X10363455Y-15671331D01*
X10372979Y-15652284D01*
X10382503Y-15642760D01*
X10401550Y-15633236D01*
X10658693Y-15833236D02*
X10544408Y-15833236D01*
X10601550Y-15833236D02*
X10601550Y-15633236D01*
X10582503Y-15661808D01*
X10563455Y-15680855D01*
X10544408Y-15690379D01*
X10839646Y-15633236D02*
X10744408Y-15633236D01*
X10734884Y-15728474D01*
X10744408Y-15718950D01*
X10763455Y-15709427D01*
X10811074Y-15709427D01*
X10830122Y-15718950D01*
X10839646Y-15728474D01*
X10849170Y-15747522D01*
X10849170Y-15795141D01*
X10839646Y-15814188D01*
X10830122Y-15823712D01*
X10811074Y-15833236D01*
X10763455Y-15833236D01*
X10744408Y-15823712D01*
X10734884Y-15814188D01*
X10915836Y-15633236D02*
X11049170Y-15633236D01*
X10963455Y-15833236D01*
X11115836Y-15633236D02*
X11115836Y-15671331D01*
X11192027Y-15633236D02*
X11192027Y-15671331D01*
X11487265Y-15909427D02*
X11477741Y-15899903D01*
X11458693Y-15871331D01*
X11449169Y-15852284D01*
X11439646Y-15823712D01*
X11430122Y-15776093D01*
X11430122Y-15737998D01*
X11439646Y-15690379D01*
X11449169Y-15661808D01*
X11458693Y-15642760D01*
X11477741Y-15614188D01*
X11487265Y-15604665D01*
X11553931Y-15652284D02*
X11563455Y-15642760D01*
X11582503Y-15633236D01*
X11630122Y-15633236D01*
X11649169Y-15642760D01*
X11658693Y-15652284D01*
X11668217Y-15671331D01*
X11668217Y-15690379D01*
X11658693Y-15718950D01*
X11544408Y-15833236D01*
X11668217Y-15833236D01*
X11782503Y-15718950D02*
X11763455Y-15709427D01*
X11753931Y-15699903D01*
X11744408Y-15680855D01*
X11744408Y-15671331D01*
X11753931Y-15652284D01*
X11763455Y-15642760D01*
X11782503Y-15633236D01*
X11820598Y-15633236D01*
X11839646Y-15642760D01*
X11849169Y-15652284D01*
X11858693Y-15671331D01*
X11858693Y-15680855D01*
X11849169Y-15699903D01*
X11839646Y-15709427D01*
X11820598Y-15718950D01*
X11782503Y-15718950D01*
X11763455Y-15728474D01*
X11753931Y-15737998D01*
X11744408Y-15757046D01*
X11744408Y-15795141D01*
X11753931Y-15814188D01*
X11763455Y-15823712D01*
X11782503Y-15833236D01*
X11820598Y-15833236D01*
X11839646Y-15823712D01*
X11849169Y-15814188D01*
X11858693Y-15795141D01*
X11858693Y-15757046D01*
X11849169Y-15737998D01*
X11839646Y-15728474D01*
X11820598Y-15718950D01*
X12096788Y-15833236D02*
X12096788Y-15633236D01*
X12182503Y-15833236D02*
X12182503Y-15728474D01*
X12172979Y-15709427D01*
X12153931Y-15699903D01*
X12125360Y-15699903D01*
X12106312Y-15709427D01*
X12096788Y-15718950D01*
X12306312Y-15833236D02*
X12287265Y-15823712D01*
X12277741Y-15814188D01*
X12268217Y-15795141D01*
X12268217Y-15737998D01*
X12277741Y-15718950D01*
X12287265Y-15709427D01*
X12306312Y-15699903D01*
X12334884Y-15699903D01*
X12353931Y-15709427D01*
X12363455Y-15718950D01*
X12372979Y-15737998D01*
X12372979Y-15795141D01*
X12363455Y-15814188D01*
X12353931Y-15823712D01*
X12334884Y-15833236D01*
X12306312Y-15833236D01*
X12487265Y-15833236D02*
X12468217Y-15823712D01*
X12458693Y-15804665D01*
X12458693Y-15633236D01*
X12639646Y-15823712D02*
X12620598Y-15833236D01*
X12582503Y-15833236D01*
X12563455Y-15823712D01*
X12553931Y-15804665D01*
X12553931Y-15728474D01*
X12563455Y-15709427D01*
X12582503Y-15699903D01*
X12620598Y-15699903D01*
X12639646Y-15709427D01*
X12649169Y-15728474D01*
X12649169Y-15747522D01*
X12553931Y-15766569D01*
X12725360Y-15823712D02*
X12744408Y-15833236D01*
X12782503Y-15833236D01*
X12801550Y-15823712D01*
X12811074Y-15804665D01*
X12811074Y-15795141D01*
X12801550Y-15776093D01*
X12782503Y-15766569D01*
X12753931Y-15766569D01*
X12734884Y-15757046D01*
X12725360Y-15737998D01*
X12725360Y-15728474D01*
X12734884Y-15709427D01*
X12753931Y-15699903D01*
X12782503Y-15699903D01*
X12801550Y-15709427D01*
X12877741Y-15909427D02*
X12887265Y-15899903D01*
X12906312Y-15871331D01*
X12915836Y-15852284D01*
X12925360Y-15823712D01*
X12934884Y-15776093D01*
X12934884Y-15737998D01*
X12925360Y-15690379D01*
X12915836Y-15661808D01*
X12906312Y-15642760D01*
X12887265Y-15614188D01*
X12877741Y-15604665D01*
D13*
X7915360Y-16006760D02*
G75*
G03*
X7915360Y-16006760I-40000J0D01*
G01*
D11*
X8211074Y-15897236D02*
X8230122Y-15897236D01*
X8249169Y-15906760D01*
X8258693Y-15916284D01*
X8268217Y-15935331D01*
X8277741Y-15973427D01*
X8277741Y-16021046D01*
X8268217Y-16059141D01*
X8258693Y-16078188D01*
X8249169Y-16087712D01*
X8230122Y-16097236D01*
X8211074Y-16097236D01*
X8192027Y-16087712D01*
X8182503Y-16078188D01*
X8172979Y-16059141D01*
X8163455Y-16021046D01*
X8163455Y-15973427D01*
X8172979Y-15935331D01*
X8182503Y-15916284D01*
X8192027Y-15906760D01*
X8211074Y-15897236D01*
X8363455Y-16078188D02*
X8372979Y-16087712D01*
X8363455Y-16097236D01*
X8353931Y-16087712D01*
X8363455Y-16078188D01*
X8363455Y-16097236D01*
X8487265Y-15982950D02*
X8468217Y-15973427D01*
X8458693Y-15963903D01*
X8449170Y-15944855D01*
X8449170Y-15935331D01*
X8458693Y-15916284D01*
X8468217Y-15906760D01*
X8487265Y-15897236D01*
X8525360Y-15897236D01*
X8544408Y-15906760D01*
X8553931Y-15916284D01*
X8563455Y-15935331D01*
X8563455Y-15944855D01*
X8553931Y-15963903D01*
X8544408Y-15973427D01*
X8525360Y-15982950D01*
X8487265Y-15982950D01*
X8468217Y-15992474D01*
X8458693Y-16001998D01*
X8449170Y-16021046D01*
X8449170Y-16059141D01*
X8458693Y-16078188D01*
X8468217Y-16087712D01*
X8487265Y-16097236D01*
X8525360Y-16097236D01*
X8544408Y-16087712D01*
X8553931Y-16078188D01*
X8563455Y-16059141D01*
X8563455Y-16021046D01*
X8553931Y-16001998D01*
X8544408Y-15992474D01*
X8525360Y-15982950D01*
X8687265Y-15897236D02*
X8706312Y-15897236D01*
X8725360Y-15906760D01*
X8734884Y-15916284D01*
X8744408Y-15935331D01*
X8753931Y-15973427D01*
X8753931Y-16021046D01*
X8744408Y-16059141D01*
X8734884Y-16078188D01*
X8725360Y-16087712D01*
X8706312Y-16097236D01*
X8687265Y-16097236D01*
X8668217Y-16087712D01*
X8658693Y-16078188D01*
X8649170Y-16059141D01*
X8639646Y-16021046D01*
X8639646Y-15973427D01*
X8649170Y-15935331D01*
X8658693Y-15916284D01*
X8668217Y-15906760D01*
X8687265Y-15897236D01*
X8877741Y-15897236D02*
X8896789Y-15897236D01*
X8915836Y-15906760D01*
X8925360Y-15916284D01*
X8934884Y-15935331D01*
X8944408Y-15973427D01*
X8944408Y-16021046D01*
X8934884Y-16059141D01*
X8925360Y-16078188D01*
X8915836Y-16087712D01*
X8896789Y-16097236D01*
X8877741Y-16097236D01*
X8858693Y-16087712D01*
X8849170Y-16078188D01*
X8839646Y-16059141D01*
X8830122Y-16021046D01*
X8830122Y-15973427D01*
X8839646Y-15935331D01*
X8849170Y-15916284D01*
X8858693Y-15906760D01*
X8877741Y-15897236D01*
X9030122Y-16097236D02*
X9030122Y-15963903D01*
X9030122Y-15982950D02*
X9039646Y-15973427D01*
X9058693Y-15963903D01*
X9087265Y-15963903D01*
X9106312Y-15973427D01*
X9115836Y-15992474D01*
X9115836Y-16097236D01*
X9115836Y-15992474D02*
X9125360Y-15973427D01*
X9144408Y-15963903D01*
X9172979Y-15963903D01*
X9192027Y-15973427D01*
X9201550Y-15992474D01*
X9201550Y-16097236D01*
X9296789Y-16097236D02*
X9296789Y-15963903D01*
X9296789Y-15982950D02*
X9306312Y-15973427D01*
X9325360Y-15963903D01*
X9353931Y-15963903D01*
X9372979Y-15973427D01*
X9382503Y-15992474D01*
X9382503Y-16097236D01*
X9382503Y-15992474D02*
X9392027Y-15973427D01*
X9411074Y-15963903D01*
X9439646Y-15963903D01*
X9458693Y-15973427D01*
X9468217Y-15992474D01*
X9468217Y-16097236D01*
X9858693Y-15887712D02*
X9687265Y-16144855D01*
X10115836Y-15897236D02*
X10134884Y-15897236D01*
X10153931Y-15906760D01*
X10163455Y-15916284D01*
X10172979Y-15935331D01*
X10182503Y-15973427D01*
X10182503Y-16021046D01*
X10172979Y-16059141D01*
X10163455Y-16078188D01*
X10153931Y-16087712D01*
X10134884Y-16097236D01*
X10115836Y-16097236D01*
X10096789Y-16087712D01*
X10087265Y-16078188D01*
X10077741Y-16059141D01*
X10068217Y-16021046D01*
X10068217Y-15973427D01*
X10077741Y-15935331D01*
X10087265Y-15916284D01*
X10096789Y-15906760D01*
X10115836Y-15897236D01*
X10268217Y-16078188D02*
X10277741Y-16087712D01*
X10268217Y-16097236D01*
X10258693Y-16087712D01*
X10268217Y-16078188D01*
X10268217Y-16097236D01*
X10401550Y-15897236D02*
X10420598Y-15897236D01*
X10439646Y-15906760D01*
X10449170Y-15916284D01*
X10458693Y-15935331D01*
X10468217Y-15973427D01*
X10468217Y-16021046D01*
X10458693Y-16059141D01*
X10449170Y-16078188D01*
X10439646Y-16087712D01*
X10420598Y-16097236D01*
X10401550Y-16097236D01*
X10382503Y-16087712D01*
X10372979Y-16078188D01*
X10363455Y-16059141D01*
X10353931Y-16021046D01*
X10353931Y-15973427D01*
X10363455Y-15935331D01*
X10372979Y-15916284D01*
X10382503Y-15906760D01*
X10401550Y-15897236D01*
X10534884Y-15897236D02*
X10658693Y-15897236D01*
X10592027Y-15973427D01*
X10620598Y-15973427D01*
X10639646Y-15982950D01*
X10649170Y-15992474D01*
X10658693Y-16011522D01*
X10658693Y-16059141D01*
X10649170Y-16078188D01*
X10639646Y-16087712D01*
X10620598Y-16097236D01*
X10563455Y-16097236D01*
X10544408Y-16087712D01*
X10534884Y-16078188D01*
X10849170Y-16097236D02*
X10734884Y-16097236D01*
X10792027Y-16097236D02*
X10792027Y-15897236D01*
X10772979Y-15925808D01*
X10753931Y-15944855D01*
X10734884Y-15954379D01*
X11030122Y-15897236D02*
X10934884Y-15897236D01*
X10925360Y-15992474D01*
X10934884Y-15982950D01*
X10953931Y-15973427D01*
X11001550Y-15973427D01*
X11020598Y-15982950D01*
X11030122Y-15992474D01*
X11039646Y-16011522D01*
X11039646Y-16059141D01*
X11030122Y-16078188D01*
X11020598Y-16087712D01*
X11001550Y-16097236D01*
X10953931Y-16097236D01*
X10934884Y-16087712D01*
X10925360Y-16078188D01*
X11115836Y-15897236D02*
X11115836Y-15935331D01*
X11192027Y-15897236D02*
X11192027Y-15935331D01*
X11487265Y-16173427D02*
X11477741Y-16163903D01*
X11458693Y-16135331D01*
X11449169Y-16116284D01*
X11439646Y-16087712D01*
X11430122Y-16040093D01*
X11430122Y-16001998D01*
X11439646Y-15954379D01*
X11449169Y-15925808D01*
X11458693Y-15906760D01*
X11477741Y-15878188D01*
X11487265Y-15868665D01*
X11544408Y-15897236D02*
X11668217Y-15897236D01*
X11601550Y-15973427D01*
X11630122Y-15973427D01*
X11649169Y-15982950D01*
X11658693Y-15992474D01*
X11668217Y-16011522D01*
X11668217Y-16059141D01*
X11658693Y-16078188D01*
X11649169Y-16087712D01*
X11630122Y-16097236D01*
X11572979Y-16097236D01*
X11553931Y-16087712D01*
X11544408Y-16078188D01*
X11839646Y-15963903D02*
X11839646Y-16097236D01*
X11792027Y-15887712D02*
X11744408Y-16030569D01*
X11868217Y-16030569D01*
X12096788Y-16097236D02*
X12096788Y-15897236D01*
X12182503Y-16097236D02*
X12182503Y-15992474D01*
X12172979Y-15973427D01*
X12153931Y-15963903D01*
X12125360Y-15963903D01*
X12106312Y-15973427D01*
X12096788Y-15982950D01*
X12306312Y-16097236D02*
X12287265Y-16087712D01*
X12277741Y-16078188D01*
X12268217Y-16059141D01*
X12268217Y-16001998D01*
X12277741Y-15982950D01*
X12287265Y-15973427D01*
X12306312Y-15963903D01*
X12334884Y-15963903D01*
X12353931Y-15973427D01*
X12363455Y-15982950D01*
X12372979Y-16001998D01*
X12372979Y-16059141D01*
X12363455Y-16078188D01*
X12353931Y-16087712D01*
X12334884Y-16097236D01*
X12306312Y-16097236D01*
X12487265Y-16097236D02*
X12468217Y-16087712D01*
X12458693Y-16068665D01*
X12458693Y-15897236D01*
X12639646Y-16087712D02*
X12620598Y-16097236D01*
X12582503Y-16097236D01*
X12563455Y-16087712D01*
X12553931Y-16068665D01*
X12553931Y-15992474D01*
X12563455Y-15973427D01*
X12582503Y-15963903D01*
X12620598Y-15963903D01*
X12639646Y-15973427D01*
X12649169Y-15992474D01*
X12649169Y-16011522D01*
X12553931Y-16030569D01*
X12725360Y-16087712D02*
X12744408Y-16097236D01*
X12782503Y-16097236D01*
X12801550Y-16087712D01*
X12811074Y-16068665D01*
X12811074Y-16059141D01*
X12801550Y-16040093D01*
X12782503Y-16030569D01*
X12753931Y-16030569D01*
X12734884Y-16021046D01*
X12725360Y-16001998D01*
X12725360Y-15992474D01*
X12734884Y-15973427D01*
X12753931Y-15963903D01*
X12782503Y-15963903D01*
X12801550Y-15973427D01*
X12877741Y-16173427D02*
X12887265Y-16163903D01*
X12906312Y-16135331D01*
X12915836Y-16116284D01*
X12925360Y-16087712D01*
X12934884Y-16040093D01*
X12934884Y-16001998D01*
X12925360Y-15954379D01*
X12915836Y-15925808D01*
X12906312Y-15906760D01*
X12887265Y-15878188D01*
X12877741Y-15868665D01*
D14*
X7865360Y-16220760D02*
X7865360Y-16320760D01*
X7815360Y-16270760D02*
X7915360Y-16270760D01*
D11*
X8277741Y-16361236D02*
X8163455Y-16361236D01*
X8220598Y-16361236D02*
X8220598Y-16161236D01*
X8201550Y-16189808D01*
X8182503Y-16208855D01*
X8163455Y-16218379D01*
X8363455Y-16342188D02*
X8372979Y-16351712D01*
X8363455Y-16361236D01*
X8353931Y-16351712D01*
X8363455Y-16342188D01*
X8363455Y-16361236D01*
X8496789Y-16161236D02*
X8515836Y-16161236D01*
X8534884Y-16170760D01*
X8544408Y-16180284D01*
X8553931Y-16199331D01*
X8563455Y-16237427D01*
X8563455Y-16285046D01*
X8553931Y-16323141D01*
X8544408Y-16342188D01*
X8534884Y-16351712D01*
X8515836Y-16361236D01*
X8496789Y-16361236D01*
X8477741Y-16351712D01*
X8468217Y-16342188D01*
X8458693Y-16323141D01*
X8449170Y-16285046D01*
X8449170Y-16237427D01*
X8458693Y-16199331D01*
X8468217Y-16180284D01*
X8477741Y-16170760D01*
X8496789Y-16161236D01*
X8687265Y-16161236D02*
X8706312Y-16161236D01*
X8725360Y-16170760D01*
X8734884Y-16180284D01*
X8744408Y-16199331D01*
X8753931Y-16237427D01*
X8753931Y-16285046D01*
X8744408Y-16323141D01*
X8734884Y-16342188D01*
X8725360Y-16351712D01*
X8706312Y-16361236D01*
X8687265Y-16361236D01*
X8668217Y-16351712D01*
X8658693Y-16342188D01*
X8649170Y-16323141D01*
X8639646Y-16285046D01*
X8639646Y-16237427D01*
X8649170Y-16199331D01*
X8658693Y-16180284D01*
X8668217Y-16170760D01*
X8687265Y-16161236D01*
X8877741Y-16161236D02*
X8896789Y-16161236D01*
X8915836Y-16170760D01*
X8925360Y-16180284D01*
X8934884Y-16199331D01*
X8944408Y-16237427D01*
X8944408Y-16285046D01*
X8934884Y-16323141D01*
X8925360Y-16342188D01*
X8915836Y-16351712D01*
X8896789Y-16361236D01*
X8877741Y-16361236D01*
X8858693Y-16351712D01*
X8849170Y-16342188D01*
X8839646Y-16323141D01*
X8830122Y-16285046D01*
X8830122Y-16237427D01*
X8839646Y-16199331D01*
X8849170Y-16180284D01*
X8858693Y-16170760D01*
X8877741Y-16161236D01*
X9030122Y-16361236D02*
X9030122Y-16227903D01*
X9030122Y-16246950D02*
X9039646Y-16237427D01*
X9058693Y-16227903D01*
X9087265Y-16227903D01*
X9106312Y-16237427D01*
X9115836Y-16256474D01*
X9115836Y-16361236D01*
X9115836Y-16256474D02*
X9125360Y-16237427D01*
X9144408Y-16227903D01*
X9172979Y-16227903D01*
X9192027Y-16237427D01*
X9201550Y-16256474D01*
X9201550Y-16361236D01*
X9296789Y-16361236D02*
X9296789Y-16227903D01*
X9296789Y-16246950D02*
X9306312Y-16237427D01*
X9325360Y-16227903D01*
X9353931Y-16227903D01*
X9372979Y-16237427D01*
X9382503Y-16256474D01*
X9382503Y-16361236D01*
X9382503Y-16256474D02*
X9392027Y-16237427D01*
X9411074Y-16227903D01*
X9439646Y-16227903D01*
X9458693Y-16237427D01*
X9468217Y-16256474D01*
X9468217Y-16361236D01*
X9858693Y-16151712D02*
X9687265Y-16408855D01*
X10115836Y-16161236D02*
X10134884Y-16161236D01*
X10153931Y-16170760D01*
X10163455Y-16180284D01*
X10172979Y-16199331D01*
X10182503Y-16237427D01*
X10182503Y-16285046D01*
X10172979Y-16323141D01*
X10163455Y-16342188D01*
X10153931Y-16351712D01*
X10134884Y-16361236D01*
X10115836Y-16361236D01*
X10096789Y-16351712D01*
X10087265Y-16342188D01*
X10077741Y-16323141D01*
X10068217Y-16285046D01*
X10068217Y-16237427D01*
X10077741Y-16199331D01*
X10087265Y-16180284D01*
X10096789Y-16170760D01*
X10115836Y-16161236D01*
X10268217Y-16342188D02*
X10277741Y-16351712D01*
X10268217Y-16361236D01*
X10258693Y-16351712D01*
X10268217Y-16342188D01*
X10268217Y-16361236D01*
X10401550Y-16161236D02*
X10420598Y-16161236D01*
X10439646Y-16170760D01*
X10449170Y-16180284D01*
X10458693Y-16199331D01*
X10468217Y-16237427D01*
X10468217Y-16285046D01*
X10458693Y-16323141D01*
X10449170Y-16342188D01*
X10439646Y-16351712D01*
X10420598Y-16361236D01*
X10401550Y-16361236D01*
X10382503Y-16351712D01*
X10372979Y-16342188D01*
X10363455Y-16323141D01*
X10353931Y-16285046D01*
X10353931Y-16237427D01*
X10363455Y-16199331D01*
X10372979Y-16180284D01*
X10382503Y-16170760D01*
X10401550Y-16161236D01*
X10534884Y-16161236D02*
X10658693Y-16161236D01*
X10592027Y-16237427D01*
X10620598Y-16237427D01*
X10639646Y-16246950D01*
X10649170Y-16256474D01*
X10658693Y-16275522D01*
X10658693Y-16323141D01*
X10649170Y-16342188D01*
X10639646Y-16351712D01*
X10620598Y-16361236D01*
X10563455Y-16361236D01*
X10544408Y-16351712D01*
X10534884Y-16342188D01*
X10753931Y-16361236D02*
X10792027Y-16361236D01*
X10811074Y-16351712D01*
X10820598Y-16342188D01*
X10839646Y-16313617D01*
X10849170Y-16275522D01*
X10849170Y-16199331D01*
X10839646Y-16180284D01*
X10830122Y-16170760D01*
X10811074Y-16161236D01*
X10772979Y-16161236D01*
X10753931Y-16170760D01*
X10744408Y-16180284D01*
X10734884Y-16199331D01*
X10734884Y-16246950D01*
X10744408Y-16265998D01*
X10753931Y-16275522D01*
X10772979Y-16285046D01*
X10811074Y-16285046D01*
X10830122Y-16275522D01*
X10839646Y-16265998D01*
X10849170Y-16246950D01*
X11020598Y-16227903D02*
X11020598Y-16361236D01*
X10972979Y-16151712D02*
X10925360Y-16294569D01*
X11049170Y-16294569D01*
X11115836Y-16161236D02*
X11115836Y-16199331D01*
X11192027Y-16161236D02*
X11192027Y-16199331D01*
X11487265Y-16437427D02*
X11477741Y-16427903D01*
X11458693Y-16399331D01*
X11449169Y-16380284D01*
X11439646Y-16351712D01*
X11430122Y-16304093D01*
X11430122Y-16265998D01*
X11439646Y-16218379D01*
X11449169Y-16189808D01*
X11458693Y-16170760D01*
X11477741Y-16142188D01*
X11487265Y-16132665D01*
X11649169Y-16227903D02*
X11649169Y-16361236D01*
X11601550Y-16151712D02*
X11553931Y-16294569D01*
X11677741Y-16294569D01*
X11782503Y-16246950D02*
X11763455Y-16237427D01*
X11753931Y-16227903D01*
X11744408Y-16208855D01*
X11744408Y-16199331D01*
X11753931Y-16180284D01*
X11763455Y-16170760D01*
X11782503Y-16161236D01*
X11820598Y-16161236D01*
X11839646Y-16170760D01*
X11849169Y-16180284D01*
X11858693Y-16199331D01*
X11858693Y-16208855D01*
X11849169Y-16227903D01*
X11839646Y-16237427D01*
X11820598Y-16246950D01*
X11782503Y-16246950D01*
X11763455Y-16256474D01*
X11753931Y-16265998D01*
X11744408Y-16285046D01*
X11744408Y-16323141D01*
X11753931Y-16342188D01*
X11763455Y-16351712D01*
X11782503Y-16361236D01*
X11820598Y-16361236D01*
X11839646Y-16351712D01*
X11849169Y-16342188D01*
X11858693Y-16323141D01*
X11858693Y-16285046D01*
X11849169Y-16265998D01*
X11839646Y-16256474D01*
X11820598Y-16246950D01*
X12096788Y-16361236D02*
X12096788Y-16161236D01*
X12182503Y-16361236D02*
X12182503Y-16256474D01*
X12172979Y-16237427D01*
X12153931Y-16227903D01*
X12125360Y-16227903D01*
X12106312Y-16237427D01*
X12096788Y-16246950D01*
X12306312Y-16361236D02*
X12287265Y-16351712D01*
X12277741Y-16342188D01*
X12268217Y-16323141D01*
X12268217Y-16265998D01*
X12277741Y-16246950D01*
X12287265Y-16237427D01*
X12306312Y-16227903D01*
X12334884Y-16227903D01*
X12353931Y-16237427D01*
X12363455Y-16246950D01*
X12372979Y-16265998D01*
X12372979Y-16323141D01*
X12363455Y-16342188D01*
X12353931Y-16351712D01*
X12334884Y-16361236D01*
X12306312Y-16361236D01*
X12487265Y-16361236D02*
X12468217Y-16351712D01*
X12458693Y-16332665D01*
X12458693Y-16161236D01*
X12639646Y-16351712D02*
X12620598Y-16361236D01*
X12582503Y-16361236D01*
X12563455Y-16351712D01*
X12553931Y-16332665D01*
X12553931Y-16256474D01*
X12563455Y-16237427D01*
X12582503Y-16227903D01*
X12620598Y-16227903D01*
X12639646Y-16237427D01*
X12649169Y-16256474D01*
X12649169Y-16275522D01*
X12553931Y-16294569D01*
X12725360Y-16351712D02*
X12744408Y-16361236D01*
X12782503Y-16361236D01*
X12801550Y-16351712D01*
X12811074Y-16332665D01*
X12811074Y-16323141D01*
X12801550Y-16304093D01*
X12782503Y-16294569D01*
X12753931Y-16294569D01*
X12734884Y-16285046D01*
X12725360Y-16265998D01*
X12725360Y-16256474D01*
X12734884Y-16237427D01*
X12753931Y-16227903D01*
X12782503Y-16227903D01*
X12801550Y-16237427D01*
X12877741Y-16437427D02*
X12887265Y-16427903D01*
X12906312Y-16399331D01*
X12915836Y-16380284D01*
X12925360Y-16351712D01*
X12934884Y-16304093D01*
X12934884Y-16265998D01*
X12925360Y-16218379D01*
X12915836Y-16189808D01*
X12906312Y-16170760D01*
X12887265Y-16142188D01*
X12877741Y-16132665D01*
D15*
X7899251Y-16573651D02*
X7899251Y-16495869D01*
X7821469Y-16495869D01*
X7821469Y-16573651D01*
X7899251Y-16573651D01*
D11*
X8277741Y-16625236D02*
X8163455Y-16625236D01*
X8220598Y-16625236D02*
X8220598Y-16425236D01*
X8201550Y-16453808D01*
X8182503Y-16472855D01*
X8163455Y-16482379D01*
X8363455Y-16606188D02*
X8372979Y-16615712D01*
X8363455Y-16625236D01*
X8353931Y-16615712D01*
X8363455Y-16606188D01*
X8363455Y-16625236D01*
X8563455Y-16625236D02*
X8449170Y-16625236D01*
X8506312Y-16625236D02*
X8506312Y-16425236D01*
X8487265Y-16453808D01*
X8468217Y-16472855D01*
X8449170Y-16482379D01*
X8687265Y-16425236D02*
X8706312Y-16425236D01*
X8725360Y-16434760D01*
X8734884Y-16444284D01*
X8744408Y-16463331D01*
X8753931Y-16501427D01*
X8753931Y-16549046D01*
X8744408Y-16587141D01*
X8734884Y-16606188D01*
X8725360Y-16615712D01*
X8706312Y-16625236D01*
X8687265Y-16625236D01*
X8668217Y-16615712D01*
X8658693Y-16606188D01*
X8649170Y-16587141D01*
X8639646Y-16549046D01*
X8639646Y-16501427D01*
X8649170Y-16463331D01*
X8658693Y-16444284D01*
X8668217Y-16434760D01*
X8687265Y-16425236D01*
X8877741Y-16425236D02*
X8896789Y-16425236D01*
X8915836Y-16434760D01*
X8925360Y-16444284D01*
X8934884Y-16463331D01*
X8944408Y-16501427D01*
X8944408Y-16549046D01*
X8934884Y-16587141D01*
X8925360Y-16606188D01*
X8915836Y-16615712D01*
X8896789Y-16625236D01*
X8877741Y-16625236D01*
X8858693Y-16615712D01*
X8849170Y-16606188D01*
X8839646Y-16587141D01*
X8830122Y-16549046D01*
X8830122Y-16501427D01*
X8839646Y-16463331D01*
X8849170Y-16444284D01*
X8858693Y-16434760D01*
X8877741Y-16425236D01*
X9030122Y-16625236D02*
X9030122Y-16491903D01*
X9030122Y-16510950D02*
X9039646Y-16501427D01*
X9058693Y-16491903D01*
X9087265Y-16491903D01*
X9106312Y-16501427D01*
X9115836Y-16520474D01*
X9115836Y-16625236D01*
X9115836Y-16520474D02*
X9125360Y-16501427D01*
X9144408Y-16491903D01*
X9172979Y-16491903D01*
X9192027Y-16501427D01*
X9201550Y-16520474D01*
X9201550Y-16625236D01*
X9296789Y-16625236D02*
X9296789Y-16491903D01*
X9296789Y-16510950D02*
X9306312Y-16501427D01*
X9325360Y-16491903D01*
X9353931Y-16491903D01*
X9372979Y-16501427D01*
X9382503Y-16520474D01*
X9382503Y-16625236D01*
X9382503Y-16520474D02*
X9392027Y-16501427D01*
X9411074Y-16491903D01*
X9439646Y-16491903D01*
X9458693Y-16501427D01*
X9468217Y-16520474D01*
X9468217Y-16625236D01*
X9858693Y-16415712D02*
X9687265Y-16672855D01*
X10115836Y-16425236D02*
X10134884Y-16425236D01*
X10153931Y-16434760D01*
X10163455Y-16444284D01*
X10172979Y-16463331D01*
X10182503Y-16501427D01*
X10182503Y-16549046D01*
X10172979Y-16587141D01*
X10163455Y-16606188D01*
X10153931Y-16615712D01*
X10134884Y-16625236D01*
X10115836Y-16625236D01*
X10096789Y-16615712D01*
X10087265Y-16606188D01*
X10077741Y-16587141D01*
X10068217Y-16549046D01*
X10068217Y-16501427D01*
X10077741Y-16463331D01*
X10087265Y-16444284D01*
X10096789Y-16434760D01*
X10115836Y-16425236D01*
X10268217Y-16606188D02*
X10277741Y-16615712D01*
X10268217Y-16625236D01*
X10258693Y-16615712D01*
X10268217Y-16606188D01*
X10268217Y-16625236D01*
X10401550Y-16425236D02*
X10420598Y-16425236D01*
X10439646Y-16434760D01*
X10449170Y-16444284D01*
X10458693Y-16463331D01*
X10468217Y-16501427D01*
X10468217Y-16549046D01*
X10458693Y-16587141D01*
X10449170Y-16606188D01*
X10439646Y-16615712D01*
X10420598Y-16625236D01*
X10401550Y-16625236D01*
X10382503Y-16615712D01*
X10372979Y-16606188D01*
X10363455Y-16587141D01*
X10353931Y-16549046D01*
X10353931Y-16501427D01*
X10363455Y-16463331D01*
X10372979Y-16444284D01*
X10382503Y-16434760D01*
X10401550Y-16425236D01*
X10639646Y-16491903D02*
X10639646Y-16625236D01*
X10592027Y-16415712D02*
X10544408Y-16558569D01*
X10668217Y-16558569D01*
X10725360Y-16425236D02*
X10849170Y-16425236D01*
X10782503Y-16501427D01*
X10811074Y-16501427D01*
X10830122Y-16510950D01*
X10839646Y-16520474D01*
X10849170Y-16539522D01*
X10849170Y-16587141D01*
X10839646Y-16606188D01*
X10830122Y-16615712D01*
X10811074Y-16625236D01*
X10753931Y-16625236D01*
X10734884Y-16615712D01*
X10725360Y-16606188D01*
X10915836Y-16425236D02*
X11039646Y-16425236D01*
X10972979Y-16501427D01*
X11001550Y-16501427D01*
X11020598Y-16510950D01*
X11030122Y-16520474D01*
X11039646Y-16539522D01*
X11039646Y-16587141D01*
X11030122Y-16606188D01*
X11020598Y-16615712D01*
X11001550Y-16625236D01*
X10944408Y-16625236D01*
X10925360Y-16615712D01*
X10915836Y-16606188D01*
X11115836Y-16425236D02*
X11115836Y-16463331D01*
X11192027Y-16425236D02*
X11192027Y-16463331D01*
X11487265Y-16701427D02*
X11477741Y-16691903D01*
X11458693Y-16663331D01*
X11449169Y-16644284D01*
X11439646Y-16615712D01*
X11430122Y-16568093D01*
X11430122Y-16529998D01*
X11439646Y-16482379D01*
X11449169Y-16453808D01*
X11458693Y-16434760D01*
X11477741Y-16406188D01*
X11487265Y-16396665D01*
X11658693Y-16425236D02*
X11563455Y-16425236D01*
X11553931Y-16520474D01*
X11563455Y-16510950D01*
X11582503Y-16501427D01*
X11630122Y-16501427D01*
X11649169Y-16510950D01*
X11658693Y-16520474D01*
X11668217Y-16539522D01*
X11668217Y-16587141D01*
X11658693Y-16606188D01*
X11649169Y-16615712D01*
X11630122Y-16625236D01*
X11582503Y-16625236D01*
X11563455Y-16615712D01*
X11553931Y-16606188D01*
X11906312Y-16625236D02*
X11906312Y-16425236D01*
X11992027Y-16625236D02*
X11992027Y-16520474D01*
X11982503Y-16501427D01*
X11963455Y-16491903D01*
X11934884Y-16491903D01*
X11915836Y-16501427D01*
X11906312Y-16510950D01*
X12115836Y-16625236D02*
X12096788Y-16615712D01*
X12087265Y-16606188D01*
X12077741Y-16587141D01*
X12077741Y-16529998D01*
X12087265Y-16510950D01*
X12096788Y-16501427D01*
X12115836Y-16491903D01*
X12144408Y-16491903D01*
X12163455Y-16501427D01*
X12172979Y-16510950D01*
X12182503Y-16529998D01*
X12182503Y-16587141D01*
X12172979Y-16606188D01*
X12163455Y-16615712D01*
X12144408Y-16625236D01*
X12115836Y-16625236D01*
X12296788Y-16625236D02*
X12277741Y-16615712D01*
X12268217Y-16596665D01*
X12268217Y-16425236D01*
X12449169Y-16615712D02*
X12430122Y-16625236D01*
X12392027Y-16625236D01*
X12372979Y-16615712D01*
X12363455Y-16596665D01*
X12363455Y-16520474D01*
X12372979Y-16501427D01*
X12392027Y-16491903D01*
X12430122Y-16491903D01*
X12449169Y-16501427D01*
X12458693Y-16520474D01*
X12458693Y-16539522D01*
X12363455Y-16558569D01*
X12534884Y-16615712D02*
X12553931Y-16625236D01*
X12592027Y-16625236D01*
X12611074Y-16615712D01*
X12620598Y-16596665D01*
X12620598Y-16587141D01*
X12611074Y-16568093D01*
X12592027Y-16558569D01*
X12563455Y-16558569D01*
X12544408Y-16549046D01*
X12534884Y-16529998D01*
X12534884Y-16520474D01*
X12544408Y-16501427D01*
X12563455Y-16491903D01*
X12592027Y-16491903D01*
X12611074Y-16501427D01*
X12687265Y-16701427D02*
X12696788Y-16691903D01*
X12715836Y-16663331D01*
X12725360Y-16644284D01*
X12734884Y-16615712D01*
X12744408Y-16568093D01*
X12744408Y-16529998D01*
X12734884Y-16482379D01*
X12725360Y-16453808D01*
X12715836Y-16434760D01*
X12696788Y-16406188D01*
X12687265Y-16396665D01*
D16*
X7840360Y-16873760D02*
X7915360Y-16798760D01*
X7840360Y-16723760D01*
X7765360Y-16798760D01*
X7840360Y-16873760D01*
D11*
X8277741Y-16889236D02*
X8163455Y-16889236D01*
X8220598Y-16889236D02*
X8220598Y-16689236D01*
X8201550Y-16717808D01*
X8182503Y-16736855D01*
X8163455Y-16746379D01*
X8363455Y-16870189D02*
X8372979Y-16879712D01*
X8363455Y-16889236D01*
X8353931Y-16879712D01*
X8363455Y-16870189D01*
X8363455Y-16889236D01*
X8553931Y-16689236D02*
X8458693Y-16689236D01*
X8449170Y-16784474D01*
X8458693Y-16774950D01*
X8477741Y-16765427D01*
X8525360Y-16765427D01*
X8544408Y-16774950D01*
X8553931Y-16784474D01*
X8563455Y-16803522D01*
X8563455Y-16851141D01*
X8553931Y-16870189D01*
X8544408Y-16879712D01*
X8525360Y-16889236D01*
X8477741Y-16889236D01*
X8458693Y-16879712D01*
X8449170Y-16870189D01*
X8687265Y-16689236D02*
X8706312Y-16689236D01*
X8725360Y-16698760D01*
X8734884Y-16708284D01*
X8744408Y-16727331D01*
X8753931Y-16765427D01*
X8753931Y-16813046D01*
X8744408Y-16851141D01*
X8734884Y-16870189D01*
X8725360Y-16879712D01*
X8706312Y-16889236D01*
X8687265Y-16889236D01*
X8668217Y-16879712D01*
X8658693Y-16870189D01*
X8649170Y-16851141D01*
X8639646Y-16813046D01*
X8639646Y-16765427D01*
X8649170Y-16727331D01*
X8658693Y-16708284D01*
X8668217Y-16698760D01*
X8687265Y-16689236D01*
X8877741Y-16689236D02*
X8896789Y-16689236D01*
X8915836Y-16698760D01*
X8925360Y-16708284D01*
X8934884Y-16727331D01*
X8944408Y-16765427D01*
X8944408Y-16813046D01*
X8934884Y-16851141D01*
X8925360Y-16870189D01*
X8915836Y-16879712D01*
X8896789Y-16889236D01*
X8877741Y-16889236D01*
X8858693Y-16879712D01*
X8849170Y-16870189D01*
X8839646Y-16851141D01*
X8830122Y-16813046D01*
X8830122Y-16765427D01*
X8839646Y-16727331D01*
X8849170Y-16708284D01*
X8858693Y-16698760D01*
X8877741Y-16689236D01*
X9030122Y-16889236D02*
X9030122Y-16755903D01*
X9030122Y-16774950D02*
X9039646Y-16765427D01*
X9058693Y-16755903D01*
X9087265Y-16755903D01*
X9106312Y-16765427D01*
X9115836Y-16784474D01*
X9115836Y-16889236D01*
X9115836Y-16784474D02*
X9125360Y-16765427D01*
X9144408Y-16755903D01*
X9172979Y-16755903D01*
X9192027Y-16765427D01*
X9201550Y-16784474D01*
X9201550Y-16889236D01*
X9296789Y-16889236D02*
X9296789Y-16755903D01*
X9296789Y-16774950D02*
X9306312Y-16765427D01*
X9325360Y-16755903D01*
X9353931Y-16755903D01*
X9372979Y-16765427D01*
X9382503Y-16784474D01*
X9382503Y-16889236D01*
X9382503Y-16784474D02*
X9392027Y-16765427D01*
X9411074Y-16755903D01*
X9439646Y-16755903D01*
X9458693Y-16765427D01*
X9468217Y-16784474D01*
X9468217Y-16889236D01*
X9858693Y-16679712D02*
X9687265Y-16936855D01*
X10115836Y-16689236D02*
X10134884Y-16689236D01*
X10153931Y-16698760D01*
X10163455Y-16708284D01*
X10172979Y-16727331D01*
X10182503Y-16765427D01*
X10182503Y-16813046D01*
X10172979Y-16851141D01*
X10163455Y-16870189D01*
X10153931Y-16879712D01*
X10134884Y-16889236D01*
X10115836Y-16889236D01*
X10096789Y-16879712D01*
X10087265Y-16870189D01*
X10077741Y-16851141D01*
X10068217Y-16813046D01*
X10068217Y-16765427D01*
X10077741Y-16727331D01*
X10087265Y-16708284D01*
X10096789Y-16698760D01*
X10115836Y-16689236D01*
X10268217Y-16870189D02*
X10277741Y-16879712D01*
X10268217Y-16889236D01*
X10258693Y-16879712D01*
X10268217Y-16870189D01*
X10268217Y-16889236D01*
X10401550Y-16689236D02*
X10420598Y-16689236D01*
X10439646Y-16698760D01*
X10449170Y-16708284D01*
X10458693Y-16727331D01*
X10468217Y-16765427D01*
X10468217Y-16813046D01*
X10458693Y-16851141D01*
X10449170Y-16870189D01*
X10439646Y-16879712D01*
X10420598Y-16889236D01*
X10401550Y-16889236D01*
X10382503Y-16879712D01*
X10372979Y-16870189D01*
X10363455Y-16851141D01*
X10353931Y-16813046D01*
X10353931Y-16765427D01*
X10363455Y-16727331D01*
X10372979Y-16708284D01*
X10382503Y-16698760D01*
X10401550Y-16689236D01*
X10649170Y-16689236D02*
X10553931Y-16689236D01*
X10544408Y-16784474D01*
X10553931Y-16774950D01*
X10572979Y-16765427D01*
X10620598Y-16765427D01*
X10639646Y-16774950D01*
X10649170Y-16784474D01*
X10658693Y-16803522D01*
X10658693Y-16851141D01*
X10649170Y-16870189D01*
X10639646Y-16879712D01*
X10620598Y-16889236D01*
X10572979Y-16889236D01*
X10553931Y-16879712D01*
X10544408Y-16870189D01*
X10753931Y-16889236D02*
X10792027Y-16889236D01*
X10811074Y-16879712D01*
X10820598Y-16870189D01*
X10839646Y-16841617D01*
X10849170Y-16803522D01*
X10849170Y-16727331D01*
X10839646Y-16708284D01*
X10830122Y-16698760D01*
X10811074Y-16689236D01*
X10772979Y-16689236D01*
X10753931Y-16698760D01*
X10744408Y-16708284D01*
X10734884Y-16727331D01*
X10734884Y-16774950D01*
X10744408Y-16793998D01*
X10753931Y-16803522D01*
X10772979Y-16813046D01*
X10811074Y-16813046D01*
X10830122Y-16803522D01*
X10839646Y-16793998D01*
X10849170Y-16774950D01*
X11039646Y-16889236D02*
X10925360Y-16889236D01*
X10982503Y-16889236D02*
X10982503Y-16689236D01*
X10963455Y-16717808D01*
X10944408Y-16736855D01*
X10925360Y-16746379D01*
X11115836Y-16689236D02*
X11115836Y-16727331D01*
X11192027Y-16689236D02*
X11192027Y-16727331D01*
X11487265Y-16965427D02*
X11477741Y-16955903D01*
X11458693Y-16927331D01*
X11449169Y-16908284D01*
X11439646Y-16879712D01*
X11430122Y-16832093D01*
X11430122Y-16793998D01*
X11439646Y-16746379D01*
X11449169Y-16717808D01*
X11458693Y-16698760D01*
X11477741Y-16670188D01*
X11487265Y-16660665D01*
X11553931Y-16708284D02*
X11563455Y-16698760D01*
X11582503Y-16689236D01*
X11630122Y-16689236D01*
X11649169Y-16698760D01*
X11658693Y-16708284D01*
X11668217Y-16727331D01*
X11668217Y-16746379D01*
X11658693Y-16774950D01*
X11544408Y-16889236D01*
X11668217Y-16889236D01*
X11906312Y-16889236D02*
X11906312Y-16689236D01*
X11992027Y-16889236D02*
X11992027Y-16784474D01*
X11982503Y-16765427D01*
X11963455Y-16755903D01*
X11934884Y-16755903D01*
X11915836Y-16765427D01*
X11906312Y-16774950D01*
X12115836Y-16889236D02*
X12096788Y-16879712D01*
X12087265Y-16870189D01*
X12077741Y-16851141D01*
X12077741Y-16793998D01*
X12087265Y-16774950D01*
X12096788Y-16765427D01*
X12115836Y-16755903D01*
X12144408Y-16755903D01*
X12163455Y-16765427D01*
X12172979Y-16774950D01*
X12182503Y-16793998D01*
X12182503Y-16851141D01*
X12172979Y-16870189D01*
X12163455Y-16879712D01*
X12144408Y-16889236D01*
X12115836Y-16889236D01*
X12296788Y-16889236D02*
X12277741Y-16879712D01*
X12268217Y-16860665D01*
X12268217Y-16689236D01*
X12449169Y-16879712D02*
X12430122Y-16889236D01*
X12392027Y-16889236D01*
X12372979Y-16879712D01*
X12363455Y-16860665D01*
X12363455Y-16784474D01*
X12372979Y-16765427D01*
X12392027Y-16755903D01*
X12430122Y-16755903D01*
X12449169Y-16765427D01*
X12458693Y-16784474D01*
X12458693Y-16803522D01*
X12363455Y-16822570D01*
X12534884Y-16879712D02*
X12553931Y-16889236D01*
X12592027Y-16889236D01*
X12611074Y-16879712D01*
X12620598Y-16860665D01*
X12620598Y-16851141D01*
X12611074Y-16832093D01*
X12592027Y-16822570D01*
X12563455Y-16822570D01*
X12544408Y-16813046D01*
X12534884Y-16793998D01*
X12534884Y-16784474D01*
X12544408Y-16765427D01*
X12563455Y-16755903D01*
X12592027Y-16755903D01*
X12611074Y-16765427D01*
X12687265Y-16965427D02*
X12696788Y-16955903D01*
X12715836Y-16927331D01*
X12725360Y-16908284D01*
X12734884Y-16879712D01*
X12744408Y-16832093D01*
X12744408Y-16793998D01*
X12734884Y-16746379D01*
X12725360Y-16717808D01*
X12715836Y-16698760D01*
X12696788Y-16670188D01*
X12687265Y-16660665D01*
X7715360Y-16968760D02*
X7915360Y-17168760D01*
X7915360Y-16968760D02*
X7715360Y-17168760D01*
X7915360Y-17068760D02*
G75*
G03*
X7915360Y-17068760I-100000J0D01*
G01*
X8153931Y-16959236D02*
X8277741Y-16959236D01*
X8211074Y-17035427D01*
X8239646Y-17035427D01*
X8258693Y-17044950D01*
X8268217Y-17054474D01*
X8277741Y-17073522D01*
X8277741Y-17121141D01*
X8268217Y-17140189D01*
X8258693Y-17149712D01*
X8239646Y-17159236D01*
X8182503Y-17159236D01*
X8163455Y-17149712D01*
X8153931Y-17140189D01*
X8363455Y-17140189D02*
X8372979Y-17149712D01*
X8363455Y-17159236D01*
X8353931Y-17149712D01*
X8363455Y-17140189D01*
X8363455Y-17159236D01*
X8449170Y-16978284D02*
X8458693Y-16968760D01*
X8477741Y-16959236D01*
X8525360Y-16959236D01*
X8544408Y-16968760D01*
X8553931Y-16978284D01*
X8563455Y-16997331D01*
X8563455Y-17016379D01*
X8553931Y-17044950D01*
X8439646Y-17159236D01*
X8563455Y-17159236D01*
X8687265Y-16959236D02*
X8706312Y-16959236D01*
X8725360Y-16968760D01*
X8734884Y-16978284D01*
X8744408Y-16997331D01*
X8753931Y-17035427D01*
X8753931Y-17083046D01*
X8744408Y-17121141D01*
X8734884Y-17140189D01*
X8725360Y-17149712D01*
X8706312Y-17159236D01*
X8687265Y-17159236D01*
X8668217Y-17149712D01*
X8658693Y-17140189D01*
X8649170Y-17121141D01*
X8639646Y-17083046D01*
X8639646Y-17035427D01*
X8649170Y-16997331D01*
X8658693Y-16978284D01*
X8668217Y-16968760D01*
X8687265Y-16959236D01*
X8877741Y-16959236D02*
X8896789Y-16959236D01*
X8915836Y-16968760D01*
X8925360Y-16978284D01*
X8934884Y-16997331D01*
X8944408Y-17035427D01*
X8944408Y-17083046D01*
X8934884Y-17121141D01*
X8925360Y-17140189D01*
X8915836Y-17149712D01*
X8896789Y-17159236D01*
X8877741Y-17159236D01*
X8858693Y-17149712D01*
X8849170Y-17140189D01*
X8839646Y-17121141D01*
X8830122Y-17083046D01*
X8830122Y-17035427D01*
X8839646Y-16997331D01*
X8849170Y-16978284D01*
X8858693Y-16968760D01*
X8877741Y-16959236D01*
X9030122Y-17159236D02*
X9030122Y-17025903D01*
X9030122Y-17044950D02*
X9039646Y-17035427D01*
X9058693Y-17025903D01*
X9087265Y-17025903D01*
X9106312Y-17035427D01*
X9115836Y-17054474D01*
X9115836Y-17159236D01*
X9115836Y-17054474D02*
X9125360Y-17035427D01*
X9144408Y-17025903D01*
X9172979Y-17025903D01*
X9192027Y-17035427D01*
X9201550Y-17054474D01*
X9201550Y-17159236D01*
X9296789Y-17159236D02*
X9296789Y-17025903D01*
X9296789Y-17044950D02*
X9306312Y-17035427D01*
X9325360Y-17025903D01*
X9353931Y-17025903D01*
X9372979Y-17035427D01*
X9382503Y-17054474D01*
X9382503Y-17159236D01*
X9382503Y-17054474D02*
X9392027Y-17035427D01*
X9411074Y-17025903D01*
X9439646Y-17025903D01*
X9458693Y-17035427D01*
X9468217Y-17054474D01*
X9468217Y-17159236D01*
X9858693Y-16949712D02*
X9687265Y-17206855D01*
X10115836Y-16959236D02*
X10134884Y-16959236D01*
X10153931Y-16968760D01*
X10163455Y-16978284D01*
X10172979Y-16997331D01*
X10182503Y-17035427D01*
X10182503Y-17083046D01*
X10172979Y-17121141D01*
X10163455Y-17140189D01*
X10153931Y-17149712D01*
X10134884Y-17159236D01*
X10115836Y-17159236D01*
X10096789Y-17149712D01*
X10087265Y-17140189D01*
X10077741Y-17121141D01*
X10068217Y-17083046D01*
X10068217Y-17035427D01*
X10077741Y-16997331D01*
X10087265Y-16978284D01*
X10096789Y-16968760D01*
X10115836Y-16959236D01*
X10268217Y-17140189D02*
X10277741Y-17149712D01*
X10268217Y-17159236D01*
X10258693Y-17149712D01*
X10268217Y-17140189D01*
X10268217Y-17159236D01*
X10468217Y-17159236D02*
X10353931Y-17159236D01*
X10411074Y-17159236D02*
X10411074Y-16959236D01*
X10392027Y-16987808D01*
X10372979Y-17006855D01*
X10353931Y-17016379D01*
X10544408Y-16978284D02*
X10553931Y-16968760D01*
X10572979Y-16959236D01*
X10620598Y-16959236D01*
X10639646Y-16968760D01*
X10649170Y-16978284D01*
X10658693Y-16997331D01*
X10658693Y-17016379D01*
X10649170Y-17044950D01*
X10534884Y-17159236D01*
X10658693Y-17159236D01*
X10830122Y-16959236D02*
X10792027Y-16959236D01*
X10772979Y-16968760D01*
X10763455Y-16978284D01*
X10744408Y-17006855D01*
X10734884Y-17044950D01*
X10734884Y-17121141D01*
X10744408Y-17140189D01*
X10753931Y-17149712D01*
X10772979Y-17159236D01*
X10811074Y-17159236D01*
X10830122Y-17149712D01*
X10839646Y-17140189D01*
X10849170Y-17121141D01*
X10849170Y-17073522D01*
X10839646Y-17054474D01*
X10830122Y-17044950D01*
X10811074Y-17035427D01*
X10772979Y-17035427D01*
X10753931Y-17044950D01*
X10744408Y-17054474D01*
X10734884Y-17073522D01*
X10972979Y-16959236D02*
X10992027Y-16959236D01*
X11011074Y-16968760D01*
X11020598Y-16978284D01*
X11030122Y-16997331D01*
X11039646Y-17035427D01*
X11039646Y-17083046D01*
X11030122Y-17121141D01*
X11020598Y-17140189D01*
X11011074Y-17149712D01*
X10992027Y-17159236D01*
X10972979Y-17159236D01*
X10953931Y-17149712D01*
X10944408Y-17140189D01*
X10934884Y-17121141D01*
X10925360Y-17083046D01*
X10925360Y-17035427D01*
X10934884Y-16997331D01*
X10944408Y-16978284D01*
X10953931Y-16968760D01*
X10972979Y-16959236D01*
X11115836Y-16959236D02*
X11115836Y-16997331D01*
X11192027Y-16959236D02*
X11192027Y-16997331D01*
X11487265Y-17235427D02*
X11477741Y-17225903D01*
X11458693Y-17197331D01*
X11449169Y-17178284D01*
X11439646Y-17149712D01*
X11430122Y-17102093D01*
X11430122Y-17063998D01*
X11439646Y-17016379D01*
X11449169Y-16987808D01*
X11458693Y-16968760D01*
X11477741Y-16940189D01*
X11487265Y-16930665D01*
X11553931Y-16978284D02*
X11563455Y-16968760D01*
X11582503Y-16959236D01*
X11630122Y-16959236D01*
X11649169Y-16968760D01*
X11658693Y-16978284D01*
X11668217Y-16997331D01*
X11668217Y-17016379D01*
X11658693Y-17044950D01*
X11544408Y-17159236D01*
X11668217Y-17159236D01*
X11906312Y-17159236D02*
X11906312Y-16959236D01*
X11992027Y-17159236D02*
X11992027Y-17054474D01*
X11982503Y-17035427D01*
X11963455Y-17025903D01*
X11934884Y-17025903D01*
X11915836Y-17035427D01*
X11906312Y-17044950D01*
X12115836Y-17159236D02*
X12096788Y-17149712D01*
X12087265Y-17140189D01*
X12077741Y-17121141D01*
X12077741Y-17063998D01*
X12087265Y-17044950D01*
X12096788Y-17035427D01*
X12115836Y-17025903D01*
X12144408Y-17025903D01*
X12163455Y-17035427D01*
X12172979Y-17044950D01*
X12182503Y-17063998D01*
X12182503Y-17121141D01*
X12172979Y-17140189D01*
X12163455Y-17149712D01*
X12144408Y-17159236D01*
X12115836Y-17159236D01*
X12296788Y-17159236D02*
X12277741Y-17149712D01*
X12268217Y-17130665D01*
X12268217Y-16959236D01*
X12449169Y-17149712D02*
X12430122Y-17159236D01*
X12392027Y-17159236D01*
X12372979Y-17149712D01*
X12363455Y-17130665D01*
X12363455Y-17054474D01*
X12372979Y-17035427D01*
X12392027Y-17025903D01*
X12430122Y-17025903D01*
X12449169Y-17035427D01*
X12458693Y-17054474D01*
X12458693Y-17073522D01*
X12363455Y-17092570D01*
X12534884Y-17149712D02*
X12553931Y-17159236D01*
X12592027Y-17159236D01*
X12611074Y-17149712D01*
X12620598Y-17130665D01*
X12620598Y-17121141D01*
X12611074Y-17102093D01*
X12592027Y-17092570D01*
X12563455Y-17092570D01*
X12544408Y-17083046D01*
X12534884Y-17063998D01*
X12534884Y-17054474D01*
X12544408Y-17035427D01*
X12563455Y-17025903D01*
X12592027Y-17025903D01*
X12611074Y-17035427D01*
X12687265Y-17235427D02*
X12696788Y-17225903D01*
X12715836Y-17197331D01*
X12725360Y-17178284D01*
X12734884Y-17149712D01*
X12744408Y-17102093D01*
X12744408Y-17063998D01*
X12734884Y-17016379D01*
X12725360Y-16987808D01*
X12715836Y-16968760D01*
X12696788Y-16940189D01*
X12687265Y-16930665D01*
M02*
