%TF.GenerationSoftware,KiCad,Pcbnew,(6.0.0)*%
%TF.CreationDate,2022-03-13T17:57:59-04:00*%
%TF.ProjectId,jaguar spinner integrated pcb,6a616775-6172-4207-9370-696e6e657220,rev?*%
%TF.SameCoordinates,Original*%
%TF.FileFunction,Legend,Top*%
%TF.FilePolarity,Positive*%
%FSLAX46Y46*%
G04 Gerber Fmt 4.6, Leading zero omitted, Abs format (unit mm)*
G04 Created by KiCad (PCBNEW (6.0.0)) date 2022-03-13 17:57:59*
%MOMM*%
%LPD*%
G01*
G04 APERTURE LIST*
G04 Aperture macros list*
%AMRoundRect*
0 Rectangle with rounded corners*
0 $1 Rounding radius*
0 $2 $3 $4 $5 $6 $7 $8 $9 X,Y pos of 4 corners*
0 Add a 4 corners polygon primitive as box body*
4,1,4,$2,$3,$4,$5,$6,$7,$8,$9,$2,$3,0*
0 Add four circle primitives for the rounded corners*
1,1,$1+$1,$2,$3*
1,1,$1+$1,$4,$5*
1,1,$1+$1,$6,$7*
1,1,$1+$1,$8,$9*
0 Add four rect primitives between the rounded corners*
20,1,$1+$1,$2,$3,$4,$5,0*
20,1,$1+$1,$4,$5,$6,$7,0*
20,1,$1+$1,$6,$7,$8,$9,0*
20,1,$1+$1,$8,$9,$2,$3,0*%
G04 Aperture macros list end*
%ADD10C,0.150000*%
%ADD11C,0.120000*%
%ADD12C,0.200000*%
%ADD13C,0.100000*%
%ADD14C,1.700000*%
%ADD15C,3.200000*%
%ADD16R,1.600000X1.600000*%
%ADD17O,1.600000X1.600000*%
%ADD18RoundRect,0.200000X-0.200000X-0.275000X0.200000X-0.275000X0.200000X0.275000X-0.200000X0.275000X0*%
%ADD19C,1.650000*%
%ADD20C,4.800000*%
%ADD21RoundRect,0.200000X0.200000X0.275000X-0.200000X0.275000X-0.200000X-0.275000X0.200000X-0.275000X0*%
%ADD22RoundRect,0.200000X-0.275000X0.200000X-0.275000X-0.200000X0.275000X-0.200000X0.275000X0.200000X0*%
%ADD23RoundRect,0.200000X0.275000X-0.200000X0.275000X0.200000X-0.275000X0.200000X-0.275000X-0.200000X0*%
%ADD24C,1.300000*%
%ADD25C,2.250000*%
%ADD26R,1.700000X1.700000*%
%ADD27O,1.700000X1.700000*%
G04 APERTURE END LIST*
D10*
X122242600Y-128570580D02*
X122242600Y-129284866D01*
X122194980Y-129427723D01*
X122099742Y-129522961D01*
X121956885Y-129570580D01*
X121861647Y-129570580D01*
X123147361Y-129570580D02*
X123147361Y-129046771D01*
X123099742Y-128951533D01*
X123004504Y-128903914D01*
X122814028Y-128903914D01*
X122718790Y-128951533D01*
X123147361Y-129522961D02*
X123052123Y-129570580D01*
X122814028Y-129570580D01*
X122718790Y-129522961D01*
X122671171Y-129427723D01*
X122671171Y-129332485D01*
X122718790Y-129237247D01*
X122814028Y-129189628D01*
X123052123Y-129189628D01*
X123147361Y-129142009D01*
X124052123Y-128903914D02*
X124052123Y-129713438D01*
X124004504Y-129808676D01*
X123956885Y-129856295D01*
X123861647Y-129903914D01*
X123718790Y-129903914D01*
X123623552Y-129856295D01*
X124052123Y-129522961D02*
X123956885Y-129570580D01*
X123766409Y-129570580D01*
X123671171Y-129522961D01*
X123623552Y-129475342D01*
X123575933Y-129380104D01*
X123575933Y-129094390D01*
X123623552Y-128999152D01*
X123671171Y-128951533D01*
X123766409Y-128903914D01*
X123956885Y-128903914D01*
X124052123Y-128951533D01*
X124956885Y-128903914D02*
X124956885Y-129570580D01*
X124528314Y-128903914D02*
X124528314Y-129427723D01*
X124575933Y-129522961D01*
X124671171Y-129570580D01*
X124814028Y-129570580D01*
X124909266Y-129522961D01*
X124956885Y-129475342D01*
X125861647Y-129570580D02*
X125861647Y-129046771D01*
X125814028Y-128951533D01*
X125718790Y-128903914D01*
X125528314Y-128903914D01*
X125433076Y-128951533D01*
X125861647Y-129522961D02*
X125766409Y-129570580D01*
X125528314Y-129570580D01*
X125433076Y-129522961D01*
X125385457Y-129427723D01*
X125385457Y-129332485D01*
X125433076Y-129237247D01*
X125528314Y-129189628D01*
X125766409Y-129189628D01*
X125861647Y-129142009D01*
X126337838Y-129570580D02*
X126337838Y-128903914D01*
X126337838Y-129094390D02*
X126385457Y-128999152D01*
X126433076Y-128951533D01*
X126528314Y-128903914D01*
X126623552Y-128903914D01*
X128147361Y-129522961D02*
X128052123Y-129570580D01*
X127861647Y-129570580D01*
X127766409Y-129522961D01*
X127718790Y-129475342D01*
X127671171Y-129380104D01*
X127671171Y-129094390D01*
X127718790Y-128999152D01*
X127766409Y-128951533D01*
X127861647Y-128903914D01*
X128052123Y-128903914D01*
X128147361Y-128951533D01*
X128718790Y-129570580D02*
X128623552Y-129522961D01*
X128575933Y-129475342D01*
X128528314Y-129380104D01*
X128528314Y-129094390D01*
X128575933Y-128999152D01*
X128623552Y-128951533D01*
X128718790Y-128903914D01*
X128861647Y-128903914D01*
X128956885Y-128951533D01*
X129004504Y-128999152D01*
X129052123Y-129094390D01*
X129052123Y-129380104D01*
X129004504Y-129475342D01*
X128956885Y-129522961D01*
X128861647Y-129570580D01*
X128718790Y-129570580D01*
X129480695Y-128903914D02*
X129480695Y-129570580D01*
X129480695Y-128999152D02*
X129528314Y-128951533D01*
X129623552Y-128903914D01*
X129766409Y-128903914D01*
X129861647Y-128951533D01*
X129909266Y-129046771D01*
X129909266Y-129570580D01*
X130242600Y-128903914D02*
X130623552Y-128903914D01*
X130385457Y-128570580D02*
X130385457Y-129427723D01*
X130433076Y-129522961D01*
X130528314Y-129570580D01*
X130623552Y-129570580D01*
X130956885Y-129570580D02*
X130956885Y-128903914D01*
X130956885Y-129094390D02*
X131004504Y-128999152D01*
X131052123Y-128951533D01*
X131147361Y-128903914D01*
X131242600Y-128903914D01*
X131718790Y-129570580D02*
X131623552Y-129522961D01*
X131575933Y-129475342D01*
X131528314Y-129380104D01*
X131528314Y-129094390D01*
X131575933Y-128999152D01*
X131623552Y-128951533D01*
X131718790Y-128903914D01*
X131861647Y-128903914D01*
X131956885Y-128951533D01*
X132004504Y-128999152D01*
X132052123Y-129094390D01*
X132052123Y-129380104D01*
X132004504Y-129475342D01*
X131956885Y-129522961D01*
X131861647Y-129570580D01*
X131718790Y-129570580D01*
X132623552Y-129570580D02*
X132528314Y-129522961D01*
X132480695Y-129427723D01*
X132480695Y-128570580D01*
X133147361Y-129570580D02*
X133052123Y-129522961D01*
X133004504Y-129427723D01*
X133004504Y-128570580D01*
X133909266Y-129522961D02*
X133814028Y-129570580D01*
X133623552Y-129570580D01*
X133528314Y-129522961D01*
X133480695Y-129427723D01*
X133480695Y-129046771D01*
X133528314Y-128951533D01*
X133623552Y-128903914D01*
X133814028Y-128903914D01*
X133909266Y-128951533D01*
X133956885Y-129046771D01*
X133956885Y-129142009D01*
X133480695Y-129237247D01*
X134385457Y-129570580D02*
X134385457Y-128903914D01*
X134385457Y-129094390D02*
X134433076Y-128999152D01*
X134480695Y-128951533D01*
X134575933Y-128903914D01*
X134671171Y-128903914D01*
X135766409Y-129570580D02*
X135766409Y-128903914D01*
X135766409Y-128570580D02*
X135718790Y-128618200D01*
X135766409Y-128665819D01*
X135814028Y-128618200D01*
X135766409Y-128570580D01*
X135766409Y-128665819D01*
X136242600Y-128903914D02*
X136242600Y-129570580D01*
X136242600Y-128999152D02*
X136290219Y-128951533D01*
X136385457Y-128903914D01*
X136528314Y-128903914D01*
X136623552Y-128951533D01*
X136671171Y-129046771D01*
X136671171Y-129570580D01*
X137004504Y-128903914D02*
X137385457Y-128903914D01*
X137147361Y-128570580D02*
X137147361Y-129427723D01*
X137194980Y-129522961D01*
X137290219Y-129570580D01*
X137385457Y-129570580D01*
X138099742Y-129522961D02*
X138004504Y-129570580D01*
X137814028Y-129570580D01*
X137718790Y-129522961D01*
X137671171Y-129427723D01*
X137671171Y-129046771D01*
X137718790Y-128951533D01*
X137814028Y-128903914D01*
X138004504Y-128903914D01*
X138099742Y-128951533D01*
X138147361Y-129046771D01*
X138147361Y-129142009D01*
X137671171Y-129237247D01*
X139004504Y-128903914D02*
X139004504Y-129713438D01*
X138956885Y-129808676D01*
X138909266Y-129856295D01*
X138814028Y-129903914D01*
X138671171Y-129903914D01*
X138575933Y-129856295D01*
X139004504Y-129522961D02*
X138909266Y-129570580D01*
X138718790Y-129570580D01*
X138623552Y-129522961D01*
X138575933Y-129475342D01*
X138528314Y-129380104D01*
X138528314Y-129094390D01*
X138575933Y-128999152D01*
X138623552Y-128951533D01*
X138718790Y-128903914D01*
X138909266Y-128903914D01*
X139004504Y-128951533D01*
X139480695Y-129570580D02*
X139480695Y-128903914D01*
X139480695Y-129094390D02*
X139528314Y-128999152D01*
X139575933Y-128951533D01*
X139671171Y-128903914D01*
X139766409Y-128903914D01*
X140528314Y-129570580D02*
X140528314Y-129046771D01*
X140480695Y-128951533D01*
X140385457Y-128903914D01*
X140194980Y-128903914D01*
X140099742Y-128951533D01*
X140528314Y-129522961D02*
X140433076Y-129570580D01*
X140194980Y-129570580D01*
X140099742Y-129522961D01*
X140052123Y-129427723D01*
X140052123Y-129332485D01*
X140099742Y-129237247D01*
X140194980Y-129189628D01*
X140433076Y-129189628D01*
X140528314Y-129142009D01*
X140861647Y-128903914D02*
X141242600Y-128903914D01*
X141004504Y-128570580D02*
X141004504Y-129427723D01*
X141052123Y-129522961D01*
X141147361Y-129570580D01*
X141242600Y-129570580D01*
X141956885Y-129522961D02*
X141861647Y-129570580D01*
X141671171Y-129570580D01*
X141575933Y-129522961D01*
X141528314Y-129427723D01*
X141528314Y-129046771D01*
X141575933Y-128951533D01*
X141671171Y-128903914D01*
X141861647Y-128903914D01*
X141956885Y-128951533D01*
X142004504Y-129046771D01*
X142004504Y-129142009D01*
X141528314Y-129237247D01*
X142861647Y-129570580D02*
X142861647Y-128570580D01*
X142861647Y-129522961D02*
X142766409Y-129570580D01*
X142575933Y-129570580D01*
X142480695Y-129522961D01*
X142433076Y-129475342D01*
X142385457Y-129380104D01*
X142385457Y-129094390D01*
X142433076Y-128999152D01*
X142480695Y-128951533D01*
X142575933Y-128903914D01*
X142766409Y-128903914D01*
X142861647Y-128951533D01*
X144052123Y-129522961D02*
X144147361Y-129570580D01*
X144337838Y-129570580D01*
X144433076Y-129522961D01*
X144480695Y-129427723D01*
X144480695Y-129380104D01*
X144433076Y-129284866D01*
X144337838Y-129237247D01*
X144194980Y-129237247D01*
X144099742Y-129189628D01*
X144052123Y-129094390D01*
X144052123Y-129046771D01*
X144099742Y-128951533D01*
X144194980Y-128903914D01*
X144337838Y-128903914D01*
X144433076Y-128951533D01*
X144909266Y-128903914D02*
X144909266Y-129903914D01*
X144909266Y-128951533D02*
X145004504Y-128903914D01*
X145194980Y-128903914D01*
X145290219Y-128951533D01*
X145337838Y-128999152D01*
X145385457Y-129094390D01*
X145385457Y-129380104D01*
X145337838Y-129475342D01*
X145290219Y-129522961D01*
X145194980Y-129570580D01*
X145004504Y-129570580D01*
X144909266Y-129522961D01*
X145814028Y-129570580D02*
X145814028Y-128903914D01*
X145814028Y-128570580D02*
X145766409Y-128618200D01*
X145814028Y-128665819D01*
X145861647Y-128618200D01*
X145814028Y-128570580D01*
X145814028Y-128665819D01*
X146290219Y-128903914D02*
X146290219Y-129570580D01*
X146290219Y-128999152D02*
X146337838Y-128951533D01*
X146433076Y-128903914D01*
X146575933Y-128903914D01*
X146671171Y-128951533D01*
X146718790Y-129046771D01*
X146718790Y-129570580D01*
X147194980Y-128903914D02*
X147194980Y-129570580D01*
X147194980Y-128999152D02*
X147242600Y-128951533D01*
X147337838Y-128903914D01*
X147480695Y-128903914D01*
X147575933Y-128951533D01*
X147623552Y-129046771D01*
X147623552Y-129570580D01*
X148480695Y-129522961D02*
X148385457Y-129570580D01*
X148194980Y-129570580D01*
X148099742Y-129522961D01*
X148052123Y-129427723D01*
X148052123Y-129046771D01*
X148099742Y-128951533D01*
X148194980Y-128903914D01*
X148385457Y-128903914D01*
X148480695Y-128951533D01*
X148528314Y-129046771D01*
X148528314Y-129142009D01*
X148052123Y-129237247D01*
X148956885Y-129570580D02*
X148956885Y-128903914D01*
X148956885Y-129094390D02*
X149004504Y-128999152D01*
X149052123Y-128951533D01*
X149147361Y-128903914D01*
X149242600Y-128903914D01*
X150337838Y-128903914D02*
X150337838Y-129903914D01*
X150337838Y-128951533D02*
X150433076Y-128903914D01*
X150623552Y-128903914D01*
X150718790Y-128951533D01*
X150766409Y-128999152D01*
X150814028Y-129094390D01*
X150814028Y-129380104D01*
X150766409Y-129475342D01*
X150718790Y-129522961D01*
X150623552Y-129570580D01*
X150433076Y-129570580D01*
X150337838Y-129522961D01*
X151671171Y-129522961D02*
X151575933Y-129570580D01*
X151385457Y-129570580D01*
X151290219Y-129522961D01*
X151242600Y-129475342D01*
X151194980Y-129380104D01*
X151194980Y-129094390D01*
X151242600Y-128999152D01*
X151290219Y-128951533D01*
X151385457Y-128903914D01*
X151575933Y-128903914D01*
X151671171Y-128951533D01*
X152099742Y-129570580D02*
X152099742Y-128570580D01*
X152099742Y-128951533D02*
X152194980Y-128903914D01*
X152385457Y-128903914D01*
X152480695Y-128951533D01*
X152528314Y-128999152D01*
X152575933Y-129094390D01*
X152575933Y-129380104D01*
X152528314Y-129475342D01*
X152480695Y-129522961D01*
X152385457Y-129570580D01*
X152194980Y-129570580D01*
X152099742Y-129522961D01*
X128080657Y-109428380D02*
X128080657Y-108904571D01*
X128033038Y-108809333D01*
X127937800Y-108761714D01*
X127747323Y-108761714D01*
X127652085Y-108809333D01*
X128080657Y-109380761D02*
X127985419Y-109428380D01*
X127747323Y-109428380D01*
X127652085Y-109380761D01*
X127604466Y-109285523D01*
X127604466Y-109190285D01*
X127652085Y-109095047D01*
X127747323Y-109047428D01*
X127985419Y-109047428D01*
X128080657Y-108999809D01*
X128556847Y-109428380D02*
X128556847Y-108428380D01*
X128556847Y-108809333D02*
X128652085Y-108761714D01*
X128842561Y-108761714D01*
X128937800Y-108809333D01*
X128985419Y-108856952D01*
X129033038Y-108952190D01*
X129033038Y-109237904D01*
X128985419Y-109333142D01*
X128937800Y-109380761D01*
X128842561Y-109428380D01*
X128652085Y-109428380D01*
X128556847Y-109380761D01*
X129366371Y-108761714D02*
X129890180Y-108761714D01*
X129366371Y-109428380D01*
X129890180Y-109428380D01*
X130271133Y-109428380D02*
X130271133Y-108761714D01*
X130271133Y-108856952D02*
X130318752Y-108809333D01*
X130413990Y-108761714D01*
X130556847Y-108761714D01*
X130652085Y-108809333D01*
X130699704Y-108904571D01*
X130699704Y-109428380D01*
X130699704Y-108904571D02*
X130747323Y-108809333D01*
X130842561Y-108761714D01*
X130985419Y-108761714D01*
X131080657Y-108809333D01*
X131128276Y-108904571D01*
X131128276Y-109428380D01*
X132033038Y-109428380D02*
X132033038Y-108904571D01*
X131985419Y-108809333D01*
X131890180Y-108761714D01*
X131699704Y-108761714D01*
X131604466Y-108809333D01*
X132033038Y-109380761D02*
X131937800Y-109428380D01*
X131699704Y-109428380D01*
X131604466Y-109380761D01*
X131556847Y-109285523D01*
X131556847Y-109190285D01*
X131604466Y-109095047D01*
X131699704Y-109047428D01*
X131937800Y-109047428D01*
X132033038Y-108999809D01*
X132509228Y-108761714D02*
X132509228Y-109428380D01*
X132509228Y-108856952D02*
X132556847Y-108809333D01*
X132652085Y-108761714D01*
X132794942Y-108761714D01*
X132890180Y-108809333D01*
X132937800Y-108904571D01*
X132937800Y-109428380D01*
X133366371Y-108523619D02*
X133413990Y-108476000D01*
X133509228Y-108428380D01*
X133747323Y-108428380D01*
X133842561Y-108476000D01*
X133890180Y-108523619D01*
X133937800Y-108618857D01*
X133937800Y-108714095D01*
X133890180Y-108856952D01*
X133318752Y-109428380D01*
X133937800Y-109428380D01*
X134366371Y-109428380D02*
X134366371Y-108428380D01*
X134461609Y-109047428D02*
X134747323Y-109428380D01*
X134747323Y-108761714D02*
X134366371Y-109142666D01*
X135175895Y-109333142D02*
X135223514Y-109380761D01*
X135175895Y-109428380D01*
X135128276Y-109380761D01*
X135175895Y-109333142D01*
X135175895Y-109428380D01*
X135556847Y-108761714D02*
X135747323Y-109428380D01*
X135937800Y-108952190D01*
X136128276Y-109428380D01*
X136318752Y-108761714D01*
X136842561Y-109428380D02*
X136747323Y-109380761D01*
X136699704Y-109333142D01*
X136652085Y-109237904D01*
X136652085Y-108952190D01*
X136699704Y-108856952D01*
X136747323Y-108809333D01*
X136842561Y-108761714D01*
X136985419Y-108761714D01*
X137080657Y-108809333D01*
X137128276Y-108856952D01*
X137175895Y-108952190D01*
X137175895Y-109237904D01*
X137128276Y-109333142D01*
X137080657Y-109380761D01*
X136985419Y-109428380D01*
X136842561Y-109428380D01*
X137604466Y-109428380D02*
X137604466Y-108761714D01*
X137604466Y-108952190D02*
X137652085Y-108856952D01*
X137699704Y-108809333D01*
X137794942Y-108761714D01*
X137890180Y-108761714D01*
X138652085Y-109428380D02*
X138652085Y-108428380D01*
X138652085Y-109380761D02*
X138556847Y-109428380D01*
X138366371Y-109428380D01*
X138271133Y-109380761D01*
X138223514Y-109333142D01*
X138175895Y-109237904D01*
X138175895Y-108952190D01*
X138223514Y-108856952D01*
X138271133Y-108809333D01*
X138366371Y-108761714D01*
X138556847Y-108761714D01*
X138652085Y-108809333D01*
X139128276Y-108761714D02*
X139128276Y-109761714D01*
X139128276Y-108809333D02*
X139223514Y-108761714D01*
X139413990Y-108761714D01*
X139509228Y-108809333D01*
X139556847Y-108856952D01*
X139604466Y-108952190D01*
X139604466Y-109237904D01*
X139556847Y-109333142D01*
X139509228Y-109380761D01*
X139413990Y-109428380D01*
X139223514Y-109428380D01*
X139128276Y-109380761D01*
X140033038Y-109428380D02*
X140033038Y-108761714D01*
X140033038Y-108952190D02*
X140080657Y-108856952D01*
X140128276Y-108809333D01*
X140223514Y-108761714D01*
X140318752Y-108761714D01*
X141033038Y-109380761D02*
X140937800Y-109428380D01*
X140747323Y-109428380D01*
X140652085Y-109380761D01*
X140604466Y-109285523D01*
X140604466Y-108904571D01*
X140652085Y-108809333D01*
X140747323Y-108761714D01*
X140937800Y-108761714D01*
X141033038Y-108809333D01*
X141080657Y-108904571D01*
X141080657Y-108999809D01*
X140604466Y-109095047D01*
X141461609Y-109380761D02*
X141556847Y-109428380D01*
X141747323Y-109428380D01*
X141842561Y-109380761D01*
X141890180Y-109285523D01*
X141890180Y-109237904D01*
X141842561Y-109142666D01*
X141747323Y-109095047D01*
X141604466Y-109095047D01*
X141509228Y-109047428D01*
X141461609Y-108952190D01*
X141461609Y-108904571D01*
X141509228Y-108809333D01*
X141604466Y-108761714D01*
X141747323Y-108761714D01*
X141842561Y-108809333D01*
X142271133Y-109380761D02*
X142366371Y-109428380D01*
X142556847Y-109428380D01*
X142652085Y-109380761D01*
X142699704Y-109285523D01*
X142699704Y-109237904D01*
X142652085Y-109142666D01*
X142556847Y-109095047D01*
X142413990Y-109095047D01*
X142318752Y-109047428D01*
X142271133Y-108952190D01*
X142271133Y-108904571D01*
X142318752Y-108809333D01*
X142413990Y-108761714D01*
X142556847Y-108761714D01*
X142652085Y-108809333D01*
X143128276Y-109333142D02*
X143175895Y-109380761D01*
X143128276Y-109428380D01*
X143080657Y-109380761D01*
X143128276Y-109333142D01*
X143128276Y-109428380D01*
X144033038Y-109380761D02*
X143937800Y-109428380D01*
X143747323Y-109428380D01*
X143652085Y-109380761D01*
X143604466Y-109333142D01*
X143556847Y-109237904D01*
X143556847Y-108952190D01*
X143604466Y-108856952D01*
X143652085Y-108809333D01*
X143747323Y-108761714D01*
X143937800Y-108761714D01*
X144033038Y-108809333D01*
X144604466Y-109428380D02*
X144509228Y-109380761D01*
X144461609Y-109333142D01*
X144413990Y-109237904D01*
X144413990Y-108952190D01*
X144461609Y-108856952D01*
X144509228Y-108809333D01*
X144604466Y-108761714D01*
X144747323Y-108761714D01*
X144842561Y-108809333D01*
X144890180Y-108856952D01*
X144937800Y-108952190D01*
X144937800Y-109237904D01*
X144890180Y-109333142D01*
X144842561Y-109380761D01*
X144747323Y-109428380D01*
X144604466Y-109428380D01*
X145366371Y-109428380D02*
X145366371Y-108761714D01*
X145366371Y-108856952D02*
X145413990Y-108809333D01*
X145509228Y-108761714D01*
X145652085Y-108761714D01*
X145747323Y-108809333D01*
X145794942Y-108904571D01*
X145794942Y-109428380D01*
X145794942Y-108904571D02*
X145842561Y-108809333D01*
X145937800Y-108761714D01*
X146080657Y-108761714D01*
X146175895Y-108809333D01*
X146223514Y-108904571D01*
X146223514Y-109428380D01*
X116557752Y-111961561D02*
X116700609Y-112009180D01*
X116938704Y-112009180D01*
X117033942Y-111961561D01*
X117081561Y-111913942D01*
X117129180Y-111818704D01*
X117129180Y-111723466D01*
X117081561Y-111628228D01*
X117033942Y-111580609D01*
X116938704Y-111532990D01*
X116748228Y-111485371D01*
X116652990Y-111437752D01*
X116605371Y-111390133D01*
X116557752Y-111294895D01*
X116557752Y-111199657D01*
X116605371Y-111104419D01*
X116652990Y-111056800D01*
X116748228Y-111009180D01*
X116986323Y-111009180D01*
X117129180Y-111056800D01*
X117557752Y-111342514D02*
X117557752Y-112342514D01*
X117557752Y-111390133D02*
X117652990Y-111342514D01*
X117843466Y-111342514D01*
X117938704Y-111390133D01*
X117986323Y-111437752D01*
X118033942Y-111532990D01*
X118033942Y-111818704D01*
X117986323Y-111913942D01*
X117938704Y-111961561D01*
X117843466Y-112009180D01*
X117652990Y-112009180D01*
X117557752Y-111961561D01*
X118462514Y-112009180D02*
X118462514Y-111342514D01*
X118462514Y-111009180D02*
X118414895Y-111056800D01*
X118462514Y-111104419D01*
X118510133Y-111056800D01*
X118462514Y-111009180D01*
X118462514Y-111104419D01*
X118938704Y-111342514D02*
X118938704Y-112009180D01*
X118938704Y-111437752D02*
X118986323Y-111390133D01*
X119081561Y-111342514D01*
X119224419Y-111342514D01*
X119319657Y-111390133D01*
X119367276Y-111485371D01*
X119367276Y-112009180D01*
X119843466Y-111342514D02*
X119843466Y-112009180D01*
X119843466Y-111437752D02*
X119891085Y-111390133D01*
X119986323Y-111342514D01*
X120129180Y-111342514D01*
X120224419Y-111390133D01*
X120272038Y-111485371D01*
X120272038Y-112009180D01*
X121129180Y-111961561D02*
X121033942Y-112009180D01*
X120843466Y-112009180D01*
X120748228Y-111961561D01*
X120700609Y-111866323D01*
X120700609Y-111485371D01*
X120748228Y-111390133D01*
X120843466Y-111342514D01*
X121033942Y-111342514D01*
X121129180Y-111390133D01*
X121176800Y-111485371D01*
X121176800Y-111580609D01*
X120700609Y-111675847D01*
X121605371Y-112009180D02*
X121605371Y-111342514D01*
X121605371Y-111532990D02*
X121652990Y-111437752D01*
X121700609Y-111390133D01*
X121795847Y-111342514D01*
X121891085Y-111342514D01*
X106524704Y-112110780D02*
X106524704Y-111110780D01*
X106762800Y-111110780D01*
X106905657Y-111158400D01*
X107000895Y-111253638D01*
X107048514Y-111348876D01*
X107096133Y-111539352D01*
X107096133Y-111682209D01*
X107048514Y-111872685D01*
X107000895Y-111967923D01*
X106905657Y-112063161D01*
X106762800Y-112110780D01*
X106524704Y-112110780D01*
X107524704Y-111729828D02*
X108286609Y-111729828D01*
X108762800Y-111444114D02*
X108762800Y-112444114D01*
X108762800Y-111491733D02*
X108858038Y-111444114D01*
X109048514Y-111444114D01*
X109143752Y-111491733D01*
X109191371Y-111539352D01*
X109238990Y-111634590D01*
X109238990Y-111920304D01*
X109191371Y-112015542D01*
X109143752Y-112063161D01*
X109048514Y-112110780D01*
X108858038Y-112110780D01*
X108762800Y-112063161D01*
X110096133Y-112110780D02*
X110096133Y-111586971D01*
X110048514Y-111491733D01*
X109953276Y-111444114D01*
X109762800Y-111444114D01*
X109667561Y-111491733D01*
X110096133Y-112063161D02*
X110000895Y-112110780D01*
X109762800Y-112110780D01*
X109667561Y-112063161D01*
X109619942Y-111967923D01*
X109619942Y-111872685D01*
X109667561Y-111777447D01*
X109762800Y-111729828D01*
X110000895Y-111729828D01*
X110096133Y-111682209D01*
X111000895Y-112110780D02*
X111000895Y-111110780D01*
X111000895Y-112063161D02*
X110905657Y-112110780D01*
X110715180Y-112110780D01*
X110619942Y-112063161D01*
X110572323Y-112015542D01*
X110524704Y-111920304D01*
X110524704Y-111634590D01*
X110572323Y-111539352D01*
X110619942Y-111491733D01*
X110715180Y-111444114D01*
X110905657Y-111444114D01*
X111000895Y-111491733D01*
%TO.C,SW5*%
X96699123Y-143371980D02*
X96699123Y-142371980D01*
X96937219Y-142371980D01*
X97080076Y-142419600D01*
X97175314Y-142514838D01*
X97222933Y-142610076D01*
X97270552Y-142800552D01*
X97270552Y-142943409D01*
X97222933Y-143133885D01*
X97175314Y-143229123D01*
X97080076Y-143324361D01*
X96937219Y-143371980D01*
X96699123Y-143371980D01*
X97841980Y-143371980D02*
X97746742Y-143324361D01*
X97699123Y-143276742D01*
X97651504Y-143181504D01*
X97651504Y-142895790D01*
X97699123Y-142800552D01*
X97746742Y-142752933D01*
X97841980Y-142705314D01*
X97984838Y-142705314D01*
X98080076Y-142752933D01*
X98127695Y-142800552D01*
X98175314Y-142895790D01*
X98175314Y-143181504D01*
X98127695Y-143276742D01*
X98080076Y-143324361D01*
X97984838Y-143371980D01*
X97841980Y-143371980D01*
X98508647Y-142705314D02*
X98699123Y-143371980D01*
X98889600Y-142895790D01*
X99080076Y-143371980D01*
X99270552Y-142705314D01*
X99651504Y-142705314D02*
X99651504Y-143371980D01*
X99651504Y-142800552D02*
X99699123Y-142752933D01*
X99794361Y-142705314D01*
X99937219Y-142705314D01*
X100032457Y-142752933D01*
X100080076Y-142848171D01*
X100080076Y-143371980D01*
%TO.C,SW7*%
X176221028Y-132588171D02*
X176363885Y-132635790D01*
X176411504Y-132683409D01*
X176459123Y-132778647D01*
X176459123Y-132921504D01*
X176411504Y-133016742D01*
X176363885Y-133064361D01*
X176268647Y-133111980D01*
X175887695Y-133111980D01*
X175887695Y-132111980D01*
X176221028Y-132111980D01*
X176316266Y-132159600D01*
X176363885Y-132207219D01*
X176411504Y-132302457D01*
X176411504Y-132397695D01*
X176363885Y-132492933D01*
X176316266Y-132540552D01*
X176221028Y-132588171D01*
X175887695Y-132588171D01*
%TO.C,D7*%
X172204095Y-139190580D02*
X172204095Y-138190580D01*
X172775523Y-139190580D02*
X172346952Y-138619152D01*
X172775523Y-138190580D02*
X172204095Y-138762009D01*
%TO.C,R1*%
X128306628Y-135421714D02*
X128306628Y-136088380D01*
X128068533Y-135040761D02*
X127830438Y-135755047D01*
X128449485Y-135755047D01*
X128830438Y-135993142D02*
X128878057Y-136040761D01*
X128830438Y-136088380D01*
X128782819Y-136040761D01*
X128830438Y-135993142D01*
X128830438Y-136088380D01*
X129211390Y-135088380D02*
X129878057Y-135088380D01*
X129449485Y-136088380D01*
X130259009Y-136088380D02*
X130259009Y-135088380D01*
X130354247Y-135707428D02*
X130639961Y-136088380D01*
X130639961Y-135421714D02*
X130259009Y-135802666D01*
%TO.C,SW9*%
X139173409Y-145181980D02*
X139363885Y-145181980D01*
X139459123Y-145229600D01*
X139554361Y-145324838D01*
X139601980Y-145515314D01*
X139601980Y-145848647D01*
X139554361Y-146039123D01*
X139459123Y-146134361D01*
X139363885Y-146181980D01*
X139173409Y-146181980D01*
X139078171Y-146134361D01*
X138982933Y-146039123D01*
X138935314Y-145848647D01*
X138935314Y-145515314D01*
X138982933Y-145324838D01*
X139078171Y-145229600D01*
X139173409Y-145181980D01*
X140030552Y-145515314D02*
X140030552Y-146515314D01*
X140030552Y-145562933D02*
X140125790Y-145515314D01*
X140316266Y-145515314D01*
X140411504Y-145562933D01*
X140459123Y-145610552D01*
X140506742Y-145705790D01*
X140506742Y-145991504D01*
X140459123Y-146086742D01*
X140411504Y-146134361D01*
X140316266Y-146181980D01*
X140125790Y-146181980D01*
X140030552Y-146134361D01*
X140792457Y-145515314D02*
X141173409Y-145515314D01*
X140935314Y-145181980D02*
X140935314Y-146039123D01*
X140982933Y-146134361D01*
X141078171Y-146181980D01*
X141173409Y-146181980D01*
X141506742Y-146181980D02*
X141506742Y-145515314D01*
X141506742Y-145181980D02*
X141459123Y-145229600D01*
X141506742Y-145277219D01*
X141554361Y-145229600D01*
X141506742Y-145181980D01*
X141506742Y-145277219D01*
X142125790Y-146181980D02*
X142030552Y-146134361D01*
X141982933Y-146086742D01*
X141935314Y-145991504D01*
X141935314Y-145705790D01*
X141982933Y-145610552D01*
X142030552Y-145562933D01*
X142125790Y-145515314D01*
X142268647Y-145515314D01*
X142363885Y-145562933D01*
X142411504Y-145610552D01*
X142459123Y-145705790D01*
X142459123Y-145991504D01*
X142411504Y-146086742D01*
X142363885Y-146134361D01*
X142268647Y-146181980D01*
X142125790Y-146181980D01*
X142887695Y-145515314D02*
X142887695Y-146181980D01*
X142887695Y-145610552D02*
X142935314Y-145562933D01*
X143030552Y-145515314D01*
X143173409Y-145515314D01*
X143268647Y-145562933D01*
X143316266Y-145658171D01*
X143316266Y-146181980D01*
%TO.C,R5*%
X104430628Y-134779114D02*
X104430628Y-135445780D01*
X104192533Y-134398161D02*
X103954438Y-135112447D01*
X104573485Y-135112447D01*
X104954438Y-135350542D02*
X105002057Y-135398161D01*
X104954438Y-135445780D01*
X104906819Y-135398161D01*
X104954438Y-135350542D01*
X104954438Y-135445780D01*
X105335390Y-134445780D02*
X106002057Y-134445780D01*
X105573485Y-135445780D01*
X106383009Y-135445780D02*
X106383009Y-134445780D01*
X106478247Y-135064828D02*
X106763961Y-135445780D01*
X106763961Y-134779114D02*
X106383009Y-135160066D01*
%TO.C,R2*%
X178319228Y-138172514D02*
X178319228Y-138839180D01*
X178081133Y-137791561D02*
X177843038Y-138505847D01*
X178462085Y-138505847D01*
X178843038Y-138743942D02*
X178890657Y-138791561D01*
X178843038Y-138839180D01*
X178795419Y-138791561D01*
X178843038Y-138743942D01*
X178843038Y-138839180D01*
X179223990Y-137839180D02*
X179890657Y-137839180D01*
X179462085Y-138839180D01*
X180271609Y-138839180D02*
X180271609Y-137839180D01*
X180366847Y-138458228D02*
X180652561Y-138839180D01*
X180652561Y-138172514D02*
X180271609Y-138553466D01*
%TO.C,R3*%
X117481714Y-128182571D02*
X118148380Y-128182571D01*
X117100761Y-128420666D02*
X117815047Y-128658761D01*
X117815047Y-128039714D01*
X118053142Y-127658761D02*
X118100761Y-127611142D01*
X118148380Y-127658761D01*
X118100761Y-127706380D01*
X118053142Y-127658761D01*
X118148380Y-127658761D01*
X117148380Y-127277809D02*
X117148380Y-126611142D01*
X118148380Y-127039714D01*
X118148380Y-126230190D02*
X117148380Y-126230190D01*
X117767428Y-126134952D02*
X118148380Y-125849238D01*
X117481714Y-125849238D02*
X117862666Y-126230190D01*
%TO.C,U1*%
X160792095Y-108734980D02*
X160792095Y-109544504D01*
X160839714Y-109639742D01*
X160887333Y-109687361D01*
X160982571Y-109734980D01*
X161173047Y-109734980D01*
X161268285Y-109687361D01*
X161315904Y-109639742D01*
X161363523Y-109544504D01*
X161363523Y-108734980D01*
X162363523Y-109734980D02*
X161792095Y-109734980D01*
X162077809Y-109734980D02*
X162077809Y-108734980D01*
X161982571Y-108877838D01*
X161887333Y-108973076D01*
X161792095Y-109020695D01*
X158292095Y-136254980D02*
X158958761Y-136254980D01*
X158530190Y-137254980D01*
X159768285Y-136588314D02*
X159768285Y-137254980D01*
X159530190Y-136207361D02*
X159292095Y-136921647D01*
X159911142Y-136921647D01*
X160292095Y-137254980D02*
X160292095Y-136254980D01*
X160292095Y-136731171D02*
X160863523Y-136731171D01*
X160863523Y-137254980D02*
X160863523Y-136254980D01*
X161911142Y-137159742D02*
X161863523Y-137207361D01*
X161720666Y-137254980D01*
X161625428Y-137254980D01*
X161482571Y-137207361D01*
X161387333Y-137112123D01*
X161339714Y-137016885D01*
X161292095Y-136826409D01*
X161292095Y-136683552D01*
X161339714Y-136493076D01*
X161387333Y-136397838D01*
X161482571Y-136302600D01*
X161625428Y-136254980D01*
X161720666Y-136254980D01*
X161863523Y-136302600D01*
X161911142Y-136350219D01*
X162292095Y-136350219D02*
X162339714Y-136302600D01*
X162434952Y-136254980D01*
X162673047Y-136254980D01*
X162768285Y-136302600D01*
X162815904Y-136350219D01*
X162863523Y-136445457D01*
X162863523Y-136540695D01*
X162815904Y-136683552D01*
X162244476Y-137254980D01*
X162863523Y-137254980D01*
X163720666Y-136588314D02*
X163720666Y-137254980D01*
X163482571Y-136207361D02*
X163244476Y-136921647D01*
X163863523Y-136921647D01*
X164673047Y-136588314D02*
X164673047Y-137254980D01*
X164434952Y-136207361D02*
X164196857Y-136921647D01*
X164815904Y-136921647D01*
%TO.C,SW4*%
X87729123Y-133401980D02*
X87252933Y-133401980D01*
X87252933Y-132401980D01*
X88443409Y-133354361D02*
X88348171Y-133401980D01*
X88157695Y-133401980D01*
X88062457Y-133354361D01*
X88014838Y-133259123D01*
X88014838Y-132878171D01*
X88062457Y-132782933D01*
X88157695Y-132735314D01*
X88348171Y-132735314D01*
X88443409Y-132782933D01*
X88491028Y-132878171D01*
X88491028Y-132973409D01*
X88014838Y-133068647D01*
X88776742Y-132735314D02*
X89157695Y-132735314D01*
X88919600Y-133401980D02*
X88919600Y-132544838D01*
X88967219Y-132449600D01*
X89062457Y-132401980D01*
X89157695Y-132401980D01*
X89348171Y-132735314D02*
X89729123Y-132735314D01*
X89491028Y-132401980D02*
X89491028Y-133259123D01*
X89538647Y-133354361D01*
X89633885Y-133401980D01*
X89729123Y-133401980D01*
%TO.C,D8*%
X147032695Y-138072980D02*
X147032695Y-137072980D01*
X147604123Y-138072980D02*
X147175552Y-137501552D01*
X147604123Y-137072980D02*
X147032695Y-137644409D01*
%TO.C,SW1*%
X126939600Y-146181980D02*
X126939600Y-145181980D01*
X127320552Y-145181980D01*
X127415790Y-145229600D01*
X127463409Y-145277219D01*
X127511028Y-145372457D01*
X127511028Y-145515314D01*
X127463409Y-145610552D01*
X127415790Y-145658171D01*
X127320552Y-145705790D01*
X126939600Y-145705790D01*
X128368171Y-146181980D02*
X128368171Y-145658171D01*
X128320552Y-145562933D01*
X128225314Y-145515314D01*
X128034838Y-145515314D01*
X127939600Y-145562933D01*
X128368171Y-146134361D02*
X128272933Y-146181980D01*
X128034838Y-146181980D01*
X127939600Y-146134361D01*
X127891980Y-146039123D01*
X127891980Y-145943885D01*
X127939600Y-145848647D01*
X128034838Y-145801028D01*
X128272933Y-145801028D01*
X128368171Y-145753409D01*
X129272933Y-145515314D02*
X129272933Y-146181980D01*
X128844361Y-145515314D02*
X128844361Y-146039123D01*
X128891980Y-146134361D01*
X128987219Y-146181980D01*
X129130076Y-146181980D01*
X129225314Y-146134361D01*
X129272933Y-146086742D01*
X129701504Y-146134361D02*
X129796742Y-146181980D01*
X129987219Y-146181980D01*
X130082457Y-146134361D01*
X130130076Y-146039123D01*
X130130076Y-145991504D01*
X130082457Y-145896266D01*
X129987219Y-145848647D01*
X129844361Y-145848647D01*
X129749123Y-145801028D01*
X129701504Y-145705790D01*
X129701504Y-145658171D01*
X129749123Y-145562933D01*
X129844361Y-145515314D01*
X129987219Y-145515314D01*
X130082457Y-145562933D01*
X130939600Y-146134361D02*
X130844361Y-146181980D01*
X130653885Y-146181980D01*
X130558647Y-146134361D01*
X130511028Y-146039123D01*
X130511028Y-145658171D01*
X130558647Y-145562933D01*
X130653885Y-145515314D01*
X130844361Y-145515314D01*
X130939600Y-145562933D01*
X130987219Y-145658171D01*
X130987219Y-145753409D01*
X130511028Y-145848647D01*
%TO.C,SW6*%
X97651504Y-122431980D02*
X97651504Y-123241504D01*
X97699123Y-123336742D01*
X97746742Y-123384361D01*
X97841980Y-123431980D01*
X98032457Y-123431980D01*
X98127695Y-123384361D01*
X98175314Y-123336742D01*
X98222933Y-123241504D01*
X98222933Y-122431980D01*
X98699123Y-122765314D02*
X98699123Y-123765314D01*
X98699123Y-122812933D02*
X98794361Y-122765314D01*
X98984838Y-122765314D01*
X99080076Y-122812933D01*
X99127695Y-122860552D01*
X99175314Y-122955790D01*
X99175314Y-123241504D01*
X99127695Y-123336742D01*
X99080076Y-123384361D01*
X98984838Y-123431980D01*
X98794361Y-123431980D01*
X98699123Y-123384361D01*
%TO.C,SW8*%
X166409123Y-147406742D02*
X166361504Y-147454361D01*
X166218647Y-147501980D01*
X166123409Y-147501980D01*
X165980552Y-147454361D01*
X165885314Y-147359123D01*
X165837695Y-147263885D01*
X165790076Y-147073409D01*
X165790076Y-146930552D01*
X165837695Y-146740076D01*
X165885314Y-146644838D01*
X165980552Y-146549600D01*
X166123409Y-146501980D01*
X166218647Y-146501980D01*
X166361504Y-146549600D01*
X166409123Y-146597219D01*
%TO.C,SW3*%
X107240552Y-133401980D02*
X106907219Y-132925790D01*
X106669123Y-133401980D02*
X106669123Y-132401980D01*
X107050076Y-132401980D01*
X107145314Y-132449600D01*
X107192933Y-132497219D01*
X107240552Y-132592457D01*
X107240552Y-132735314D01*
X107192933Y-132830552D01*
X107145314Y-132878171D01*
X107050076Y-132925790D01*
X106669123Y-132925790D01*
X107669123Y-133401980D02*
X107669123Y-132735314D01*
X107669123Y-132401980D02*
X107621504Y-132449600D01*
X107669123Y-132497219D01*
X107716742Y-132449600D01*
X107669123Y-132401980D01*
X107669123Y-132497219D01*
X108573885Y-132735314D02*
X108573885Y-133544838D01*
X108526266Y-133640076D01*
X108478647Y-133687695D01*
X108383409Y-133735314D01*
X108240552Y-133735314D01*
X108145314Y-133687695D01*
X108573885Y-133354361D02*
X108478647Y-133401980D01*
X108288171Y-133401980D01*
X108192933Y-133354361D01*
X108145314Y-133306742D01*
X108097695Y-133211504D01*
X108097695Y-132925790D01*
X108145314Y-132830552D01*
X108192933Y-132782933D01*
X108288171Y-132735314D01*
X108478647Y-132735314D01*
X108573885Y-132782933D01*
X109050076Y-133401980D02*
X109050076Y-132401980D01*
X109478647Y-133401980D02*
X109478647Y-132878171D01*
X109431028Y-132782933D01*
X109335790Y-132735314D01*
X109192933Y-132735314D01*
X109097695Y-132782933D01*
X109050076Y-132830552D01*
X109811980Y-132735314D02*
X110192933Y-132735314D01*
X109954838Y-132401980D02*
X109954838Y-133259123D01*
X110002457Y-133354361D01*
X110097695Y-133401980D01*
X110192933Y-133401980D01*
%TO.C,D6*%
X181906895Y-128319380D02*
X181906895Y-127319380D01*
X182478323Y-128319380D02*
X182049752Y-127747952D01*
X182478323Y-127319380D02*
X181906895Y-127890809D01*
%TO.C,R4*%
X120341714Y-131509971D02*
X121008380Y-131509971D01*
X119960761Y-131748066D02*
X120675047Y-131986161D01*
X120675047Y-131367114D01*
X120913142Y-130986161D02*
X120960761Y-130938542D01*
X121008380Y-130986161D01*
X120960761Y-131033780D01*
X120913142Y-130986161D01*
X121008380Y-130986161D01*
X120008380Y-130605209D02*
X120008380Y-129938542D01*
X121008380Y-130367114D01*
X121008380Y-129557590D02*
X120008380Y-129557590D01*
X120627428Y-129462352D02*
X121008380Y-129176638D01*
X120341714Y-129176638D02*
X120722666Y-129557590D01*
%TO.C,SW2*%
X187541504Y-119756266D02*
X188017695Y-119756266D01*
X187446266Y-120041980D02*
X187779600Y-119041980D01*
X188112933Y-120041980D01*
%TO.C,D3*%
X180611495Y-115536380D02*
X180611495Y-114536380D01*
X181182923Y-115536380D02*
X180754352Y-114964952D01*
X181182923Y-114536380D02*
X180611495Y-115107809D01*
%TO.C,R6*%
X104024228Y-114763914D02*
X104024228Y-115430580D01*
X103786133Y-114382961D02*
X103548038Y-115097247D01*
X104167085Y-115097247D01*
X104548038Y-115335342D02*
X104595657Y-115382961D01*
X104548038Y-115430580D01*
X104500419Y-115382961D01*
X104548038Y-115335342D01*
X104548038Y-115430580D01*
X104928990Y-114430580D02*
X105595657Y-114430580D01*
X105167085Y-115430580D01*
X105976609Y-115430580D02*
X105976609Y-114430580D01*
X106071847Y-115049628D02*
X106357561Y-115430580D01*
X106357561Y-114763914D02*
X105976609Y-115144866D01*
D11*
%TO.C,SW5*%
X101559600Y-137329600D02*
X101559600Y-140009600D01*
X95469600Y-141789600D02*
X101409600Y-141789600D01*
X95469600Y-135549600D02*
X101409600Y-135549600D01*
X95319600Y-140009600D02*
X95319600Y-137329600D01*
X99853814Y-138669600D02*
G75*
G03*
X99853814Y-138669600I-1414214J0D01*
G01*
%TO.C,SW7*%
X179319600Y-127069600D02*
X179319600Y-129749600D01*
X173229600Y-131529600D02*
X179169600Y-131529600D01*
X173229600Y-125289600D02*
X179169600Y-125289600D01*
X173079600Y-129749600D02*
X173079600Y-127069600D01*
X177613814Y-128409600D02*
G75*
G03*
X177613814Y-128409600I-1414214J0D01*
G01*
%TO.C,D7*%
X174876000Y-139418200D02*
X174876000Y-141658200D01*
X179046000Y-140538200D02*
X178396000Y-140538200D01*
X178396000Y-139418200D02*
X174156000Y-139418200D01*
X174756000Y-139418200D02*
X174756000Y-141658200D01*
X174996000Y-139418200D02*
X174996000Y-141658200D01*
X174156000Y-141658200D02*
X178396000Y-141658200D01*
X174156000Y-139418200D02*
X174156000Y-141658200D01*
X173506000Y-140538200D02*
X174156000Y-140538200D01*
X178396000Y-141658200D02*
X178396000Y-139418200D01*
%TO.C,R1*%
X128870942Y-136535900D02*
X129345458Y-136535900D01*
X128870942Y-137580900D02*
X129345458Y-137580900D01*
%TO.C,SW9*%
X138229600Y-144599600D02*
X144169600Y-144599600D01*
X144319600Y-140139600D02*
X144319600Y-142819600D01*
X138229600Y-138359600D02*
X144169600Y-138359600D01*
X138079600Y-142819600D02*
X138079600Y-140139600D01*
X142613814Y-141479600D02*
G75*
G03*
X142613814Y-141479600I-1414214J0D01*
G01*
D12*
%TO.C,VR1*%
X141455000Y-112222800D02*
X141455000Y-116222800D01*
X129055000Y-112222800D02*
X129055000Y-116222800D01*
X129055000Y-125622800D02*
X129055000Y-121622800D01*
X141455000Y-125622800D02*
X141455000Y-121622800D01*
X132906000Y-110404800D02*
G75*
G03*
X132906000Y-110404800I-115000J0D01*
G01*
D11*
%TO.C,R5*%
X105596458Y-136945900D02*
X105121942Y-136945900D01*
X105596458Y-135900900D02*
X105121942Y-135900900D01*
%TO.C,R2*%
X179010542Y-136434300D02*
X179485058Y-136434300D01*
X179010542Y-137479300D02*
X179485058Y-137479300D01*
%TO.C,R3*%
X119648500Y-127016742D02*
X119648500Y-127491258D01*
X118603500Y-127016742D02*
X118603500Y-127491258D01*
%TO.C,U1*%
X158904000Y-110282600D02*
X158904000Y-135802600D01*
X158904000Y-135802600D02*
X164204000Y-135802600D01*
X164204000Y-110282600D02*
X162554000Y-110282600D01*
X164204000Y-135802600D02*
X164204000Y-110282600D01*
X160554000Y-110282600D02*
X158904000Y-110282600D01*
X160554000Y-110282600D02*
G75*
G03*
X162554000Y-110282600I1000000J0D01*
G01*
%TO.C,SW4*%
X85499600Y-131819600D02*
X91439600Y-131819600D01*
X91589600Y-127359600D02*
X91589600Y-130039600D01*
X85499600Y-125579600D02*
X91439600Y-125579600D01*
X85349600Y-130039600D02*
X85349600Y-127359600D01*
X89883814Y-128699600D02*
G75*
G03*
X89883814Y-128699600I-1414214J0D01*
G01*
%TO.C,D8*%
X149704600Y-138300600D02*
X149704600Y-140540600D01*
X148984600Y-140540600D02*
X153224600Y-140540600D01*
X149824600Y-138300600D02*
X149824600Y-140540600D01*
X153224600Y-138300600D02*
X148984600Y-138300600D01*
X153874600Y-139420600D02*
X153224600Y-139420600D01*
X148984600Y-138300600D02*
X148984600Y-140540600D01*
X148334600Y-139420600D02*
X148984600Y-139420600D01*
X149584600Y-138300600D02*
X149584600Y-140540600D01*
X153224600Y-140540600D02*
X153224600Y-138300600D01*
%TO.C,SW1*%
X132109600Y-140139600D02*
X132109600Y-142819600D01*
X126019600Y-144599600D02*
X131959600Y-144599600D01*
X126019600Y-138359600D02*
X131959600Y-138359600D01*
X125869600Y-142819600D02*
X125869600Y-140139600D01*
X130403814Y-141479600D02*
G75*
G03*
X130403814Y-141479600I-1414214J0D01*
G01*
%TO.C,SW6*%
X95469600Y-121849600D02*
X101409600Y-121849600D01*
X95319600Y-120069600D02*
X95319600Y-117389600D01*
X95469600Y-115609600D02*
X101409600Y-115609600D01*
X101559600Y-117389600D02*
X101559600Y-120069600D01*
X99853814Y-118729600D02*
G75*
G03*
X99853814Y-118729600I-1414214J0D01*
G01*
%TO.C,SW8*%
X163029600Y-144139600D02*
X163029600Y-141459600D01*
X163179600Y-145919600D02*
X169119600Y-145919600D01*
X163179600Y-139679600D02*
X169119600Y-139679600D01*
X169269600Y-141459600D02*
X169269600Y-144139600D01*
X167563814Y-142799600D02*
G75*
G03*
X167563814Y-142799600I-1414214J0D01*
G01*
%TO.C,SW3*%
X105439600Y-125579600D02*
X111379600Y-125579600D01*
X105439600Y-131819600D02*
X111379600Y-131819600D01*
X111529600Y-127359600D02*
X111529600Y-130039600D01*
X105289600Y-130039600D02*
X105289600Y-127359600D01*
X109823814Y-128699600D02*
G75*
G03*
X109823814Y-128699600I-1414214J0D01*
G01*
%TO.C,D6*%
X188098800Y-128547000D02*
X183858800Y-128547000D01*
X183858800Y-128547000D02*
X183858800Y-130787000D01*
X183858800Y-130787000D02*
X188098800Y-130787000D01*
X183208800Y-129667000D02*
X183858800Y-129667000D01*
X188098800Y-130787000D02*
X188098800Y-128547000D01*
X184578800Y-128547000D02*
X184578800Y-130787000D01*
X188748800Y-129667000D02*
X188098800Y-129667000D01*
X184458800Y-128547000D02*
X184458800Y-130787000D01*
X184698800Y-128547000D02*
X184698800Y-130787000D01*
%TO.C,R4*%
X118603500Y-130818658D02*
X118603500Y-130344142D01*
X119648500Y-130818658D02*
X119648500Y-130344142D01*
%TO.C,G\u002A\u002A\u002A*%
G36*
X126172586Y-107328344D02*
G01*
X126238612Y-107394691D01*
X126296850Y-107453914D01*
X126346559Y-107505228D01*
X126386998Y-107547850D01*
X126417426Y-107580993D01*
X126437101Y-107603875D01*
X126445281Y-107615709D01*
X126445357Y-107617026D01*
X126437759Y-107626655D01*
X126421229Y-107647371D01*
X126397723Y-107676735D01*
X126369199Y-107712313D01*
X126337613Y-107751668D01*
X126304923Y-107792363D01*
X126273085Y-107831962D01*
X126244057Y-107868029D01*
X126219795Y-107898128D01*
X126202256Y-107919821D01*
X126193963Y-107929995D01*
X126182405Y-107944179D01*
X126163196Y-107967974D01*
X126139522Y-107997426D01*
X126125503Y-108014917D01*
X126071434Y-108082447D01*
X126117928Y-108175481D01*
X126137511Y-108215476D01*
X126155217Y-108253103D01*
X126168941Y-108283804D01*
X126176010Y-108301341D01*
X126187597Y-108334166D01*
X125936238Y-108585637D01*
X125881843Y-108639923D01*
X125831223Y-108690185D01*
X125785696Y-108735133D01*
X125746581Y-108773478D01*
X125715193Y-108803931D01*
X125692852Y-108825202D01*
X125680874Y-108836003D01*
X125679241Y-108837108D01*
X125671718Y-108830224D01*
X125668334Y-108823376D01*
X125663958Y-108803365D01*
X125663065Y-108790288D01*
X125660387Y-108768138D01*
X125653134Y-108733975D01*
X125642475Y-108692170D01*
X125629581Y-108647092D01*
X125615620Y-108603113D01*
X125604729Y-108572343D01*
X125574299Y-108498207D01*
X125540724Y-108431571D01*
X125501188Y-108365904D01*
X125463407Y-108307038D01*
X125463407Y-107397895D01*
X125492047Y-107373123D01*
X125517312Y-107351779D01*
X125546046Y-107328197D01*
X125554983Y-107321018D01*
X125571858Y-107307504D01*
X125599717Y-107285119D01*
X125636034Y-107255896D01*
X125678281Y-107221870D01*
X125723933Y-107185073D01*
X125741098Y-107171230D01*
X125892917Y-107048774D01*
X126172586Y-107328344D01*
G37*
G36*
X125655251Y-109913937D02*
G01*
X126101445Y-109914347D01*
X126140509Y-109963643D01*
X126162161Y-109990886D01*
X126181367Y-110014910D01*
X126193963Y-110030508D01*
X126205077Y-110044210D01*
X126224348Y-110068100D01*
X126249840Y-110099769D01*
X126279618Y-110136806D01*
X126311747Y-110176801D01*
X126344293Y-110217344D01*
X126375321Y-110256025D01*
X126402896Y-110290434D01*
X126425083Y-110318160D01*
X126439946Y-110336794D01*
X126445357Y-110343656D01*
X126440964Y-110351835D01*
X126424843Y-110371309D01*
X126397734Y-110401294D01*
X126360379Y-110441004D01*
X126313520Y-110489655D01*
X126257897Y-110546463D01*
X126194253Y-110610643D01*
X126172586Y-110632337D01*
X125892917Y-110911908D01*
X125741098Y-110789599D01*
X125696122Y-110753347D01*
X125654853Y-110720046D01*
X125619506Y-110691486D01*
X125592294Y-110669456D01*
X125575431Y-110655745D01*
X125571886Y-110652832D01*
X125557708Y-110641249D01*
X125533912Y-110622016D01*
X125504448Y-110598318D01*
X125486847Y-110584208D01*
X125419200Y-110530045D01*
X125343644Y-110568326D01*
X125303714Y-110588184D01*
X125262780Y-110607928D01*
X125227801Y-110624220D01*
X125218020Y-110628591D01*
X125167951Y-110650575D01*
X124911207Y-110394269D01*
X124856477Y-110339448D01*
X124805922Y-110288451D01*
X124760795Y-110242568D01*
X124722346Y-110203090D01*
X124691830Y-110171304D01*
X124670497Y-110148503D01*
X124659602Y-110135976D01*
X124658469Y-110133957D01*
X124668487Y-110130624D01*
X124690711Y-110125860D01*
X124717879Y-110121102D01*
X124847193Y-110091751D01*
X124974378Y-110045530D01*
X125098233Y-109982905D01*
X125143085Y-109955601D01*
X125209058Y-109913526D01*
X125655251Y-109913937D01*
G37*
G36*
X123369535Y-109122527D02*
G01*
X123374614Y-109141466D01*
X123375658Y-109147446D01*
X123403790Y-109279415D01*
X123445431Y-109405660D01*
X123499455Y-109523138D01*
X123541390Y-109594462D01*
X123579675Y-109653644D01*
X123579675Y-110562787D01*
X123551034Y-110587558D01*
X123525752Y-110608902D01*
X123497004Y-110632459D01*
X123488098Y-110639595D01*
X123470901Y-110653331D01*
X123442825Y-110675827D01*
X123406517Y-110704961D01*
X123364624Y-110738607D01*
X123319793Y-110774643D01*
X123310570Y-110782060D01*
X123267503Y-110816679D01*
X123228748Y-110847793D01*
X123196445Y-110873690D01*
X123172729Y-110892657D01*
X123159739Y-110902981D01*
X123158226Y-110904157D01*
X123150047Y-110899764D01*
X123130572Y-110883643D01*
X123100588Y-110856534D01*
X123060878Y-110819179D01*
X123012226Y-110772320D01*
X122955418Y-110716697D01*
X122891238Y-110653053D01*
X122869544Y-110631386D01*
X122589974Y-110351717D01*
X122712282Y-110199898D01*
X122748535Y-110154922D01*
X122781836Y-110113653D01*
X122810396Y-110078306D01*
X122832426Y-110051094D01*
X122846136Y-110034231D01*
X122849050Y-110030686D01*
X122860633Y-110016508D01*
X122879866Y-109992712D01*
X122903563Y-109963248D01*
X122917673Y-109945647D01*
X122971837Y-109878000D01*
X122933555Y-109802444D01*
X122913561Y-109762217D01*
X122893556Y-109720696D01*
X122876946Y-109684989D01*
X122872564Y-109675176D01*
X122849853Y-109623463D01*
X123104029Y-109369178D01*
X123158754Y-109314573D01*
X123209731Y-109263987D01*
X123255645Y-109218702D01*
X123295185Y-109179999D01*
X123327036Y-109149163D01*
X123349887Y-109127474D01*
X123362424Y-109116216D01*
X123364377Y-109114893D01*
X123369535Y-109122527D01*
G37*
G36*
X126345343Y-108528576D02*
G01*
X126375168Y-108531882D01*
X126416341Y-108536542D01*
X126462970Y-108541885D01*
X126500762Y-108546261D01*
X126554468Y-108552358D01*
X126614255Y-108558902D01*
X126671169Y-108564922D01*
X126700420Y-108567900D01*
X126743085Y-108572287D01*
X126782718Y-108576603D01*
X126814067Y-108580265D01*
X126828461Y-108582152D01*
X126861014Y-108586891D01*
X126861014Y-109373791D01*
X126828461Y-109378529D01*
X126806230Y-109381364D01*
X126771968Y-109385266D01*
X126730927Y-109389654D01*
X126700420Y-109392757D01*
X126648512Y-109398149D01*
X126588864Y-109404705D01*
X126530953Y-109411369D01*
X126505102Y-109414475D01*
X126455043Y-109420273D01*
X126401569Y-109425928D01*
X126352604Y-109430622D01*
X126328562Y-109432648D01*
X126292611Y-109436436D01*
X126265459Y-109441262D01*
X126250736Y-109446413D01*
X126249183Y-109448188D01*
X126239436Y-109480643D01*
X126225743Y-109522966D01*
X126210254Y-109568770D01*
X126195117Y-109611666D01*
X126185356Y-109637911D01*
X126162803Y-109696506D01*
X125800084Y-109696506D01*
X125722627Y-109696415D01*
X125650825Y-109696156D01*
X125586478Y-109695748D01*
X125531383Y-109695211D01*
X125487337Y-109694563D01*
X125456140Y-109693825D01*
X125439587Y-109693016D01*
X125437364Y-109692582D01*
X125441986Y-109684113D01*
X125454232Y-109665212D01*
X125471674Y-109639602D01*
X125475942Y-109633471D01*
X125522105Y-109560605D01*
X125565066Y-109480100D01*
X125600220Y-109400711D01*
X125604945Y-109388338D01*
X125618514Y-109349143D01*
X125632079Y-109305289D01*
X125644474Y-109261114D01*
X125654537Y-109220955D01*
X125661103Y-109189149D01*
X125663065Y-109171809D01*
X125669201Y-109160983D01*
X125687643Y-109138569D01*
X125718442Y-109104513D01*
X125761650Y-109058761D01*
X125817318Y-109001258D01*
X125885498Y-108931950D01*
X125966241Y-108850783D01*
X125978579Y-108838442D01*
X126294094Y-108523016D01*
X126345343Y-108528576D01*
G37*
G36*
X123203239Y-107090436D02*
G01*
X123224945Y-107107380D01*
X123257124Y-107132852D01*
X123296837Y-107164493D01*
X123341147Y-107199943D01*
X123387115Y-107236845D01*
X123431803Y-107272837D01*
X123472274Y-107305561D01*
X123505589Y-107332657D01*
X123528809Y-107351766D01*
X123531860Y-107354318D01*
X123548577Y-107367992D01*
X123572450Y-107387099D01*
X123588081Y-107399454D01*
X123626870Y-107429942D01*
X123687910Y-107396960D01*
X123727763Y-107376444D01*
X123773824Y-107354224D01*
X123816194Y-107335075D01*
X123816606Y-107334898D01*
X123884262Y-107305817D01*
X124139965Y-107561411D01*
X124194725Y-107616287D01*
X124245471Y-107667411D01*
X124290923Y-107713474D01*
X124329803Y-107753168D01*
X124360832Y-107785185D01*
X124382733Y-107808216D01*
X124394225Y-107820953D01*
X124395669Y-107823038D01*
X124387916Y-107827601D01*
X124368183Y-107832453D01*
X124354435Y-107834664D01*
X124318507Y-107841141D01*
X124271934Y-107851772D01*
X124220479Y-107865030D01*
X124169902Y-107879387D01*
X124125965Y-107893316D01*
X124105840Y-107900578D01*
X124054097Y-107922823D01*
X123996351Y-107951198D01*
X123940239Y-107981761D01*
X123895625Y-108009083D01*
X123851323Y-108038475D01*
X122930612Y-108038475D01*
X122917190Y-108017991D01*
X122902797Y-107998040D01*
X122892157Y-107985438D01*
X122882849Y-107974665D01*
X122864924Y-107953006D01*
X122840583Y-107923155D01*
X122812028Y-107887803D01*
X122797095Y-107869199D01*
X122763781Y-107827657D01*
X122730264Y-107785937D01*
X122699902Y-107748214D01*
X122676053Y-107718662D01*
X122670827Y-107712208D01*
X122647344Y-107682827D01*
X122625727Y-107655078D01*
X122610385Y-107634627D01*
X122609574Y-107633494D01*
X122591137Y-107607602D01*
X123149975Y-107049540D01*
X123203239Y-107090436D01*
G37*
G36*
X124002679Y-108653170D02*
G01*
X124048115Y-108574627D01*
X124107903Y-108500349D01*
X124126565Y-108480742D01*
X124199827Y-108415793D01*
X124278191Y-108365972D01*
X124365282Y-108329108D01*
X124395593Y-108319691D01*
X124434088Y-108309276D01*
X124465479Y-108302919D01*
X124496098Y-108299961D01*
X124532280Y-108299736D01*
X124572294Y-108301209D01*
X124648280Y-108308002D01*
X124713380Y-108321862D01*
X124773205Y-108344449D01*
X124833367Y-108377419D01*
X124836236Y-108379214D01*
X124901665Y-108430327D01*
X124957504Y-108494467D01*
X125002166Y-108569253D01*
X125034060Y-108652304D01*
X125043362Y-108689534D01*
X125049873Y-108732089D01*
X125053366Y-108780630D01*
X125053975Y-108830999D01*
X125051833Y-108879038D01*
X125047076Y-108920590D01*
X125039836Y-108951497D01*
X125034555Y-108962905D01*
X125020286Y-108984681D01*
X124222053Y-108984681D01*
X124222358Y-109021575D01*
X124230873Y-109104333D01*
X124254201Y-109181712D01*
X124291117Y-109251660D01*
X124340397Y-109312123D01*
X124400817Y-109361049D01*
X124437120Y-109381690D01*
X124465596Y-109395478D01*
X124487978Y-109404715D01*
X124509026Y-109410312D01*
X124533502Y-109413181D01*
X124566166Y-109414233D01*
X124607885Y-109414380D01*
X124653702Y-109414056D01*
X124686714Y-109412620D01*
X124711474Y-109409375D01*
X124732532Y-109403626D01*
X124754442Y-109394676D01*
X124763223Y-109390626D01*
X124799229Y-109370771D01*
X124840947Y-109343265D01*
X124882652Y-109312290D01*
X124918618Y-109282027D01*
X124937394Y-109263417D01*
X124955053Y-109249128D01*
X124973574Y-109247219D01*
X124996219Y-109258277D01*
X125021409Y-109278542D01*
X125059088Y-109311979D01*
X125029036Y-109361656D01*
X124970696Y-109442246D01*
X124901221Y-109510289D01*
X124821935Y-109564702D01*
X124734165Y-109604405D01*
X124729549Y-109605994D01*
X124693536Y-109617109D01*
X124659876Y-109624480D01*
X124622696Y-109628992D01*
X124576125Y-109631533D01*
X124556264Y-109632126D01*
X124510301Y-109632519D01*
X124465901Y-109631520D01*
X124428641Y-109629331D01*
X124407148Y-109626755D01*
X124336183Y-109608088D01*
X124262602Y-109578187D01*
X124193705Y-109540074D01*
X124186932Y-109535647D01*
X124118031Y-109479628D01*
X124059271Y-109410762D01*
X124011209Y-109330683D01*
X123974404Y-109241020D01*
X123949415Y-109143408D01*
X123936801Y-109039477D01*
X123937120Y-108930859D01*
X123947805Y-108837108D01*
X123949764Y-108828427D01*
X124221723Y-108828427D01*
X124458440Y-108828378D01*
X124524661Y-108828044D01*
X124585683Y-108827122D01*
X124639009Y-108825695D01*
X124682143Y-108823846D01*
X124712587Y-108821656D01*
X124726817Y-108819536D01*
X124758390Y-108804391D01*
X124778598Y-108778702D01*
X124788429Y-108740768D01*
X124789757Y-108711236D01*
X124780783Y-108649517D01*
X124756121Y-108592158D01*
X124717332Y-108541575D01*
X124665982Y-108500184D01*
X124645602Y-108488458D01*
X124600330Y-108472932D01*
X124546964Y-108467305D01*
X124491586Y-108471451D01*
X124440278Y-108485245D01*
X124422964Y-108493067D01*
X124365767Y-108531970D01*
X124315913Y-108584330D01*
X124275678Y-108646999D01*
X124247341Y-108716827D01*
X124239811Y-108746233D01*
X124233480Y-108775636D01*
X124227973Y-108800802D01*
X124226162Y-108808895D01*
X124221723Y-108828427D01*
X123949764Y-108828427D01*
X123969830Y-108739491D01*
X124002679Y-108653170D01*
G37*
G36*
X124919729Y-106673420D02*
G01*
X124922564Y-106695651D01*
X124926466Y-106729914D01*
X124930854Y-106770954D01*
X124933957Y-106801462D01*
X124939349Y-106853369D01*
X124945905Y-106913018D01*
X124952569Y-106970929D01*
X124955675Y-106996780D01*
X124961473Y-107046838D01*
X124967128Y-107100312D01*
X124971822Y-107149277D01*
X124973848Y-107173320D01*
X124977638Y-107209289D01*
X124982464Y-107236435D01*
X124987618Y-107251136D01*
X124989388Y-107252677D01*
X125015113Y-107260428D01*
X125050908Y-107272049D01*
X125091994Y-107285895D01*
X125133597Y-107300318D01*
X125170939Y-107313674D01*
X125199244Y-107324315D01*
X125209494Y-107328531D01*
X125246387Y-107344824D01*
X125246387Y-107709011D01*
X125246337Y-107786622D01*
X125246194Y-107858574D01*
X125245970Y-107923074D01*
X125245673Y-107978329D01*
X125245317Y-108022546D01*
X125244910Y-108053930D01*
X125244464Y-108070690D01*
X125244217Y-108073030D01*
X125236635Y-108068347D01*
X125217992Y-108055881D01*
X125191470Y-108037776D01*
X125172600Y-108024755D01*
X125056510Y-107954675D01*
X124930906Y-107898275D01*
X124798193Y-107856608D01*
X124777624Y-107851648D01*
X124712518Y-107836563D01*
X124389144Y-107514359D01*
X124065769Y-107192154D01*
X124070619Y-107148722D01*
X124073597Y-107122377D01*
X124077954Y-107084232D01*
X124083068Y-107039732D01*
X124087527Y-107001120D01*
X124093596Y-106947411D01*
X124100118Y-106887621D01*
X124106125Y-106830705D01*
X124109100Y-106801462D01*
X124113487Y-106758796D01*
X124117803Y-106719163D01*
X124121465Y-106687815D01*
X124123352Y-106673420D01*
X124128091Y-106640867D01*
X124914991Y-106640867D01*
X124919729Y-106673420D01*
G37*
G36*
X123342845Y-108255591D02*
G01*
X123418880Y-108255906D01*
X123480101Y-108256478D01*
X123527782Y-108257346D01*
X123563196Y-108258548D01*
X123587616Y-108260123D01*
X123602317Y-108262110D01*
X123608571Y-108264546D01*
X123608738Y-108266346D01*
X123600693Y-108278492D01*
X123585763Y-108300321D01*
X123567043Y-108327311D01*
X123565308Y-108329796D01*
X123521558Y-108398943D01*
X123480061Y-108476439D01*
X123445455Y-108553436D01*
X123438136Y-108572343D01*
X123425763Y-108608061D01*
X123412892Y-108649303D01*
X123400704Y-108691759D01*
X123390380Y-108731119D01*
X123383100Y-108763073D01*
X123380044Y-108783311D01*
X123380016Y-108784532D01*
X123373996Y-108794052D01*
X123356874Y-108814154D01*
X123330062Y-108843439D01*
X123294972Y-108880505D01*
X123253013Y-108923954D01*
X123205596Y-108972385D01*
X123154134Y-109024400D01*
X123100036Y-109078597D01*
X123044713Y-109133578D01*
X122989577Y-109187943D01*
X122936038Y-109240292D01*
X122885507Y-109289225D01*
X122839396Y-109333343D01*
X122799114Y-109371246D01*
X122766074Y-109401534D01*
X122741685Y-109422807D01*
X122727359Y-109433666D01*
X122724573Y-109434782D01*
X122702974Y-109432805D01*
X122681213Y-109430464D01*
X122603279Y-109421458D01*
X122539692Y-109414164D01*
X122487557Y-109408261D01*
X122443979Y-109403427D01*
X122406064Y-109399340D01*
X122370916Y-109395678D01*
X122342662Y-109392820D01*
X122299997Y-109388417D01*
X122260365Y-109384088D01*
X122229016Y-109380419D01*
X122214620Y-109378529D01*
X122182067Y-109373791D01*
X122182067Y-108586891D01*
X122214620Y-108582152D01*
X122236851Y-108579318D01*
X122271114Y-108575415D01*
X122312154Y-108571027D01*
X122342662Y-108567925D01*
X122394569Y-108562532D01*
X122454218Y-108555977D01*
X122512129Y-108549313D01*
X122537980Y-108546207D01*
X122588038Y-108540408D01*
X122641512Y-108534754D01*
X122690477Y-108530060D01*
X122714520Y-108528034D01*
X122750489Y-108524244D01*
X122777635Y-108519417D01*
X122792336Y-108514264D01*
X122793877Y-108512493D01*
X122801628Y-108486768D01*
X122813249Y-108450974D01*
X122827095Y-108409887D01*
X122841518Y-108368284D01*
X122854874Y-108330942D01*
X122865515Y-108302637D01*
X122869731Y-108292388D01*
X122886024Y-108255495D01*
X123250723Y-108255495D01*
X123342845Y-108255591D01*
G37*
G36*
X123819692Y-109901189D02*
G01*
X123841521Y-109916119D01*
X123868511Y-109934838D01*
X123870996Y-109936574D01*
X123940143Y-109980323D01*
X124017639Y-110021821D01*
X124094636Y-110056426D01*
X124113543Y-110063745D01*
X124149261Y-110076119D01*
X124190503Y-110088990D01*
X124232959Y-110101177D01*
X124272319Y-110111502D01*
X124304273Y-110118782D01*
X124324511Y-110121837D01*
X124325732Y-110121865D01*
X124334324Y-110127842D01*
X124353936Y-110145008D01*
X124383374Y-110172216D01*
X124421440Y-110208318D01*
X124466940Y-110252168D01*
X124518677Y-110302618D01*
X124575455Y-110358520D01*
X124636080Y-110418728D01*
X124658820Y-110441441D01*
X124978308Y-110761016D01*
X124972961Y-110808204D01*
X124969765Y-110836214D01*
X124965218Y-110875812D01*
X124959972Y-110921338D01*
X124955554Y-110959562D01*
X124949485Y-111013271D01*
X124942964Y-111073060D01*
X124936956Y-111129977D01*
X124933982Y-111159220D01*
X124929594Y-111201885D01*
X124925278Y-111241518D01*
X124921617Y-111272867D01*
X124919729Y-111287261D01*
X124914991Y-111319814D01*
X124128091Y-111319814D01*
X124123352Y-111287261D01*
X124120518Y-111265030D01*
X124116615Y-111230768D01*
X124112227Y-111189727D01*
X124109125Y-111159220D01*
X124103732Y-111107312D01*
X124097177Y-111047664D01*
X124090513Y-110989753D01*
X124087407Y-110963902D01*
X124081608Y-110913843D01*
X124075954Y-110860369D01*
X124071260Y-110811404D01*
X124069234Y-110787362D01*
X124065444Y-110751393D01*
X124060617Y-110724247D01*
X124055464Y-110709545D01*
X124053693Y-110708004D01*
X124027968Y-110700254D01*
X123992174Y-110688632D01*
X123951087Y-110674787D01*
X123909484Y-110660363D01*
X123872142Y-110647008D01*
X123843837Y-110636367D01*
X123833588Y-110632151D01*
X123796695Y-110615858D01*
X123796695Y-110251158D01*
X123796791Y-110159036D01*
X123797106Y-110083002D01*
X123797678Y-110021781D01*
X123798546Y-109974100D01*
X123799748Y-109938686D01*
X123801323Y-109914265D01*
X123803310Y-109899565D01*
X123805746Y-109893310D01*
X123807546Y-109893143D01*
X123819692Y-109901189D01*
G37*
%TO.C,SW2*%
X184859600Y-118459600D02*
X190799600Y-118459600D01*
X190949600Y-113999600D02*
X190949600Y-116679600D01*
X184709600Y-116679600D02*
X184709600Y-113999600D01*
X184859600Y-112219600D02*
X190799600Y-112219600D01*
X189243814Y-115339600D02*
G75*
G03*
X189243814Y-115339600I-1414214J0D01*
G01*
%TO.C,D3*%
X179183400Y-114404000D02*
X179183400Y-112164000D01*
X178583400Y-114404000D02*
X178583400Y-112164000D01*
X179183400Y-112164000D02*
X174943400Y-112164000D01*
X174943400Y-112164000D02*
X174943400Y-114404000D01*
X174943400Y-114404000D02*
X179183400Y-114404000D01*
X178463400Y-114404000D02*
X178463400Y-112164000D01*
X179833400Y-113284000D02*
X179183400Y-113284000D01*
X174293400Y-113284000D02*
X174943400Y-113284000D01*
X178343400Y-114404000D02*
X178343400Y-112164000D01*
D13*
%TO.C,S1*%
X110533400Y-113292400D02*
X110533400Y-114692400D01*
D12*
X116733400Y-120592400D02*
X116733400Y-120592400D01*
D13*
X110533400Y-120092400D02*
X110533400Y-118692400D01*
D12*
X116933400Y-120592400D02*
X116933400Y-120592400D01*
D13*
X119133400Y-114692400D02*
X119133400Y-113292400D01*
X119133400Y-120092400D02*
X110533400Y-120092400D01*
X119133400Y-113292400D02*
X110533400Y-113292400D01*
X119133400Y-118692400D02*
X119133400Y-120092400D01*
D12*
X116933400Y-120592400D02*
G75*
G03*
X116733400Y-120592400I-100000J0D01*
G01*
X116733400Y-120592400D02*
G75*
G03*
X116933400Y-120592400I100000J0D01*
G01*
D11*
%TO.C,R6*%
X105190058Y-116930700D02*
X104715542Y-116930700D01*
X105190058Y-115885700D02*
X104715542Y-115885700D01*
%TD*%
%LPC*%
D14*
%TO.C,SW5*%
X95189600Y-136419600D03*
X101689600Y-136419600D03*
X95189600Y-140919600D03*
X101689600Y-140919600D03*
%TD*%
D15*
%TO.C,REF\u002A\u002A*%
X98323400Y-129006600D03*
%TD*%
D14*
%TO.C,SW7*%
X172949600Y-126159600D03*
X179449600Y-126159600D03*
X172949600Y-130659600D03*
X179449600Y-130659600D03*
%TD*%
D16*
%TO.C,D7*%
X172466000Y-140538200D03*
D17*
X180086000Y-140538200D03*
%TD*%
D18*
%TO.C,R1*%
X128283200Y-137058400D03*
X129933200Y-137058400D03*
%TD*%
D14*
%TO.C,SW9*%
X137949600Y-139229600D03*
X144449600Y-139229600D03*
X137949600Y-143729600D03*
X144449600Y-143729600D03*
%TD*%
D19*
%TO.C,VR1*%
X132755000Y-111922800D03*
X137755000Y-111922800D03*
X132755000Y-126422800D03*
X137755000Y-126422800D03*
X135255000Y-126422800D03*
D20*
X129555000Y-118922800D03*
X140955000Y-118922800D03*
%TD*%
D21*
%TO.C,R5*%
X106184200Y-136423400D03*
X104534200Y-136423400D03*
%TD*%
D15*
%TO.C,REF\u002A\u002A*%
X175717200Y-119329200D03*
%TD*%
D18*
%TO.C,R2*%
X178422800Y-136956800D03*
X180072800Y-136956800D03*
%TD*%
D22*
%TO.C,R3*%
X119126000Y-126429000D03*
X119126000Y-128079000D03*
%TD*%
D15*
%TO.C,REF\u002A\u002A*%
X89203600Y-144977600D03*
%TD*%
D16*
%TO.C,U1*%
X157744000Y-111612600D03*
D17*
X157744000Y-114152600D03*
X157744000Y-116692600D03*
X157744000Y-119232600D03*
X157744000Y-121772600D03*
X157744000Y-124312600D03*
X157744000Y-126852600D03*
X157744000Y-129392600D03*
X157744000Y-131932600D03*
X157744000Y-134472600D03*
X165364000Y-134472600D03*
X165364000Y-131932600D03*
X165364000Y-129392600D03*
X165364000Y-126852600D03*
X165364000Y-124312600D03*
X165364000Y-121772600D03*
X165364000Y-119232600D03*
X165364000Y-116692600D03*
X165364000Y-114152600D03*
X165364000Y-111612600D03*
%TD*%
D15*
%TO.C,REF\u002A\u002A*%
X190253600Y-144977600D03*
%TD*%
%TO.C,REF\u002A\u002A*%
X192253600Y-124267600D03*
%TD*%
%TO.C,REF\u002A\u002A*%
X87203600Y-120267600D03*
%TD*%
D14*
%TO.C,SW4*%
X85219600Y-126449600D03*
X91719600Y-126449600D03*
X85219600Y-130949600D03*
X91719600Y-130949600D03*
%TD*%
D16*
%TO.C,D8*%
X147294600Y-139420600D03*
D17*
X154914600Y-139420600D03*
%TD*%
D14*
%TO.C,SW1*%
X125739600Y-139229600D03*
X132239600Y-139229600D03*
X125739600Y-143729600D03*
X132239600Y-143729600D03*
%TD*%
%TO.C,SW6*%
X95189600Y-116479600D03*
X101689600Y-116479600D03*
X95189600Y-120979600D03*
X101689600Y-120979600D03*
%TD*%
%TO.C,SW8*%
X162899600Y-140549600D03*
X169399600Y-140549600D03*
X162899600Y-145049600D03*
X169399600Y-145049600D03*
%TD*%
%TO.C,SW3*%
X105159600Y-126449600D03*
X111659600Y-126449600D03*
X105159600Y-130949600D03*
X111659600Y-130949600D03*
%TD*%
D16*
%TO.C,D6*%
X182168800Y-129667000D03*
D17*
X189788800Y-129667000D03*
%TD*%
D23*
%TO.C,R4*%
X119126000Y-131406400D03*
X119126000Y-129756400D03*
%TD*%
D14*
%TO.C,SW2*%
X184579600Y-113089600D03*
X191079600Y-113089600D03*
X184579600Y-117589600D03*
X191079600Y-117589600D03*
%TD*%
D16*
%TO.C,D3*%
X180873400Y-113284000D03*
D17*
X173253400Y-113284000D03*
%TD*%
D24*
%TO.C,S1*%
X116833400Y-117942400D03*
X114833400Y-117942400D03*
X112833400Y-117942400D03*
X116833400Y-115442400D03*
X114833400Y-115442400D03*
X112833400Y-115442400D03*
D25*
X118933400Y-116692400D03*
X110733400Y-116692400D03*
%TD*%
D21*
%TO.C,R6*%
X105777800Y-116408200D03*
X104127800Y-116408200D03*
%TD*%
D26*
%TO.C,J1*%
X123063000Y-114020600D03*
D27*
X125603000Y-114020600D03*
X128143000Y-114020600D03*
X130683000Y-114020600D03*
X133223000Y-114020600D03*
X135763000Y-114020600D03*
X138303000Y-114020600D03*
X140843000Y-114020600D03*
X143383000Y-114020600D03*
X145923000Y-114020600D03*
X148463000Y-114020600D03*
X151003000Y-114020600D03*
%TD*%
M02*
