%FSLAX45Y45*%
G04 Gerber Fmt 4.5, Leading zero omitted, Abs format (unit mm)*
G04 Created by KiCad (PCBNEW (6.0.0)) date 2022-03-13 17:58:02*
%MOMM*%
%LPD*%
G01*
G04 APERTURE LIST*
%TA.AperFunction,Profile*%
%ADD10C,0.100000*%
%TD*%
%ADD11C,0.200000*%
%ADD12C,0.320000*%
G04 APERTURE END LIST*
D10*
X11185360Y-10526760D02*
X9038360Y-10526760D01*
X18907360Y-10526760D02*
X20025360Y-11358760D01*
X11185360Y-10837760D02*
X11721360Y-10837760D01*
X7920360Y-11358760D02*
X7920360Y-15097760D01*
X16224360Y-10526760D02*
X11721360Y-10526760D01*
X7920360Y-15097760D02*
X20025360Y-15097760D01*
X16760360Y-10837760D02*
X16224360Y-10837760D01*
X20025360Y-15097760D02*
X20025360Y-11358760D01*
X16760360Y-10526760D02*
X18907360Y-10526760D01*
X16224360Y-10837760D02*
X16224360Y-10526760D01*
X9038360Y-10526760D02*
X7920360Y-11358760D01*
X11721360Y-10837760D02*
X11721360Y-10526760D01*
X16760360Y-10526760D02*
X16760360Y-10837760D01*
X11185360Y-10526760D02*
X11185360Y-10837760D01*
D11*
D12*
X8560360Y-11866760D02*
X8880360Y-12186760D01*
X8880360Y-11866760D02*
X8560360Y-12186760D01*
X8760360Y-14337760D02*
X9080360Y-14657760D01*
X9080360Y-14337760D02*
X8760360Y-14657760D01*
X9672340Y-12740660D02*
X9992340Y-13060660D01*
X9992340Y-12740660D02*
X9672340Y-13060660D01*
X17411720Y-11772920D02*
X17731720Y-12092920D01*
X17731720Y-11772920D02*
X17411720Y-12092920D01*
X18865360Y-14337760D02*
X19185360Y-14657760D01*
X19185360Y-14337760D02*
X18865360Y-14657760D01*
X19065360Y-12266760D02*
X19385360Y-12586760D01*
X19385360Y-12266760D02*
X19065360Y-12586760D01*
D11*
X8172979Y-15413236D02*
X8172979Y-15213236D01*
X8220598Y-15213236D01*
X8249169Y-15222760D01*
X8268217Y-15241808D01*
X8277741Y-15260855D01*
X8287265Y-15298950D01*
X8287265Y-15327522D01*
X8277741Y-15365617D01*
X8268217Y-15384665D01*
X8249169Y-15403712D01*
X8220598Y-15413236D01*
X8172979Y-15413236D01*
X8372979Y-15413236D02*
X8372979Y-15279903D01*
X8372979Y-15317998D02*
X8382503Y-15298950D01*
X8392027Y-15289427D01*
X8411074Y-15279903D01*
X8430122Y-15279903D01*
X8496789Y-15413236D02*
X8496789Y-15279903D01*
X8496789Y-15213236D02*
X8487265Y-15222760D01*
X8496789Y-15232284D01*
X8506312Y-15222760D01*
X8496789Y-15213236D01*
X8496789Y-15232284D01*
X8620598Y-15413236D02*
X8601550Y-15403712D01*
X8592027Y-15384665D01*
X8592027Y-15213236D01*
X8725360Y-15413236D02*
X8706312Y-15403712D01*
X8696789Y-15384665D01*
X8696789Y-15213236D01*
X8953931Y-15413236D02*
X8953931Y-15213236D01*
X9020598Y-15356093D01*
X9087265Y-15213236D01*
X9087265Y-15413236D01*
X9268217Y-15413236D02*
X9268217Y-15308474D01*
X9258693Y-15289427D01*
X9239646Y-15279903D01*
X9201550Y-15279903D01*
X9182503Y-15289427D01*
X9268217Y-15403712D02*
X9249170Y-15413236D01*
X9201550Y-15413236D01*
X9182503Y-15403712D01*
X9172979Y-15384665D01*
X9172979Y-15365617D01*
X9182503Y-15346569D01*
X9201550Y-15337046D01*
X9249170Y-15337046D01*
X9268217Y-15327522D01*
X9363455Y-15279903D02*
X9363455Y-15479903D01*
X9363455Y-15289427D02*
X9382503Y-15279903D01*
X9420598Y-15279903D01*
X9439646Y-15289427D01*
X9449170Y-15298950D01*
X9458693Y-15317998D01*
X9458693Y-15375141D01*
X9449170Y-15394188D01*
X9439646Y-15403712D01*
X9420598Y-15413236D01*
X9382503Y-15413236D01*
X9363455Y-15403712D01*
X9544408Y-15394188D02*
X9553931Y-15403712D01*
X9544408Y-15413236D01*
X9534884Y-15403712D01*
X9544408Y-15394188D01*
X9544408Y-15413236D01*
X9544408Y-15289427D02*
X9553931Y-15298950D01*
X9544408Y-15308474D01*
X9534884Y-15298950D01*
X9544408Y-15289427D01*
X9544408Y-15308474D01*
X7715360Y-15642760D02*
X7915360Y-15842760D01*
X7915360Y-15642760D02*
X7715360Y-15842760D01*
X8153931Y-15633236D02*
X8277741Y-15633236D01*
X8211074Y-15709427D01*
X8239646Y-15709427D01*
X8258693Y-15718950D01*
X8268217Y-15728474D01*
X8277741Y-15747522D01*
X8277741Y-15795141D01*
X8268217Y-15814188D01*
X8258693Y-15823712D01*
X8239646Y-15833236D01*
X8182503Y-15833236D01*
X8163455Y-15823712D01*
X8153931Y-15814188D01*
X8363455Y-15814188D02*
X8372979Y-15823712D01*
X8363455Y-15833236D01*
X8353931Y-15823712D01*
X8363455Y-15814188D01*
X8363455Y-15833236D01*
X8449170Y-15652284D02*
X8458693Y-15642760D01*
X8477741Y-15633236D01*
X8525360Y-15633236D01*
X8544408Y-15642760D01*
X8553931Y-15652284D01*
X8563455Y-15671331D01*
X8563455Y-15690379D01*
X8553931Y-15718950D01*
X8439646Y-15833236D01*
X8563455Y-15833236D01*
X8687265Y-15633236D02*
X8706312Y-15633236D01*
X8725360Y-15642760D01*
X8734884Y-15652284D01*
X8744408Y-15671331D01*
X8753931Y-15709427D01*
X8753931Y-15757046D01*
X8744408Y-15795141D01*
X8734884Y-15814188D01*
X8725360Y-15823712D01*
X8706312Y-15833236D01*
X8687265Y-15833236D01*
X8668217Y-15823712D01*
X8658693Y-15814188D01*
X8649170Y-15795141D01*
X8639646Y-15757046D01*
X8639646Y-15709427D01*
X8649170Y-15671331D01*
X8658693Y-15652284D01*
X8668217Y-15642760D01*
X8687265Y-15633236D01*
X8877741Y-15633236D02*
X8896789Y-15633236D01*
X8915836Y-15642760D01*
X8925360Y-15652284D01*
X8934884Y-15671331D01*
X8944408Y-15709427D01*
X8944408Y-15757046D01*
X8934884Y-15795141D01*
X8925360Y-15814188D01*
X8915836Y-15823712D01*
X8896789Y-15833236D01*
X8877741Y-15833236D01*
X8858693Y-15823712D01*
X8849170Y-15814188D01*
X8839646Y-15795141D01*
X8830122Y-15757046D01*
X8830122Y-15709427D01*
X8839646Y-15671331D01*
X8849170Y-15652284D01*
X8858693Y-15642760D01*
X8877741Y-15633236D01*
X9030122Y-15833236D02*
X9030122Y-15699903D01*
X9030122Y-15718950D02*
X9039646Y-15709427D01*
X9058693Y-15699903D01*
X9087265Y-15699903D01*
X9106312Y-15709427D01*
X9115836Y-15728474D01*
X9115836Y-15833236D01*
X9115836Y-15728474D02*
X9125360Y-15709427D01*
X9144408Y-15699903D01*
X9172979Y-15699903D01*
X9192027Y-15709427D01*
X9201550Y-15728474D01*
X9201550Y-15833236D01*
X9296789Y-15833236D02*
X9296789Y-15699903D01*
X9296789Y-15718950D02*
X9306312Y-15709427D01*
X9325360Y-15699903D01*
X9353931Y-15699903D01*
X9372979Y-15709427D01*
X9382503Y-15728474D01*
X9382503Y-15833236D01*
X9382503Y-15728474D02*
X9392027Y-15709427D01*
X9411074Y-15699903D01*
X9439646Y-15699903D01*
X9458693Y-15709427D01*
X9468217Y-15728474D01*
X9468217Y-15833236D01*
X9858693Y-15623712D02*
X9687265Y-15880855D01*
X10115836Y-15633236D02*
X10134884Y-15633236D01*
X10153931Y-15642760D01*
X10163455Y-15652284D01*
X10172979Y-15671331D01*
X10182503Y-15709427D01*
X10182503Y-15757046D01*
X10172979Y-15795141D01*
X10163455Y-15814188D01*
X10153931Y-15823712D01*
X10134884Y-15833236D01*
X10115836Y-15833236D01*
X10096789Y-15823712D01*
X10087265Y-15814188D01*
X10077741Y-15795141D01*
X10068217Y-15757046D01*
X10068217Y-15709427D01*
X10077741Y-15671331D01*
X10087265Y-15652284D01*
X10096789Y-15642760D01*
X10115836Y-15633236D01*
X10268217Y-15814188D02*
X10277741Y-15823712D01*
X10268217Y-15833236D01*
X10258693Y-15823712D01*
X10268217Y-15814188D01*
X10268217Y-15833236D01*
X10468217Y-15833236D02*
X10353931Y-15833236D01*
X10411074Y-15833236D02*
X10411074Y-15633236D01*
X10392027Y-15661808D01*
X10372979Y-15680855D01*
X10353931Y-15690379D01*
X10544408Y-15652284D02*
X10553931Y-15642760D01*
X10572979Y-15633236D01*
X10620598Y-15633236D01*
X10639646Y-15642760D01*
X10649170Y-15652284D01*
X10658693Y-15671331D01*
X10658693Y-15690379D01*
X10649170Y-15718950D01*
X10534884Y-15833236D01*
X10658693Y-15833236D01*
X10830122Y-15633236D02*
X10792027Y-15633236D01*
X10772979Y-15642760D01*
X10763455Y-15652284D01*
X10744408Y-15680855D01*
X10734884Y-15718950D01*
X10734884Y-15795141D01*
X10744408Y-15814188D01*
X10753931Y-15823712D01*
X10772979Y-15833236D01*
X10811074Y-15833236D01*
X10830122Y-15823712D01*
X10839646Y-15814188D01*
X10849170Y-15795141D01*
X10849170Y-15747522D01*
X10839646Y-15728474D01*
X10830122Y-15718950D01*
X10811074Y-15709427D01*
X10772979Y-15709427D01*
X10753931Y-15718950D01*
X10744408Y-15728474D01*
X10734884Y-15747522D01*
X10972979Y-15633236D02*
X10992027Y-15633236D01*
X11011074Y-15642760D01*
X11020598Y-15652284D01*
X11030122Y-15671331D01*
X11039646Y-15709427D01*
X11039646Y-15757046D01*
X11030122Y-15795141D01*
X11020598Y-15814188D01*
X11011074Y-15823712D01*
X10992027Y-15833236D01*
X10972979Y-15833236D01*
X10953931Y-15823712D01*
X10944408Y-15814188D01*
X10934884Y-15795141D01*
X10925360Y-15757046D01*
X10925360Y-15709427D01*
X10934884Y-15671331D01*
X10944408Y-15652284D01*
X10953931Y-15642760D01*
X10972979Y-15633236D01*
X11115836Y-15633236D02*
X11115836Y-15671331D01*
X11192027Y-15633236D02*
X11192027Y-15671331D01*
X11487265Y-15909427D02*
X11477741Y-15899903D01*
X11458693Y-15871331D01*
X11449169Y-15852284D01*
X11439646Y-15823712D01*
X11430122Y-15776093D01*
X11430122Y-15737998D01*
X11439646Y-15690379D01*
X11449169Y-15661808D01*
X11458693Y-15642760D01*
X11477741Y-15614188D01*
X11487265Y-15604665D01*
X11649169Y-15633236D02*
X11611074Y-15633236D01*
X11592027Y-15642760D01*
X11582503Y-15652284D01*
X11563455Y-15680855D01*
X11553931Y-15718950D01*
X11553931Y-15795141D01*
X11563455Y-15814188D01*
X11572979Y-15823712D01*
X11592027Y-15833236D01*
X11630122Y-15833236D01*
X11649169Y-15823712D01*
X11658693Y-15814188D01*
X11668217Y-15795141D01*
X11668217Y-15747522D01*
X11658693Y-15728474D01*
X11649169Y-15718950D01*
X11630122Y-15709427D01*
X11592027Y-15709427D01*
X11572979Y-15718950D01*
X11563455Y-15728474D01*
X11553931Y-15747522D01*
X11906312Y-15833236D02*
X11906312Y-15633236D01*
X11992027Y-15833236D02*
X11992027Y-15728474D01*
X11982503Y-15709427D01*
X11963455Y-15699903D01*
X11934884Y-15699903D01*
X11915836Y-15709427D01*
X11906312Y-15718950D01*
X12115836Y-15833236D02*
X12096788Y-15823712D01*
X12087265Y-15814188D01*
X12077741Y-15795141D01*
X12077741Y-15737998D01*
X12087265Y-15718950D01*
X12096788Y-15709427D01*
X12115836Y-15699903D01*
X12144408Y-15699903D01*
X12163455Y-15709427D01*
X12172979Y-15718950D01*
X12182503Y-15737998D01*
X12182503Y-15795141D01*
X12172979Y-15814188D01*
X12163455Y-15823712D01*
X12144408Y-15833236D01*
X12115836Y-15833236D01*
X12296788Y-15833236D02*
X12277741Y-15823712D01*
X12268217Y-15804665D01*
X12268217Y-15633236D01*
X12449169Y-15823712D02*
X12430122Y-15833236D01*
X12392027Y-15833236D01*
X12372979Y-15823712D01*
X12363455Y-15804665D01*
X12363455Y-15728474D01*
X12372979Y-15709427D01*
X12392027Y-15699903D01*
X12430122Y-15699903D01*
X12449169Y-15709427D01*
X12458693Y-15728474D01*
X12458693Y-15747522D01*
X12363455Y-15766569D01*
X12534884Y-15823712D02*
X12553931Y-15833236D01*
X12592027Y-15833236D01*
X12611074Y-15823712D01*
X12620598Y-15804665D01*
X12620598Y-15795141D01*
X12611074Y-15776093D01*
X12592027Y-15766569D01*
X12563455Y-15766569D01*
X12544408Y-15757046D01*
X12534884Y-15737998D01*
X12534884Y-15728474D01*
X12544408Y-15709427D01*
X12563455Y-15699903D01*
X12592027Y-15699903D01*
X12611074Y-15709427D01*
X12687265Y-15909427D02*
X12696788Y-15899903D01*
X12715836Y-15871331D01*
X12725360Y-15852284D01*
X12734884Y-15823712D01*
X12744408Y-15776093D01*
X12744408Y-15737998D01*
X12734884Y-15690379D01*
X12725360Y-15661808D01*
X12715836Y-15642760D01*
X12696788Y-15614188D01*
X12687265Y-15604665D01*
X13049169Y-15909427D02*
X13039646Y-15899903D01*
X13020598Y-15871331D01*
X13011074Y-15852284D01*
X13001550Y-15823712D01*
X12992027Y-15776093D01*
X12992027Y-15737998D01*
X13001550Y-15690379D01*
X13011074Y-15661808D01*
X13020598Y-15642760D01*
X13039646Y-15614188D01*
X13049169Y-15604665D01*
X13125360Y-15699903D02*
X13125360Y-15833236D01*
X13125360Y-15718950D02*
X13134884Y-15709427D01*
X13153931Y-15699903D01*
X13182503Y-15699903D01*
X13201550Y-15709427D01*
X13211074Y-15728474D01*
X13211074Y-15833236D01*
X13334884Y-15833236D02*
X13315836Y-15823712D01*
X13306312Y-15814188D01*
X13296788Y-15795141D01*
X13296788Y-15737998D01*
X13306312Y-15718950D01*
X13315836Y-15709427D01*
X13334884Y-15699903D01*
X13363455Y-15699903D01*
X13382503Y-15709427D01*
X13392027Y-15718950D01*
X13401550Y-15737998D01*
X13401550Y-15795141D01*
X13392027Y-15814188D01*
X13382503Y-15823712D01*
X13363455Y-15833236D01*
X13334884Y-15833236D01*
X13458693Y-15699903D02*
X13534884Y-15699903D01*
X13487265Y-15633236D02*
X13487265Y-15804665D01*
X13496788Y-15823712D01*
X13515836Y-15833236D01*
X13534884Y-15833236D01*
X13753931Y-15699903D02*
X13753931Y-15899903D01*
X13753931Y-15709427D02*
X13772979Y-15699903D01*
X13811074Y-15699903D01*
X13830122Y-15709427D01*
X13839646Y-15718950D01*
X13849169Y-15737998D01*
X13849169Y-15795141D01*
X13839646Y-15814188D01*
X13830122Y-15823712D01*
X13811074Y-15833236D01*
X13772979Y-15833236D01*
X13753931Y-15823712D01*
X13963455Y-15833236D02*
X13944408Y-15823712D01*
X13934884Y-15804665D01*
X13934884Y-15633236D01*
X14125360Y-15833236D02*
X14125360Y-15728474D01*
X14115836Y-15709427D01*
X14096788Y-15699903D01*
X14058693Y-15699903D01*
X14039646Y-15709427D01*
X14125360Y-15823712D02*
X14106312Y-15833236D01*
X14058693Y-15833236D01*
X14039646Y-15823712D01*
X14030122Y-15804665D01*
X14030122Y-15785617D01*
X14039646Y-15766569D01*
X14058693Y-15757046D01*
X14106312Y-15757046D01*
X14125360Y-15747522D01*
X14192027Y-15699903D02*
X14268217Y-15699903D01*
X14220598Y-15633236D02*
X14220598Y-15804665D01*
X14230122Y-15823712D01*
X14249169Y-15833236D01*
X14268217Y-15833236D01*
X14411074Y-15823712D02*
X14392027Y-15833236D01*
X14353931Y-15833236D01*
X14334884Y-15823712D01*
X14325360Y-15804665D01*
X14325360Y-15728474D01*
X14334884Y-15709427D01*
X14353931Y-15699903D01*
X14392027Y-15699903D01*
X14411074Y-15709427D01*
X14420598Y-15728474D01*
X14420598Y-15747522D01*
X14325360Y-15766569D01*
X14592027Y-15833236D02*
X14592027Y-15633236D01*
X14592027Y-15823712D02*
X14572979Y-15833236D01*
X14534884Y-15833236D01*
X14515836Y-15823712D01*
X14506312Y-15814188D01*
X14496788Y-15795141D01*
X14496788Y-15737998D01*
X14506312Y-15718950D01*
X14515836Y-15709427D01*
X14534884Y-15699903D01*
X14572979Y-15699903D01*
X14592027Y-15709427D01*
X14668217Y-15909427D02*
X14677741Y-15899903D01*
X14696788Y-15871331D01*
X14706312Y-15852284D01*
X14715836Y-15823712D01*
X14725360Y-15776093D01*
X14725360Y-15737998D01*
X14715836Y-15690379D01*
X14706312Y-15661808D01*
X14696788Y-15642760D01*
X14677741Y-15614188D01*
X14668217Y-15604665D01*
M02*
