%TF.GenerationSoftware,KiCad,Pcbnew,(6.0.0)*%
%TF.CreationDate,2022-03-13T17:57:59-04:00*%
%TF.ProjectId,jaguar spinner integrated pcb,6a616775-6172-4207-9370-696e6e657220,rev?*%
%TF.SameCoordinates,Original*%
%TF.FileFunction,Copper,L1,Top*%
%TF.FilePolarity,Positive*%
%FSLAX46Y46*%
G04 Gerber Fmt 4.6, Leading zero omitted, Abs format (unit mm)*
G04 Created by KiCad (PCBNEW (6.0.0)) date 2022-03-13 17:57:59*
%MOMM*%
%LPD*%
G01*
G04 APERTURE LIST*
G04 Aperture macros list*
%AMRoundRect*
0 Rectangle with rounded corners*
0 $1 Rounding radius*
0 $2 $3 $4 $5 $6 $7 $8 $9 X,Y pos of 4 corners*
0 Add a 4 corners polygon primitive as box body*
4,1,4,$2,$3,$4,$5,$6,$7,$8,$9,$2,$3,0*
0 Add four circle primitives for the rounded corners*
1,1,$1+$1,$2,$3*
1,1,$1+$1,$4,$5*
1,1,$1+$1,$6,$7*
1,1,$1+$1,$8,$9*
0 Add four rect primitives between the rounded corners*
20,1,$1+$1,$2,$3,$4,$5,0*
20,1,$1+$1,$4,$5,$6,$7,0*
20,1,$1+$1,$6,$7,$8,$9,0*
20,1,$1+$1,$8,$9,$2,$3,0*%
G04 Aperture macros list end*
%TA.AperFunction,ComponentPad*%
%ADD10C,1.700000*%
%TD*%
%TA.AperFunction,ComponentPad*%
%ADD11R,1.600000X1.600000*%
%TD*%
%TA.AperFunction,ComponentPad*%
%ADD12O,1.600000X1.600000*%
%TD*%
%TA.AperFunction,SMDPad,CuDef*%
%ADD13RoundRect,0.200000X-0.200000X-0.275000X0.200000X-0.275000X0.200000X0.275000X-0.200000X0.275000X0*%
%TD*%
%TA.AperFunction,ComponentPad*%
%ADD14C,1.650000*%
%TD*%
%TA.AperFunction,ComponentPad*%
%ADD15C,4.800000*%
%TD*%
%TA.AperFunction,SMDPad,CuDef*%
%ADD16RoundRect,0.200000X0.200000X0.275000X-0.200000X0.275000X-0.200000X-0.275000X0.200000X-0.275000X0*%
%TD*%
%TA.AperFunction,SMDPad,CuDef*%
%ADD17RoundRect,0.200000X-0.275000X0.200000X-0.275000X-0.200000X0.275000X-0.200000X0.275000X0.200000X0*%
%TD*%
%TA.AperFunction,SMDPad,CuDef*%
%ADD18RoundRect,0.200000X0.275000X-0.200000X0.275000X0.200000X-0.275000X0.200000X-0.275000X-0.200000X0*%
%TD*%
%TA.AperFunction,ComponentPad*%
%ADD19C,1.300000*%
%TD*%
%TA.AperFunction,ComponentPad*%
%ADD20C,2.250000*%
%TD*%
%TA.AperFunction,ComponentPad*%
%ADD21R,1.700000X1.700000*%
%TD*%
%TA.AperFunction,ComponentPad*%
%ADD22O,1.700000X1.700000*%
%TD*%
%TA.AperFunction,ViaPad*%
%ADD23C,0.800000*%
%TD*%
%TA.AperFunction,Conductor*%
%ADD24C,0.500000*%
%TD*%
G04 APERTURE END LIST*
D10*
%TO.P,SW5,1,1*%
%TO.N,/row5*%
X95189600Y-136419600D03*
%TO.P,SW5,2,2*%
X101689600Y-136419600D03*
%TO.P,SW5,3,K*%
%TO.N,/Acom*%
X95189600Y-140919600D03*
%TO.P,SW5,4,A*%
X101689600Y-140919600D03*
%TD*%
%TO.P,SW7,1,1*%
%TO.N,Net-(SW7-Pad1)*%
X172949600Y-126159600D03*
%TO.P,SW7,2,2*%
X179449600Y-126159600D03*
%TO.P,SW7,3,K*%
%TO.N,/Bcom*%
X172949600Y-130659600D03*
%TO.P,SW7,4,A*%
X179449600Y-130659600D03*
%TD*%
D11*
%TO.P,D7,1,K*%
%TO.N,Net-(D7-Pad1)*%
X172466000Y-140538200D03*
D12*
%TO.P,D7,2,A*%
%TO.N,/row2*%
X180086000Y-140538200D03*
%TD*%
D13*
%TO.P,R1,1*%
%TO.N,+5V*%
X128283200Y-137058400D03*
%TO.P,R1,2*%
%TO.N,/row1*%
X129933200Y-137058400D03*
%TD*%
D10*
%TO.P,SW9,1,1*%
%TO.N,Net-(D8-Pad1)*%
X137949600Y-139229600D03*
%TO.P,SW9,2,2*%
X144449600Y-139229600D03*
%TO.P,SW9,3,K*%
%TO.N,/Opt com*%
X137949600Y-143729600D03*
%TO.P,SW9,4,A*%
X144449600Y-143729600D03*
%TD*%
D14*
%TO.P,VR1,1,1*%
%TO.N,unconnected-(VR1-Pad1)*%
X132755000Y-111922800D03*
%TO.P,VR1,2,2*%
%TO.N,unconnected-(VR1-Pad2)*%
X137755000Y-111922800D03*
%TO.P,VR1,3,A*%
%TO.N,/encoderA*%
X132755000Y-126422800D03*
%TO.P,VR1,4,B*%
%TO.N,/encoderB*%
X137755000Y-126422800D03*
%TO.P,VR1,5,C*%
%TO.N,/Acom*%
X135255000Y-126422800D03*
D15*
%TO.P,VR1,6*%
%TO.N,GND*%
X129555000Y-118922800D03*
%TO.P,VR1,7*%
X140955000Y-118922800D03*
%TD*%
D16*
%TO.P,R5,1*%
%TO.N,+5V*%
X106184200Y-136423400D03*
%TO.P,R5,2*%
%TO.N,/row5*%
X104534200Y-136423400D03*
%TD*%
D13*
%TO.P,R2,1*%
%TO.N,+5V*%
X178422800Y-136956800D03*
%TO.P,R2,2*%
%TO.N,/row2*%
X180072800Y-136956800D03*
%TD*%
D17*
%TO.P,R3,1*%
%TO.N,+5V*%
X119126000Y-126429000D03*
%TO.P,R3,2*%
%TO.N,/row3*%
X119126000Y-128079000D03*
%TD*%
D11*
%TO.P,U1,1,1OE*%
%TO.N,GND*%
X157744000Y-111612600D03*
D12*
%TO.P,U1,2,1A0*%
%TO.N,/row1*%
X157744000Y-114152600D03*
%TO.P,U1,3,2Y0*%
%TO.N,unconnected-(U1-Pad3)*%
X157744000Y-116692600D03*
%TO.P,U1,4,1A1*%
%TO.N,/row2*%
X157744000Y-119232600D03*
%TO.P,U1,5,2Y1*%
%TO.N,unconnected-(U1-Pad5)*%
X157744000Y-121772600D03*
%TO.P,U1,6,1A2*%
%TO.N,/row3*%
X157744000Y-124312600D03*
%TO.P,U1,7,2Y2*%
%TO.N,Net-(J1-Pad10)*%
X157744000Y-126852600D03*
%TO.P,U1,8,1A3*%
%TO.N,/row4*%
X157744000Y-129392600D03*
%TO.P,U1,9,2Y3*%
%TO.N,Net-(J1-Pad11)*%
X157744000Y-131932600D03*
%TO.P,U1,10,GND*%
%TO.N,GND*%
X157744000Y-134472600D03*
%TO.P,U1,11,2A3*%
%TO.N,/row5*%
X165364000Y-134472600D03*
%TO.P,U1,12,1Y3*%
%TO.N,Net-(J1-Pad12)*%
X165364000Y-131932600D03*
%TO.P,U1,13,2A2*%
%TO.N,/row6*%
X165364000Y-129392600D03*
%TO.P,U1,14,1Y2*%
%TO.N,Net-(J1-Pad9)*%
X165364000Y-126852600D03*
%TO.P,U1,15,2A1*%
%TO.N,GND*%
X165364000Y-124312600D03*
%TO.P,U1,16,1Y1*%
%TO.N,Net-(J1-Pad8)*%
X165364000Y-121772600D03*
%TO.P,U1,17,2A0*%
%TO.N,GND*%
X165364000Y-119232600D03*
%TO.P,U1,18,1Y0*%
%TO.N,Net-(J1-Pad6)*%
X165364000Y-116692600D03*
%TO.P,U1,19,2OE*%
%TO.N,GND*%
X165364000Y-114152600D03*
%TO.P,U1,20,VCC*%
%TO.N,+5V*%
X165364000Y-111612600D03*
%TD*%
D10*
%TO.P,SW4,1,1*%
%TO.N,Net-(SW4-Pad1)*%
X85219600Y-126449600D03*
%TO.P,SW4,2,2*%
X91719600Y-126449600D03*
%TO.P,SW4,3,K*%
%TO.N,/Acom*%
X85219600Y-130949600D03*
%TO.P,SW4,4,A*%
X91719600Y-130949600D03*
%TD*%
D11*
%TO.P,D8,1,K*%
%TO.N,Net-(D8-Pad1)*%
X147294600Y-139420600D03*
D12*
%TO.P,D8,2,A*%
%TO.N,/row2*%
X154914600Y-139420600D03*
%TD*%
D10*
%TO.P,SW1,1,1*%
%TO.N,/row1*%
X125739600Y-139229600D03*
%TO.P,SW1,2,2*%
X132239600Y-139229600D03*
%TO.P,SW1,3,K*%
%TO.N,/Acom*%
X125739600Y-143729600D03*
%TO.P,SW1,4,A*%
X132239600Y-143729600D03*
%TD*%
%TO.P,SW6,1,1*%
%TO.N,/row6*%
X95189600Y-116479600D03*
%TO.P,SW6,2,2*%
X101689600Y-116479600D03*
%TO.P,SW6,3,K*%
%TO.N,/Acom*%
X95189600Y-120979600D03*
%TO.P,SW6,4,A*%
X101689600Y-120979600D03*
%TD*%
%TO.P,SW8,1,1*%
%TO.N,Net-(D7-Pad1)*%
X162899600Y-140549600D03*
%TO.P,SW8,2,2*%
X169399600Y-140549600D03*
%TO.P,SW8,3,K*%
%TO.N,/Ccom*%
X162899600Y-145049600D03*
%TO.P,SW8,4,A*%
X169399600Y-145049600D03*
%TD*%
%TO.P,SW3,1,1*%
%TO.N,Net-(SW3-Pad1)*%
X105159600Y-126449600D03*
%TO.P,SW3,2,2*%
X111659600Y-126449600D03*
%TO.P,SW3,3,K*%
%TO.N,/Acom*%
X105159600Y-130949600D03*
%TO.P,SW3,4,A*%
X111659600Y-130949600D03*
%TD*%
D11*
%TO.P,D6,1,K*%
%TO.N,Net-(SW7-Pad1)*%
X182168800Y-129667000D03*
D12*
%TO.P,D6,2,A*%
%TO.N,/row2*%
X189788800Y-129667000D03*
%TD*%
D18*
%TO.P,R4,1*%
%TO.N,+5V*%
X119126000Y-131406400D03*
%TO.P,R4,2*%
%TO.N,/row4*%
X119126000Y-129756400D03*
%TD*%
D10*
%TO.P,SW2,1,1*%
%TO.N,Net-(D3-Pad1)*%
X184579600Y-113089600D03*
%TO.P,SW2,2,2*%
X191079600Y-113089600D03*
%TO.P,SW2,3,K*%
%TO.N,/Acom*%
X184579600Y-117589600D03*
%TO.P,SW2,4,A*%
X191079600Y-117589600D03*
%TD*%
D11*
%TO.P,D3,1,K*%
%TO.N,Net-(D3-Pad1)*%
X180873400Y-113284000D03*
D12*
%TO.P,D3,2,A*%
%TO.N,/row2*%
X173253400Y-113284000D03*
%TD*%
D19*
%TO.P,S1,1,NO_1*%
%TO.N,/encoderB*%
X116833400Y-117942400D03*
%TO.P,S1,2,COM_1*%
%TO.N,/row3*%
X114833400Y-117942400D03*
%TO.P,S1,3,NC_1*%
%TO.N,Net-(SW3-Pad1)*%
X112833400Y-117942400D03*
%TO.P,S1,4,NO_2*%
%TO.N,/encoderA*%
X116833400Y-115442400D03*
%TO.P,S1,5,COM_2*%
%TO.N,/row4*%
X114833400Y-115442400D03*
%TO.P,S1,6,NC_2*%
%TO.N,Net-(SW4-Pad1)*%
X112833400Y-115442400D03*
D20*
%TO.P,S1,MH1,MH1*%
%TO.N,GND*%
X118933400Y-116692400D03*
%TO.P,S1,MH2,MH2*%
X110733400Y-116692400D03*
%TD*%
D16*
%TO.P,R6,1*%
%TO.N,+5V*%
X105777800Y-116408200D03*
%TO.P,R6,2*%
%TO.N,/row6*%
X104127800Y-116408200D03*
%TD*%
D21*
%TO.P,J1,1,Pin_1*%
%TO.N,/Opt com*%
X123063000Y-114020600D03*
D22*
%TO.P,J1,2,Pin_2*%
%TO.N,/Ccom*%
X125603000Y-114020600D03*
%TO.P,J1,3,Pin_3*%
%TO.N,/Bcom*%
X128143000Y-114020600D03*
%TO.P,J1,4,Pin_4*%
%TO.N,/Acom*%
X130683000Y-114020600D03*
%TO.P,J1,5,Pin_5*%
%TO.N,+5V*%
X133223000Y-114020600D03*
%TO.P,J1,6,Pin_6*%
%TO.N,Net-(J1-Pad6)*%
X135763000Y-114020600D03*
%TO.P,J1,7,Pin_7*%
%TO.N,GND*%
X138303000Y-114020600D03*
%TO.P,J1,8,Pin_8*%
%TO.N,Net-(J1-Pad8)*%
X140843000Y-114020600D03*
%TO.P,J1,9,Pin_9*%
%TO.N,Net-(J1-Pad9)*%
X143383000Y-114020600D03*
%TO.P,J1,10,Pin_10*%
%TO.N,Net-(J1-Pad10)*%
X145923000Y-114020600D03*
%TO.P,J1,11,Pin_11*%
%TO.N,Net-(J1-Pad11)*%
X148463000Y-114020600D03*
%TO.P,J1,12,Pin_12*%
%TO.N,Net-(J1-Pad12)*%
X151003000Y-114020600D03*
%TD*%
D23*
%TO.N,/row6*%
X103200200Y-133273800D03*
%TO.N,/row2*%
X188625311Y-114533511D03*
%TO.N,/row3*%
X114274431Y-128396831D03*
%TO.N,/Opt com*%
X122351800Y-144907000D03*
%TO.N,/Ccom*%
X127330200Y-146329400D03*
%TO.N,/Bcom*%
X139090400Y-110693200D03*
X167614511Y-112903089D03*
%TO.N,/Acom*%
X184579600Y-136476400D03*
X117382400Y-143729600D03*
%TO.N,+5V*%
X128179711Y-147511889D03*
X182626000Y-111099600D03*
X173202600Y-147523200D03*
X177165000Y-136956800D03*
X119126000Y-132359400D03*
X107010200Y-116408200D03*
X127127000Y-136474200D03*
X107111800Y-136423400D03*
X118770400Y-147523200D03*
X119126000Y-125323600D03*
%TO.N,Net-(J1-Pad8)*%
X153797000Y-122504200D03*
X153797000Y-113792000D03*
%TO.N,Net-(J1-Pad9)*%
X143535311Y-128143089D03*
%TO.N,Net-(J1-Pad10)*%
X145923000Y-126619000D03*
%TO.N,Net-(J1-Pad11)*%
X148458000Y-131932600D03*
%TO.N,Net-(J1-Pad12)*%
X151012911Y-133182111D03*
%TO.N,/row1*%
X132359400Y-134823200D03*
X152958800Y-134442200D03*
%TO.N,/row4*%
X115858889Y-129352711D03*
%TD*%
D24*
%TO.N,/encoderA*%
X117483399Y-114792401D02*
X116833400Y-115442400D01*
X120919599Y-116398399D02*
X119319399Y-114798199D01*
X119319399Y-114792401D02*
X117483399Y-114792401D01*
X132755000Y-126422800D02*
X126303070Y-126422800D01*
X119319399Y-114798199D02*
X119319399Y-114792401D01*
X120919599Y-121039329D02*
X120919599Y-116398399D01*
X126303070Y-126422800D02*
X120919599Y-121039329D01*
%TO.N,/row6*%
X126466600Y-133273800D02*
X129098289Y-130642111D01*
X104127800Y-116408200D02*
X101761000Y-116408200D01*
X129098289Y-130642111D02*
X164114489Y-130642111D01*
X164114489Y-130642111D02*
X165364000Y-129392600D01*
X103200200Y-133273800D02*
X126466600Y-133273800D01*
X95189600Y-116479600D02*
X101689600Y-116479600D01*
X101761000Y-116408200D02*
X101689600Y-116479600D01*
%TO.N,/row2*%
X179968787Y-124841000D02*
X184794787Y-129667000D01*
X170713400Y-124841000D02*
X179968787Y-124841000D01*
X174502911Y-114533511D02*
X188625311Y-114533511D01*
X158993511Y-120482111D02*
X166354511Y-120482111D01*
X180086000Y-140538200D02*
X180086000Y-136970000D01*
X180072800Y-134785600D02*
X185191400Y-129667000D01*
X185191400Y-129667000D02*
X189788800Y-129667000D01*
X173253400Y-113284000D02*
X174502911Y-114533511D01*
X157744000Y-119232600D02*
X158993511Y-120482111D01*
X180086000Y-136970000D02*
X180072800Y-136956800D01*
X166354511Y-120482111D02*
X170713400Y-124841000D01*
X180072800Y-136956800D02*
X180072800Y-134785600D01*
X184794787Y-129667000D02*
X185191400Y-129667000D01*
%TO.N,/row3*%
X142080178Y-128396831D02*
X146164409Y-124312600D01*
X122402769Y-128396831D02*
X142080178Y-128396831D01*
X122402769Y-128396831D02*
X114274431Y-128396831D01*
X146164409Y-124312600D02*
X157744000Y-124312600D01*
%TO.N,/row5*%
X131833689Y-135498880D02*
X105458720Y-135498880D01*
X105458720Y-135498880D02*
X104534200Y-136423400D01*
X101693400Y-136423400D02*
X101689600Y-136419600D01*
X164114489Y-135722111D02*
X132056920Y-135722111D01*
X132056920Y-135722111D02*
X131833689Y-135498880D01*
X165364000Y-134472600D02*
X164114489Y-135722111D01*
X95189600Y-136419600D02*
X101689600Y-136419600D01*
X104534200Y-136423400D02*
X101693400Y-136423400D01*
%TO.N,Net-(D7-Pad1)*%
X172466000Y-140538200D02*
X169411000Y-140538200D01*
X169399600Y-140549600D02*
X162899600Y-140549600D01*
X169411000Y-140538200D02*
X169399600Y-140549600D01*
%TO.N,Net-(D8-Pad1)*%
X147294600Y-139420600D02*
X144640600Y-139420600D01*
X144640600Y-139420600D02*
X144449600Y-139229600D01*
X144449600Y-139229600D02*
X137949600Y-139229600D01*
%TO.N,/Opt com*%
X122473911Y-145029111D02*
X122351800Y-144907000D01*
X137949600Y-143729600D02*
X136650089Y-145029111D01*
X144449600Y-143729600D02*
X137949600Y-143729600D01*
X136650089Y-145029111D02*
X122473911Y-145029111D01*
%TO.N,/Ccom*%
X127330200Y-146329400D02*
X161619800Y-146329400D01*
X161619800Y-146329400D02*
X162899600Y-145049600D01*
X169399600Y-145049600D02*
X162899600Y-145049600D01*
%TO.N,/Bcom*%
X139279880Y-110503720D02*
X139090400Y-110693200D01*
X156286289Y-112903089D02*
X153886920Y-110503720D01*
X179449600Y-130659600D02*
X172949600Y-130659600D01*
X153886920Y-110503720D02*
X142304520Y-110503720D01*
X140780520Y-110503720D02*
X139279880Y-110503720D01*
X167614511Y-112903089D02*
X156286289Y-112903089D01*
X142304520Y-110503720D02*
X140780520Y-110503720D01*
%TO.N,/Acom*%
X184581800Y-136478600D02*
X184579600Y-136476400D01*
X85219600Y-130949600D02*
X91719600Y-130949600D01*
X125739600Y-143729600D02*
X132239600Y-143729600D01*
X191079600Y-117589600D02*
X184579600Y-117589600D01*
X134084800Y-141884400D02*
X132239600Y-143729600D01*
X181330600Y-141884400D02*
X184581800Y-138633200D01*
X181330600Y-141884400D02*
X134084800Y-141884400D01*
X184581800Y-138633200D02*
X184581800Y-136478600D01*
X95189600Y-120979600D02*
X101689600Y-120979600D01*
X125739600Y-143729600D02*
X117382400Y-143729600D01*
X105159600Y-130949600D02*
X111659600Y-130949600D01*
X95189600Y-140919600D02*
X101689600Y-140919600D01*
%TO.N,+5V*%
X128283200Y-137058400D02*
X127711200Y-137058400D01*
X176220200Y-111612600D02*
X165364000Y-111612600D01*
X178422800Y-136956800D02*
X177165000Y-136956800D01*
X119126000Y-126429000D02*
X119126000Y-125323600D01*
X176733200Y-111099600D02*
X176220200Y-111612600D01*
X163555600Y-109804200D02*
X137439400Y-109804200D01*
X119126000Y-131406400D02*
X119126000Y-132334000D01*
X105777800Y-116408200D02*
X107010200Y-116408200D01*
X173202600Y-147523200D02*
X118770400Y-147523200D01*
X127711200Y-137058400D02*
X127127000Y-136474200D01*
X182626000Y-111099600D02*
X176733200Y-111099600D01*
X137439400Y-109804200D02*
X133223000Y-114020600D01*
X106184200Y-136423400D02*
X107111800Y-136423400D01*
X165364000Y-111612600D02*
X163555600Y-109804200D01*
%TO.N,Net-(J1-Pad6)*%
X164073511Y-115402111D02*
X165364000Y-116692600D01*
X135763000Y-114020600D02*
X137144511Y-115402111D01*
X137144511Y-115402111D02*
X164073511Y-115402111D01*
%TO.N,Net-(J1-Pad8)*%
X165364000Y-121772600D02*
X164114489Y-123022111D01*
X142142511Y-112721089D02*
X152726089Y-112721089D01*
X154314911Y-123022111D02*
X153797000Y-122504200D01*
X152726089Y-112721089D02*
X153797000Y-113792000D01*
X140843000Y-114020600D02*
X142142511Y-112721089D01*
X164114489Y-123022111D02*
X154314911Y-123022111D01*
%TO.N,Net-(J1-Pad9)*%
X164073511Y-128143089D02*
X143535311Y-128143089D01*
X165364000Y-126852600D02*
X164073511Y-128143089D01*
%TO.N,Net-(J1-Pad10)*%
X146156600Y-126852600D02*
X145923000Y-126619000D01*
X157744000Y-126852600D02*
X146156600Y-126852600D01*
%TO.N,Net-(J1-Pad11)*%
X157744000Y-131932600D02*
X148458000Y-131932600D01*
%TO.N,Net-(J1-Pad12)*%
X165364000Y-131932600D02*
X164114489Y-133182111D01*
X164114489Y-133182111D02*
X151012911Y-133182111D01*
%TO.N,/row1*%
X129933200Y-137058400D02*
X130068400Y-137058400D01*
X130068400Y-137058400D02*
X132239600Y-139229600D01*
X132740400Y-134442200D02*
X132359400Y-134823200D01*
X132239600Y-139229600D02*
X125739600Y-139229600D01*
X152958800Y-134442200D02*
X132740400Y-134442200D01*
%TO.N,Net-(SW7-Pad1)*%
X179449600Y-126947800D02*
X182168800Y-129667000D01*
X179449600Y-126159600D02*
X172949600Y-126159600D01*
X179449600Y-126159600D02*
X179449600Y-126947800D01*
%TO.N,Net-(D3-Pad1)*%
X181067800Y-113089600D02*
X180873400Y-113284000D01*
X184579600Y-113089600D02*
X181067800Y-113089600D01*
X191079600Y-113089600D02*
X184579600Y-113089600D01*
%TO.N,/row4*%
X129814400Y-129392600D02*
X115869800Y-129392600D01*
X129814400Y-129392600D02*
X157744000Y-129392600D01*
%TO.N,/encoderB*%
X126588311Y-127697311D02*
X116833400Y-117942400D01*
X137755000Y-126422800D02*
X136480489Y-127697311D01*
X136480489Y-127697311D02*
X126588311Y-127697311D01*
%TO.N,Net-(SW3-Pad1)*%
X105159600Y-126449600D02*
X111659600Y-126449600D01*
%TO.N,Net-(SW4-Pad1)*%
X85219600Y-126449600D02*
X91719600Y-126449600D01*
%TD*%
M02*
