M48
; DRILL file {KiCad (6.0.0)} date Sun Mar 13 17:58:01 2022
; FORMAT={-:-/ absolute / metric / decimal}
; #@! TF.CreationDate,2022-03-13T17:58:01-04:00
; #@! TF.GenerationSoftware,Kicad,Pcbnew,(6.0.0)
; #@! TF.FileFunction,Plated,1,2,PTH
FMAT,2
METRIC
; #@! TA.AperFunction,Plated,PTH,ViaDrill
T1C0.400
; #@! TA.AperFunction,Plated,PTH,ComponentDrill
T2C0.800
; #@! TA.AperFunction,Plated,PTH,ComponentDrill
T3C1.000
; #@! TA.AperFunction,Plated,PTH,ComponentDrill
T4C1.100
; #@! TA.AperFunction,Plated,PTH,ComponentDrill
T5C1.500
; #@! TA.AperFunction,Plated,PTH,ComponentDrill
T6C3.200
%
G90
G05
T1
X103.2Y-133.274
X107.01Y-116.408
X107.112Y-136.423
X114.274Y-128.397
X115.859Y-129.353
X117.382Y-143.73
X118.77Y-147.523
X119.126Y-125.324
X119.126Y-132.359
X122.352Y-144.907
X127.127Y-136.474
X127.33Y-146.329
X128.18Y-147.512
X132.359Y-134.823
X139.09Y-110.693
X143.535Y-128.143
X145.923Y-126.619
X148.458Y-131.933
X151.013Y-133.182
X152.959Y-134.442
X153.797Y-113.792
X153.797Y-122.504
X167.615Y-112.903
X173.203Y-147.523
X177.165Y-136.957
X182.626Y-111.1
X184.58Y-136.476
X188.625Y-114.534
T2
X112.833Y-115.442
X112.833Y-117.942
X114.833Y-115.442
X114.833Y-117.942
X116.833Y-115.442
X116.833Y-117.942
X147.295Y-139.421
X154.915Y-139.421
X157.744Y-111.613
X157.744Y-114.153
X157.744Y-116.693
X157.744Y-119.233
X157.744Y-121.773
X157.744Y-124.313
X157.744Y-126.853
X157.744Y-129.393
X157.744Y-131.933
X157.744Y-134.473
X165.364Y-111.613
X165.364Y-114.153
X165.364Y-116.693
X165.364Y-119.233
X165.364Y-121.773
X165.364Y-124.313
X165.364Y-126.853
X165.364Y-129.393
X165.364Y-131.933
X165.364Y-134.473
X172.466Y-140.538
X173.253Y-113.284
X180.086Y-140.538
X180.873Y-113.284
X182.169Y-129.667
X189.789Y-129.667
T3
X85.22Y-126.45
X85.22Y-130.95
X91.72Y-126.45
X91.72Y-130.95
X95.19Y-116.48
X95.19Y-120.98
X95.19Y-136.42
X95.19Y-140.92
X101.69Y-116.48
X101.69Y-120.98
X101.69Y-136.42
X101.69Y-140.92
X105.16Y-126.45
X105.16Y-130.95
X111.66Y-126.45
X111.66Y-130.95
X123.063Y-114.021
X125.603Y-114.021
X125.74Y-139.23
X125.74Y-143.73
X128.143Y-114.021
X130.683Y-114.021
X132.24Y-139.23
X132.24Y-143.73
X133.223Y-114.021
X135.763Y-114.021
X137.95Y-139.23
X137.95Y-143.73
X138.303Y-114.021
X140.843Y-114.021
X143.383Y-114.021
X144.45Y-139.23
X144.45Y-143.73
X145.923Y-114.021
X148.463Y-114.021
X151.003Y-114.021
X162.9Y-140.55
X162.9Y-145.05
X169.4Y-140.55
X169.4Y-145.05
X172.95Y-126.16
X172.95Y-130.66
X179.45Y-126.16
X179.45Y-130.66
X184.58Y-113.09
X184.58Y-117.59
X191.08Y-113.09
X191.08Y-117.59
T4
X132.755Y-111.923
X132.755Y-126.423
X135.255Y-126.423
X137.755Y-111.923
X137.755Y-126.423
T5
X110.733Y-116.692
X118.933Y-116.692
T6
X129.555Y-118.923
X140.955Y-118.923
T0
M30
