%TF.GenerationSoftware,KiCad,Pcbnew,(6.0.0)*%
%TF.CreationDate,2022-03-13T17:57:59-04:00*%
%TF.ProjectId,jaguar spinner integrated pcb,6a616775-6172-4207-9370-696e6e657220,rev?*%
%TF.SameCoordinates,Original*%
%TF.FileFunction,Soldermask,Top*%
%TF.FilePolarity,Negative*%
%FSLAX46Y46*%
G04 Gerber Fmt 4.6, Leading zero omitted, Abs format (unit mm)*
G04 Created by KiCad (PCBNEW (6.0.0)) date 2022-03-13 17:57:59*
%MOMM*%
%LPD*%
G01*
G04 APERTURE LIST*
G04 Aperture macros list*
%AMRoundRect*
0 Rectangle with rounded corners*
0 $1 Rounding radius*
0 $2 $3 $4 $5 $6 $7 $8 $9 X,Y pos of 4 corners*
0 Add a 4 corners polygon primitive as box body*
4,1,4,$2,$3,$4,$5,$6,$7,$8,$9,$2,$3,0*
0 Add four circle primitives for the rounded corners*
1,1,$1+$1,$2,$3*
1,1,$1+$1,$4,$5*
1,1,$1+$1,$6,$7*
1,1,$1+$1,$8,$9*
0 Add four rect primitives between the rounded corners*
20,1,$1+$1,$2,$3,$4,$5,0*
20,1,$1+$1,$4,$5,$6,$7,0*
20,1,$1+$1,$6,$7,$8,$9,0*
20,1,$1+$1,$8,$9,$2,$3,0*%
G04 Aperture macros list end*
%ADD10C,1.700000*%
%ADD11C,3.200000*%
%ADD12R,1.600000X1.600000*%
%ADD13O,1.600000X1.600000*%
%ADD14RoundRect,0.200000X-0.200000X-0.275000X0.200000X-0.275000X0.200000X0.275000X-0.200000X0.275000X0*%
%ADD15C,1.650000*%
%ADD16C,4.800000*%
%ADD17RoundRect,0.200000X0.200000X0.275000X-0.200000X0.275000X-0.200000X-0.275000X0.200000X-0.275000X0*%
%ADD18RoundRect,0.200000X-0.275000X0.200000X-0.275000X-0.200000X0.275000X-0.200000X0.275000X0.200000X0*%
%ADD19RoundRect,0.200000X0.275000X-0.200000X0.275000X0.200000X-0.275000X0.200000X-0.275000X-0.200000X0*%
%ADD20C,1.300000*%
%ADD21C,2.250000*%
%ADD22R,1.700000X1.700000*%
%ADD23O,1.700000X1.700000*%
G04 APERTURE END LIST*
D10*
%TO.C,SW5*%
X95189600Y-136419600D03*
X101689600Y-136419600D03*
X95189600Y-140919600D03*
X101689600Y-140919600D03*
%TD*%
D11*
%TO.C,REF\u002A\u002A*%
X98323400Y-129006600D03*
%TD*%
D10*
%TO.C,SW7*%
X172949600Y-126159600D03*
X179449600Y-126159600D03*
X172949600Y-130659600D03*
X179449600Y-130659600D03*
%TD*%
D12*
%TO.C,D7*%
X172466000Y-140538200D03*
D13*
X180086000Y-140538200D03*
%TD*%
D14*
%TO.C,R1*%
X128283200Y-137058400D03*
X129933200Y-137058400D03*
%TD*%
D10*
%TO.C,SW9*%
X137949600Y-139229600D03*
X144449600Y-139229600D03*
X137949600Y-143729600D03*
X144449600Y-143729600D03*
%TD*%
D15*
%TO.C,VR1*%
X132755000Y-111922800D03*
X137755000Y-111922800D03*
X132755000Y-126422800D03*
X137755000Y-126422800D03*
X135255000Y-126422800D03*
D16*
X129555000Y-118922800D03*
X140955000Y-118922800D03*
%TD*%
D17*
%TO.C,R5*%
X106184200Y-136423400D03*
X104534200Y-136423400D03*
%TD*%
D11*
%TO.C,REF\u002A\u002A*%
X175717200Y-119329200D03*
%TD*%
D14*
%TO.C,R2*%
X178422800Y-136956800D03*
X180072800Y-136956800D03*
%TD*%
D18*
%TO.C,R3*%
X119126000Y-126429000D03*
X119126000Y-128079000D03*
%TD*%
D11*
%TO.C,REF\u002A\u002A*%
X89203600Y-144977600D03*
%TD*%
D12*
%TO.C,U1*%
X157744000Y-111612600D03*
D13*
X157744000Y-114152600D03*
X157744000Y-116692600D03*
X157744000Y-119232600D03*
X157744000Y-121772600D03*
X157744000Y-124312600D03*
X157744000Y-126852600D03*
X157744000Y-129392600D03*
X157744000Y-131932600D03*
X157744000Y-134472600D03*
X165364000Y-134472600D03*
X165364000Y-131932600D03*
X165364000Y-129392600D03*
X165364000Y-126852600D03*
X165364000Y-124312600D03*
X165364000Y-121772600D03*
X165364000Y-119232600D03*
X165364000Y-116692600D03*
X165364000Y-114152600D03*
X165364000Y-111612600D03*
%TD*%
D11*
%TO.C,REF\u002A\u002A*%
X190253600Y-144977600D03*
%TD*%
%TO.C,REF\u002A\u002A*%
X192253600Y-124267600D03*
%TD*%
%TO.C,REF\u002A\u002A*%
X87203600Y-120267600D03*
%TD*%
D10*
%TO.C,SW4*%
X85219600Y-126449600D03*
X91719600Y-126449600D03*
X85219600Y-130949600D03*
X91719600Y-130949600D03*
%TD*%
D12*
%TO.C,D8*%
X147294600Y-139420600D03*
D13*
X154914600Y-139420600D03*
%TD*%
D10*
%TO.C,SW1*%
X125739600Y-139229600D03*
X132239600Y-139229600D03*
X125739600Y-143729600D03*
X132239600Y-143729600D03*
%TD*%
%TO.C,SW6*%
X95189600Y-116479600D03*
X101689600Y-116479600D03*
X95189600Y-120979600D03*
X101689600Y-120979600D03*
%TD*%
%TO.C,SW8*%
X162899600Y-140549600D03*
X169399600Y-140549600D03*
X162899600Y-145049600D03*
X169399600Y-145049600D03*
%TD*%
%TO.C,SW3*%
X105159600Y-126449600D03*
X111659600Y-126449600D03*
X105159600Y-130949600D03*
X111659600Y-130949600D03*
%TD*%
D12*
%TO.C,D6*%
X182168800Y-129667000D03*
D13*
X189788800Y-129667000D03*
%TD*%
D19*
%TO.C,R4*%
X119126000Y-131406400D03*
X119126000Y-129756400D03*
%TD*%
D10*
%TO.C,SW2*%
X184579600Y-113089600D03*
X191079600Y-113089600D03*
X184579600Y-117589600D03*
X191079600Y-117589600D03*
%TD*%
D12*
%TO.C,D3*%
X180873400Y-113284000D03*
D13*
X173253400Y-113284000D03*
%TD*%
D20*
%TO.C,S1*%
X116833400Y-117942400D03*
X114833400Y-117942400D03*
X112833400Y-117942400D03*
X116833400Y-115442400D03*
X114833400Y-115442400D03*
X112833400Y-115442400D03*
D21*
X118933400Y-116692400D03*
X110733400Y-116692400D03*
%TD*%
D17*
%TO.C,R6*%
X105777800Y-116408200D03*
X104127800Y-116408200D03*
%TD*%
D22*
%TO.C,J1*%
X123063000Y-114020600D03*
D23*
X125603000Y-114020600D03*
X128143000Y-114020600D03*
X130683000Y-114020600D03*
X133223000Y-114020600D03*
X135763000Y-114020600D03*
X138303000Y-114020600D03*
X140843000Y-114020600D03*
X143383000Y-114020600D03*
X145923000Y-114020600D03*
X148463000Y-114020600D03*
X151003000Y-114020600D03*
%TD*%
M02*
